<svg width="536" height="554" viewBox="0 0 536 554" fill="none" xmlns="http://www.w3.org/2000/svg">
<path d="M139.054 101.746C181.766 70.7137 233.205 54 286 54L286 304L139.054 101.746Z" fill="#0E111A"/>
<g opacity="0.2">
<mask id="path-2-inside-1_119_2401" fill="white">
<path d="M139.054 101.746C181.766 70.7137 233.205 54 286 54L286 304L139.054 101.746Z"/>
</mask>
<g filter="url(#filter0_i_119_2401)">
<path d="M139.054 101.746C181.766 70.7137 233.205 54 286 54L286 304L139.054 101.746Z" fill="#09444E"/>
<path d="M139.054 101.746C181.766 70.7137 233.205 54 286 54L286 304L139.054 101.746Z" fill="url(#paint0_radial_119_2401)"/>
</g>
<path d="M139.054 101.746C181.766 70.7137 233.205 54 286 54L286 304L139.054 101.746Z" stroke="url(#paint1_linear_119_2401)" stroke-width="24" mask="url(#path-2-inside-1_119_2401)"/>
</g>
<path d="M148.2 0.483999C148.293 0.427999 148.433 0.399999 148.62 0.399999H152.008C152.101 0.399999 152.176 0.437332 152.232 0.511999C152.307 0.567999 152.344 0.642666 152.344 0.735999V19.664C152.344 19.7573 152.307 19.8413 152.232 19.916C152.176 19.972 152.101 20 152.008 20H148.732C148.639 20 148.555 19.972 148.48 19.916C148.424 19.8413 148.396 19.7573 148.396 19.664V4.32C148.396 4.28267 148.377 4.24533 148.34 4.208C148.303 4.17067 148.265 4.16133 148.228 4.18L145.456 4.936L145.344 4.964C145.176 4.964 145.092 4.86133 145.092 4.656L145.008 2.248C145.008 2.06133 145.092 1.93067 145.26 1.856L148.2 0.483999ZM162.73 20.308C160.677 20.308 159.053 19.7387 157.858 18.6C156.664 17.4427 156.066 15.8747 156.066 13.896V6.504C156.066 4.56267 156.664 3.02267 157.858 1.884C159.053 0.745333 160.677 0.176 162.73 0.176C164.784 0.176 166.408 0.745333 167.602 1.884C168.816 3.02267 169.422 4.56267 169.422 6.504V13.896C169.422 15.8747 168.816 17.4427 167.602 18.6C166.408 19.7387 164.784 20.308 162.73 20.308ZM162.73 16.92C163.57 16.92 164.233 16.668 164.718 16.164C165.222 15.6413 165.474 14.9507 165.474 14.092V6.392C165.474 5.53333 165.222 4.852 164.718 4.348C164.233 3.82533 163.57 3.564 162.73 3.564C161.909 3.564 161.246 3.82533 160.742 4.348C160.257 4.852 160.014 5.53333 160.014 6.392V14.092C160.014 14.9507 160.257 15.6413 160.742 16.164C161.246 16.668 161.909 16.92 162.73 16.92ZM177.815 8.996C176.994 8.996 176.238 8.8 175.547 8.408C174.875 8.016 174.334 7.484 173.923 6.812C173.531 6.12133 173.335 5.37467 173.335 4.572C173.335 3.76933 173.531 3.032 173.923 2.36C174.334 1.688 174.875 1.156 175.547 0.763999C176.238 0.353332 176.994 0.147999 177.815 0.147999C178.618 0.147999 179.355 0.353332 180.027 0.763999C180.699 1.156 181.231 1.688 181.623 2.36C182.034 3.032 182.239 3.76933 182.239 4.572C182.239 5.37467 182.043 6.12133 181.651 6.812C181.259 7.484 180.718 8.016 180.027 8.408C179.355 8.8 178.618 8.996 177.815 8.996ZM176.723 20C176.593 20 176.509 19.9627 176.471 19.888C176.434 19.8133 176.443 19.72 176.499 19.608L187.055 0.623999C187.149 0.474665 187.289 0.399999 187.475 0.399999H189.547C189.678 0.399999 189.762 0.437332 189.799 0.511999C189.837 0.586666 189.827 0.679999 189.771 0.791999L179.243 19.776C179.15 19.9253 179.01 20 178.823 20H176.723ZM177.815 6.7C178.394 6.7 178.879 6.49467 179.271 6.084C179.682 5.67333 179.887 5.16933 179.887 4.572C179.887 3.99333 179.682 3.49867 179.271 3.088C178.879 2.67733 178.394 2.472 177.815 2.472C177.218 2.472 176.714 2.67733 176.303 3.088C175.893 3.49867 175.687 3.99333 175.687 4.572C175.687 5.16933 175.893 5.67333 176.303 6.084C176.714 6.49467 177.218 6.7 177.815 6.7ZM188.735 20.252C187.933 20.252 187.186 20.056 186.495 19.664C185.823 19.2533 185.282 18.712 184.871 18.04C184.479 17.3493 184.283 16.6027 184.283 15.8C184.283 14.9973 184.479 14.26 184.871 13.588C185.282 12.916 185.823 12.384 186.495 11.992C187.186 11.6 187.933 11.404 188.735 11.404C189.538 11.404 190.275 11.6 190.947 11.992C191.638 12.384 192.179 12.916 192.571 13.588C192.982 14.26 193.187 14.9973 193.187 15.8C193.187 16.6027 192.982 17.3493 192.571 18.04C192.179 18.712 191.638 19.2533 190.947 19.664C190.275 20.056 189.538 20.252 188.735 20.252ZM188.735 17.928C189.314 17.928 189.809 17.7227 190.219 17.312C190.63 16.9013 190.835 16.3973 190.835 15.8C190.835 15.2213 190.63 14.7267 190.219 14.316C189.809 13.9053 189.314 13.7 188.735 13.7C188.157 13.7 187.662 13.9053 187.251 14.316C186.841 14.708 186.635 15.2027 186.635 15.8C186.635 16.3973 186.831 16.9013 187.223 17.312C187.634 17.7227 188.138 17.928 188.735 17.928Z" fill="url(#paint2_linear_119_2401)"/>
<path d="M5.43932 52.198C4.41265 52.198 3.51065 52 2.73332 51.604C1.95598 51.1933 1.34732 50.6213 0.907318 49.888C0.481985 49.14 0.269318 48.282 0.269318 47.314V41.264C0.269318 40.3107 0.481985 39.4673 0.907318 38.734C1.34732 38.0007 1.95598 37.436 2.73332 37.04C3.51065 36.6293 4.41265 36.424 5.43932 36.424C6.46598 36.424 7.36798 36.622 8.14532 37.018C8.92265 37.414 9.52398 37.9713 9.94932 38.69C10.3893 39.4087 10.6093 40.2373 10.6093 41.176C10.6093 41.2493 10.5873 41.308 10.5433 41.352C10.4993 41.396 10.448 41.418 10.3893 41.418L9.26732 41.484C9.12065 41.484 9.04732 41.418 9.04732 41.286V41.22C9.04732 40.1787 8.71732 39.35 8.05732 38.734C7.39732 38.1033 6.52465 37.788 5.43932 37.788C4.35398 37.788 3.48132 38.1033 2.82132 38.734C2.16132 39.3647 1.83132 40.1933 1.83132 41.22V47.38C1.83132 48.4067 2.16132 49.2353 2.82132 49.866C3.48132 50.4967 4.35398 50.812 5.43932 50.812C6.52465 50.812 7.39732 50.504 8.05732 49.888C8.71732 49.2573 9.04732 48.4213 9.04732 47.38V47.336C9.04732 47.204 9.12065 47.138 9.26732 47.138L10.3893 47.204C10.536 47.204 10.6093 47.27 10.6093 47.402C10.6093 48.3553 10.3893 49.1987 9.94932 49.932C9.52398 50.6507 8.92265 51.208 8.14532 51.604C7.36798 52 6.46598 52.198 5.43932 52.198ZM18.7486 40.714C19.9219 40.714 20.8533 41.0587 21.5426 41.748C22.2466 42.4373 22.5986 43.3613 22.5986 44.52V51.78C22.5986 51.9267 22.5253 52 22.3786 52H21.2566C21.1099 52 21.0366 51.9267 21.0366 51.78V44.828C21.0366 44.0213 20.7873 43.3613 20.2886 42.848C19.8046 42.3347 19.1739 42.078 18.3966 42.078C17.5899 42.078 16.9373 42.3273 16.4386 42.826C15.9399 43.3247 15.6906 43.9773 15.6906 44.784V51.78C15.6906 51.9267 15.6173 52 15.4706 52H14.3486C14.2019 52 14.1286 51.9267 14.1286 51.78V36.82C14.1286 36.6733 14.2019 36.6 14.3486 36.6H15.4706C15.6173 36.6 15.6906 36.6733 15.6906 36.82V42.034C15.6906 42.0633 15.6979 42.0853 15.7126 42.1C15.7419 42.1147 15.7639 42.1073 15.7786 42.078C16.4239 41.1687 17.4139 40.714 18.7486 40.714ZM27.364 38.844C27.012 38.844 26.7186 38.7267 26.484 38.492C26.2493 38.2573 26.132 37.964 26.132 37.612C26.132 37.2453 26.2493 36.952 26.484 36.732C26.7186 36.4973 27.012 36.38 27.364 36.38C27.716 36.38 28.0093 36.4973 28.244 36.732C28.4786 36.952 28.596 37.2453 28.596 37.612C28.596 37.964 28.4786 38.2573 28.244 38.492C28.0093 38.7267 27.716 38.844 27.364 38.844ZM26.748 51.978C26.6013 51.978 26.528 51.9047 26.528 51.758V41.066C26.528 40.9193 26.6013 40.846 26.748 40.846H27.87C28.0166 40.846 28.09 40.9193 28.09 41.066V51.758C28.09 51.9047 28.0166 51.978 27.87 51.978H26.748ZM32.4554 52C32.3087 52 32.2354 51.9267 32.2354 51.78V36.82C32.2354 36.6733 32.3087 36.6 32.4554 36.6H33.5774C33.7241 36.6 33.7974 36.6733 33.7974 36.82V51.78C33.7974 51.9267 33.7241 52 33.5774 52H32.4554ZM44.5337 36.82C44.5337 36.6733 44.607 36.6 44.7537 36.6H45.8757C46.0224 36.6 46.0957 36.6733 46.0957 36.82V51.78C46.0957 51.9267 46.0224 52 45.8757 52H44.7537C44.607 52 44.5337 51.9267 44.5337 51.78V50.856C44.5337 50.8267 44.519 50.812 44.4897 50.812C44.475 50.7973 44.453 50.8047 44.4237 50.834C44.101 51.2593 43.6977 51.5893 43.2137 51.824C42.7444 52.0587 42.2164 52.176 41.6297 52.176C40.603 52.176 39.7377 51.912 39.0337 51.384C38.3444 50.856 37.8677 50.1373 37.6037 49.228C37.3984 48.568 37.2957 47.6367 37.2957 46.434C37.2957 45.2167 37.3837 44.3073 37.5597 43.706C37.8237 42.7673 38.3077 42.034 39.0117 41.506C39.7157 40.9633 40.5884 40.692 41.6297 40.692C42.2017 40.692 42.7297 40.8093 43.2137 41.044C43.6977 41.264 44.101 41.5867 44.4237 42.012C44.453 42.0413 44.475 42.056 44.4897 42.056C44.519 42.0413 44.5337 42.0193 44.5337 41.99V36.82ZM44.1377 49.118C44.2697 48.8247 44.365 48.48 44.4237 48.084C44.4824 47.688 44.5117 47.138 44.5117 46.434C44.5117 45.73 44.4824 45.18 44.4237 44.784C44.365 44.3733 44.2624 44.014 44.1157 43.706C43.9397 43.2073 43.6464 42.8113 43.2357 42.518C42.8397 42.21 42.363 42.056 41.8057 42.056C41.219 42.056 40.713 42.2027 40.2877 42.496C39.8624 42.7893 39.5544 43.178 39.3637 43.662C39.1877 43.9847 39.0557 44.3513 38.9677 44.762C38.8944 45.158 38.8577 45.7153 38.8577 46.434C38.8577 47.1233 38.887 47.666 38.9457 48.062C39.0044 48.4433 39.107 48.788 39.2537 49.096C39.4297 49.624 39.7377 50.042 40.1777 50.35C40.6324 50.658 41.1677 50.812 41.7837 50.812C42.3704 50.812 42.8617 50.658 43.2577 50.35C43.6537 50.042 43.947 49.6313 44.1377 49.118ZM54.4435 40.758C54.9275 40.758 55.3455 40.8533 55.6975 41.044C55.8148 41.1027 55.8588 41.198 55.8295 41.33L55.5875 42.408C55.5435 42.5547 55.4481 42.5987 55.3015 42.54C55.0521 42.4373 54.7661 42.386 54.4435 42.386L54.1575 42.408C53.3948 42.4373 52.7641 42.7233 52.2655 43.266C51.7668 43.794 51.5175 44.4687 51.5175 45.29V51.78C51.5175 51.9267 51.4441 52 51.2975 52H50.1755C50.0288 52 49.9555 51.9267 49.9555 51.78V41.088C49.9555 40.9413 50.0288 40.868 50.1755 40.868H51.2975C51.4441 40.868 51.5175 40.9413 51.5175 41.088V42.43C51.5175 42.474 51.5248 42.5033 51.5395 42.518C51.5688 42.518 51.5908 42.5033 51.6055 42.474C51.9135 41.9313 52.3021 41.5133 52.7715 41.22C53.2555 40.912 53.8128 40.758 54.4435 40.758ZM66.7177 44.564C66.7764 44.9747 66.8057 45.488 66.8057 46.104V46.808C66.8057 46.9547 66.7324 47.028 66.5857 47.028H59.4797C59.4211 47.028 59.3917 47.0573 59.3917 47.116C59.4211 47.9227 59.4651 48.4433 59.5237 48.678C59.6851 49.338 60.0297 49.8587 60.5577 50.24C61.0857 50.6213 61.7604 50.812 62.5817 50.812C63.1977 50.812 63.7404 50.6727 64.2097 50.394C64.6791 50.1153 65.0457 49.7193 65.3097 49.206C65.3977 49.074 65.5004 49.0447 65.6177 49.118L66.4757 49.624C66.5931 49.6973 66.6224 49.8 66.5637 49.932C66.1971 50.636 65.6471 51.1933 64.9137 51.604C64.1804 52 63.3371 52.198 62.3837 52.198C61.3424 52.1833 60.4697 51.934 59.7657 51.45C59.0617 50.966 58.5557 50.2913 58.2477 49.426C57.9837 48.722 57.8517 47.71 57.8517 46.39C57.8517 45.774 57.8591 45.2753 57.8737 44.894C57.9031 44.498 57.9617 44.146 58.0497 43.838C58.2991 42.8847 58.7977 42.122 59.5457 41.55C60.3084 40.978 61.2251 40.692 62.2957 40.692C63.6304 40.692 64.6571 41.0293 65.3757 41.704C66.0944 42.3787 66.5417 43.332 66.7177 44.564ZM62.2957 42.056C61.5771 42.056 60.9757 42.2467 60.4917 42.628C60.0224 42.9947 59.7144 43.4933 59.5677 44.124C59.4797 44.432 59.4211 44.9307 59.3917 45.62C59.3917 45.6787 59.4211 45.708 59.4797 45.708H65.1777C65.2364 45.708 65.2657 45.6787 65.2657 45.62C65.2364 44.96 65.1924 44.4907 65.1337 44.212C64.9724 43.552 64.6424 43.0313 64.1437 42.65C63.6597 42.254 63.0437 42.056 62.2957 42.056ZM74.8522 40.714C76.0255 40.714 76.9569 41.0587 77.6462 41.748C78.3502 42.4373 78.7022 43.3613 78.7022 44.52V51.78C78.7022 51.9267 78.6289 52 78.4822 52H77.3602C77.2135 52 77.1402 51.9267 77.1402 51.78V44.828C77.1402 44.0213 76.8909 43.3613 76.3922 42.848C75.9082 42.3347 75.2775 42.078 74.5002 42.078C73.6935 42.078 73.0409 42.3273 72.5422 42.826C72.0435 43.3247 71.7942 43.9773 71.7942 44.784V51.78C71.7942 51.9267 71.7209 52 71.5742 52H70.4522C70.3055 52 70.2322 51.9267 70.2322 51.78V41.088C70.2322 40.9413 70.3055 40.868 70.4522 40.868H71.5742C71.7209 40.868 71.7942 40.9413 71.7942 41.088V42.034C71.7942 42.0633 71.8015 42.0853 71.8162 42.1C71.8455 42.1147 71.8675 42.1073 71.8822 42.078C72.5275 41.1687 73.5175 40.714 74.8522 40.714ZM97.3879 37.744C97.3879 37.8907 97.3145 37.964 97.1679 37.964H89.0939C89.0352 37.964 89.0059 37.9933 89.0059 38.052V43.486C89.0059 43.5447 89.0352 43.574 89.0939 43.574H94.7479C94.8945 43.574 94.9679 43.6473 94.9679 43.794V44.718C94.9679 44.8647 94.8945 44.938 94.7479 44.938H89.0939C89.0352 44.938 89.0059 44.9673 89.0059 45.026V51.78C89.0059 51.9267 88.9325 52 88.7859 52H87.6639C87.5172 52 87.4439 51.9267 87.4439 51.78V36.82C87.4439 36.6733 87.5172 36.6 87.6639 36.6H97.1679C97.3145 36.6 97.3879 36.6733 97.3879 36.82V37.744ZM103.325 52.176C102.269 52.176 101.36 51.9047 100.597 51.362C99.8342 50.8193 99.3062 50.0713 99.0129 49.118C98.8076 48.4433 98.7049 47.5413 98.7049 46.412C98.7049 45.2827 98.8076 44.388 99.0129 43.728C99.2916 42.7893 99.8122 42.0487 100.575 41.506C101.338 40.9633 102.262 40.692 103.347 40.692C104.388 40.692 105.283 40.9633 106.031 41.506C106.794 42.0487 107.314 42.782 107.593 43.706C107.798 44.3367 107.901 45.2387 107.901 46.412C107.901 47.6 107.798 48.502 107.593 49.118C107.314 50.0713 106.794 50.8193 106.031 51.362C105.283 51.9047 104.381 52.176 103.325 52.176ZM103.325 50.812C104.029 50.812 104.63 50.6213 105.129 50.24C105.628 49.844 105.965 49.316 106.141 48.656C106.273 48.128 106.339 47.3873 106.339 46.434C106.339 45.466 106.28 44.7253 106.163 44.212C105.987 43.552 105.642 43.0313 105.129 42.65C104.63 42.254 104.022 42.056 103.303 42.056C102.584 42.056 101.976 42.254 101.477 42.65C100.978 43.0313 100.641 43.552 100.465 44.212C100.348 44.7253 100.289 45.466 100.289 46.434C100.289 47.402 100.348 48.1427 100.465 48.656C100.626 49.316 100.956 49.844 101.455 50.24C101.968 50.6213 102.592 50.812 103.325 50.812ZM118.119 41.088C118.119 40.9413 118.193 40.868 118.339 40.868H119.461C119.608 40.868 119.681 40.9413 119.681 41.088V51.78C119.681 51.9267 119.608 52 119.461 52H118.339C118.193 52 118.119 51.9267 118.119 51.78V50.834C118.119 50.8047 118.105 50.7827 118.075 50.768C118.046 50.7533 118.024 50.7607 118.009 50.79C117.393 51.6993 116.418 52.154 115.083 52.154C114.379 52.154 113.727 52.0147 113.125 51.736C112.539 51.4427 112.069 51.0247 111.717 50.482C111.38 49.9393 111.211 49.2867 111.211 48.524V41.088C111.211 40.9413 111.285 40.868 111.431 40.868H112.553C112.7 40.868 112.773 40.9413 112.773 41.088V48.062C112.773 48.898 113.008 49.5653 113.477 50.064C113.947 50.548 114.585 50.79 115.391 50.79C116.227 50.79 116.887 50.5407 117.371 50.042C117.87 49.5433 118.119 48.8833 118.119 48.062V41.088ZM128.122 40.714C129.295 40.714 130.227 41.0587 130.916 41.748C131.62 42.4373 131.972 43.3613 131.972 44.52V51.78C131.972 51.9267 131.899 52 131.752 52H130.63C130.483 52 130.41 51.9267 130.41 51.78V44.828C130.41 44.0213 130.161 43.3613 129.662 42.848C129.178 42.3347 128.547 42.078 127.77 42.078C126.963 42.078 126.311 42.3273 125.812 42.826C125.313 43.3247 125.064 43.9773 125.064 44.784V51.78C125.064 51.9267 124.991 52 124.844 52H123.722C123.575 52 123.502 51.9267 123.502 51.78V41.088C123.502 40.9413 123.575 40.868 123.722 40.868H124.844C124.991 40.868 125.064 40.9413 125.064 41.088V42.034C125.064 42.0633 125.071 42.0853 125.086 42.1C125.115 42.1147 125.137 42.1073 125.152 42.078C125.797 41.1687 126.787 40.714 128.122 40.714ZM142.439 36.82C142.439 36.6733 142.512 36.6 142.659 36.6H143.781C143.928 36.6 144.001 36.6733 144.001 36.82V51.78C144.001 51.9267 143.928 52 143.781 52H142.659C142.512 52 142.439 51.9267 142.439 51.78V50.856C142.439 50.8267 142.424 50.812 142.395 50.812C142.38 50.7973 142.358 50.8047 142.329 50.834C142.006 51.2593 141.603 51.5893 141.119 51.824C140.65 52.0587 140.122 52.176 139.535 52.176C138.508 52.176 137.643 51.912 136.939 51.384C136.25 50.856 135.773 50.1373 135.509 49.228C135.304 48.568 135.201 47.6367 135.201 46.434C135.201 45.2167 135.289 44.3073 135.465 43.706C135.729 42.7673 136.213 42.034 136.917 41.506C137.621 40.9633 138.494 40.692 139.535 40.692C140.107 40.692 140.635 40.8093 141.119 41.044C141.603 41.264 142.006 41.5867 142.329 42.012C142.358 42.0413 142.38 42.056 142.395 42.056C142.424 42.0413 142.439 42.0193 142.439 41.99V36.82ZM142.043 49.118C142.175 48.8247 142.27 48.48 142.329 48.084C142.388 47.688 142.417 47.138 142.417 46.434C142.417 45.73 142.388 45.18 142.329 44.784C142.27 44.3733 142.168 44.014 142.021 43.706C141.845 43.2073 141.552 42.8113 141.141 42.518C140.745 42.21 140.268 42.056 139.711 42.056C139.124 42.056 138.618 42.2027 138.193 42.496C137.768 42.7893 137.46 43.178 137.269 43.662C137.093 43.9847 136.961 44.3513 136.873 44.762C136.8 45.158 136.763 45.7153 136.763 46.434C136.763 47.1233 136.792 47.666 136.851 48.062C136.91 48.4433 137.012 48.788 137.159 49.096C137.335 49.624 137.643 50.042 138.083 50.35C138.538 50.658 139.073 50.812 139.689 50.812C140.276 50.812 140.767 50.658 141.163 50.35C141.559 50.042 141.852 49.6313 142.043 49.118ZM151.711 40.692C153.031 40.692 154.05 41.0293 154.769 41.704C155.488 42.3787 155.847 43.2733 155.847 44.388V51.78C155.847 51.9267 155.774 52 155.627 52H154.505C154.358 52 154.285 51.9267 154.285 51.78V50.878C154.285 50.8487 154.27 50.8267 154.241 50.812C154.226 50.7973 154.204 50.8047 154.175 50.834C153.808 51.274 153.332 51.6113 152.745 51.846C152.158 52.066 151.506 52.176 150.787 52.176C149.746 52.176 148.873 51.912 148.169 51.384C147.465 50.856 147.113 50.0493 147.113 48.964C147.113 47.864 147.509 46.9987 148.301 46.368C149.108 45.7227 150.222 45.4 151.645 45.4H154.197C154.256 45.4 154.285 45.3707 154.285 45.312V44.476C154.285 43.728 154.072 43.1413 153.647 42.716C153.236 42.276 152.591 42.056 151.711 42.056C151.007 42.056 150.435 42.1953 149.995 42.474C149.555 42.738 149.284 43.112 149.181 43.596C149.137 43.7427 149.049 43.8087 148.917 43.794L147.729 43.64C147.568 43.6107 147.502 43.552 147.531 43.464C147.648 42.6427 148.088 41.9753 148.851 41.462C149.614 40.9487 150.567 40.692 151.711 40.692ZM151.095 50.834C151.96 50.834 152.708 50.6213 153.339 50.196C153.97 49.756 154.285 49.1693 154.285 48.436V46.72C154.285 46.6613 154.256 46.632 154.197 46.632H151.887C150.919 46.632 150.142 46.83 149.555 47.226C148.968 47.622 148.675 48.172 148.675 48.876C148.675 49.5213 148.895 50.0127 149.335 50.35C149.79 50.6727 150.376 50.834 151.095 50.834ZM164.325 41.946C164.325 42.0927 164.252 42.166 164.105 42.166H161.619C161.561 42.166 161.531 42.1953 161.531 42.254V48.744C161.531 49.448 161.685 49.9467 161.993 50.24C162.316 50.5187 162.815 50.658 163.489 50.658H164.039C164.186 50.658 164.259 50.7313 164.259 50.878V51.78C164.259 51.9267 164.186 52 164.039 52C163.863 52.0147 163.592 52.022 163.225 52.022C162.169 52.022 161.37 51.824 160.827 51.428C160.285 51.032 160.013 50.2987 160.013 49.228V42.254C160.013 42.1953 159.984 42.166 159.925 42.166H158.583C158.437 42.166 158.363 42.0927 158.363 41.946V41.088C158.363 40.9413 158.437 40.868 158.583 40.868H159.925C159.984 40.868 160.013 40.8387 160.013 40.78V38.228C160.013 38.0813 160.087 38.008 160.233 38.008H161.311C161.458 38.008 161.531 38.0813 161.531 38.228V40.78C161.531 40.8387 161.561 40.868 161.619 40.868H164.105C164.252 40.868 164.325 40.9413 164.325 41.088V41.946ZM168.721 38.844C168.369 38.844 168.076 38.7267 167.841 38.492C167.606 38.2573 167.489 37.964 167.489 37.612C167.489 37.2453 167.606 36.952 167.841 36.732C168.076 36.4973 168.369 36.38 168.721 36.38C169.073 36.38 169.366 36.4973 169.601 36.732C169.836 36.952 169.953 37.2453 169.953 37.612C169.953 37.964 169.836 38.2573 169.601 38.492C169.366 38.7267 169.073 38.844 168.721 38.844ZM168.105 51.978C167.958 51.978 167.885 51.9047 167.885 51.758V41.066C167.885 40.9193 167.958 40.846 168.105 40.846H169.227C169.374 40.846 169.447 40.9193 169.447 41.066V51.758C169.447 51.9047 169.374 51.978 169.227 51.978H168.105ZM177.838 52.176C176.782 52.176 175.873 51.9047 175.11 51.362C174.348 50.8193 173.82 50.0713 173.526 49.118C173.321 48.4433 173.218 47.5413 173.218 46.412C173.218 45.2827 173.321 44.388 173.526 43.728C173.805 42.7893 174.326 42.0487 175.088 41.506C175.851 40.9633 176.775 40.692 177.86 40.692C178.902 40.692 179.796 40.9633 180.544 41.506C181.307 42.0487 181.828 42.782 182.106 43.706C182.312 44.3367 182.414 45.2387 182.414 46.412C182.414 47.6 182.312 48.502 182.106 49.118C181.828 50.0713 181.307 50.8193 180.544 51.362C179.796 51.9047 178.894 52.176 177.838 52.176ZM177.838 50.812C178.542 50.812 179.144 50.6213 179.642 50.24C180.141 49.844 180.478 49.316 180.654 48.656C180.786 48.128 180.852 47.3873 180.852 46.434C180.852 45.466 180.794 44.7253 180.676 44.212C180.5 43.552 180.156 43.0313 179.642 42.65C179.144 42.254 178.535 42.056 177.816 42.056C177.098 42.056 176.489 42.254 175.99 42.65C175.492 43.0313 175.154 43.552 174.978 44.212C174.861 44.7253 174.802 45.466 174.802 46.434C174.802 47.402 174.861 48.1427 174.978 48.656C175.14 49.316 175.47 49.844 175.968 50.24C176.482 50.6213 177.105 50.812 177.838 50.812ZM190.521 40.714C191.694 40.714 192.625 41.0587 193.315 41.748C194.019 42.4373 194.371 43.3613 194.371 44.52V51.78C194.371 51.9267 194.297 52 194.151 52H193.029C192.882 52 192.809 51.9267 192.809 51.78V44.828C192.809 44.0213 192.559 43.3613 192.061 42.848C191.577 42.3347 190.946 42.078 190.169 42.078C189.362 42.078 188.709 42.3273 188.211 42.826C187.712 43.3247 187.463 43.9773 187.463 44.784V51.78C187.463 51.9267 187.389 52 187.243 52H186.121C185.974 52 185.901 51.9267 185.901 51.78V41.088C185.901 40.9413 185.974 40.868 186.121 40.868H187.243C187.389 40.868 187.463 40.9413 187.463 41.088V42.034C187.463 42.0633 187.47 42.0853 187.485 42.1C187.514 42.1147 187.536 42.1073 187.551 42.078C188.196 41.1687 189.186 40.714 190.521 40.714Z" fill="white"/>
<defs>
<filter id="filter0_i_119_2401" x="123.054" y="54" width="162.946" height="266" filterUnits="userSpaceOnUse" color-interpolation-filters="sRGB">
<feFlood flood-opacity="0" result="BackgroundImageFix"/>
<feBlend mode="normal" in="SourceGraphic" in2="BackgroundImageFix" result="shape"/>
<feColorMatrix in="SourceAlpha" type="matrix" values="0 0 0 0 0 0 0 0 0 0 0 0 0 0 0 0 0 0 127 0" result="hardAlpha"/>
<feOffset dx="-24" dy="24"/>
<feGaussianBlur stdDeviation="8"/>
<feComposite in2="hardAlpha" operator="arithmetic" k2="-1" k3="1"/>
<feColorMatrix type="matrix" values="0 0 0 0 0 0 0 0 0 0 0 0 0 0 0 0 0 0 0.32 0"/>
<feBlend mode="normal" in2="shape" result="effect1_innerShadow_119_2401"/>
</filter>
<radialGradient id="paint0_radial_119_2401" cx="0" cy="0" r="1" gradientUnits="userSpaceOnUse" gradientTransform="translate(388 210) rotate(110.973) scale(514.058)">
<stop stop-color="#14A5AE"/>
<stop offset="1" stop-color="#000210" stop-opacity="0"/>
</radialGradient>
<linearGradient id="paint1_linear_119_2401" x1="18.2222" y1="46.2222" x2="536" y2="554" gradientUnits="userSpaceOnUse">
<stop stop-color="#14A5AE"/>
<stop offset="1" stop-color="#145F69"/>
</linearGradient>
<linearGradient id="paint2_linear_119_2401" x1="142.151" y1="-7.49778" x2="171.996" y2="40.0629" gradientUnits="userSpaceOnUse">
<stop stop-color="#14A5AE"/>
<stop offset="1" stop-color="#145F69"/>
</linearGradient>
</defs>
</svg>
