<svg width="746" height="500" viewBox="0 0 746 500" fill="none" xmlns="http://www.w3.org/2000/svg">
<path d="M246 250C246 210.547 255.337 171.655 273.248 136.502C291.159 101.35 317.136 70.9354 349.054 47.7458L496 250L246 250Z" fill="#0E111A"/>
<g opacity="0.4">
<mask id="path-2-inside-1_119_2400" fill="white">
<path d="M246 250C246 210.547 255.337 171.655 273.248 136.502C291.159 101.35 317.136 70.9354 349.054 47.7458L496 250L246 250Z"/>
</mask>
<g filter="url(#filter0_i_119_2400)">
<path d="M246 250C246 210.547 255.337 171.655 273.248 136.502C291.159 101.35 317.136 70.9354 349.054 47.7458L496 250L246 250Z" fill="#09444E"/>
<path d="M246 250C246 210.547 255.337 171.655 273.248 136.502C291.159 101.35 317.136 70.9354 349.054 47.7458L496 250L246 250Z" fill="url(#paint0_radial_119_2400)"/>
</g>
<path d="M246 250C246 210.547 255.337 171.655 273.248 136.502C291.159 101.35 317.136 70.9354 349.054 47.7458L496 250L246 250Z" stroke="url(#paint1_linear_119_2400)" stroke-width="24" mask="url(#path-2-inside-1_119_2400)"/>
</g>
<path d="M192.462 84.484C192.556 84.428 192.696 84.4 192.882 84.4H196.27C196.364 84.4 196.438 84.4373 196.494 84.512C196.569 84.568 196.606 84.6427 196.606 84.736V103.664C196.606 103.757 196.569 103.841 196.494 103.916C196.438 103.972 196.364 104 196.27 104H192.994C192.901 104 192.817 103.972 192.742 103.916C192.686 103.841 192.658 103.757 192.658 103.664V88.32C192.658 88.2827 192.64 88.2453 192.602 88.208C192.565 88.1707 192.528 88.1613 192.49 88.18L189.718 88.936L189.606 88.964C189.438 88.964 189.354 88.8613 189.354 88.656L189.27 86.248C189.27 86.0613 189.354 85.9307 189.522 85.856L192.462 84.484ZM212.789 95.068C213.069 95.9827 213.209 96.8693 213.209 97.728C213.209 98.68 213.059 99.5387 212.761 100.304C212.331 101.499 211.575 102.451 210.493 103.16C209.41 103.851 208.141 104.196 206.685 104.196C205.266 104.196 204.015 103.86 202.933 103.188C201.869 102.497 201.113 101.564 200.665 100.388C200.478 99.9027 200.338 99.3893 200.245 98.848V98.792C200.245 98.5867 200.357 98.484 200.581 98.484H203.969C204.155 98.484 204.277 98.5867 204.333 98.792C204.351 98.904 204.379 98.9973 204.417 99.072C204.454 99.1467 204.482 99.212 204.501 99.268C204.687 99.7533 204.967 100.127 205.341 100.388C205.714 100.649 206.153 100.78 206.657 100.78C207.179 100.78 207.637 100.64 208.029 100.36C208.421 100.08 208.71 99.688 208.897 99.184C209.083 98.8107 209.177 98.3253 209.177 97.728C209.177 97.1867 209.093 96.7013 208.925 96.272C208.794 95.7867 208.533 95.4133 208.141 95.152C207.749 94.8907 207.291 94.76 206.769 94.76C206.246 94.76 205.761 94.8813 205.313 95.124C204.865 95.3667 204.566 95.684 204.417 96.076C204.361 96.2627 204.239 96.356 204.053 96.356H200.609C200.515 96.356 200.431 96.328 200.357 96.272C200.301 96.1973 200.273 96.1133 200.273 96.02V84.736C200.273 84.6427 200.301 84.568 200.357 84.512C200.431 84.4373 200.515 84.4 200.609 84.4H212.173C212.266 84.4 212.341 84.4373 212.397 84.512C212.471 84.568 212.509 84.6427 212.509 84.736V87.452C212.509 87.5453 212.471 87.6293 212.397 87.704C212.341 87.76 212.266 87.788 212.173 87.788H204.361C204.267 87.788 204.221 87.8347 204.221 87.928L204.193 92.072C204.193 92.2027 204.249 92.2307 204.361 92.156C205.201 91.6147 206.171 91.344 207.273 91.344C208.579 91.344 209.718 91.68 210.689 92.352C211.678 93.0053 212.378 93.9107 212.789 95.068ZM221.203 92.996C220.381 92.996 219.625 92.8 218.935 92.408C218.263 92.016 217.721 91.484 217.311 90.812C216.919 90.1213 216.723 89.3747 216.723 88.572C216.723 87.7693 216.919 87.032 217.311 86.36C217.721 85.688 218.263 85.156 218.935 84.764C219.625 84.3533 220.381 84.148 221.203 84.148C222.005 84.148 222.743 84.3533 223.415 84.764C224.087 85.156 224.619 85.688 225.011 86.36C225.421 87.032 225.627 87.7693 225.627 88.572C225.627 89.3747 225.431 90.1213 225.039 90.812C224.647 91.484 224.105 92.016 223.415 92.408C222.743 92.8 222.005 92.996 221.203 92.996ZM220.111 104C219.98 104 219.896 103.963 219.859 103.888C219.821 103.813 219.831 103.72 219.887 103.608L230.443 84.624C230.536 84.4747 230.676 84.4 230.863 84.4H232.935C233.065 84.4 233.149 84.4373 233.187 84.512C233.224 84.5867 233.215 84.68 233.159 84.792L222.631 103.776C222.537 103.925 222.397 104 222.211 104H220.111ZM221.203 90.7C221.781 90.7 222.267 90.4947 222.659 90.084C223.069 89.6733 223.275 89.1693 223.275 88.572C223.275 87.9933 223.069 87.4987 222.659 87.088C222.267 86.6773 221.781 86.472 221.203 86.472C220.605 86.472 220.101 86.6773 219.691 87.088C219.28 87.4987 219.075 87.9933 219.075 88.572C219.075 89.1693 219.28 89.6733 219.691 90.084C220.101 90.4947 220.605 90.7 221.203 90.7ZM232.123 104.252C231.32 104.252 230.573 104.056 229.883 103.664C229.211 103.253 228.669 102.712 228.259 102.04C227.867 101.349 227.671 100.603 227.671 99.8C227.671 98.9973 227.867 98.26 228.259 97.588C228.669 96.916 229.211 96.384 229.883 95.992C230.573 95.6 231.32 95.404 232.123 95.404C232.925 95.404 233.663 95.6 234.335 95.992C235.025 96.384 235.567 96.916 235.959 97.588C236.369 98.26 236.575 98.9973 236.575 99.8C236.575 100.603 236.369 101.349 235.959 102.04C235.567 102.712 235.025 103.253 234.335 103.664C233.663 104.056 232.925 104.252 232.123 104.252ZM232.123 101.928C232.701 101.928 233.196 101.723 233.607 101.312C234.017 100.901 234.223 100.397 234.223 99.8C234.223 99.2213 234.017 98.7267 233.607 98.316C233.196 97.9053 232.701 97.7 232.123 97.7C231.544 97.7 231.049 97.9053 230.639 98.316C230.228 98.708 230.023 99.2027 230.023 99.8C230.023 100.397 230.219 100.901 230.611 101.312C231.021 101.723 231.525 101.928 232.123 101.928Z" fill="url(#paint2_linear_119_2400)"/>
<path d="M0.951437 136C0.80477 136 0.731437 135.927 0.731437 135.78V120.82C0.731437 120.673 0.80477 120.6 0.951437 120.6H2.07344C2.2201 120.6 2.29344 120.673 2.29344 120.82V135.78C2.29344 135.927 2.2201 136 2.07344 136H0.951437ZM11.0568 124.714C12.2301 124.714 13.1615 125.059 13.8508 125.748C14.5548 126.437 14.9068 127.361 14.9068 128.52V135.78C14.9068 135.927 14.8335 136 14.6868 136H13.5648C13.4181 136 13.3448 135.927 13.3448 135.78V128.828C13.3448 128.021 13.0955 127.361 12.5968 126.848C12.1128 126.335 11.4821 126.078 10.7048 126.078C9.89813 126.078 9.24546 126.327 8.7468 126.826C8.24813 127.325 7.9988 127.977 7.9988 128.784V135.78C7.9988 135.927 7.92546 136 7.7788 136H6.6568C6.51013 136 6.4368 135.927 6.4368 135.78V125.088C6.4368 124.941 6.51013 124.868 6.6568 124.868H7.7788C7.92546 124.868 7.9988 124.941 7.9988 125.088V126.034C7.9988 126.063 8.00613 126.085 8.0208 126.1C8.05013 126.115 8.07213 126.107 8.0868 126.078C8.73213 125.169 9.72213 124.714 11.0568 124.714ZM21.2608 136C21.1288 136 21.0408 135.941 20.9968 135.824L17.3888 125.11L17.3668 125.022C17.3668 124.919 17.4328 124.868 17.5648 124.868H18.8188C18.9508 124.868 19.0388 124.927 19.0828 125.044L21.8328 133.668C21.8475 133.697 21.8695 133.712 21.8988 133.712C21.9281 133.712 21.9501 133.697 21.9648 133.668L24.7148 125.044C24.7588 124.927 24.8468 124.868 24.9788 124.868L26.2328 124.89C26.3941 124.89 26.4528 124.971 26.4088 125.132L22.8008 135.824C22.7568 135.941 22.6688 136 22.5368 136H21.2608ZM37.355 128.564C37.4137 128.975 37.443 129.488 37.443 130.104V130.808C37.443 130.955 37.3697 131.028 37.223 131.028H30.117C30.0583 131.028 30.029 131.057 30.029 131.116C30.0583 131.923 30.1023 132.443 30.161 132.678C30.3223 133.338 30.667 133.859 31.195 134.24C31.723 134.621 32.3976 134.812 33.219 134.812C33.835 134.812 34.3776 134.673 34.847 134.394C35.3163 134.115 35.683 133.719 35.947 133.206C36.035 133.074 36.1376 133.045 36.255 133.118L37.113 133.624C37.2303 133.697 37.2597 133.8 37.201 133.932C36.8343 134.636 36.2843 135.193 35.551 135.604C34.8176 136 33.9743 136.198 33.021 136.198C31.9796 136.183 31.107 135.934 30.403 135.45C29.699 134.966 29.193 134.291 28.885 133.426C28.621 132.722 28.489 131.71 28.489 130.39C28.489 129.774 28.4963 129.275 28.511 128.894C28.5403 128.498 28.599 128.146 28.687 127.838C28.9363 126.885 29.435 126.122 30.183 125.55C30.9456 124.978 31.8623 124.692 32.933 124.692C34.2676 124.692 35.2943 125.029 36.013 125.704C36.7316 126.379 37.179 127.332 37.355 128.564ZM32.933 126.056C32.2143 126.056 31.613 126.247 31.129 126.628C30.6596 126.995 30.3516 127.493 30.205 128.124C30.117 128.432 30.0583 128.931 30.029 129.62C30.029 129.679 30.0583 129.708 30.117 129.708H35.815C35.8736 129.708 35.903 129.679 35.903 129.62C35.8736 128.96 35.8296 128.491 35.771 128.212C35.6097 127.552 35.2796 127.031 34.781 126.65C34.297 126.254 33.681 126.056 32.933 126.056ZM44.3281 136.11C43.5068 136.11 42.7734 135.978 42.1281 135.714C41.4974 135.45 41.0061 135.098 40.6541 134.658C40.3168 134.218 40.1481 133.727 40.1481 133.184V132.92C40.1481 132.773 40.2214 132.7 40.3681 132.7H41.4241C41.5708 132.7 41.6441 132.773 41.6441 132.92V133.096C41.6441 133.58 41.8934 134.005 42.3921 134.372C42.9054 134.724 43.5434 134.9 44.3061 134.9C45.0688 134.9 45.6848 134.731 46.1541 134.394C46.6234 134.042 46.8581 133.602 46.8581 133.074C46.8581 132.707 46.7334 132.407 46.4841 132.172C46.2494 131.937 45.9634 131.754 45.6261 131.622C45.3034 131.49 44.7974 131.321 44.1081 131.116C43.2868 130.881 42.6121 130.647 42.0841 130.412C41.5561 130.177 41.1088 129.855 40.7421 129.444C40.3901 129.019 40.2141 128.483 40.2141 127.838C40.2141 126.899 40.5808 126.151 41.3141 125.594C42.0474 125.037 43.0154 124.758 44.2181 124.758C45.0248 124.758 45.7361 124.89 46.3521 125.154C46.9828 125.418 47.4668 125.785 47.8041 126.254C48.1414 126.709 48.3101 127.222 48.3101 127.794V127.86C48.3101 128.007 48.2368 128.08 48.0901 128.08H47.0561C46.9094 128.08 46.8361 128.007 46.8361 127.86V127.794C46.8361 127.295 46.5941 126.877 46.1101 126.54C45.6408 126.203 45.0028 126.034 44.1961 126.034C43.4481 126.034 42.8468 126.188 42.3921 126.496C41.9374 126.789 41.7101 127.2 41.7101 127.728C41.7101 128.227 41.9301 128.608 42.3701 128.872C42.8101 129.136 43.4921 129.4 44.4161 129.664C45.2668 129.913 45.9561 130.148 46.4841 130.368C47.0121 130.588 47.4668 130.911 47.8481 131.336C48.2294 131.747 48.4201 132.289 48.4201 132.964C48.4201 133.917 48.0461 134.68 47.2981 135.252C46.5501 135.824 45.5601 136.11 44.3281 136.11ZM56.5604 125.946C56.5604 126.093 56.4871 126.166 56.3404 126.166H53.8544C53.7957 126.166 53.7664 126.195 53.7664 126.254V132.744C53.7664 133.448 53.9204 133.947 54.2284 134.24C54.5511 134.519 55.0497 134.658 55.7244 134.658H56.2744C56.4211 134.658 56.4944 134.731 56.4944 134.878V135.78C56.4944 135.927 56.4211 136 56.2744 136C56.0984 136.015 55.8271 136.022 55.4604 136.022C54.4044 136.022 53.6051 135.824 53.0624 135.428C52.5197 135.032 52.2484 134.299 52.2484 133.228V126.254C52.2484 126.195 52.2191 126.166 52.1604 126.166H50.8184C50.6717 126.166 50.5984 126.093 50.5984 125.946V125.088C50.5984 124.941 50.6717 124.868 50.8184 124.868H52.1604C52.2191 124.868 52.2484 124.839 52.2484 124.78V122.228C52.2484 122.081 52.3217 122.008 52.4684 122.008H53.5464C53.6931 122.008 53.7664 122.081 53.7664 122.228V124.78C53.7664 124.839 53.7957 124.868 53.8544 124.868H56.3404C56.4871 124.868 56.5604 124.941 56.5604 125.088V125.946ZM60.9561 122.844C60.6041 122.844 60.3107 122.727 60.0761 122.492C59.8414 122.257 59.7241 121.964 59.7241 121.612C59.7241 121.245 59.8414 120.952 60.0761 120.732C60.3107 120.497 60.6041 120.38 60.9561 120.38C61.3081 120.38 61.6014 120.497 61.8361 120.732C62.0707 120.952 62.1881 121.245 62.1881 121.612C62.1881 121.964 62.0707 122.257 61.8361 122.492C61.6014 122.727 61.3081 122.844 60.9561 122.844ZM60.3401 135.978C60.1934 135.978 60.1201 135.905 60.1201 135.758V125.066C60.1201 124.919 60.1934 124.846 60.3401 124.846H61.4621C61.6087 124.846 61.6821 124.919 61.6821 125.066V135.758C61.6821 135.905 61.6087 135.978 61.4621 135.978H60.3401ZM72.6915 125.088C72.6915 124.941 72.7648 124.868 72.9115 124.868H74.0335C74.1802 124.868 74.2535 124.941 74.2535 125.088V135.626C74.2535 137.269 73.7768 138.471 72.8235 139.234C71.8848 139.997 70.5868 140.378 68.9295 140.378C68.5922 140.378 68.3355 140.371 68.1595 140.356C68.0128 140.341 67.9395 140.261 67.9395 140.114L67.9835 139.102C67.9835 139.029 68.0055 138.97 68.0495 138.926C68.0935 138.897 68.1448 138.889 68.2035 138.904L68.7975 138.926C70.1615 138.926 71.1515 138.655 71.7675 138.112C72.3835 137.584 72.6915 136.741 72.6915 135.582V134.768C72.6915 134.739 72.6768 134.724 72.6475 134.724C72.6328 134.709 72.6108 134.717 72.5815 134.746C71.9068 135.626 70.9462 136.066 69.6995 136.066C68.7462 136.066 67.8955 135.809 67.1475 135.296C66.4142 134.783 65.9228 134.057 65.6735 133.118C65.4975 132.517 65.4095 131.622 65.4095 130.434C65.4095 129.789 65.4242 129.246 65.4535 128.806C65.4975 128.366 65.5782 127.97 65.6955 127.618C65.9595 126.738 66.4362 126.034 67.1255 125.506C67.8148 124.963 68.6435 124.692 69.6115 124.692C70.9168 124.692 71.9068 125.125 72.5815 125.99C72.6108 126.019 72.6328 126.027 72.6475 126.012C72.6768 125.997 72.6915 125.975 72.6915 125.946V125.088ZM72.5815 132.634C72.6255 132.414 72.6548 132.143 72.6695 131.82C72.6842 131.497 72.6915 131.028 72.6915 130.412C72.6915 129.664 72.6842 129.165 72.6695 128.916C72.6548 128.652 72.6182 128.41 72.5595 128.19C72.4422 127.574 72.1488 127.068 71.6795 126.672C71.2248 126.261 70.6455 126.056 69.9415 126.056C69.2522 126.056 68.6655 126.254 68.1815 126.65C67.7122 127.046 67.3822 127.559 67.1915 128.19C67.0448 128.659 66.9715 129.393 66.9715 130.39C66.9715 131.461 67.0448 132.201 67.1915 132.612C67.3382 133.228 67.6535 133.741 68.1375 134.152C68.6362 134.548 69.2375 134.746 69.9415 134.746C70.6602 134.746 71.2468 134.548 71.7015 134.152C72.1708 133.756 72.4642 133.25 72.5815 132.634ZM81.7709 124.692C83.0909 124.692 84.1103 125.029 84.8289 125.704C85.5476 126.379 85.9069 127.273 85.9069 128.388V135.78C85.9069 135.927 85.8336 136 85.6869 136H84.5649C84.4183 136 84.3449 135.927 84.3449 135.78V134.878C84.3449 134.849 84.3303 134.827 84.3009 134.812C84.2863 134.797 84.2643 134.805 84.2349 134.834C83.8683 135.274 83.3916 135.611 82.8049 135.846C82.2183 136.066 81.5656 136.176 80.8469 136.176C79.8056 136.176 78.9329 135.912 78.2289 135.384C77.5249 134.856 77.1729 134.049 77.1729 132.964C77.1729 131.864 77.5689 130.999 78.3609 130.368C79.1676 129.723 80.2823 129.4 81.7049 129.4H84.2569C84.3156 129.4 84.3449 129.371 84.3449 129.312V128.476C84.3449 127.728 84.1323 127.141 83.7069 126.716C83.2963 126.276 82.6509 126.056 81.7709 126.056C81.0669 126.056 80.4949 126.195 80.0549 126.474C79.6149 126.738 79.3436 127.112 79.2409 127.596C79.1969 127.743 79.1089 127.809 78.9769 127.794L77.7889 127.64C77.6276 127.611 77.5616 127.552 77.5909 127.464C77.7083 126.643 78.1483 125.975 78.9109 125.462C79.6736 124.949 80.6269 124.692 81.7709 124.692ZM81.1549 134.834C82.0203 134.834 82.7683 134.621 83.3989 134.196C84.0296 133.756 84.3449 133.169 84.3449 132.436V130.72C84.3449 130.661 84.3156 130.632 84.2569 130.632H81.9469C80.9789 130.632 80.2016 130.83 79.6149 131.226C79.0283 131.622 78.7349 132.172 78.7349 132.876C78.7349 133.521 78.9549 134.013 79.3949 134.35C79.8496 134.673 80.4363 134.834 81.1549 134.834ZM94.3853 125.946C94.3853 126.093 94.312 126.166 94.1653 126.166H91.6793C91.6207 126.166 91.5913 126.195 91.5913 126.254V132.744C91.5913 133.448 91.7453 133.947 92.0533 134.24C92.376 134.519 92.8747 134.658 93.5493 134.658H94.0993C94.246 134.658 94.3193 134.731 94.3193 134.878V135.78C94.3193 135.927 94.246 136 94.0993 136C93.9233 136.015 93.652 136.022 93.2853 136.022C92.2293 136.022 91.43 135.824 90.8873 135.428C90.3447 135.032 90.0733 134.299 90.0733 133.228V126.254C90.0733 126.195 90.044 126.166 89.9853 126.166H88.6433C88.4967 126.166 88.4233 126.093 88.4233 125.946V125.088C88.4233 124.941 88.4967 124.868 88.6433 124.868H89.9853C90.044 124.868 90.0733 124.839 90.0733 124.78V122.228C90.0733 122.081 90.1467 122.008 90.2933 122.008H91.3713C91.518 122.008 91.5913 122.081 91.5913 122.228V124.78C91.5913 124.839 91.6207 124.868 91.6793 124.868H94.1653C94.312 124.868 94.3853 124.941 94.3853 125.088V125.946ZM98.781 122.844C98.429 122.844 98.1357 122.727 97.901 122.492C97.6663 122.257 97.549 121.964 97.549 121.612C97.549 121.245 97.6663 120.952 97.901 120.732C98.1357 120.497 98.429 120.38 98.781 120.38C99.133 120.38 99.4263 120.497 99.661 120.732C99.8957 120.952 100.013 121.245 100.013 121.612C100.013 121.964 99.8957 122.257 99.661 122.492C99.4263 122.727 99.133 122.844 98.781 122.844ZM98.165 135.978C98.0183 135.978 97.945 135.905 97.945 135.758V125.066C97.945 124.919 98.0183 124.846 98.165 124.846H99.287C99.4337 124.846 99.507 124.919 99.507 125.066V135.758C99.507 135.905 99.4337 135.978 99.287 135.978H98.165ZM106.49 136C106.358 136 106.27 135.941 106.226 135.824L102.618 125.11L102.596 125.022C102.596 124.919 102.662 124.868 102.794 124.868H104.048C104.18 124.868 104.268 124.927 104.312 125.044L107.062 133.668C107.077 133.697 107.099 133.712 107.128 133.712C107.158 133.712 107.18 133.697 107.194 133.668L109.944 125.044C109.988 124.927 110.076 124.868 110.208 124.868L111.462 124.89C111.624 124.89 111.682 124.971 111.638 125.132L108.03 135.824C107.986 135.941 107.898 136 107.766 136H106.49ZM122.585 128.564C122.643 128.975 122.673 129.488 122.673 130.104V130.808C122.673 130.955 122.599 131.028 122.453 131.028H115.347C115.288 131.028 115.259 131.057 115.259 131.116C115.288 131.923 115.332 132.443 115.391 132.678C115.552 133.338 115.897 133.859 116.425 134.24C116.953 134.621 117.627 134.812 118.449 134.812C119.065 134.812 119.607 134.673 120.077 134.394C120.546 134.115 120.913 133.719 121.177 133.206C121.265 133.074 121.367 133.045 121.485 133.118L122.343 133.624C122.46 133.697 122.489 133.8 122.431 133.932C122.064 134.636 121.514 135.193 120.781 135.604C120.047 136 119.204 136.198 118.251 136.198C117.209 136.183 116.337 135.934 115.633 135.45C114.929 134.966 114.423 134.291 114.115 133.426C113.851 132.722 113.719 131.71 113.719 130.39C113.719 129.774 113.726 129.275 113.741 128.894C113.77 128.498 113.829 128.146 113.917 127.838C114.166 126.885 114.665 126.122 115.413 125.55C116.175 124.978 117.092 124.692 118.163 124.692C119.497 124.692 120.524 125.029 121.243 125.704C121.961 126.379 122.409 127.332 122.585 128.564ZM118.163 126.056C117.444 126.056 116.843 126.247 116.359 126.628C115.889 126.995 115.581 127.493 115.435 128.124C115.347 128.432 115.288 128.931 115.259 129.62C115.259 129.679 115.288 129.708 115.347 129.708H121.045C121.103 129.708 121.133 129.679 121.133 129.62C121.103 128.96 121.059 128.491 121.001 128.212C120.839 127.552 120.509 127.031 120.011 126.65C119.527 126.254 118.911 126.056 118.163 126.056ZM134.695 136.176C133.698 136.176 132.818 135.985 132.055 135.604C131.307 135.223 130.728 134.687 130.317 133.998C129.907 133.294 129.701 132.487 129.701 131.578V129.906C129.701 129.759 129.775 129.686 129.921 129.686H131.043C131.19 129.686 131.263 129.759 131.263 129.906V131.578C131.263 132.546 131.571 133.331 132.187 133.932C132.818 134.519 133.654 134.812 134.695 134.812C135.722 134.812 136.551 134.519 137.181 133.932C137.812 133.331 138.127 132.546 138.127 131.578V120.82C138.127 120.673 138.201 120.6 138.347 120.6H139.469C139.616 120.6 139.689 120.673 139.689 120.82V131.578C139.689 132.487 139.477 133.294 139.051 133.998C138.641 134.687 138.054 135.223 137.291 135.604C136.543 135.985 135.678 136.176 134.695 136.176ZM148.087 136.176C147.031 136.176 146.121 135.905 145.359 135.362C144.596 134.819 144.068 134.071 143.775 133.118C143.569 132.443 143.467 131.541 143.467 130.412C143.467 129.283 143.569 128.388 143.775 127.728C144.053 126.789 144.574 126.049 145.337 125.506C146.099 124.963 147.023 124.692 148.109 124.692C149.15 124.692 150.045 124.963 150.793 125.506C151.555 126.049 152.076 126.782 152.355 127.706C152.56 128.337 152.663 129.239 152.663 130.412C152.663 131.6 152.56 132.502 152.355 133.118C152.076 134.071 151.555 134.819 150.793 135.362C150.045 135.905 149.143 136.176 148.087 136.176ZM148.087 134.812C148.791 134.812 149.392 134.621 149.891 134.24C150.389 133.844 150.727 133.316 150.903 132.656C151.035 132.128 151.101 131.387 151.101 130.434C151.101 129.466 151.042 128.725 150.925 128.212C150.749 127.552 150.404 127.031 149.891 126.65C149.392 126.254 148.783 126.056 148.065 126.056C147.346 126.056 146.737 126.254 146.239 126.65C145.74 127.031 145.403 127.552 145.227 128.212C145.109 128.725 145.051 129.466 145.051 130.434C145.051 131.402 145.109 132.143 145.227 132.656C145.388 133.316 145.718 133.844 146.217 134.24C146.73 134.621 147.353 134.812 148.087 134.812ZM162.881 125.088C162.881 124.941 162.954 124.868 163.101 124.868H164.223C164.37 124.868 164.443 124.941 164.443 125.088V135.78C164.443 135.927 164.37 136 164.223 136H163.101C162.954 136 162.881 135.927 162.881 135.78V134.834C162.881 134.805 162.866 134.783 162.837 134.768C162.808 134.753 162.786 134.761 162.771 134.79C162.155 135.699 161.18 136.154 159.845 136.154C159.141 136.154 158.488 136.015 157.887 135.736C157.3 135.443 156.831 135.025 156.479 134.482C156.142 133.939 155.973 133.287 155.973 132.524V125.088C155.973 124.941 156.046 124.868 156.193 124.868H157.315C157.462 124.868 157.535 124.941 157.535 125.088V132.062C157.535 132.898 157.77 133.565 158.239 134.064C158.708 134.548 159.346 134.79 160.153 134.79C160.989 134.79 161.649 134.541 162.133 134.042C162.632 133.543 162.881 132.883 162.881 132.062V125.088ZM172.752 124.758C173.236 124.758 173.654 124.853 174.006 125.044C174.123 125.103 174.167 125.198 174.138 125.33L173.896 126.408C173.852 126.555 173.756 126.599 173.61 126.54C173.36 126.437 173.074 126.386 172.752 126.386L172.466 126.408C171.703 126.437 171.072 126.723 170.574 127.266C170.075 127.794 169.826 128.469 169.826 129.29V135.78C169.826 135.927 169.752 136 169.606 136H168.484C168.337 136 168.264 135.927 168.264 135.78V125.088C168.264 124.941 168.337 124.868 168.484 124.868H169.606C169.752 124.868 169.826 124.941 169.826 125.088V126.43C169.826 126.474 169.833 126.503 169.848 126.518C169.877 126.518 169.899 126.503 169.914 126.474C170.222 125.931 170.61 125.513 171.08 125.22C171.564 124.912 172.121 124.758 172.752 124.758ZM181.217 124.714C182.391 124.714 183.322 125.059 184.011 125.748C184.715 126.437 185.067 127.361 185.067 128.52V135.78C185.067 135.927 184.994 136 184.847 136H183.725C183.579 136 183.505 135.927 183.505 135.78V128.828C183.505 128.021 183.256 127.361 182.757 126.848C182.273 126.335 181.643 126.078 180.865 126.078C180.059 126.078 179.406 126.327 178.907 126.826C178.409 127.325 178.159 127.977 178.159 128.784V135.78C178.159 135.927 178.086 136 177.939 136H176.817C176.671 136 176.597 135.927 176.597 135.78V125.088C176.597 124.941 176.671 124.868 176.817 124.868H177.939C178.086 124.868 178.159 124.941 178.159 125.088V126.034C178.159 126.063 178.167 126.085 178.181 126.1C178.211 126.115 178.233 126.107 178.247 126.078C178.893 125.169 179.883 124.714 181.217 124.714ZM192.627 124.692C193.947 124.692 194.966 125.029 195.685 125.704C196.404 126.379 196.763 127.273 196.763 128.388V135.78C196.763 135.927 196.69 136 196.543 136H195.421C195.274 136 195.201 135.927 195.201 135.78V134.878C195.201 134.849 195.186 134.827 195.157 134.812C195.142 134.797 195.12 134.805 195.091 134.834C194.724 135.274 194.248 135.611 193.661 135.846C193.074 136.066 192.422 136.176 191.703 136.176C190.662 136.176 189.789 135.912 189.085 135.384C188.381 134.856 188.029 134.049 188.029 132.964C188.029 131.864 188.425 130.999 189.217 130.368C190.024 129.723 191.138 129.4 192.561 129.4H195.113C195.172 129.4 195.201 129.371 195.201 129.312V128.476C195.201 127.728 194.988 127.141 194.563 126.716C194.152 126.276 193.507 126.056 192.627 126.056C191.923 126.056 191.351 126.195 190.911 126.474C190.471 126.738 190.2 127.112 190.097 127.596C190.053 127.743 189.965 127.809 189.833 127.794L188.645 127.64C188.484 127.611 188.418 127.552 188.447 127.464C188.564 126.643 189.004 125.975 189.767 125.462C190.53 124.949 191.483 124.692 192.627 124.692ZM192.011 134.834C192.876 134.834 193.624 134.621 194.255 134.196C194.886 133.756 195.201 133.169 195.201 132.436V130.72C195.201 130.661 195.172 130.632 195.113 130.632H192.803C191.835 130.632 191.058 130.83 190.471 131.226C189.884 131.622 189.591 132.172 189.591 132.876C189.591 133.521 189.811 134.013 190.251 134.35C190.706 134.673 191.292 134.834 192.011 134.834ZM200.553 136C200.407 136 200.333 135.927 200.333 135.78V120.82C200.333 120.673 200.407 120.6 200.553 120.6H201.675C201.822 120.6 201.895 120.673 201.895 120.82V135.78C201.895 135.927 201.822 136 201.675 136H200.553ZM206.78 122.844C206.428 122.844 206.134 122.727 205.9 122.492C205.665 122.257 205.548 121.964 205.548 121.612C205.548 121.245 205.665 120.952 205.9 120.732C206.134 120.497 206.428 120.38 206.78 120.38C207.132 120.38 207.425 120.497 207.66 120.732C207.894 120.952 208.012 121.245 208.012 121.612C208.012 121.964 207.894 122.257 207.66 122.492C207.425 122.727 207.132 122.844 206.78 122.844ZM206.164 135.978C206.017 135.978 205.944 135.905 205.944 135.758V125.066C205.944 124.919 206.017 124.846 206.164 124.846H207.286C207.432 124.846 207.506 124.919 207.506 125.066V135.758C207.506 135.905 207.432 135.978 207.286 135.978H206.164ZM215.303 136.11C214.482 136.11 213.748 135.978 213.103 135.714C212.472 135.45 211.981 135.098 211.629 134.658C211.292 134.218 211.123 133.727 211.123 133.184V132.92C211.123 132.773 211.196 132.7 211.343 132.7H212.399C212.546 132.7 212.619 132.773 212.619 132.92V133.096C212.619 133.58 212.868 134.005 213.367 134.372C213.88 134.724 214.518 134.9 215.281 134.9C216.044 134.9 216.66 134.731 217.129 134.394C217.598 134.042 217.833 133.602 217.833 133.074C217.833 132.707 217.708 132.407 217.459 132.172C217.224 131.937 216.938 131.754 216.601 131.622C216.278 131.49 215.772 131.321 215.083 131.116C214.262 130.881 213.587 130.647 213.059 130.412C212.531 130.177 212.084 129.855 211.717 129.444C211.365 129.019 211.189 128.483 211.189 127.838C211.189 126.899 211.556 126.151 212.289 125.594C213.022 125.037 213.99 124.758 215.193 124.758C216 124.758 216.711 124.89 217.327 125.154C217.958 125.418 218.442 125.785 218.779 126.254C219.116 126.709 219.285 127.222 219.285 127.794V127.86C219.285 128.007 219.212 128.08 219.065 128.08H218.031C217.884 128.08 217.811 128.007 217.811 127.86V127.794C217.811 127.295 217.569 126.877 217.085 126.54C216.616 126.203 215.978 126.034 215.171 126.034C214.423 126.034 213.822 126.188 213.367 126.496C212.912 126.789 212.685 127.2 212.685 127.728C212.685 128.227 212.905 128.608 213.345 128.872C213.785 129.136 214.467 129.4 215.391 129.664C216.242 129.913 216.931 130.148 217.459 130.368C217.987 130.588 218.442 130.911 218.823 131.336C219.204 131.747 219.395 132.289 219.395 132.964C219.395 133.917 219.021 134.68 218.273 135.252C217.525 135.824 216.535 136.11 215.303 136.11ZM233.827 124.714C234.927 124.714 235.792 125.044 236.423 125.704C237.068 126.364 237.391 127.266 237.391 128.41V135.78C237.391 135.927 237.317 136 237.171 136H236.071C235.924 136 235.851 135.927 235.851 135.78V128.718C235.851 127.911 235.616 127.273 235.147 126.804C234.692 126.32 234.091 126.078 233.343 126.078C232.565 126.078 231.935 126.313 231.451 126.782C230.981 127.251 230.747 127.882 230.747 128.674V135.78C230.747 135.927 230.673 136 230.527 136H229.405C229.258 136 229.185 135.927 229.185 135.78V128.718C229.185 127.911 228.957 127.273 228.503 126.804C228.048 126.32 227.439 126.078 226.677 126.078C225.899 126.078 225.276 126.313 224.807 126.782C224.352 127.251 224.125 127.882 224.125 128.674V135.78C224.125 135.927 224.051 136 223.905 136H222.783C222.636 136 222.563 135.927 222.563 135.78V125.088C222.563 124.941 222.636 124.868 222.783 124.868H223.905C224.051 124.868 224.125 124.941 224.125 125.088V125.968C224.125 125.997 224.132 126.019 224.147 126.034C224.176 126.034 224.205 126.019 224.235 125.99C224.557 125.565 224.968 125.249 225.467 125.044C225.98 124.824 226.545 124.714 227.161 124.714C227.923 124.714 228.576 124.868 229.119 125.176C229.661 125.484 230.072 125.931 230.351 126.518C230.38 126.591 230.417 126.591 230.461 126.518C230.783 125.917 231.238 125.469 231.825 125.176C232.411 124.868 233.079 124.714 233.827 124.714Z" fill="white"/>
<defs>
<filter id="filter0_i_119_2400" x="230" y="47.7456" width="266" height="218.254" filterUnits="userSpaceOnUse" color-interpolation-filters="sRGB">
<feFlood flood-opacity="0" result="BackgroundImageFix"/>
<feBlend mode="normal" in="SourceGraphic" in2="BackgroundImageFix" result="shape"/>
<feColorMatrix in="SourceAlpha" type="matrix" values="0 0 0 0 0 0 0 0 0 0 0 0 0 0 0 0 0 0 127 0" result="hardAlpha"/>
<feOffset dx="-24" dy="24"/>
<feGaussianBlur stdDeviation="8"/>
<feComposite in2="hardAlpha" operator="arithmetic" k2="-1" k3="1"/>
<feColorMatrix type="matrix" values="0 0 0 0 0 0 0 0 0 0 0 0 0 0 0 0 0 0 0.32 0"/>
<feBlend mode="normal" in2="shape" result="effect1_innerShadow_119_2400"/>
</filter>
<radialGradient id="paint0_radial_119_2400" cx="0" cy="0" r="1" gradientUnits="userSpaceOnUse" gradientTransform="translate(598 156) rotate(110.973) scale(514.058)">
<stop stop-color="#14A5AE"/>
<stop offset="1" stop-color="#000210" stop-opacity="0"/>
</radialGradient>
<linearGradient id="paint1_linear_119_2400" x1="228.222" y1="-7.77777" x2="746" y2="500" gradientUnits="userSpaceOnUse">
<stop stop-color="#14A5AE"/>
<stop offset="1" stop-color="#145F69"/>
</linearGradient>
<linearGradient id="paint2_linear_119_2400" x1="186.187" y1="76.5022" x2="216.28" y2="123.537" gradientUnits="userSpaceOnUse">
<stop stop-color="#14A5AE"/>
<stop offset="1" stop-color="#145F69"/>
</linearGradient>
</defs>
</svg>
