<svg width="610" height="500" viewBox="0 0 610 500" fill="none" xmlns="http://www.w3.org/2000/svg">
<path d="M282.746 487.764C232.535 471.45 188.778 439.658 157.746 396.946C126.714 354.234 110 302.795 110 250L360 250L282.746 487.764Z" fill="#0E111A"/>
<g opacity="0.6">
<mask id="path-2-inside-1_119_2399" fill="white">
<path d="M282.746 487.764C232.535 471.45 188.778 439.658 157.746 396.946C126.714 354.234 110 302.795 110 250L360 250L282.746 487.764Z"/>
</mask>
<g filter="url(#filter0_i_119_2399)">
<path d="M282.746 487.764C232.535 471.45 188.778 439.658 157.746 396.946C126.714 354.234 110 302.795 110 250L360 250L282.746 487.764Z" fill="#09444E"/>
<path d="M282.746 487.764C232.535 471.45 188.778 439.658 157.746 396.946C126.714 354.234 110 302.795 110 250L360 250L282.746 487.764Z" fill="url(#paint0_radial_119_2399)"/>
</g>
<path d="M282.746 487.764C232.535 471.45 188.778 439.658 157.746 396.946C126.714 354.234 110 302.795 110 250L360 250L282.746 487.764Z" stroke="url(#paint1_linear_119_2399)" stroke-width="24" mask="url(#path-2-inside-1_119_2399)"/>
</g>
<path d="M82.1418 426.444C82.1045 426.481 82.0951 426.519 82.1138 426.556C82.1325 426.593 82.1698 426.612 82.2258 426.612H89.8138C89.9071 426.612 89.9818 426.649 90.0378 426.724C90.1125 426.78 90.1498 426.855 90.1498 426.948V429.664C90.1498 429.757 90.1125 429.841 90.0378 429.916C89.9818 429.972 89.9071 430 89.8138 430H77.2138C77.1205 430 77.0365 429.972 76.9618 429.916C76.9058 429.841 76.8778 429.757 76.8778 429.664V427.088C76.8778 426.92 76.9338 426.78 77.0458 426.668C77.9605 425.772 78.8938 424.801 79.8458 423.756C80.7978 422.692 81.3951 422.029 81.6378 421.768C82.1605 421.152 82.6925 420.564 83.2338 420.004C84.9325 418.119 85.7818 416.719 85.7818 415.804C85.7818 415.151 85.5485 414.619 85.0818 414.208C84.6151 413.779 84.0085 413.564 83.2618 413.564C82.5151 413.564 81.9085 413.779 81.4418 414.208C80.9751 414.619 80.7418 415.169 80.7418 415.86V416.56C80.7418 416.653 80.7045 416.737 80.6298 416.812C80.5738 416.868 80.4991 416.896 80.4058 416.896H77.1018C77.0085 416.896 76.9245 416.868 76.8498 416.812C76.7938 416.737 76.7658 416.653 76.7658 416.56V415.244C76.8218 414.236 77.1391 413.349 77.7178 412.584C78.2965 411.8 79.0618 411.203 80.0138 410.792C80.9845 410.381 82.0671 410.176 83.2618 410.176C84.5871 410.176 85.7351 410.428 86.7058 410.932C87.6951 411.417 88.4511 412.08 88.9738 412.92C89.5151 413.76 89.7858 414.693 89.7858 415.72C89.7858 416.504 89.5898 417.307 89.1978 418.128C88.8058 418.949 88.2178 419.836 87.4338 420.788C86.8551 421.516 86.2298 422.235 85.5578 422.944C84.8858 423.653 83.8871 424.68 82.5618 426.024L82.1418 426.444ZM100.118 430.308C98.0644 430.308 96.4404 429.739 95.2458 428.6C94.0511 427.443 93.4538 425.875 93.4538 423.896V416.504C93.4538 414.563 94.0511 413.023 95.2458 411.884C96.4404 410.745 98.0644 410.176 100.118 410.176C102.171 410.176 103.795 410.745 104.99 411.884C106.203 413.023 106.81 414.563 106.81 416.504V423.896C106.81 425.875 106.203 427.443 104.99 428.6C103.795 429.739 102.171 430.308 100.118 430.308ZM100.118 426.92C100.958 426.92 101.62 426.668 102.106 426.164C102.61 425.641 102.862 424.951 102.862 424.092V416.392C102.862 415.533 102.61 414.852 102.106 414.348C101.62 413.825 100.958 413.564 100.118 413.564C99.2964 413.564 98.6338 413.825 98.1298 414.348C97.6444 414.852 97.4018 415.533 97.4018 416.392V424.092C97.4018 424.951 97.6444 425.641 98.1298 426.164C98.6338 426.668 99.2964 426.92 100.118 426.92ZM115.203 418.996C114.381 418.996 113.625 418.8 112.935 418.408C112.263 418.016 111.721 417.484 111.311 416.812C110.919 416.121 110.723 415.375 110.723 414.572C110.723 413.769 110.919 413.032 111.311 412.36C111.721 411.688 112.263 411.156 112.935 410.764C113.625 410.353 114.381 410.148 115.203 410.148C116.005 410.148 116.743 410.353 117.415 410.764C118.087 411.156 118.619 411.688 119.011 412.36C119.421 413.032 119.627 413.769 119.627 414.572C119.627 415.375 119.431 416.121 119.039 416.812C118.647 417.484 118.105 418.016 117.415 418.408C116.743 418.8 116.005 418.996 115.203 418.996ZM114.111 430C113.98 430 113.896 429.963 113.859 429.888C113.821 429.813 113.831 429.72 113.887 429.608L124.443 410.624C124.536 410.475 124.676 410.4 124.863 410.4H126.935C127.065 410.4 127.149 410.437 127.187 410.512C127.224 410.587 127.215 410.68 127.159 410.792L116.631 429.776C116.537 429.925 116.397 430 116.211 430H114.111ZM115.203 416.7C115.781 416.7 116.267 416.495 116.659 416.084C117.069 415.673 117.275 415.169 117.275 414.572C117.275 413.993 117.069 413.499 116.659 413.088C116.267 412.677 115.781 412.472 115.203 412.472C114.605 412.472 114.101 412.677 113.691 413.088C113.28 413.499 113.075 413.993 113.075 414.572C113.075 415.169 113.28 415.673 113.691 416.084C114.101 416.495 114.605 416.7 115.203 416.7ZM126.123 430.252C125.32 430.252 124.573 430.056 123.883 429.664C123.211 429.253 122.669 428.712 122.259 428.04C121.867 427.349 121.671 426.603 121.671 425.8C121.671 424.997 121.867 424.26 122.259 423.588C122.669 422.916 123.211 422.384 123.883 421.992C124.573 421.6 125.32 421.404 126.123 421.404C126.925 421.404 127.663 421.6 128.335 421.992C129.025 422.384 129.567 422.916 129.959 423.588C130.369 424.26 130.575 424.997 130.575 425.8C130.575 426.603 130.369 427.349 129.959 428.04C129.567 428.712 129.025 429.253 128.335 429.664C127.663 430.056 126.925 430.252 126.123 430.252ZM126.123 427.928C126.701 427.928 127.196 427.723 127.607 427.312C128.017 426.901 128.223 426.397 128.223 425.8C128.223 425.221 128.017 424.727 127.607 424.316C127.196 423.905 126.701 423.7 126.123 423.7C125.544 423.7 125.049 423.905 124.639 424.316C124.228 424.708 124.023 425.203 124.023 425.8C124.023 426.397 124.219 426.901 124.611 427.312C125.021 427.723 125.525 427.928 126.123 427.928Z" fill="url(#paint2_linear_119_2399)"/>
<path d="M9.77236 462C9.64036 462 9.55236 461.949 9.50836 461.846L6.27436 455.026C6.2597 454.982 6.23036 454.96 6.18636 454.96H2.44636C2.3877 454.96 2.35836 454.989 2.35836 455.048V461.78C2.35836 461.927 2.28503 462 2.13836 462H1.01636C0.869696 462 0.796363 461.927 0.796363 461.78V446.82C0.796363 446.673 0.869696 446.6 1.01636 446.6H6.71436C7.9757 446.6 8.99503 446.996 9.77236 447.788C10.5497 448.565 10.9384 449.585 10.9384 450.846C10.9384 451.873 10.6597 452.745 10.1024 453.464C9.54503 454.183 8.7897 454.645 7.83636 454.85C7.7777 454.879 7.76303 454.916 7.79236 454.96L11.0924 461.736C11.107 461.765 11.1144 461.802 11.1144 461.846C11.1144 461.949 11.0557 462 10.9384 462H9.77236ZM2.44636 447.964C2.3877 447.964 2.35836 447.993 2.35836 448.052V453.618C2.35836 453.677 2.3877 453.706 2.44636 453.706H6.53836C7.38903 453.706 8.07836 453.442 8.60636 452.914C9.13436 452.386 9.39836 451.697 9.39836 450.846C9.39836 449.995 9.13436 449.306 8.60636 448.778C8.07836 448.235 7.38903 447.964 6.53836 447.964H2.44636ZM22.7506 454.564C22.8093 454.975 22.8386 455.488 22.8386 456.104V456.808C22.8386 456.955 22.7653 457.028 22.6186 457.028H15.5126C15.4539 457.028 15.4246 457.057 15.4246 457.116C15.4539 457.923 15.4979 458.443 15.5566 458.678C15.7179 459.338 16.0626 459.859 16.5906 460.24C17.1186 460.621 17.7933 460.812 18.6146 460.812C19.2306 460.812 19.7733 460.673 20.2426 460.394C20.7119 460.115 21.0786 459.719 21.3426 459.206C21.4306 459.074 21.5333 459.045 21.6506 459.118L22.5086 459.624C22.6259 459.697 22.6553 459.8 22.5966 459.932C22.2299 460.636 21.6799 461.193 20.9466 461.604C20.2133 462 19.3699 462.198 18.4166 462.198C17.3753 462.183 16.5026 461.934 15.7986 461.45C15.0946 460.966 14.5886 460.291 14.2806 459.426C14.0166 458.722 13.8846 457.71 13.8846 456.39C13.8846 455.774 13.8919 455.275 13.9066 454.894C13.9359 454.498 13.9946 454.146 14.0826 453.838C14.3319 452.885 14.8306 452.122 15.5786 451.55C16.3413 450.978 17.2579 450.692 18.3286 450.692C19.6633 450.692 20.6899 451.029 21.4086 451.704C22.1273 452.379 22.5746 453.332 22.7506 454.564ZM18.3286 452.056C17.6099 452.056 17.0086 452.247 16.5246 452.628C16.0553 452.995 15.7473 453.493 15.6006 454.124C15.5126 454.432 15.4539 454.931 15.4246 455.62C15.4246 455.679 15.4539 455.708 15.5126 455.708H21.2106C21.2693 455.708 21.2986 455.679 21.2986 455.62C21.2693 454.96 21.2253 454.491 21.1666 454.212C21.0053 453.552 20.6753 453.031 20.1766 452.65C19.6926 452.254 19.0766 452.056 18.3286 452.056ZM30.5147 447.964C29.708 447.964 29.158 448.147 28.8647 448.514C28.5714 448.866 28.4247 449.475 28.4247 450.34V450.78C28.4247 450.839 28.454 450.868 28.5127 450.868H30.9767C31.1234 450.868 31.1967 450.941 31.1967 451.088V452.078C31.1967 452.225 31.1234 452.298 30.9767 452.298H28.5127C28.454 452.298 28.4247 452.327 28.4247 452.386V461.78C28.4247 461.927 28.3514 462 28.2047 462H27.1047C26.958 462 26.8847 461.927 26.8847 461.78V452.386C26.8847 452.327 26.8554 452.298 26.7967 452.298H25.3227C25.176 452.298 25.1027 452.225 25.1027 452.078V451.088C25.1027 450.941 25.176 450.868 25.3227 450.868H26.7967C26.8554 450.868 26.8847 450.839 26.8847 450.78V450.252C26.8847 449.343 26.9874 448.631 27.1927 448.118C27.398 447.59 27.75 447.209 28.2487 446.974C28.762 446.725 29.4734 446.6 30.3827 446.6H31.0207C31.1674 446.6 31.2407 446.673 31.2407 446.82V447.744C31.2407 447.891 31.1674 447.964 31.0207 447.964H30.5147ZM37.4912 462.176C36.4352 462.176 35.5259 461.905 34.7632 461.362C34.0006 460.819 33.4726 460.071 33.1792 459.118C32.9739 458.443 32.8712 457.541 32.8712 456.412C32.8712 455.283 32.9739 454.388 33.1792 453.728C33.4579 452.789 33.9786 452.049 34.7412 451.506C35.5039 450.963 36.4279 450.692 37.5132 450.692C38.5546 450.692 39.4492 450.963 40.1972 451.506C40.9599 452.049 41.4806 452.782 41.7592 453.706C41.9646 454.337 42.0672 455.239 42.0672 456.412C42.0672 457.6 41.9646 458.502 41.7592 459.118C41.4806 460.071 40.9599 460.819 40.1972 461.362C39.4492 461.905 38.5472 462.176 37.4912 462.176ZM37.4912 460.812C38.1952 460.812 38.7966 460.621 39.2952 460.24C39.7939 459.844 40.1312 459.316 40.3072 458.656C40.4392 458.128 40.5052 457.387 40.5052 456.434C40.5052 455.466 40.4466 454.725 40.3292 454.212C40.1532 453.552 39.8086 453.031 39.2952 452.65C38.7966 452.254 38.1879 452.056 37.4692 452.056C36.7506 452.056 36.1419 452.254 35.6432 452.65C35.1446 453.031 34.8072 453.552 34.6312 454.212C34.5139 454.725 34.4552 455.466 34.4552 456.434C34.4552 457.402 34.5139 458.143 34.6312 458.656C34.7926 459.316 35.1226 459.844 35.6212 460.24C36.1346 460.621 36.7579 460.812 37.4912 460.812ZM50.0415 450.758C50.5255 450.758 50.9435 450.853 51.2955 451.044C51.4129 451.103 51.4569 451.198 51.4275 451.33L51.1855 452.408C51.1415 452.555 51.0462 452.599 50.8995 452.54C50.6502 452.437 50.3642 452.386 50.0415 452.386L49.7555 452.408C48.9929 452.437 48.3622 452.723 47.8635 453.266C47.3649 453.794 47.1155 454.469 47.1155 455.29V461.78C47.1155 461.927 47.0422 462 46.8955 462H45.7735C45.6269 462 45.5535 461.927 45.5535 461.78V451.088C45.5535 450.941 45.6269 450.868 45.7735 450.868H46.8955C47.0422 450.868 47.1155 450.941 47.1155 451.088V452.43C47.1155 452.474 47.1229 452.503 47.1375 452.518C47.1669 452.518 47.1889 452.503 47.2035 452.474C47.5115 451.931 47.9002 451.513 48.3695 451.22C48.8535 450.912 49.4109 450.758 50.0415 450.758ZM62.3158 454.564C62.3744 454.975 62.4038 455.488 62.4038 456.104V456.808C62.4038 456.955 62.3304 457.028 62.1838 457.028H55.0778C55.0191 457.028 54.9898 457.057 54.9898 457.116C55.0191 457.923 55.0631 458.443 55.1218 458.678C55.2831 459.338 55.6278 459.859 56.1558 460.24C56.6838 460.621 57.3584 460.812 58.1798 460.812C58.7958 460.812 59.3384 460.673 59.8078 460.394C60.2771 460.115 60.6438 459.719 60.9078 459.206C60.9958 459.074 61.0984 459.045 61.2158 459.118L62.0738 459.624C62.1911 459.697 62.2204 459.8 62.1618 459.932C61.7951 460.636 61.2451 461.193 60.5118 461.604C59.7784 462 58.9351 462.198 57.9818 462.198C56.9404 462.183 56.0678 461.934 55.3638 461.45C54.6598 460.966 54.1538 460.291 53.8458 459.426C53.5818 458.722 53.4498 457.71 53.4498 456.39C53.4498 455.774 53.4571 455.275 53.4718 454.894C53.5011 454.498 53.5598 454.146 53.6478 453.838C53.8971 452.885 54.3958 452.122 55.1438 451.55C55.9064 450.978 56.8231 450.692 57.8938 450.692C59.2284 450.692 60.2551 451.029 60.9738 451.704C61.6924 452.379 62.1398 453.332 62.3158 454.564ZM57.8938 452.056C57.1751 452.056 56.5738 452.247 56.0898 452.628C55.6204 452.995 55.3124 453.493 55.1658 454.124C55.0778 454.432 55.0191 454.931 54.9898 455.62C54.9898 455.679 55.0191 455.708 55.0778 455.708H60.7758C60.8344 455.708 60.8638 455.679 60.8638 455.62C60.8344 454.96 60.7904 454.491 60.7318 454.212C60.5704 453.552 60.2404 453.031 59.7418 452.65C59.2578 452.254 58.6418 452.056 57.8938 452.056ZM69.2889 462.11C68.4675 462.11 67.7342 461.978 67.0889 461.714C66.4582 461.45 65.9669 461.098 65.6149 460.658C65.2775 460.218 65.1089 459.727 65.1089 459.184V458.92C65.1089 458.773 65.1822 458.7 65.3289 458.7H66.3849C66.5315 458.7 66.6049 458.773 66.6049 458.92V459.096C66.6049 459.58 66.8542 460.005 67.3529 460.372C67.8662 460.724 68.5042 460.9 69.2669 460.9C70.0295 460.9 70.6455 460.731 71.1149 460.394C71.5842 460.042 71.8189 459.602 71.8189 459.074C71.8189 458.707 71.6942 458.407 71.4449 458.172C71.2102 457.937 70.9242 457.754 70.5869 457.622C70.2642 457.49 69.7582 457.321 69.0689 457.116C68.2475 456.881 67.5729 456.647 67.0449 456.412C66.5169 456.177 66.0695 455.855 65.7029 455.444C65.3509 455.019 65.1749 454.483 65.1749 453.838C65.1749 452.899 65.5415 452.151 66.2749 451.594C67.0082 451.037 67.9762 450.758 69.1789 450.758C69.9855 450.758 70.6969 450.89 71.3129 451.154C71.9435 451.418 72.4275 451.785 72.7649 452.254C73.1022 452.709 73.2709 453.222 73.2709 453.794V453.86C73.2709 454.007 73.1975 454.08 73.0509 454.08H72.0169C71.8702 454.08 71.7969 454.007 71.7969 453.86V453.794C71.7969 453.295 71.5549 452.877 71.0709 452.54C70.6015 452.203 69.9635 452.034 69.1569 452.034C68.4089 452.034 67.8075 452.188 67.3529 452.496C66.8982 452.789 66.6709 453.2 66.6709 453.728C66.6709 454.227 66.8909 454.608 67.3309 454.872C67.7709 455.136 68.4529 455.4 69.3769 455.664C70.2275 455.913 70.9169 456.148 71.4449 456.368C71.9729 456.588 72.4275 456.911 72.8089 457.336C73.1902 457.747 73.3809 458.289 73.3809 458.964C73.3809 459.917 73.0069 460.68 72.2589 461.252C71.5109 461.824 70.5209 462.11 69.2889 462.11ZM81.5212 451.946C81.5212 452.093 81.4479 452.166 81.3012 452.166H78.8152C78.7565 452.166 78.7272 452.195 78.7272 452.254V458.744C78.7272 459.448 78.8812 459.947 79.1892 460.24C79.5119 460.519 80.0105 460.658 80.6852 460.658H81.2352C81.3819 460.658 81.4552 460.731 81.4552 460.878V461.78C81.4552 461.927 81.3819 462 81.2352 462C81.0592 462.015 80.7879 462.022 80.4212 462.022C79.3652 462.022 78.5659 461.824 78.0232 461.428C77.4805 461.032 77.2092 460.299 77.2092 459.228V452.254C77.2092 452.195 77.1799 452.166 77.1212 452.166H75.7792C75.6325 452.166 75.5592 452.093 75.5592 451.946V451.088C75.5592 450.941 75.6325 450.868 75.7792 450.868H77.1212C77.1799 450.868 77.2092 450.839 77.2092 450.78V448.228C77.2092 448.081 77.2825 448.008 77.4292 448.008H78.5072C78.6539 448.008 78.7272 448.081 78.7272 448.228V450.78C78.7272 450.839 78.7565 450.868 78.8152 450.868H81.3012C81.4479 450.868 81.5212 450.941 81.5212 451.088V451.946ZM88.7109 450.692C90.0309 450.692 91.0502 451.029 91.7689 451.704C92.4875 452.379 92.8469 453.273 92.8469 454.388V461.78C92.8469 461.927 92.7735 462 92.6269 462H91.5049C91.3582 462 91.2849 461.927 91.2849 461.78V460.878C91.2849 460.849 91.2702 460.827 91.2409 460.812C91.2262 460.797 91.2042 460.805 91.1749 460.834C90.8082 461.274 90.3315 461.611 89.7449 461.846C89.1582 462.066 88.5055 462.176 87.7869 462.176C86.7455 462.176 85.8729 461.912 85.1689 461.384C84.4649 460.856 84.1129 460.049 84.1129 458.964C84.1129 457.864 84.5089 456.999 85.3009 456.368C86.1075 455.723 87.2222 455.4 88.6449 455.4H91.1969C91.2555 455.4 91.2849 455.371 91.2849 455.312V454.476C91.2849 453.728 91.0722 453.141 90.6469 452.716C90.2362 452.276 89.5909 452.056 88.7109 452.056C88.0069 452.056 87.4349 452.195 86.9949 452.474C86.5549 452.738 86.2835 453.112 86.1809 453.596C86.1369 453.743 86.0489 453.809 85.9169 453.794L84.7289 453.64C84.5675 453.611 84.5015 453.552 84.5309 453.464C84.6482 452.643 85.0882 451.975 85.8509 451.462C86.6135 450.949 87.5669 450.692 88.7109 450.692ZM88.0949 460.834C88.9602 460.834 89.7082 460.621 90.3389 460.196C90.9695 459.756 91.2849 459.169 91.2849 458.436V456.72C91.2849 456.661 91.2555 456.632 91.1969 456.632H88.8869C87.9189 456.632 87.1415 456.83 86.5549 457.226C85.9682 457.622 85.6749 458.172 85.6749 458.876C85.6749 459.521 85.8949 460.013 86.3349 460.35C86.7895 460.673 87.3762 460.834 88.0949 460.834ZM101.325 451.946C101.325 452.093 101.252 452.166 101.105 452.166H98.6193C98.5606 452.166 98.5313 452.195 98.5313 452.254V458.744C98.5313 459.448 98.6853 459.947 98.9933 460.24C99.3159 460.519 99.8146 460.658 100.489 460.658H101.039C101.186 460.658 101.259 460.731 101.259 460.878V461.78C101.259 461.927 101.186 462 101.039 462C100.863 462.015 100.592 462.022 100.225 462.022C99.1693 462.022 98.3699 461.824 97.8273 461.428C97.2846 461.032 97.0133 460.299 97.0133 459.228V452.254C97.0133 452.195 96.9839 452.166 96.9253 452.166H95.5833C95.4366 452.166 95.3633 452.093 95.3633 451.946V451.088C95.3633 450.941 95.4366 450.868 95.5833 450.868H96.9253C96.9839 450.868 97.0133 450.839 97.0133 450.78V448.228C97.0133 448.081 97.0866 448.008 97.2333 448.008H98.3113C98.4579 448.008 98.5313 448.081 98.5313 448.228V450.78C98.5313 450.839 98.5606 450.868 98.6193 450.868H101.105C101.252 450.868 101.325 450.941 101.325 451.088V451.946ZM105.721 448.844C105.369 448.844 105.076 448.727 104.841 448.492C104.606 448.257 104.489 447.964 104.489 447.612C104.489 447.245 104.606 446.952 104.841 446.732C105.076 446.497 105.369 446.38 105.721 446.38C106.073 446.38 106.366 446.497 106.601 446.732C106.836 446.952 106.953 447.245 106.953 447.612C106.953 447.964 106.836 448.257 106.601 448.492C106.366 448.727 106.073 448.844 105.721 448.844ZM105.105 461.978C104.958 461.978 104.885 461.905 104.885 461.758V451.066C104.885 450.919 104.958 450.846 105.105 450.846H106.227C106.374 450.846 106.447 450.919 106.447 451.066V461.758C106.447 461.905 106.374 461.978 106.227 461.978H105.105ZM114.838 462.176C113.782 462.176 112.873 461.905 112.11 461.362C111.348 460.819 110.82 460.071 110.526 459.118C110.321 458.443 110.218 457.541 110.218 456.412C110.218 455.283 110.321 454.388 110.526 453.728C110.805 452.789 111.326 452.049 112.088 451.506C112.851 450.963 113.775 450.692 114.86 450.692C115.902 450.692 116.796 450.963 117.544 451.506C118.307 452.049 118.828 452.782 119.106 453.706C119.312 454.337 119.414 455.239 119.414 456.412C119.414 457.6 119.312 458.502 119.106 459.118C118.828 460.071 118.307 460.819 117.544 461.362C116.796 461.905 115.894 462.176 114.838 462.176ZM114.838 460.812C115.542 460.812 116.144 460.621 116.642 460.24C117.141 459.844 117.478 459.316 117.654 458.656C117.786 458.128 117.852 457.387 117.852 456.434C117.852 455.466 117.794 454.725 117.676 454.212C117.5 453.552 117.156 453.031 116.642 452.65C116.144 452.254 115.535 452.056 114.816 452.056C114.098 452.056 113.489 452.254 112.99 452.65C112.492 453.031 112.154 453.552 111.978 454.212C111.861 454.725 111.802 455.466 111.802 456.434C111.802 457.402 111.861 458.143 111.978 458.656C112.14 459.316 112.47 459.844 112.968 460.24C113.482 460.621 114.105 460.812 114.838 460.812ZM127.521 450.714C128.694 450.714 129.625 451.059 130.315 451.748C131.019 452.437 131.371 453.361 131.371 454.52V461.78C131.371 461.927 131.297 462 131.151 462H130.029C129.882 462 129.809 461.927 129.809 461.78V454.828C129.809 454.021 129.559 453.361 129.061 452.848C128.577 452.335 127.946 452.078 127.169 452.078C126.362 452.078 125.709 452.327 125.211 452.826C124.712 453.325 124.463 453.977 124.463 454.784V461.78C124.463 461.927 124.389 462 124.243 462H123.121C122.974 462 122.901 461.927 122.901 461.78V451.088C122.901 450.941 122.974 450.868 123.121 450.868H124.243C124.389 450.868 124.463 450.941 124.463 451.088V452.034C124.463 452.063 124.47 452.085 124.485 452.1C124.514 452.115 124.536 452.107 124.551 452.078C125.196 451.169 126.186 450.714 127.521 450.714Z" fill="white"/>
<defs>
<filter id="filter0_i_119_2399" x="94" y="250" width="266" height="253.764" filterUnits="userSpaceOnUse" color-interpolation-filters="sRGB">
<feFlood flood-opacity="0" result="BackgroundImageFix"/>
<feBlend mode="normal" in="SourceGraphic" in2="BackgroundImageFix" result="shape"/>
<feColorMatrix in="SourceAlpha" type="matrix" values="0 0 0 0 0 0 0 0 0 0 0 0 0 0 0 0 0 0 127 0" result="hardAlpha"/>
<feOffset dx="-24" dy="24"/>
<feGaussianBlur stdDeviation="8"/>
<feComposite in2="hardAlpha" operator="arithmetic" k2="-1" k3="1"/>
<feColorMatrix type="matrix" values="0 0 0 0 0 0 0 0 0 0 0 0 0 0 0 0 0 0 0.32 0"/>
<feBlend mode="normal" in2="shape" result="effect1_innerShadow_119_2399"/>
</filter>
<radialGradient id="paint0_radial_119_2399" cx="0" cy="0" r="1" gradientUnits="userSpaceOnUse" gradientTransform="translate(462 156) rotate(110.973) scale(514.058)">
<stop stop-color="#14A5AE"/>
<stop offset="1" stop-color="#000210" stop-opacity="0"/>
</radialGradient>
<linearGradient id="paint1_linear_119_2399" x1="92.2222" y1="-7.77777" x2="610" y2="500" gradientUnits="userSpaceOnUse">
<stop stop-color="#14A5AE"/>
<stop offset="1" stop-color="#145F69"/>
</linearGradient>
<linearGradient id="paint2_linear_119_2399" x1="72.9378" y1="402.502" x2="101.265" y2="452.854" gradientUnits="userSpaceOnUse">
<stop stop-color="#14A5AE"/>
<stop offset="1" stop-color="#145F69"/>
</linearGradient>
</defs>
</svg>
