<svg width="573" height="553" viewBox="0 0 573 553" fill="none" xmlns="http://www.w3.org/2000/svg">
<path d="M487.764 327.254C477.619 358.478 461.423 387.398 440.101 412.362C418.78 437.327 392.75 457.847 363.498 472.752C334.245 487.656 302.344 496.654 269.615 499.229C236.885 501.805 203.969 497.909 172.746 487.764L250 250L487.764 327.254Z" fill="#0E111A"/>
<g opacity="0.8">
<mask id="path-2-inside-1_119_2398" fill="white">
<path d="M487.764 327.254C477.619 358.478 461.423 387.398 440.101 412.362C418.78 437.327 392.75 457.847 363.498 472.752C334.245 487.656 302.344 496.654 269.615 499.229C236.885 501.805 203.969 497.909 172.746 487.764L250 250L487.764 327.254Z"/>
</mask>
<g filter="url(#filter0_i_119_2398)">
<path d="M487.764 327.254C477.619 358.478 461.423 387.398 440.101 412.362C418.78 437.327 392.75 457.847 363.498 472.752C334.245 487.656 302.344 496.654 269.615 499.229C236.885 501.805 203.969 497.909 172.746 487.764L250 250L487.764 327.254Z" fill="#09444E"/>
<path d="M487.764 327.254C477.619 358.478 461.423 387.398 440.101 412.362C418.78 437.327 392.75 457.847 363.498 472.752C334.245 487.656 302.344 496.654 269.615 499.229C236.885 501.805 203.969 497.909 172.746 487.764L250 250L487.764 327.254Z" fill="url(#paint0_radial_119_2398)"/>
</g>
<path d="M487.764 327.254C477.619 358.478 461.423 387.398 440.101 412.362C418.78 437.327 392.75 457.847 363.498 472.752C334.245 487.656 302.344 496.654 269.615 499.229C236.885 501.805 203.969 497.909 172.746 487.764L250 250L487.764 327.254Z" stroke="url(#paint1_linear_119_2398)" stroke-width="24" mask="url(#path-2-inside-1_119_2398)"/>
</g>
<path d="M391.524 516.444C391.487 516.481 391.477 516.519 391.496 516.556C391.515 516.593 391.552 516.612 391.608 516.612H399.196C399.289 516.612 399.364 516.649 399.42 516.724C399.495 516.78 399.532 516.855 399.532 516.948V519.664C399.532 519.757 399.495 519.841 399.42 519.916C399.364 519.972 399.289 520 399.196 520H386.596C386.503 520 386.419 519.972 386.344 519.916C386.288 519.841 386.26 519.757 386.26 519.664V517.088C386.26 516.92 386.316 516.78 386.428 516.668C387.343 515.772 388.276 514.801 389.228 513.756C390.18 512.692 390.777 512.029 391.02 511.768C391.543 511.152 392.075 510.564 392.616 510.004C394.315 508.119 395.164 506.719 395.164 505.804C395.164 505.151 394.931 504.619 394.464 504.208C393.997 503.779 393.391 503.564 392.644 503.564C391.897 503.564 391.291 503.779 390.824 504.208C390.357 504.619 390.124 505.169 390.124 505.86V506.56C390.124 506.653 390.087 506.737 390.012 506.812C389.956 506.868 389.881 506.896 389.788 506.896H386.484C386.391 506.896 386.307 506.868 386.232 506.812C386.176 506.737 386.148 506.653 386.148 506.56V505.244C386.204 504.236 386.521 503.349 387.1 502.584C387.679 501.8 388.444 501.203 389.396 500.792C390.367 500.381 391.449 500.176 392.644 500.176C393.969 500.176 395.117 500.428 396.088 500.932C397.077 501.417 397.833 502.08 398.356 502.92C398.897 503.76 399.168 504.693 399.168 505.72C399.168 506.504 398.972 507.307 398.58 508.128C398.188 508.949 397.6 509.836 396.816 510.788C396.237 511.516 395.612 512.235 394.94 512.944C394.268 513.653 393.269 514.68 391.944 516.024L391.524 516.444ZM415.296 511.068C415.576 511.983 415.716 512.869 415.716 513.728C415.716 514.68 415.567 515.539 415.268 516.304C414.839 517.499 414.083 518.451 413 519.16C411.917 519.851 410.648 520.196 409.192 520.196C407.773 520.196 406.523 519.86 405.44 519.188C404.376 518.497 403.62 517.564 403.172 516.388C402.985 515.903 402.845 515.389 402.752 514.848V514.792C402.752 514.587 402.864 514.484 403.088 514.484H406.476C406.663 514.484 406.784 514.587 406.84 514.792C406.859 514.904 406.887 514.997 406.924 515.072C406.961 515.147 406.989 515.212 407.008 515.268C407.195 515.753 407.475 516.127 407.848 516.388C408.221 516.649 408.66 516.78 409.164 516.78C409.687 516.78 410.144 516.64 410.536 516.36C410.928 516.08 411.217 515.688 411.404 515.184C411.591 514.811 411.684 514.325 411.684 513.728C411.684 513.187 411.6 512.701 411.432 512.272C411.301 511.787 411.04 511.413 410.648 511.152C410.256 510.891 409.799 510.76 409.276 510.76C408.753 510.76 408.268 510.881 407.82 511.124C407.372 511.367 407.073 511.684 406.924 512.076C406.868 512.263 406.747 512.356 406.56 512.356H403.116C403.023 512.356 402.939 512.328 402.864 512.272C402.808 512.197 402.78 512.113 402.78 512.02V500.736C402.78 500.643 402.808 500.568 402.864 500.512C402.939 500.437 403.023 500.4 403.116 500.4H414.68C414.773 500.4 414.848 500.437 414.904 500.512C414.979 500.568 415.016 500.643 415.016 500.736V503.452C415.016 503.545 414.979 503.629 414.904 503.704C414.848 503.76 414.773 503.788 414.68 503.788H406.868C406.775 503.788 406.728 503.835 406.728 503.928L406.7 508.072C406.7 508.203 406.756 508.231 406.868 508.156C407.708 507.615 408.679 507.344 409.78 507.344C411.087 507.344 412.225 507.68 413.196 508.352C414.185 509.005 414.885 509.911 415.296 511.068ZM423.71 508.996C422.888 508.996 422.132 508.8 421.442 508.408C420.77 508.016 420.228 507.484 419.818 506.812C419.426 506.121 419.23 505.375 419.23 504.572C419.23 503.769 419.426 503.032 419.818 502.36C420.228 501.688 420.77 501.156 421.442 500.764C422.132 500.353 422.888 500.148 423.71 500.148C424.512 500.148 425.25 500.353 425.922 500.764C426.594 501.156 427.126 501.688 427.518 502.36C427.928 503.032 428.134 503.769 428.134 504.572C428.134 505.375 427.938 506.121 427.546 506.812C427.154 507.484 426.612 508.016 425.922 508.408C425.25 508.8 424.512 508.996 423.71 508.996ZM422.618 520C422.487 520 422.403 519.963 422.366 519.888C422.328 519.813 422.338 519.72 422.394 519.608L432.95 500.624C433.043 500.475 433.183 500.4 433.37 500.4H435.442C435.572 500.4 435.656 500.437 435.694 500.512C435.731 500.587 435.722 500.68 435.666 500.792L425.138 519.776C425.044 519.925 424.904 520 424.718 520H422.618ZM423.71 506.7C424.288 506.7 424.774 506.495 425.166 506.084C425.576 505.673 425.782 505.169 425.782 504.572C425.782 503.993 425.576 503.499 425.166 503.088C424.774 502.677 424.288 502.472 423.71 502.472C423.112 502.472 422.608 502.677 422.198 503.088C421.787 503.499 421.582 503.993 421.582 504.572C421.582 505.169 421.787 505.673 422.198 506.084C422.608 506.495 423.112 506.7 423.71 506.7ZM434.63 520.252C433.827 520.252 433.08 520.056 432.39 519.664C431.718 519.253 431.176 518.712 430.766 518.04C430.374 517.349 430.178 516.603 430.178 515.8C430.178 514.997 430.374 514.26 430.766 513.588C431.176 512.916 431.718 512.384 432.39 511.992C433.08 511.6 433.827 511.404 434.63 511.404C435.432 511.404 436.17 511.6 436.842 511.992C437.532 512.384 438.074 512.916 438.466 513.588C438.876 514.26 439.082 514.997 439.082 515.8C439.082 516.603 438.876 517.349 438.466 518.04C438.074 518.712 437.532 519.253 436.842 519.664C436.17 520.056 435.432 520.252 434.63 520.252ZM434.63 517.928C435.208 517.928 435.703 517.723 436.114 517.312C436.524 516.901 436.73 516.397 436.73 515.8C436.73 515.221 436.524 514.727 436.114 514.316C435.703 513.905 435.208 513.7 434.63 513.7C434.051 513.7 433.556 513.905 433.146 514.316C432.735 514.708 432.53 515.203 432.53 515.8C432.53 516.397 432.726 516.901 433.118 517.312C433.528 517.723 434.032 517.928 434.63 517.928Z" fill="url(#paint2_linear_119_2398)"/>
<path d="M387.288 552C387.141 552 387.068 551.927 387.068 551.78V536.82C387.068 536.673 387.141 536.6 387.288 536.6H388.41C388.557 536.6 388.63 536.673 388.63 536.82V551.78C388.63 551.927 388.557 552 388.41 552H387.288ZM397.393 540.714C398.567 540.714 399.498 541.059 400.187 541.748C400.891 542.437 401.243 543.361 401.243 544.52V551.78C401.243 551.927 401.17 552 401.023 552H399.901C399.755 552 399.681 551.927 399.681 551.78V544.828C399.681 544.021 399.432 543.361 398.933 542.848C398.449 542.335 397.819 542.078 397.041 542.078C396.235 542.078 395.582 542.327 395.083 542.826C394.585 543.325 394.335 543.977 394.335 544.784V551.78C394.335 551.927 394.262 552 394.115 552H392.993C392.847 552 392.773 551.927 392.773 551.78V541.088C392.773 540.941 392.847 540.868 392.993 540.868H394.115C394.262 540.868 394.335 540.941 394.335 541.088V542.034C394.335 542.063 394.343 542.085 394.357 542.1C394.387 542.115 394.409 542.107 394.423 542.078C395.069 541.169 396.059 540.714 397.393 540.714ZM407.597 552C407.465 552 407.377 551.941 407.333 551.824L403.725 541.11L403.703 541.022C403.703 540.919 403.769 540.868 403.901 540.868H405.155C405.287 540.868 405.375 540.927 405.419 541.044L408.169 549.668C408.184 549.697 408.206 549.712 408.235 549.712C408.265 549.712 408.287 549.697 408.301 549.668L411.051 541.044C411.095 540.927 411.183 540.868 411.315 540.868L412.569 540.89C412.731 540.89 412.789 540.971 412.745 541.132L409.137 551.824C409.093 551.941 409.005 552 408.873 552H407.597ZM423.692 544.564C423.75 544.975 423.78 545.488 423.78 546.104V546.808C423.78 546.955 423.706 547.028 423.56 547.028H416.454C416.395 547.028 416.366 547.057 416.366 547.116C416.395 547.923 416.439 548.443 416.498 548.678C416.659 549.338 417.004 549.859 417.532 550.24C418.06 550.621 418.734 550.812 419.556 550.812C420.172 550.812 420.714 550.673 421.184 550.394C421.653 550.115 422.02 549.719 422.284 549.206C422.372 549.074 422.474 549.045 422.592 549.118L423.45 549.624C423.567 549.697 423.596 549.8 423.538 549.932C423.171 550.636 422.621 551.193 421.888 551.604C421.154 552 420.311 552.198 419.358 552.198C418.316 552.183 417.444 551.934 416.74 551.45C416.036 550.966 415.53 550.291 415.222 549.426C414.958 548.722 414.826 547.71 414.826 546.39C414.826 545.774 414.833 545.275 414.848 544.894C414.877 544.498 414.936 544.146 415.024 543.838C415.273 542.885 415.772 542.122 416.52 541.55C417.282 540.978 418.199 540.692 419.27 540.692C420.604 540.692 421.631 541.029 422.35 541.704C423.068 542.379 423.516 543.332 423.692 544.564ZM419.27 542.056C418.551 542.056 417.95 542.247 417.466 542.628C416.996 542.995 416.688 543.493 416.542 544.124C416.454 544.432 416.395 544.931 416.366 545.62C416.366 545.679 416.395 545.708 416.454 545.708H422.152C422.21 545.708 422.24 545.679 422.24 545.62C422.21 544.96 422.166 544.491 422.108 544.212C421.946 543.552 421.616 543.031 421.118 542.65C420.634 542.254 420.018 542.056 419.27 542.056ZM430.665 552.11C429.843 552.11 429.11 551.978 428.465 551.714C427.834 551.45 427.343 551.098 426.991 550.658C426.653 550.218 426.485 549.727 426.485 549.184V548.92C426.485 548.773 426.558 548.7 426.705 548.7H427.761C427.907 548.7 427.981 548.773 427.981 548.92V549.096C427.981 549.58 428.23 550.005 428.729 550.372C429.242 550.724 429.88 550.9 430.643 550.9C431.405 550.9 432.021 550.731 432.491 550.394C432.96 550.042 433.195 549.602 433.195 549.074C433.195 548.707 433.07 548.407 432.821 548.172C432.586 547.937 432.3 547.754 431.963 547.622C431.64 547.49 431.134 547.321 430.445 547.116C429.623 546.881 428.949 546.647 428.421 546.412C427.893 546.177 427.445 545.855 427.079 545.444C426.727 545.019 426.551 544.483 426.551 543.838C426.551 542.899 426.917 542.151 427.651 541.594C428.384 541.037 429.352 540.758 430.555 540.758C431.361 540.758 432.073 540.89 432.689 541.154C433.319 541.418 433.803 541.785 434.141 542.254C434.478 542.709 434.647 543.222 434.647 543.794V543.86C434.647 544.007 434.573 544.08 434.427 544.08H433.393C433.246 544.08 433.173 544.007 433.173 543.86V543.794C433.173 543.295 432.931 542.877 432.447 542.54C431.977 542.203 431.339 542.034 430.533 542.034C429.785 542.034 429.183 542.188 428.729 542.496C428.274 542.789 428.047 543.2 428.047 543.728C428.047 544.227 428.267 544.608 428.707 544.872C429.147 545.136 429.829 545.4 430.753 545.664C431.603 545.913 432.293 546.148 432.821 546.368C433.349 546.588 433.803 546.911 434.185 547.336C434.566 547.747 434.757 548.289 434.757 548.964C434.757 549.917 434.383 550.68 433.635 551.252C432.887 551.824 431.897 552.11 430.665 552.11ZM442.897 541.946C442.897 542.093 442.824 542.166 442.677 542.166H440.191C440.132 542.166 440.103 542.195 440.103 542.254V548.744C440.103 549.448 440.257 549.947 440.565 550.24C440.888 550.519 441.386 550.658 442.061 550.658H442.611C442.758 550.658 442.831 550.731 442.831 550.878V551.78C442.831 551.927 442.758 552 442.611 552C442.435 552.015 442.164 552.022 441.797 552.022C440.741 552.022 439.942 551.824 439.399 551.428C438.856 551.032 438.585 550.299 438.585 549.228V542.254C438.585 542.195 438.556 542.166 438.497 542.166H437.155C437.008 542.166 436.935 542.093 436.935 541.946V541.088C436.935 540.941 437.008 540.868 437.155 540.868H438.497C438.556 540.868 438.585 540.839 438.585 540.78V538.228C438.585 538.081 438.658 538.008 438.805 538.008H439.883C440.03 538.008 440.103 538.081 440.103 538.228V540.78C440.103 540.839 440.132 540.868 440.191 540.868H442.677C442.824 540.868 442.897 540.941 442.897 541.088V541.946ZM450.16 552.176C449.104 552.176 448.195 551.905 447.432 551.362C446.67 550.819 446.142 550.071 445.848 549.118C445.643 548.443 445.54 547.541 445.54 546.412C445.54 545.283 445.643 544.388 445.848 543.728C446.127 542.789 446.648 542.049 447.41 541.506C448.173 540.963 449.097 540.692 450.182 540.692C451.224 540.692 452.118 540.963 452.866 541.506C453.629 542.049 454.15 542.782 454.428 543.706C454.634 544.337 454.736 545.239 454.736 546.412C454.736 547.6 454.634 548.502 454.428 549.118C454.15 550.071 453.629 550.819 452.866 551.362C452.118 551.905 451.216 552.176 450.16 552.176ZM450.16 550.812C450.864 550.812 451.466 550.621 451.964 550.24C452.463 549.844 452.8 549.316 452.976 548.656C453.108 548.128 453.174 547.387 453.174 546.434C453.174 545.466 453.116 544.725 452.998 544.212C452.822 543.552 452.478 543.031 451.964 542.65C451.466 542.254 450.857 542.056 450.138 542.056C449.42 542.056 448.811 542.254 448.312 542.65C447.814 543.031 447.476 543.552 447.3 544.212C447.183 544.725 447.124 545.466 447.124 546.434C447.124 547.402 447.183 548.143 447.3 548.656C447.462 549.316 447.792 549.844 448.29 550.24C448.804 550.621 449.427 550.812 450.16 550.812ZM462.711 540.758C463.195 540.758 463.613 540.853 463.965 541.044C464.082 541.103 464.126 541.198 464.097 541.33L463.855 542.408C463.811 542.555 463.715 542.599 463.569 542.54C463.319 542.437 463.033 542.386 462.711 542.386L462.425 542.408C461.662 542.437 461.031 542.723 460.533 543.266C460.034 543.794 459.785 544.469 459.785 545.29V551.78C459.785 551.927 459.711 552 459.565 552H458.443C458.296 552 458.223 551.927 458.223 551.78V541.088C458.223 540.941 458.296 540.868 458.443 540.868H459.565C459.711 540.868 459.785 540.941 459.785 541.088V542.43C459.785 542.474 459.792 542.503 459.807 542.518C459.836 542.518 459.858 542.503 459.873 542.474C460.181 541.931 460.569 541.513 461.039 541.22C461.523 540.912 462.08 540.758 462.711 540.758ZM470.144 552.11C469.323 552.11 468.589 551.978 467.944 551.714C467.313 551.45 466.822 551.098 466.47 550.658C466.133 550.218 465.964 549.727 465.964 549.184V548.92C465.964 548.773 466.037 548.7 466.184 548.7H467.24C467.387 548.7 467.46 548.773 467.46 548.92V549.096C467.46 549.58 467.709 550.005 468.208 550.372C468.721 550.724 469.359 550.9 470.122 550.9C470.885 550.9 471.501 550.731 471.97 550.394C472.439 550.042 472.674 549.602 472.674 549.074C472.674 548.707 472.549 548.407 472.3 548.172C472.065 547.937 471.779 547.754 471.442 547.622C471.119 547.49 470.613 547.321 469.924 547.116C469.103 546.881 468.428 546.647 467.9 546.412C467.372 546.177 466.925 545.855 466.558 545.444C466.206 545.019 466.03 544.483 466.03 543.838C466.03 542.899 466.397 542.151 467.13 541.594C467.863 541.037 468.831 540.758 470.034 540.758C470.841 540.758 471.552 540.89 472.168 541.154C472.799 541.418 473.283 541.785 473.62 542.254C473.957 542.709 474.126 543.222 474.126 543.794V543.86C474.126 544.007 474.053 544.08 473.906 544.08H472.872C472.725 544.08 472.652 544.007 472.652 543.86V543.794C472.652 543.295 472.41 542.877 471.926 542.54C471.457 542.203 470.819 542.034 470.012 542.034C469.264 542.034 468.663 542.188 468.208 542.496C467.753 542.789 467.526 543.2 467.526 543.728C467.526 544.227 467.746 544.608 468.186 544.872C468.626 545.136 469.308 545.4 470.232 545.664C471.083 545.913 471.772 546.148 472.3 546.368C472.828 546.588 473.283 546.911 473.664 547.336C474.045 547.747 474.236 548.289 474.236 548.964C474.236 549.917 473.862 550.68 473.114 551.252C472.366 551.824 471.376 552.11 470.144 552.11ZM485.978 540.692C487.298 540.692 488.317 541.029 489.036 541.704C489.755 542.379 490.114 543.273 490.114 544.388V551.78C490.114 551.927 490.041 552 489.894 552H488.772C488.625 552 488.552 551.927 488.552 551.78V550.878C488.552 550.849 488.537 550.827 488.508 550.812C488.493 550.797 488.471 550.805 488.442 550.834C488.075 551.274 487.599 551.611 487.012 551.846C486.425 552.066 485.773 552.176 485.054 552.176C484.013 552.176 483.14 551.912 482.436 551.384C481.732 550.856 481.38 550.049 481.38 548.964C481.38 547.864 481.776 546.999 482.568 546.368C483.375 545.723 484.489 545.4 485.912 545.4H488.464C488.523 545.4 488.552 545.371 488.552 545.312V544.476C488.552 543.728 488.339 543.141 487.914 542.716C487.503 542.276 486.858 542.056 485.978 542.056C485.274 542.056 484.702 542.195 484.262 542.474C483.822 542.738 483.551 543.112 483.448 543.596C483.404 543.743 483.316 543.809 483.184 543.794L481.996 543.64C481.835 543.611 481.769 543.552 481.798 543.464C481.915 542.643 482.355 541.975 483.118 541.462C483.881 540.949 484.834 540.692 485.978 540.692ZM485.362 550.834C486.227 550.834 486.975 550.621 487.606 550.196C488.237 549.756 488.552 549.169 488.552 548.436V546.72C488.552 546.661 488.523 546.632 488.464 546.632H486.154C485.186 546.632 484.409 546.83 483.822 547.226C483.235 547.622 482.942 548.172 482.942 548.876C482.942 549.521 483.162 550.013 483.602 550.35C484.057 550.673 484.643 550.834 485.362 550.834ZM498.304 540.714C499.478 540.714 500.409 541.059 501.098 541.748C501.802 542.437 502.154 543.361 502.154 544.52V551.78C502.154 551.927 502.081 552 501.934 552H500.812C500.666 552 500.592 551.927 500.592 551.78V544.828C500.592 544.021 500.343 543.361 499.844 542.848C499.36 542.335 498.73 542.078 497.952 542.078C497.146 542.078 496.493 542.327 495.994 542.826C495.496 543.325 495.246 543.977 495.246 544.784V551.78C495.246 551.927 495.173 552 495.026 552H493.904C493.758 552 493.684 551.927 493.684 551.78V541.088C493.684 540.941 493.758 540.868 493.904 540.868H495.026C495.173 540.868 495.246 540.941 495.246 541.088V542.034C495.246 542.063 495.254 542.085 495.268 542.1C495.298 542.115 495.32 542.107 495.334 542.078C495.98 541.169 496.97 540.714 498.304 540.714ZM512.621 536.82C512.621 536.673 512.695 536.6 512.841 536.6H513.963C514.11 536.6 514.183 536.673 514.183 536.82V551.78C514.183 551.927 514.11 552 513.963 552H512.841C512.695 552 512.621 551.927 512.621 551.78V550.856C512.621 550.827 512.607 550.812 512.577 550.812C512.563 550.797 512.541 550.805 512.511 550.834C512.189 551.259 511.785 551.589 511.301 551.824C510.832 552.059 510.304 552.176 509.717 552.176C508.691 552.176 507.825 551.912 507.121 551.384C506.432 550.856 505.955 550.137 505.691 549.228C505.486 548.568 505.383 547.637 505.383 546.434C505.383 545.217 505.471 544.307 505.647 543.706C505.911 542.767 506.395 542.034 507.099 541.506C507.803 540.963 508.676 540.692 509.717 540.692C510.289 540.692 510.817 540.809 511.301 541.044C511.785 541.264 512.189 541.587 512.511 542.012C512.541 542.041 512.563 542.056 512.577 542.056C512.607 542.041 512.621 542.019 512.621 541.99V536.82ZM512.225 549.118C512.357 548.825 512.453 548.48 512.511 548.084C512.57 547.688 512.599 547.138 512.599 546.434C512.599 545.73 512.57 545.18 512.511 544.784C512.453 544.373 512.35 544.014 512.203 543.706C512.027 543.207 511.734 542.811 511.323 542.518C510.927 542.21 510.451 542.056 509.893 542.056C509.307 542.056 508.801 542.203 508.375 542.496C507.95 542.789 507.642 543.178 507.451 543.662C507.275 543.985 507.143 544.351 507.055 544.762C506.982 545.158 506.945 545.715 506.945 546.434C506.945 547.123 506.975 547.666 507.033 548.062C507.092 548.443 507.195 548.788 507.341 549.096C507.517 549.624 507.825 550.042 508.265 550.35C508.72 550.658 509.255 550.812 509.871 550.812C510.458 550.812 510.949 550.658 511.345 550.35C511.741 550.042 512.035 549.631 512.225 549.118ZM532.359 536.6C532.506 536.6 532.579 536.673 532.579 536.82V537.766C532.579 537.913 532.506 537.986 532.359 537.986H528.047C527.989 537.986 527.959 538.015 527.959 538.074V551.78C527.959 551.927 527.886 552 527.739 552H526.617C526.471 552 526.397 551.927 526.397 551.78V538.074C526.397 538.015 526.368 537.986 526.309 537.986H522.173C522.027 537.986 521.953 537.913 521.953 537.766V536.82C521.953 536.673 522.027 536.6 522.173 536.6H532.359ZM542.602 544.564C542.661 544.975 542.69 545.488 542.69 546.104V546.808C542.69 546.955 542.617 547.028 542.47 547.028H535.364C535.305 547.028 535.276 547.057 535.276 547.116C535.305 547.923 535.349 548.443 535.408 548.678C535.569 549.338 535.914 549.859 536.442 550.24C536.97 550.621 537.645 550.812 538.466 550.812C539.082 550.812 539.625 550.673 540.094 550.394C540.563 550.115 540.93 549.719 541.194 549.206C541.282 549.074 541.385 549.045 541.502 549.118L542.36 549.624C542.477 549.697 542.507 549.8 542.448 549.932C542.081 550.636 541.531 551.193 540.798 551.604C540.065 552 539.221 552.198 538.268 552.198C537.227 552.183 536.354 551.934 535.65 551.45C534.946 550.966 534.44 550.291 534.132 549.426C533.868 548.722 533.736 547.71 533.736 546.39C533.736 545.774 533.743 545.275 533.758 544.894C533.787 544.498 533.846 544.146 533.934 543.838C534.183 542.885 534.682 542.122 535.43 541.55C536.193 540.978 537.109 540.692 538.18 540.692C539.515 540.692 540.541 541.029 541.26 541.704C541.979 542.379 542.426 543.332 542.602 544.564ZM538.18 542.056C537.461 542.056 536.86 542.247 536.376 542.628C535.907 542.995 535.599 543.493 535.452 544.124C535.364 544.432 535.305 544.931 535.276 545.62C535.276 545.679 535.305 545.708 535.364 545.708H541.062C541.121 545.708 541.15 545.679 541.15 545.62C541.121 544.96 541.077 544.491 541.018 544.212C540.857 543.552 540.527 543.031 540.028 542.65C539.544 542.254 538.928 542.056 538.18 542.056ZM549.859 540.692C551.179 540.692 552.198 541.029 552.917 541.704C553.636 542.379 553.995 543.273 553.995 544.388V551.78C553.995 551.927 553.922 552 553.775 552H552.653C552.506 552 552.433 551.927 552.433 551.78V550.878C552.433 550.849 552.418 550.827 552.389 550.812C552.374 550.797 552.352 550.805 552.323 550.834C551.956 551.274 551.48 551.611 550.893 551.846C550.306 552.066 549.654 552.176 548.935 552.176C547.894 552.176 547.021 551.912 546.317 551.384C545.613 550.856 545.261 550.049 545.261 548.964C545.261 547.864 545.657 546.999 546.449 546.368C547.256 545.723 548.37 545.4 549.793 545.4H552.345C552.404 545.4 552.433 545.371 552.433 545.312V544.476C552.433 543.728 552.22 543.141 551.795 542.716C551.384 542.276 550.739 542.056 549.859 542.056C549.155 542.056 548.583 542.195 548.143 542.474C547.703 542.738 547.432 543.112 547.329 543.596C547.285 543.743 547.197 543.809 547.065 543.794L545.877 543.64C545.716 543.611 545.65 543.552 545.679 543.464C545.796 542.643 546.236 541.975 546.999 541.462C547.762 540.949 548.715 540.692 549.859 540.692ZM549.243 550.834C550.108 550.834 550.856 550.621 551.487 550.196C552.118 549.756 552.433 549.169 552.433 548.436V546.72C552.433 546.661 552.404 546.632 552.345 546.632H550.035C549.067 546.632 548.29 546.83 547.703 547.226C547.116 547.622 546.823 548.172 546.823 548.876C546.823 549.521 547.043 550.013 547.483 550.35C547.938 550.673 548.524 550.834 549.243 550.834ZM568.829 540.714C569.929 540.714 570.795 541.044 571.425 541.704C572.071 542.364 572.393 543.266 572.393 544.41V551.78C572.393 551.927 572.32 552 572.173 552H571.073C570.927 552 570.853 551.927 570.853 551.78V544.718C570.853 543.911 570.619 543.273 570.149 542.804C569.695 542.32 569.093 542.078 568.345 542.078C567.568 542.078 566.937 542.313 566.453 542.782C565.984 543.251 565.749 543.882 565.749 544.674V551.78C565.749 551.927 565.676 552 565.529 552H564.407C564.261 552 564.187 551.927 564.187 551.78V544.718C564.187 543.911 563.96 543.273 563.505 542.804C563.051 542.32 562.442 542.078 561.679 542.078C560.902 542.078 560.279 542.313 559.809 542.782C559.355 543.251 559.127 543.882 559.127 544.674V551.78C559.127 551.927 559.054 552 558.907 552H557.785C557.639 552 557.565 551.927 557.565 551.78V541.088C557.565 540.941 557.639 540.868 557.785 540.868H558.907C559.054 540.868 559.127 540.941 559.127 541.088V541.968C559.127 541.997 559.135 542.019 559.149 542.034C559.179 542.034 559.208 542.019 559.237 541.99C559.56 541.565 559.971 541.249 560.469 541.044C560.983 540.824 561.547 540.714 562.163 540.714C562.926 540.714 563.579 540.868 564.121 541.176C564.664 541.484 565.075 541.931 565.353 542.518C565.383 542.591 565.419 542.591 565.463 542.518C565.786 541.917 566.241 541.469 566.827 541.176C567.414 540.868 568.081 540.714 568.829 540.714Z" fill="white"/>
<defs>
<filter id="filter0_i_119_2398" x="156.746" y="250" width="331.019" height="266" filterUnits="userSpaceOnUse" color-interpolation-filters="sRGB">
<feFlood flood-opacity="0" result="BackgroundImageFix"/>
<feBlend mode="normal" in="SourceGraphic" in2="BackgroundImageFix" result="shape"/>
<feColorMatrix in="SourceAlpha" type="matrix" values="0 0 0 0 0 0 0 0 0 0 0 0 0 0 0 0 0 0 127 0" result="hardAlpha"/>
<feOffset dx="-24" dy="24"/>
<feGaussianBlur stdDeviation="8"/>
<feComposite in2="hardAlpha" operator="arithmetic" k2="-1" k3="1"/>
<feColorMatrix type="matrix" values="0 0 0 0 0 0 0 0 0 0 0 0 0 0 0 0 0 0 0.32 0"/>
<feBlend mode="normal" in2="shape" result="effect1_innerShadow_119_2398"/>
</filter>
<radialGradient id="paint0_radial_119_2398" cx="0" cy="0" r="1" gradientUnits="userSpaceOnUse" gradientTransform="translate(352 156) rotate(110.973) scale(514.058)">
<stop stop-color="#14A5AE"/>
<stop offset="1" stop-color="#000210" stop-opacity="0"/>
</radialGradient>
<linearGradient id="paint1_linear_119_2398" x1="-17.7778" y1="-7.77777" x2="500" y2="500" gradientUnits="userSpaceOnUse">
<stop stop-color="#14A5AE"/>
<stop offset="1" stop-color="#145F69"/>
</linearGradient>
<linearGradient id="paint2_linear_119_2398" x1="382.973" y1="492.502" x2="411.554" y2="542.429" gradientUnits="userSpaceOnUse">
<stop stop-color="#14A5AE"/>
<stop offset="1" stop-color="#145F69"/>
</linearGradient>
</defs>
</svg>
