<svg width="638" height="500" viewBox="0 0 638 500" fill="none" xmlns="http://www.w3.org/2000/svg">
<mask id="path-1-inside-1_119_2402" fill="white">
<path d="M250 0C289.453 4.70468e-07 328.345 9.33726 363.498 27.2484C398.65 45.1595 429.065 71.1358 452.254 103.054C475.444 134.971 490.75 171.924 496.922 210.891C503.094 249.858 499.956 289.733 487.764 327.254L250 250V0Z"/>
</mask>
<g filter="url(#filter0_i_119_2402)">
<path d="M250 0C289.453 4.70468e-07 328.345 9.33726 363.498 27.2484C398.65 45.1595 429.065 71.1358 452.254 103.054C475.444 134.971 490.75 171.924 496.922 210.891C503.094 249.858 499.956 289.733 487.764 327.254L250 250V0Z" fill="#09444E"/>
<path d="M250 0C289.453 4.70468e-07 328.345 9.33726 363.498 27.2484C398.65 45.1595 429.065 71.1358 452.254 103.054C475.444 134.971 490.75 171.924 496.922 210.891C503.094 249.858 499.956 289.733 487.764 327.254L250 250V0Z" fill="url(#paint0_radial_119_2402)"/>
</g>
<path d="M250 0C289.453 4.70468e-07 328.345 9.33726 363.498 27.2484C398.65 45.1595 429.065 71.1358 452.254 103.054C475.444 134.971 490.75 171.924 496.922 210.891C503.094 249.858 499.956 289.733 487.764 327.254L250 250V0Z" stroke="url(#paint1_linear_119_2402)" stroke-width="24" mask="url(#path-1-inside-1_119_2402)"/>
<path d="M500.356 30.648C500.729 31.5067 500.916 32.496 500.916 33.616C500.916 34.624 500.748 35.5573 500.412 36.416C499.964 37.6107 499.208 38.544 498.144 39.216C497.099 39.888 495.857 40.224 494.42 40.224C493.001 40.224 491.751 39.8693 490.668 39.16C489.604 38.4507 488.839 37.4893 488.372 36.276C488.111 35.548 487.961 34.764 487.924 33.924C487.924 33.7 488.036 33.588 488.26 33.588H491.564C491.788 33.588 491.9 33.7 491.9 33.924C491.975 34.54 492.077 34.9973 492.208 35.296C492.376 35.7813 492.647 36.164 493.02 36.444C493.412 36.7053 493.869 36.836 494.392 36.836C495.437 36.836 496.156 36.3787 496.548 35.464C496.809 34.904 496.94 34.2507 496.94 33.504C496.94 32.6267 496.8 31.908 496.52 31.348C496.091 30.4707 495.372 30.032 494.364 30.032C494.159 30.032 493.944 30.0973 493.72 30.228C493.496 30.34 493.225 30.508 492.908 30.732C492.833 30.788 492.759 30.816 492.684 30.816C492.572 30.816 492.488 30.76 492.432 30.648L490.78 28.324C490.743 28.268 490.724 28.2027 490.724 28.128C490.724 28.016 490.761 27.9227 490.836 27.848L495.288 23.956C495.325 23.9187 495.335 23.8813 495.316 23.844C495.316 23.8067 495.288 23.788 495.232 23.788H488.652C488.559 23.788 488.475 23.76 488.4 23.704C488.344 23.6293 488.316 23.5453 488.316 23.452V20.736C488.316 20.6427 488.344 20.568 488.4 20.512C488.475 20.4373 488.559 20.4 488.652 20.4H500.328C500.421 20.4 500.496 20.4373 500.552 20.512C500.627 20.568 500.664 20.6427 500.664 20.736V23.816C500.664 23.9653 500.599 24.1053 500.468 24.236L496.8 27.596C496.763 27.6333 496.744 27.6707 496.744 27.708C496.763 27.7453 496.809 27.764 496.884 27.764C498.508 28.0813 499.665 29.0427 500.356 30.648ZM510.953 40.308C508.9 40.308 507.276 39.7387 506.081 38.6C504.886 37.4427 504.289 35.8747 504.289 33.896V26.504C504.289 24.5627 504.886 23.0227 506.081 21.884C507.276 20.7453 508.9 20.176 510.953 20.176C513.006 20.176 514.63 20.7453 515.825 21.884C517.038 23.0227 517.645 24.5627 517.645 26.504V33.896C517.645 35.8747 517.038 37.4427 515.825 38.6C514.63 39.7387 513.006 40.308 510.953 40.308ZM510.953 36.92C511.793 36.92 512.456 36.668 512.941 36.164C513.445 35.6413 513.697 34.9507 513.697 34.092V26.392C513.697 25.5333 513.445 24.852 512.941 24.348C512.456 23.8253 511.793 23.564 510.953 23.564C510.132 23.564 509.469 23.8253 508.965 24.348C508.48 24.852 508.237 25.5333 508.237 26.392V34.092C508.237 34.9507 508.48 35.6413 508.965 36.164C509.469 36.668 510.132 36.92 510.953 36.92ZM526.038 28.996C525.217 28.996 524.461 28.8 523.77 28.408C523.098 28.016 522.557 27.484 522.146 26.812C521.754 26.1213 521.558 25.3747 521.558 24.572C521.558 23.7693 521.754 23.032 522.146 22.36C522.557 21.688 523.098 21.156 523.77 20.764C524.461 20.3533 525.217 20.148 526.038 20.148C526.841 20.148 527.578 20.3533 528.25 20.764C528.922 21.156 529.454 21.688 529.846 22.36C530.257 23.032 530.462 23.7693 530.462 24.572C530.462 25.3747 530.266 26.1213 529.874 26.812C529.482 27.484 528.941 28.016 528.25 28.408C527.578 28.8 526.841 28.996 526.038 28.996ZM524.946 40C524.815 40 524.731 39.9627 524.694 39.888C524.657 39.8133 524.666 39.72 524.722 39.608L535.278 20.624C535.371 20.4747 535.511 20.4 535.698 20.4H537.77C537.901 20.4 537.985 20.4373 538.022 20.512C538.059 20.5867 538.05 20.68 537.994 20.792L527.466 39.776C527.373 39.9253 527.233 40 527.046 40H524.946ZM526.038 26.7C526.617 26.7 527.102 26.4947 527.494 26.084C527.905 25.6733 528.11 25.1693 528.11 24.572C528.11 23.9933 527.905 23.4987 527.494 23.088C527.102 22.6773 526.617 22.472 526.038 22.472C525.441 22.472 524.937 22.6773 524.526 23.088C524.115 23.4987 523.91 23.9933 523.91 24.572C523.91 25.1693 524.115 25.6733 524.526 26.084C524.937 26.4947 525.441 26.7 526.038 26.7ZM536.958 40.252C536.155 40.252 535.409 40.056 534.718 39.664C534.046 39.2533 533.505 38.712 533.094 38.04C532.702 37.3493 532.506 36.6027 532.506 35.8C532.506 34.9973 532.702 34.26 533.094 33.588C533.505 32.916 534.046 32.384 534.718 31.992C535.409 31.6 536.155 31.404 536.958 31.404C537.761 31.404 538.498 31.6 539.17 31.992C539.861 32.384 540.402 32.916 540.794 33.588C541.205 34.26 541.41 34.9973 541.41 35.8C541.41 36.6027 541.205 37.3493 540.794 38.04C540.402 38.712 539.861 39.2533 539.17 39.664C538.498 40.056 537.761 40.252 536.958 40.252ZM536.958 37.928C537.537 37.928 538.031 37.7227 538.442 37.312C538.853 36.9013 539.058 36.3973 539.058 35.8C539.058 35.2213 538.853 34.7267 538.442 34.316C538.031 33.9053 537.537 33.7 536.958 33.7C536.379 33.7 535.885 33.9053 535.474 34.316C535.063 34.708 534.858 35.2027 534.858 35.8C534.858 36.3973 535.054 36.9013 535.446 37.312C535.857 37.7227 536.361 37.928 536.958 37.928Z" fill="url(#paint2_linear_119_2402)"/>
<path d="M499.012 57.744C499.012 57.8907 498.939 57.964 498.792 57.964H490.718C490.659 57.964 490.63 57.9933 490.63 58.052V63.486C490.63 63.5447 490.659 63.574 490.718 63.574H496.372C496.519 63.574 496.592 63.6473 496.592 63.794V64.718C496.592 64.8647 496.519 64.938 496.372 64.938H490.718C490.659 64.938 490.63 64.9673 490.63 65.026V71.78C490.63 71.9267 490.557 72 490.41 72H489.288C489.141 72 489.068 71.9267 489.068 71.78V56.82C489.068 56.6733 489.141 56.6 489.288 56.6H498.792C498.939 56.6 499.012 56.6733 499.012 56.82V57.744ZM507.994 61.088C507.994 60.9413 508.067 60.868 508.214 60.868H509.336C509.482 60.868 509.556 60.9413 509.556 61.088V71.78C509.556 71.9267 509.482 72 509.336 72H508.214C508.067 72 507.994 71.9267 507.994 71.78V70.834C507.994 70.8047 507.979 70.7827 507.95 70.768C507.92 70.7533 507.898 70.7607 507.884 70.79C507.268 71.6993 506.292 72.154 504.958 72.154C504.254 72.154 503.601 72.0147 503 71.736C502.413 71.4427 501.944 71.0247 501.592 70.482C501.254 69.9393 501.086 69.2867 501.086 68.524V61.088C501.086 60.9413 501.159 60.868 501.306 60.868H502.428C502.574 60.868 502.648 60.9413 502.648 61.088V68.062C502.648 68.898 502.882 69.5653 503.352 70.064C503.821 70.548 504.459 70.79 505.266 70.79C506.102 70.79 506.762 70.5407 507.246 70.042C507.744 69.5433 507.994 68.8833 507.994 68.062V61.088ZM518.371 61.946C518.371 62.0927 518.297 62.166 518.151 62.166H515.665C515.606 62.166 515.577 62.1953 515.577 62.254V68.744C515.577 69.448 515.731 69.9467 516.039 70.24C516.361 70.5187 516.86 70.658 517.535 70.658H518.085C518.231 70.658 518.305 70.7313 518.305 70.878V71.78C518.305 71.9267 518.231 72 518.085 72C517.909 72.0147 517.637 72.022 517.271 72.022C516.215 72.022 515.415 71.824 514.873 71.428C514.33 71.032 514.059 70.2987 514.059 69.228V62.254C514.059 62.1953 514.029 62.166 513.971 62.166H512.629C512.482 62.166 512.409 62.0927 512.409 61.946V61.088C512.409 60.9413 512.482 60.868 512.629 60.868H513.971C514.029 60.868 514.059 60.8387 514.059 60.78V58.228C514.059 58.0813 514.132 58.008 514.279 58.008H515.357C515.503 58.008 515.577 58.0813 515.577 58.228V60.78C515.577 60.8387 515.606 60.868 515.665 60.868H518.151C518.297 60.868 518.371 60.9413 518.371 61.088V61.946ZM528.442 61.088C528.442 60.9413 528.516 60.868 528.662 60.868H529.784C529.931 60.868 530.004 60.9413 530.004 61.088V71.78C530.004 71.9267 529.931 72 529.784 72H528.662C528.516 72 528.442 71.9267 528.442 71.78V70.834C528.442 70.8047 528.428 70.7827 528.398 70.768C528.369 70.7533 528.347 70.7607 528.332 70.79C527.716 71.6993 526.741 72.154 525.406 72.154C524.702 72.154 524.05 72.0147 523.448 71.736C522.862 71.4427 522.392 71.0247 522.04 70.482C521.703 69.9393 521.534 69.2867 521.534 68.524V61.088C521.534 60.9413 521.608 60.868 521.754 60.868H522.876C523.023 60.868 523.096 60.9413 523.096 61.088V68.062C523.096 68.898 523.331 69.5653 523.8 70.064C524.27 70.548 524.908 70.79 525.714 70.79C526.55 70.79 527.21 70.5407 527.694 70.042C528.193 69.5433 528.442 68.8833 528.442 68.062V61.088ZM538.313 60.758C538.797 60.758 539.215 60.8533 539.567 61.044C539.684 61.1027 539.728 61.198 539.699 61.33L539.457 62.408C539.413 62.5547 539.318 62.5987 539.171 62.54C538.922 62.4373 538.636 62.386 538.313 62.386L538.027 62.408C537.264 62.4373 536.634 62.7233 536.135 63.266C535.636 63.794 535.387 64.4687 535.387 65.29V71.78C535.387 71.9267 535.314 72 535.167 72H534.045C533.898 72 533.825 71.9267 533.825 71.78V61.088C533.825 60.9413 533.898 60.868 534.045 60.868H535.167C535.314 60.868 535.387 60.9413 535.387 61.088V62.43C535.387 62.474 535.394 62.5033 535.409 62.518C535.438 62.518 535.46 62.5033 535.475 62.474C535.783 61.9313 536.172 61.5133 536.641 61.22C537.125 60.912 537.682 60.758 538.313 60.758ZM550.587 64.564C550.646 64.9747 550.675 65.488 550.675 66.104V66.808C550.675 66.9547 550.602 67.028 550.455 67.028H543.349C543.291 67.028 543.261 67.0573 543.261 67.116C543.291 67.9227 543.335 68.4433 543.393 68.678C543.555 69.338 543.899 69.8587 544.427 70.24C544.955 70.6213 545.63 70.812 546.451 70.812C547.067 70.812 547.61 70.6727 548.079 70.394C548.549 70.1153 548.915 69.7193 549.179 69.206C549.267 69.074 549.37 69.0447 549.487 69.118L550.345 69.624C550.463 69.6973 550.492 69.8 550.433 69.932C550.067 70.636 549.517 71.1933 548.783 71.604C548.05 72 547.207 72.198 546.253 72.198C545.212 72.1833 544.339 71.934 543.635 71.45C542.931 70.966 542.425 70.2913 542.117 69.426C541.853 68.722 541.721 67.71 541.721 66.39C541.721 65.774 541.729 65.2753 541.743 64.894C541.773 64.498 541.831 64.146 541.919 63.838C542.169 62.8847 542.667 62.122 543.415 61.55C544.178 60.978 545.095 60.692 546.165 60.692C547.5 60.692 548.527 61.0293 549.245 61.704C549.964 62.3787 550.411 63.332 550.587 64.564ZM546.165 62.056C545.447 62.056 544.845 62.2467 544.361 62.628C543.892 62.9947 543.584 63.4933 543.437 64.124C543.349 64.432 543.291 64.9307 543.261 65.62C543.261 65.6787 543.291 65.708 543.349 65.708H549.047C549.106 65.708 549.135 65.6787 549.135 65.62C549.106 64.96 549.062 64.4907 549.003 64.212C548.842 63.552 548.512 63.0313 548.013 62.65C547.529 62.254 546.913 62.056 546.165 62.056ZM567.472 63.64C567.692 64.344 567.802 65.2753 567.802 66.434C567.802 67.6073 567.707 68.5167 567.516 69.162C567.252 70.1007 566.768 70.8413 566.064 71.384C565.375 71.912 564.502 72.176 563.446 72.176C562.874 72.176 562.346 72.066 561.862 71.846C561.378 71.6113 560.975 71.2813 560.652 70.856C560.623 70.8267 560.594 70.8193 560.564 70.834C560.55 70.834 560.542 70.8487 560.542 70.878V76.048C560.542 76.1947 560.469 76.268 560.322 76.268H559.2C559.054 76.268 558.98 76.1947 558.98 76.048V61.088C558.98 60.9413 559.054 60.868 559.2 60.868H560.322C560.469 60.868 560.542 60.9413 560.542 61.088V62.012C560.542 62.0413 560.55 62.0633 560.564 62.078C560.594 62.078 560.623 62.0633 560.652 62.034C560.975 61.6087 561.371 61.2787 561.84 61.044C562.324 60.8093 562.86 60.692 563.446 60.692C564.473 60.692 565.331 60.956 566.02 61.484C566.724 62.012 567.208 62.7307 567.472 63.64ZM565.734 69.206C565.896 68.8833 566.013 68.524 566.086 68.128C566.174 67.7173 566.218 67.1527 566.218 66.434C566.218 65.7447 566.189 65.2093 566.13 64.828C566.072 64.432 565.969 64.08 565.822 63.772C565.646 63.244 565.331 62.826 564.876 62.518C564.436 62.21 563.908 62.056 563.292 62.056C562.706 62.056 562.214 62.21 561.818 62.518C561.422 62.826 561.129 63.2367 560.938 63.75C560.806 64.0433 560.711 64.388 560.652 64.784C560.594 65.18 560.564 65.73 560.564 66.434C560.564 67.138 560.594 67.6953 560.652 68.106C560.711 68.502 560.814 68.854 560.96 69.162C561.136 69.6607 561.422 70.064 561.818 70.372C562.229 70.6653 562.713 70.812 563.27 70.812C563.857 70.812 564.363 70.6653 564.788 70.372C565.228 70.0787 565.544 69.69 565.734 69.206ZM575.773 60.758C576.257 60.758 576.675 60.8533 577.027 61.044C577.144 61.1027 577.188 61.198 577.159 61.33L576.917 62.408C576.873 62.5547 576.778 62.5987 576.631 62.54C576.382 62.4373 576.096 62.386 575.773 62.386L575.487 62.408C574.724 62.4373 574.094 62.7233 573.595 63.266C573.096 63.794 572.847 64.4687 572.847 65.29V71.78C572.847 71.9267 572.774 72 572.627 72H571.505C571.358 72 571.285 71.9267 571.285 71.78V61.088C571.285 60.9413 571.358 60.868 571.505 60.868H572.627C572.774 60.868 572.847 60.9413 572.847 61.088V62.43C572.847 62.474 572.854 62.5033 572.869 62.518C572.898 62.518 572.92 62.5033 572.935 62.474C573.243 61.9313 573.632 61.5133 574.101 61.22C574.585 60.912 575.142 60.758 575.773 60.758ZM583.757 72.176C582.701 72.176 581.792 71.9047 581.029 71.362C580.266 70.8193 579.738 70.0713 579.445 69.118C579.24 68.4433 579.137 67.5413 579.137 66.412C579.137 65.2827 579.24 64.388 579.445 63.728C579.724 62.7893 580.244 62.0487 581.007 61.506C581.77 60.9633 582.694 60.692 583.779 60.692C584.82 60.692 585.715 60.9633 586.463 61.506C587.226 62.0487 587.746 62.782 588.025 63.706C588.23 64.3367 588.333 65.2387 588.333 66.412C588.333 67.6 588.23 68.502 588.025 69.118C587.746 70.0713 587.226 70.8193 586.463 71.362C585.715 71.9047 584.813 72.176 583.757 72.176ZM583.757 70.812C584.461 70.812 585.062 70.6213 585.561 70.24C586.06 69.844 586.397 69.316 586.573 68.656C586.705 68.128 586.771 67.3873 586.771 66.434C586.771 65.466 586.712 64.7253 586.595 64.212C586.419 63.552 586.074 63.0313 585.561 62.65C585.062 62.254 584.454 62.056 583.735 62.056C583.016 62.056 582.408 62.254 581.909 62.65C581.41 63.0313 581.073 63.552 580.897 64.212C580.78 64.7253 580.721 65.466 580.721 66.434C580.721 67.402 580.78 68.1427 580.897 68.656C581.058 69.316 581.388 69.844 581.887 70.24C582.4 70.6213 583.024 70.812 583.757 70.812ZM592.655 58.844C592.289 58.844 591.988 58.7267 591.753 58.492C591.533 58.2573 591.423 57.964 591.423 57.612C591.423 57.2453 591.533 56.952 591.753 56.732C591.988 56.4973 592.289 56.38 592.655 56.38C593.007 56.38 593.301 56.4973 593.535 56.732C593.77 56.952 593.887 57.2453 593.887 57.612C593.887 57.964 593.77 58.2573 593.535 58.492C593.301 58.7267 593.007 58.844 592.655 58.844ZM589.509 76.576C589.363 76.576 589.289 76.5027 589.289 76.356V75.454C589.289 75.3073 589.363 75.234 589.509 75.234C591.079 75.2193 591.863 74.464 591.863 72.968V61.088C591.863 60.9413 591.937 60.868 592.083 60.868H593.205C593.352 60.868 593.425 60.9413 593.425 61.088V72.968C593.425 74.2147 593.117 75.124 592.501 75.696C591.885 76.268 590.888 76.5613 589.509 76.576ZM606.068 64.564C606.127 64.9747 606.156 65.488 606.156 66.104V66.808C606.156 66.9547 606.083 67.028 605.936 67.028H598.83C598.771 67.028 598.742 67.0573 598.742 67.116C598.771 67.9227 598.815 68.4433 598.874 68.678C599.035 69.338 599.38 69.8587 599.908 70.24C600.436 70.6213 601.111 70.812 601.932 70.812C602.548 70.812 603.091 70.6727 603.56 70.394C604.029 70.1153 604.396 69.7193 604.66 69.206C604.748 69.074 604.851 69.0447 604.968 69.118L605.826 69.624C605.943 69.6973 605.973 69.8 605.914 69.932C605.547 70.636 604.997 71.1933 604.264 71.604C603.531 72 602.687 72.198 601.734 72.198C600.693 72.1833 599.82 71.934 599.116 71.45C598.412 70.966 597.906 70.2913 597.598 69.426C597.334 68.722 597.202 67.71 597.202 66.39C597.202 65.774 597.209 65.2753 597.224 64.894C597.253 64.498 597.312 64.146 597.4 63.838C597.649 62.8847 598.148 62.122 598.896 61.55C599.659 60.978 600.575 60.692 601.646 60.692C602.981 60.692 604.007 61.0293 604.726 61.704C605.445 62.3787 605.892 63.332 606.068 64.564ZM601.646 62.056C600.927 62.056 600.326 62.2467 599.842 62.628C599.373 62.9947 599.065 63.4933 598.918 64.124C598.83 64.432 598.771 64.9307 598.742 65.62C598.742 65.6787 598.771 65.708 598.83 65.708H604.528C604.587 65.708 604.616 65.6787 604.616 65.62C604.587 64.96 604.543 64.4907 604.484 64.212C604.323 63.552 603.993 63.0313 603.494 62.65C603.01 62.254 602.394 62.056 601.646 62.056ZM613.784 72.176C612.728 72.176 611.819 71.9047 611.056 71.362C610.308 70.8047 609.795 70.0567 609.516 69.118C609.326 68.4727 609.23 67.5633 609.23 66.39C609.23 65.334 609.326 64.4393 609.516 63.706C609.78 62.7967 610.294 62.0707 611.056 61.528C611.819 60.9707 612.728 60.692 613.784 60.692C614.855 60.692 615.779 60.9633 616.556 61.506C617.348 62.0487 617.862 62.7233 618.096 63.53C618.17 63.794 618.214 64.014 618.228 64.19V64.234C618.228 64.3367 618.162 64.4027 618.03 64.432L616.93 64.586H616.886C616.784 64.586 616.718 64.52 616.688 64.388L616.622 64.058C616.49 63.5007 616.168 63.0313 615.654 62.65C615.141 62.254 614.518 62.056 613.784 62.056C613.051 62.056 612.435 62.254 611.936 62.65C611.452 63.0313 611.137 63.5447 610.99 64.19C610.858 64.7473 610.792 65.488 610.792 66.412C610.792 67.38 610.858 68.128 610.99 68.656C611.137 69.316 611.452 69.844 611.936 70.24C612.435 70.6213 613.051 70.812 613.784 70.812C614.503 70.812 615.119 70.6287 615.632 70.262C616.16 69.8807 616.49 69.3967 616.622 68.81V68.722L616.644 68.634C616.659 68.4873 616.747 68.4287 616.908 68.458L617.986 68.634C618.133 68.6633 618.199 68.744 618.184 68.876L618.096 69.316C617.876 70.1667 617.37 70.856 616.578 71.384C615.786 71.912 614.855 72.176 613.784 72.176ZM626.326 61.946C626.326 62.0927 626.253 62.166 626.106 62.166H623.62C623.561 62.166 623.532 62.1953 623.532 62.254V68.744C623.532 69.448 623.686 69.9467 623.994 70.24C624.317 70.5187 624.815 70.658 625.49 70.658H626.04C626.187 70.658 626.26 70.7313 626.26 70.878V71.78C626.26 71.9267 626.187 72 626.04 72C625.864 72.0147 625.593 72.022 625.226 72.022C624.17 72.022 623.371 71.824 622.828 71.428C622.285 71.032 622.014 70.2987 622.014 69.228V62.254C622.014 62.1953 621.985 62.166 621.926 62.166H620.584C620.437 62.166 620.364 62.0927 620.364 61.946V61.088C620.364 60.9413 620.437 60.868 620.584 60.868H621.926C621.985 60.868 622.014 60.8387 622.014 60.78V58.228C622.014 58.0813 622.087 58.008 622.234 58.008H623.312C623.459 58.008 623.532 58.0813 623.532 58.228V60.78C623.532 60.8387 623.561 60.868 623.62 60.868H626.106C626.253 60.868 626.326 60.9413 626.326 61.088V61.946ZM633.318 72.11C632.496 72.11 631.763 71.978 631.118 71.714C630.487 71.45 629.996 71.098 629.644 70.658C629.306 70.218 629.138 69.7267 629.138 69.184V68.92C629.138 68.7733 629.211 68.7 629.358 68.7H630.414C630.56 68.7 630.634 68.7733 630.634 68.92V69.096C630.634 69.58 630.883 70.0053 631.382 70.372C631.895 70.724 632.533 70.9 633.296 70.9C634.058 70.9 634.674 70.7313 635.144 70.394C635.613 70.042 635.848 69.602 635.848 69.074C635.848 68.7073 635.723 68.4067 635.474 68.172C635.239 67.9373 634.953 67.754 634.616 67.622C634.293 67.49 633.787 67.3213 633.098 67.116C632.276 66.8813 631.602 66.6467 631.074 66.412C630.546 66.1773 630.098 65.8547 629.732 65.444C629.38 65.0187 629.204 64.4833 629.204 63.838C629.204 62.8993 629.57 62.1513 630.304 61.594C631.037 61.0367 632.005 60.758 633.208 60.758C634.014 60.758 634.726 60.89 635.342 61.154C635.972 61.418 636.456 61.7847 636.794 62.254C637.131 62.7087 637.3 63.222 637.3 63.794V63.86C637.3 64.0067 637.226 64.08 637.08 64.08H636.046C635.899 64.08 635.826 64.0067 635.826 63.86V63.794C635.826 63.2953 635.584 62.8773 635.1 62.54C634.63 62.2027 633.992 62.034 633.186 62.034C632.438 62.034 631.836 62.188 631.382 62.496C630.927 62.7893 630.7 63.2 630.7 63.728C630.7 64.2267 630.92 64.608 631.36 64.872C631.8 65.136 632.482 65.4 633.406 65.664C634.256 65.9133 634.946 66.148 635.474 66.368C636.002 66.588 636.456 66.9107 636.838 67.336C637.219 67.7467 637.41 68.2893 637.41 68.964C637.41 69.9173 637.036 70.68 636.288 71.252C635.54 71.824 634.55 72.11 633.318 72.11Z" fill="white"/>
<defs>
<filter id="filter0_i_119_2402" x="234" y="0" width="266" height="343.254" filterUnits="userSpaceOnUse" color-interpolation-filters="sRGB">
<feFlood flood-opacity="0" result="BackgroundImageFix"/>
<feBlend mode="normal" in="SourceGraphic" in2="BackgroundImageFix" result="shape"/>
<feColorMatrix in="SourceAlpha" type="matrix" values="0 0 0 0 0 0 0 0 0 0 0 0 0 0 0 0 0 0 127 0" result="hardAlpha"/>
<feOffset dx="-24" dy="24"/>
<feGaussianBlur stdDeviation="8"/>
<feComposite in2="hardAlpha" operator="arithmetic" k2="-1" k3="1"/>
<feColorMatrix type="matrix" values="0 0 0 0 0 0 0 0 0 0 0 0 0 0 0 0 0 0 0.32 0"/>
<feBlend mode="normal" in2="shape" result="effect1_innerShadow_119_2402"/>
</filter>
<radialGradient id="paint0_radial_119_2402" cx="0" cy="0" r="1" gradientUnits="userSpaceOnUse" gradientTransform="translate(352 156) rotate(110.973) scale(514.058)">
<stop stop-color="#14A5AE"/>
<stop offset="1" stop-color="#000210" stop-opacity="0"/>
</radialGradient>
<linearGradient id="paint1_linear_119_2402" x1="-17.7778" y1="-7.77777" x2="500" y2="500" gradientUnits="userSpaceOnUse">
<stop stop-color="#14A5AE"/>
<stop offset="1" stop-color="#145F69"/>
</linearGradient>
<linearGradient id="paint2_linear_119_2402" x1="484.973" y1="12.5022" x2="513.554" y2="62.4289" gradientUnits="userSpaceOnUse">
<stop stop-color="#14A5AE"/>
<stop offset="1" stop-color="#145F69"/>
</linearGradient>
</defs>
</svg>
