<svg width="713" height="607" viewBox="0 0 713 607" fill="none" xmlns="http://www.w3.org/2000/svg">
<g filter="url(#filter0_ii_67_2127)">
<ellipse cx="173.5" cy="265.5" rx="149.733" ry="149.403" transform="rotate(90 173.5 265.5)" fill="#030092"/>
<ellipse cx="173.5" cy="265.5" rx="149.733" ry="149.403" transform="rotate(90 173.5 265.5)" fill="url(#paint0_radial_67_2127)"/>
</g>
<path d="M113.171 266.364C113.081 266.455 113.058 266.545 113.103 266.636C113.149 266.727 113.239 266.772 113.375 266.772H131.803C132.03 266.772 132.211 266.863 132.347 267.044C132.529 267.18 132.619 267.361 132.619 267.588V274.184C132.619 274.411 132.529 274.615 132.347 274.796C132.211 274.932 132.03 275 131.803 275H101.203C100.977 275 100.773 274.932 100.591 274.796C100.455 274.615 100.387 274.411 100.387 274.184V267.928C100.387 267.52 100.523 267.18 100.795 266.908C103.017 264.732 105.283 262.375 107.595 259.836C109.907 257.252 111.358 255.643 111.947 255.008C113.217 253.512 114.509 252.084 115.823 250.724C119.949 246.145 122.011 242.745 122.011 240.524C122.011 238.937 121.445 237.645 120.311 236.648C119.178 235.605 117.705 235.084 115.891 235.084C114.078 235.084 112.605 235.605 111.471 236.648C110.338 237.645 109.771 238.983 109.771 240.66V242.36C109.771 242.587 109.681 242.791 109.499 242.972C109.363 243.108 109.182 243.176 108.955 243.176H100.931C100.705 243.176 100.501 243.108 100.319 242.972C100.183 242.791 100.115 242.587 100.115 242.36V239.164C100.251 236.716 101.022 234.563 102.427 232.704C103.833 230.8 105.691 229.349 108.003 228.352C110.361 227.355 112.99 226.856 115.891 226.856C119.11 226.856 121.898 227.468 124.255 228.692C126.658 229.871 128.494 231.48 129.763 233.52C131.078 235.56 131.735 237.827 131.735 240.32C131.735 242.224 131.259 244.173 130.307 246.168C129.355 248.163 127.927 250.316 126.023 252.628C124.618 254.396 123.099 256.141 121.467 257.864C119.835 259.587 117.41 262.08 114.191 265.344L113.171 266.364ZM152.022 266.364C151.931 266.455 151.909 266.545 151.954 266.636C151.999 266.727 152.09 266.772 152.226 266.772H170.654C170.881 266.772 171.062 266.863 171.198 267.044C171.379 267.18 171.47 267.361 171.47 267.588V274.184C171.47 274.411 171.379 274.615 171.198 274.796C171.062 274.932 170.881 275 170.654 275H140.054C139.827 275 139.623 274.932 139.442 274.796C139.306 274.615 139.238 274.411 139.238 274.184V267.928C139.238 267.52 139.374 267.18 139.646 266.908C141.867 264.732 144.134 262.375 146.446 259.836C148.758 257.252 150.209 255.643 150.798 255.008C152.067 253.512 153.359 252.084 154.674 250.724C158.799 246.145 160.862 242.745 160.862 240.524C160.862 238.937 160.295 237.645 159.162 236.648C158.029 235.605 156.555 235.084 154.742 235.084C152.929 235.084 151.455 235.605 150.322 236.648C149.189 237.645 148.622 238.983 148.622 240.66V242.36C148.622 242.587 148.531 242.791 148.35 242.972C148.214 243.108 148.033 243.176 147.806 243.176H139.782C139.555 243.176 139.351 243.108 139.17 242.972C139.034 242.791 138.966 242.587 138.966 242.36V239.164C139.102 236.716 139.873 234.563 141.278 232.704C142.683 230.8 144.542 229.349 146.854 228.352C149.211 227.355 151.841 226.856 154.742 226.856C157.961 226.856 160.749 227.468 163.106 228.692C165.509 229.871 167.345 231.48 168.614 233.52C169.929 235.56 170.586 237.827 170.586 240.32C170.586 242.224 170.11 244.173 169.158 246.168C168.206 248.163 166.778 250.316 164.874 252.628C163.469 254.396 161.95 256.141 160.318 257.864C158.686 259.587 156.261 262.08 153.042 265.344L152.022 266.364ZM190.873 266.364C190.782 266.455 190.76 266.545 190.805 266.636C190.85 266.727 190.941 266.772 191.077 266.772H209.505C209.732 266.772 209.913 266.863 210.049 267.044C210.23 267.18 210.321 267.361 210.321 267.588V274.184C210.321 274.411 210.23 274.615 210.049 274.796C209.913 274.932 209.732 275 209.505 275H178.905C178.678 275 178.474 274.932 178.293 274.796C178.157 274.615 178.089 274.411 178.089 274.184V267.928C178.089 267.52 178.225 267.18 178.497 266.908C180.718 264.732 182.985 262.375 185.297 259.836C187.609 257.252 189.06 255.643 189.649 255.008C190.918 253.512 192.21 252.084 193.525 250.724C197.65 246.145 199.713 242.745 199.713 240.524C199.713 238.937 199.146 237.645 198.013 236.648C196.88 235.605 195.406 235.084 193.593 235.084C191.78 235.084 190.306 235.605 189.173 236.648C188.04 237.645 187.473 238.983 187.473 240.66V242.36C187.473 242.587 187.382 242.791 187.201 242.972C187.065 243.108 186.884 243.176 186.657 243.176H178.633C178.406 243.176 178.202 243.108 178.021 242.972C177.885 242.791 177.817 242.587 177.817 242.36V239.164C177.953 236.716 178.724 234.563 180.129 232.704C181.534 230.8 183.393 229.349 185.705 228.352C188.062 227.355 190.692 226.856 193.593 226.856C196.812 226.856 199.6 227.468 201.957 228.692C204.36 229.871 206.196 231.48 207.465 233.52C208.78 235.56 209.437 237.827 209.437 240.32C209.437 242.224 208.961 244.173 208.009 246.168C207.057 248.163 205.629 250.316 203.725 252.628C202.32 254.396 200.801 256.141 199.169 257.864C197.537 259.587 195.112 262.08 191.893 265.344L190.873 266.364ZM245.386 252.288C246.293 254.373 246.746 256.776 246.746 259.496C246.746 261.944 246.338 264.211 245.522 266.296C244.434 269.197 242.598 271.464 240.014 273.096C237.475 274.728 234.461 275.544 230.97 275.544C227.525 275.544 224.487 274.683 221.858 272.96C219.274 271.237 217.415 268.903 216.282 265.956C215.647 264.188 215.285 262.284 215.194 260.244C215.194 259.7 215.466 259.428 216.01 259.428H224.034C224.578 259.428 224.85 259.7 224.85 260.244C225.031 261.74 225.281 262.851 225.598 263.576C226.006 264.755 226.663 265.684 227.57 266.364C228.522 266.999 229.633 267.316 230.902 267.316C233.441 267.316 235.186 266.205 236.138 263.984C236.773 262.624 237.09 261.037 237.09 259.224C237.09 257.093 236.75 255.348 236.07 253.988C235.027 251.857 233.282 250.792 230.834 250.792C230.335 250.792 229.814 250.951 229.27 251.268C228.726 251.54 228.069 251.948 227.298 252.492C227.117 252.628 226.935 252.696 226.754 252.696C226.482 252.696 226.278 252.56 226.142 252.288L222.13 246.644C222.039 246.508 221.994 246.349 221.994 246.168C221.994 245.896 222.085 245.669 222.266 245.488L233.078 236.036C233.169 235.945 233.191 235.855 233.146 235.764C233.146 235.673 233.078 235.628 232.942 235.628H216.962C216.735 235.628 216.531 235.56 216.35 235.424C216.214 235.243 216.146 235.039 216.146 234.812V228.216C216.146 227.989 216.214 227.808 216.35 227.672C216.531 227.491 216.735 227.4 216.962 227.4H245.318C245.545 227.4 245.726 227.491 245.862 227.672C246.043 227.808 246.134 227.989 246.134 228.216V235.696C246.134 236.059 245.975 236.399 245.658 236.716L236.75 244.876C236.659 244.967 236.614 245.057 236.614 245.148C236.659 245.239 236.773 245.284 236.954 245.284C240.898 246.055 243.709 248.389 245.386 252.288Z" fill="white"/>
<path d="M121.935 317C121.789 317 121.715 316.927 121.715 316.78V301.82C121.715 301.673 121.789 301.6 121.935 301.6H123.057C123.204 301.6 123.277 301.673 123.277 301.82V315.548C123.277 315.607 123.307 315.636 123.365 315.636H131.131C131.278 315.636 131.351 315.709 131.351 315.856V316.78C131.351 316.927 131.278 317 131.131 317H121.935ZM142.047 309.564C142.106 309.975 142.135 310.488 142.135 311.104V311.808C142.135 311.955 142.062 312.028 141.915 312.028H134.809C134.751 312.028 134.721 312.057 134.721 312.116C134.751 312.923 134.795 313.443 134.853 313.678C135.015 314.338 135.359 314.859 135.887 315.24C136.415 315.621 137.09 315.812 137.911 315.812C138.527 315.812 139.07 315.673 139.539 315.394C140.009 315.115 140.375 314.719 140.639 314.206C140.727 314.074 140.83 314.045 140.947 314.118L141.805 314.624C141.923 314.697 141.952 314.8 141.893 314.932C141.527 315.636 140.977 316.193 140.243 316.604C139.51 317 138.667 317.198 137.713 317.198C136.672 317.183 135.799 316.934 135.095 316.45C134.391 315.966 133.885 315.291 133.577 314.426C133.313 313.722 133.181 312.71 133.181 311.39C133.181 310.774 133.189 310.275 133.203 309.894C133.233 309.498 133.291 309.146 133.379 308.838C133.629 307.885 134.127 307.122 134.875 306.55C135.638 305.978 136.555 305.692 137.625 305.692C138.96 305.692 139.987 306.029 140.705 306.704C141.424 307.379 141.871 308.332 142.047 309.564ZM137.625 307.056C136.907 307.056 136.305 307.247 135.821 307.628C135.352 307.995 135.044 308.493 134.897 309.124C134.809 309.432 134.751 309.931 134.721 310.62C134.721 310.679 134.751 310.708 134.809 310.708H140.507C140.566 310.708 140.595 310.679 140.595 310.62C140.566 309.96 140.522 309.491 140.463 309.212C140.302 308.552 139.972 308.031 139.473 307.65C138.989 307.254 138.373 307.056 137.625 307.056ZM149.091 302.964C148.285 302.964 147.735 303.147 147.441 303.514C147.148 303.866 147.001 304.475 147.001 305.34V305.78C147.001 305.839 147.031 305.868 147.089 305.868H149.553C149.7 305.868 149.773 305.941 149.773 306.088V307.078C149.773 307.225 149.7 307.298 149.553 307.298H147.089C147.031 307.298 147.001 307.327 147.001 307.386V316.78C147.001 316.927 146.928 317 146.781 317H145.681C145.535 317 145.461 316.927 145.461 316.78V307.386C145.461 307.327 145.432 307.298 145.373 307.298H143.899C143.753 307.298 143.679 307.225 143.679 307.078V306.088C143.679 305.941 143.753 305.868 143.899 305.868H145.373C145.432 305.868 145.461 305.839 145.461 305.78V305.252C145.461 304.343 145.564 303.631 145.769 303.118C145.975 302.59 146.327 302.209 146.825 301.974C147.339 301.725 148.05 301.6 148.959 301.6H149.597C149.744 301.6 149.817 301.673 149.817 301.82V302.744C149.817 302.891 149.744 302.964 149.597 302.964H149.091ZM157.127 306.946C157.127 307.093 157.054 307.166 156.907 307.166H154.421C154.362 307.166 154.333 307.195 154.333 307.254V313.744C154.333 314.448 154.487 314.947 154.795 315.24C155.118 315.519 155.616 315.658 156.291 315.658H156.841C156.988 315.658 157.061 315.731 157.061 315.878V316.78C157.061 316.927 156.988 317 156.841 317C156.665 317.015 156.394 317.022 156.027 317.022C154.971 317.022 154.172 316.824 153.629 316.428C153.086 316.032 152.815 315.299 152.815 314.228V307.254C152.815 307.195 152.786 307.166 152.727 307.166H151.385C151.238 307.166 151.165 307.093 151.165 306.946V306.088C151.165 305.941 151.238 305.868 151.385 305.868H152.727C152.786 305.868 152.815 305.839 152.815 305.78V303.228C152.815 303.081 152.888 303.008 153.035 303.008H154.113C154.26 303.008 154.333 303.081 154.333 303.228V305.78C154.333 305.839 154.362 305.868 154.421 305.868H156.907C157.054 305.868 157.127 305.941 157.127 306.088V306.946ZM168.745 306.946C168.745 307.093 168.672 307.166 168.525 307.166H166.039C165.98 307.166 165.951 307.195 165.951 307.254V313.744C165.951 314.448 166.105 314.947 166.413 315.24C166.736 315.519 167.234 315.658 167.909 315.658H168.459C168.606 315.658 168.679 315.731 168.679 315.878V316.78C168.679 316.927 168.606 317 168.459 317C168.283 317.015 168.012 317.022 167.645 317.022C166.589 317.022 165.79 316.824 165.247 316.428C164.704 316.032 164.433 315.299 164.433 314.228V307.254C164.433 307.195 164.404 307.166 164.345 307.166H163.003C162.856 307.166 162.783 307.093 162.783 306.946V306.088C162.783 305.941 162.856 305.868 163.003 305.868H164.345C164.404 305.868 164.433 305.839 164.433 305.78V303.228C164.433 303.081 164.506 303.008 164.653 303.008H165.731C165.878 303.008 165.951 303.081 165.951 303.228V305.78C165.951 305.839 165.98 305.868 166.039 305.868H168.525C168.672 305.868 168.745 305.941 168.745 306.088V306.946ZM175.288 317.176C174.232 317.176 173.323 316.905 172.56 316.362C171.798 315.819 171.27 315.071 170.976 314.118C170.771 313.443 170.668 312.541 170.668 311.412C170.668 310.283 170.771 309.388 170.976 308.728C171.255 307.789 171.776 307.049 172.538 306.506C173.301 305.963 174.225 305.692 175.31 305.692C176.352 305.692 177.246 305.963 177.994 306.506C178.757 307.049 179.278 307.782 179.556 308.706C179.762 309.337 179.864 310.239 179.864 311.412C179.864 312.6 179.762 313.502 179.556 314.118C179.278 315.071 178.757 315.819 177.994 316.362C177.246 316.905 176.344 317.176 175.288 317.176ZM175.288 315.812C175.992 315.812 176.594 315.621 177.092 315.24C177.591 314.844 177.928 314.316 178.104 313.656C178.236 313.128 178.302 312.387 178.302 311.434C178.302 310.466 178.244 309.725 178.126 309.212C177.95 308.552 177.606 308.031 177.092 307.65C176.594 307.254 175.985 307.056 175.266 307.056C174.548 307.056 173.939 307.254 173.44 307.65C172.942 308.031 172.604 308.552 172.428 309.212C172.311 309.725 172.252 310.466 172.252 311.434C172.252 312.402 172.311 313.143 172.428 313.656C172.59 314.316 172.92 314.844 173.418 315.24C173.932 315.621 174.555 315.812 175.288 315.812ZM197.899 305.714C198.999 305.714 199.864 306.044 200.495 306.704C201.14 307.364 201.463 308.266 201.463 309.41V316.78C201.463 316.927 201.39 317 201.243 317H200.143C199.996 317 199.923 316.927 199.923 316.78V309.718C199.923 308.911 199.688 308.273 199.219 307.804C198.764 307.32 198.163 307.078 197.415 307.078C196.638 307.078 196.007 307.313 195.523 307.782C195.054 308.251 194.819 308.882 194.819 309.674V316.78C194.819 316.927 194.746 317 194.599 317H193.477C193.33 317 193.257 316.927 193.257 316.78V309.718C193.257 308.911 193.03 308.273 192.575 307.804C192.12 307.32 191.512 307.078 190.749 307.078C189.972 307.078 189.348 307.313 188.879 307.782C188.424 308.251 188.197 308.882 188.197 309.674V316.78C188.197 316.927 188.124 317 187.977 317H186.855C186.708 317 186.635 316.927 186.635 316.78V306.088C186.635 305.941 186.708 305.868 186.855 305.868H187.977C188.124 305.868 188.197 305.941 188.197 306.088V306.968C188.197 306.997 188.204 307.019 188.219 307.034C188.248 307.034 188.278 307.019 188.307 306.99C188.63 306.565 189.04 306.249 189.539 306.044C190.052 305.824 190.617 305.714 191.233 305.714C191.996 305.714 192.648 305.868 193.191 306.176C193.734 306.484 194.144 306.931 194.423 307.518C194.452 307.591 194.489 307.591 194.533 307.518C194.856 306.917 195.31 306.469 195.897 306.176C196.484 305.868 197.151 305.714 197.899 305.714ZM205.488 303.844C205.136 303.844 204.843 303.727 204.608 303.492C204.374 303.257 204.256 302.964 204.256 302.612C204.256 302.245 204.374 301.952 204.608 301.732C204.843 301.497 205.136 301.38 205.488 301.38C205.84 301.38 206.134 301.497 206.368 301.732C206.603 301.952 206.72 302.245 206.72 302.612C206.72 302.964 206.603 303.257 206.368 303.492C206.134 303.727 205.84 303.844 205.488 303.844ZM204.872 316.978C204.726 316.978 204.652 316.905 204.652 316.758V306.066C204.652 305.919 204.726 305.846 204.872 305.846H205.994C206.141 305.846 206.214 305.919 206.214 306.066V316.758C206.214 316.905 206.141 316.978 205.994 316.978H204.872ZM214.26 305.714C215.433 305.714 216.364 306.059 217.054 306.748C217.758 307.437 218.11 308.361 218.11 309.52V316.78C218.11 316.927 218.036 317 217.89 317H216.768C216.621 317 216.548 316.927 216.548 316.78V309.828C216.548 309.021 216.298 308.361 215.8 307.848C215.316 307.335 214.685 307.078 213.908 307.078C213.101 307.078 212.448 307.327 211.95 307.826C211.451 308.325 211.202 308.977 211.202 309.784V316.78C211.202 316.927 211.128 317 210.982 317H209.86C209.713 317 209.64 316.927 209.64 316.78V306.088C209.64 305.941 209.713 305.868 209.86 305.868H210.982C211.128 305.868 211.202 305.941 211.202 306.088V307.034C211.202 307.063 211.209 307.085 211.224 307.1C211.253 307.115 211.275 307.107 211.29 307.078C211.935 306.169 212.925 305.714 214.26 305.714ZM226.093 306.946C226.093 307.093 226.02 307.166 225.873 307.166H223.387C223.328 307.166 223.299 307.195 223.299 307.254V313.744C223.299 314.448 223.453 314.947 223.761 315.24C224.084 315.519 224.582 315.658 225.257 315.658H225.807C225.954 315.658 226.027 315.731 226.027 315.878V316.78C226.027 316.927 225.954 317 225.807 317C225.631 317.015 225.36 317.022 224.993 317.022C223.937 317.022 223.138 316.824 222.595 316.428C222.052 316.032 221.781 315.299 221.781 314.228V307.254C221.781 307.195 221.752 307.166 221.693 307.166H220.351C220.204 307.166 220.131 307.093 220.131 306.946V306.088C220.131 305.941 220.204 305.868 220.351 305.868H221.693C221.752 305.868 221.781 305.839 221.781 305.78V303.228C221.781 303.081 221.854 303.008 222.001 303.008H223.079C223.226 303.008 223.299 303.081 223.299 303.228V305.78C223.299 305.839 223.328 305.868 223.387 305.868H225.873C226.02 305.868 226.093 305.941 226.093 306.088V306.946Z" fill="#8B8ACA"/>
<g filter="url(#filter1_ii_67_2127)">
<ellipse cx="316" cy="494" rx="113" ry="113" transform="rotate(90 316 494)" fill="#030092"/>
<ellipse cx="316" cy="494" rx="113" ry="113" transform="rotate(90 316 494)" fill="url(#paint1_radial_67_2127)"/>
</g>
<path d="M233.748 537C233.602 537 233.528 536.927 233.528 536.78V521.82C233.528 521.673 233.602 521.6 233.748 521.6H234.87C235.017 521.6 235.09 521.673 235.09 521.82V536.78C235.09 536.927 235.017 537 234.87 537H233.748ZM243.508 526.946C243.508 527.093 243.434 527.166 243.288 527.166H240.802C240.743 527.166 240.714 527.195 240.714 527.254V533.744C240.714 534.448 240.868 534.947 241.176 535.24C241.498 535.519 241.997 535.658 242.672 535.658H243.222C243.368 535.658 243.442 535.731 243.442 535.878V536.78C243.442 536.927 243.368 537 243.222 537C243.046 537.015 242.774 537.022 242.408 537.022C241.352 537.022 240.552 536.824 240.01 536.428C239.467 536.032 239.196 535.299 239.196 534.228V527.254C239.196 527.195 239.166 527.166 239.108 527.166H237.766C237.619 527.166 237.546 527.093 237.546 526.946V526.088C237.546 525.941 237.619 525.868 237.766 525.868H239.108C239.166 525.868 239.196 525.839 239.196 525.78V523.228C239.196 523.081 239.269 523.008 239.416 523.008H240.494C240.64 523.008 240.714 523.081 240.714 523.228V525.78C240.714 525.839 240.743 525.868 240.802 525.868H243.288C243.434 525.868 243.508 525.941 243.508 526.088V526.946ZM254.341 529.564C254.4 529.975 254.429 530.488 254.429 531.104V531.808C254.429 531.955 254.356 532.028 254.209 532.028H247.103C247.044 532.028 247.015 532.057 247.015 532.116C247.044 532.923 247.088 533.443 247.147 533.678C247.308 534.338 247.653 534.859 248.181 535.24C248.709 535.621 249.384 535.812 250.205 535.812C250.821 535.812 251.364 535.673 251.833 535.394C252.302 535.115 252.669 534.719 252.933 534.206C253.021 534.074 253.124 534.045 253.241 534.118L254.099 534.624C254.216 534.697 254.246 534.8 254.187 534.932C253.82 535.636 253.27 536.193 252.537 536.604C251.804 537 250.96 537.198 250.007 537.198C248.966 537.183 248.093 536.934 247.389 536.45C246.685 535.966 246.179 535.291 245.871 534.426C245.607 533.722 245.475 532.71 245.475 531.39C245.475 530.774 245.482 530.275 245.497 529.894C245.526 529.498 245.585 529.146 245.673 528.838C245.922 527.885 246.421 527.122 247.169 526.55C247.932 525.978 248.848 525.692 249.919 525.692C251.254 525.692 252.28 526.029 252.999 526.704C253.718 527.379 254.165 528.332 254.341 529.564ZM249.919 527.056C249.2 527.056 248.599 527.247 248.115 527.628C247.646 527.995 247.338 528.493 247.191 529.124C247.103 529.432 247.044 529.931 247.015 530.62C247.015 530.679 247.044 530.708 247.103 530.708H252.801C252.86 530.708 252.889 530.679 252.889 530.62C252.86 529.96 252.816 529.491 252.757 529.212C252.596 528.552 252.266 528.031 251.767 527.65C251.283 527.254 250.667 527.056 249.919 527.056ZM268.4 525.714C269.5 525.714 270.365 526.044 270.996 526.704C271.641 527.364 271.964 528.266 271.964 529.41V536.78C271.964 536.927 271.89 537 271.744 537H270.644C270.497 537 270.424 536.927 270.424 536.78V529.718C270.424 528.911 270.189 528.273 269.72 527.804C269.265 527.32 268.664 527.078 267.916 527.078C267.138 527.078 266.508 527.313 266.024 527.782C265.554 528.251 265.32 528.882 265.32 529.674V536.78C265.32 536.927 265.246 537 265.1 537H263.978C263.831 537 263.758 536.927 263.758 536.78V529.718C263.758 528.911 263.53 528.273 263.076 527.804C262.621 527.32 262.012 527.078 261.25 527.078C260.472 527.078 259.849 527.313 259.38 527.782C258.925 528.251 258.698 528.882 258.698 529.674V536.78C258.698 536.927 258.624 537 258.478 537H257.356C257.209 537 257.136 536.927 257.136 536.78V526.088C257.136 525.941 257.209 525.868 257.356 525.868H258.478C258.624 525.868 258.698 525.941 258.698 526.088V526.968C258.698 526.997 258.705 527.019 258.72 527.034C258.749 527.034 258.778 527.019 258.808 526.99C259.13 526.565 259.541 526.249 260.04 526.044C260.553 525.824 261.118 525.714 261.734 525.714C262.496 525.714 263.149 525.868 263.692 526.176C264.234 526.484 264.645 526.931 264.924 527.518C264.953 527.591 264.99 527.591 265.034 527.518C265.356 526.917 265.811 526.469 266.398 526.176C266.984 525.868 267.652 525.714 268.4 525.714ZM278.585 537.11C277.764 537.11 277.03 536.978 276.385 536.714C275.754 536.45 275.263 536.098 274.911 535.658C274.574 535.218 274.405 534.727 274.405 534.184V533.92C274.405 533.773 274.478 533.7 274.625 533.7H275.681C275.828 533.7 275.901 533.773 275.901 533.92V534.096C275.901 534.58 276.15 535.005 276.649 535.372C277.162 535.724 277.8 535.9 278.563 535.9C279.326 535.9 279.942 535.731 280.411 535.394C280.88 535.042 281.115 534.602 281.115 534.074C281.115 533.707 280.99 533.407 280.741 533.172C280.506 532.937 280.22 532.754 279.883 532.622C279.56 532.49 279.054 532.321 278.365 532.116C277.544 531.881 276.869 531.647 276.341 531.412C275.813 531.177 275.366 530.855 274.999 530.444C274.647 530.019 274.471 529.483 274.471 528.838C274.471 527.899 274.838 527.151 275.571 526.594C276.304 526.037 277.272 525.758 278.475 525.758C279.282 525.758 279.993 525.89 280.609 526.154C281.24 526.418 281.724 526.785 282.061 527.254C282.398 527.709 282.567 528.222 282.567 528.794V528.86C282.567 529.007 282.494 529.08 282.347 529.08H281.313C281.166 529.08 281.093 529.007 281.093 528.86V528.794C281.093 528.295 280.851 527.877 280.367 527.54C279.898 527.203 279.26 527.034 278.453 527.034C277.705 527.034 277.104 527.188 276.649 527.496C276.194 527.789 275.967 528.2 275.967 528.728C275.967 529.227 276.187 529.608 276.627 529.872C277.067 530.136 277.749 530.4 278.673 530.664C279.524 530.913 280.213 531.148 280.741 531.368C281.269 531.588 281.724 531.911 282.105 532.336C282.486 532.747 282.677 533.289 282.677 533.964C282.677 534.917 282.303 535.68 281.555 536.252C280.807 536.824 279.817 537.11 278.585 537.11ZM290.185 523.844C289.833 523.844 289.54 523.727 289.305 523.492C289.07 523.257 288.953 522.964 288.953 522.612C288.953 522.245 289.07 521.952 289.305 521.732C289.54 521.497 289.833 521.38 290.185 521.38C290.537 521.38 290.83 521.497 291.065 521.732C291.3 521.952 291.417 522.245 291.417 522.612C291.417 522.964 291.3 523.257 291.065 523.492C290.83 523.727 290.537 523.844 290.185 523.844ZM289.569 536.978C289.422 536.978 289.349 536.905 289.349 536.758V526.066C289.349 525.919 289.422 525.846 289.569 525.846H290.691C290.838 525.846 290.911 525.919 290.911 526.066V536.758C290.911 536.905 290.838 536.978 290.691 536.978H289.569ZM298.956 525.714C300.13 525.714 301.061 526.059 301.75 526.748C302.454 527.437 302.806 528.361 302.806 529.52V536.78C302.806 536.927 302.733 537 302.586 537H301.464C301.318 537 301.244 536.927 301.244 536.78V529.828C301.244 529.021 300.995 528.361 300.496 527.848C300.012 527.335 299.382 527.078 298.604 527.078C297.798 527.078 297.145 527.327 296.646 527.826C296.148 528.325 295.898 528.977 295.898 529.784V536.78C295.898 536.927 295.825 537 295.678 537H294.556C294.41 537 294.336 536.927 294.336 536.78V526.088C294.336 525.941 294.41 525.868 294.556 525.868H295.678C295.825 525.868 295.898 525.941 295.898 526.088V527.034C295.898 527.063 295.906 527.085 295.92 527.1C295.95 527.115 295.972 527.107 295.986 527.078C296.632 526.169 297.622 525.714 298.956 525.714ZM314.794 537.198C313.767 537.198 312.865 537 312.088 536.604C311.311 536.193 310.702 535.621 310.262 534.888C309.837 534.14 309.624 533.282 309.624 532.314V526.264C309.624 525.311 309.837 524.467 310.262 523.734C310.702 523.001 311.311 522.436 312.088 522.04C312.865 521.629 313.767 521.424 314.794 521.424C315.821 521.424 316.723 521.622 317.5 522.018C318.277 522.414 318.879 522.971 319.304 523.69C319.744 524.409 319.964 525.237 319.964 526.176C319.964 526.249 319.942 526.308 319.898 526.352C319.854 526.396 319.803 526.418 319.744 526.418L318.622 526.484C318.475 526.484 318.402 526.418 318.402 526.286V526.22C318.402 525.179 318.072 524.35 317.412 523.734C316.752 523.103 315.879 522.788 314.794 522.788C313.709 522.788 312.836 523.103 312.176 523.734C311.516 524.365 311.186 525.193 311.186 526.22V532.38C311.186 533.407 311.516 534.235 312.176 534.866C312.836 535.497 313.709 535.812 314.794 535.812C315.879 535.812 316.752 535.504 317.412 534.888C318.072 534.257 318.402 533.421 318.402 532.38V532.336C318.402 532.204 318.475 532.138 318.622 532.138L319.744 532.204C319.891 532.204 319.964 532.27 319.964 532.402C319.964 533.355 319.744 534.199 319.304 534.932C318.879 535.651 318.277 536.208 317.5 536.604C316.723 537 315.821 537.198 314.794 537.198ZM326.988 537.176C325.932 537.176 325.023 536.905 324.26 536.362C323.497 535.819 322.969 535.071 322.676 534.118C322.471 533.443 322.368 532.541 322.368 531.412C322.368 530.283 322.471 529.388 322.676 528.728C322.955 527.789 323.475 527.049 324.238 526.506C325.001 525.963 325.925 525.692 327.01 525.692C328.051 525.692 328.946 525.963 329.694 526.506C330.457 527.049 330.977 527.782 331.256 528.706C331.461 529.337 331.564 530.239 331.564 531.412C331.564 532.6 331.461 533.502 331.256 534.118C330.977 535.071 330.457 535.819 329.694 536.362C328.946 536.905 328.044 537.176 326.988 537.176ZM326.988 535.812C327.692 535.812 328.293 535.621 328.792 535.24C329.291 534.844 329.628 534.316 329.804 533.656C329.936 533.128 330.002 532.387 330.002 531.434C330.002 530.466 329.943 529.725 329.826 529.212C329.65 528.552 329.305 528.031 328.792 527.65C328.293 527.254 327.685 527.056 326.966 527.056C326.247 527.056 325.639 527.254 325.14 527.65C324.641 528.031 324.304 528.552 324.128 529.212C324.011 529.725 323.952 530.466 323.952 531.434C323.952 532.402 324.011 533.143 324.128 533.656C324.289 534.316 324.619 534.844 325.118 535.24C325.631 535.621 326.255 535.812 326.988 535.812ZM334.55 537C334.403 537 334.33 536.927 334.33 536.78V521.82C334.33 521.673 334.403 521.6 334.55 521.6H335.672C335.819 521.6 335.892 521.673 335.892 521.82V536.78C335.892 536.927 335.819 537 335.672 537H334.55ZM339.22 537C339.074 537 339 536.927 339 536.78V521.82C339 521.673 339.074 521.6 339.22 521.6H340.342C340.489 521.6 340.562 521.673 340.562 521.82V536.78C340.562 536.927 340.489 537 340.342 537H339.22ZM352.207 529.564C352.265 529.975 352.295 530.488 352.295 531.104V531.808C352.295 531.955 352.221 532.028 352.075 532.028H344.969C344.91 532.028 344.881 532.057 344.881 532.116C344.91 532.923 344.954 533.443 345.013 533.678C345.174 534.338 345.519 534.859 346.047 535.24C346.575 535.621 347.249 535.812 348.071 535.812C348.687 535.812 349.229 535.673 349.699 535.394C350.168 535.115 350.535 534.719 350.799 534.206C350.887 534.074 350.989 534.045 351.107 534.118L351.965 534.624C352.082 534.697 352.111 534.8 352.053 534.932C351.686 535.636 351.136 536.193 350.403 536.604C349.669 537 348.826 537.198 347.873 537.198C346.831 537.183 345.959 536.934 345.255 536.45C344.551 535.966 344.045 535.291 343.737 534.426C343.473 533.722 343.341 532.71 343.341 531.39C343.341 530.774 343.348 530.275 343.363 529.894C343.392 529.498 343.451 529.146 343.539 528.838C343.788 527.885 344.287 527.122 345.035 526.55C345.797 525.978 346.714 525.692 347.785 525.692C349.119 525.692 350.146 526.029 350.865 526.704C351.583 527.379 352.031 528.332 352.207 529.564ZM347.785 527.056C347.066 527.056 346.465 527.247 345.981 527.628C345.511 527.995 345.203 528.493 345.057 529.124C344.969 529.432 344.91 529.931 344.881 530.62C344.881 530.679 344.91 530.708 344.969 530.708H350.667C350.725 530.708 350.755 530.679 350.755 530.62C350.725 529.96 350.681 529.491 350.623 529.212C350.461 528.552 350.131 528.031 349.633 527.65C349.149 527.254 348.533 527.056 347.785 527.056ZM359.203 537.176C358.147 537.176 357.238 536.905 356.475 536.362C355.727 535.805 355.214 535.057 354.935 534.118C354.745 533.473 354.649 532.563 354.649 531.39C354.649 530.334 354.745 529.439 354.935 528.706C355.199 527.797 355.713 527.071 356.475 526.528C357.238 525.971 358.147 525.692 359.203 525.692C360.274 525.692 361.198 525.963 361.975 526.506C362.767 527.049 363.281 527.723 363.515 528.53C363.589 528.794 363.633 529.014 363.647 529.19V529.234C363.647 529.337 363.581 529.403 363.449 529.432L362.349 529.586H362.305C362.203 529.586 362.137 529.52 362.107 529.388L362.041 529.058C361.909 528.501 361.587 528.031 361.073 527.65C360.56 527.254 359.937 527.056 359.203 527.056C358.47 527.056 357.854 527.254 357.355 527.65C356.871 528.031 356.556 528.545 356.409 529.19C356.277 529.747 356.211 530.488 356.211 531.412C356.211 532.38 356.277 533.128 356.409 533.656C356.556 534.316 356.871 534.844 357.355 535.24C357.854 535.621 358.47 535.812 359.203 535.812C359.922 535.812 360.538 535.629 361.051 535.262C361.579 534.881 361.909 534.397 362.041 533.81V533.722L362.063 533.634C362.078 533.487 362.166 533.429 362.327 533.458L363.405 533.634C363.552 533.663 363.618 533.744 363.603 533.876L363.515 534.316C363.295 535.167 362.789 535.856 361.997 536.384C361.205 536.912 360.274 537.176 359.203 537.176ZM371.025 526.946C371.025 527.093 370.952 527.166 370.805 527.166H368.319C368.26 527.166 368.231 527.195 368.231 527.254V533.744C368.231 534.448 368.385 534.947 368.693 535.24C369.016 535.519 369.514 535.658 370.189 535.658H370.739C370.886 535.658 370.959 535.731 370.959 535.878V536.78C370.959 536.927 370.886 537 370.739 537C370.563 537.015 370.292 537.022 369.925 537.022C368.869 537.022 368.07 536.824 367.527 536.428C366.984 536.032 366.713 535.299 366.713 534.228V527.254C366.713 527.195 366.684 527.166 366.625 527.166H365.283C365.136 527.166 365.063 527.093 365.063 526.946V526.088C365.063 525.941 365.136 525.868 365.283 525.868H366.625C366.684 525.868 366.713 525.839 366.713 525.78V523.228C366.713 523.081 366.786 523.008 366.933 523.008H368.011C368.158 523.008 368.231 523.081 368.231 523.228V525.78C368.231 525.839 368.26 525.868 368.319 525.868H370.805C370.952 525.868 371.025 525.941 371.025 526.088V526.946ZM374.701 523.844C374.349 523.844 374.055 523.727 373.821 523.492C373.586 523.257 373.469 522.964 373.469 522.612C373.469 522.245 373.586 521.952 373.821 521.732C374.055 521.497 374.349 521.38 374.701 521.38C375.053 521.38 375.346 521.497 375.581 521.732C375.815 521.952 375.933 522.245 375.933 522.612C375.933 522.964 375.815 523.257 375.581 523.492C375.346 523.727 375.053 523.844 374.701 523.844ZM374.085 536.978C373.938 536.978 373.865 536.905 373.865 536.758V526.066C373.865 525.919 373.938 525.846 374.085 525.846H375.207C375.353 525.846 375.427 525.919 375.427 526.066V536.758C375.427 536.905 375.353 536.978 375.207 536.978H374.085ZM383.098 537.176C382.042 537.176 381.133 536.905 380.37 536.362C379.607 535.819 379.079 535.071 378.786 534.118C378.581 533.443 378.478 532.541 378.478 531.412C378.478 530.283 378.581 529.388 378.786 528.728C379.065 527.789 379.585 527.049 380.348 526.506C381.111 525.963 382.035 525.692 383.12 525.692C384.161 525.692 385.056 525.963 385.804 526.506C386.567 527.049 387.087 527.782 387.366 528.706C387.571 529.337 387.674 530.239 387.674 531.412C387.674 532.6 387.571 533.502 387.366 534.118C387.087 535.071 386.567 535.819 385.804 536.362C385.056 536.905 384.154 537.176 383.098 537.176ZM383.098 535.812C383.802 535.812 384.403 535.621 384.902 535.24C385.401 534.844 385.738 534.316 385.914 533.656C386.046 533.128 386.112 532.387 386.112 531.434C386.112 530.466 386.053 529.725 385.936 529.212C385.76 528.552 385.415 528.031 384.902 527.65C384.403 527.254 383.795 527.056 383.076 527.056C382.357 527.056 381.749 527.254 381.25 527.65C380.751 528.031 380.414 528.552 380.238 529.212C380.121 529.725 380.062 530.466 380.062 531.434C380.062 532.402 380.121 533.143 380.238 533.656C380.399 534.316 380.729 534.844 381.228 535.24C381.741 535.621 382.365 535.812 383.098 535.812ZM395.06 525.714C396.234 525.714 397.165 526.059 397.854 526.748C398.558 527.437 398.91 528.361 398.91 529.52V536.78C398.91 536.927 398.837 537 398.69 537H397.568C397.422 537 397.348 536.927 397.348 536.78V529.828C397.348 529.021 397.099 528.361 396.6 527.848C396.116 527.335 395.486 527.078 394.708 527.078C393.902 527.078 393.249 527.327 392.75 527.826C392.252 528.325 392.002 528.977 392.002 529.784V536.78C392.002 536.927 391.929 537 391.782 537H390.66C390.514 537 390.44 536.927 390.44 536.78V526.088C390.44 525.941 390.514 525.868 390.66 525.868H391.782C391.929 525.868 392.002 525.941 392.002 526.088V527.034C392.002 527.063 392.01 527.085 392.024 527.1C392.054 527.115 392.076 527.107 392.09 527.078C392.736 526.169 393.726 525.714 395.06 525.714Z" fill="#8B8ACA"/>
<path d="M279.698 460.362C279.878 460.254 280.148 460.2 280.508 460.2H287.042C287.222 460.2 287.366 460.272 287.474 460.416C287.618 460.524 287.69 460.668 287.69 460.848V497.352C287.69 497.532 287.618 497.694 287.474 497.838C287.366 497.946 287.222 498 287.042 498H280.724C280.544 498 280.382 497.946 280.238 497.838C280.13 497.694 280.076 497.532 280.076 497.352V467.76C280.076 467.688 280.04 467.616 279.968 467.544C279.896 467.472 279.824 467.454 279.752 467.49L274.406 468.948L274.19 469.002C273.866 469.002 273.704 468.804 273.704 468.408L273.542 463.764C273.542 463.404 273.704 463.152 274.028 463.008L279.698 460.362ZM299.157 460.362C299.337 460.254 299.607 460.2 299.967 460.2H306.501C306.681 460.2 306.825 460.272 306.933 460.416C307.077 460.524 307.149 460.668 307.149 460.848V497.352C307.149 497.532 307.077 497.694 306.933 497.838C306.825 497.946 306.681 498 306.501 498H300.183C300.003 498 299.841 497.946 299.697 497.838C299.589 497.694 299.535 497.532 299.535 497.352V467.76C299.535 467.688 299.499 467.616 299.427 467.544C299.355 467.472 299.283 467.454 299.211 467.49L293.865 468.948L293.649 469.002C293.325 469.002 293.163 468.804 293.163 468.408L293.001 463.764C293.001 463.404 293.163 463.152 293.487 463.008L299.157 460.362ZM318.616 460.362C318.796 460.254 319.066 460.2 319.426 460.2H325.96C326.14 460.2 326.284 460.272 326.392 460.416C326.536 460.524 326.608 460.668 326.608 460.848V497.352C326.608 497.532 326.536 497.694 326.392 497.838C326.284 497.946 326.14 498 325.96 498H319.642C319.462 498 319.3 497.946 319.156 497.838C319.048 497.694 318.994 497.532 318.994 497.352V467.76C318.994 467.688 318.958 467.616 318.886 467.544C318.814 467.472 318.742 467.454 318.67 467.49L313.324 468.948L313.108 469.002C312.784 469.002 312.622 468.804 312.622 468.408L312.46 463.764C312.46 463.404 312.622 463.152 312.946 463.008L318.616 460.362ZM344.941 498.594C340.981 498.594 337.849 497.496 335.545 495.3C333.241 493.068 332.089 490.044 332.089 486.228V471.972C332.089 468.228 333.241 465.258 335.545 463.062C337.849 460.866 340.981 459.768 344.941 459.768C348.901 459.768 352.033 460.866 354.337 463.062C356.677 465.258 357.847 468.228 357.847 471.972V486.228C357.847 490.044 356.677 493.068 354.337 495.3C352.033 497.496 348.901 498.594 344.941 498.594ZM344.941 492.06C346.561 492.06 347.839 491.574 348.775 490.602C349.747 489.594 350.233 488.262 350.233 486.606V471.756C350.233 470.1 349.747 468.786 348.775 467.814C347.839 466.806 346.561 466.302 344.941 466.302C343.357 466.302 342.079 466.806 341.107 467.814C340.171 468.786 339.703 470.1 339.703 471.756V486.606C339.703 488.262 340.171 489.594 341.107 490.602C342.079 491.574 343.357 492.06 344.941 492.06Z" fill="white"/>
<g filter="url(#filter2_ii_67_2127)">
<ellipse cx="387" cy="113" rx="113" ry="113" transform="rotate(90 387 113)" fill="#030092"/>
<ellipse cx="387" cy="113" rx="113" ry="113" transform="rotate(90 387 113)" fill="url(#paint2_radial_67_2127)"/>
</g>
<path d="M339.162 140.754C339.235 140.651 339.323 140.6 339.426 140.6H340.57C340.717 140.6 340.79 140.673 340.79 140.82V155.78C340.79 155.927 340.717 156 340.57 156H339.448C339.301 156 339.228 155.927 339.228 155.78V143.548C339.228 143.504 339.213 143.475 339.184 143.46C339.155 143.445 339.133 143.46 339.118 143.504L335.532 149.004C335.459 149.107 335.371 149.158 335.268 149.158H334.696C334.593 149.158 334.505 149.114 334.432 149.026L330.846 143.57C330.831 143.526 330.809 143.511 330.78 143.526C330.751 143.541 330.736 143.57 330.736 143.614V155.78C330.736 155.927 330.663 156 330.516 156H329.394C329.247 156 329.174 155.927 329.174 155.78V140.82C329.174 140.673 329.247 140.6 329.394 140.6H330.538C330.655 140.6 330.743 140.644 330.802 140.732L334.938 147.002C334.953 147.017 334.975 147.024 335.004 147.024C335.033 147.024 335.055 147.017 335.07 147.002L339.162 140.754ZM345.249 142.844C344.897 142.844 344.603 142.727 344.369 142.492C344.134 142.257 344.017 141.964 344.017 141.612C344.017 141.245 344.134 140.952 344.369 140.732C344.603 140.497 344.897 140.38 345.249 140.38C345.601 140.38 345.894 140.497 346.129 140.732C346.363 140.952 346.481 141.245 346.481 141.612C346.481 141.964 346.363 142.257 346.129 142.492C345.894 142.727 345.601 142.844 345.249 142.844ZM344.633 155.978C344.486 155.978 344.413 155.905 344.413 155.758V145.066C344.413 144.919 344.486 144.846 344.633 144.846H345.755C345.901 144.846 345.975 144.919 345.975 145.066V155.758C345.975 155.905 345.901 155.978 345.755 155.978H344.633ZM354.02 144.714C355.193 144.714 356.125 145.059 356.814 145.748C357.518 146.437 357.87 147.361 357.87 148.52V155.78C357.87 155.927 357.797 156 357.65 156H356.528C356.381 156 356.308 155.927 356.308 155.78V148.828C356.308 148.021 356.059 147.361 355.56 146.848C355.076 146.335 354.445 146.078 353.668 146.078C352.861 146.078 352.209 146.327 351.71 146.826C351.211 147.325 350.962 147.977 350.962 148.784V155.78C350.962 155.927 350.889 156 350.742 156H349.62C349.473 156 349.4 155.927 349.4 155.78V145.088C349.4 144.941 349.473 144.868 349.62 144.868H350.742C350.889 144.868 350.962 144.941 350.962 145.088V146.034C350.962 146.063 350.969 146.085 350.984 146.1C351.013 146.115 351.035 146.107 351.05 146.078C351.695 145.169 352.685 144.714 354.02 144.714ZM365.853 145.946C365.853 146.093 365.78 146.166 365.633 146.166H363.147C363.089 146.166 363.059 146.195 363.059 146.254V152.744C363.059 153.448 363.213 153.947 363.521 154.24C363.844 154.519 364.343 154.658 365.017 154.658H365.567C365.714 154.658 365.787 154.731 365.787 154.878V155.78C365.787 155.927 365.714 156 365.567 156C365.391 156.015 365.12 156.022 364.753 156.022C363.697 156.022 362.898 155.824 362.355 155.428C361.813 155.032 361.541 154.299 361.541 153.228V146.254C361.541 146.195 361.512 146.166 361.453 146.166H360.111C359.965 146.166 359.891 146.093 359.891 145.946V145.088C359.891 144.941 359.965 144.868 360.111 144.868H361.453C361.512 144.868 361.541 144.839 361.541 144.78V142.228C361.541 142.081 361.615 142.008 361.761 142.008H362.839C362.986 142.008 363.059 142.081 363.059 142.228V144.78C363.059 144.839 363.089 144.868 363.147 144.868H365.633C365.78 144.868 365.853 144.941 365.853 145.088V145.946ZM369.529 142.844C369.177 142.844 368.884 142.727 368.649 142.492C368.414 142.257 368.297 141.964 368.297 141.612C368.297 141.245 368.414 140.952 368.649 140.732C368.884 140.497 369.177 140.38 369.529 140.38C369.881 140.38 370.174 140.497 370.409 140.732C370.644 140.952 370.761 141.245 370.761 141.612C370.761 141.964 370.644 142.257 370.409 142.492C370.174 142.727 369.881 142.844 369.529 142.844ZM368.913 155.978C368.766 155.978 368.693 155.905 368.693 155.758V145.066C368.693 144.919 368.766 144.846 368.913 144.846H370.035C370.182 144.846 370.255 144.919 370.255 145.066V155.758C370.255 155.905 370.182 155.978 370.035 155.978H368.913ZM378.301 144.714C379.474 144.714 380.405 145.059 381.095 145.748C381.799 146.437 382.151 147.361 382.151 148.52V155.78C382.151 155.927 382.077 156 381.931 156H380.809C380.662 156 380.589 155.927 380.589 155.78V148.828C380.589 148.021 380.339 147.361 379.841 146.848C379.357 146.335 378.726 146.078 377.949 146.078C377.142 146.078 376.489 146.327 375.991 146.826C375.492 147.325 375.243 147.977 375.243 148.784V155.78C375.243 155.927 375.169 156 375.023 156H373.901C373.754 156 373.681 155.927 373.681 155.78V145.088C373.681 144.941 373.754 144.868 373.901 144.868H375.023C375.169 144.868 375.243 144.941 375.243 145.088V146.034C375.243 146.063 375.25 146.085 375.265 146.1C375.294 146.115 375.316 146.107 375.331 146.078C375.976 145.169 376.966 144.714 378.301 144.714ZM392.004 145.088C392.004 144.941 392.077 144.868 392.224 144.868H393.346C393.493 144.868 393.566 144.941 393.566 145.088V155.626C393.566 157.269 393.089 158.471 392.136 159.234C391.197 159.997 389.899 160.378 388.242 160.378C387.905 160.378 387.648 160.371 387.472 160.356C387.325 160.341 387.252 160.261 387.252 160.114L387.296 159.102C387.296 159.029 387.318 158.97 387.362 158.926C387.406 158.897 387.457 158.889 387.516 158.904L388.11 158.926C389.474 158.926 390.464 158.655 391.08 158.112C391.696 157.584 392.004 156.741 392.004 155.582V154.768C392.004 154.739 391.989 154.724 391.96 154.724C391.945 154.709 391.923 154.717 391.894 154.746C391.219 155.626 390.259 156.066 389.012 156.066C388.059 156.066 387.208 155.809 386.46 155.296C385.727 154.783 385.235 154.057 384.986 153.118C384.81 152.517 384.722 151.622 384.722 150.434C384.722 149.789 384.737 149.246 384.766 148.806C384.81 148.366 384.891 147.97 385.008 147.618C385.272 146.738 385.749 146.034 386.438 145.506C387.127 144.963 387.956 144.692 388.924 144.692C390.229 144.692 391.219 145.125 391.894 145.99C391.923 146.019 391.945 146.027 391.96 146.012C391.989 145.997 392.004 145.975 392.004 145.946V145.088ZM391.894 152.634C391.938 152.414 391.967 152.143 391.982 151.82C391.997 151.497 392.004 151.028 392.004 150.412C392.004 149.664 391.997 149.165 391.982 148.916C391.967 148.652 391.931 148.41 391.872 148.19C391.755 147.574 391.461 147.068 390.992 146.672C390.537 146.261 389.958 146.056 389.254 146.056C388.565 146.056 387.978 146.254 387.494 146.65C387.025 147.046 386.695 147.559 386.504 148.19C386.357 148.659 386.284 149.393 386.284 150.39C386.284 151.461 386.357 152.201 386.504 152.612C386.651 153.228 386.966 153.741 387.45 154.152C387.949 154.548 388.55 154.746 389.254 154.746C389.973 154.746 390.559 154.548 391.014 154.152C391.483 153.756 391.777 153.25 391.894 152.634ZM406.678 140.578C407.968 140.578 409.002 140.974 409.78 141.766C410.572 142.558 410.968 143.599 410.968 144.89C410.968 146.166 410.564 147.193 409.758 147.97C408.966 148.747 407.917 149.136 406.612 149.136H402.322C402.263 149.136 402.234 149.165 402.234 149.224V155.78C402.234 155.927 402.16 156 402.014 156H400.892C400.745 156 400.672 155.927 400.672 155.78V140.798C400.672 140.651 400.745 140.578 400.892 140.578H406.678ZM406.502 147.838C407.367 147.838 408.071 147.574 408.614 147.046C409.156 146.503 409.428 145.792 409.428 144.912C409.428 144.017 409.156 143.299 408.614 142.756C408.071 142.213 407.367 141.942 406.502 141.942H402.322C402.263 141.942 402.234 141.971 402.234 142.03V147.75C402.234 147.809 402.263 147.838 402.322 147.838H406.502ZM417.625 144.758C418.109 144.758 418.527 144.853 418.879 145.044C418.996 145.103 419.04 145.198 419.011 145.33L418.769 146.408C418.725 146.555 418.63 146.599 418.483 146.54C418.234 146.437 417.948 146.386 417.625 146.386L417.339 146.408C416.576 146.437 415.946 146.723 415.447 147.266C414.948 147.794 414.699 148.469 414.699 149.29V155.78C414.699 155.927 414.626 156 414.479 156H413.357C413.21 156 413.137 155.927 413.137 155.78V145.088C413.137 144.941 413.21 144.868 413.357 144.868H414.479C414.626 144.868 414.699 144.941 414.699 145.088V146.43C414.699 146.474 414.706 146.503 414.721 146.518C414.75 146.518 414.772 146.503 414.787 146.474C415.095 145.931 415.484 145.513 415.953 145.22C416.437 144.912 416.994 144.758 417.625 144.758ZM421.807 142.844C421.455 142.844 421.161 142.727 420.927 142.492C420.692 142.257 420.575 141.964 420.575 141.612C420.575 141.245 420.692 140.952 420.927 140.732C421.161 140.497 421.455 140.38 421.807 140.38C422.159 140.38 422.452 140.497 422.687 140.732C422.921 140.952 423.039 141.245 423.039 141.612C423.039 141.964 422.921 142.257 422.687 142.492C422.452 142.727 422.159 142.844 421.807 142.844ZM421.191 155.978C421.044 155.978 420.971 155.905 420.971 155.758V145.066C420.971 144.919 421.044 144.846 421.191 144.846H422.313C422.459 144.846 422.533 144.919 422.533 145.066V155.758C422.533 155.905 422.459 155.978 422.313 155.978H421.191ZM430.16 156.176C429.104 156.176 428.195 155.905 427.432 155.362C426.684 154.805 426.171 154.057 425.892 153.118C425.702 152.473 425.606 151.563 425.606 150.39C425.606 149.334 425.702 148.439 425.892 147.706C426.156 146.797 426.67 146.071 427.432 145.528C428.195 144.971 429.104 144.692 430.16 144.692C431.231 144.692 432.155 144.963 432.932 145.506C433.724 146.049 434.238 146.723 434.472 147.53C434.546 147.794 434.59 148.014 434.604 148.19V148.234C434.604 148.337 434.538 148.403 434.406 148.432L433.306 148.586H433.262C433.16 148.586 433.094 148.52 433.064 148.388L432.998 148.058C432.866 147.501 432.544 147.031 432.03 146.65C431.517 146.254 430.894 146.056 430.16 146.056C429.427 146.056 428.811 146.254 428.312 146.65C427.828 147.031 427.513 147.545 427.366 148.19C427.234 148.747 427.168 149.488 427.168 150.412C427.168 151.38 427.234 152.128 427.366 152.656C427.513 153.316 427.828 153.844 428.312 154.24C428.811 154.621 429.427 154.812 430.16 154.812C430.879 154.812 431.495 154.629 432.008 154.262C432.536 153.881 432.866 153.397 432.998 152.81V152.722L433.02 152.634C433.035 152.487 433.123 152.429 433.284 152.458L434.362 152.634C434.509 152.663 434.575 152.744 434.56 152.876L434.472 153.316C434.252 154.167 433.746 154.856 432.954 155.384C432.162 155.912 431.231 156.176 430.16 156.176ZM445.459 148.564C445.518 148.975 445.547 149.488 445.547 150.104V150.808C445.547 150.955 445.474 151.028 445.327 151.028H438.221C438.163 151.028 438.133 151.057 438.133 151.116C438.163 151.923 438.207 152.443 438.265 152.678C438.427 153.338 438.771 153.859 439.299 154.24C439.827 154.621 440.502 154.812 441.323 154.812C441.939 154.812 442.482 154.673 442.951 154.394C443.421 154.115 443.787 153.719 444.051 153.206C444.139 153.074 444.242 153.045 444.359 153.118L445.217 153.624C445.335 153.697 445.364 153.8 445.305 153.932C444.939 154.636 444.389 155.193 443.655 155.604C442.922 156 442.079 156.198 441.125 156.198C440.084 156.183 439.211 155.934 438.507 155.45C437.803 154.966 437.297 154.291 436.989 153.426C436.725 152.722 436.593 151.71 436.593 150.39C436.593 149.774 436.601 149.275 436.615 148.894C436.645 148.498 436.703 148.146 436.791 147.838C437.041 146.885 437.539 146.122 438.287 145.55C439.05 144.978 439.967 144.692 441.037 144.692C442.372 144.692 443.399 145.029 444.117 145.704C444.836 146.379 445.283 147.332 445.459 148.564ZM441.037 146.056C440.319 146.056 439.717 146.247 439.233 146.628C438.764 146.995 438.456 147.493 438.309 148.124C438.221 148.432 438.163 148.931 438.133 149.62C438.133 149.679 438.163 149.708 438.221 149.708H443.919C443.978 149.708 444.007 149.679 444.007 149.62C443.978 148.96 443.934 148.491 443.875 148.212C443.714 147.552 443.384 147.031 442.885 146.65C442.401 146.254 441.785 146.056 441.037 146.056Z" fill="#8B8ACA"/>
<path d="M306.616 117.594C302.656 117.594 299.524 116.496 297.22 114.3C294.916 112.068 293.764 109.044 293.764 105.228V90.972C293.764 87.228 294.916 84.258 297.22 82.062C299.524 79.866 302.656 78.768 306.616 78.768C310.576 78.768 313.708 79.866 316.012 82.062C318.352 84.258 319.522 87.228 319.522 90.972V105.228C319.522 109.044 318.352 112.068 316.012 114.3C313.708 116.496 310.576 117.594 306.616 117.594ZM306.616 111.06C308.236 111.06 309.514 110.574 310.45 109.602C311.422 108.594 311.908 107.262 311.908 105.606V90.756C311.908 89.1 311.422 87.786 310.45 86.814C309.514 85.806 308.236 85.302 306.616 85.302C305.032 85.302 303.754 85.806 302.782 86.814C301.846 87.786 301.378 89.1 301.378 90.756V105.606C301.378 107.262 301.846 108.594 302.782 109.602C303.754 110.574 305.032 111.06 306.616 111.06ZM329.097 117.216C327.873 117.216 326.847 116.82 326.019 116.028C325.227 115.2 324.831 114.174 324.831 112.95C324.831 111.69 325.227 110.664 326.019 109.872C326.811 109.08 327.837 108.684 329.097 108.684C330.357 108.684 331.383 109.08 332.175 109.872C332.967 110.664 333.363 111.69 333.363 112.95C333.363 114.174 332.949 115.2 332.121 116.028C331.329 116.82 330.321 117.216 329.097 117.216ZM343.328 117C342.788 117 342.608 116.748 342.788 116.244L354.506 86.058C354.578 85.842 354.506 85.734 354.29 85.734H344.192C344.012 85.734 343.922 85.824 343.922 86.004V88.488C343.922 88.668 343.85 88.83 343.706 88.974C343.598 89.082 343.454 89.136 343.274 89.136H338.36C338.18 89.136 338.018 89.082 337.874 88.974C337.766 88.83 337.712 88.668 337.712 88.488L337.766 79.848C337.766 79.668 337.82 79.524 337.928 79.416C338.072 79.272 338.234 79.2 338.414 79.2H362.012C362.192 79.2 362.336 79.272 362.444 79.416C362.588 79.524 362.66 79.668 362.66 79.848V85.302C362.66 85.518 362.606 85.788 362.498 86.112L350.834 116.514C350.726 116.838 350.474 117 350.078 117H343.328ZM389.935 99.774C390.475 101.538 390.745 103.248 390.745 104.904C390.745 106.74 390.457 108.396 389.881 109.872C389.053 112.176 387.595 114.012 385.507 115.38C383.419 116.712 380.971 117.378 378.163 117.378C375.427 117.378 373.015 116.73 370.927 115.434C368.875 114.102 367.417 112.302 366.553 110.034C366.193 109.098 365.923 108.108 365.743 107.064V106.956C365.743 106.56 365.959 106.362 366.391 106.362H372.925C373.285 106.362 373.519 106.56 373.627 106.956C373.663 107.172 373.717 107.352 373.789 107.496C373.861 107.64 373.915 107.766 373.951 107.874C374.311 108.81 374.851 109.53 375.571 110.034C376.291 110.538 377.137 110.79 378.109 110.79C379.117 110.79 379.999 110.52 380.755 109.98C381.511 109.44 382.069 108.684 382.429 107.712C382.789 106.992 382.969 106.056 382.969 104.904C382.969 103.86 382.807 102.924 382.483 102.096C382.231 101.16 381.727 100.44 380.971 99.936C380.215 99.432 379.333 99.18 378.325 99.18C377.317 99.18 376.381 99.414 375.517 99.882C374.653 100.35 374.077 100.962 373.789 101.718C373.681 102.078 373.447 102.258 373.087 102.258H366.445C366.265 102.258 366.103 102.204 365.959 102.096C365.851 101.952 365.797 101.79 365.797 101.61V79.848C365.797 79.668 365.851 79.524 365.959 79.416C366.103 79.272 366.265 79.2 366.445 79.2H388.747C388.927 79.2 389.071 79.272 389.179 79.416C389.323 79.524 389.395 79.668 389.395 79.848V85.086C389.395 85.266 389.323 85.428 389.179 85.572C389.071 85.68 388.927 85.734 388.747 85.734H373.681C373.501 85.734 373.411 85.824 373.411 86.004L373.357 93.996C373.357 94.248 373.465 94.302 373.681 94.158C375.301 93.114 377.173 92.592 379.297 92.592C381.817 92.592 384.013 93.24 385.885 94.536C387.793 95.796 389.143 97.542 389.935 99.774ZM421.939 94.968C421.939 95.1947 421.825 95.308 421.599 95.308H409.087C408.996 95.308 408.951 95.3533 408.951 95.444V103.842C408.951 103.933 408.996 103.978 409.087 103.978H417.859C418.085 103.978 418.199 104.091 418.199 104.318V105.746C418.199 105.973 418.085 106.086 417.859 106.086H409.087C408.996 106.086 408.951 106.131 408.951 106.222V114.756C408.951 114.847 408.996 114.892 409.087 114.892H421.599C421.825 114.892 421.939 115.005 421.939 115.232V116.66C421.939 116.887 421.825 117 421.599 117H406.877C406.65 117 406.537 116.887 406.537 116.66V93.54C406.537 93.3133 406.65 93.2 406.877 93.2H421.599C421.825 93.2 421.939 93.3133 421.939 93.54V94.968ZM433.565 117.272C431.978 117.272 430.584 116.966 429.383 116.354C428.181 115.719 427.241 114.835 426.561 113.702C425.903 112.569 425.575 111.265 425.575 109.792V100.408C425.575 98.9347 425.903 97.6313 426.561 96.498C427.241 95.3647 428.181 94.492 429.383 93.88C430.584 93.2453 431.978 92.928 433.565 92.928C435.129 92.928 436.511 93.234 437.713 93.846C438.937 94.458 439.877 95.3193 440.535 96.43C441.192 97.518 441.521 98.7533 441.521 100.136V100.578C441.521 100.805 441.407 100.918 441.181 100.918H439.447C439.22 100.918 439.107 100.805 439.107 100.578V100.17C439.107 98.6513 438.597 97.416 437.577 96.464C436.579 95.512 435.242 95.036 433.565 95.036C431.887 95.036 430.539 95.5233 429.519 96.498C428.499 97.4727 427.989 98.7533 427.989 100.34V109.86C427.989 111.447 428.51 112.727 429.553 113.702C430.595 114.677 431.967 115.164 433.667 115.164C435.321 115.164 436.636 114.711 437.611 113.804C438.608 112.897 439.107 111.685 439.107 110.166V107.072C439.107 106.981 439.061 106.936 438.971 106.936H433.973C433.746 106.936 433.633 106.823 433.633 106.596V105.168C433.633 104.941 433.746 104.828 433.973 104.828H441.181C441.407 104.828 441.521 104.941 441.521 105.168V109.554C441.521 111.979 440.795 113.872 439.345 115.232C437.917 116.592 435.99 117.272 433.565 117.272ZM446.714 117C446.487 117 446.374 116.887 446.374 116.66V93.54C446.374 93.3133 446.487 93.2 446.714 93.2H448.448C448.675 93.2 448.788 93.3133 448.788 93.54V114.756C448.788 114.847 448.833 114.892 448.924 114.892H460.926C461.153 114.892 461.266 115.005 461.266 115.232V116.66C461.266 116.887 461.153 117 460.926 117H446.714ZM465.238 117C465.012 117 464.898 116.887 464.898 116.66V93.54C464.898 93.3133 465.012 93.2 465.238 93.2H473.262C475.506 93.2 477.286 93.7893 478.6 94.968C479.938 96.1467 480.606 97.7447 480.606 99.762V110.438C480.606 112.455 479.938 114.053 478.6 115.232C477.286 116.411 475.506 117 473.262 117H465.238ZM467.312 114.756C467.312 114.847 467.358 114.892 467.448 114.892H473.364C474.838 114.892 476.005 114.461 476.866 113.6C477.75 112.739 478.192 111.583 478.192 110.132V100.102C478.192 98.6287 477.762 97.4613 476.9 96.6C476.039 95.7387 474.86 95.308 473.364 95.308H467.448C467.358 95.308 467.312 95.3533 467.312 95.444V114.756Z" fill="white"/>
<g filter="url(#filter3_ii_67_2127)">
<ellipse cx="539.5" cy="339.5" rx="149.733" ry="149.403" transform="rotate(90 539.5 339.5)" fill="#030092"/>
<ellipse cx="539.5" cy="339.5" rx="149.733" ry="149.403" transform="rotate(90 539.5 339.5)" fill="url(#paint3_radial_67_2127)"/>
</g>
<path d="M497.291 326.288C498.197 328.373 498.651 330.776 498.651 333.496C498.651 335.944 498.243 338.211 497.427 340.296C496.339 343.197 494.503 345.464 491.919 347.096C489.38 348.728 486.365 349.544 482.875 349.544C479.429 349.544 476.392 348.683 473.763 346.96C471.179 345.237 469.32 342.903 468.187 339.956C467.552 338.188 467.189 336.284 467.099 334.244C467.099 333.7 467.371 333.428 467.915 333.428H475.939C476.483 333.428 476.755 333.7 476.755 334.244C476.936 335.74 477.185 336.851 477.503 337.576C477.911 338.755 478.568 339.684 479.475 340.364C480.427 340.999 481.537 341.316 482.807 341.316C485.345 341.316 487.091 340.205 488.043 337.984C488.677 336.624 488.995 335.037 488.995 333.224C488.995 331.093 488.655 329.348 487.975 327.988C486.932 325.857 485.187 324.792 482.739 324.792C482.24 324.792 481.719 324.951 481.175 325.268C480.631 325.54 479.973 325.948 479.203 326.492C479.021 326.628 478.84 326.696 478.659 326.696C478.387 326.696 478.183 326.56 478.047 326.288L474.035 320.644C473.944 320.508 473.899 320.349 473.899 320.168C473.899 319.896 473.989 319.669 474.171 319.488L484.983 310.036C485.073 309.945 485.096 309.855 485.051 309.764C485.051 309.673 484.983 309.628 484.847 309.628H468.867C468.64 309.628 468.436 309.56 468.255 309.424C468.119 309.243 468.051 309.039 468.051 308.812V302.216C468.051 301.989 468.119 301.808 468.255 301.672C468.436 301.491 468.64 301.4 468.867 301.4H497.223C497.449 301.4 497.631 301.491 497.767 301.672C497.948 301.808 498.039 301.989 498.039 302.216V309.696C498.039 310.059 497.88 310.399 497.563 310.716L488.655 318.876C488.564 318.967 488.519 319.057 488.519 319.148C488.564 319.239 488.677 319.284 488.859 319.284C492.803 320.055 495.613 322.389 497.291 326.288ZM534.813 326.288C535.72 328.373 536.173 330.776 536.173 333.496C536.173 335.944 535.765 338.211 534.949 340.296C533.861 343.197 532.025 345.464 529.441 347.096C526.903 348.728 523.888 349.544 520.397 349.544C516.952 349.544 513.915 348.683 511.285 346.96C508.701 345.237 506.843 342.903 505.709 339.956C505.075 338.188 504.712 336.284 504.621 334.244C504.621 333.7 504.893 333.428 505.437 333.428H513.461C514.005 333.428 514.277 333.7 514.277 334.244C514.459 335.74 514.708 336.851 515.025 337.576C515.433 338.755 516.091 339.684 516.997 340.364C517.949 340.999 519.06 341.316 520.329 341.316C522.868 341.316 524.613 340.205 525.565 337.984C526.2 336.624 526.517 335.037 526.517 333.224C526.517 331.093 526.177 329.348 525.497 327.988C524.455 325.857 522.709 324.792 520.261 324.792C519.763 324.792 519.241 324.951 518.697 325.268C518.153 325.54 517.496 325.948 516.725 326.492C516.544 326.628 516.363 326.696 516.181 326.696C515.909 326.696 515.705 326.56 515.569 326.288L511.557 320.644C511.467 320.508 511.421 320.349 511.421 320.168C511.421 319.896 511.512 319.669 511.693 319.488L522.505 310.036C522.596 309.945 522.619 309.855 522.573 309.764C522.573 309.673 522.505 309.628 522.369 309.628H506.389C506.163 309.628 505.959 309.56 505.777 309.424C505.641 309.243 505.573 309.039 505.573 308.812V302.216C505.573 301.989 505.641 301.808 505.777 301.672C505.959 301.491 506.163 301.4 506.389 301.4H534.745C534.972 301.4 535.153 301.491 535.289 301.672C535.471 301.808 535.561 301.989 535.561 302.216V309.696C535.561 310.059 535.403 310.399 535.085 310.716L526.177 318.876C526.087 318.967 526.041 319.057 526.041 319.148C526.087 319.239 526.2 319.284 526.381 319.284C530.325 320.055 533.136 322.389 534.813 326.288ZM572.336 326.288C573.243 328.373 573.696 330.776 573.696 333.496C573.696 335.944 573.288 338.211 572.472 340.296C571.384 343.197 569.548 345.464 566.964 347.096C564.425 348.728 561.411 349.544 557.92 349.544C554.475 349.544 551.437 348.683 548.808 346.96C546.224 345.237 544.365 342.903 543.232 339.956C542.597 338.188 542.235 336.284 542.144 334.244C542.144 333.7 542.416 333.428 542.96 333.428H550.984C551.528 333.428 551.8 333.7 551.8 334.244C551.981 335.74 552.231 336.851 552.548 337.576C552.956 338.755 553.613 339.684 554.52 340.364C555.472 340.999 556.583 341.316 557.852 341.316C560.391 341.316 562.136 340.205 563.088 337.984C563.723 336.624 564.04 335.037 564.04 333.224C564.04 331.093 563.7 329.348 563.02 327.988C561.977 325.857 560.232 324.792 557.784 324.792C557.285 324.792 556.764 324.951 556.22 325.268C555.676 325.54 555.019 325.948 554.248 326.492C554.067 326.628 553.885 326.696 553.704 326.696C553.432 326.696 553.228 326.56 553.092 326.288L549.08 320.644C548.989 320.508 548.944 320.349 548.944 320.168C548.944 319.896 549.035 319.669 549.216 319.488L560.028 310.036C560.119 309.945 560.141 309.855 560.096 309.764C560.096 309.673 560.028 309.628 559.892 309.628H543.912C543.685 309.628 543.481 309.56 543.3 309.424C543.164 309.243 543.096 309.039 543.096 308.812V302.216C543.096 301.989 543.164 301.808 543.3 301.672C543.481 301.491 543.685 301.4 543.912 301.4H572.268C572.495 301.4 572.676 301.491 572.812 301.672C572.993 301.808 573.084 301.989 573.084 302.216V309.696C573.084 310.059 572.925 310.399 572.608 310.716L563.7 318.876C563.609 318.967 563.564 319.057 563.564 319.148C563.609 319.239 563.723 319.284 563.904 319.284C567.848 320.055 570.659 322.389 572.336 326.288ZM609.859 326.288C610.765 328.373 611.219 330.776 611.219 333.496C611.219 335.944 610.811 338.211 609.995 340.296C608.907 343.197 607.071 345.464 604.487 347.096C601.948 348.728 598.933 349.544 595.443 349.544C591.997 349.544 588.96 348.683 586.331 346.96C583.747 345.237 581.888 342.903 580.755 339.956C580.12 338.188 579.757 336.284 579.667 334.244C579.667 333.7 579.939 333.428 580.483 333.428H588.507C589.051 333.428 589.323 333.7 589.323 334.244C589.504 335.74 589.753 336.851 590.071 337.576C590.479 338.755 591.136 339.684 592.043 340.364C592.995 340.999 594.105 341.316 595.375 341.316C597.913 341.316 599.659 340.205 600.611 337.984C601.245 336.624 601.563 335.037 601.563 333.224C601.563 331.093 601.223 329.348 600.543 327.988C599.5 325.857 597.755 324.792 595.307 324.792C594.808 324.792 594.287 324.951 593.743 325.268C593.199 325.54 592.541 325.948 591.771 326.492C591.589 326.628 591.408 326.696 591.227 326.696C590.955 326.696 590.751 326.56 590.615 326.288L586.603 320.644C586.512 320.508 586.467 320.349 586.467 320.168C586.467 319.896 586.557 319.669 586.739 319.488L597.551 310.036C597.641 309.945 597.664 309.855 597.619 309.764C597.619 309.673 597.551 309.628 597.415 309.628H581.435C581.208 309.628 581.004 309.56 580.823 309.424C580.687 309.243 580.619 309.039 580.619 308.812V302.216C580.619 301.989 580.687 301.808 580.823 301.672C581.004 301.491 581.208 301.4 581.435 301.4H609.791C610.017 301.4 610.199 301.491 610.335 301.672C610.516 301.808 610.607 301.989 610.607 302.216V309.696C610.607 310.059 610.448 310.399 610.131 310.716L601.223 318.876C601.132 318.967 601.087 319.057 601.087 319.148C601.132 319.239 601.245 319.284 601.427 319.284C605.371 320.055 608.181 322.389 609.859 326.288Z" fill="white"/>
<path d="M495.205 375.6C495.352 375.6 495.425 375.673 495.425 375.82V376.766C495.425 376.913 495.352 376.986 495.205 376.986H490.893C490.835 376.986 490.805 377.015 490.805 377.074V390.78C490.805 390.927 490.732 391 490.585 391H489.463C489.317 391 489.243 390.927 489.243 390.78V377.074C489.243 377.015 489.214 376.986 489.155 376.986H485.019C484.873 376.986 484.799 376.913 484.799 376.766V375.82C484.799 375.673 484.873 375.6 485.019 375.6H495.205ZM500.438 391.176C499.382 391.176 498.473 390.905 497.71 390.362C496.947 389.819 496.419 389.071 496.126 388.118C495.921 387.443 495.818 386.541 495.818 385.412C495.818 384.283 495.921 383.388 496.126 382.728C496.405 381.789 496.925 381.049 497.688 380.506C498.451 379.963 499.375 379.692 500.46 379.692C501.501 379.692 502.396 379.963 503.144 380.506C503.907 381.049 504.427 381.782 504.706 382.706C504.911 383.337 505.014 384.239 505.014 385.412C505.014 386.6 504.911 387.502 504.706 388.118C504.427 389.071 503.907 389.819 503.144 390.362C502.396 390.905 501.494 391.176 500.438 391.176ZM500.438 389.812C501.142 389.812 501.743 389.621 502.242 389.24C502.741 388.844 503.078 388.316 503.254 387.656C503.386 387.128 503.452 386.387 503.452 385.434C503.452 384.466 503.393 383.725 503.276 383.212C503.1 382.552 502.755 382.031 502.242 381.65C501.743 381.254 501.135 381.056 500.416 381.056C499.697 381.056 499.089 381.254 498.59 381.65C498.091 382.031 497.754 382.552 497.578 383.212C497.461 383.725 497.402 384.466 497.402 385.434C497.402 386.402 497.461 387.143 497.578 387.656C497.739 388.316 498.069 388.844 498.568 389.24C499.081 389.621 499.705 389.812 500.438 389.812ZM512.645 380.946C512.645 381.093 512.572 381.166 512.425 381.166H509.939C509.881 381.166 509.851 381.195 509.851 381.254V387.744C509.851 388.448 510.005 388.947 510.313 389.24C510.636 389.519 511.135 389.658 511.809 389.658H512.359C512.506 389.658 512.579 389.731 512.579 389.878V390.78C512.579 390.927 512.506 391 512.359 391C512.183 391.015 511.912 391.022 511.545 391.022C510.489 391.022 509.69 390.824 509.147 390.428C508.605 390.032 508.333 389.299 508.333 388.228V381.254C508.333 381.195 508.304 381.166 508.245 381.166H506.903C506.757 381.166 506.683 381.093 506.683 380.946V380.088C506.683 379.941 506.757 379.868 506.903 379.868H508.245C508.304 379.868 508.333 379.839 508.333 379.78V377.228C508.333 377.081 508.407 377.008 508.553 377.008H509.631C509.778 377.008 509.851 377.081 509.851 377.228V379.78C509.851 379.839 509.881 379.868 509.939 379.868H512.425C512.572 379.868 512.645 379.941 512.645 380.088V380.946ZM519.115 379.692C520.435 379.692 521.454 380.029 522.173 380.704C522.892 381.379 523.251 382.273 523.251 383.388V390.78C523.251 390.927 523.178 391 523.031 391H521.909C521.762 391 521.689 390.927 521.689 390.78V389.878C521.689 389.849 521.674 389.827 521.645 389.812C521.63 389.797 521.608 389.805 521.579 389.834C521.212 390.274 520.736 390.611 520.149 390.846C519.562 391.066 518.91 391.176 518.191 391.176C517.15 391.176 516.277 390.912 515.573 390.384C514.869 389.856 514.517 389.049 514.517 387.964C514.517 386.864 514.913 385.999 515.705 385.368C516.512 384.723 517.626 384.4 519.049 384.4H521.601C521.66 384.4 521.689 384.371 521.689 384.312V383.476C521.689 382.728 521.476 382.141 521.051 381.716C520.64 381.276 519.995 381.056 519.115 381.056C518.411 381.056 517.839 381.195 517.399 381.474C516.959 381.738 516.688 382.112 516.585 382.596C516.541 382.743 516.453 382.809 516.321 382.794L515.133 382.64C514.972 382.611 514.906 382.552 514.935 382.464C515.052 381.643 515.492 380.975 516.255 380.462C517.018 379.949 517.971 379.692 519.115 379.692ZM518.499 389.834C519.364 389.834 520.112 389.621 520.743 389.196C521.374 388.756 521.689 388.169 521.689 387.436V385.72C521.689 385.661 521.66 385.632 521.601 385.632H519.291C518.323 385.632 517.546 385.83 516.959 386.226C516.372 386.622 516.079 387.172 516.079 387.876C516.079 388.521 516.299 389.013 516.739 389.35C517.194 389.673 517.78 389.834 518.499 389.834ZM526.321 391C526.175 391 526.101 390.927 526.101 390.78V375.82C526.101 375.673 526.175 375.6 526.321 375.6H527.443C527.59 375.6 527.663 375.673 527.663 375.82V390.78C527.663 390.927 527.59 391 527.443 391H526.321ZM539.528 391.176C537.87 391.176 536.558 390.802 535.59 390.054C534.636 389.306 534.16 388.309 534.16 387.062V386.38C534.16 386.233 534.233 386.16 534.38 386.16H535.458C535.604 386.16 535.678 386.233 535.678 386.38V386.974C535.678 387.825 536.03 388.514 536.734 389.042C537.438 389.555 538.413 389.812 539.66 389.812C540.789 389.812 541.647 389.577 542.234 389.108C542.82 388.624 543.114 387.986 543.114 387.194C543.114 386.681 542.974 386.241 542.696 385.874C542.432 385.507 542.014 385.163 541.442 384.84C540.884 384.517 540.092 384.143 539.066 383.718C537.966 383.278 537.108 382.897 536.492 382.574C535.89 382.237 535.399 381.811 535.018 381.298C534.651 380.77 534.468 380.11 534.468 379.318C534.468 378.086 534.893 377.133 535.744 376.458C536.609 375.769 537.79 375.424 539.286 375.424C540.914 375.424 542.197 375.805 543.136 376.568C544.074 377.331 544.544 378.343 544.544 379.604V380.088C544.544 380.235 544.47 380.308 544.324 380.308H543.224C543.077 380.308 543.004 380.235 543.004 380.088V379.692C543.004 378.841 542.666 378.145 541.992 377.602C541.332 377.059 540.408 376.788 539.22 376.788C538.178 376.788 537.379 377.001 536.822 377.426C536.264 377.851 535.986 378.467 535.986 379.274C535.986 379.802 536.118 380.242 536.382 380.594C536.66 380.931 537.049 381.232 537.548 381.496C538.061 381.745 538.846 382.075 539.902 382.486C540.972 382.926 541.83 383.337 542.476 383.718C543.136 384.099 543.664 384.569 544.06 385.126C544.47 385.669 544.676 386.336 544.676 387.128C544.676 388.36 544.221 389.343 543.312 390.076C542.402 390.809 541.141 391.176 539.528 391.176ZM553.955 380.088C553.955 379.941 554.029 379.868 554.175 379.868H555.297C555.444 379.868 555.517 379.941 555.517 380.088V390.78C555.517 390.927 555.444 391 555.297 391H554.175C554.029 391 553.955 390.927 553.955 390.78V389.834C553.955 389.805 553.941 389.783 553.911 389.768C553.882 389.753 553.86 389.761 553.845 389.79C553.229 390.699 552.254 391.154 550.919 391.154C550.215 391.154 549.563 391.015 548.961 390.736C548.375 390.443 547.905 390.025 547.553 389.482C547.216 388.939 547.047 388.287 547.047 387.524V380.088C547.047 379.941 547.121 379.868 547.267 379.868H548.389C548.536 379.868 548.609 379.941 548.609 380.088V387.062C548.609 387.898 548.844 388.565 549.313 389.064C549.783 389.548 550.421 389.79 551.227 389.79C552.063 389.79 552.723 389.541 553.207 389.042C553.706 388.543 553.955 387.883 553.955 387.062V380.088ZM567.264 382.64C567.484 383.344 567.594 384.275 567.594 385.434C567.594 386.607 567.499 387.517 567.308 388.162C567.044 389.101 566.56 389.841 565.856 390.384C565.167 390.912 564.294 391.176 563.238 391.176C562.666 391.176 562.138 391.066 561.654 390.846C561.17 390.611 560.767 390.281 560.444 389.856C560.415 389.827 560.386 389.819 560.356 389.834C560.342 389.834 560.334 389.849 560.334 389.878V395.048C560.334 395.195 560.261 395.268 560.114 395.268H558.992C558.846 395.268 558.772 395.195 558.772 395.048V380.088C558.772 379.941 558.846 379.868 558.992 379.868H560.114C560.261 379.868 560.334 379.941 560.334 380.088V381.012C560.334 381.041 560.342 381.063 560.356 381.078C560.386 381.078 560.415 381.063 560.444 381.034C560.767 380.609 561.163 380.279 561.632 380.044C562.116 379.809 562.652 379.692 563.238 379.692C564.265 379.692 565.123 379.956 565.812 380.484C566.516 381.012 567 381.731 567.264 382.64ZM565.526 388.206C565.688 387.883 565.805 387.524 565.878 387.128C565.966 386.717 566.01 386.153 566.01 385.434C566.01 384.745 565.981 384.209 565.922 383.828C565.864 383.432 565.761 383.08 565.614 382.772C565.438 382.244 565.123 381.826 564.668 381.518C564.228 381.21 563.7 381.056 563.084 381.056C562.498 381.056 562.006 381.21 561.61 381.518C561.214 381.826 560.921 382.237 560.73 382.75C560.598 383.043 560.503 383.388 560.444 383.784C560.386 384.18 560.356 384.73 560.356 385.434C560.356 386.138 560.386 386.695 560.444 387.106C560.503 387.502 560.606 387.854 560.752 388.162C560.928 388.661 561.214 389.064 561.61 389.372C562.021 389.665 562.505 389.812 563.062 389.812C563.649 389.812 564.155 389.665 564.58 389.372C565.02 389.079 565.336 388.69 565.526 388.206ZM579.003 382.64C579.223 383.344 579.333 384.275 579.333 385.434C579.333 386.607 579.238 387.517 579.047 388.162C578.783 389.101 578.299 389.841 577.595 390.384C576.906 390.912 576.033 391.176 574.977 391.176C574.405 391.176 573.877 391.066 573.393 390.846C572.909 390.611 572.506 390.281 572.183 389.856C572.154 389.827 572.124 389.819 572.095 389.834C572.08 389.834 572.073 389.849 572.073 389.878V395.048C572.073 395.195 572 395.268 571.853 395.268H570.731C570.584 395.268 570.511 395.195 570.511 395.048V380.088C570.511 379.941 570.584 379.868 570.731 379.868H571.853C572 379.868 572.073 379.941 572.073 380.088V381.012C572.073 381.041 572.08 381.063 572.095 381.078C572.124 381.078 572.154 381.063 572.183 381.034C572.506 380.609 572.902 380.279 573.371 380.044C573.855 379.809 574.39 379.692 574.977 379.692C576.004 379.692 576.862 379.956 577.551 380.484C578.255 381.012 578.739 381.731 579.003 382.64ZM577.265 388.206C577.426 387.883 577.544 387.524 577.617 387.128C577.705 386.717 577.749 386.153 577.749 385.434C577.749 384.745 577.72 384.209 577.661 383.828C577.602 383.432 577.5 383.08 577.353 382.772C577.177 382.244 576.862 381.826 576.407 381.518C575.967 381.21 575.439 381.056 574.823 381.056C574.236 381.056 573.745 381.21 573.349 381.518C572.953 381.826 572.66 382.237 572.469 382.75C572.337 383.043 572.242 383.388 572.183 383.784C572.124 384.18 572.095 384.73 572.095 385.434C572.095 386.138 572.124 386.695 572.183 387.106C572.242 387.502 572.344 387.854 572.491 388.162C572.667 388.661 572.953 389.064 573.349 389.372C573.76 389.665 574.244 389.812 574.801 389.812C575.388 389.812 575.894 389.665 576.319 389.372C576.759 389.079 577.074 388.69 577.265 388.206ZM582.316 391C582.169 391 582.096 390.927 582.096 390.78V375.82C582.096 375.673 582.169 375.6 582.316 375.6H583.438C583.584 375.6 583.658 375.673 583.658 375.82V390.78C583.658 390.927 583.584 391 583.438 391H582.316ZM586.26 395.4C586.157 395.4 586.106 395.327 586.106 395.18V394.3C586.106 394.153 586.179 394.08 586.326 394.08H586.414C586.986 394.065 587.426 393.977 587.734 393.816C588.057 393.669 588.328 393.383 588.548 392.958C588.783 392.547 589.032 391.917 589.296 391.066C589.325 391.007 589.325 390.963 589.296 390.934L585.578 380.11L585.556 380.022C585.556 379.919 585.622 379.868 585.754 379.868H586.92C587.052 379.868 587.14 379.927 587.184 380.044L590.044 388.932C590.059 388.961 590.081 388.976 590.11 388.976C590.139 388.976 590.161 388.961 590.176 388.932L592.992 380.044C593.036 379.927 593.124 379.868 593.256 379.868H594.4C594.561 379.868 594.62 379.949 594.576 380.11L590.506 391.968C590.154 392.951 589.824 393.677 589.516 394.146C589.208 394.615 588.819 394.938 588.35 395.114C587.895 395.305 587.25 395.4 586.414 395.4H586.26Z" fill="#8B8ACA"/>
<defs>
<filter id="filter0_ii_67_2127" x="24.0972" y="115.767" width="307.181" height="312.866" filterUnits="userSpaceOnUse" color-interpolation-filters="sRGB">
<feFlood flood-opacity="0" result="BackgroundImageFix"/>
<feBlend mode="normal" in="SourceGraphic" in2="BackgroundImageFix" result="shape"/>
<feColorMatrix in="SourceAlpha" type="matrix" values="0 0 0 0 0 0 0 0 0 0 0 0 0 0 0 0 0 0 127 0" result="hardAlpha"/>
<feOffset dx="8.375" dy="13.4"/>
<feGaussianBlur stdDeviation="8.375"/>
<feComposite in2="hardAlpha" operator="arithmetic" k2="-1" k3="1"/>
<feColorMatrix type="matrix" values="0 0 0 0 0.510417 0 0 0 0 0.0208333 0 0 0 0 1 0 0 0 0.95 0"/>
<feBlend mode="normal" in2="shape" result="effect1_innerShadow_67_2127"/>
<feColorMatrix in="SourceAlpha" type="matrix" values="0 0 0 0 0 0 0 0 0 0 0 0 0 0 0 0 0 0 127 0" result="hardAlpha"/>
<feOffset dy="1.675"/>
<feGaussianBlur stdDeviation="4.1875"/>
<feComposite in2="hardAlpha" operator="arithmetic" k2="-1" k3="1"/>
<feColorMatrix type="matrix" values="0 0 0 0 1 0 0 0 0 1 0 0 0 0 1 0 0 0 0.58 0"/>
<feBlend mode="normal" in2="effect1_innerShadow_67_2127" result="effect2_innerShadow_67_2127"/>
</filter>
<filter id="filter1_ii_67_2127" x="203" y="381" width="234.375" height="239.4" filterUnits="userSpaceOnUse" color-interpolation-filters="sRGB">
<feFlood flood-opacity="0" result="BackgroundImageFix"/>
<feBlend mode="normal" in="SourceGraphic" in2="BackgroundImageFix" result="shape"/>
<feColorMatrix in="SourceAlpha" type="matrix" values="0 0 0 0 0 0 0 0 0 0 0 0 0 0 0 0 0 0 127 0" result="hardAlpha"/>
<feOffset dx="8.375" dy="13.4"/>
<feGaussianBlur stdDeviation="8.375"/>
<feComposite in2="hardAlpha" operator="arithmetic" k2="-1" k3="1"/>
<feColorMatrix type="matrix" values="0 0 0 0 0.510417 0 0 0 0 0.0208333 0 0 0 0 1 0 0 0 0.95 0"/>
<feBlend mode="normal" in2="shape" result="effect1_innerShadow_67_2127"/>
<feColorMatrix in="SourceAlpha" type="matrix" values="0 0 0 0 0 0 0 0 0 0 0 0 0 0 0 0 0 0 127 0" result="hardAlpha"/>
<feOffset dy="1.675"/>
<feGaussianBlur stdDeviation="4.1875"/>
<feComposite in2="hardAlpha" operator="arithmetic" k2="-1" k3="1"/>
<feColorMatrix type="matrix" values="0 0 0 0 1 0 0 0 0 1 0 0 0 0 1 0 0 0 0.58 0"/>
<feBlend mode="normal" in2="effect1_innerShadow_67_2127" result="effect2_innerShadow_67_2127"/>
</filter>
<filter id="filter2_ii_67_2127" x="274" y="0" width="234.375" height="239.4" filterUnits="userSpaceOnUse" color-interpolation-filters="sRGB">
<feFlood flood-opacity="0" result="BackgroundImageFix"/>
<feBlend mode="normal" in="SourceGraphic" in2="BackgroundImageFix" result="shape"/>
<feColorMatrix in="SourceAlpha" type="matrix" values="0 0 0 0 0 0 0 0 0 0 0 0 0 0 0 0 0 0 127 0" result="hardAlpha"/>
<feOffset dx="8.375" dy="13.4"/>
<feGaussianBlur stdDeviation="8.375"/>
<feComposite in2="hardAlpha" operator="arithmetic" k2="-1" k3="1"/>
<feColorMatrix type="matrix" values="0 0 0 0 0.510417 0 0 0 0 0.0208333 0 0 0 0 1 0 0 0 0.95 0"/>
<feBlend mode="normal" in2="shape" result="effect1_innerShadow_67_2127"/>
<feColorMatrix in="SourceAlpha" type="matrix" values="0 0 0 0 0 0 0 0 0 0 0 0 0 0 0 0 0 0 127 0" result="hardAlpha"/>
<feOffset dy="1.675"/>
<feGaussianBlur stdDeviation="4.1875"/>
<feComposite in2="hardAlpha" operator="arithmetic" k2="-1" k3="1"/>
<feColorMatrix type="matrix" values="0 0 0 0 1 0 0 0 0 1 0 0 0 0 1 0 0 0 0.58 0"/>
<feBlend mode="normal" in2="effect1_innerShadow_67_2127" result="effect2_innerShadow_67_2127"/>
</filter>
<filter id="filter3_ii_67_2127" x="390.097" y="189.767" width="307.181" height="312.866" filterUnits="userSpaceOnUse" color-interpolation-filters="sRGB">
<feFlood flood-opacity="0" result="BackgroundImageFix"/>
<feBlend mode="normal" in="SourceGraphic" in2="BackgroundImageFix" result="shape"/>
<feColorMatrix in="SourceAlpha" type="matrix" values="0 0 0 0 0 0 0 0 0 0 0 0 0 0 0 0 0 0 127 0" result="hardAlpha"/>
<feOffset dx="8.375" dy="13.4"/>
<feGaussianBlur stdDeviation="8.375"/>
<feComposite in2="hardAlpha" operator="arithmetic" k2="-1" k3="1"/>
<feColorMatrix type="matrix" values="0 0 0 0 0.510417 0 0 0 0 0.0208333 0 0 0 0 1 0 0 0 0.95 0"/>
<feBlend mode="normal" in2="shape" result="effect1_innerShadow_67_2127"/>
<feColorMatrix in="SourceAlpha" type="matrix" values="0 0 0 0 0 0 0 0 0 0 0 0 0 0 0 0 0 0 127 0" result="hardAlpha"/>
<feOffset dy="1.675"/>
<feGaussianBlur stdDeviation="4.1875"/>
<feComposite in2="hardAlpha" operator="arithmetic" k2="-1" k3="1"/>
<feColorMatrix type="matrix" values="0 0 0 0 1 0 0 0 0 1 0 0 0 0 1 0 0 0 0.58 0"/>
<feBlend mode="normal" in2="effect1_innerShadow_67_2127" result="effect2_innerShadow_67_2127"/>
</filter>
<radialGradient id="paint0_radial_67_2127" cx="0" cy="0" r="1" gradientUnits="userSpaceOnUse" gradientTransform="translate(234.591 209.325) rotate(111.016) scale(307.294 307.799)">
<stop stop-color="#3244E8"/>
<stop offset="1" stop-color="#000210" stop-opacity="0"/>
</radialGradient>
<radialGradient id="paint1_radial_67_2127" cx="0" cy="0" r="1" gradientUnits="userSpaceOnUse" gradientTransform="translate(362.104 451.512) rotate(110.973) scale(232.354)">
<stop stop-color="#3244E8"/>
<stop offset="1" stop-color="#000210" stop-opacity="0"/>
</radialGradient>
<radialGradient id="paint2_radial_67_2127" cx="0" cy="0" r="1" gradientUnits="userSpaceOnUse" gradientTransform="translate(433.104 70.512) rotate(110.973) scale(232.354)">
<stop stop-color="#3244E8"/>
<stop offset="1" stop-color="#000210" stop-opacity="0"/>
</radialGradient>
<radialGradient id="paint3_radial_67_2127" cx="0" cy="0" r="1" gradientUnits="userSpaceOnUse" gradientTransform="translate(600.591 283.325) rotate(111.016) scale(307.294 307.799)">
<stop stop-color="#3244E8"/>
<stop offset="1" stop-color="#000210" stop-opacity="0"/>
</radialGradient>
</defs>
</svg>
