<svg width="226" height="226" viewBox="0 0 226 226" fill="none" xmlns="http://www.w3.org/2000/svg">
<g filter="url(#filter0_ii_99_2525)">
<ellipse cx="113" cy="113" rx="113" ry="113" transform="rotate(90 113 113)" fill="#030092"/>
<ellipse cx="113" cy="113" rx="113" ry="113" transform="rotate(90 113 113)" fill="url(#paint0_radial_99_2525)"/>
</g>
<path d="M30.7484 156C30.6017 156 30.5284 155.927 30.5284 155.78V140.82C30.5284 140.673 30.6017 140.6 30.7484 140.6H31.8704C32.017 140.6 32.0904 140.673 32.0904 140.82V155.78C32.0904 155.927 32.017 156 31.8704 156H30.7484ZM40.5077 145.946C40.5077 146.093 40.4344 146.166 40.2877 146.166H37.8017C37.743 146.166 37.7137 146.195 37.7137 146.254V152.744C37.7137 153.448 37.8677 153.947 38.1757 154.24C38.4984 154.519 38.997 154.658 39.6717 154.658H40.2217C40.3684 154.658 40.4417 154.731 40.4417 154.878V155.78C40.4417 155.927 40.3684 156 40.2217 156C40.0457 156.015 39.7744 156.022 39.4077 156.022C38.3517 156.022 37.5524 155.824 37.0097 155.428C36.467 155.032 36.1957 154.299 36.1957 153.228V146.254C36.1957 146.195 36.1664 146.166 36.1077 146.166H34.7657C34.619 146.166 34.5457 146.093 34.5457 145.946V145.088C34.5457 144.941 34.619 144.868 34.7657 144.868H36.1077C36.1664 144.868 36.1957 144.839 36.1957 144.78V142.228C36.1957 142.081 36.269 142.008 36.4157 142.008H37.4937C37.6404 142.008 37.7137 142.081 37.7137 142.228V144.78C37.7137 144.839 37.743 144.868 37.8017 144.868H40.2877C40.4344 144.868 40.5077 144.941 40.5077 145.088V145.946ZM51.3411 148.564C51.3998 148.975 51.4291 149.488 51.4291 150.104V150.808C51.4291 150.955 51.3558 151.028 51.2091 151.028H44.1031C44.0444 151.028 44.0151 151.057 44.0151 151.116C44.0444 151.923 44.0884 152.443 44.1471 152.678C44.3084 153.338 44.6531 153.859 45.1811 154.24C45.7091 154.621 46.3838 154.812 47.2051 154.812C47.8211 154.812 48.3638 154.673 48.8331 154.394C49.3024 154.115 49.6691 153.719 49.9331 153.206C50.0211 153.074 50.1238 153.045 50.2411 153.118L51.0991 153.624C51.2165 153.697 51.2458 153.8 51.1871 153.932C50.8205 154.636 50.2705 155.193 49.5371 155.604C48.8038 156 47.9605 156.198 47.0071 156.198C45.9658 156.183 45.0931 155.934 44.3891 155.45C43.6851 154.966 43.1791 154.291 42.8711 153.426C42.6071 152.722 42.4751 151.71 42.4751 150.39C42.4751 149.774 42.4824 149.275 42.4971 148.894C42.5264 148.498 42.5851 148.146 42.6731 147.838C42.9224 146.885 43.4211 146.122 44.1691 145.55C44.9318 144.978 45.8484 144.692 46.9191 144.692C48.2538 144.692 49.2804 145.029 49.9991 145.704C50.7178 146.379 51.1651 147.332 51.3411 148.564ZM46.9191 146.056C46.2005 146.056 45.5991 146.247 45.1151 146.628C44.6458 146.995 44.3378 147.493 44.1911 148.124C44.1031 148.432 44.0444 148.931 44.0151 149.62C44.0151 149.679 44.0444 149.708 44.1031 149.708H49.8011C49.8598 149.708 49.8891 149.679 49.8891 149.62C49.8598 148.96 49.8158 148.491 49.7571 148.212C49.5958 147.552 49.2658 147.031 48.7671 146.65C48.2831 146.254 47.6671 146.056 46.9191 146.056ZM65.3996 144.714C66.4996 144.714 67.3649 145.044 67.9956 145.704C68.6409 146.364 68.9636 147.266 68.9636 148.41V155.78C68.9636 155.927 68.8903 156 68.7436 156H67.6436C67.4969 156 67.4236 155.927 67.4236 155.78V148.718C67.4236 147.911 67.1889 147.273 66.7196 146.804C66.2649 146.32 65.6636 146.078 64.9156 146.078C64.1383 146.078 63.5076 146.313 63.0236 146.782C62.5543 147.251 62.3196 147.882 62.3196 148.674V155.78C62.3196 155.927 62.2463 156 62.0996 156H60.9776C60.8309 156 60.7576 155.927 60.7576 155.78V148.718C60.7576 147.911 60.5303 147.273 60.0756 146.804C59.6209 146.32 59.0123 146.078 58.2496 146.078C57.4723 146.078 56.8489 146.313 56.3796 146.782C55.9249 147.251 55.6976 147.882 55.6976 148.674V155.78C55.6976 155.927 55.6243 156 55.4776 156H54.3556C54.2089 156 54.1356 155.927 54.1356 155.78V145.088C54.1356 144.941 54.2089 144.868 54.3556 144.868H55.4776C55.6243 144.868 55.6976 144.941 55.6976 145.088V145.968C55.6976 145.997 55.7049 146.019 55.7196 146.034C55.7489 146.034 55.7783 146.019 55.8076 145.99C56.1303 145.565 56.5409 145.249 57.0396 145.044C57.5529 144.824 58.1176 144.714 58.7336 144.714C59.4963 144.714 60.1489 144.868 60.6916 145.176C61.2343 145.484 61.6449 145.931 61.9236 146.518C61.9529 146.591 61.9896 146.591 62.0336 146.518C62.3563 145.917 62.8109 145.469 63.3976 145.176C63.9843 144.868 64.6516 144.714 65.3996 144.714ZM75.5849 156.11C74.7635 156.11 74.0302 155.978 73.3849 155.714C72.7542 155.45 72.2629 155.098 71.9109 154.658C71.5735 154.218 71.4049 153.727 71.4049 153.184V152.92C71.4049 152.773 71.4782 152.7 71.6249 152.7H72.6809C72.8275 152.7 72.9009 152.773 72.9009 152.92V153.096C72.9009 153.58 73.1502 154.005 73.6489 154.372C74.1622 154.724 74.8002 154.9 75.5629 154.9C76.3255 154.9 76.9415 154.731 77.4109 154.394C77.8802 154.042 78.1149 153.602 78.1149 153.074C78.1149 152.707 77.9902 152.407 77.7409 152.172C77.5062 151.937 77.2202 151.754 76.8829 151.622C76.5602 151.49 76.0542 151.321 75.3649 151.116C74.5435 150.881 73.8689 150.647 73.3409 150.412C72.8129 150.177 72.3655 149.855 71.9989 149.444C71.6469 149.019 71.4709 148.483 71.4709 147.838C71.4709 146.899 71.8375 146.151 72.5709 145.594C73.3042 145.037 74.2722 144.758 75.4749 144.758C76.2815 144.758 76.9929 144.89 77.6089 145.154C78.2395 145.418 78.7235 145.785 79.0609 146.254C79.3982 146.709 79.5669 147.222 79.5669 147.794V147.86C79.5669 148.007 79.4935 148.08 79.3469 148.08H78.3129C78.1662 148.08 78.0929 148.007 78.0929 147.86V147.794C78.0929 147.295 77.8509 146.877 77.3669 146.54C76.8975 146.203 76.2595 146.034 75.4529 146.034C74.7049 146.034 74.1035 146.188 73.6489 146.496C73.1942 146.789 72.9669 147.2 72.9669 147.728C72.9669 148.227 73.1869 148.608 73.6269 148.872C74.0669 149.136 74.7489 149.4 75.6729 149.664C76.5235 149.913 77.2129 150.148 77.7409 150.368C78.2689 150.588 78.7235 150.911 79.1049 151.336C79.4862 151.747 79.6769 152.289 79.6769 152.964C79.6769 153.917 79.3029 154.68 78.5549 155.252C77.8069 155.824 76.8169 156.11 75.5849 156.11ZM87.1849 142.844C86.8329 142.844 86.5396 142.727 86.3049 142.492C86.0703 142.257 85.9529 141.964 85.9529 141.612C85.9529 141.245 86.0703 140.952 86.3049 140.732C86.5396 140.497 86.8329 140.38 87.1849 140.38C87.5369 140.38 87.8303 140.497 88.0649 140.732C88.2996 140.952 88.4169 141.245 88.4169 141.612C88.4169 141.964 88.2996 142.257 88.0649 142.492C87.8303 142.727 87.5369 142.844 87.1849 142.844ZM86.5689 155.978C86.4223 155.978 86.3489 155.905 86.3489 155.758V145.066C86.3489 144.919 86.4223 144.846 86.5689 144.846H87.6909C87.8376 144.846 87.9109 144.919 87.9109 145.066V155.758C87.9109 155.905 87.8376 155.978 87.6909 155.978H86.5689ZM95.9564 144.714C97.1297 144.714 98.061 145.059 98.7504 145.748C99.4544 146.437 99.8064 147.361 99.8064 148.52V155.78C99.8064 155.927 99.733 156 99.5864 156H98.4644C98.3177 156 98.2444 155.927 98.2444 155.78V148.828C98.2444 148.021 97.995 147.361 97.4964 146.848C97.0124 146.335 96.3817 146.078 95.6044 146.078C94.7977 146.078 94.145 146.327 93.6464 146.826C93.1477 147.325 92.8984 147.977 92.8984 148.784V155.78C92.8984 155.927 92.825 156 92.6784 156H91.5564C91.4097 156 91.3364 155.927 91.3364 155.78V145.088C91.3364 144.941 91.4097 144.868 91.5564 144.868H92.6784C92.825 144.868 92.8984 144.941 92.8984 145.088V146.034C92.8984 146.063 92.9057 146.085 92.9204 146.1C92.9497 146.115 92.9717 146.107 92.9864 146.078C93.6317 145.169 94.6217 144.714 95.9564 144.714ZM111.794 156.198C110.767 156.198 109.865 156 109.088 155.604C108.311 155.193 107.702 154.621 107.262 153.888C106.837 153.14 106.624 152.282 106.624 151.314V145.264C106.624 144.311 106.837 143.467 107.262 142.734C107.702 142.001 108.311 141.436 109.088 141.04C109.865 140.629 110.767 140.424 111.794 140.424C112.821 140.424 113.723 140.622 114.5 141.018C115.277 141.414 115.879 141.971 116.304 142.69C116.744 143.409 116.964 144.237 116.964 145.176C116.964 145.249 116.942 145.308 116.898 145.352C116.854 145.396 116.803 145.418 116.744 145.418L115.622 145.484C115.475 145.484 115.402 145.418 115.402 145.286V145.22C115.402 144.179 115.072 143.35 114.412 142.734C113.752 142.103 112.879 141.788 111.794 141.788C110.709 141.788 109.836 142.103 109.176 142.734C108.516 143.365 108.186 144.193 108.186 145.22V151.38C108.186 152.407 108.516 153.235 109.176 153.866C109.836 154.497 110.709 154.812 111.794 154.812C112.879 154.812 113.752 154.504 114.412 153.888C115.072 153.257 115.402 152.421 115.402 151.38V151.336C115.402 151.204 115.475 151.138 115.622 151.138L116.744 151.204C116.891 151.204 116.964 151.27 116.964 151.402C116.964 152.355 116.744 153.199 116.304 153.932C115.879 154.651 115.277 155.208 114.5 155.604C113.723 156 112.821 156.198 111.794 156.198ZM123.988 156.176C122.932 156.176 122.023 155.905 121.26 155.362C120.497 154.819 119.969 154.071 119.676 153.118C119.471 152.443 119.368 151.541 119.368 150.412C119.368 149.283 119.471 148.388 119.676 147.728C119.955 146.789 120.475 146.049 121.238 145.506C122.001 144.963 122.925 144.692 124.01 144.692C125.051 144.692 125.946 144.963 126.694 145.506C127.457 146.049 127.977 146.782 128.256 147.706C128.461 148.337 128.564 149.239 128.564 150.412C128.564 151.6 128.461 152.502 128.256 153.118C127.977 154.071 127.457 154.819 126.694 155.362C125.946 155.905 125.044 156.176 123.988 156.176ZM123.988 154.812C124.692 154.812 125.293 154.621 125.792 154.24C126.291 153.844 126.628 153.316 126.804 152.656C126.936 152.128 127.002 151.387 127.002 150.434C127.002 149.466 126.943 148.725 126.826 148.212C126.65 147.552 126.305 147.031 125.792 146.65C125.293 146.254 124.685 146.056 123.966 146.056C123.247 146.056 122.639 146.254 122.14 146.65C121.641 147.031 121.304 147.552 121.128 148.212C121.011 148.725 120.952 149.466 120.952 150.434C120.952 151.402 121.011 152.143 121.128 152.656C121.289 153.316 121.619 153.844 122.118 154.24C122.631 154.621 123.255 154.812 123.988 154.812ZM131.55 156C131.403 156 131.33 155.927 131.33 155.78V140.82C131.33 140.673 131.403 140.6 131.55 140.6H132.672C132.819 140.6 132.892 140.673 132.892 140.82V155.78C132.892 155.927 132.819 156 132.672 156H131.55ZM136.22 156C136.074 156 136 155.927 136 155.78V140.82C136 140.673 136.074 140.6 136.22 140.6H137.342C137.489 140.6 137.562 140.673 137.562 140.82V155.78C137.562 155.927 137.489 156 137.342 156H136.22ZM149.207 148.564C149.265 148.975 149.295 149.488 149.295 150.104V150.808C149.295 150.955 149.221 151.028 149.075 151.028H141.969C141.91 151.028 141.881 151.057 141.881 151.116C141.91 151.923 141.954 152.443 142.013 152.678C142.174 153.338 142.519 153.859 143.047 154.24C143.575 154.621 144.249 154.812 145.071 154.812C145.687 154.812 146.229 154.673 146.699 154.394C147.168 154.115 147.535 153.719 147.799 153.206C147.887 153.074 147.989 153.045 148.107 153.118L148.965 153.624C149.082 153.697 149.111 153.8 149.053 153.932C148.686 154.636 148.136 155.193 147.403 155.604C146.669 156 145.826 156.198 144.873 156.198C143.831 156.183 142.959 155.934 142.255 155.45C141.551 154.966 141.045 154.291 140.737 153.426C140.473 152.722 140.341 151.71 140.341 150.39C140.341 149.774 140.348 149.275 140.363 148.894C140.392 148.498 140.451 148.146 140.539 147.838C140.788 146.885 141.287 146.122 142.035 145.55C142.797 144.978 143.714 144.692 144.785 144.692C146.119 144.692 147.146 145.029 147.865 145.704C148.583 146.379 149.031 147.332 149.207 148.564ZM144.785 146.056C144.066 146.056 143.465 146.247 142.981 146.628C142.511 146.995 142.203 147.493 142.057 148.124C141.969 148.432 141.91 148.931 141.881 149.62C141.881 149.679 141.91 149.708 141.969 149.708H147.667C147.725 149.708 147.755 149.679 147.755 149.62C147.725 148.96 147.681 148.491 147.623 148.212C147.461 147.552 147.131 147.031 146.633 146.65C146.149 146.254 145.533 146.056 144.785 146.056ZM156.203 156.176C155.147 156.176 154.238 155.905 153.475 155.362C152.727 154.805 152.214 154.057 151.935 153.118C151.745 152.473 151.649 151.563 151.649 150.39C151.649 149.334 151.745 148.439 151.935 147.706C152.199 146.797 152.713 146.071 153.475 145.528C154.238 144.971 155.147 144.692 156.203 144.692C157.274 144.692 158.198 144.963 158.975 145.506C159.767 146.049 160.281 146.723 160.515 147.53C160.589 147.794 160.633 148.014 160.647 148.19V148.234C160.647 148.337 160.581 148.403 160.449 148.432L159.349 148.586H159.305C159.203 148.586 159.137 148.52 159.107 148.388L159.041 148.058C158.909 147.501 158.587 147.031 158.073 146.65C157.56 146.254 156.937 146.056 156.203 146.056C155.47 146.056 154.854 146.254 154.355 146.65C153.871 147.031 153.556 147.545 153.409 148.19C153.277 148.747 153.211 149.488 153.211 150.412C153.211 151.38 153.277 152.128 153.409 152.656C153.556 153.316 153.871 153.844 154.355 154.24C154.854 154.621 155.47 154.812 156.203 154.812C156.922 154.812 157.538 154.629 158.051 154.262C158.579 153.881 158.909 153.397 159.041 152.81V152.722L159.063 152.634C159.078 152.487 159.166 152.429 159.327 152.458L160.405 152.634C160.552 152.663 160.618 152.744 160.603 152.876L160.515 153.316C160.295 154.167 159.789 154.856 158.997 155.384C158.205 155.912 157.274 156.176 156.203 156.176ZM168.025 145.946C168.025 146.093 167.952 146.166 167.805 146.166H165.319C165.26 146.166 165.231 146.195 165.231 146.254V152.744C165.231 153.448 165.385 153.947 165.693 154.24C166.016 154.519 166.514 154.658 167.189 154.658H167.739C167.886 154.658 167.959 154.731 167.959 154.878V155.78C167.959 155.927 167.886 156 167.739 156C167.563 156.015 167.292 156.022 166.925 156.022C165.869 156.022 165.07 155.824 164.527 155.428C163.984 155.032 163.713 154.299 163.713 153.228V146.254C163.713 146.195 163.684 146.166 163.625 146.166H162.283C162.136 146.166 162.063 146.093 162.063 145.946V145.088C162.063 144.941 162.136 144.868 162.283 144.868H163.625C163.684 144.868 163.713 144.839 163.713 144.78V142.228C163.713 142.081 163.786 142.008 163.933 142.008H165.011C165.158 142.008 165.231 142.081 165.231 142.228V144.78C165.231 144.839 165.26 144.868 165.319 144.868H167.805C167.952 144.868 168.025 144.941 168.025 145.088V145.946ZM171.701 142.844C171.349 142.844 171.055 142.727 170.821 142.492C170.586 142.257 170.469 141.964 170.469 141.612C170.469 141.245 170.586 140.952 170.821 140.732C171.055 140.497 171.349 140.38 171.701 140.38C172.053 140.38 172.346 140.497 172.581 140.732C172.815 140.952 172.933 141.245 172.933 141.612C172.933 141.964 172.815 142.257 172.581 142.492C172.346 142.727 172.053 142.844 171.701 142.844ZM171.085 155.978C170.938 155.978 170.865 155.905 170.865 155.758V145.066C170.865 144.919 170.938 144.846 171.085 144.846H172.207C172.353 144.846 172.427 144.919 172.427 145.066V155.758C172.427 155.905 172.353 155.978 172.207 155.978H171.085ZM180.098 156.176C179.042 156.176 178.133 155.905 177.37 155.362C176.607 154.819 176.079 154.071 175.786 153.118C175.581 152.443 175.478 151.541 175.478 150.412C175.478 149.283 175.581 148.388 175.786 147.728C176.065 146.789 176.585 146.049 177.348 145.506C178.111 144.963 179.035 144.692 180.12 144.692C181.161 144.692 182.056 144.963 182.804 145.506C183.567 146.049 184.087 146.782 184.366 147.706C184.571 148.337 184.674 149.239 184.674 150.412C184.674 151.6 184.571 152.502 184.366 153.118C184.087 154.071 183.567 154.819 182.804 155.362C182.056 155.905 181.154 156.176 180.098 156.176ZM180.098 154.812C180.802 154.812 181.403 154.621 181.902 154.24C182.401 153.844 182.738 153.316 182.914 152.656C183.046 152.128 183.112 151.387 183.112 150.434C183.112 149.466 183.053 148.725 182.936 148.212C182.76 147.552 182.415 147.031 181.902 146.65C181.403 146.254 180.795 146.056 180.076 146.056C179.357 146.056 178.749 146.254 178.25 146.65C177.751 147.031 177.414 147.552 177.238 148.212C177.121 148.725 177.062 149.466 177.062 150.434C177.062 151.402 177.121 152.143 177.238 152.656C177.399 153.316 177.729 153.844 178.228 154.24C178.741 154.621 179.365 154.812 180.098 154.812ZM192.06 144.714C193.234 144.714 194.165 145.059 194.854 145.748C195.558 146.437 195.91 147.361 195.91 148.52V155.78C195.91 155.927 195.837 156 195.69 156H194.568C194.422 156 194.348 155.927 194.348 155.78V148.828C194.348 148.021 194.099 147.361 193.6 146.848C193.116 146.335 192.486 146.078 191.708 146.078C190.902 146.078 190.249 146.327 189.75 146.826C189.252 147.325 189.002 147.977 189.002 148.784V155.78C189.002 155.927 188.929 156 188.782 156H187.66C187.514 156 187.44 155.927 187.44 155.78V145.088C187.44 144.941 187.514 144.868 187.66 144.868H188.782C188.929 144.868 189.002 144.941 189.002 145.088V146.034C189.002 146.063 189.01 146.085 189.024 146.1C189.054 146.115 189.076 146.107 189.09 146.078C189.736 145.169 190.726 144.714 192.06 144.714Z" fill="#8B8ACA"/>
<path d="M76.6977 79.362C76.8777 79.254 77.1477 79.2 77.5077 79.2H84.0417C84.2217 79.2 84.3657 79.272 84.4737 79.416C84.6177 79.524 84.6897 79.668 84.6897 79.848V116.352C84.6897 116.532 84.6177 116.694 84.4737 116.838C84.3657 116.946 84.2217 117 84.0417 117H77.7237C77.5437 117 77.3817 116.946 77.2377 116.838C77.1297 116.694 77.0757 116.532 77.0757 116.352V86.76C77.0757 86.688 77.0397 86.616 76.9677 86.544C76.8957 86.472 76.8237 86.454 76.7517 86.49L71.4057 87.948L71.1897 88.002C70.8657 88.002 70.7037 87.804 70.7037 87.408L70.5417 82.764C70.5417 82.404 70.7037 82.152 71.0277 82.008L76.6977 79.362ZM96.1566 79.362C96.3366 79.254 96.6066 79.2 96.9666 79.2H103.501C103.681 79.2 103.825 79.272 103.933 79.416C104.077 79.524 104.149 79.668 104.149 79.848V116.352C104.149 116.532 104.077 116.694 103.933 116.838C103.825 116.946 103.681 117 103.501 117H97.1826C97.0026 117 96.8406 116.946 96.6966 116.838C96.5886 116.694 96.5346 116.532 96.5346 116.352V86.76C96.5346 86.688 96.4986 86.616 96.4266 86.544C96.3546 86.472 96.2826 86.454 96.2106 86.49L90.8646 87.948L90.6486 88.002C90.3246 88.002 90.1626 87.804 90.1626 87.408L90.0006 82.764C90.0006 82.404 90.1626 82.152 90.4866 82.008L96.1566 79.362ZM115.616 79.362C115.796 79.254 116.066 79.2 116.426 79.2H122.96C123.14 79.2 123.284 79.272 123.392 79.416C123.536 79.524 123.608 79.668 123.608 79.848V116.352C123.608 116.532 123.536 116.694 123.392 116.838C123.284 116.946 123.14 117 122.96 117H116.642C116.462 117 116.3 116.946 116.156 116.838C116.048 116.694 115.994 116.532 115.994 116.352V86.76C115.994 86.688 115.958 86.616 115.886 86.544C115.814 86.472 115.742 86.454 115.67 86.49L110.324 87.948L110.108 88.002C109.784 88.002 109.622 87.804 109.622 87.408L109.46 82.764C109.46 82.404 109.622 82.152 109.946 82.008L115.616 79.362ZM141.941 117.594C137.981 117.594 134.849 116.496 132.545 114.3C130.241 112.068 129.089 109.044 129.089 105.228V90.972C129.089 87.228 130.241 84.258 132.545 82.062C134.849 79.866 137.981 78.768 141.941 78.768C145.901 78.768 149.033 79.866 151.337 82.062C153.677 84.258 154.847 87.228 154.847 90.972V105.228C154.847 109.044 153.677 112.068 151.337 114.3C149.033 116.496 145.901 117.594 141.941 117.594ZM141.941 111.06C143.561 111.06 144.839 110.574 145.775 109.602C146.747 108.594 147.233 107.262 147.233 105.606V90.756C147.233 89.1 146.747 87.786 145.775 86.814C144.839 85.806 143.561 85.302 141.941 85.302C140.357 85.302 139.079 85.806 138.107 86.814C137.171 87.786 136.703 89.1 136.703 90.756V105.606C136.703 107.262 137.171 108.594 138.107 109.602C139.079 110.574 140.357 111.06 141.941 111.06Z" fill="white"/>
<defs>
<filter id="filter0_ii_99_2525" x="1.52588e-05" y="0" width="234.375" height="239.4" filterUnits="userSpaceOnUse" color-interpolation-filters="sRGB">
<feFlood flood-opacity="0" result="BackgroundImageFix"/>
<feBlend mode="normal" in="SourceGraphic" in2="BackgroundImageFix" result="shape"/>
<feColorMatrix in="SourceAlpha" type="matrix" values="0 0 0 0 0 0 0 0 0 0 0 0 0 0 0 0 0 0 127 0" result="hardAlpha"/>
<feOffset dx="8.375" dy="13.4"/>
<feGaussianBlur stdDeviation="8.375"/>
<feComposite in2="hardAlpha" operator="arithmetic" k2="-1" k3="1"/>
<feColorMatrix type="matrix" values="0 0 0 0 0.510417 0 0 0 0 0.0208333 0 0 0 0 1 0 0 0 0.95 0"/>
<feBlend mode="normal" in2="shape" result="effect1_innerShadow_99_2525"/>
<feColorMatrix in="SourceAlpha" type="matrix" values="0 0 0 0 0 0 0 0 0 0 0 0 0 0 0 0 0 0 127 0" result="hardAlpha"/>
<feOffset dy="1.675"/>
<feGaussianBlur stdDeviation="4.1875"/>
<feComposite in2="hardAlpha" operator="arithmetic" k2="-1" k3="1"/>
<feColorMatrix type="matrix" values="0 0 0 0 1 0 0 0 0 1 0 0 0 0 1 0 0 0 0.58 0"/>
<feBlend mode="normal" in2="effect1_innerShadow_99_2525" result="effect2_innerShadow_99_2525"/>
</filter>
<radialGradient id="paint0_radial_99_2525" cx="0" cy="0" r="1" gradientUnits="userSpaceOnUse" gradientTransform="translate(159.104 70.512) rotate(110.973) scale(232.354)">
<stop stop-color="#3244E8"/>
<stop offset="1" stop-color="#000210" stop-opacity="0"/>
</radialGradient>
</defs>
</svg>
