<svg width="347" height="347" viewBox="0 0 347 347" fill="none" xmlns="http://www.w3.org/2000/svg">
<g filter="url(#filter0_ii_99_2499)">
<ellipse cx="173.5" cy="173.5" rx="149.733" ry="149.403" transform="rotate(90 173.5 173.5)" fill="#030092"/>
<ellipse cx="173.5" cy="173.5" rx="149.733" ry="149.403" transform="rotate(90 173.5 173.5)" fill="url(#paint0_radial_99_2499)"/>
</g>
<path d="M131.291 160.288C132.197 162.373 132.651 164.776 132.651 167.496C132.651 169.944 132.243 172.211 131.427 174.296C130.339 177.197 128.503 179.464 125.919 181.096C123.38 182.728 120.365 183.544 116.875 183.544C113.429 183.544 110.392 182.683 107.763 180.96C105.179 179.237 103.32 176.903 102.187 173.956C101.552 172.188 101.189 170.284 101.099 168.244C101.099 167.7 101.371 167.428 101.915 167.428H109.939C110.483 167.428 110.755 167.7 110.755 168.244C110.936 169.74 111.185 170.851 111.503 171.576C111.911 172.755 112.568 173.684 113.475 174.364C114.427 174.999 115.537 175.316 116.807 175.316C119.345 175.316 121.091 174.205 122.043 171.984C122.677 170.624 122.995 169.037 122.995 167.224C122.995 165.093 122.655 163.348 121.975 161.988C120.932 159.857 119.187 158.792 116.739 158.792C116.24 158.792 115.719 158.951 115.175 159.268C114.631 159.54 113.973 159.948 113.203 160.492C113.021 160.628 112.84 160.696 112.659 160.696C112.387 160.696 112.183 160.56 112.047 160.288L108.035 154.644C107.944 154.508 107.899 154.349 107.899 154.168C107.899 153.896 107.989 153.669 108.171 153.488L118.983 144.036C119.073 143.945 119.096 143.855 119.051 143.764C119.051 143.673 118.983 143.628 118.847 143.628H102.867C102.64 143.628 102.436 143.56 102.255 143.424C102.119 143.243 102.051 143.039 102.051 142.812V136.216C102.051 135.989 102.119 135.808 102.255 135.672C102.436 135.491 102.64 135.4 102.867 135.4H131.223C131.449 135.4 131.631 135.491 131.767 135.672C131.948 135.808 132.039 135.989 132.039 136.216V143.696C132.039 144.059 131.88 144.399 131.563 144.716L122.655 152.876C122.564 152.967 122.519 153.057 122.519 153.148C122.564 153.239 122.677 153.284 122.859 153.284C126.803 154.055 129.613 156.389 131.291 160.288ZM168.813 160.288C169.72 162.373 170.173 164.776 170.173 167.496C170.173 169.944 169.765 172.211 168.949 174.296C167.861 177.197 166.025 179.464 163.441 181.096C160.903 182.728 157.888 183.544 154.397 183.544C150.952 183.544 147.915 182.683 145.285 180.96C142.701 179.237 140.843 176.903 139.709 173.956C139.075 172.188 138.712 170.284 138.621 168.244C138.621 167.7 138.893 167.428 139.437 167.428H147.461C148.005 167.428 148.277 167.7 148.277 168.244C148.459 169.74 148.708 170.851 149.025 171.576C149.433 172.755 150.091 173.684 150.997 174.364C151.949 174.999 153.06 175.316 154.329 175.316C156.868 175.316 158.613 174.205 159.565 171.984C160.2 170.624 160.517 169.037 160.517 167.224C160.517 165.093 160.177 163.348 159.497 161.988C158.455 159.857 156.709 158.792 154.261 158.792C153.763 158.792 153.241 158.951 152.697 159.268C152.153 159.54 151.496 159.948 150.725 160.492C150.544 160.628 150.363 160.696 150.181 160.696C149.909 160.696 149.705 160.56 149.569 160.288L145.557 154.644C145.467 154.508 145.421 154.349 145.421 154.168C145.421 153.896 145.512 153.669 145.693 153.488L156.505 144.036C156.596 143.945 156.619 143.855 156.573 143.764C156.573 143.673 156.505 143.628 156.369 143.628H140.389C140.163 143.628 139.959 143.56 139.777 143.424C139.641 143.243 139.573 143.039 139.573 142.812V136.216C139.573 135.989 139.641 135.808 139.777 135.672C139.959 135.491 140.163 135.4 140.389 135.4H168.745C168.972 135.4 169.153 135.491 169.289 135.672C169.471 135.808 169.561 135.989 169.561 136.216V143.696C169.561 144.059 169.403 144.399 169.085 144.716L160.177 152.876C160.087 152.967 160.041 153.057 160.041 153.148C160.087 153.239 160.2 153.284 160.381 153.284C164.325 154.055 167.136 156.389 168.813 160.288ZM206.336 160.288C207.243 162.373 207.696 164.776 207.696 167.496C207.696 169.944 207.288 172.211 206.472 174.296C205.384 177.197 203.548 179.464 200.964 181.096C198.425 182.728 195.411 183.544 191.92 183.544C188.475 183.544 185.437 182.683 182.808 180.96C180.224 179.237 178.365 176.903 177.232 173.956C176.597 172.188 176.235 170.284 176.144 168.244C176.144 167.7 176.416 167.428 176.96 167.428H184.984C185.528 167.428 185.8 167.7 185.8 168.244C185.981 169.74 186.231 170.851 186.548 171.576C186.956 172.755 187.613 173.684 188.52 174.364C189.472 174.999 190.583 175.316 191.852 175.316C194.391 175.316 196.136 174.205 197.088 171.984C197.723 170.624 198.04 169.037 198.04 167.224C198.04 165.093 197.7 163.348 197.02 161.988C195.977 159.857 194.232 158.792 191.784 158.792C191.285 158.792 190.764 158.951 190.22 159.268C189.676 159.54 189.019 159.948 188.248 160.492C188.067 160.628 187.885 160.696 187.704 160.696C187.432 160.696 187.228 160.56 187.092 160.288L183.08 154.644C182.989 154.508 182.944 154.349 182.944 154.168C182.944 153.896 183.035 153.669 183.216 153.488L194.028 144.036C194.119 143.945 194.141 143.855 194.096 143.764C194.096 143.673 194.028 143.628 193.892 143.628H177.912C177.685 143.628 177.481 143.56 177.3 143.424C177.164 143.243 177.096 143.039 177.096 142.812V136.216C177.096 135.989 177.164 135.808 177.3 135.672C177.481 135.491 177.685 135.4 177.912 135.4H206.268C206.495 135.4 206.676 135.491 206.812 135.672C206.993 135.808 207.084 135.989 207.084 136.216V143.696C207.084 144.059 206.925 144.399 206.608 144.716L197.7 152.876C197.609 152.967 197.564 153.057 197.564 153.148C197.609 153.239 197.723 153.284 197.904 153.284C201.848 154.055 204.659 156.389 206.336 160.288ZM243.859 160.288C244.765 162.373 245.219 164.776 245.219 167.496C245.219 169.944 244.811 172.211 243.995 174.296C242.907 177.197 241.071 179.464 238.487 181.096C235.948 182.728 232.933 183.544 229.443 183.544C225.997 183.544 222.96 182.683 220.331 180.96C217.747 179.237 215.888 176.903 214.755 173.956C214.12 172.188 213.757 170.284 213.667 168.244C213.667 167.7 213.939 167.428 214.483 167.428H222.507C223.051 167.428 223.323 167.7 223.323 168.244C223.504 169.74 223.753 170.851 224.071 171.576C224.479 172.755 225.136 173.684 226.043 174.364C226.995 174.999 228.105 175.316 229.375 175.316C231.913 175.316 233.659 174.205 234.611 171.984C235.245 170.624 235.563 169.037 235.563 167.224C235.563 165.093 235.223 163.348 234.543 161.988C233.5 159.857 231.755 158.792 229.307 158.792C228.808 158.792 228.287 158.951 227.743 159.268C227.199 159.54 226.541 159.948 225.771 160.492C225.589 160.628 225.408 160.696 225.227 160.696C224.955 160.696 224.751 160.56 224.615 160.288L220.603 154.644C220.512 154.508 220.467 154.349 220.467 154.168C220.467 153.896 220.557 153.669 220.739 153.488L231.551 144.036C231.641 143.945 231.664 143.855 231.619 143.764C231.619 143.673 231.551 143.628 231.415 143.628H215.435C215.208 143.628 215.004 143.56 214.823 143.424C214.687 143.243 214.619 143.039 214.619 142.812V136.216C214.619 135.989 214.687 135.808 214.823 135.672C215.004 135.491 215.208 135.4 215.435 135.4H243.791C244.017 135.4 244.199 135.491 244.335 135.672C244.516 135.808 244.607 135.989 244.607 136.216V143.696C244.607 144.059 244.448 144.399 244.131 144.716L235.223 152.876C235.132 152.967 235.087 153.057 235.087 153.148C235.132 153.239 235.245 153.284 235.427 153.284C239.371 154.055 242.181 156.389 243.859 160.288Z" fill="white"/>
<path d="M129.205 209.6C129.352 209.6 129.425 209.673 129.425 209.82V210.766C129.425 210.913 129.352 210.986 129.205 210.986H124.893C124.835 210.986 124.805 211.015 124.805 211.074V224.78C124.805 224.927 124.732 225 124.585 225H123.463C123.317 225 123.243 224.927 123.243 224.78V211.074C123.243 211.015 123.214 210.986 123.155 210.986H119.019C118.873 210.986 118.799 210.913 118.799 210.766V209.82C118.799 209.673 118.873 209.6 119.019 209.6H129.205ZM134.438 225.176C133.382 225.176 132.473 224.905 131.71 224.362C130.947 223.819 130.419 223.071 130.126 222.118C129.921 221.443 129.818 220.541 129.818 219.412C129.818 218.283 129.921 217.388 130.126 216.728C130.405 215.789 130.925 215.049 131.688 214.506C132.451 213.963 133.375 213.692 134.46 213.692C135.501 213.692 136.396 213.963 137.144 214.506C137.907 215.049 138.427 215.782 138.706 216.706C138.911 217.337 139.014 218.239 139.014 219.412C139.014 220.6 138.911 221.502 138.706 222.118C138.427 223.071 137.907 223.819 137.144 224.362C136.396 224.905 135.494 225.176 134.438 225.176ZM134.438 223.812C135.142 223.812 135.743 223.621 136.242 223.24C136.741 222.844 137.078 222.316 137.254 221.656C137.386 221.128 137.452 220.387 137.452 219.434C137.452 218.466 137.393 217.725 137.276 217.212C137.1 216.552 136.755 216.031 136.242 215.65C135.743 215.254 135.135 215.056 134.416 215.056C133.697 215.056 133.089 215.254 132.59 215.65C132.091 216.031 131.754 216.552 131.578 217.212C131.461 217.725 131.402 218.466 131.402 219.434C131.402 220.402 131.461 221.143 131.578 221.656C131.739 222.316 132.069 222.844 132.568 223.24C133.081 223.621 133.705 223.812 134.438 223.812ZM146.645 214.946C146.645 215.093 146.572 215.166 146.425 215.166H143.939C143.881 215.166 143.851 215.195 143.851 215.254V221.744C143.851 222.448 144.005 222.947 144.313 223.24C144.636 223.519 145.135 223.658 145.809 223.658H146.359C146.506 223.658 146.579 223.731 146.579 223.878V224.78C146.579 224.927 146.506 225 146.359 225C146.183 225.015 145.912 225.022 145.545 225.022C144.489 225.022 143.69 224.824 143.147 224.428C142.605 224.032 142.333 223.299 142.333 222.228V215.254C142.333 215.195 142.304 215.166 142.245 215.166H140.903C140.757 215.166 140.683 215.093 140.683 214.946V214.088C140.683 213.941 140.757 213.868 140.903 213.868H142.245C142.304 213.868 142.333 213.839 142.333 213.78V211.228C142.333 211.081 142.407 211.008 142.553 211.008H143.631C143.778 211.008 143.851 211.081 143.851 211.228V213.78C143.851 213.839 143.881 213.868 143.939 213.868H146.425C146.572 213.868 146.645 213.941 146.645 214.088V214.946ZM153.115 213.692C154.435 213.692 155.454 214.029 156.173 214.704C156.892 215.379 157.251 216.273 157.251 217.388V224.78C157.251 224.927 157.178 225 157.031 225H155.909C155.762 225 155.689 224.927 155.689 224.78V223.878C155.689 223.849 155.674 223.827 155.645 223.812C155.63 223.797 155.608 223.805 155.579 223.834C155.212 224.274 154.736 224.611 154.149 224.846C153.562 225.066 152.91 225.176 152.191 225.176C151.15 225.176 150.277 224.912 149.573 224.384C148.869 223.856 148.517 223.049 148.517 221.964C148.517 220.864 148.913 219.999 149.705 219.368C150.512 218.723 151.626 218.4 153.049 218.4H155.601C155.66 218.4 155.689 218.371 155.689 218.312V217.476C155.689 216.728 155.476 216.141 155.051 215.716C154.64 215.276 153.995 215.056 153.115 215.056C152.411 215.056 151.839 215.195 151.399 215.474C150.959 215.738 150.688 216.112 150.585 216.596C150.541 216.743 150.453 216.809 150.321 216.794L149.133 216.64C148.972 216.611 148.906 216.552 148.935 216.464C149.052 215.643 149.492 214.975 150.255 214.462C151.018 213.949 151.971 213.692 153.115 213.692ZM152.499 223.834C153.364 223.834 154.112 223.621 154.743 223.196C155.374 222.756 155.689 222.169 155.689 221.436V219.72C155.689 219.661 155.66 219.632 155.601 219.632H153.291C152.323 219.632 151.546 219.83 150.959 220.226C150.372 220.622 150.079 221.172 150.079 221.876C150.079 222.521 150.299 223.013 150.739 223.35C151.194 223.673 151.78 223.834 152.499 223.834ZM160.321 225C160.175 225 160.101 224.927 160.101 224.78V209.82C160.101 209.673 160.175 209.6 160.321 209.6H161.443C161.59 209.6 161.663 209.673 161.663 209.82V224.78C161.663 224.927 161.59 225 161.443 225H160.321ZM173.528 225.176C171.87 225.176 170.558 224.802 169.59 224.054C168.636 223.306 168.16 222.309 168.16 221.062V220.38C168.16 220.233 168.233 220.16 168.38 220.16H169.458C169.604 220.16 169.678 220.233 169.678 220.38V220.974C169.678 221.825 170.03 222.514 170.734 223.042C171.438 223.555 172.413 223.812 173.66 223.812C174.789 223.812 175.647 223.577 176.234 223.108C176.82 222.624 177.114 221.986 177.114 221.194C177.114 220.681 176.974 220.241 176.696 219.874C176.432 219.507 176.014 219.163 175.442 218.84C174.884 218.517 174.092 218.143 173.066 217.718C171.966 217.278 171.108 216.897 170.492 216.574C169.89 216.237 169.399 215.811 169.018 215.298C168.651 214.77 168.468 214.11 168.468 213.318C168.468 212.086 168.893 211.133 169.744 210.458C170.609 209.769 171.79 209.424 173.286 209.424C174.914 209.424 176.197 209.805 177.136 210.568C178.074 211.331 178.544 212.343 178.544 213.604V214.088C178.544 214.235 178.47 214.308 178.324 214.308H177.224C177.077 214.308 177.004 214.235 177.004 214.088V213.692C177.004 212.841 176.666 212.145 175.992 211.602C175.332 211.059 174.408 210.788 173.22 210.788C172.178 210.788 171.379 211.001 170.822 211.426C170.264 211.851 169.986 212.467 169.986 213.274C169.986 213.802 170.118 214.242 170.382 214.594C170.66 214.931 171.049 215.232 171.548 215.496C172.061 215.745 172.846 216.075 173.902 216.486C174.972 216.926 175.83 217.337 176.476 217.718C177.136 218.099 177.664 218.569 178.06 219.126C178.47 219.669 178.676 220.336 178.676 221.128C178.676 222.36 178.221 223.343 177.312 224.076C176.402 224.809 175.141 225.176 173.528 225.176ZM187.955 214.088C187.955 213.941 188.029 213.868 188.175 213.868H189.297C189.444 213.868 189.517 213.941 189.517 214.088V224.78C189.517 224.927 189.444 225 189.297 225H188.175C188.029 225 187.955 224.927 187.955 224.78V223.834C187.955 223.805 187.941 223.783 187.911 223.768C187.882 223.753 187.86 223.761 187.845 223.79C187.229 224.699 186.254 225.154 184.919 225.154C184.215 225.154 183.563 225.015 182.961 224.736C182.375 224.443 181.905 224.025 181.553 223.482C181.216 222.939 181.047 222.287 181.047 221.524V214.088C181.047 213.941 181.121 213.868 181.267 213.868H182.389C182.536 213.868 182.609 213.941 182.609 214.088V221.062C182.609 221.898 182.844 222.565 183.313 223.064C183.783 223.548 184.421 223.79 185.227 223.79C186.063 223.79 186.723 223.541 187.207 223.042C187.706 222.543 187.955 221.883 187.955 221.062V214.088ZM201.264 216.64C201.484 217.344 201.594 218.275 201.594 219.434C201.594 220.607 201.499 221.517 201.308 222.162C201.044 223.101 200.56 223.841 199.856 224.384C199.167 224.912 198.294 225.176 197.238 225.176C196.666 225.176 196.138 225.066 195.654 224.846C195.17 224.611 194.767 224.281 194.444 223.856C194.415 223.827 194.386 223.819 194.356 223.834C194.342 223.834 194.334 223.849 194.334 223.878V229.048C194.334 229.195 194.261 229.268 194.114 229.268H192.992C192.846 229.268 192.772 229.195 192.772 229.048V214.088C192.772 213.941 192.846 213.868 192.992 213.868H194.114C194.261 213.868 194.334 213.941 194.334 214.088V215.012C194.334 215.041 194.342 215.063 194.356 215.078C194.386 215.078 194.415 215.063 194.444 215.034C194.767 214.609 195.163 214.279 195.632 214.044C196.116 213.809 196.652 213.692 197.238 213.692C198.265 213.692 199.123 213.956 199.812 214.484C200.516 215.012 201 215.731 201.264 216.64ZM199.526 222.206C199.688 221.883 199.805 221.524 199.878 221.128C199.966 220.717 200.01 220.153 200.01 219.434C200.01 218.745 199.981 218.209 199.922 217.828C199.864 217.432 199.761 217.08 199.614 216.772C199.438 216.244 199.123 215.826 198.668 215.518C198.228 215.21 197.7 215.056 197.084 215.056C196.498 215.056 196.006 215.21 195.61 215.518C195.214 215.826 194.921 216.237 194.73 216.75C194.598 217.043 194.503 217.388 194.444 217.784C194.386 218.18 194.356 218.73 194.356 219.434C194.356 220.138 194.386 220.695 194.444 221.106C194.503 221.502 194.606 221.854 194.752 222.162C194.928 222.661 195.214 223.064 195.61 223.372C196.021 223.665 196.505 223.812 197.062 223.812C197.649 223.812 198.155 223.665 198.58 223.372C199.02 223.079 199.336 222.69 199.526 222.206ZM213.003 216.64C213.223 217.344 213.333 218.275 213.333 219.434C213.333 220.607 213.238 221.517 213.047 222.162C212.783 223.101 212.299 223.841 211.595 224.384C210.906 224.912 210.033 225.176 208.977 225.176C208.405 225.176 207.877 225.066 207.393 224.846C206.909 224.611 206.506 224.281 206.183 223.856C206.154 223.827 206.124 223.819 206.095 223.834C206.08 223.834 206.073 223.849 206.073 223.878V229.048C206.073 229.195 206 229.268 205.853 229.268H204.731C204.584 229.268 204.511 229.195 204.511 229.048V214.088C204.511 213.941 204.584 213.868 204.731 213.868H205.853C206 213.868 206.073 213.941 206.073 214.088V215.012C206.073 215.041 206.08 215.063 206.095 215.078C206.124 215.078 206.154 215.063 206.183 215.034C206.506 214.609 206.902 214.279 207.371 214.044C207.855 213.809 208.39 213.692 208.977 213.692C210.004 213.692 210.862 213.956 211.551 214.484C212.255 215.012 212.739 215.731 213.003 216.64ZM211.265 222.206C211.426 221.883 211.544 221.524 211.617 221.128C211.705 220.717 211.749 220.153 211.749 219.434C211.749 218.745 211.72 218.209 211.661 217.828C211.602 217.432 211.5 217.08 211.353 216.772C211.177 216.244 210.862 215.826 210.407 215.518C209.967 215.21 209.439 215.056 208.823 215.056C208.236 215.056 207.745 215.21 207.349 215.518C206.953 215.826 206.66 216.237 206.469 216.75C206.337 217.043 206.242 217.388 206.183 217.784C206.124 218.18 206.095 218.73 206.095 219.434C206.095 220.138 206.124 220.695 206.183 221.106C206.242 221.502 206.344 221.854 206.491 222.162C206.667 222.661 206.953 223.064 207.349 223.372C207.76 223.665 208.244 223.812 208.801 223.812C209.388 223.812 209.894 223.665 210.319 223.372C210.759 223.079 211.074 222.69 211.265 222.206ZM216.316 225C216.169 225 216.096 224.927 216.096 224.78V209.82C216.096 209.673 216.169 209.6 216.316 209.6H217.438C217.584 209.6 217.658 209.673 217.658 209.82V224.78C217.658 224.927 217.584 225 217.438 225H216.316ZM220.26 229.4C220.157 229.4 220.106 229.327 220.106 229.18V228.3C220.106 228.153 220.179 228.08 220.326 228.08H220.414C220.986 228.065 221.426 227.977 221.734 227.816C222.057 227.669 222.328 227.383 222.548 226.958C222.783 226.547 223.032 225.917 223.296 225.066C223.325 225.007 223.325 224.963 223.296 224.934L219.578 214.11L219.556 214.022C219.556 213.919 219.622 213.868 219.754 213.868H220.92C221.052 213.868 221.14 213.927 221.184 214.044L224.044 222.932C224.059 222.961 224.081 222.976 224.11 222.976C224.139 222.976 224.161 222.961 224.176 222.932L226.992 214.044C227.036 213.927 227.124 213.868 227.256 213.868H228.4C228.561 213.868 228.62 213.949 228.576 214.11L224.506 225.968C224.154 226.951 223.824 227.677 223.516 228.146C223.208 228.615 222.819 228.938 222.35 229.114C221.895 229.305 221.25 229.4 220.414 229.4H220.26Z" fill="#8B8ACA"/>
<defs>
<filter id="filter0_ii_99_2499" x="24.0973" y="23.7671" width="307.181" height="312.866" filterUnits="userSpaceOnUse" color-interpolation-filters="sRGB">
<feFlood flood-opacity="0" result="BackgroundImageFix"/>
<feBlend mode="normal" in="SourceGraphic" in2="BackgroundImageFix" result="shape"/>
<feColorMatrix in="SourceAlpha" type="matrix" values="0 0 0 0 0 0 0 0 0 0 0 0 0 0 0 0 0 0 127 0" result="hardAlpha"/>
<feOffset dx="8.375" dy="13.4"/>
<feGaussianBlur stdDeviation="8.375"/>
<feComposite in2="hardAlpha" operator="arithmetic" k2="-1" k3="1"/>
<feColorMatrix type="matrix" values="0 0 0 0 0.510417 0 0 0 0 0.0208333 0 0 0 0 1 0 0 0 0.95 0"/>
<feBlend mode="normal" in2="shape" result="effect1_innerShadow_99_2499"/>
<feColorMatrix in="SourceAlpha" type="matrix" values="0 0 0 0 0 0 0 0 0 0 0 0 0 0 0 0 0 0 127 0" result="hardAlpha"/>
<feOffset dy="1.675"/>
<feGaussianBlur stdDeviation="4.1875"/>
<feComposite in2="hardAlpha" operator="arithmetic" k2="-1" k3="1"/>
<feColorMatrix type="matrix" values="0 0 0 0 1 0 0 0 0 1 0 0 0 0 1 0 0 0 0.58 0"/>
<feBlend mode="normal" in2="effect1_innerShadow_99_2499" result="effect2_innerShadow_99_2499"/>
</filter>
<radialGradient id="paint0_radial_99_2499" cx="0" cy="0" r="1" gradientUnits="userSpaceOnUse" gradientTransform="translate(234.591 117.325) rotate(111.016) scale(307.294 307.799)">
<stop stop-color="#3244E8"/>
<stop offset="1" stop-color="#000210" stop-opacity="0"/>
</radialGradient>
</defs>
</svg>
