<svg width="226" height="226" viewBox="0 0 226 226" fill="none" xmlns="http://www.w3.org/2000/svg">
<g filter="url(#filter0_ii_99_2520)">
<ellipse cx="113" cy="113" rx="113" ry="113" transform="rotate(90 113 113)" fill="#030092"/>
<ellipse cx="113" cy="113" rx="113" ry="113" transform="rotate(90 113 113)" fill="url(#paint0_radial_99_2520)"/>
</g>
<path d="M65.1621 140.754C65.2354 140.651 65.3234 140.6 65.4261 140.6H66.5701C66.7167 140.6 66.7901 140.673 66.7901 140.82V155.78C66.7901 155.927 66.7167 156 66.5701 156H65.4481C65.3014 156 65.2281 155.927 65.2281 155.78V143.548C65.2281 143.504 65.2134 143.475 65.1841 143.46C65.1547 143.445 65.1327 143.46 65.1181 143.504L61.5321 149.004C61.4587 149.107 61.3707 149.158 61.2681 149.158H60.6961C60.5934 149.158 60.5054 149.114 60.4321 149.026L56.8461 143.57C56.8314 143.526 56.8094 143.511 56.7801 143.526C56.7507 143.541 56.7361 143.57 56.7361 143.614V155.78C56.7361 155.927 56.6627 156 56.5161 156H55.3941C55.2474 156 55.1741 155.927 55.1741 155.78V140.82C55.1741 140.673 55.2474 140.6 55.3941 140.6H56.5381C56.6554 140.6 56.7434 140.644 56.8021 140.732L60.9381 147.002C60.9527 147.017 60.9747 147.024 61.0041 147.024C61.0334 147.024 61.0554 147.017 61.0701 147.002L65.1621 140.754ZM71.2486 142.844C70.8966 142.844 70.6033 142.727 70.3686 142.492C70.134 142.257 70.0166 141.964 70.0166 141.612C70.0166 141.245 70.134 140.952 70.3686 140.732C70.6033 140.497 70.8966 140.38 71.2486 140.38C71.6006 140.38 71.894 140.497 72.1286 140.732C72.3633 140.952 72.4806 141.245 72.4806 141.612C72.4806 141.964 72.3633 142.257 72.1286 142.492C71.894 142.727 71.6006 142.844 71.2486 142.844ZM70.6326 155.978C70.486 155.978 70.4126 155.905 70.4126 155.758V145.066C70.4126 144.919 70.486 144.846 70.6326 144.846H71.7546C71.9013 144.846 71.9746 144.919 71.9746 145.066V155.758C71.9746 155.905 71.9013 155.978 71.7546 155.978H70.6326ZM80.02 144.714C81.1934 144.714 82.1247 145.059 82.814 145.748C83.518 146.437 83.87 147.361 83.87 148.52V155.78C83.87 155.927 83.7967 156 83.65 156H82.528C82.3814 156 82.308 155.927 82.308 155.78V148.828C82.308 148.021 82.0587 147.361 81.56 146.848C81.076 146.335 80.4454 146.078 79.668 146.078C78.8614 146.078 78.2087 146.327 77.71 146.826C77.2114 147.325 76.962 147.977 76.962 148.784V155.78C76.962 155.927 76.8887 156 76.742 156H75.62C75.4734 156 75.4 155.927 75.4 155.78V145.088C75.4 144.941 75.4734 144.868 75.62 144.868H76.742C76.8887 144.868 76.962 144.941 76.962 145.088V146.034C76.962 146.063 76.9694 146.085 76.984 146.1C77.0134 146.115 77.0354 146.107 77.05 146.078C77.6954 145.169 78.6854 144.714 80.02 144.714ZM91.8534 145.946C91.8534 146.093 91.7801 146.166 91.6334 146.166H89.1474C89.0887 146.166 89.0594 146.195 89.0594 146.254V152.744C89.0594 153.448 89.2134 153.947 89.5214 154.24C89.8441 154.519 90.3427 154.658 91.0174 154.658H91.5674C91.7141 154.658 91.7874 154.731 91.7874 154.878V155.78C91.7874 155.927 91.7141 156 91.5674 156C91.3914 156.015 91.1201 156.022 90.7534 156.022C89.6974 156.022 88.8981 155.824 88.3554 155.428C87.8127 155.032 87.5414 154.299 87.5414 153.228V146.254C87.5414 146.195 87.5121 146.166 87.4534 146.166H86.1114C85.9647 146.166 85.8914 146.093 85.8914 145.946V145.088C85.8914 144.941 85.9647 144.868 86.1114 144.868H87.4534C87.5121 144.868 87.5414 144.839 87.5414 144.78V142.228C87.5414 142.081 87.6147 142.008 87.7614 142.008H88.8394C88.9861 142.008 89.0594 142.081 89.0594 142.228V144.78C89.0594 144.839 89.0887 144.868 89.1474 144.868H91.6334C91.7801 144.868 91.8534 144.941 91.8534 145.088V145.946ZM95.5291 142.844C95.1771 142.844 94.8838 142.727 94.6491 142.492C94.4144 142.257 94.2971 141.964 94.2971 141.612C94.2971 141.245 94.4144 140.952 94.6491 140.732C94.8838 140.497 95.1771 140.38 95.5291 140.38C95.8811 140.38 96.1744 140.497 96.4091 140.732C96.6438 140.952 96.7611 141.245 96.7611 141.612C96.7611 141.964 96.6438 142.257 96.4091 142.492C96.1744 142.727 95.8811 142.844 95.5291 142.844ZM94.9131 155.978C94.7664 155.978 94.6931 155.905 94.6931 155.758V145.066C94.6931 144.919 94.7664 144.846 94.9131 144.846H96.0351C96.1818 144.846 96.2551 144.919 96.2551 145.066V155.758C96.2551 155.905 96.1818 155.978 96.0351 155.978H94.9131ZM104.301 144.714C105.474 144.714 106.405 145.059 107.095 145.748C107.799 146.437 108.151 147.361 108.151 148.52V155.78C108.151 155.927 108.077 156 107.931 156H106.809C106.662 156 106.589 155.927 106.589 155.78V148.828C106.589 148.021 106.339 147.361 105.841 146.848C105.357 146.335 104.726 146.078 103.949 146.078C103.142 146.078 102.489 146.327 101.991 146.826C101.492 147.325 101.243 147.977 101.243 148.784V155.78C101.243 155.927 101.169 156 101.023 156H99.9005C99.7538 156 99.6805 155.927 99.6805 155.78V145.088C99.6805 144.941 99.7538 144.868 99.9005 144.868H101.023C101.169 144.868 101.243 144.941 101.243 145.088V146.034C101.243 146.063 101.25 146.085 101.265 146.1C101.294 146.115 101.316 146.107 101.331 146.078C101.976 145.169 102.966 144.714 104.301 144.714ZM118.004 145.088C118.004 144.941 118.077 144.868 118.224 144.868H119.346C119.493 144.868 119.566 144.941 119.566 145.088V155.626C119.566 157.269 119.089 158.471 118.136 159.234C117.197 159.997 115.899 160.378 114.242 160.378C113.905 160.378 113.648 160.371 113.472 160.356C113.325 160.341 113.252 160.261 113.252 160.114L113.296 159.102C113.296 159.029 113.318 158.97 113.362 158.926C113.406 158.897 113.457 158.889 113.516 158.904L114.11 158.926C115.474 158.926 116.464 158.655 117.08 158.112C117.696 157.584 118.004 156.741 118.004 155.582V154.768C118.004 154.739 117.989 154.724 117.96 154.724C117.945 154.709 117.923 154.717 117.894 154.746C117.219 155.626 116.259 156.066 115.012 156.066C114.059 156.066 113.208 155.809 112.46 155.296C111.727 154.783 111.235 154.057 110.986 153.118C110.81 152.517 110.722 151.622 110.722 150.434C110.722 149.789 110.737 149.246 110.766 148.806C110.81 148.366 110.891 147.97 111.008 147.618C111.272 146.738 111.749 146.034 112.438 145.506C113.127 144.963 113.956 144.692 114.924 144.692C116.229 144.692 117.219 145.125 117.894 145.99C117.923 146.019 117.945 146.027 117.96 146.012C117.989 145.997 118.004 145.975 118.004 145.946V145.088ZM117.894 152.634C117.938 152.414 117.967 152.143 117.982 151.82C117.997 151.497 118.004 151.028 118.004 150.412C118.004 149.664 117.997 149.165 117.982 148.916C117.967 148.652 117.931 148.41 117.872 148.19C117.755 147.574 117.461 147.068 116.992 146.672C116.537 146.261 115.958 146.056 115.254 146.056C114.565 146.056 113.978 146.254 113.494 146.65C113.025 147.046 112.695 147.559 112.504 148.19C112.357 148.659 112.284 149.393 112.284 150.39C112.284 151.461 112.357 152.201 112.504 152.612C112.651 153.228 112.966 153.741 113.45 154.152C113.949 154.548 114.55 154.746 115.254 154.746C115.973 154.746 116.559 154.548 117.014 154.152C117.483 153.756 117.777 153.25 117.894 152.634ZM132.678 140.578C133.968 140.578 135.002 140.974 135.78 141.766C136.572 142.558 136.968 143.599 136.968 144.89C136.968 146.166 136.564 147.193 135.758 147.97C134.966 148.747 133.917 149.136 132.612 149.136H128.322C128.263 149.136 128.234 149.165 128.234 149.224V155.78C128.234 155.927 128.16 156 128.014 156H126.892C126.745 156 126.672 155.927 126.672 155.78V140.798C126.672 140.651 126.745 140.578 126.892 140.578H132.678ZM132.502 147.838C133.367 147.838 134.071 147.574 134.614 147.046C135.156 146.503 135.428 145.792 135.428 144.912C135.428 144.017 135.156 143.299 134.614 142.756C134.071 142.213 133.367 141.942 132.502 141.942H128.322C128.263 141.942 128.234 141.971 128.234 142.03V147.75C128.234 147.809 128.263 147.838 128.322 147.838H132.502ZM143.625 144.758C144.109 144.758 144.527 144.853 144.879 145.044C144.996 145.103 145.04 145.198 145.011 145.33L144.769 146.408C144.725 146.555 144.63 146.599 144.483 146.54C144.234 146.437 143.948 146.386 143.625 146.386L143.339 146.408C142.576 146.437 141.946 146.723 141.447 147.266C140.948 147.794 140.699 148.469 140.699 149.29V155.78C140.699 155.927 140.626 156 140.479 156H139.357C139.21 156 139.137 155.927 139.137 155.78V145.088C139.137 144.941 139.21 144.868 139.357 144.868H140.479C140.626 144.868 140.699 144.941 140.699 145.088V146.43C140.699 146.474 140.706 146.503 140.721 146.518C140.75 146.518 140.772 146.503 140.787 146.474C141.095 145.931 141.484 145.513 141.953 145.22C142.437 144.912 142.994 144.758 143.625 144.758ZM147.807 142.844C147.455 142.844 147.161 142.727 146.927 142.492C146.692 142.257 146.575 141.964 146.575 141.612C146.575 141.245 146.692 140.952 146.927 140.732C147.161 140.497 147.455 140.38 147.807 140.38C148.159 140.38 148.452 140.497 148.687 140.732C148.921 140.952 149.039 141.245 149.039 141.612C149.039 141.964 148.921 142.257 148.687 142.492C148.452 142.727 148.159 142.844 147.807 142.844ZM147.191 155.978C147.044 155.978 146.971 155.905 146.971 155.758V145.066C146.971 144.919 147.044 144.846 147.191 144.846H148.313C148.459 144.846 148.533 144.919 148.533 145.066V155.758C148.533 155.905 148.459 155.978 148.313 155.978H147.191ZM156.16 156.176C155.104 156.176 154.195 155.905 153.432 155.362C152.684 154.805 152.171 154.057 151.892 153.118C151.702 152.473 151.606 151.563 151.606 150.39C151.606 149.334 151.702 148.439 151.892 147.706C152.156 146.797 152.67 146.071 153.432 145.528C154.195 144.971 155.104 144.692 156.16 144.692C157.231 144.692 158.155 144.963 158.932 145.506C159.724 146.049 160.238 146.723 160.472 147.53C160.546 147.794 160.59 148.014 160.604 148.19V148.234C160.604 148.337 160.538 148.403 160.406 148.432L159.306 148.586H159.262C159.16 148.586 159.094 148.52 159.064 148.388L158.998 148.058C158.866 147.501 158.544 147.031 158.03 146.65C157.517 146.254 156.894 146.056 156.16 146.056C155.427 146.056 154.811 146.254 154.312 146.65C153.828 147.031 153.513 147.545 153.366 148.19C153.234 148.747 153.168 149.488 153.168 150.412C153.168 151.38 153.234 152.128 153.366 152.656C153.513 153.316 153.828 153.844 154.312 154.24C154.811 154.621 155.427 154.812 156.16 154.812C156.879 154.812 157.495 154.629 158.008 154.262C158.536 153.881 158.866 153.397 158.998 152.81V152.722L159.02 152.634C159.035 152.487 159.123 152.429 159.284 152.458L160.362 152.634C160.509 152.663 160.575 152.744 160.56 152.876L160.472 153.316C160.252 154.167 159.746 154.856 158.954 155.384C158.162 155.912 157.231 156.176 156.16 156.176ZM171.459 148.564C171.518 148.975 171.547 149.488 171.547 150.104V150.808C171.547 150.955 171.474 151.028 171.327 151.028H164.221C164.163 151.028 164.133 151.057 164.133 151.116C164.163 151.923 164.207 152.443 164.265 152.678C164.427 153.338 164.771 153.859 165.299 154.24C165.827 154.621 166.502 154.812 167.323 154.812C167.939 154.812 168.482 154.673 168.951 154.394C169.421 154.115 169.787 153.719 170.051 153.206C170.139 153.074 170.242 153.045 170.359 153.118L171.217 153.624C171.335 153.697 171.364 153.8 171.305 153.932C170.939 154.636 170.389 155.193 169.655 155.604C168.922 156 168.079 156.198 167.125 156.198C166.084 156.183 165.211 155.934 164.507 155.45C163.803 154.966 163.297 154.291 162.989 153.426C162.725 152.722 162.593 151.71 162.593 150.39C162.593 149.774 162.601 149.275 162.615 148.894C162.645 148.498 162.703 148.146 162.791 147.838C163.041 146.885 163.539 146.122 164.287 145.55C165.05 144.978 165.967 144.692 167.037 144.692C168.372 144.692 169.399 145.029 170.117 145.704C170.836 146.379 171.283 147.332 171.459 148.564ZM167.037 146.056C166.319 146.056 165.717 146.247 165.233 146.628C164.764 146.995 164.456 147.493 164.309 148.124C164.221 148.432 164.163 148.931 164.133 149.62C164.133 149.679 164.163 149.708 164.221 149.708H169.919C169.978 149.708 170.007 149.679 170.007 149.62C169.978 148.96 169.934 148.491 169.875 148.212C169.714 147.552 169.384 147.031 168.885 146.65C168.401 146.254 167.785 146.056 167.037 146.056Z" fill="#8B8ACA"/>
<path d="M32.6161 117.594C28.6561 117.594 25.5241 116.496 23.2201 114.3C20.9161 112.068 19.7641 109.044 19.7641 105.228V90.972C19.7641 87.228 20.9161 84.258 23.2201 82.062C25.5241 79.866 28.6561 78.768 32.6161 78.768C36.5761 78.768 39.7081 79.866 42.0121 82.062C44.3521 84.258 45.5221 87.228 45.5221 90.972V105.228C45.5221 109.044 44.3521 112.068 42.0121 114.3C39.7081 116.496 36.5761 117.594 32.6161 117.594ZM32.6161 111.06C34.2361 111.06 35.5141 110.574 36.4501 109.602C37.4221 108.594 37.9081 107.262 37.9081 105.606V90.756C37.9081 89.1 37.4221 87.786 36.4501 86.814C35.5141 85.806 34.2361 85.302 32.6161 85.302C31.0321 85.302 29.7541 85.806 28.7821 86.814C27.8461 87.786 27.3781 89.1 27.3781 90.756V105.606C27.3781 107.262 27.8461 108.594 28.7821 109.602C29.7541 110.574 31.0321 111.06 32.6161 111.06ZM55.097 117.216C53.873 117.216 52.847 116.82 52.019 116.028C51.227 115.2 50.831 114.174 50.831 112.95C50.831 111.69 51.227 110.664 52.019 109.872C52.811 109.08 53.837 108.684 55.097 108.684C56.357 108.684 57.383 109.08 58.175 109.872C58.967 110.664 59.363 111.69 59.363 112.95C59.363 114.174 58.949 115.2 58.121 116.028C57.329 116.82 56.321 117.216 55.097 117.216ZM69.3276 117C68.7876 117 68.6076 116.748 68.7876 116.244L80.5056 86.058C80.5776 85.842 80.5056 85.734 80.2896 85.734H70.1916C70.0116 85.734 69.9216 85.824 69.9216 86.004V88.488C69.9216 88.668 69.8496 88.83 69.7056 88.974C69.5976 89.082 69.4536 89.136 69.2736 89.136H64.3596C64.1796 89.136 64.0176 89.082 63.8736 88.974C63.7656 88.83 63.7116 88.668 63.7116 88.488L63.7656 79.848C63.7656 79.668 63.8196 79.524 63.9276 79.416C64.0716 79.272 64.2336 79.2 64.4136 79.2H88.0116C88.1916 79.2 88.3356 79.272 88.4436 79.416C88.5876 79.524 88.6596 79.668 88.6596 79.848V85.302C88.6596 85.518 88.6056 85.788 88.4976 86.112L76.8336 116.514C76.7256 116.838 76.4736 117 76.0776 117H69.3276ZM115.935 99.774C116.475 101.538 116.745 103.248 116.745 104.904C116.745 106.74 116.457 108.396 115.881 109.872C115.053 112.176 113.595 114.012 111.507 115.38C109.419 116.712 106.971 117.378 104.163 117.378C101.427 117.378 99.0147 116.73 96.9267 115.434C94.8747 114.102 93.4167 112.302 92.5527 110.034C92.1927 109.098 91.9227 108.108 91.7427 107.064V106.956C91.7427 106.56 91.9587 106.362 92.3907 106.362H98.9247C99.2847 106.362 99.5187 106.56 99.6267 106.956C99.6627 107.172 99.7167 107.352 99.7887 107.496C99.8607 107.64 99.9147 107.766 99.9507 107.874C100.311 108.81 100.851 109.53 101.571 110.034C102.291 110.538 103.137 110.79 104.109 110.79C105.117 110.79 105.999 110.52 106.755 109.98C107.511 109.44 108.069 108.684 108.429 107.712C108.789 106.992 108.969 106.056 108.969 104.904C108.969 103.86 108.807 102.924 108.483 102.096C108.231 101.16 107.727 100.44 106.971 99.936C106.215 99.432 105.333 99.18 104.325 99.18C103.317 99.18 102.381 99.414 101.517 99.882C100.653 100.35 100.077 100.962 99.7887 101.718C99.6807 102.078 99.4467 102.258 99.0867 102.258H92.4447C92.2647 102.258 92.1027 102.204 91.9587 102.096C91.8507 101.952 91.7967 101.79 91.7967 101.61V79.848C91.7967 79.668 91.8507 79.524 91.9587 79.416C92.1027 79.272 92.2647 79.2 92.4447 79.2H114.747C114.927 79.2 115.071 79.272 115.179 79.416C115.323 79.524 115.395 79.668 115.395 79.848V85.086C115.395 85.266 115.323 85.428 115.179 85.572C115.071 85.68 114.927 85.734 114.747 85.734H99.6807C99.5007 85.734 99.4107 85.824 99.4107 86.004L99.3567 93.996C99.3567 94.248 99.4647 94.302 99.6807 94.158C101.301 93.114 103.173 92.592 105.297 92.592C107.817 92.592 110.013 93.24 111.885 94.536C113.793 95.796 115.143 97.542 115.935 99.774ZM147.939 94.968C147.939 95.1947 147.825 95.308 147.599 95.308H135.087C134.996 95.308 134.951 95.3533 134.951 95.444V103.842C134.951 103.933 134.996 103.978 135.087 103.978H143.859C144.085 103.978 144.199 104.091 144.199 104.318V105.746C144.199 105.973 144.085 106.086 143.859 106.086H135.087C134.996 106.086 134.951 106.131 134.951 106.222V114.756C134.951 114.847 134.996 114.892 135.087 114.892H147.599C147.825 114.892 147.939 115.005 147.939 115.232V116.66C147.939 116.887 147.825 117 147.599 117H132.877C132.65 117 132.537 116.887 132.537 116.66V93.54C132.537 93.3133 132.65 93.2 132.877 93.2H147.599C147.825 93.2 147.939 93.3133 147.939 93.54V94.968ZM159.565 117.272C157.978 117.272 156.584 116.966 155.383 116.354C154.181 115.719 153.241 114.835 152.561 113.702C151.903 112.569 151.575 111.265 151.575 109.792V100.408C151.575 98.9347 151.903 97.6313 152.561 96.498C153.241 95.3647 154.181 94.492 155.383 93.88C156.584 93.2453 157.978 92.928 159.565 92.928C161.129 92.928 162.511 93.234 163.713 93.846C164.937 94.458 165.877 95.3193 166.535 96.43C167.192 97.518 167.521 98.7533 167.521 100.136V100.578C167.521 100.805 167.407 100.918 167.181 100.918H165.447C165.22 100.918 165.107 100.805 165.107 100.578V100.17C165.107 98.6513 164.597 97.416 163.577 96.464C162.579 95.512 161.242 95.036 159.565 95.036C157.887 95.036 156.539 95.5233 155.519 96.498C154.499 97.4727 153.989 98.7533 153.989 100.34V109.86C153.989 111.447 154.51 112.727 155.553 113.702C156.595 114.677 157.967 115.164 159.667 115.164C161.321 115.164 162.636 114.711 163.611 113.804C164.608 112.897 165.107 111.685 165.107 110.166V107.072C165.107 106.981 165.061 106.936 164.971 106.936H159.973C159.746 106.936 159.633 106.823 159.633 106.596V105.168C159.633 104.941 159.746 104.828 159.973 104.828H167.181C167.407 104.828 167.521 104.941 167.521 105.168V109.554C167.521 111.979 166.795 113.872 165.345 115.232C163.917 116.592 161.99 117.272 159.565 117.272ZM172.714 117C172.487 117 172.374 116.887 172.374 116.66V93.54C172.374 93.3133 172.487 93.2 172.714 93.2H174.448C174.675 93.2 174.788 93.3133 174.788 93.54V114.756C174.788 114.847 174.833 114.892 174.924 114.892H186.926C187.153 114.892 187.266 115.005 187.266 115.232V116.66C187.266 116.887 187.153 117 186.926 117H172.714ZM191.238 117C191.012 117 190.898 116.887 190.898 116.66V93.54C190.898 93.3133 191.012 93.2 191.238 93.2H199.262C201.506 93.2 203.286 93.7893 204.6 94.968C205.938 96.1467 206.606 97.7447 206.606 99.762V110.438C206.606 112.455 205.938 114.053 204.6 115.232C203.286 116.411 201.506 117 199.262 117H191.238ZM193.312 114.756C193.312 114.847 193.358 114.892 193.448 114.892H199.364C200.838 114.892 202.005 114.461 202.866 113.6C203.75 112.739 204.192 111.583 204.192 110.132V100.102C204.192 98.6287 203.762 97.4613 202.9 96.6C202.039 95.7387 200.86 95.308 199.364 95.308H193.448C193.358 95.308 193.312 95.3533 193.312 95.444V114.756Z" fill="white"/>
<defs>
<filter id="filter0_ii_99_2520" x="0" y="0" width="234.375" height="239.4" filterUnits="userSpaceOnUse" color-interpolation-filters="sRGB">
<feFlood flood-opacity="0" result="BackgroundImageFix"/>
<feBlend mode="normal" in="SourceGraphic" in2="BackgroundImageFix" result="shape"/>
<feColorMatrix in="SourceAlpha" type="matrix" values="0 0 0 0 0 0 0 0 0 0 0 0 0 0 0 0 0 0 127 0" result="hardAlpha"/>
<feOffset dx="8.375" dy="13.4"/>
<feGaussianBlur stdDeviation="8.375"/>
<feComposite in2="hardAlpha" operator="arithmetic" k2="-1" k3="1"/>
<feColorMatrix type="matrix" values="0 0 0 0 0.510417 0 0 0 0 0.0208333 0 0 0 0 1 0 0 0 0.95 0"/>
<feBlend mode="normal" in2="shape" result="effect1_innerShadow_99_2520"/>
<feColorMatrix in="SourceAlpha" type="matrix" values="0 0 0 0 0 0 0 0 0 0 0 0 0 0 0 0 0 0 127 0" result="hardAlpha"/>
<feOffset dy="1.675"/>
<feGaussianBlur stdDeviation="4.1875"/>
<feComposite in2="hardAlpha" operator="arithmetic" k2="-1" k3="1"/>
<feColorMatrix type="matrix" values="0 0 0 0 1 0 0 0 0 1 0 0 0 0 1 0 0 0 0.58 0"/>
<feBlend mode="normal" in2="effect1_innerShadow_99_2520" result="effect2_innerShadow_99_2520"/>
</filter>
<radialGradient id="paint0_radial_99_2520" cx="0" cy="0" r="1" gradientUnits="userSpaceOnUse" gradientTransform="translate(159.104 70.512) rotate(110.973) scale(232.354)">
<stop stop-color="#3244E8"/>
<stop offset="1" stop-color="#000210" stop-opacity="0"/>
</radialGradient>
</defs>
</svg>
