<svg width="505" height="506" viewBox="0 0 505 506" fill="none" xmlns="http://www.w3.org/2000/svg">
<g filter="url(#filter0_dii_99_2427)">
<ellipse cx="252.5" cy="249.5" rx="185.5" ry="185.5" transform="rotate(90 252.5 249.5)" fill="#030092"/>
<ellipse cx="252.5" cy="249.5" rx="185.5" ry="185.5" transform="rotate(90 252.5 249.5)" fill="url(#paint0_radial_99_2427)"/>
</g>
<path d="M193.171 251.364C193.081 251.455 193.058 251.545 193.103 251.636C193.149 251.727 193.239 251.772 193.375 251.772H211.803C212.03 251.772 212.211 251.863 212.347 252.044C212.529 252.18 212.619 252.361 212.619 252.588V259.184C212.619 259.411 212.529 259.615 212.347 259.796C212.211 259.932 212.03 260 211.803 260H181.203C180.977 260 180.773 259.932 180.591 259.796C180.455 259.615 180.387 259.411 180.387 259.184V252.928C180.387 252.52 180.523 252.18 180.795 251.908C183.017 249.732 185.283 247.375 187.595 244.836C189.907 242.252 191.358 240.643 191.947 240.008C193.217 238.512 194.509 237.084 195.823 235.724C199.949 231.145 202.011 227.745 202.011 225.524C202.011 223.937 201.445 222.645 200.311 221.648C199.178 220.605 197.705 220.084 195.891 220.084C194.078 220.084 192.605 220.605 191.471 221.648C190.338 222.645 189.771 223.983 189.771 225.66V227.36C189.771 227.587 189.681 227.791 189.499 227.972C189.363 228.108 189.182 228.176 188.955 228.176H180.931C180.705 228.176 180.501 228.108 180.319 227.972C180.183 227.791 180.115 227.587 180.115 227.36V224.164C180.251 221.716 181.022 219.563 182.427 217.704C183.833 215.8 185.691 214.349 188.003 213.352C190.361 212.355 192.99 211.856 195.891 211.856C199.11 211.856 201.898 212.468 204.255 213.692C206.658 214.871 208.494 216.48 209.763 218.52C211.078 220.56 211.735 222.827 211.735 225.32C211.735 227.224 211.259 229.173 210.307 231.168C209.355 233.163 207.927 235.316 206.023 237.628C204.618 239.396 203.099 241.141 201.467 242.864C199.835 244.587 197.41 247.08 194.191 250.344L193.171 251.364ZM232.022 251.364C231.931 251.455 231.909 251.545 231.954 251.636C231.999 251.727 232.09 251.772 232.226 251.772H250.654C250.881 251.772 251.062 251.863 251.198 252.044C251.379 252.18 251.47 252.361 251.47 252.588V259.184C251.47 259.411 251.379 259.615 251.198 259.796C251.062 259.932 250.881 260 250.654 260H220.054C219.827 260 219.623 259.932 219.442 259.796C219.306 259.615 219.238 259.411 219.238 259.184V252.928C219.238 252.52 219.374 252.18 219.646 251.908C221.867 249.732 224.134 247.375 226.446 244.836C228.758 242.252 230.209 240.643 230.798 240.008C232.067 238.512 233.359 237.084 234.674 235.724C238.799 231.145 240.862 227.745 240.862 225.524C240.862 223.937 240.295 222.645 239.162 221.648C238.029 220.605 236.555 220.084 234.742 220.084C232.929 220.084 231.455 220.605 230.322 221.648C229.189 222.645 228.622 223.983 228.622 225.66V227.36C228.622 227.587 228.531 227.791 228.35 227.972C228.214 228.108 228.033 228.176 227.806 228.176H219.782C219.555 228.176 219.351 228.108 219.17 227.972C219.034 227.791 218.966 227.587 218.966 227.36V224.164C219.102 221.716 219.873 219.563 221.278 217.704C222.683 215.8 224.542 214.349 226.854 213.352C229.211 212.355 231.841 211.856 234.742 211.856C237.961 211.856 240.749 212.468 243.106 213.692C245.509 214.871 247.345 216.48 248.614 218.52C249.929 220.56 250.586 222.827 250.586 225.32C250.586 227.224 250.11 229.173 249.158 231.168C248.206 233.163 246.778 235.316 244.874 237.628C243.469 239.396 241.95 241.141 240.318 242.864C238.686 244.587 236.261 247.08 233.042 250.344L232.022 251.364ZM270.873 251.364C270.782 251.455 270.76 251.545 270.805 251.636C270.85 251.727 270.941 251.772 271.077 251.772H289.505C289.732 251.772 289.913 251.863 290.049 252.044C290.23 252.18 290.321 252.361 290.321 252.588V259.184C290.321 259.411 290.23 259.615 290.049 259.796C289.913 259.932 289.732 260 289.505 260H258.905C258.678 260 258.474 259.932 258.293 259.796C258.157 259.615 258.089 259.411 258.089 259.184V252.928C258.089 252.52 258.225 252.18 258.497 251.908C260.718 249.732 262.985 247.375 265.297 244.836C267.609 242.252 269.06 240.643 269.649 240.008C270.918 238.512 272.21 237.084 273.525 235.724C277.65 231.145 279.713 227.745 279.713 225.524C279.713 223.937 279.146 222.645 278.013 221.648C276.88 220.605 275.406 220.084 273.593 220.084C271.78 220.084 270.306 220.605 269.173 221.648C268.04 222.645 267.473 223.983 267.473 225.66V227.36C267.473 227.587 267.382 227.791 267.201 227.972C267.065 228.108 266.884 228.176 266.657 228.176H258.633C258.406 228.176 258.202 228.108 258.021 227.972C257.885 227.791 257.817 227.587 257.817 227.36V224.164C257.953 221.716 258.724 219.563 260.129 217.704C261.534 215.8 263.393 214.349 265.705 213.352C268.062 212.355 270.692 211.856 273.593 211.856C276.812 211.856 279.6 212.468 281.957 213.692C284.36 214.871 286.196 216.48 287.465 218.52C288.78 220.56 289.437 222.827 289.437 225.32C289.437 227.224 288.961 229.173 288.009 231.168C287.057 233.163 285.629 235.316 283.725 237.628C282.32 239.396 280.801 241.141 279.169 242.864C277.537 244.587 275.112 247.08 271.893 250.344L270.873 251.364ZM325.386 237.288C326.293 239.373 326.746 241.776 326.746 244.496C326.746 246.944 326.338 249.211 325.522 251.296C324.434 254.197 322.598 256.464 320.014 258.096C317.475 259.728 314.461 260.544 310.97 260.544C307.525 260.544 304.487 259.683 301.858 257.96C299.274 256.237 297.415 253.903 296.282 250.956C295.647 249.188 295.285 247.284 295.194 245.244C295.194 244.7 295.466 244.428 296.01 244.428H304.034C304.578 244.428 304.85 244.7 304.85 245.244C305.031 246.74 305.281 247.851 305.598 248.576C306.006 249.755 306.663 250.684 307.57 251.364C308.522 251.999 309.633 252.316 310.902 252.316C313.441 252.316 315.186 251.205 316.138 248.984C316.773 247.624 317.09 246.037 317.09 244.224C317.09 242.093 316.75 240.348 316.07 238.988C315.027 236.857 313.282 235.792 310.834 235.792C310.335 235.792 309.814 235.951 309.27 236.268C308.726 236.54 308.069 236.948 307.298 237.492C307.117 237.628 306.935 237.696 306.754 237.696C306.482 237.696 306.278 237.56 306.142 237.288L302.13 231.644C302.039 231.508 301.994 231.349 301.994 231.168C301.994 230.896 302.085 230.669 302.266 230.488L313.078 221.036C313.169 220.945 313.191 220.855 313.146 220.764C313.146 220.673 313.078 220.628 312.942 220.628H296.962C296.735 220.628 296.531 220.56 296.35 220.424C296.214 220.243 296.146 220.039 296.146 219.812V213.216C296.146 212.989 296.214 212.808 296.35 212.672C296.531 212.491 296.735 212.4 296.962 212.4H325.318C325.545 212.4 325.726 212.491 325.862 212.672C326.043 212.808 326.134 212.989 326.134 213.216V220.696C326.134 221.059 325.975 221.399 325.658 221.716L316.75 229.876C316.659 229.967 316.614 230.057 316.614 230.148C316.659 230.239 316.773 230.284 316.954 230.284C320.898 231.055 323.709 233.389 325.386 237.288Z" fill="white"/>
<path d="M201.935 302C201.789 302 201.715 301.927 201.715 301.78V286.82C201.715 286.673 201.789 286.6 201.935 286.6H203.057C203.204 286.6 203.277 286.673 203.277 286.82V300.548C203.277 300.607 203.307 300.636 203.365 300.636H211.131C211.278 300.636 211.351 300.709 211.351 300.856V301.78C211.351 301.927 211.278 302 211.131 302H201.935ZM222.047 294.564C222.106 294.975 222.135 295.488 222.135 296.104V296.808C222.135 296.955 222.062 297.028 221.915 297.028H214.809C214.751 297.028 214.721 297.057 214.721 297.116C214.751 297.923 214.795 298.443 214.853 298.678C215.015 299.338 215.359 299.859 215.887 300.24C216.415 300.621 217.09 300.812 217.911 300.812C218.527 300.812 219.07 300.673 219.539 300.394C220.009 300.115 220.375 299.719 220.639 299.206C220.727 299.074 220.83 299.045 220.947 299.118L221.805 299.624C221.923 299.697 221.952 299.8 221.893 299.932C221.527 300.636 220.977 301.193 220.243 301.604C219.51 302 218.667 302.198 217.713 302.198C216.672 302.183 215.799 301.934 215.095 301.45C214.391 300.966 213.885 300.291 213.577 299.426C213.313 298.722 213.181 297.71 213.181 296.39C213.181 295.774 213.189 295.275 213.203 294.894C213.233 294.498 213.291 294.146 213.379 293.838C213.629 292.885 214.127 292.122 214.875 291.55C215.638 290.978 216.555 290.692 217.625 290.692C218.96 290.692 219.987 291.029 220.705 291.704C221.424 292.379 221.871 293.332 222.047 294.564ZM217.625 292.056C216.907 292.056 216.305 292.247 215.821 292.628C215.352 292.995 215.044 293.493 214.897 294.124C214.809 294.432 214.751 294.931 214.721 295.62C214.721 295.679 214.751 295.708 214.809 295.708H220.507C220.566 295.708 220.595 295.679 220.595 295.62C220.566 294.96 220.522 294.491 220.463 294.212C220.302 293.552 219.972 293.031 219.473 292.65C218.989 292.254 218.373 292.056 217.625 292.056ZM229.091 287.964C228.285 287.964 227.735 288.147 227.441 288.514C227.148 288.866 227.001 289.475 227.001 290.34V290.78C227.001 290.839 227.031 290.868 227.089 290.868H229.553C229.7 290.868 229.773 290.941 229.773 291.088V292.078C229.773 292.225 229.7 292.298 229.553 292.298H227.089C227.031 292.298 227.001 292.327 227.001 292.386V301.78C227.001 301.927 226.928 302 226.781 302H225.681C225.535 302 225.461 301.927 225.461 301.78V292.386C225.461 292.327 225.432 292.298 225.373 292.298H223.899C223.753 292.298 223.679 292.225 223.679 292.078V291.088C223.679 290.941 223.753 290.868 223.899 290.868H225.373C225.432 290.868 225.461 290.839 225.461 290.78V290.252C225.461 289.343 225.564 288.631 225.769 288.118C225.975 287.59 226.327 287.209 226.825 286.974C227.339 286.725 228.05 286.6 228.959 286.6H229.597C229.744 286.6 229.817 286.673 229.817 286.82V287.744C229.817 287.891 229.744 287.964 229.597 287.964H229.091ZM237.127 291.946C237.127 292.093 237.054 292.166 236.907 292.166H234.421C234.362 292.166 234.333 292.195 234.333 292.254V298.744C234.333 299.448 234.487 299.947 234.795 300.24C235.118 300.519 235.616 300.658 236.291 300.658H236.841C236.988 300.658 237.061 300.731 237.061 300.878V301.78C237.061 301.927 236.988 302 236.841 302C236.665 302.015 236.394 302.022 236.027 302.022C234.971 302.022 234.172 301.824 233.629 301.428C233.086 301.032 232.815 300.299 232.815 299.228V292.254C232.815 292.195 232.786 292.166 232.727 292.166H231.385C231.238 292.166 231.165 292.093 231.165 291.946V291.088C231.165 290.941 231.238 290.868 231.385 290.868H232.727C232.786 290.868 232.815 290.839 232.815 290.78V288.228C232.815 288.081 232.888 288.008 233.035 288.008H234.113C234.26 288.008 234.333 288.081 234.333 288.228V290.78C234.333 290.839 234.362 290.868 234.421 290.868H236.907C237.054 290.868 237.127 290.941 237.127 291.088V291.946ZM248.745 291.946C248.745 292.093 248.672 292.166 248.525 292.166H246.039C245.98 292.166 245.951 292.195 245.951 292.254V298.744C245.951 299.448 246.105 299.947 246.413 300.24C246.736 300.519 247.234 300.658 247.909 300.658H248.459C248.606 300.658 248.679 300.731 248.679 300.878V301.78C248.679 301.927 248.606 302 248.459 302C248.283 302.015 248.012 302.022 247.645 302.022C246.589 302.022 245.79 301.824 245.247 301.428C244.704 301.032 244.433 300.299 244.433 299.228V292.254C244.433 292.195 244.404 292.166 244.345 292.166H243.003C242.856 292.166 242.783 292.093 242.783 291.946V291.088C242.783 290.941 242.856 290.868 243.003 290.868H244.345C244.404 290.868 244.433 290.839 244.433 290.78V288.228C244.433 288.081 244.506 288.008 244.653 288.008H245.731C245.878 288.008 245.951 288.081 245.951 288.228V290.78C245.951 290.839 245.98 290.868 246.039 290.868H248.525C248.672 290.868 248.745 290.941 248.745 291.088V291.946ZM255.288 302.176C254.232 302.176 253.323 301.905 252.56 301.362C251.798 300.819 251.27 300.071 250.976 299.118C250.771 298.443 250.668 297.541 250.668 296.412C250.668 295.283 250.771 294.388 250.976 293.728C251.255 292.789 251.776 292.049 252.538 291.506C253.301 290.963 254.225 290.692 255.31 290.692C256.352 290.692 257.246 290.963 257.994 291.506C258.757 292.049 259.278 292.782 259.556 293.706C259.762 294.337 259.864 295.239 259.864 296.412C259.864 297.6 259.762 298.502 259.556 299.118C259.278 300.071 258.757 300.819 257.994 301.362C257.246 301.905 256.344 302.176 255.288 302.176ZM255.288 300.812C255.992 300.812 256.594 300.621 257.092 300.24C257.591 299.844 257.928 299.316 258.104 298.656C258.236 298.128 258.302 297.387 258.302 296.434C258.302 295.466 258.244 294.725 258.126 294.212C257.95 293.552 257.606 293.031 257.092 292.65C256.594 292.254 255.985 292.056 255.266 292.056C254.548 292.056 253.939 292.254 253.44 292.65C252.942 293.031 252.604 293.552 252.428 294.212C252.311 294.725 252.252 295.466 252.252 296.434C252.252 297.402 252.311 298.143 252.428 298.656C252.59 299.316 252.92 299.844 253.418 300.24C253.932 300.621 254.555 300.812 255.288 300.812ZM277.899 290.714C278.999 290.714 279.864 291.044 280.495 291.704C281.14 292.364 281.463 293.266 281.463 294.41V301.78C281.463 301.927 281.39 302 281.243 302H280.143C279.996 302 279.923 301.927 279.923 301.78V294.718C279.923 293.911 279.688 293.273 279.219 292.804C278.764 292.32 278.163 292.078 277.415 292.078C276.638 292.078 276.007 292.313 275.523 292.782C275.054 293.251 274.819 293.882 274.819 294.674V301.78C274.819 301.927 274.746 302 274.599 302H273.477C273.33 302 273.257 301.927 273.257 301.78V294.718C273.257 293.911 273.03 293.273 272.575 292.804C272.12 292.32 271.512 292.078 270.749 292.078C269.972 292.078 269.348 292.313 268.879 292.782C268.424 293.251 268.197 293.882 268.197 294.674V301.78C268.197 301.927 268.124 302 267.977 302H266.855C266.708 302 266.635 301.927 266.635 301.78V291.088C266.635 290.941 266.708 290.868 266.855 290.868H267.977C268.124 290.868 268.197 290.941 268.197 291.088V291.968C268.197 291.997 268.204 292.019 268.219 292.034C268.248 292.034 268.278 292.019 268.307 291.99C268.63 291.565 269.04 291.249 269.539 291.044C270.052 290.824 270.617 290.714 271.233 290.714C271.996 290.714 272.648 290.868 273.191 291.176C273.734 291.484 274.144 291.931 274.423 292.518C274.452 292.591 274.489 292.591 274.533 292.518C274.856 291.917 275.31 291.469 275.897 291.176C276.484 290.868 277.151 290.714 277.899 290.714ZM285.488 288.844C285.136 288.844 284.843 288.727 284.608 288.492C284.374 288.257 284.256 287.964 284.256 287.612C284.256 287.245 284.374 286.952 284.608 286.732C284.843 286.497 285.136 286.38 285.488 286.38C285.84 286.38 286.134 286.497 286.368 286.732C286.603 286.952 286.72 287.245 286.72 287.612C286.72 287.964 286.603 288.257 286.368 288.492C286.134 288.727 285.84 288.844 285.488 288.844ZM284.872 301.978C284.726 301.978 284.652 301.905 284.652 301.758V291.066C284.652 290.919 284.726 290.846 284.872 290.846H285.994C286.141 290.846 286.214 290.919 286.214 291.066V301.758C286.214 301.905 286.141 301.978 285.994 301.978H284.872ZM294.26 290.714C295.433 290.714 296.364 291.059 297.054 291.748C297.758 292.437 298.11 293.361 298.11 294.52V301.78C298.11 301.927 298.036 302 297.89 302H296.768C296.621 302 296.548 301.927 296.548 301.78V294.828C296.548 294.021 296.298 293.361 295.8 292.848C295.316 292.335 294.685 292.078 293.908 292.078C293.101 292.078 292.448 292.327 291.95 292.826C291.451 293.325 291.202 293.977 291.202 294.784V301.78C291.202 301.927 291.128 302 290.982 302H289.86C289.713 302 289.64 301.927 289.64 301.78V291.088C289.64 290.941 289.713 290.868 289.86 290.868H290.982C291.128 290.868 291.202 290.941 291.202 291.088V292.034C291.202 292.063 291.209 292.085 291.224 292.1C291.253 292.115 291.275 292.107 291.29 292.078C291.935 291.169 292.925 290.714 294.26 290.714ZM306.093 291.946C306.093 292.093 306.02 292.166 305.873 292.166H303.387C303.328 292.166 303.299 292.195 303.299 292.254V298.744C303.299 299.448 303.453 299.947 303.761 300.24C304.084 300.519 304.582 300.658 305.257 300.658H305.807C305.954 300.658 306.027 300.731 306.027 300.878V301.78C306.027 301.927 305.954 302 305.807 302C305.631 302.015 305.36 302.022 304.993 302.022C303.937 302.022 303.138 301.824 302.595 301.428C302.052 301.032 301.781 300.299 301.781 299.228V292.254C301.781 292.195 301.752 292.166 301.693 292.166H300.351C300.204 292.166 300.131 292.093 300.131 291.946V291.088C300.131 290.941 300.204 290.868 300.351 290.868H301.693C301.752 290.868 301.781 290.839 301.781 290.78V288.228C301.781 288.081 301.854 288.008 302.001 288.008H303.079C303.226 288.008 303.299 288.081 303.299 288.228V290.78C303.299 290.839 303.328 290.868 303.387 290.868H305.873C306.02 290.868 306.093 290.941 306.093 291.088V291.946Z" fill="#8B8ACA"/>
<defs>
<filter id="filter0_dii_99_2427" x="0" y="0.35" width="505" height="505" filterUnits="userSpaceOnUse" color-interpolation-filters="sRGB">
<feFlood flood-opacity="0" result="BackgroundImageFix"/>
<feColorMatrix in="SourceAlpha" type="matrix" values="0 0 0 0 0 0 0 0 0 0 0 0 0 0 0 0 0 0 127 0" result="hardAlpha"/>
<feOffset dy="3.35"/>
<feGaussianBlur stdDeviation="33.5"/>
<feColorMatrix type="matrix" values="0 0 0 0 0.135917 0 0 0 0 0 0 0 0 0 0.970833 0 0 0 1 0"/>
<feBlend mode="normal" in2="BackgroundImageFix" result="effect1_dropShadow_99_2427"/>
<feBlend mode="normal" in="SourceGraphic" in2="effect1_dropShadow_99_2427" result="shape"/>
<feColorMatrix in="SourceAlpha" type="matrix" values="0 0 0 0 0 0 0 0 0 0 0 0 0 0 0 0 0 0 127 0" result="hardAlpha"/>
<feOffset dx="8.375" dy="13.4"/>
<feGaussianBlur stdDeviation="8.375"/>
<feComposite in2="hardAlpha" operator="arithmetic" k2="-1" k3="1"/>
<feColorMatrix type="matrix" values="0 0 0 0 0.510417 0 0 0 0 0.0208333 0 0 0 0 1 0 0 0 0.95 0"/>
<feBlend mode="normal" in2="shape" result="effect2_innerShadow_99_2427"/>
<feColorMatrix in="SourceAlpha" type="matrix" values="0 0 0 0 0 0 0 0 0 0 0 0 0 0 0 0 0 0 127 0" result="hardAlpha"/>
<feOffset dy="1.675"/>
<feGaussianBlur stdDeviation="4.1875"/>
<feComposite in2="hardAlpha" operator="arithmetic" k2="-1" k3="1"/>
<feColorMatrix type="matrix" values="0 0 0 0 1 0 0 0 0 1 0 0 0 0 1 0 0 0 0.58 0"/>
<feBlend mode="normal" in2="effect2_innerShadow_99_2427" result="effect3_innerShadow_99_2427"/>
</filter>
<radialGradient id="paint0_radial_99_2427" cx="0" cy="0" r="1" gradientUnits="userSpaceOnUse" gradientTransform="translate(328.184 179.752) rotate(110.973) scale(381.431)">
<stop stop-color="#3244E8"/>
<stop offset="1" stop-color="#000210" stop-opacity="0"/>
</radialGradient>
</defs>
</svg>
