<svg width="347" height="347" viewBox="0 0 347 347" fill="none" xmlns="http://www.w3.org/2000/svg">
<g filter="url(#filter0_ii_99_2425)">
<ellipse cx="173.5" cy="173.5" rx="149.733" ry="149.403" transform="rotate(90 173.5 173.5)" fill="#030092"/>
<ellipse cx="173.5" cy="173.5" rx="149.733" ry="149.403" transform="rotate(90 173.5 173.5)" fill="url(#paint0_radial_99_2425)"/>
</g>
<path d="M113.171 174.364C113.081 174.455 113.058 174.545 113.103 174.636C113.149 174.727 113.239 174.772 113.375 174.772H131.803C132.03 174.772 132.211 174.863 132.347 175.044C132.529 175.18 132.619 175.361 132.619 175.588V182.184C132.619 182.411 132.529 182.615 132.347 182.796C132.211 182.932 132.03 183 131.803 183H101.203C100.977 183 100.773 182.932 100.591 182.796C100.455 182.615 100.387 182.411 100.387 182.184V175.928C100.387 175.52 100.523 175.18 100.795 174.908C103.017 172.732 105.283 170.375 107.595 167.836C109.907 165.252 111.358 163.643 111.947 163.008C113.217 161.512 114.509 160.084 115.823 158.724C119.949 154.145 122.011 150.745 122.011 148.524C122.011 146.937 121.445 145.645 120.311 144.648C119.178 143.605 117.705 143.084 115.891 143.084C114.078 143.084 112.605 143.605 111.471 144.648C110.338 145.645 109.771 146.983 109.771 148.66V150.36C109.771 150.587 109.681 150.791 109.499 150.972C109.363 151.108 109.182 151.176 108.955 151.176H100.931C100.705 151.176 100.501 151.108 100.319 150.972C100.183 150.791 100.115 150.587 100.115 150.36V147.164C100.251 144.716 101.022 142.563 102.427 140.704C103.833 138.8 105.691 137.349 108.003 136.352C110.361 135.355 112.99 134.856 115.891 134.856C119.11 134.856 121.898 135.468 124.255 136.692C126.658 137.871 128.494 139.48 129.763 141.52C131.078 143.56 131.735 145.827 131.735 148.32C131.735 150.224 131.259 152.173 130.307 154.168C129.355 156.163 127.927 158.316 126.023 160.628C124.618 162.396 123.099 164.141 121.467 165.864C119.835 167.587 117.41 170.08 114.191 173.344L113.171 174.364ZM152.022 174.364C151.931 174.455 151.909 174.545 151.954 174.636C151.999 174.727 152.09 174.772 152.226 174.772H170.654C170.881 174.772 171.062 174.863 171.198 175.044C171.379 175.18 171.47 175.361 171.47 175.588V182.184C171.47 182.411 171.379 182.615 171.198 182.796C171.062 182.932 170.881 183 170.654 183H140.054C139.827 183 139.623 182.932 139.442 182.796C139.306 182.615 139.238 182.411 139.238 182.184V175.928C139.238 175.52 139.374 175.18 139.646 174.908C141.867 172.732 144.134 170.375 146.446 167.836C148.758 165.252 150.209 163.643 150.798 163.008C152.067 161.512 153.359 160.084 154.674 158.724C158.799 154.145 160.862 150.745 160.862 148.524C160.862 146.937 160.295 145.645 159.162 144.648C158.029 143.605 156.555 143.084 154.742 143.084C152.929 143.084 151.455 143.605 150.322 144.648C149.189 145.645 148.622 146.983 148.622 148.66V150.36C148.622 150.587 148.531 150.791 148.35 150.972C148.214 151.108 148.033 151.176 147.806 151.176H139.782C139.555 151.176 139.351 151.108 139.17 150.972C139.034 150.791 138.966 150.587 138.966 150.36V147.164C139.102 144.716 139.873 142.563 141.278 140.704C142.683 138.8 144.542 137.349 146.854 136.352C149.211 135.355 151.841 134.856 154.742 134.856C157.961 134.856 160.749 135.468 163.106 136.692C165.509 137.871 167.345 139.48 168.614 141.52C169.929 143.56 170.586 145.827 170.586 148.32C170.586 150.224 170.11 152.173 169.158 154.168C168.206 156.163 166.778 158.316 164.874 160.628C163.469 162.396 161.95 164.141 160.318 165.864C158.686 167.587 156.261 170.08 153.042 173.344L152.022 174.364ZM190.873 174.364C190.782 174.455 190.76 174.545 190.805 174.636C190.85 174.727 190.941 174.772 191.077 174.772H209.505C209.732 174.772 209.913 174.863 210.049 175.044C210.23 175.18 210.321 175.361 210.321 175.588V182.184C210.321 182.411 210.23 182.615 210.049 182.796C209.913 182.932 209.732 183 209.505 183H178.905C178.678 183 178.474 182.932 178.293 182.796C178.157 182.615 178.089 182.411 178.089 182.184V175.928C178.089 175.52 178.225 175.18 178.497 174.908C180.718 172.732 182.985 170.375 185.297 167.836C187.609 165.252 189.06 163.643 189.649 163.008C190.918 161.512 192.21 160.084 193.525 158.724C197.65 154.145 199.713 150.745 199.713 148.524C199.713 146.937 199.146 145.645 198.013 144.648C196.88 143.605 195.406 143.084 193.593 143.084C191.78 143.084 190.306 143.605 189.173 144.648C188.04 145.645 187.473 146.983 187.473 148.66V150.36C187.473 150.587 187.382 150.791 187.201 150.972C187.065 151.108 186.884 151.176 186.657 151.176H178.633C178.406 151.176 178.202 151.108 178.021 150.972C177.885 150.791 177.817 150.587 177.817 150.36V147.164C177.953 144.716 178.724 142.563 180.129 140.704C181.534 138.8 183.393 137.349 185.705 136.352C188.062 135.355 190.692 134.856 193.593 134.856C196.812 134.856 199.6 135.468 201.957 136.692C204.36 137.871 206.196 139.48 207.465 141.52C208.78 143.56 209.437 145.827 209.437 148.32C209.437 150.224 208.961 152.173 208.009 154.168C207.057 156.163 205.629 158.316 203.725 160.628C202.32 162.396 200.801 164.141 199.169 165.864C197.537 167.587 195.112 170.08 191.893 173.344L190.873 174.364ZM245.386 160.288C246.293 162.373 246.746 164.776 246.746 167.496C246.746 169.944 246.338 172.211 245.522 174.296C244.434 177.197 242.598 179.464 240.014 181.096C237.475 182.728 234.461 183.544 230.97 183.544C227.525 183.544 224.487 182.683 221.858 180.96C219.274 179.237 217.415 176.903 216.282 173.956C215.647 172.188 215.285 170.284 215.194 168.244C215.194 167.7 215.466 167.428 216.01 167.428H224.034C224.578 167.428 224.85 167.7 224.85 168.244C225.031 169.74 225.281 170.851 225.598 171.576C226.006 172.755 226.663 173.684 227.57 174.364C228.522 174.999 229.633 175.316 230.902 175.316C233.441 175.316 235.186 174.205 236.138 171.984C236.773 170.624 237.09 169.037 237.09 167.224C237.09 165.093 236.75 163.348 236.07 161.988C235.027 159.857 233.282 158.792 230.834 158.792C230.335 158.792 229.814 158.951 229.27 159.268C228.726 159.54 228.069 159.948 227.298 160.492C227.117 160.628 226.935 160.696 226.754 160.696C226.482 160.696 226.278 160.56 226.142 160.288L222.13 154.644C222.039 154.508 221.994 154.349 221.994 154.168C221.994 153.896 222.085 153.669 222.266 153.488L233.078 144.036C233.169 143.945 233.191 143.855 233.146 143.764C233.146 143.673 233.078 143.628 232.942 143.628H216.962C216.735 143.628 216.531 143.56 216.35 143.424C216.214 143.243 216.146 143.039 216.146 142.812V136.216C216.146 135.989 216.214 135.808 216.35 135.672C216.531 135.491 216.735 135.4 216.962 135.4H245.318C245.545 135.4 245.726 135.491 245.862 135.672C246.043 135.808 246.134 135.989 246.134 136.216V143.696C246.134 144.059 245.975 144.399 245.658 144.716L236.75 152.876C236.659 152.967 236.614 153.057 236.614 153.148C236.659 153.239 236.773 153.284 236.954 153.284C240.898 154.055 243.709 156.389 245.386 160.288Z" fill="white"/>
<path d="M121.935 225C121.789 225 121.715 224.927 121.715 224.78V209.82C121.715 209.673 121.789 209.6 121.935 209.6H123.057C123.204 209.6 123.277 209.673 123.277 209.82V223.548C123.277 223.607 123.307 223.636 123.365 223.636H131.131C131.278 223.636 131.351 223.709 131.351 223.856V224.78C131.351 224.927 131.278 225 131.131 225H121.935ZM142.047 217.564C142.106 217.975 142.135 218.488 142.135 219.104V219.808C142.135 219.955 142.062 220.028 141.915 220.028H134.809C134.751 220.028 134.721 220.057 134.721 220.116C134.751 220.923 134.795 221.443 134.853 221.678C135.015 222.338 135.359 222.859 135.887 223.24C136.415 223.621 137.09 223.812 137.911 223.812C138.527 223.812 139.07 223.673 139.539 223.394C140.009 223.115 140.375 222.719 140.639 222.206C140.727 222.074 140.83 222.045 140.947 222.118L141.805 222.624C141.923 222.697 141.952 222.8 141.893 222.932C141.527 223.636 140.977 224.193 140.243 224.604C139.51 225 138.667 225.198 137.713 225.198C136.672 225.183 135.799 224.934 135.095 224.45C134.391 223.966 133.885 223.291 133.577 222.426C133.313 221.722 133.181 220.71 133.181 219.39C133.181 218.774 133.189 218.275 133.203 217.894C133.233 217.498 133.291 217.146 133.379 216.838C133.629 215.885 134.127 215.122 134.875 214.55C135.638 213.978 136.555 213.692 137.625 213.692C138.96 213.692 139.987 214.029 140.705 214.704C141.424 215.379 141.871 216.332 142.047 217.564ZM137.625 215.056C136.907 215.056 136.305 215.247 135.821 215.628C135.352 215.995 135.044 216.493 134.897 217.124C134.809 217.432 134.751 217.931 134.721 218.62C134.721 218.679 134.751 218.708 134.809 218.708H140.507C140.566 218.708 140.595 218.679 140.595 218.62C140.566 217.96 140.522 217.491 140.463 217.212C140.302 216.552 139.972 216.031 139.473 215.65C138.989 215.254 138.373 215.056 137.625 215.056ZM149.091 210.964C148.285 210.964 147.735 211.147 147.441 211.514C147.148 211.866 147.001 212.475 147.001 213.34V213.78C147.001 213.839 147.031 213.868 147.089 213.868H149.553C149.7 213.868 149.773 213.941 149.773 214.088V215.078C149.773 215.225 149.7 215.298 149.553 215.298H147.089C147.031 215.298 147.001 215.327 147.001 215.386V224.78C147.001 224.927 146.928 225 146.781 225H145.681C145.535 225 145.461 224.927 145.461 224.78V215.386C145.461 215.327 145.432 215.298 145.373 215.298H143.899C143.753 215.298 143.679 215.225 143.679 215.078V214.088C143.679 213.941 143.753 213.868 143.899 213.868H145.373C145.432 213.868 145.461 213.839 145.461 213.78V213.252C145.461 212.343 145.564 211.631 145.769 211.118C145.975 210.59 146.327 210.209 146.825 209.974C147.339 209.725 148.05 209.6 148.959 209.6H149.597C149.744 209.6 149.817 209.673 149.817 209.82V210.744C149.817 210.891 149.744 210.964 149.597 210.964H149.091ZM157.127 214.946C157.127 215.093 157.054 215.166 156.907 215.166H154.421C154.362 215.166 154.333 215.195 154.333 215.254V221.744C154.333 222.448 154.487 222.947 154.795 223.24C155.118 223.519 155.616 223.658 156.291 223.658H156.841C156.988 223.658 157.061 223.731 157.061 223.878V224.78C157.061 224.927 156.988 225 156.841 225C156.665 225.015 156.394 225.022 156.027 225.022C154.971 225.022 154.172 224.824 153.629 224.428C153.086 224.032 152.815 223.299 152.815 222.228V215.254C152.815 215.195 152.786 215.166 152.727 215.166H151.385C151.238 215.166 151.165 215.093 151.165 214.946V214.088C151.165 213.941 151.238 213.868 151.385 213.868H152.727C152.786 213.868 152.815 213.839 152.815 213.78V211.228C152.815 211.081 152.888 211.008 153.035 211.008H154.113C154.26 211.008 154.333 211.081 154.333 211.228V213.78C154.333 213.839 154.362 213.868 154.421 213.868H156.907C157.054 213.868 157.127 213.941 157.127 214.088V214.946ZM168.745 214.946C168.745 215.093 168.672 215.166 168.525 215.166H166.039C165.98 215.166 165.951 215.195 165.951 215.254V221.744C165.951 222.448 166.105 222.947 166.413 223.24C166.736 223.519 167.234 223.658 167.909 223.658H168.459C168.606 223.658 168.679 223.731 168.679 223.878V224.78C168.679 224.927 168.606 225 168.459 225C168.283 225.015 168.012 225.022 167.645 225.022C166.589 225.022 165.79 224.824 165.247 224.428C164.704 224.032 164.433 223.299 164.433 222.228V215.254C164.433 215.195 164.404 215.166 164.345 215.166H163.003C162.856 215.166 162.783 215.093 162.783 214.946V214.088C162.783 213.941 162.856 213.868 163.003 213.868H164.345C164.404 213.868 164.433 213.839 164.433 213.78V211.228C164.433 211.081 164.506 211.008 164.653 211.008H165.731C165.878 211.008 165.951 211.081 165.951 211.228V213.78C165.951 213.839 165.98 213.868 166.039 213.868H168.525C168.672 213.868 168.745 213.941 168.745 214.088V214.946ZM175.288 225.176C174.232 225.176 173.323 224.905 172.56 224.362C171.798 223.819 171.27 223.071 170.976 222.118C170.771 221.443 170.668 220.541 170.668 219.412C170.668 218.283 170.771 217.388 170.976 216.728C171.255 215.789 171.776 215.049 172.538 214.506C173.301 213.963 174.225 213.692 175.31 213.692C176.352 213.692 177.246 213.963 177.994 214.506C178.757 215.049 179.278 215.782 179.556 216.706C179.762 217.337 179.864 218.239 179.864 219.412C179.864 220.6 179.762 221.502 179.556 222.118C179.278 223.071 178.757 223.819 177.994 224.362C177.246 224.905 176.344 225.176 175.288 225.176ZM175.288 223.812C175.992 223.812 176.594 223.621 177.092 223.24C177.591 222.844 177.928 222.316 178.104 221.656C178.236 221.128 178.302 220.387 178.302 219.434C178.302 218.466 178.244 217.725 178.126 217.212C177.95 216.552 177.606 216.031 177.092 215.65C176.594 215.254 175.985 215.056 175.266 215.056C174.548 215.056 173.939 215.254 173.44 215.65C172.942 216.031 172.604 216.552 172.428 217.212C172.311 217.725 172.252 218.466 172.252 219.434C172.252 220.402 172.311 221.143 172.428 221.656C172.59 222.316 172.92 222.844 173.418 223.24C173.932 223.621 174.555 223.812 175.288 223.812ZM197.899 213.714C198.999 213.714 199.864 214.044 200.495 214.704C201.14 215.364 201.463 216.266 201.463 217.41V224.78C201.463 224.927 201.39 225 201.243 225H200.143C199.996 225 199.923 224.927 199.923 224.78V217.718C199.923 216.911 199.688 216.273 199.219 215.804C198.764 215.32 198.163 215.078 197.415 215.078C196.638 215.078 196.007 215.313 195.523 215.782C195.054 216.251 194.819 216.882 194.819 217.674V224.78C194.819 224.927 194.746 225 194.599 225H193.477C193.33 225 193.257 224.927 193.257 224.78V217.718C193.257 216.911 193.03 216.273 192.575 215.804C192.12 215.32 191.512 215.078 190.749 215.078C189.972 215.078 189.348 215.313 188.879 215.782C188.424 216.251 188.197 216.882 188.197 217.674V224.78C188.197 224.927 188.124 225 187.977 225H186.855C186.708 225 186.635 224.927 186.635 224.78V214.088C186.635 213.941 186.708 213.868 186.855 213.868H187.977C188.124 213.868 188.197 213.941 188.197 214.088V214.968C188.197 214.997 188.204 215.019 188.219 215.034C188.248 215.034 188.278 215.019 188.307 214.99C188.63 214.565 189.04 214.249 189.539 214.044C190.052 213.824 190.617 213.714 191.233 213.714C191.996 213.714 192.648 213.868 193.191 214.176C193.734 214.484 194.144 214.931 194.423 215.518C194.452 215.591 194.489 215.591 194.533 215.518C194.856 214.917 195.31 214.469 195.897 214.176C196.484 213.868 197.151 213.714 197.899 213.714ZM205.488 211.844C205.136 211.844 204.843 211.727 204.608 211.492C204.374 211.257 204.256 210.964 204.256 210.612C204.256 210.245 204.374 209.952 204.608 209.732C204.843 209.497 205.136 209.38 205.488 209.38C205.84 209.38 206.134 209.497 206.368 209.732C206.603 209.952 206.72 210.245 206.72 210.612C206.72 210.964 206.603 211.257 206.368 211.492C206.134 211.727 205.84 211.844 205.488 211.844ZM204.872 224.978C204.726 224.978 204.652 224.905 204.652 224.758V214.066C204.652 213.919 204.726 213.846 204.872 213.846H205.994C206.141 213.846 206.214 213.919 206.214 214.066V224.758C206.214 224.905 206.141 224.978 205.994 224.978H204.872ZM214.26 213.714C215.433 213.714 216.364 214.059 217.054 214.748C217.758 215.437 218.11 216.361 218.11 217.52V224.78C218.11 224.927 218.036 225 217.89 225H216.768C216.621 225 216.548 224.927 216.548 224.78V217.828C216.548 217.021 216.298 216.361 215.8 215.848C215.316 215.335 214.685 215.078 213.908 215.078C213.101 215.078 212.448 215.327 211.95 215.826C211.451 216.325 211.202 216.977 211.202 217.784V224.78C211.202 224.927 211.128 225 210.982 225H209.86C209.713 225 209.64 224.927 209.64 224.78V214.088C209.64 213.941 209.713 213.868 209.86 213.868H210.982C211.128 213.868 211.202 213.941 211.202 214.088V215.034C211.202 215.063 211.209 215.085 211.224 215.1C211.253 215.115 211.275 215.107 211.29 215.078C211.935 214.169 212.925 213.714 214.26 213.714ZM226.093 214.946C226.093 215.093 226.02 215.166 225.873 215.166H223.387C223.328 215.166 223.299 215.195 223.299 215.254V221.744C223.299 222.448 223.453 222.947 223.761 223.24C224.084 223.519 224.582 223.658 225.257 223.658H225.807C225.954 223.658 226.027 223.731 226.027 223.878V224.78C226.027 224.927 225.954 225 225.807 225C225.631 225.015 225.36 225.022 224.993 225.022C223.937 225.022 223.138 224.824 222.595 224.428C222.052 224.032 221.781 223.299 221.781 222.228V215.254C221.781 215.195 221.752 215.166 221.693 215.166H220.351C220.204 215.166 220.131 215.093 220.131 214.946V214.088C220.131 213.941 220.204 213.868 220.351 213.868H221.693C221.752 213.868 221.781 213.839 221.781 213.78V211.228C221.781 211.081 221.854 211.008 222.001 211.008H223.079C223.226 211.008 223.299 211.081 223.299 211.228V213.78C223.299 213.839 223.328 213.868 223.387 213.868H225.873C226.02 213.868 226.093 213.941 226.093 214.088V214.946Z" fill="#8B8ACA"/>
<defs>
<filter id="filter0_ii_99_2425" x="24.0972" y="23.7676" width="307.181" height="312.866" filterUnits="userSpaceOnUse" color-interpolation-filters="sRGB">
<feFlood flood-opacity="0" result="BackgroundImageFix"/>
<feBlend mode="normal" in="SourceGraphic" in2="BackgroundImageFix" result="shape"/>
<feColorMatrix in="SourceAlpha" type="matrix" values="0 0 0 0 0 0 0 0 0 0 0 0 0 0 0 0 0 0 127 0" result="hardAlpha"/>
<feOffset dx="8.375" dy="13.4"/>
<feGaussianBlur stdDeviation="8.375"/>
<feComposite in2="hardAlpha" operator="arithmetic" k2="-1" k3="1"/>
<feColorMatrix type="matrix" values="0 0 0 0 0.510417 0 0 0 0 0.0208333 0 0 0 0 1 0 0 0 0.95 0"/>
<feBlend mode="normal" in2="shape" result="effect1_innerShadow_99_2425"/>
<feColorMatrix in="SourceAlpha" type="matrix" values="0 0 0 0 0 0 0 0 0 0 0 0 0 0 0 0 0 0 127 0" result="hardAlpha"/>
<feOffset dy="1.675"/>
<feGaussianBlur stdDeviation="4.1875"/>
<feComposite in2="hardAlpha" operator="arithmetic" k2="-1" k3="1"/>
<feColorMatrix type="matrix" values="0 0 0 0 1 0 0 0 0 1 0 0 0 0 1 0 0 0 0.58 0"/>
<feBlend mode="normal" in2="effect1_innerShadow_99_2425" result="effect2_innerShadow_99_2425"/>
</filter>
<radialGradient id="paint0_radial_99_2425" cx="0" cy="0" r="1" gradientUnits="userSpaceOnUse" gradientTransform="translate(234.591 117.325) rotate(111.016) scale(307.294 307.799)">
<stop stop-color="#3244E8"/>
<stop offset="1" stop-color="#000210" stop-opacity="0"/>
</radialGradient>
</defs>
</svg>
