<svg width="340" height="274" viewBox="0 0 340 274" fill="none" xmlns="http://www.w3.org/2000/svg">
<path fill-rule="evenodd" clip-rule="evenodd" d="M152.334 130L168.5 146L184.666 130L338 130L338 2L2.00001 1.99997L2 130L152.334 130Z" fill="url(#paint0_linear_142_2843)"/>
<mask id="path-2-outside-1_142_2843" maskUnits="userSpaceOnUse" x="-2.25628e-07" y="-3.43474e-05" width="340" height="149" fill="black">
<rect fill="white" x="-2.25628e-07" y="-3.43474e-05" width="340" height="149"/>
<path fill-rule="evenodd" clip-rule="evenodd" d="M152.334 130L168.5 146L184.666 130L338 130L338 2L2.00001 1.99997L2 130L152.334 130Z"/>
</mask>
<path d="M168.5 146L167.093 147.421L168.5 148.814L169.907 147.421L168.5 146ZM152.334 130L153.741 128.578L153.157 128L152.334 128L152.334 130ZM184.666 130L184.666 128L183.843 128L183.259 128.579L184.666 130ZM338 130L338 132L340 132L340 130L338 130ZM338 2L340 2L340 2.03239e-07L338 0L338 2ZM2.00001 1.99997L2.00001 -3.41442e-05L1.09806e-05 -3.43474e-05L1.08301e-05 1.99997L2.00001 1.99997ZM2 130L1.20335e-06 130L1.05293e-06 132L2 132L2 130ZM169.907 144.578L153.741 128.578L150.927 131.421L167.093 147.421L169.907 144.578ZM183.259 128.579L167.093 144.578L169.907 147.421L186.073 131.421L183.259 128.579ZM338 128L184.666 128L184.666 132L338 132L338 128ZM336 2L336 130L340 130L340 2L336 2ZM2.00001 3.99997L338 4L338 0L2.00001 -3.41442e-05L2.00001 3.99997ZM4 130L4.00001 1.99997L1.08301e-05 1.99997L1.20335e-06 130L4 130ZM152.334 128L2 128L2 132L152.334 132L152.334 128Z" fill="url(#paint1_linear_142_2843)" mask="url(#path-2-outside-1_142_2843)"/>
<path d="M56.8966 25.46C56.8966 25.5933 56.8299 25.66 56.6966 25.66H49.6166C49.5632 25.66 49.5366 25.6867 49.5366 25.74V30.04C49.5366 30.0933 49.5632 30.12 49.6166 30.12H54.4766C54.6099 30.12 54.6766 30.1867 54.6766 30.32V31.58C54.6766 31.7133 54.6099 31.78 54.4766 31.78H49.6166C49.5632 31.78 49.5366 31.8067 49.5366 31.86V37.8C49.5366 37.9333 49.4699 38 49.3366 38H47.8166C47.6832 38 47.6166 37.9333 47.6166 37.8V24.2C47.6166 24.0667 47.6832 24 47.8166 24H56.6966C56.8299 24 56.8966 24.0667 56.8966 24.2V25.46ZM59.8452 26.22C59.4718 26.22 59.1652 26.1 58.9252 25.86C58.6852 25.62 58.5652 25.3133 58.5652 24.94C58.5652 24.5667 58.6852 24.26 58.9252 24.02C59.1652 23.78 59.4718 23.66 59.8452 23.66C60.2185 23.66 60.5252 23.78 60.7652 24.02C61.0052 24.26 61.1252 24.5667 61.1252 24.94C61.1252 25.3133 61.0052 25.62 60.7652 25.86C60.5252 26.1 60.2185 26.22 59.8452 26.22ZM59.0452 37.98C58.9118 37.98 58.8452 37.9133 58.8452 37.78V28.02C58.8452 27.8867 58.9118 27.82 59.0452 27.82H60.5652C60.6985 27.82 60.7652 27.8867 60.7652 28.02V37.78C60.7652 37.9133 60.6985 37.98 60.5652 37.98H59.0452ZM68.3228 27.68C69.4161 27.68 70.2828 28 70.9228 28.64C71.5628 29.2667 71.8828 30.12 71.8828 31.2V37.8C71.8828 37.9333 71.8161 38 71.6828 38H70.1628C70.0295 38 69.9628 37.9333 69.9628 37.8V31.58C69.9628 30.9133 69.7695 30.3733 69.3828 29.96C68.9961 29.5467 68.4828 29.34 67.8428 29.34C67.2161 29.34 66.7028 29.5467 66.3028 29.96C65.9028 30.3733 65.7028 30.9067 65.7028 31.56V37.8C65.7028 37.9333 65.6361 38 65.5028 38H63.9828C63.8495 38 63.7828 37.9333 63.7828 37.8V28.02C63.7828 27.8867 63.8495 27.82 63.9828 27.82H65.5028C65.6361 27.82 65.7028 27.8867 65.7028 28.02V28.74C65.7028 28.7667 65.7095 28.7867 65.7228 28.8C65.7495 28.8133 65.7695 28.8067 65.7828 28.78C66.3561 28.0467 67.2028 27.68 68.3228 27.68ZM78.3427 27.66C79.156 27.66 79.8627 27.8067 80.4627 28.1C81.076 28.38 81.5427 28.78 81.8627 29.3C82.196 29.8067 82.3627 30.3867 82.3627 31.04V37.8C82.3627 37.9333 82.296 38 82.1627 38H80.6427C80.5093 38 80.4427 37.9333 80.4427 37.8V37.08C80.4427 37.0133 80.4093 37 80.3427 37.04C79.996 37.4 79.5693 37.68 79.0627 37.88C78.5693 38.0667 78.016 38.16 77.4027 38.16C76.416 38.16 75.596 37.9133 74.9427 37.42C74.3027 36.9133 73.9827 36.1533 73.9827 35.14C73.9827 34.1 74.3427 33.2867 75.0627 32.7C75.796 32.1 76.816 31.8 78.1227 31.8H80.3627C80.416 31.8 80.4427 31.7733 80.4427 31.72V31.18C80.4427 30.5933 80.2693 30.14 79.9227 29.82C79.5893 29.4867 79.076 29.32 78.3827 29.32C77.8227 29.32 77.3627 29.4333 77.0027 29.66C76.656 29.8733 76.4427 30.1667 76.3627 30.54C76.3227 30.6733 76.2427 30.7333 76.1227 30.72L74.5027 30.5C74.3693 30.4733 74.3093 30.42 74.3227 30.34C74.4293 29.5533 74.8493 28.9133 75.5827 28.42C76.316 27.9133 77.236 27.66 78.3427 27.66ZM77.8227 36.54C78.5293 36.54 79.1427 36.3533 79.6627 35.98C80.1827 35.6067 80.4427 35.1333 80.4427 34.56V33.38C80.4427 33.3267 80.416 33.3 80.3627 33.3H78.4827C77.696 33.3 77.0693 33.4533 76.6027 33.76C76.136 34.0667 75.9027 34.4933 75.9027 35.04C75.9027 35.5333 76.076 35.9067 76.4227 36.16C76.7827 36.4133 77.2493 36.54 77.8227 36.54ZM89.4947 27.68C90.588 27.68 91.4547 28 92.0947 28.64C92.7347 29.2667 93.0547 30.12 93.0547 31.2V37.8C93.0547 37.9333 92.988 38 92.8547 38H91.3347C91.2014 38 91.1347 37.9333 91.1347 37.8V31.58C91.1347 30.9133 90.9414 30.3733 90.5547 29.96C90.168 29.5467 89.6547 29.34 89.0147 29.34C88.388 29.34 87.8747 29.5467 87.4747 29.96C87.0747 30.3733 86.8747 30.9067 86.8747 31.56V37.8C86.8747 37.9333 86.808 38 86.6747 38H85.1547C85.0214 38 84.9547 37.9333 84.9547 37.8V28.02C84.9547 27.8867 85.0214 27.82 85.1547 27.82H86.6747C86.808 27.82 86.8747 27.8867 86.8747 28.02V28.74C86.8747 28.7667 86.8814 28.7867 86.8947 28.8C86.9214 28.8133 86.9414 28.8067 86.9547 28.78C87.528 28.0467 88.3747 27.68 89.4947 27.68ZM99.7573 38.16C98.744 38.16 97.8773 37.9067 97.1573 37.4C96.4373 36.88 95.944 36.18 95.6773 35.3C95.4773 34.6867 95.3773 33.88 95.3773 32.88C95.3773 31.96 95.4773 31.1533 95.6773 30.46C95.944 29.6067 96.4373 28.9267 97.1573 28.42C97.8907 27.9133 98.7573 27.66 99.7573 27.66C100.757 27.66 101.631 27.9133 102.377 28.42C103.124 28.9267 103.611 29.5667 103.837 30.34C103.917 30.5533 103.971 30.7733 103.997 31C103.997 31.1067 103.937 31.1733 103.817 31.2L102.317 31.42H102.277C102.184 31.42 102.117 31.36 102.077 31.24L102.017 30.92C101.911 30.4667 101.651 30.0867 101.237 29.78C100.824 29.4733 100.324 29.32 99.7373 29.32C99.164 29.32 98.6773 29.4733 98.2773 29.78C97.8773 30.0867 97.6173 30.4933 97.4973 31C97.3773 31.48 97.3173 32.1133 97.3173 32.9C97.3173 33.6733 97.3773 34.3 97.4973 34.78C97.6307 35.3133 97.8907 35.7333 98.2773 36.04C98.6773 36.3467 99.164 36.5 99.7373 36.5C100.324 36.5 100.824 36.3467 101.237 36.04C101.664 35.7333 101.931 35.3333 102.037 34.84C102.051 34.8267 102.051 34.8133 102.037 34.8C102.037 34.7733 102.044 34.7533 102.057 34.74V34.66C102.097 34.5533 102.171 34.5133 102.277 34.54L103.777 34.78C103.884 34.8067 103.937 34.86 103.937 34.94V35.02C103.937 35.14 103.904 35.2867 103.837 35.46C103.611 36.2733 103.124 36.9267 102.377 37.42C101.631 37.9133 100.757 38.16 99.7573 38.16ZM107.365 26.22C106.991 26.22 106.685 26.1 106.445 25.86C106.205 25.62 106.085 25.3133 106.085 24.94C106.085 24.5667 106.205 24.26 106.445 24.02C106.685 23.78 106.991 23.66 107.365 23.66C107.738 23.66 108.045 23.78 108.285 24.02C108.525 24.26 108.645 24.5667 108.645 24.94C108.645 25.3133 108.525 25.62 108.285 25.86C108.045 26.1 107.738 26.22 107.365 26.22ZM106.565 37.98C106.431 37.98 106.365 37.9133 106.365 37.78V28.02C106.365 27.8867 106.431 27.82 106.565 27.82H108.085C108.218 27.82 108.285 27.8867 108.285 28.02V37.78C108.285 37.9133 108.218 37.98 108.085 37.98H106.565ZM115.022 27.66C115.836 27.66 116.542 27.8067 117.142 28.1C117.756 28.38 118.222 28.78 118.542 29.3C118.876 29.8067 119.042 30.3867 119.042 31.04V37.8C119.042 37.9333 118.976 38 118.842 38H117.322C117.189 38 117.122 37.9333 117.122 37.8V37.08C117.122 37.0133 117.089 37 117.022 37.04C116.676 37.4 116.249 37.68 115.742 37.88C115.249 38.0667 114.696 38.16 114.082 38.16C113.096 38.16 112.276 37.9133 111.622 37.42C110.982 36.9133 110.662 36.1533 110.662 35.14C110.662 34.1 111.022 33.2867 111.742 32.7C112.476 32.1 113.496 31.8 114.802 31.8H117.042C117.096 31.8 117.122 31.7733 117.122 31.72V31.18C117.122 30.5933 116.949 30.14 116.602 29.82C116.269 29.4867 115.756 29.32 115.062 29.32C114.502 29.32 114.042 29.4333 113.682 29.66C113.336 29.8733 113.122 30.1667 113.042 30.54C113.002 30.6733 112.922 30.7333 112.802 30.72L111.182 30.5C111.049 30.4733 110.989 30.42 111.002 30.34C111.109 29.5533 111.529 28.9133 112.262 28.42C112.996 27.9133 113.916 27.66 115.022 27.66ZM114.502 36.54C115.209 36.54 115.822 36.3533 116.342 35.98C116.862 35.6067 117.122 35.1333 117.122 34.56V33.38C117.122 33.3267 117.096 33.3 117.042 33.3H115.162C114.376 33.3 113.749 33.4533 113.282 33.76C112.816 34.0667 112.582 34.4933 112.582 35.04C112.582 35.5333 112.756 35.9067 113.102 36.16C113.462 36.4133 113.929 36.54 114.502 36.54ZM121.834 38C121.701 38 121.634 37.9333 121.634 37.8V24.2C121.634 24.0667 121.701 24 121.834 24H123.354C123.488 24 123.554 24.0667 123.554 24.2V37.8C123.554 37.9333 123.488 38 123.354 38H121.834ZM139.085 38C138.965 38 138.885 37.9467 138.845 37.84L138.125 35.5C138.112 35.46 138.085 35.44 138.045 35.44H132.425C132.385 35.44 132.359 35.46 132.345 35.5L131.625 37.84C131.585 37.9467 131.505 38 131.385 38H129.765C129.619 38 129.565 37.9267 129.605 37.78L133.985 24.16C134.025 24.0533 134.105 24 134.225 24H136.225C136.345 24 136.425 24.0533 136.465 24.16L140.885 37.78L140.905 37.86C140.905 37.9533 140.845 38 140.725 38H139.085ZM132.845 33.82C132.832 33.8467 132.832 33.8733 132.845 33.9C132.872 33.9133 132.899 33.92 132.925 33.92H137.525C137.552 33.92 137.572 33.9133 137.585 33.9C137.612 33.8733 137.619 33.8467 137.605 33.82L135.285 26.4C135.272 26.3733 135.252 26.36 135.225 26.36C135.199 26.36 135.179 26.3733 135.165 26.4L132.845 33.82ZM144.103 26.22C143.73 26.22 143.423 26.1 143.183 25.86C142.943 25.62 142.823 25.3133 142.823 24.94C142.823 24.5667 142.943 24.26 143.183 24.02C143.423 23.78 143.73 23.66 144.103 23.66C144.476 23.66 144.783 23.78 145.023 24.02C145.263 24.26 145.383 24.5667 145.383 24.94C145.383 25.3133 145.263 25.62 145.023 25.86C144.783 26.1 144.476 26.22 144.103 26.22ZM143.303 37.98C143.17 37.98 143.103 37.9133 143.103 37.78V28.02C143.103 27.8867 143.17 27.82 143.303 27.82H144.823C144.956 27.82 145.023 27.8867 145.023 28.02V37.78C145.023 37.9133 144.956 37.98 144.823 37.98H143.303ZM154.361 24.2C154.361 24.0667 154.427 24 154.561 24H156.081C156.214 24 156.281 24.0667 156.281 24.2V37.8C156.281 37.9333 156.214 38 156.081 38H154.561C154.427 38 154.361 37.9333 154.361 37.8V37.14C154.361 37.1133 154.347 37.0933 154.321 37.08C154.307 37.0667 154.287 37.0733 154.261 37.1C153.967 37.4333 153.621 37.6933 153.221 37.88C152.821 38.0667 152.387 38.16 151.921 38.16C150.961 38.16 150.161 37.9267 149.521 37.46C148.894 36.98 148.434 36.3067 148.141 35.44C147.887 34.7333 147.761 33.88 147.761 32.88C147.761 31.9467 147.867 31.14 148.081 30.46C148.361 29.58 148.821 28.8933 149.461 28.4C150.101 27.9067 150.921 27.66 151.921 27.66C152.374 27.66 152.801 27.7533 153.201 27.94C153.614 28.1133 153.967 28.3667 154.261 28.7C154.287 28.7267 154.307 28.7333 154.321 28.72C154.347 28.7067 154.361 28.6867 154.361 28.66V24.2ZM153.861 35.42C154.167 34.86 154.321 34.02 154.321 32.9C154.321 31.78 154.154 30.9267 153.821 30.34C153.434 29.66 152.867 29.32 152.121 29.32C151.321 29.32 150.727 29.64 150.341 30.28C149.914 30.9467 149.701 31.8267 149.701 32.92C149.701 33.9467 149.867 34.7733 150.201 35.4C150.587 36.1333 151.221 36.5 152.101 36.5C152.874 36.5 153.461 36.14 153.861 35.42ZM168.119 29.2C168.119 29.3333 168.053 29.4 167.919 29.4H165.759C165.706 29.4 165.679 29.4267 165.679 29.48V34.78C165.679 35.34 165.806 35.7467 166.059 36C166.313 36.24 166.706 36.36 167.239 36.36H167.819C167.953 36.36 168.019 36.4267 168.019 36.56V37.8C168.019 37.9333 167.953 38 167.819 38C167.393 38.0267 167.086 38.04 166.899 38.04C165.886 38.04 165.119 37.86 164.599 37.5C164.093 37.1267 163.839 36.4467 163.839 35.46V29.48C163.839 29.4267 163.813 29.4 163.759 29.4H162.539C162.406 29.4 162.339 29.3333 162.339 29.2V28.02C162.339 27.8867 162.406 27.82 162.539 27.82H163.759C163.813 27.82 163.839 27.7933 163.839 27.74V25.38C163.839 25.2467 163.906 25.18 164.039 25.18H165.479C165.613 25.18 165.679 25.2467 165.679 25.38V27.74C165.679 27.7933 165.706 27.82 165.759 27.82H167.919C168.053 27.82 168.119 27.8867 168.119 28.02V29.2ZM174.408 38.16C173.421 38.16 172.561 37.9133 171.828 37.42C171.094 36.9133 170.581 36.2133 170.288 35.32C170.048 34.6 169.928 33.7867 169.928 32.88C169.928 31.9333 170.041 31.1333 170.268 30.48C170.561 29.6 171.074 28.9133 171.808 28.42C172.541 27.9133 173.414 27.66 174.428 27.66C175.388 27.66 176.221 27.9133 176.928 28.42C177.648 28.9133 178.161 29.5933 178.468 30.46C178.708 31.14 178.828 31.94 178.828 32.86C178.828 33.7933 178.708 34.6133 178.468 35.32C178.174 36.2133 177.668 36.9133 176.948 37.42C176.228 37.9133 175.381 38.16 174.408 38.16ZM174.408 36.5C174.941 36.5 175.408 36.3533 175.808 36.06C176.208 35.7533 176.494 35.3267 176.668 34.78C176.814 34.2733 176.888 33.6467 176.888 32.9C176.888 32.1533 176.821 31.5333 176.688 31.04C176.514 30.4933 176.228 30.0733 175.828 29.78C175.428 29.4733 174.941 29.32 174.368 29.32C173.821 29.32 173.348 29.4733 172.948 29.78C172.548 30.0733 172.261 30.4933 172.088 31.04C171.941 31.5067 171.868 32.1267 171.868 32.9C171.868 33.6733 171.941 34.3 172.088 34.78C172.248 35.3267 172.528 35.7533 172.928 36.06C173.341 36.3533 173.834 36.5 174.408 36.5ZM186.505 26.22C186.132 26.22 185.825 26.1 185.585 25.86C185.345 25.62 185.225 25.3133 185.225 24.94C185.225 24.5667 185.345 24.26 185.585 24.02C185.825 23.78 186.132 23.66 186.505 23.66C186.879 23.66 187.185 23.78 187.425 24.02C187.665 24.26 187.785 24.5667 187.785 24.94C187.785 25.3133 187.665 25.62 187.425 25.86C187.185 26.1 186.879 26.22 186.505 26.22ZM185.705 37.98C185.572 37.98 185.505 37.9133 185.505 37.78V28.02C185.505 27.8867 185.572 27.82 185.705 27.82H187.225C187.359 27.82 187.425 27.8867 187.425 28.02V37.78C187.425 37.9133 187.359 37.98 187.225 37.98H185.705ZM194.983 27.68C196.076 27.68 196.943 28 197.583 28.64C198.223 29.2667 198.543 30.12 198.543 31.2V37.8C198.543 37.9333 198.476 38 198.343 38H196.823C196.69 38 196.623 37.9333 196.623 37.8V31.58C196.623 30.9133 196.43 30.3733 196.043 29.96C195.656 29.5467 195.143 29.34 194.503 29.34C193.876 29.34 193.363 29.5467 192.963 29.96C192.563 30.3733 192.363 30.9067 192.363 31.56V37.8C192.363 37.9333 192.296 38 192.163 38H190.643C190.51 38 190.443 37.9333 190.443 37.8V28.02C190.443 27.8867 190.51 27.82 190.643 27.82H192.163C192.296 27.82 192.363 27.8867 192.363 28.02V28.74C192.363 28.7667 192.37 28.7867 192.383 28.8C192.41 28.8133 192.43 28.8067 192.443 28.78C193.016 28.0467 193.863 27.68 194.983 27.68ZM207.486 24.2C207.486 24.0667 207.552 24 207.686 24H209.206C209.339 24 209.406 24.0667 209.406 24.2V37.8C209.406 37.9333 209.339 38 209.206 38H207.686C207.552 38 207.486 37.9333 207.486 37.8V37.14C207.486 37.1133 207.472 37.0933 207.446 37.08C207.432 37.0667 207.412 37.0733 207.386 37.1C207.092 37.4333 206.746 37.6933 206.346 37.88C205.946 38.0667 205.512 38.16 205.046 38.16C204.086 38.16 203.286 37.9267 202.646 37.46C202.019 36.98 201.559 36.3067 201.266 35.44C201.012 34.7333 200.886 33.88 200.886 32.88C200.886 31.9467 200.992 31.14 201.206 30.46C201.486 29.58 201.946 28.8933 202.586 28.4C203.226 27.9067 204.046 27.66 205.046 27.66C205.499 27.66 205.926 27.7533 206.326 27.94C206.739 28.1133 207.092 28.3667 207.386 28.7C207.412 28.7267 207.432 28.7333 207.446 28.72C207.472 28.7067 207.486 28.6867 207.486 28.66V24.2ZM206.986 35.42C207.292 34.86 207.446 34.02 207.446 32.9C207.446 31.78 207.279 30.9267 206.946 30.34C206.559 29.66 205.992 29.32 205.246 29.32C204.446 29.32 203.852 29.64 203.466 30.28C203.039 30.9467 202.826 31.8267 202.826 32.92C202.826 33.9467 202.992 34.7733 203.326 35.4C203.712 36.1333 204.346 36.5 205.226 36.5C205.999 36.5 206.586 36.14 206.986 35.42ZM220.46 31.64C220.514 32.1867 220.534 32.8 220.52 33.48C220.52 33.6133 220.454 33.68 220.32 33.68H213.94C213.887 33.68 213.86 33.7067 213.86 33.76C213.86 34.2133 213.9 34.56 213.98 34.8C214.127 35.3333 214.42 35.7533 214.86 36.06C215.314 36.3533 215.88 36.5 216.56 36.5C217.547 36.5 218.307 36.0933 218.84 35.28C218.907 35.1467 218.994 35.1267 219.1 35.22L220.24 35.98C220.334 36.06 220.354 36.1467 220.3 36.24C219.927 36.84 219.394 37.3133 218.7 37.66C218.02 38.0067 217.247 38.18 216.38 38.18C215.407 38.18 214.587 37.9667 213.92 37.54C213.254 37.1133 212.754 36.5067 212.42 35.72C212.1 34.9333 211.94 33.98 211.94 32.86C211.94 31.8867 212.014 31.1467 212.16 30.64C212.4 29.72 212.88 28.9933 213.6 28.46C214.32 27.9267 215.194 27.66 216.22 27.66C217.567 27.66 218.574 28 219.24 28.68C219.907 29.3467 220.314 30.3333 220.46 31.64ZM216.22 29.32C215.647 29.32 215.174 29.4667 214.8 29.76C214.427 30.04 214.174 30.42 214.04 30.9C213.947 31.1933 213.887 31.5667 213.86 32.02C213.86 32.0733 213.887 32.1 213.94 32.1H218.52C218.574 32.1 218.6 32.0733 218.6 32.02C218.574 31.58 218.534 31.2533 218.48 31.04C218.347 30.52 218.08 30.1067 217.68 29.8C217.294 29.48 216.807 29.32 216.22 29.32ZM231.203 30.38C231.456 31.1 231.583 31.9533 231.583 32.94C231.583 33.8733 231.476 34.68 231.263 35.36C230.983 36.2533 230.523 36.9467 229.883 37.44C229.243 37.92 228.423 38.16 227.423 38.16C226.97 38.16 226.536 38.0733 226.123 37.9C225.723 37.7133 225.376 37.4533 225.083 37.12C225.056 37.0933 225.03 37.0867 225.003 37.1C224.99 37.1133 224.983 37.1333 224.983 37.16V41.62C224.983 41.7533 224.916 41.82 224.783 41.82H223.263C223.13 41.82 223.063 41.7533 223.063 41.62V28.02C223.063 27.8867 223.13 27.82 223.263 27.82H224.783C224.916 27.82 224.983 27.8867 224.983 28.02V28.68C224.983 28.7067 224.99 28.7267 225.003 28.74C225.03 28.7533 225.056 28.7467 225.083 28.72C225.376 28.3867 225.723 28.1267 226.123 27.94C226.523 27.7533 226.956 27.66 227.423 27.66C228.383 27.66 229.176 27.9 229.803 28.38C230.443 28.8467 230.91 29.5133 231.203 30.38ZM229.003 35.54C229.43 34.9 229.643 34.02 229.643 32.9C229.643 31.8733 229.476 31.0467 229.143 30.42C228.756 29.6867 228.123 29.32 227.243 29.32C226.47 29.32 225.883 29.68 225.483 30.4C225.163 30.9733 225.003 31.8133 225.003 32.92C225.003 34.04 225.176 34.8933 225.523 35.48C225.91 36.16 226.476 36.5 227.223 36.5C228.023 36.5 228.616 36.18 229.003 35.54ZM242.218 31.64C242.271 32.1867 242.291 32.8 242.278 33.48C242.278 33.6133 242.211 33.68 242.078 33.68H235.698C235.645 33.68 235.618 33.7067 235.618 33.76C235.618 34.2133 235.658 34.56 235.738 34.8C235.885 35.3333 236.178 35.7533 236.618 36.06C237.071 36.3533 237.638 36.5 238.318 36.5C239.305 36.5 240.065 36.0933 240.598 35.28C240.665 35.1467 240.751 35.1267 240.858 35.22L241.998 35.98C242.091 36.06 242.111 36.1467 242.058 36.24C241.685 36.84 241.151 37.3133 240.458 37.66C239.778 38.0067 239.005 38.18 238.138 38.18C237.165 38.18 236.345 37.9667 235.678 37.54C235.011 37.1133 234.511 36.5067 234.178 35.72C233.858 34.9333 233.698 33.98 233.698 32.86C233.698 31.8867 233.771 31.1467 233.918 30.64C234.158 29.72 234.638 28.9933 235.358 28.46C236.078 27.9267 236.951 27.66 237.978 27.66C239.325 27.66 240.331 28 240.998 28.68C241.665 29.3467 242.071 30.3333 242.218 31.64ZM237.978 29.32C237.405 29.32 236.931 29.4667 236.558 29.76C236.185 30.04 235.931 30.42 235.798 30.9C235.705 31.1933 235.645 31.5667 235.618 32.02C235.618 32.0733 235.645 32.1 235.698 32.1H240.278C240.331 32.1 240.358 32.0733 240.358 32.02C240.331 31.58 240.291 31.2533 240.238 31.04C240.105 30.52 239.838 30.1067 239.438 29.8C239.051 29.48 238.565 29.32 237.978 29.32ZM249.241 27.68C250.334 27.68 251.201 28 251.841 28.64C252.481 29.2667 252.801 30.12 252.801 31.2V37.8C252.801 37.9333 252.734 38 252.601 38H251.081C250.947 38 250.881 37.9333 250.881 37.8V31.58C250.881 30.9133 250.687 30.3733 250.301 29.96C249.914 29.5467 249.401 29.34 248.761 29.34C248.134 29.34 247.621 29.5467 247.221 29.96C246.821 30.3733 246.621 30.9067 246.621 31.56V37.8C246.621 37.9333 246.554 38 246.421 38H244.901C244.767 38 244.701 37.9333 244.701 37.8V28.02C244.701 27.8867 244.767 27.82 244.901 27.82H246.421C246.554 27.82 246.621 27.8867 246.621 28.02V28.74C246.621 28.7667 246.627 28.7867 246.641 28.8C246.667 28.8133 246.687 28.8067 246.701 28.78C247.274 28.0467 248.121 27.68 249.241 27.68ZM261.743 24.2C261.743 24.0667 261.81 24 261.943 24H263.463C263.597 24 263.663 24.0667 263.663 24.2V37.8C263.663 37.9333 263.597 38 263.463 38H261.943C261.81 38 261.743 37.9333 261.743 37.8V37.14C261.743 37.1133 261.73 37.0933 261.703 37.08C261.69 37.0667 261.67 37.0733 261.643 37.1C261.35 37.4333 261.003 37.6933 260.603 37.88C260.203 38.0667 259.77 38.16 259.303 38.16C258.343 38.16 257.543 37.9267 256.903 37.46C256.277 36.98 255.817 36.3067 255.523 35.44C255.27 34.7333 255.143 33.88 255.143 32.88C255.143 31.9467 255.25 31.14 255.463 30.46C255.743 29.58 256.203 28.8933 256.843 28.4C257.483 27.9067 258.303 27.66 259.303 27.66C259.757 27.66 260.183 27.7533 260.583 27.94C260.997 28.1133 261.35 28.3667 261.643 28.7C261.67 28.7267 261.69 28.7333 261.703 28.72C261.73 28.7067 261.743 28.6867 261.743 28.66V24.2ZM261.243 35.42C261.55 34.86 261.703 34.02 261.703 32.9C261.703 31.78 261.537 30.9267 261.203 30.34C260.817 29.66 260.25 29.32 259.503 29.32C258.703 29.32 258.11 29.64 257.723 30.28C257.297 30.9467 257.083 31.8267 257.083 32.92C257.083 33.9467 257.25 34.7733 257.583 35.4C257.97 36.1333 258.603 36.5 259.483 36.5C260.257 36.5 260.843 36.14 261.243 35.42ZM274.718 31.64C274.771 32.1867 274.791 32.8 274.778 33.48C274.778 33.6133 274.711 33.68 274.578 33.68H268.198C268.145 33.68 268.118 33.7067 268.118 33.76C268.118 34.2133 268.158 34.56 268.238 34.8C268.385 35.3333 268.678 35.7533 269.118 36.06C269.571 36.3533 270.138 36.5 270.818 36.5C271.805 36.5 272.565 36.0933 273.098 35.28C273.165 35.1467 273.251 35.1267 273.358 35.22L274.498 35.98C274.591 36.06 274.611 36.1467 274.558 36.24C274.185 36.84 273.651 37.3133 272.958 37.66C272.278 38.0067 271.505 38.18 270.638 38.18C269.665 38.18 268.845 37.9667 268.178 37.54C267.511 37.1133 267.011 36.5067 266.678 35.72C266.358 34.9333 266.198 33.98 266.198 32.86C266.198 31.8867 266.271 31.1467 266.418 30.64C266.658 29.72 267.138 28.9933 267.858 28.46C268.578 27.9267 269.451 27.66 270.478 27.66C271.825 27.66 272.831 28 273.498 28.68C274.165 29.3467 274.571 30.3333 274.718 31.64ZM270.478 29.32C269.905 29.32 269.431 29.4667 269.058 29.76C268.685 30.04 268.431 30.42 268.298 30.9C268.205 31.1933 268.145 31.5667 268.118 32.02C268.118 32.0733 268.145 32.1 268.198 32.1H272.778C272.831 32.1 272.858 32.0733 272.858 32.02C272.831 31.58 272.791 31.2533 272.738 31.04C272.605 30.52 272.338 30.1067 271.938 29.8C271.551 29.48 271.065 29.32 270.478 29.32ZM281.741 27.68C282.834 27.68 283.701 28 284.341 28.64C284.981 29.2667 285.301 30.12 285.301 31.2V37.8C285.301 37.9333 285.234 38 285.101 38H283.581C283.447 38 283.381 37.9333 283.381 37.8V31.58C283.381 30.9133 283.187 30.3733 282.801 29.96C282.414 29.5467 281.901 29.34 281.261 29.34C280.634 29.34 280.121 29.5467 279.721 29.96C279.321 30.3733 279.121 30.9067 279.121 31.56V37.8C279.121 37.9333 279.054 38 278.921 38H277.401C277.267 38 277.201 37.9333 277.201 37.8V28.02C277.201 27.8867 277.267 27.82 277.401 27.82H278.921C279.054 27.82 279.121 27.8867 279.121 28.02V28.74C279.121 28.7667 279.127 28.7867 279.141 28.8C279.167 28.8133 279.187 28.8067 279.201 28.78C279.774 28.0467 280.621 27.68 281.741 27.68ZM293.061 29.2C293.061 29.3333 292.994 29.4 292.861 29.4H290.701C290.647 29.4 290.621 29.4267 290.621 29.48V34.78C290.621 35.34 290.747 35.7467 291.001 36C291.254 36.24 291.647 36.36 292.181 36.36H292.761C292.894 36.36 292.961 36.4267 292.961 36.56V37.8C292.961 37.9333 292.894 38 292.761 38C292.334 38.0267 292.027 38.04 291.841 38.04C290.827 38.04 290.061 37.86 289.541 37.5C289.034 37.1267 288.781 36.4467 288.781 35.46V29.48C288.781 29.4267 288.754 29.4 288.701 29.4H287.481C287.347 29.4 287.281 29.3333 287.281 29.2V28.02C287.281 27.8867 287.347 27.82 287.481 27.82H288.701C288.754 27.82 288.781 27.7933 288.781 27.74V25.38C288.781 25.2467 288.847 25.18 288.981 25.18H290.421C290.554 25.18 290.621 25.2467 290.621 25.38V27.74C290.621 27.7933 290.647 27.82 290.701 27.82H292.861C292.994 27.82 293.061 27.8867 293.061 28.02V29.2ZM45.1055 50.22C44.7322 50.22 44.4255 50.1 44.1855 49.86C43.9455 49.62 43.8255 49.3133 43.8255 48.94C43.8255 48.5667 43.9455 48.26 44.1855 48.02C44.4255 47.78 44.7322 47.66 45.1055 47.66C45.4922 47.66 45.7989 47.78 46.0255 48.02C46.2655 48.2467 46.3855 48.5533 46.3855 48.94C46.3855 49.3133 46.2655 49.62 46.0255 49.86C45.7855 50.1 45.4789 50.22 45.1055 50.22ZM42.0055 66.14C41.8722 66.14 41.8055 66.0733 41.8055 65.94V64.7C41.8055 64.5667 41.8722 64.5 42.0055 64.5C42.7655 64.5 43.3122 64.3467 43.6455 64.04C43.9922 63.7333 44.1655 63.2467 44.1655 62.58L44.1455 52.02C44.1455 51.8867 44.2122 51.82 44.3455 51.82H45.8655C45.9989 51.82 46.0655 51.8867 46.0655 52.02V62.56C46.0655 63.44 45.9322 64.14 45.6655 64.66C45.3989 65.18 44.9722 65.56 44.3855 65.8C43.7989 66.04 43.0055 66.1533 42.0055 66.14ZM53.2065 62.16C52.2198 62.16 51.3598 61.9133 50.6265 61.42C49.8932 60.9133 49.3798 60.2133 49.0865 59.32C48.8465 58.6 48.7265 57.7867 48.7265 56.88C48.7265 55.9333 48.8398 55.1333 49.0665 54.48C49.3598 53.6 49.8732 52.9133 50.6065 52.42C51.3398 51.9133 52.2132 51.66 53.2265 51.66C54.1865 51.66 55.0198 51.9133 55.7265 52.42C56.4465 52.9133 56.9598 53.5933 57.2665 54.46C57.5065 55.14 57.6265 55.94 57.6265 56.86C57.6265 57.7933 57.5065 58.6133 57.2665 59.32C56.9732 60.2133 56.4665 60.9133 55.7465 61.42C55.0265 61.9133 54.1798 62.16 53.2065 62.16ZM53.2065 60.5C53.7398 60.5 54.2065 60.3533 54.6065 60.06C55.0065 59.7533 55.2932 59.3267 55.4665 58.78C55.6132 58.2733 55.6865 57.6467 55.6865 56.9C55.6865 56.1533 55.6198 55.5333 55.4865 55.04C55.3132 54.4933 55.0265 54.0733 54.6265 53.78C54.2265 53.4733 53.7398 53.32 53.1665 53.32C52.6198 53.32 52.1465 53.4733 51.7465 53.78C51.3465 54.0733 51.0598 54.4933 50.8865 55.04C50.7398 55.5067 50.6665 56.1267 50.6665 56.9C50.6665 57.6733 50.7398 58.3 50.8865 58.78C51.0465 59.3267 51.3265 59.7533 51.7265 60.06C52.1398 60.3533 52.6332 60.5 53.2065 60.5ZM66.2002 52.02C66.2002 51.8867 66.2669 51.82 66.4002 51.82H67.9002C68.0336 51.82 68.1002 51.8867 68.1002 52.02V61.8C68.1002 61.9333 68.0336 62 67.9002 62H66.4002C66.2669 62 66.2002 61.9333 66.2002 61.8V61.06C66.2002 61.0333 66.1869 61.02 66.1602 61.02C66.1469 61.0067 66.1269 61.0133 66.1002 61.04C65.5669 61.7733 64.7469 62.14 63.6402 62.14C62.9869 62.14 62.3802 62.0133 61.8202 61.76C61.2736 61.5067 60.8336 61.1333 60.5002 60.64C60.1669 60.1467 60.0002 59.5467 60.0002 58.84V52.02C60.0002 51.8867 60.0669 51.82 60.2002 51.82H61.7002C61.8336 51.82 61.9002 51.8867 61.9002 52.02V58.24C61.9002 58.9333 62.0802 59.48 62.4402 59.88C62.8136 60.28 63.3336 60.48 64.0002 60.48C64.6669 60.48 65.2002 60.28 65.6002 59.88C66.0002 59.4667 66.2002 58.92 66.2002 58.24V52.02ZM75.362 51.72C75.7886 51.72 76.1753 51.8067 76.522 51.98C76.6153 52.02 76.6486 52.1 76.622 52.22L76.302 53.72C76.2886 53.84 76.2086 53.88 76.062 53.84C75.8353 53.7467 75.5686 53.7 75.262 53.7L74.982 53.72C74.3553 53.7467 73.8353 53.9667 73.422 54.38C73.022 54.78 72.822 55.3067 72.822 55.96V61.8C72.822 61.9333 72.7553 62 72.622 62H71.102C70.9686 62 70.902 61.9333 70.902 61.8V52.02C70.902 51.8867 70.9686 51.82 71.102 51.82H72.622C72.7553 51.82 72.822 51.8867 72.822 52.02V53.08C72.822 53.12 72.8286 53.1467 72.842 53.16C72.8686 53.16 72.8886 53.1467 72.902 53.12C73.502 52.1867 74.322 51.72 75.362 51.72ZM82.8638 51.68C83.9572 51.68 84.8238 52 85.4638 52.64C86.1038 53.2667 86.4238 54.12 86.4238 55.2V61.8C86.4238 61.9333 86.3572 62 86.2238 62H84.7038C84.5705 62 84.5038 61.9333 84.5038 61.8V55.58C84.5038 54.9133 84.3105 54.3733 83.9238 53.96C83.5372 53.5467 83.0238 53.34 82.3838 53.34C81.7572 53.34 81.2438 53.5467 80.8438 53.96C80.4438 54.3733 80.2438 54.9067 80.2438 55.56V61.8C80.2438 61.9333 80.1772 62 80.0438 62H78.5238C78.3905 62 78.3238 61.9333 78.3238 61.8V52.02C78.3238 51.8867 78.3905 51.82 78.5238 51.82H80.0438C80.1772 51.82 80.2438 51.8867 80.2438 52.02V52.74C80.2438 52.7667 80.2505 52.7867 80.2638 52.8C80.2905 52.8133 80.3105 52.8067 80.3238 52.78C80.8972 52.0467 81.7438 51.68 82.8638 51.68ZM92.8837 51.66C93.697 51.66 94.4037 51.8067 95.0037 52.1C95.617 52.38 96.0837 52.78 96.4037 53.3C96.737 53.8067 96.9037 54.3867 96.9037 55.04V61.8C96.9037 61.9333 96.837 62 96.7037 62H95.1837C95.0503 62 94.9837 61.9333 94.9837 61.8V61.08C94.9837 61.0133 94.9503 61 94.8837 61.04C94.537 61.4 94.1103 61.68 93.6037 61.88C93.1103 62.0667 92.557 62.16 91.9437 62.16C90.957 62.16 90.137 61.9133 89.4837 61.42C88.8437 60.9133 88.5237 60.1533 88.5237 59.14C88.5237 58.1 88.8837 57.2867 89.6037 56.7C90.337 56.1 91.357 55.8 92.6637 55.8H94.9037C94.957 55.8 94.9837 55.7733 94.9837 55.72V55.18C94.9837 54.5933 94.8103 54.14 94.4637 53.82C94.1303 53.4867 93.617 53.32 92.9237 53.32C92.3637 53.32 91.9037 53.4333 91.5437 53.66C91.197 53.8733 90.9837 54.1667 90.9037 54.54C90.8637 54.6733 90.7837 54.7333 90.6637 54.72L89.0437 54.5C88.9103 54.4733 88.8503 54.42 88.8637 54.34C88.9703 53.5533 89.3903 52.9133 90.1237 52.42C90.857 51.9133 91.777 51.66 92.8837 51.66ZM92.3637 60.54C93.0703 60.54 93.6837 60.3533 94.2037 59.98C94.7237 59.6067 94.9837 59.1333 94.9837 58.56V57.38C94.9837 57.3267 94.957 57.3 94.9037 57.3H93.0237C92.237 57.3 91.6103 57.4533 91.1437 57.76C90.677 58.0667 90.4437 58.4933 90.4437 59.04C90.4437 59.5333 90.617 59.9067 90.9637 60.16C91.3237 60.4133 91.7903 60.54 92.3637 60.54ZM99.6957 62C99.5624 62 99.4957 61.9333 99.4957 61.8V48.2C99.4957 48.0667 99.5624 48 99.6957 48H101.216C101.349 48 101.416 48.0667 101.416 48.2V61.8C101.416 61.9333 101.349 62 101.216 62H99.6957ZM105.363 50.22C104.989 50.22 104.683 50.1 104.443 49.86C104.203 49.62 104.083 49.3133 104.083 48.94C104.083 48.5667 104.203 48.26 104.443 48.02C104.683 47.78 104.989 47.66 105.363 47.66C105.736 47.66 106.043 47.78 106.283 48.02C106.523 48.26 106.643 48.5667 106.643 48.94C106.643 49.3133 106.523 49.62 106.283 49.86C106.043 50.1 105.736 50.22 105.363 50.22ZM104.563 61.98C104.429 61.98 104.363 61.9133 104.363 61.78V52.02C104.363 51.8867 104.429 51.82 104.563 51.82H106.083C106.216 51.82 106.283 51.8867 106.283 52.02V61.78C106.283 61.9133 106.216 61.98 106.083 61.98H104.563ZM112.88 62.12C112.08 62.12 111.374 62 110.76 61.76C110.16 61.52 109.694 61.1933 109.36 60.78C109.027 60.3533 108.86 59.8867 108.86 59.38V59.16C108.86 59.0267 108.927 58.96 109.06 58.96H110.5C110.634 58.96 110.7 59.0267 110.7 59.16V59.26C110.7 59.6333 110.9 59.96 111.3 60.24C111.714 60.52 112.234 60.66 112.86 60.66C113.46 60.66 113.947 60.5333 114.32 60.28C114.694 60.0133 114.88 59.68 114.88 59.28C114.88 58.8933 114.707 58.6067 114.36 58.42C114.014 58.22 113.454 58.0133 112.68 57.8C111.92 57.5867 111.28 57.3733 110.76 57.16C110.254 56.9333 109.82 56.62 109.46 56.22C109.114 55.8067 108.94 55.28 108.94 54.64C108.94 53.7467 109.287 53.04 109.98 52.52C110.687 51.9867 111.62 51.72 112.78 51.72C113.554 51.72 114.234 51.8467 114.82 52.1C115.42 52.34 115.88 52.68 116.2 53.12C116.52 53.56 116.68 54.0533 116.68 54.6V54.66C116.68 54.7933 116.614 54.86 116.48 54.86H115.08C114.947 54.86 114.88 54.7933 114.88 54.66V54.6C114.88 54.2133 114.687 53.8933 114.3 53.64C113.927 53.3733 113.414 53.24 112.76 53.24C112.174 53.24 111.694 53.3533 111.32 53.58C110.96 53.8067 110.78 54.1133 110.78 54.5C110.78 54.8867 110.954 55.18 111.3 55.38C111.66 55.58 112.234 55.7933 113.02 56.02C113.794 56.2333 114.434 56.4467 114.94 56.66C115.46 56.86 115.9 57.1667 116.26 57.58C116.62 57.98 116.8 58.5067 116.8 59.16C116.8 60.0667 116.44 60.7867 115.72 61.32C115.014 61.8533 114.067 62.12 112.88 62.12ZM129.626 51.68C130.64 51.68 131.44 51.9867 132.026 52.6C132.613 53.2 132.906 54.04 132.906 55.12V61.8C132.906 61.9333 132.84 62 132.706 62H131.206C131.073 62 131.006 61.9333 131.006 61.8V55.52C131.006 54.8533 130.82 54.3267 130.446 53.94C130.086 53.54 129.6 53.34 128.986 53.34C128.373 53.34 127.873 53.5333 127.486 53.92C127.1 54.3067 126.906 54.8267 126.906 55.48V61.8C126.906 61.9333 126.84 62 126.706 62H125.206C125.073 62 125.006 61.9333 125.006 61.8V55.52C125.006 54.8533 124.82 54.3267 124.446 53.94C124.086 53.54 123.6 53.34 122.986 53.34C122.373 53.34 121.88 53.5333 121.506 53.92C121.146 54.3067 120.966 54.8267 120.966 55.48V61.8C120.966 61.9333 120.9 62 120.766 62H119.246C119.113 62 119.046 61.9333 119.046 61.8V52.02C119.046 51.8867 119.113 51.82 119.246 51.82H120.766C120.9 51.82 120.966 51.8867 120.966 52.02V52.7C120.966 52.7267 120.973 52.7467 120.986 52.76C121.013 52.7733 121.04 52.7667 121.066 52.74C121.653 52.0333 122.506 51.68 123.626 51.68C124.306 51.68 124.886 51.8133 125.366 52.08C125.846 52.3333 126.22 52.7133 126.486 53.22C126.526 53.2733 126.566 53.2733 126.606 53.22C126.926 52.7 127.346 52.3133 127.866 52.06C128.4 51.8067 128.986 51.68 129.626 51.68ZM143.294 51.66C144.107 51.66 144.814 51.8067 145.414 52.1C146.027 52.38 146.494 52.78 146.814 53.3C147.147 53.8067 147.314 54.3867 147.314 55.04V61.8C147.314 61.9333 147.247 62 147.114 62H145.594C145.46 62 145.394 61.9333 145.394 61.8V61.08C145.394 61.0133 145.36 61 145.294 61.04C144.947 61.4 144.52 61.68 144.014 61.88C143.52 62.0667 142.967 62.16 142.354 62.16C141.367 62.16 140.547 61.9133 139.894 61.42C139.254 60.9133 138.934 60.1533 138.934 59.14C138.934 58.1 139.294 57.2867 140.014 56.7C140.747 56.1 141.767 55.8 143.074 55.8H145.314C145.367 55.8 145.394 55.7733 145.394 55.72V55.18C145.394 54.5933 145.22 54.14 144.874 53.82C144.54 53.4867 144.027 53.32 143.334 53.32C142.774 53.32 142.314 53.4333 141.954 53.66C141.607 53.8733 141.394 54.1667 141.314 54.54C141.274 54.6733 141.194 54.7333 141.074 54.72L139.454 54.5C139.32 54.4733 139.26 54.42 139.274 54.34C139.38 53.5533 139.8 52.9133 140.534 52.42C141.267 51.9133 142.187 51.66 143.294 51.66ZM142.774 60.54C143.48 60.54 144.094 60.3533 144.614 59.98C145.134 59.6067 145.394 59.1333 145.394 58.56V57.38C145.394 57.3267 145.367 57.3 145.314 57.3H143.434C142.647 57.3 142.02 57.4533 141.554 57.76C141.087 58.0667 140.854 58.4933 140.854 59.04C140.854 59.5333 141.027 59.9067 141.374 60.16C141.734 60.4133 142.2 60.54 142.774 60.54ZM154.446 51.68C155.539 51.68 156.406 52 157.046 52.64C157.686 53.2667 158.006 54.12 158.006 55.2V61.8C158.006 61.9333 157.939 62 157.806 62H156.286C156.153 62 156.086 61.9333 156.086 61.8V55.58C156.086 54.9133 155.893 54.3733 155.506 53.96C155.119 53.5467 154.606 53.34 153.966 53.34C153.339 53.34 152.826 53.5467 152.426 53.96C152.026 54.3733 151.826 54.9067 151.826 55.56V61.8C151.826 61.9333 151.759 62 151.626 62H150.106C149.973 62 149.906 61.9333 149.906 61.8V52.02C149.906 51.8867 149.973 51.82 150.106 51.82H151.626C151.759 51.82 151.826 51.8867 151.826 52.02V52.74C151.826 52.7667 151.833 52.7867 151.846 52.8C151.873 52.8133 151.893 52.8067 151.906 52.78C152.479 52.0467 153.326 51.68 154.446 51.68ZM166.949 48.2C166.949 48.0667 167.015 48 167.149 48H168.669C168.802 48 168.869 48.0667 168.869 48.2V61.8C168.869 61.9333 168.802 62 168.669 62H167.149C167.015 62 166.949 61.9333 166.949 61.8V61.14C166.949 61.1133 166.935 61.0933 166.909 61.08C166.895 61.0667 166.875 61.0733 166.849 61.1C166.555 61.4333 166.209 61.6933 165.809 61.88C165.409 62.0667 164.975 62.16 164.509 62.16C163.549 62.16 162.749 61.9267 162.109 61.46C161.482 60.98 161.022 60.3067 160.729 59.44C160.475 58.7333 160.349 57.88 160.349 56.88C160.349 55.9467 160.455 55.14 160.669 54.46C160.949 53.58 161.409 52.8933 162.049 52.4C162.689 51.9067 163.509 51.66 164.509 51.66C164.962 51.66 165.389 51.7533 165.789 51.94C166.202 52.1133 166.555 52.3667 166.849 52.7C166.875 52.7267 166.895 52.7333 166.909 52.72C166.935 52.7067 166.949 52.6867 166.949 52.66V48.2ZM166.449 59.42C166.755 58.86 166.909 58.02 166.909 56.9C166.909 55.78 166.742 54.9267 166.409 54.34C166.022 53.66 165.455 53.32 164.709 53.32C163.909 53.32 163.315 53.64 162.929 54.28C162.502 54.9467 162.289 55.8267 162.289 56.92C162.289 57.9467 162.455 58.7733 162.789 59.4C163.175 60.1333 163.809 60.5 164.689 60.5C165.462 60.5 166.049 60.14 166.449 59.42ZM176.847 50.22C176.474 50.22 176.167 50.1 175.927 49.86C175.687 49.62 175.567 49.3133 175.567 48.94C175.567 48.5667 175.687 48.26 175.927 48.02C176.167 47.78 176.474 47.66 176.847 47.66C177.22 47.66 177.527 47.78 177.767 48.02C178.007 48.26 178.127 48.5667 178.127 48.94C178.127 49.3133 178.007 49.62 177.767 49.86C177.527 50.1 177.22 50.22 176.847 50.22ZM176.047 61.98C175.914 61.98 175.847 61.9133 175.847 61.78V52.02C175.847 51.8867 175.914 51.82 176.047 51.82H177.567C177.7 51.82 177.767 51.8867 177.767 52.02V61.78C177.767 61.9133 177.7 61.98 177.567 61.98H176.047ZM185.325 51.68C186.418 51.68 187.285 52 187.925 52.64C188.565 53.2667 188.885 54.12 188.885 55.2V61.8C188.885 61.9333 188.818 62 188.685 62H187.165C187.031 62 186.965 61.9333 186.965 61.8V55.58C186.965 54.9133 186.771 54.3733 186.385 53.96C185.998 53.5467 185.485 53.34 184.845 53.34C184.218 53.34 183.705 53.5467 183.305 53.96C182.905 54.3733 182.705 54.9067 182.705 55.56V61.8C182.705 61.9333 182.638 62 182.505 62H180.985C180.851 62 180.785 61.9333 180.785 61.8V52.02C180.785 51.8867 180.851 51.82 180.985 51.82H182.505C182.638 51.82 182.705 51.8867 182.705 52.02V52.74C182.705 52.7667 182.711 52.7867 182.725 52.8C182.751 52.8133 182.771 52.8067 182.785 52.78C183.358 52.0467 184.205 51.68 185.325 51.68ZM194.031 62C193.911 62 193.831 61.9467 193.791 61.84L190.531 52.04L190.511 51.96C190.511 51.8667 190.571 51.82 190.691 51.82H192.371C192.491 51.82 192.571 51.8733 192.611 51.98L194.811 59.22C194.825 59.2467 194.845 59.26 194.871 59.26C194.898 59.26 194.918 59.2467 194.931 59.22L197.111 51.98C197.151 51.8733 197.231 51.82 197.351 51.82L199.031 51.84C199.178 51.84 199.231 51.9133 199.191 52.06L195.951 61.84C195.911 61.9467 195.831 62 195.711 62H194.031ZM208.966 55.64C209.02 56.1867 209.04 56.8 209.026 57.48C209.026 57.6133 208.96 57.68 208.826 57.68H202.446C202.393 57.68 202.366 57.7067 202.366 57.76C202.366 58.2133 202.406 58.56 202.486 58.8C202.633 59.3333 202.926 59.7533 203.366 60.06C203.82 60.3533 204.386 60.5 205.066 60.5C206.053 60.5 206.813 60.0933 207.346 59.28C207.413 59.1467 207.5 59.1267 207.606 59.22L208.746 59.98C208.84 60.06 208.86 60.1467 208.806 60.24C208.433 60.84 207.9 61.3133 207.206 61.66C206.526 62.0067 205.753 62.18 204.886 62.18C203.913 62.18 203.093 61.9667 202.426 61.54C201.76 61.1133 201.26 60.5067 200.926 59.72C200.606 58.9333 200.446 57.98 200.446 56.86C200.446 55.8867 200.52 55.1467 200.666 54.64C200.906 53.72 201.386 52.9933 202.106 52.46C202.826 51.9267 203.7 51.66 204.726 51.66C206.073 51.66 207.08 52 207.746 52.68C208.413 53.3467 208.82 54.3333 208.966 55.64ZM204.726 53.32C204.153 53.32 203.68 53.4667 203.306 53.76C202.933 54.04 202.68 54.42 202.546 54.9C202.453 55.1933 202.393 55.5667 202.366 56.02C202.366 56.0733 202.393 56.1 202.446 56.1H207.026C207.08 56.1 207.106 56.0733 207.106 56.02C207.08 55.58 207.04 55.2533 206.986 55.04C206.853 54.52 206.586 54.1067 206.186 53.8C205.8 53.48 205.313 53.32 204.726 53.32ZM214.873 62.12C214.073 62.12 213.366 62 212.753 61.76C212.153 61.52 211.686 61.1933 211.353 60.78C211.019 60.3533 210.853 59.8867 210.853 59.38V59.16C210.853 59.0267 210.919 58.96 211.053 58.96H212.493C212.626 58.96 212.693 59.0267 212.693 59.16V59.26C212.693 59.6333 212.893 59.96 213.293 60.24C213.706 60.52 214.226 60.66 214.853 60.66C215.453 60.66 215.939 60.5333 216.313 60.28C216.686 60.0133 216.873 59.68 216.873 59.28C216.873 58.8933 216.699 58.6067 216.353 58.42C216.006 58.22 215.446 58.0133 214.673 57.8C213.913 57.5867 213.273 57.3733 212.753 57.16C212.246 56.9333 211.813 56.62 211.453 56.22C211.106 55.8067 210.933 55.28 210.933 54.64C210.933 53.7467 211.279 53.04 211.973 52.52C212.679 51.9867 213.613 51.72 214.773 51.72C215.546 51.72 216.226 51.8467 216.813 52.1C217.413 52.34 217.873 52.68 218.193 53.12C218.513 53.56 218.673 54.0533 218.673 54.6V54.66C218.673 54.7933 218.606 54.86 218.473 54.86H217.073C216.939 54.86 216.873 54.7933 216.873 54.66V54.6C216.873 54.2133 216.679 53.8933 216.293 53.64C215.919 53.3733 215.406 53.24 214.753 53.24C214.166 53.24 213.686 53.3533 213.313 53.58C212.953 53.8067 212.773 54.1133 212.773 54.5C212.773 54.8867 212.946 55.18 213.293 55.38C213.653 55.58 214.226 55.7933 215.013 56.02C215.786 56.2333 216.426 56.4467 216.933 56.66C217.453 56.86 217.893 57.1667 218.253 57.58C218.613 57.98 218.793 58.5067 218.793 59.16C218.793 60.0667 218.433 60.7867 217.713 61.32C217.006 61.8533 216.059 62.12 214.873 62.12ZM226.039 53.2C226.039 53.3333 225.972 53.4 225.839 53.4H223.679C223.626 53.4 223.599 53.4267 223.599 53.48V58.78C223.599 59.34 223.726 59.7467 223.979 60C224.232 60.24 224.626 60.36 225.159 60.36H225.739C225.872 60.36 225.939 60.4267 225.939 60.56V61.8C225.939 61.9333 225.872 62 225.739 62C225.312 62.0267 225.006 62.04 224.819 62.04C223.806 62.04 223.039 61.86 222.519 61.5C222.012 61.1267 221.759 60.4467 221.759 59.46V53.48C221.759 53.4267 221.732 53.4 221.679 53.4H220.459C220.326 53.4 220.259 53.3333 220.259 53.2V52.02C220.259 51.8867 220.326 51.82 220.459 51.82H221.679C221.732 51.82 221.759 51.7933 221.759 51.74V49.38C221.759 49.2467 221.826 49.18 221.959 49.18H223.399C223.532 49.18 223.599 49.2467 223.599 49.38V51.74C223.599 51.7933 223.626 51.82 223.679 51.82H225.839C225.972 51.82 226.039 51.8867 226.039 52.02V53.2ZM229.562 50.22C229.189 50.22 228.882 50.1 228.642 49.86C228.402 49.62 228.282 49.3133 228.282 48.94C228.282 48.5667 228.402 48.26 228.642 48.02C228.882 47.78 229.189 47.66 229.562 47.66C229.935 47.66 230.242 47.78 230.482 48.02C230.722 48.26 230.842 48.5667 230.842 48.94C230.842 49.3133 230.722 49.62 230.482 49.86C230.242 50.1 229.935 50.22 229.562 50.22ZM228.762 61.98C228.629 61.98 228.562 61.9133 228.562 61.78V52.02C228.562 51.8867 228.629 51.82 228.762 51.82H230.282C230.415 51.82 230.482 51.8867 230.482 52.02V61.78C230.482 61.9133 230.415 61.98 230.282 61.98H228.762ZM239.76 52.02C239.76 51.8867 239.826 51.82 239.96 51.82H241.48C241.613 51.82 241.68 51.8867 241.68 52.02V61.48C241.68 63.0933 241.22 64.2467 240.3 64.94C239.393 65.6333 238.173 65.98 236.64 65.98C236.426 65.98 236.093 65.9667 235.64 65.94C235.506 65.9267 235.44 65.8533 235.44 65.72L235.5 64.34C235.5 64.2867 235.52 64.24 235.56 64.2C235.6 64.16 235.653 64.1467 235.72 64.16C235.906 64.1733 236.18 64.18 236.54 64.18C237.673 64.18 238.493 63.9667 239 63.54C239.506 63.1267 239.76 62.42 239.76 61.42V61.06C239.76 61.0333 239.746 61.0133 239.72 61C239.706 60.9867 239.686 60.9933 239.66 61.02C239.1 61.6733 238.28 62 237.2 62C236.333 62 235.546 61.7733 234.84 61.32C234.146 60.8667 233.666 60.2 233.4 59.32C233.226 58.7333 233.14 57.92 233.14 56.88C233.14 55.7733 233.24 54.92 233.44 54.32C233.693 53.52 234.14 52.88 234.78 52.4C235.433 51.9067 236.2 51.66 237.08 51.66C238.173 51.66 239.033 51.9933 239.66 52.66C239.686 52.6867 239.706 52.7 239.72 52.7C239.746 52.6867 239.76 52.6667 239.76 52.64V52.02ZM239.64 58.74C239.68 58.5267 239.706 58.3 239.72 58.06C239.746 57.82 239.76 57.42 239.76 56.86C239.76 56.3 239.746 55.9067 239.72 55.68C239.706 55.44 239.673 55.2133 239.62 55C239.513 54.5067 239.273 54.1067 238.9 53.8C238.526 53.48 238.06 53.32 237.5 53.32C236.94 53.32 236.473 53.48 236.1 53.8C235.726 54.1067 235.46 54.5067 235.3 55C235.153 55.4 235.08 56.02 235.08 56.86C235.08 57.78 235.146 58.4067 235.28 58.74C235.413 59.2333 235.673 59.64 236.06 59.96C236.46 60.2667 236.94 60.42 237.5 60.42C238.086 60.42 238.56 60.2667 238.92 59.96C239.293 59.64 239.533 59.2333 239.64 58.74ZM248.079 51.66C248.892 51.66 249.599 51.8067 250.199 52.1C250.812 52.38 251.279 52.78 251.599 53.3C251.932 53.8067 252.099 54.3867 252.099 55.04V61.8C252.099 61.9333 252.032 62 251.899 62H250.379C250.246 62 250.179 61.9333 250.179 61.8V61.08C250.179 61.0133 250.146 61 250.079 61.04C249.732 61.4 249.306 61.68 248.799 61.88C248.306 62.0667 247.752 62.16 247.139 62.16C246.152 62.16 245.332 61.9133 244.679 61.42C244.039 60.9133 243.719 60.1533 243.719 59.14C243.719 58.1 244.079 57.2867 244.799 56.7C245.532 56.1 246.552 55.8 247.859 55.8H250.099C250.152 55.8 250.179 55.7733 250.179 55.72V55.18C250.179 54.5933 250.006 54.14 249.659 53.82C249.326 53.4867 248.812 53.32 248.119 53.32C247.559 53.32 247.099 53.4333 246.739 53.66C246.392 53.8733 246.179 54.1667 246.099 54.54C246.059 54.6733 245.979 54.7333 245.859 54.72L244.239 54.5C244.106 54.4733 244.046 54.42 244.059 54.34C244.166 53.5533 244.586 52.9133 245.319 52.42C246.052 51.9133 246.972 51.66 248.079 51.66ZM247.559 60.54C248.266 60.54 248.879 60.3533 249.399 59.98C249.919 59.6067 250.179 59.1333 250.179 58.56V57.38C250.179 57.3267 250.152 57.3 250.099 57.3H248.219C247.432 57.3 246.806 57.4533 246.339 57.76C245.872 58.0667 245.639 58.4933 245.639 59.04C245.639 59.5333 245.812 59.9067 246.159 60.16C246.519 60.4133 246.986 60.54 247.559 60.54ZM259.574 53.2C259.574 53.3333 259.508 53.4 259.374 53.4H257.214C257.161 53.4 257.134 53.4267 257.134 53.48V58.78C257.134 59.34 257.261 59.7467 257.514 60C257.768 60.24 258.161 60.36 258.694 60.36H259.274C259.408 60.36 259.474 60.4267 259.474 60.56V61.8C259.474 61.9333 259.408 62 259.274 62C258.848 62.0267 258.541 62.04 258.354 62.04C257.341 62.04 256.574 61.86 256.054 61.5C255.548 61.1267 255.294 60.4467 255.294 59.46V53.48C255.294 53.4267 255.268 53.4 255.214 53.4H253.994C253.861 53.4 253.794 53.3333 253.794 53.2V52.02C253.794 51.8867 253.861 51.82 253.994 51.82H255.214C255.268 51.82 255.294 51.7933 255.294 51.74V49.38C255.294 49.2467 255.361 49.18 255.494 49.18H256.934C257.068 49.18 257.134 49.2467 257.134 49.38V51.74C257.134 51.7933 257.161 51.82 257.214 51.82H259.374C259.508 51.82 259.574 51.8867 259.574 52.02V53.2ZM263.097 50.22C262.724 50.22 262.417 50.1 262.177 49.86C261.937 49.62 261.817 49.3133 261.817 48.94C261.817 48.5667 261.937 48.26 262.177 48.02C262.417 47.78 262.724 47.66 263.097 47.66C263.47 47.66 263.777 47.78 264.017 48.02C264.257 48.26 264.377 48.5667 264.377 48.94C264.377 49.3133 264.257 49.62 264.017 49.86C263.777 50.1 263.47 50.22 263.097 50.22ZM262.297 61.98C262.164 61.98 262.097 61.9133 262.097 61.78V52.02C262.097 51.8867 262.164 51.82 262.297 51.82H263.817C263.95 51.82 264.017 51.8867 264.017 52.02V61.78C264.017 61.9133 263.95 61.98 263.817 61.98H262.297ZM271.195 62.16C270.208 62.16 269.348 61.9133 268.615 61.42C267.881 60.9133 267.368 60.2133 267.075 59.32C266.835 58.6 266.715 57.7867 266.715 56.88C266.715 55.9333 266.828 55.1333 267.055 54.48C267.348 53.6 267.861 52.9133 268.595 52.42C269.328 51.9133 270.201 51.66 271.215 51.66C272.175 51.66 273.008 51.9133 273.715 52.42C274.435 52.9133 274.948 53.5933 275.255 54.46C275.495 55.14 275.615 55.94 275.615 56.86C275.615 57.7933 275.495 58.6133 275.255 59.32C274.961 60.2133 274.455 60.9133 273.735 61.42C273.015 61.9133 272.168 62.16 271.195 62.16ZM271.195 60.5C271.728 60.5 272.195 60.3533 272.595 60.06C272.995 59.7533 273.281 59.3267 273.455 58.78C273.601 58.2733 273.675 57.6467 273.675 56.9C273.675 56.1533 273.608 55.5333 273.475 55.04C273.301 54.4933 273.015 54.0733 272.615 53.78C272.215 53.4733 271.728 53.32 271.155 53.32C270.608 53.32 270.135 53.4733 269.735 53.78C269.335 54.0733 269.048 54.4933 268.875 55.04C268.728 55.5067 268.655 56.1267 268.655 56.9C268.655 57.6733 268.728 58.3 268.875 58.78C269.035 59.3267 269.315 59.7533 269.715 60.06C270.128 60.3533 270.621 60.5 271.195 60.5ZM282.669 51.68C283.762 51.68 284.629 52 285.269 52.64C285.909 53.2667 286.229 54.12 286.229 55.2V61.8C286.229 61.9333 286.162 62 286.029 62H284.509C284.375 62 284.309 61.9333 284.309 61.8V55.58C284.309 54.9133 284.115 54.3733 283.729 53.96C283.342 53.5467 282.829 53.34 282.189 53.34C281.562 53.34 281.049 53.5467 280.649 53.96C280.249 54.3733 280.049 54.9067 280.049 55.56V61.8C280.049 61.9333 279.982 62 279.849 62H278.329C278.195 62 278.129 61.9333 278.129 61.8V52.02C278.129 51.8867 278.195 51.82 278.329 51.82H279.849C279.982 51.82 280.049 51.8867 280.049 52.02V52.74C280.049 52.7667 280.055 52.7867 280.069 52.8C280.095 52.8133 280.115 52.8067 280.129 52.78C280.702 52.0467 281.549 51.68 282.669 51.68ZM292.548 62.12C291.748 62.12 291.042 62 290.428 61.76C289.828 61.52 289.362 61.1933 289.028 60.78C288.695 60.3533 288.528 59.8867 288.528 59.38V59.16C288.528 59.0267 288.595 58.96 288.728 58.96H290.168C290.302 58.96 290.368 59.0267 290.368 59.16V59.26C290.368 59.6333 290.568 59.96 290.968 60.24C291.382 60.52 291.902 60.66 292.528 60.66C293.128 60.66 293.615 60.5333 293.988 60.28C294.362 60.0133 294.548 59.68 294.548 59.28C294.548 58.8933 294.375 58.6067 294.028 58.42C293.682 58.22 293.122 58.0133 292.348 57.8C291.588 57.5867 290.948 57.3733 290.428 57.16C289.922 56.9333 289.488 56.62 289.128 56.22C288.782 55.8067 288.608 55.28 288.608 54.64C288.608 53.7467 288.955 53.04 289.648 52.52C290.355 51.9867 291.288 51.72 292.448 51.72C293.222 51.72 293.902 51.8467 294.488 52.1C295.088 52.34 295.548 52.68 295.868 53.12C296.188 53.56 296.348 54.0533 296.348 54.6V54.66C296.348 54.7933 296.282 54.86 296.148 54.86H294.748C294.615 54.86 294.548 54.7933 294.548 54.66V54.6C294.548 54.2133 294.355 53.8933 293.968 53.64C293.595 53.3733 293.082 53.24 292.428 53.24C291.842 53.24 291.362 53.3533 290.988 53.58C290.628 53.8067 290.448 54.1133 290.448 54.5C290.448 54.8867 290.622 55.18 290.968 55.38C291.328 55.58 291.902 55.7933 292.688 56.02C293.462 56.2333 294.102 56.4467 294.608 56.66C295.128 56.86 295.568 57.1667 295.928 57.58C296.288 57.98 296.468 58.5067 296.468 59.16C296.468 60.0667 296.108 60.7867 295.388 61.32C294.682 61.8533 293.735 62.12 292.548 62.12ZM78.605 86.16C77.5917 86.16 76.725 85.9067 76.005 85.4C75.285 84.88 74.7917 84.18 74.525 83.3C74.325 82.6867 74.225 81.88 74.225 80.88C74.225 79.96 74.325 79.1533 74.525 78.46C74.7917 77.6067 75.285 76.9267 76.005 76.42C76.7383 75.9133 77.605 75.66 78.605 75.66C79.605 75.66 80.4783 75.9133 81.225 76.42C81.9717 76.9267 82.4583 77.5667 82.685 78.34C82.765 78.5533 82.8183 78.7733 82.845 79C82.845 79.1067 82.785 79.1733 82.665 79.2L81.165 79.42H81.125C81.0317 79.42 80.965 79.36 80.925 79.24L80.865 78.92C80.7583 78.4667 80.4983 78.0867 80.085 77.78C79.6717 77.4733 79.1717 77.32 78.585 77.32C78.0117 77.32 77.525 77.4733 77.125 77.78C76.725 78.0867 76.465 78.4933 76.345 79C76.225 79.48 76.165 80.1133 76.165 80.9C76.165 81.6733 76.225 82.3 76.345 82.78C76.4783 83.3133 76.7383 83.7333 77.125 84.04C77.525 84.3467 78.0117 84.5 78.585 84.5C79.1717 84.5 79.6717 84.3467 80.085 84.04C80.5117 83.7333 80.7783 83.3333 80.885 82.84C80.8983 82.8267 80.8983 82.8133 80.885 82.8C80.885 82.7733 80.8917 82.7533 80.905 82.74V82.66C80.945 82.5533 81.0183 82.5133 81.125 82.54L82.625 82.78C82.7317 82.8067 82.785 82.86 82.785 82.94V83.02C82.785 83.14 82.7517 83.2867 82.685 83.46C82.4583 84.2733 81.9717 84.9267 81.225 85.42C80.4783 85.9133 79.605 86.16 78.605 86.16ZM89.1342 86.16C88.1476 86.16 87.2876 85.9133 86.5542 85.42C85.8209 84.9133 85.3076 84.2133 85.0142 83.32C84.7742 82.6 84.6542 81.7867 84.6542 80.88C84.6542 79.9333 84.7676 79.1333 84.9942 78.48C85.2876 77.6 85.8009 76.9133 86.5342 76.42C87.2676 75.9133 88.1409 75.66 89.1542 75.66C90.1142 75.66 90.9476 75.9133 91.6542 76.42C92.3742 76.9133 92.8876 77.5933 93.1942 78.46C93.4342 79.14 93.5542 79.94 93.5542 80.86C93.5542 81.7933 93.4342 82.6133 93.1942 83.32C92.9009 84.2133 92.3942 84.9133 91.6742 85.42C90.9542 85.9133 90.1076 86.16 89.1342 86.16ZM89.1342 84.5C89.6676 84.5 90.1342 84.3533 90.5342 84.06C90.9342 83.7533 91.2209 83.3267 91.3942 82.78C91.5409 82.2733 91.6142 81.6467 91.6142 80.9C91.6142 80.1533 91.5476 79.5333 91.4142 79.04C91.2409 78.4933 90.9542 78.0733 90.5542 77.78C90.1542 77.4733 89.6676 77.32 89.0942 77.32C88.5476 77.32 88.0742 77.4733 87.6742 77.78C87.2742 78.0733 86.9876 78.4933 86.8142 79.04C86.6676 79.5067 86.5942 80.1267 86.5942 80.9C86.5942 81.6733 86.6676 82.3 86.8142 82.78C86.9742 83.3267 87.2542 83.7533 87.6542 84.06C88.0676 84.3533 88.5609 84.5 89.1342 84.5ZM100.608 75.68C101.701 75.68 102.568 76 103.208 76.64C103.848 77.2667 104.168 78.12 104.168 79.2V85.8C104.168 85.9333 104.101 86 103.968 86H102.448C102.315 86 102.248 85.9333 102.248 85.8V79.58C102.248 78.9133 102.055 78.3733 101.668 77.96C101.281 77.5467 100.768 77.34 100.128 77.34C99.5013 77.34 98.988 77.5467 98.588 77.96C98.188 78.3733 97.988 78.9067 97.988 79.56V85.8C97.988 85.9333 97.9213 86 97.788 86H96.268C96.1346 86 96.068 85.9333 96.068 85.8V76.02C96.068 75.8867 96.1346 75.82 96.268 75.82H97.788C97.9213 75.82 97.988 75.8867 97.988 76.02V76.74C97.988 76.7667 97.9946 76.7867 98.008 76.8C98.0346 76.8133 98.0546 76.8067 98.068 76.78C98.6413 76.0467 99.488 75.68 100.608 75.68ZM110.871 86.16C109.857 86.16 108.991 85.9067 108.271 85.4C107.551 84.88 107.057 84.18 106.791 83.3C106.591 82.6867 106.491 81.88 106.491 80.88C106.491 79.96 106.591 79.1533 106.791 78.46C107.057 77.6067 107.551 76.9267 108.271 76.42C109.004 75.9133 109.871 75.66 110.871 75.66C111.871 75.66 112.744 75.9133 113.491 76.42C114.237 76.9267 114.724 77.5667 114.951 78.34C115.031 78.5533 115.084 78.7733 115.111 79C115.111 79.1067 115.051 79.1733 114.931 79.2L113.431 79.42H113.391C113.297 79.42 113.231 79.36 113.191 79.24L113.131 78.92C113.024 78.4667 112.764 78.0867 112.351 77.78C111.937 77.4733 111.437 77.32 110.851 77.32C110.277 77.32 109.791 77.4733 109.391 77.78C108.991 78.0867 108.731 78.4933 108.611 79C108.491 79.48 108.431 80.1133 108.431 80.9C108.431 81.6733 108.491 82.3 108.611 82.78C108.744 83.3133 109.004 83.7333 109.391 84.04C109.791 84.3467 110.277 84.5 110.851 84.5C111.437 84.5 111.937 84.3467 112.351 84.04C112.777 83.7333 113.044 83.3333 113.151 82.84C113.164 82.8267 113.164 82.8133 113.151 82.8C113.151 82.7733 113.157 82.7533 113.171 82.74V82.66C113.211 82.5533 113.284 82.5133 113.391 82.54L114.891 82.78C114.997 82.8067 115.051 82.86 115.051 82.94V83.02C115.051 83.14 115.017 83.2867 114.951 83.46C114.724 84.2733 114.237 84.9267 113.491 85.42C112.744 85.9133 111.871 86.16 110.871 86.16ZM125.48 79.64C125.533 80.1867 125.553 80.8 125.54 81.48C125.54 81.6133 125.473 81.68 125.34 81.68H118.96C118.907 81.68 118.88 81.7067 118.88 81.76C118.88 82.2133 118.92 82.56 119 82.8C119.147 83.3333 119.44 83.7533 119.88 84.06C120.333 84.3533 120.9 84.5 121.58 84.5C122.567 84.5 123.327 84.0933 123.86 83.28C123.927 83.1467 124.013 83.1267 124.12 83.22L125.26 83.98C125.353 84.06 125.373 84.1467 125.32 84.24C124.947 84.84 124.413 85.3133 123.72 85.66C123.04 86.0067 122.267 86.18 121.4 86.18C120.427 86.18 119.607 85.9667 118.94 85.54C118.273 85.1133 117.773 84.5067 117.44 83.72C117.12 82.9333 116.96 81.98 116.96 80.86C116.96 79.8867 117.033 79.1467 117.18 78.64C117.42 77.72 117.9 76.9933 118.62 76.46C119.34 75.9267 120.213 75.66 121.24 75.66C122.587 75.66 123.593 76 124.26 76.68C124.927 77.3467 125.333 78.3333 125.48 79.64ZM121.24 77.32C120.667 77.32 120.193 77.4667 119.82 77.76C119.447 78.04 119.193 78.42 119.06 78.9C118.967 79.1933 118.907 79.5667 118.88 80.02C118.88 80.0733 118.907 80.1 118.96 80.1H123.54C123.593 80.1 123.62 80.0733 123.62 80.02C123.593 79.58 123.553 79.2533 123.5 79.04C123.367 78.52 123.1 78.1067 122.7 77.8C122.313 77.48 121.827 77.32 121.24 77.32ZM132.423 75.72C132.849 75.72 133.236 75.8067 133.583 75.98C133.676 76.02 133.709 76.1 133.683 76.22L133.363 77.72C133.349 77.84 133.269 77.88 133.123 77.84C132.896 77.7467 132.629 77.7 132.323 77.7L132.043 77.72C131.416 77.7467 130.896 77.9667 130.483 78.38C130.083 78.78 129.883 79.3067 129.883 79.96V85.8C129.883 85.9333 129.816 86 129.683 86H128.163C128.029 86 127.963 85.9333 127.963 85.8V76.02C127.963 75.8867 128.029 75.82 128.163 75.82H129.683C129.816 75.82 129.883 75.8867 129.883 76.02V77.08C129.883 77.12 129.889 77.1467 129.903 77.16C129.929 77.16 129.949 77.1467 129.963 77.12C130.563 76.1867 131.383 75.72 132.423 75.72ZM139.924 75.68C141.018 75.68 141.884 76 142.524 76.64C143.164 77.2667 143.484 78.12 143.484 79.2V85.8C143.484 85.9333 143.418 86 143.284 86H141.764C141.631 86 141.564 85.9333 141.564 85.8V79.58C141.564 78.9133 141.371 78.3733 140.984 77.96C140.598 77.5467 140.084 77.34 139.444 77.34C138.818 77.34 138.304 77.5467 137.904 77.96C137.504 78.3733 137.304 78.9067 137.304 79.56V85.8C137.304 85.9333 137.238 86 137.104 86H135.584C135.451 86 135.384 85.9333 135.384 85.8V76.02C135.384 75.8867 135.451 75.82 135.584 75.82H137.104C137.238 75.82 137.304 75.8867 137.304 76.02V76.74C137.304 76.7667 137.311 76.7867 137.324 76.8C137.351 76.8133 137.371 76.8067 137.384 76.78C137.958 76.0467 138.804 75.68 139.924 75.68ZM147.384 74.22C147.011 74.22 146.704 74.1 146.464 73.86C146.224 73.62 146.104 73.3133 146.104 72.94C146.104 72.5667 146.224 72.26 146.464 72.02C146.704 71.78 147.011 71.66 147.384 71.66C147.758 71.66 148.064 71.78 148.304 72.02C148.544 72.26 148.664 72.5667 148.664 72.94C148.664 73.3133 148.544 73.62 148.304 73.86C148.064 74.1 147.758 74.22 147.384 74.22ZM146.584 85.98C146.451 85.98 146.384 85.9133 146.384 85.78V76.02C146.384 75.8867 146.451 75.82 146.584 75.82H148.104C148.238 75.82 148.304 75.8867 148.304 76.02V85.78C148.304 85.9133 148.238 85.98 148.104 85.98H146.584ZM155.862 75.68C156.955 75.68 157.822 76 158.462 76.64C159.102 77.2667 159.422 78.12 159.422 79.2V85.8C159.422 85.9333 159.355 86 159.222 86H157.702C157.569 86 157.502 85.9333 157.502 85.8V79.58C157.502 78.9133 157.309 78.3733 156.922 77.96C156.535 77.5467 156.022 77.34 155.382 77.34C154.755 77.34 154.242 77.5467 153.842 77.96C153.442 78.3733 153.242 78.9067 153.242 79.56V85.8C153.242 85.9333 153.175 86 153.042 86H151.522C151.389 86 151.322 85.9333 151.322 85.8V76.02C151.322 75.8867 151.389 75.82 151.522 75.82H153.042C153.175 75.82 153.242 75.8867 153.242 76.02V76.74C153.242 76.7667 153.249 76.7867 153.262 76.8C153.289 76.8133 153.309 76.8067 153.322 76.78C153.895 76.0467 154.742 75.68 155.862 75.68ZM168.422 76.02C168.422 75.8867 168.488 75.82 168.622 75.82H170.142C170.275 75.82 170.342 75.8867 170.342 76.02V85.48C170.342 87.0933 169.882 88.2467 168.962 88.94C168.055 89.6333 166.835 89.98 165.302 89.98C165.088 89.98 164.755 89.9667 164.302 89.94C164.168 89.9267 164.102 89.8533 164.102 89.72L164.162 88.34C164.162 88.2867 164.182 88.24 164.222 88.2C164.262 88.16 164.315 88.1467 164.382 88.16C164.568 88.1733 164.842 88.18 165.202 88.18C166.335 88.18 167.155 87.9667 167.662 87.54C168.168 87.1267 168.422 86.42 168.422 85.42V85.06C168.422 85.0333 168.408 85.0133 168.382 85C168.368 84.9867 168.348 84.9933 168.322 85.02C167.762 85.6733 166.942 86 165.862 86C164.995 86 164.208 85.7733 163.502 85.32C162.808 84.8667 162.328 84.2 162.062 83.32C161.888 82.7333 161.802 81.92 161.802 80.88C161.802 79.7733 161.902 78.92 162.102 78.32C162.355 77.52 162.802 76.88 163.442 76.4C164.095 75.9067 164.862 75.66 165.742 75.66C166.835 75.66 167.695 75.9933 168.322 76.66C168.348 76.6867 168.368 76.7 168.382 76.7C168.408 76.6867 168.422 76.6667 168.422 76.64V76.02ZM168.302 82.74C168.342 82.5267 168.368 82.3 168.382 82.06C168.408 81.82 168.422 81.42 168.422 80.86C168.422 80.3 168.408 79.9067 168.382 79.68C168.368 79.44 168.335 79.2133 168.282 79C168.175 78.5067 167.935 78.1067 167.562 77.8C167.188 77.48 166.722 77.32 166.162 77.32C165.602 77.32 165.135 77.48 164.762 77.8C164.388 78.1067 164.122 78.5067 163.962 79C163.815 79.4 163.742 80.02 163.742 80.86C163.742 81.78 163.808 82.4067 163.942 82.74C164.075 83.2333 164.335 83.64 164.722 83.96C165.122 84.2667 165.602 84.42 166.162 84.42C166.748 84.42 167.222 84.2667 167.582 83.96C167.955 83.64 168.195 83.2333 168.302 82.74ZM181.505 73.68C180.838 73.68 180.385 73.8067 180.145 74.06C179.905 74.3133 179.785 74.7933 179.785 75.5V75.74C179.785 75.7933 179.812 75.82 179.865 75.82H181.965C182.098 75.82 182.165 75.8867 182.165 76.02V77.38C182.165 77.5133 182.098 77.58 181.965 77.58H179.865C179.812 77.58 179.785 77.6067 179.785 77.66V85.8C179.785 85.9333 179.718 86 179.585 86H178.065C177.932 86 177.865 85.9333 177.865 85.8V77.66C177.865 77.6067 177.838 77.58 177.785 77.58H176.445C176.312 77.58 176.245 77.5133 176.245 77.38V76.02C176.245 75.8867 176.312 75.82 176.445 75.82H177.785C177.838 75.82 177.865 75.7933 177.865 75.74V75.38C177.865 74.5 177.965 73.82 178.165 73.34C178.378 72.86 178.732 72.52 179.225 72.32C179.718 72.1067 180.412 72 181.305 72H181.985C182.118 72 182.185 72.0667 182.185 72.2V73.48C182.185 73.6133 182.118 73.68 181.985 73.68H181.505ZM188.829 75.72C189.255 75.72 189.642 75.8067 189.989 75.98C190.082 76.02 190.115 76.1 190.089 76.22L189.769 77.72C189.755 77.84 189.675 77.88 189.529 77.84C189.302 77.7467 189.035 77.7 188.729 77.7L188.449 77.72C187.822 77.7467 187.302 77.9667 186.889 78.38C186.489 78.78 186.289 79.3067 186.289 79.96V85.8C186.289 85.9333 186.222 86 186.089 86H184.569C184.435 86 184.369 85.9333 184.369 85.8V76.02C184.369 75.8867 184.435 75.82 184.569 75.82H186.089C186.222 75.82 186.289 75.8867 186.289 76.02V77.08C186.289 77.12 186.295 77.1467 186.309 77.16C186.335 77.16 186.355 77.1467 186.369 77.12C186.969 76.1867 187.789 75.72 188.829 75.72ZM195.433 75.66C196.246 75.66 196.953 75.8067 197.553 76.1C198.166 76.38 198.633 76.78 198.953 77.3C199.286 77.8067 199.453 78.3867 199.453 79.04V85.8C199.453 85.9333 199.386 86 199.253 86H197.733C197.599 86 197.533 85.9333 197.533 85.8V85.08C197.533 85.0133 197.499 85 197.433 85.04C197.086 85.4 196.659 85.68 196.153 85.88C195.659 86.0667 195.106 86.16 194.493 86.16C193.506 86.16 192.686 85.9133 192.033 85.42C191.393 84.9133 191.073 84.1533 191.073 83.14C191.073 82.1 191.433 81.2867 192.153 80.7C192.886 80.1 193.906 79.8 195.213 79.8H197.453C197.506 79.8 197.533 79.7733 197.533 79.72V79.18C197.533 78.5933 197.359 78.14 197.013 77.82C196.679 77.4867 196.166 77.32 195.473 77.32C194.913 77.32 194.453 77.4333 194.093 77.66C193.746 77.8733 193.533 78.1667 193.453 78.54C193.413 78.6733 193.333 78.7333 193.213 78.72L191.593 78.5C191.459 78.4733 191.399 78.42 191.413 78.34C191.519 77.5533 191.939 76.9133 192.673 76.42C193.406 75.9133 194.326 75.66 195.433 75.66ZM194.913 84.54C195.619 84.54 196.233 84.3533 196.753 83.98C197.273 83.6067 197.533 83.1333 197.533 82.56V81.38C197.533 81.3267 197.506 81.3 197.453 81.3H195.573C194.786 81.3 194.159 81.4533 193.693 81.76C193.226 82.0667 192.993 82.4933 192.993 83.04C192.993 83.5333 193.166 83.9067 193.513 84.16C193.873 84.4133 194.339 84.54 194.913 84.54ZM208.105 76.02C208.105 75.8867 208.171 75.82 208.305 75.82H209.805C209.938 75.82 210.005 75.8867 210.005 76.02V85.8C210.005 85.9333 209.938 86 209.805 86H208.305C208.171 86 208.105 85.9333 208.105 85.8V85.06C208.105 85.0333 208.091 85.02 208.065 85.02C208.051 85.0067 208.031 85.0133 208.005 85.04C207.471 85.7733 206.651 86.14 205.545 86.14C204.891 86.14 204.285 86.0133 203.725 85.76C203.178 85.5067 202.738 85.1333 202.405 84.64C202.071 84.1467 201.905 83.5467 201.905 82.84V76.02C201.905 75.8867 201.971 75.82 202.105 75.82H203.605C203.738 75.82 203.805 75.8867 203.805 76.02V82.24C203.805 82.9333 203.985 83.48 204.345 83.88C204.718 84.28 205.238 84.48 205.905 84.48C206.571 84.48 207.105 84.28 207.505 83.88C207.905 83.4667 208.105 82.92 208.105 82.24V76.02ZM219.126 72.2C219.126 72.0667 219.193 72 219.326 72H220.846C220.98 72 221.046 72.0667 221.046 72.2V85.8C221.046 85.9333 220.98 86 220.846 86H219.326C219.193 86 219.126 85.9333 219.126 85.8V85.14C219.126 85.1133 219.113 85.0933 219.086 85.08C219.073 85.0667 219.053 85.0733 219.026 85.1C218.733 85.4333 218.386 85.6933 217.986 85.88C217.586 86.0667 217.153 86.16 216.686 86.16C215.726 86.16 214.926 85.9267 214.286 85.46C213.66 84.98 213.2 84.3067 212.906 83.44C212.653 82.7333 212.526 81.88 212.526 80.88C212.526 79.9467 212.633 79.14 212.846 78.46C213.126 77.58 213.586 76.8933 214.226 76.4C214.866 75.9067 215.686 75.66 216.686 75.66C217.14 75.66 217.566 75.7533 217.966 75.94C218.38 76.1133 218.733 76.3667 219.026 76.7C219.053 76.7267 219.073 76.7333 219.086 76.72C219.113 76.7067 219.126 76.6867 219.126 76.66V72.2ZM218.626 83.42C218.933 82.86 219.086 82.02 219.086 80.9C219.086 79.78 218.92 78.9267 218.586 78.34C218.2 77.66 217.633 77.32 216.886 77.32C216.086 77.32 215.493 77.64 215.106 78.28C214.68 78.9467 214.466 79.8267 214.466 80.92C214.466 81.9467 214.633 82.7733 214.966 83.4C215.353 84.1333 215.986 84.5 216.866 84.5C217.64 84.5 218.226 84.14 218.626 83.42ZM229.921 76.02C229.921 75.8867 229.988 75.82 230.121 75.82H231.621C231.754 75.82 231.821 75.8867 231.821 76.02V85.8C231.821 85.9333 231.754 86 231.621 86H230.121C229.988 86 229.921 85.9333 229.921 85.8V85.06C229.921 85.0333 229.908 85.02 229.881 85.02C229.868 85.0067 229.848 85.0133 229.821 85.04C229.288 85.7733 228.468 86.14 227.361 86.14C226.708 86.14 226.101 86.0133 225.541 85.76C224.994 85.5067 224.554 85.1333 224.221 84.64C223.888 84.1467 223.721 83.5467 223.721 82.84V76.02C223.721 75.8867 223.788 75.82 223.921 75.82H225.421C225.554 75.82 225.621 75.8867 225.621 76.02V82.24C225.621 82.9333 225.801 83.48 226.161 83.88C226.534 84.28 227.054 84.48 227.721 84.48C228.388 84.48 228.921 84.28 229.321 83.88C229.721 83.4667 229.921 82.92 229.921 82.24V76.02ZM234.823 86C234.689 86 234.623 85.9333 234.623 85.8V72.2C234.623 72.0667 234.689 72 234.823 72H236.343C236.476 72 236.543 72.0667 236.543 72.2V85.8C236.543 85.9333 236.476 86 236.343 86H234.823ZM247.57 79.64C247.623 80.1867 247.643 80.8 247.63 81.48C247.63 81.6133 247.563 81.68 247.43 81.68H241.05C240.996 81.68 240.97 81.7067 240.97 81.76C240.97 82.2133 241.01 82.56 241.09 82.8C241.236 83.3333 241.53 83.7533 241.97 84.06C242.423 84.3533 242.99 84.5 243.67 84.5C244.656 84.5 245.416 84.0933 245.95 83.28C246.016 83.1467 246.103 83.1267 246.21 83.22L247.35 83.98C247.443 84.06 247.463 84.1467 247.41 84.24C247.036 84.84 246.503 85.3133 245.81 85.66C245.13 86.0067 244.356 86.18 243.49 86.18C242.516 86.18 241.696 85.9667 241.03 85.54C240.363 85.1133 239.863 84.5067 239.53 83.72C239.21 82.9333 239.05 81.98 239.05 80.86C239.05 79.8867 239.123 79.1467 239.27 78.64C239.51 77.72 239.99 76.9933 240.71 76.46C241.43 75.9267 242.303 75.66 243.33 75.66C244.676 75.66 245.683 76 246.35 76.68C247.016 77.3467 247.423 78.3333 247.57 79.64ZM243.33 77.32C242.756 77.32 242.283 77.4667 241.91 77.76C241.536 78.04 241.283 78.42 241.15 78.9C241.056 79.1933 240.996 79.5667 240.97 80.02C240.97 80.0733 240.996 80.1 241.05 80.1H245.63C245.683 80.1 245.71 80.0733 245.71 80.02C245.683 79.58 245.643 79.2533 245.59 79.04C245.456 78.52 245.19 78.1067 244.79 77.8C244.403 77.48 243.916 77.32 243.33 77.32ZM254.592 75.68C255.686 75.68 256.552 76 257.192 76.64C257.832 77.2667 258.152 78.12 258.152 79.2V85.8C258.152 85.9333 258.086 86 257.952 86H256.432C256.299 86 256.232 85.9333 256.232 85.8V79.58C256.232 78.9133 256.039 78.3733 255.652 77.96C255.266 77.5467 254.752 77.34 254.112 77.34C253.486 77.34 252.972 77.5467 252.572 77.96C252.172 78.3733 251.972 78.9067 251.972 79.56V85.8C251.972 85.9333 251.906 86 251.772 86H250.252C250.119 86 250.052 85.9333 250.052 85.8V76.02C250.052 75.8867 250.119 75.82 250.252 75.82H251.772C251.906 75.82 251.972 75.8867 251.972 76.02V76.74C251.972 76.7667 251.979 76.7867 251.992 76.8C252.019 76.8133 252.039 76.8067 252.052 76.78C252.626 76.0467 253.472 75.68 254.592 75.68ZM265.912 77.2C265.912 77.3333 265.846 77.4 265.712 77.4H263.552C263.499 77.4 263.472 77.4267 263.472 77.48V82.78C263.472 83.34 263.599 83.7467 263.852 84C264.106 84.24 264.499 84.36 265.032 84.36H265.612C265.746 84.36 265.812 84.4267 265.812 84.56V85.8C265.812 85.9333 265.746 86 265.612 86C265.186 86.0267 264.879 86.04 264.692 86.04C263.679 86.04 262.912 85.86 262.392 85.5C261.886 85.1267 261.632 84.4467 261.632 83.46V77.48C261.632 77.4267 261.606 77.4 261.552 77.4H260.332C260.199 77.4 260.132 77.3333 260.132 77.2V76.02C260.132 75.8867 260.199 75.82 260.332 75.82H261.552C261.606 75.82 261.632 75.7933 261.632 75.74V73.38C261.632 73.2467 261.699 73.18 261.832 73.18H263.272C263.406 73.18 263.472 73.2467 263.472 73.38V75.74C263.472 75.7933 263.499 75.82 263.552 75.82H265.712C265.846 75.82 265.912 75.8867 265.912 76.02V77.2ZM118.325 96.2C118.325 96.0667 118.392 96 118.525 96H120.045C120.179 96 120.245 96.0667 120.245 96.2V109.8C120.245 109.933 120.179 110 120.045 110H118.525C118.392 110 118.325 109.933 118.325 109.8V109.14C118.325 109.113 118.312 109.093 118.285 109.08C118.272 109.067 118.252 109.073 118.225 109.1C117.932 109.433 117.585 109.693 117.185 109.88C116.785 110.067 116.352 110.16 115.885 110.16C114.925 110.16 114.125 109.927 113.485 109.46C112.859 108.98 112.399 108.307 112.105 107.44C111.852 106.733 111.725 105.88 111.725 104.88C111.725 103.947 111.832 103.14 112.045 102.46C112.325 101.58 112.785 100.893 113.425 100.4C114.065 99.9067 114.885 99.66 115.885 99.66C116.339 99.66 116.765 99.7533 117.165 99.94C117.579 100.113 117.932 100.367 118.225 100.7C118.252 100.727 118.272 100.733 118.285 100.72C118.312 100.707 118.325 100.687 118.325 100.66V96.2ZM117.825 107.42C118.132 106.86 118.285 106.02 118.285 104.9C118.285 103.78 118.119 102.927 117.785 102.34C117.399 101.66 116.832 101.32 116.085 101.32C115.285 101.32 114.692 101.64 114.305 102.28C113.879 102.947 113.665 103.827 113.665 104.92C113.665 105.947 113.832 106.773 114.165 107.4C114.552 108.133 115.185 108.5 116.065 108.5C116.839 108.5 117.425 108.14 117.825 107.42ZM131.3 103.64C131.353 104.187 131.373 104.8 131.36 105.48C131.36 105.613 131.293 105.68 131.16 105.68H124.78C124.727 105.68 124.7 105.707 124.7 105.76C124.7 106.213 124.74 106.56 124.82 106.8C124.967 107.333 125.26 107.753 125.7 108.06C126.153 108.353 126.72 108.5 127.4 108.5C128.387 108.5 129.147 108.093 129.68 107.28C129.747 107.147 129.833 107.127 129.94 107.22L131.08 107.98C131.173 108.06 131.193 108.147 131.14 108.24C130.767 108.84 130.233 109.313 129.54 109.66C128.86 110.007 128.087 110.18 127.22 110.18C126.247 110.18 125.427 109.967 124.76 109.54C124.093 109.113 123.593 108.507 123.26 107.72C122.94 106.933 122.78 105.98 122.78 104.86C122.78 103.887 122.853 103.147 123 102.64C123.24 101.72 123.72 100.993 124.44 100.46C125.16 99.9267 126.033 99.66 127.06 99.66C128.407 99.66 129.413 100 130.08 100.68C130.747 101.347 131.153 102.333 131.3 103.64ZM127.06 101.32C126.487 101.32 126.013 101.467 125.64 101.76C125.267 102.04 125.013 102.42 124.88 102.9C124.787 103.193 124.727 103.567 124.7 104.02C124.7 104.073 124.727 104.1 124.78 104.1H129.36C129.413 104.1 129.44 104.073 129.44 104.02C129.413 103.58 129.373 103.253 129.32 103.04C129.187 102.52 128.92 102.107 128.52 101.8C128.133 101.48 127.647 101.32 127.06 101.32ZM138.107 97.68C137.44 97.68 136.987 97.8067 136.747 98.06C136.507 98.3133 136.387 98.7933 136.387 99.5V99.74C136.387 99.7933 136.413 99.82 136.467 99.82H138.567C138.7 99.82 138.767 99.8867 138.767 100.02V101.38C138.767 101.513 138.7 101.58 138.567 101.58H136.467C136.413 101.58 136.387 101.607 136.387 101.66V109.8C136.387 109.933 136.32 110 136.187 110H134.667C134.533 110 134.467 109.933 134.467 109.8V101.66C134.467 101.607 134.44 101.58 134.387 101.58H133.047C132.913 101.58 132.847 101.513 132.847 101.38V100.02C132.847 99.8867 132.913 99.82 133.047 99.82H134.387C134.44 99.82 134.467 99.7933 134.467 99.74V99.38C134.467 98.5 134.567 97.82 134.767 97.34C134.98 96.86 135.333 96.52 135.827 96.32C136.32 96.1067 137.013 96 137.907 96H138.587C138.72 96 138.787 96.0667 138.787 96.2V97.48C138.787 97.6133 138.72 97.68 138.587 97.68H138.107ZM144.31 110.16C143.323 110.16 142.463 109.913 141.73 109.42C140.997 108.913 140.483 108.213 140.19 107.32C139.95 106.6 139.83 105.787 139.83 104.88C139.83 103.933 139.943 103.133 140.17 102.48C140.463 101.6 140.977 100.913 141.71 100.42C142.443 99.9133 143.317 99.66 144.33 99.66C145.29 99.66 146.123 99.9133 146.83 100.42C147.55 100.913 148.063 101.593 148.37 102.46C148.61 103.14 148.73 103.94 148.73 104.86C148.73 105.793 148.61 106.613 148.37 107.32C148.077 108.213 147.57 108.913 146.85 109.42C146.13 109.913 145.283 110.16 144.31 110.16ZM144.31 108.5C144.843 108.5 145.31 108.353 145.71 108.06C146.11 107.753 146.397 107.327 146.57 106.78C146.717 106.273 146.79 105.647 146.79 104.9C146.79 104.153 146.723 103.533 146.59 103.04C146.417 102.493 146.13 102.073 145.73 101.78C145.33 101.473 144.843 101.32 144.27 101.32C143.723 101.32 143.25 101.473 142.85 101.78C142.45 102.073 142.163 102.493 141.99 103.04C141.843 103.507 141.77 104.127 141.77 104.9C141.77 105.673 141.843 106.3 141.99 106.78C142.15 107.327 142.43 107.753 142.83 108.06C143.243 108.353 143.737 108.5 144.31 108.5ZM155.704 99.72C156.13 99.72 156.517 99.8067 156.864 99.98C156.957 100.02 156.99 100.1 156.964 100.22L156.644 101.72C156.63 101.84 156.55 101.88 156.404 101.84C156.177 101.747 155.91 101.7 155.604 101.7L155.324 101.72C154.697 101.747 154.177 101.967 153.764 102.38C153.364 102.78 153.164 103.307 153.164 103.96V109.8C153.164 109.933 153.097 110 152.964 110H151.444C151.31 110 151.244 109.933 151.244 109.8V100.02C151.244 99.8867 151.31 99.82 151.444 99.82H152.964C153.097 99.82 153.164 99.8867 153.164 100.02V101.08C153.164 101.12 153.17 101.147 153.184 101.16C153.21 101.16 153.23 101.147 153.244 101.12C153.844 100.187 154.664 99.72 155.704 99.72ZM166.749 103.64C166.803 104.187 166.823 104.8 166.809 105.48C166.809 105.613 166.743 105.68 166.609 105.68H160.229C160.176 105.68 160.149 105.707 160.149 105.76C160.149 106.213 160.189 106.56 160.269 106.8C160.416 107.333 160.709 107.753 161.149 108.06C161.603 108.353 162.169 108.5 162.849 108.5C163.836 108.5 164.596 108.093 165.129 107.28C165.196 107.147 165.283 107.127 165.389 107.22L166.529 107.98C166.623 108.06 166.643 108.147 166.589 108.24C166.216 108.84 165.683 109.313 164.989 109.66C164.309 110.007 163.536 110.18 162.669 110.18C161.696 110.18 160.876 109.967 160.209 109.54C159.543 109.113 159.043 108.507 158.709 107.72C158.389 106.933 158.229 105.98 158.229 104.86C158.229 103.887 158.303 103.147 158.449 102.64C158.689 101.72 159.169 100.993 159.889 100.46C160.609 99.9267 161.483 99.66 162.509 99.66C163.856 99.66 164.863 100 165.529 100.68C166.196 101.347 166.603 102.333 166.749 103.64ZM162.509 101.32C161.936 101.32 161.463 101.467 161.089 101.76C160.716 102.04 160.463 102.42 160.329 102.9C160.236 103.193 160.176 103.567 160.149 104.02C160.149 104.073 160.176 104.1 160.229 104.1H164.809C164.863 104.1 164.889 104.073 164.889 104.02C164.863 103.58 164.823 103.253 164.769 103.04C164.636 102.52 164.369 102.107 163.969 101.8C163.583 101.48 163.096 101.32 162.509 101.32ZM172.656 110.12C171.856 110.12 171.149 110 170.536 109.76C169.936 109.52 169.469 109.193 169.136 108.78C168.802 108.353 168.636 107.887 168.636 107.38V107.16C168.636 107.027 168.702 106.96 168.836 106.96H170.276C170.409 106.96 170.476 107.027 170.476 107.16V107.26C170.476 107.633 170.676 107.96 171.076 108.24C171.489 108.52 172.009 108.66 172.636 108.66C173.236 108.66 173.722 108.533 174.096 108.28C174.469 108.013 174.656 107.68 174.656 107.28C174.656 106.893 174.482 106.607 174.136 106.42C173.789 106.22 173.229 106.013 172.456 105.8C171.696 105.587 171.056 105.373 170.536 105.16C170.029 104.933 169.596 104.62 169.236 104.22C168.889 103.807 168.716 103.28 168.716 102.64C168.716 101.747 169.062 101.04 169.756 100.52C170.462 99.9867 171.396 99.72 172.556 99.72C173.329 99.72 174.009 99.8467 174.596 100.1C175.196 100.34 175.656 100.68 175.976 101.12C176.296 101.56 176.456 102.053 176.456 102.6V102.66C176.456 102.793 176.389 102.86 176.256 102.86H174.856C174.722 102.86 174.656 102.793 174.656 102.66V102.6C174.656 102.213 174.462 101.893 174.076 101.64C173.702 101.373 173.189 101.24 172.536 101.24C171.949 101.24 171.469 101.353 171.096 101.58C170.736 101.807 170.556 102.113 170.556 102.5C170.556 102.887 170.729 103.18 171.076 103.38C171.436 103.58 172.009 103.793 172.796 104.02C173.569 104.233 174.209 104.447 174.716 104.66C175.236 104.86 175.676 105.167 176.036 105.58C176.396 105.98 176.576 106.507 176.576 107.16C176.576 108.067 176.216 108.787 175.496 109.32C174.789 109.853 173.842 110.12 172.656 110.12ZM183.822 101.2C183.822 101.333 183.756 101.4 183.622 101.4H181.462C181.409 101.4 181.382 101.427 181.382 101.48V106.78C181.382 107.34 181.509 107.747 181.762 108C182.016 108.24 182.409 108.36 182.942 108.36H183.522C183.656 108.36 183.722 108.427 183.722 108.56V109.8C183.722 109.933 183.656 110 183.522 110C183.096 110.027 182.789 110.04 182.602 110.04C181.589 110.04 180.822 109.86 180.302 109.5C179.796 109.127 179.542 108.447 179.542 107.46V101.48C179.542 101.427 179.516 101.4 179.462 101.4H178.242C178.109 101.4 178.042 101.333 178.042 101.2V100.02C178.042 99.8867 178.109 99.82 178.242 99.82H179.462C179.516 99.82 179.542 99.7933 179.542 99.74V97.38C179.542 97.2467 179.609 97.18 179.742 97.18H181.182C181.316 97.18 181.382 97.2467 181.382 97.38V99.74C181.382 99.7933 181.409 99.82 181.462 99.82H183.622C183.756 99.82 183.822 99.8867 183.822 100.02V101.2ZM189.905 99.66C190.718 99.66 191.425 99.8067 192.025 100.1C192.638 100.38 193.105 100.78 193.425 101.3C193.758 101.807 193.925 102.387 193.925 103.04V109.8C193.925 109.933 193.858 110 193.725 110H192.205C192.072 110 192.005 109.933 192.005 109.8V109.08C192.005 109.013 191.972 109 191.905 109.04C191.558 109.4 191.132 109.68 190.625 109.88C190.132 110.067 189.578 110.16 188.965 110.16C187.978 110.16 187.158 109.913 186.505 109.42C185.865 108.913 185.545 108.153 185.545 107.14C185.545 106.1 185.905 105.287 186.625 104.7C187.358 104.1 188.378 103.8 189.685 103.8H191.925C191.978 103.8 192.005 103.773 192.005 103.72V103.18C192.005 102.593 191.832 102.14 191.485 101.82C191.152 101.487 190.638 101.32 189.945 101.32C189.385 101.32 188.925 101.433 188.565 101.66C188.218 101.873 188.005 102.167 187.925 102.54C187.885 102.673 187.805 102.733 187.685 102.72L186.065 102.5C185.932 102.473 185.872 102.42 185.885 102.34C185.992 101.553 186.412 100.913 187.145 100.42C187.878 99.9133 188.798 99.66 189.905 99.66ZM189.385 108.54C190.092 108.54 190.705 108.353 191.225 107.98C191.745 107.607 192.005 107.133 192.005 106.56V105.38C192.005 105.327 191.978 105.3 191.925 105.3H190.045C189.258 105.3 188.632 105.453 188.165 105.76C187.698 106.067 187.465 106.493 187.465 107.04C187.465 107.533 187.638 107.907 187.985 108.16C188.345 108.413 188.812 108.54 189.385 108.54ZM201.4 101.2C201.4 101.333 201.334 101.4 201.2 101.4H199.04C198.987 101.4 198.96 101.427 198.96 101.48V106.78C198.96 107.34 199.087 107.747 199.34 108C199.594 108.24 199.987 108.36 200.52 108.36H201.1C201.234 108.36 201.3 108.427 201.3 108.56V109.8C201.3 109.933 201.234 110 201.1 110C200.674 110.027 200.367 110.04 200.18 110.04C199.167 110.04 198.4 109.86 197.88 109.5C197.374 109.127 197.12 108.447 197.12 107.46V101.48C197.12 101.427 197.094 101.4 197.04 101.4H195.82C195.687 101.4 195.62 101.333 195.62 101.2V100.02C195.62 99.8867 195.687 99.82 195.82 99.82H197.04C197.094 99.82 197.12 99.7933 197.12 99.74V97.38C197.12 97.2467 197.187 97.18 197.32 97.18H198.76C198.894 97.18 198.96 97.2467 198.96 97.38V99.74C198.96 99.7933 198.987 99.82 199.04 99.82H201.2C201.334 99.82 201.4 99.8867 201.4 100.02V101.2ZM204.923 98.22C204.55 98.22 204.243 98.1 204.003 97.86C203.763 97.62 203.643 97.3133 203.643 96.94C203.643 96.5667 203.763 96.26 204.003 96.02C204.243 95.78 204.55 95.66 204.923 95.66C205.297 95.66 205.603 95.78 205.843 96.02C206.083 96.26 206.203 96.5667 206.203 96.94C206.203 97.3133 206.083 97.62 205.843 97.86C205.603 98.1 205.297 98.22 204.923 98.22ZM204.123 109.98C203.99 109.98 203.923 109.913 203.923 109.78V100.02C203.923 99.8867 203.99 99.82 204.123 99.82H205.643C205.777 99.82 205.843 99.8867 205.843 100.02V109.78C205.843 109.913 205.777 109.98 205.643 109.98H204.123ZM213.021 110.16C212.034 110.16 211.174 109.913 210.441 109.42C209.708 108.913 209.194 108.213 208.901 107.32C208.661 106.6 208.541 105.787 208.541 104.88C208.541 103.933 208.654 103.133 208.881 102.48C209.174 101.6 209.688 100.913 210.421 100.42C211.154 99.9133 212.028 99.66 213.041 99.66C214.001 99.66 214.834 99.9133 215.541 100.42C216.261 100.913 216.774 101.593 217.081 102.46C217.321 103.14 217.441 103.94 217.441 104.86C217.441 105.793 217.321 106.613 217.081 107.32C216.788 108.213 216.281 108.913 215.561 109.42C214.841 109.913 213.994 110.16 213.021 110.16ZM213.021 108.5C213.554 108.5 214.021 108.353 214.421 108.06C214.821 107.753 215.108 107.327 215.281 106.78C215.428 106.273 215.501 105.647 215.501 104.9C215.501 104.153 215.434 103.533 215.301 103.04C215.128 102.493 214.841 102.073 214.441 101.78C214.041 101.473 213.554 101.32 212.981 101.32C212.434 101.32 211.961 101.473 211.561 101.78C211.161 102.073 210.874 102.493 210.701 103.04C210.554 103.507 210.481 104.127 210.481 104.9C210.481 105.673 210.554 106.3 210.701 106.78C210.861 107.327 211.141 107.753 211.541 108.06C211.954 108.353 212.448 108.5 213.021 108.5ZM224.495 99.68C225.588 99.68 226.455 100 227.095 100.64C227.735 101.267 228.055 102.12 228.055 103.2V109.8C228.055 109.933 227.988 110 227.855 110H226.335C226.201 110 226.135 109.933 226.135 109.8V103.58C226.135 102.913 225.941 102.373 225.555 101.96C225.168 101.547 224.655 101.34 224.015 101.34C223.388 101.34 222.875 101.547 222.475 101.96C222.075 102.373 221.875 102.907 221.875 103.56V109.8C221.875 109.933 221.808 110 221.675 110H220.155C220.021 110 219.955 109.933 219.955 109.8V100.02C219.955 99.8867 220.021 99.82 220.155 99.82H221.675C221.808 99.82 221.875 99.8867 221.875 100.02V100.74C221.875 100.767 221.881 100.787 221.895 100.8C221.921 100.813 221.941 100.807 221.955 100.78C222.528 100.047 223.375 99.68 224.495 99.68Z" fill="#9B59B6"/>
<g filter="url(#filter0_ii_142_2843)">
<circle cx="170" cy="201" r="37" transform="rotate(90 170 201)" fill="#7D0092"/>
<circle cx="170" cy="201" r="37" transform="rotate(90 170 201)" fill="url(#paint2_radial_142_2843)"/>
</g>
<defs>
<filter id="filter0_ii_142_2843" x="133" y="164" width="82.375" height="87.4" filterUnits="userSpaceOnUse" color-interpolation-filters="sRGB">
<feFlood flood-opacity="0" result="BackgroundImageFix"/>
<feBlend mode="normal" in="SourceGraphic" in2="BackgroundImageFix" result="shape"/>
<feColorMatrix in="SourceAlpha" type="matrix" values="0 0 0 0 0 0 0 0 0 0 0 0 0 0 0 0 0 0 127 0" result="hardAlpha"/>
<feOffset dx="8.375" dy="13.4"/>
<feGaussianBlur stdDeviation="8.375"/>
<feComposite in2="hardAlpha" operator="arithmetic" k2="-1" k3="1"/>
<feColorMatrix type="matrix" values="0 0 0 0 0.510417 0 0 0 0 0.0208333 0 0 0 0 1 0 0 0 0.95 0"/>
<feBlend mode="normal" in2="shape" result="effect1_innerShadow_142_2843"/>
<feColorMatrix in="SourceAlpha" type="matrix" values="0 0 0 0 0 0 0 0 0 0 0 0 0 0 0 0 0 0 127 0" result="hardAlpha"/>
<feOffset dy="1.675"/>
<feGaussianBlur stdDeviation="4.1875"/>
<feComposite in2="hardAlpha" operator="arithmetic" k2="-1" k3="1"/>
<feColorMatrix type="matrix" values="0 0 0 0 1 0 0 0 0 1 0 0 0 0 1 0 0 0 0.58 0"/>
<feBlend mode="normal" in2="effect1_innerShadow_142_2843" result="effect2_innerShadow_142_2843"/>
</filter>
<linearGradient id="paint0_linear_142_2843" x1="170" y1="146" x2="170" y2="40" gradientUnits="userSpaceOnUse">
<stop stop-color="#9C27B0" stop-opacity="0.16"/>
<stop offset="1" stop-color="#9C27B0" stop-opacity="0"/>
</linearGradient>
<linearGradient id="paint1_linear_142_2843" x1="170" y1="140.897" x2="170" y2="40" gradientUnits="userSpaceOnUse">
<stop stop-color="#863BA6"/>
<stop offset="0.723958" stop-color="#9B59B6" stop-opacity="0"/>
</linearGradient>
<radialGradient id="paint2_radial_142_2843" cx="0" cy="0" r="1" gradientUnits="userSpaceOnUse" gradientTransform="translate(185.096 187.088) rotate(110.973) scale(76.0806)">
<stop stop-color="#C958F1"/>
<stop offset="1" stop-color="#000210" stop-opacity="0"/>
</radialGradient>
</defs>
</svg>
