<svg width="338" height="258" viewBox="0 0 338 258" fill="none" xmlns="http://www.w3.org/2000/svg">
<path d="M170.5 137L171.203 136.289L170.5 135.593L169.797 136.289L170.5 137ZM186.666 153L185.962 153.711L186.255 154H186.666V153ZM154.334 153V154H154.745L155.038 153.711L154.334 153ZM1 153V152H0V153H1ZM1 249H0V250H1V249ZM337 249V250H338V249H337ZM337 153H338V152H337V153ZM169.797 137.711L185.962 153.711L187.369 152.289L171.203 136.289L169.797 137.711ZM155.038 153.711L171.203 137.711L169.797 136.289L153.631 152.289L155.038 153.711ZM1 154H154.334V152H1V154ZM2 249V153H0V249H2ZM337 248H1V250H337V248ZM336 153V249H338V153H336ZM186.666 154H337V152H186.666V154Z" fill="url(#paint0_linear_292_3373)"/>
<path fill-rule="evenodd" clip-rule="evenodd" d="M186.666 153L170.5 137L154.334 153H1V249H337V153H186.666Z" fill="url(#paint1_linear_292_3373)"/>
<path d="M80.0479 197.16C79.0212 197.16 78.1279 197 77.3679 196.68C76.6212 196.36 76.0412 195.907 75.6279 195.32C75.2279 194.733 75.0279 194.047 75.0279 193.26V192.68C75.0279 192.547 75.0946 192.48 75.2279 192.48H76.6879C76.8212 192.48 76.8879 192.547 76.8879 192.68V193.16C76.8879 193.84 77.1812 194.4 77.7679 194.84C78.3546 195.28 79.1612 195.5 80.1879 195.5C81.1079 195.5 81.8012 195.307 82.2679 194.92C82.7346 194.533 82.9679 194.027 82.9679 193.4C82.9679 192.987 82.8479 192.633 82.6079 192.34C82.3679 192.047 82.0146 191.78 81.5479 191.54C81.0946 191.287 80.4279 190.987 79.5479 190.64C78.5746 190.267 77.8012 189.927 77.2279 189.62C76.6679 189.313 76.2012 188.913 75.8279 188.42C75.4546 187.913 75.2679 187.28 75.2679 186.52C75.2679 185.373 75.6746 184.473 76.4879 183.82C77.3146 183.167 78.4279 182.84 79.8279 182.84C80.8146 182.84 81.6812 183.007 82.4279 183.34C83.1746 183.673 83.7479 184.14 84.1479 184.74C84.5612 185.34 84.7679 186.033 84.7679 186.82V187.22C84.7679 187.353 84.7012 187.42 84.5679 187.42H83.0679C82.9346 187.42 82.8679 187.353 82.8679 187.22V186.92C82.8679 186.227 82.5879 185.653 82.0279 185.2C81.4812 184.733 80.7212 184.5 79.7479 184.5C78.9212 184.5 78.2812 184.673 77.8279 185.02C77.3746 185.353 77.1479 185.84 77.1479 186.48C77.1479 186.92 77.2612 187.28 77.4879 187.56C77.7146 187.84 78.0479 188.093 78.4879 188.32C78.9412 188.533 79.6279 188.813 80.5479 189.16C81.4946 189.533 82.2612 189.88 82.8479 190.2C83.4346 190.507 83.9212 190.92 84.3079 191.44C84.6946 191.947 84.8879 192.58 84.8879 193.34C84.8879 194.513 84.4546 195.447 83.5879 196.14C82.7346 196.82 81.5546 197.16 80.0479 197.16ZM93.3057 187.02C93.3057 186.887 93.3724 186.82 93.5057 186.82H95.0057C95.139 186.82 95.2057 186.887 95.2057 187.02V196.8C95.2057 196.933 95.139 197 95.0057 197H93.5057C93.3724 197 93.3057 196.933 93.3057 196.8V196.06C93.3057 196.033 93.2924 196.02 93.2657 196.02C93.2524 196.007 93.2324 196.013 93.2057 196.04C92.6724 196.773 91.8524 197.14 90.7457 197.14C90.0924 197.14 89.4857 197.013 88.9257 196.76C88.379 196.507 87.939 196.133 87.6057 195.64C87.2724 195.147 87.1057 194.547 87.1057 193.84V187.02C87.1057 186.887 87.1724 186.82 87.3057 186.82H88.8057C88.939 186.82 89.0057 186.887 89.0057 187.02V193.24C89.0057 193.933 89.1857 194.48 89.5457 194.88C89.919 195.28 90.439 195.48 91.1057 195.48C91.7724 195.48 92.3057 195.28 92.7057 194.88C93.1057 194.467 93.3057 193.92 93.3057 193.24V187.02ZM106.267 189.38C106.521 190.1 106.647 190.953 106.647 191.94C106.647 192.873 106.541 193.68 106.327 194.36C106.047 195.253 105.587 195.947 104.947 196.44C104.307 196.92 103.487 197.16 102.487 197.16C102.034 197.16 101.601 197.073 101.187 196.9C100.787 196.713 100.441 196.453 100.147 196.12C100.121 196.093 100.094 196.087 100.067 196.1C100.054 196.113 100.047 196.133 100.047 196.16V200.62C100.047 200.753 99.9808 200.82 99.8474 200.82H98.3274C98.1941 200.82 98.1274 200.753 98.1274 200.62V187.02C98.1274 186.887 98.1941 186.82 98.3274 186.82H99.8474C99.9808 186.82 100.047 186.887 100.047 187.02V187.68C100.047 187.707 100.054 187.727 100.067 187.74C100.094 187.753 100.121 187.747 100.147 187.72C100.441 187.387 100.787 187.127 101.187 186.94C101.587 186.753 102.021 186.66 102.487 186.66C103.447 186.66 104.241 186.9 104.867 187.38C105.507 187.847 105.974 188.513 106.267 189.38ZM104.067 194.54C104.494 193.9 104.707 193.02 104.707 191.9C104.707 190.873 104.541 190.047 104.207 189.42C103.821 188.687 103.187 188.32 102.307 188.32C101.534 188.32 100.947 188.68 100.547 189.4C100.227 189.973 100.067 190.813 100.067 191.92C100.067 193.04 100.241 193.893 100.587 194.48C100.974 195.16 101.541 195.5 102.287 195.5C103.087 195.5 103.681 195.18 104.067 194.54ZM117.42 189.38C117.673 190.1 117.8 190.953 117.8 191.94C117.8 192.873 117.693 193.68 117.48 194.36C117.2 195.253 116.74 195.947 116.1 196.44C115.46 196.92 114.64 197.16 113.64 197.16C113.186 197.16 112.753 197.073 112.34 196.9C111.94 196.713 111.593 196.453 111.3 196.12C111.273 196.093 111.246 196.087 111.22 196.1C111.206 196.113 111.2 196.133 111.2 196.16V200.62C111.2 200.753 111.133 200.82 111 200.82H109.48C109.346 200.82 109.28 200.753 109.28 200.62V187.02C109.28 186.887 109.346 186.82 109.48 186.82H111C111.133 186.82 111.2 186.887 111.2 187.02V187.68C111.2 187.707 111.206 187.727 111.22 187.74C111.246 187.753 111.273 187.747 111.3 187.72C111.593 187.387 111.94 187.127 112.34 186.94C112.74 186.753 113.173 186.66 113.64 186.66C114.6 186.66 115.393 186.9 116.02 187.38C116.66 187.847 117.126 188.513 117.42 189.38ZM115.22 194.54C115.646 193.9 115.86 193.02 115.86 191.9C115.86 190.873 115.693 190.047 115.36 189.42C114.973 188.687 114.34 188.32 113.46 188.32C112.686 188.32 112.1 188.68 111.7 189.4C111.38 189.973 111.22 190.813 111.22 191.92C111.22 193.04 111.393 193.893 111.74 194.48C112.126 195.16 112.693 195.5 113.44 195.5C114.24 195.5 114.833 195.18 115.22 194.54ZM124.355 197.16C123.368 197.16 122.508 196.913 121.775 196.42C121.042 195.913 120.528 195.213 120.235 194.32C119.995 193.6 119.875 192.787 119.875 191.88C119.875 190.933 119.988 190.133 120.215 189.48C120.508 188.6 121.022 187.913 121.755 187.42C122.488 186.913 123.362 186.66 124.375 186.66C125.335 186.66 126.168 186.913 126.875 187.42C127.595 187.913 128.108 188.593 128.415 189.46C128.655 190.14 128.775 190.94 128.775 191.86C128.775 192.793 128.655 193.613 128.415 194.32C128.122 195.213 127.615 195.913 126.895 196.42C126.175 196.913 125.328 197.16 124.355 197.16ZM124.355 195.5C124.888 195.5 125.355 195.353 125.755 195.06C126.155 194.753 126.442 194.327 126.615 193.78C126.762 193.273 126.835 192.647 126.835 191.9C126.835 191.153 126.768 190.533 126.635 190.04C126.462 189.493 126.175 189.073 125.775 188.78C125.375 188.473 124.888 188.32 124.315 188.32C123.768 188.32 123.295 188.473 122.895 188.78C122.495 189.073 122.208 189.493 122.035 190.04C121.888 190.507 121.815 191.127 121.815 191.9C121.815 192.673 121.888 193.3 122.035 193.78C122.195 194.327 122.475 194.753 122.875 195.06C123.288 195.353 123.782 195.5 124.355 195.5ZM135.749 186.72C136.175 186.72 136.562 186.807 136.909 186.98C137.002 187.02 137.035 187.1 137.009 187.22L136.689 188.72C136.675 188.84 136.595 188.88 136.449 188.84C136.222 188.747 135.955 188.7 135.649 188.7L135.369 188.72C134.742 188.747 134.222 188.967 133.809 189.38C133.409 189.78 133.209 190.307 133.209 190.96V196.8C133.209 196.933 133.142 197 133.009 197H131.489C131.355 197 131.289 196.933 131.289 196.8V187.02C131.289 186.887 131.355 186.82 131.489 186.82H133.009C133.142 186.82 133.209 186.887 133.209 187.02V188.08C133.209 188.12 133.215 188.147 133.229 188.16C133.255 188.16 133.275 188.147 133.289 188.12C133.889 187.187 134.709 186.72 135.749 186.72ZM143.945 188.2C143.945 188.333 143.879 188.4 143.745 188.4H141.585C141.532 188.4 141.505 188.427 141.505 188.48V193.78C141.505 194.34 141.632 194.747 141.885 195C142.139 195.24 142.532 195.36 143.065 195.36H143.645C143.779 195.36 143.845 195.427 143.845 195.56V196.8C143.845 196.933 143.779 197 143.645 197C143.219 197.027 142.912 197.04 142.725 197.04C141.712 197.04 140.945 196.86 140.425 196.5C139.919 196.127 139.665 195.447 139.665 194.46V188.48C139.665 188.427 139.639 188.4 139.585 188.4H138.365C138.232 188.4 138.165 188.333 138.165 188.2V187.02C138.165 186.887 138.232 186.82 138.365 186.82H139.585C139.639 186.82 139.665 186.793 139.665 186.74V184.38C139.665 184.247 139.732 184.18 139.865 184.18H141.305C141.439 184.18 141.505 184.247 141.505 184.38V186.74C141.505 186.793 141.532 186.82 141.585 186.82H143.745C143.879 186.82 143.945 186.887 143.945 187.02V188.2ZM154.772 186.72C155.199 186.72 155.585 186.807 155.932 186.98C156.025 187.02 156.059 187.1 156.032 187.22L155.712 188.72C155.699 188.84 155.619 188.88 155.472 188.84C155.245 188.747 154.979 188.7 154.672 188.7L154.392 188.72C153.765 188.747 153.245 188.967 152.832 189.38C152.432 189.78 152.232 190.307 152.232 190.96V196.8C152.232 196.933 152.165 197 152.032 197H150.512C150.379 197 150.312 196.933 150.312 196.8V187.02C150.312 186.887 150.379 186.82 150.512 186.82H152.032C152.165 186.82 152.232 186.887 152.232 187.02V188.08C152.232 188.12 152.239 188.147 152.252 188.16C152.279 188.16 152.299 188.147 152.312 188.12C152.912 187.187 153.732 186.72 154.772 186.72ZM165.818 190.64C165.871 191.187 165.891 191.8 165.878 192.48C165.878 192.613 165.811 192.68 165.678 192.68H159.298C159.244 192.68 159.218 192.707 159.218 192.76C159.218 193.213 159.258 193.56 159.338 193.8C159.484 194.333 159.778 194.753 160.218 195.06C160.671 195.353 161.238 195.5 161.918 195.5C162.904 195.5 163.664 195.093 164.198 194.28C164.264 194.147 164.351 194.127 164.458 194.22L165.598 194.98C165.691 195.06 165.711 195.147 165.658 195.24C165.284 195.84 164.751 196.313 164.058 196.66C163.378 197.007 162.604 197.18 161.738 197.18C160.764 197.18 159.944 196.967 159.278 196.54C158.611 196.113 158.111 195.507 157.778 194.72C157.458 193.933 157.298 192.98 157.298 191.86C157.298 190.887 157.371 190.147 157.518 189.64C157.758 188.72 158.238 187.993 158.958 187.46C159.678 186.927 160.551 186.66 161.578 186.66C162.924 186.66 163.931 187 164.598 187.68C165.264 188.347 165.671 189.333 165.818 190.64ZM161.578 188.32C161.004 188.32 160.531 188.467 160.158 188.76C159.784 189.04 159.531 189.42 159.398 189.9C159.304 190.193 159.244 190.567 159.218 191.02C159.218 191.073 159.244 191.1 159.298 191.1H163.878C163.931 191.1 163.958 191.073 163.958 191.02C163.931 190.58 163.891 190.253 163.838 190.04C163.704 189.52 163.438 189.107 163.038 188.8C162.651 188.48 162.164 188.32 161.578 188.32ZM172.624 184.68C171.957 184.68 171.504 184.807 171.264 185.06C171.024 185.313 170.904 185.793 170.904 186.5V186.74C170.904 186.793 170.931 186.82 170.984 186.82H173.084C173.217 186.82 173.284 186.887 173.284 187.02V188.38C173.284 188.513 173.217 188.58 173.084 188.58H170.984C170.931 188.58 170.904 188.607 170.904 188.66V196.8C170.904 196.933 170.837 197 170.704 197H169.184C169.051 197 168.984 196.933 168.984 196.8V188.66C168.984 188.607 168.957 188.58 168.904 188.58H167.564C167.431 188.58 167.364 188.513 167.364 188.38V187.02C167.364 186.887 167.431 186.82 167.564 186.82H168.904C168.957 186.82 168.984 186.793 168.984 186.74V186.38C168.984 185.5 169.084 184.82 169.284 184.34C169.497 183.86 169.851 183.52 170.344 183.32C170.837 183.107 171.531 183 172.424 183H173.104C173.237 183 173.304 183.067 173.304 183.2V184.48C173.304 184.613 173.237 184.68 173.104 184.68H172.624ZM178.828 197.16C177.841 197.16 176.981 196.913 176.248 196.42C175.514 195.913 175.001 195.213 174.708 194.32C174.468 193.6 174.348 192.787 174.348 191.88C174.348 190.933 174.461 190.133 174.688 189.48C174.981 188.6 175.494 187.913 176.228 187.42C176.961 186.913 177.834 186.66 178.848 186.66C179.808 186.66 180.641 186.913 181.348 187.42C182.068 187.913 182.581 188.593 182.888 189.46C183.128 190.14 183.248 190.94 183.248 191.86C183.248 192.793 183.128 193.613 182.888 194.32C182.594 195.213 182.088 195.913 181.368 196.42C180.648 196.913 179.801 197.16 178.828 197.16ZM178.828 195.5C179.361 195.5 179.828 195.353 180.228 195.06C180.628 194.753 180.914 194.327 181.088 193.78C181.234 193.273 181.308 192.647 181.308 191.9C181.308 191.153 181.241 190.533 181.108 190.04C180.934 189.493 180.648 189.073 180.248 188.78C179.848 188.473 179.361 188.32 178.788 188.32C178.241 188.32 177.768 188.473 177.368 188.78C176.968 189.073 176.681 189.493 176.508 190.04C176.361 190.507 176.288 191.127 176.288 191.9C176.288 192.673 176.361 193.3 176.508 193.78C176.668 194.327 176.948 194.753 177.348 195.06C177.761 195.353 178.254 195.5 178.828 195.5ZM190.221 186.72C190.648 186.72 191.035 186.807 191.381 186.98C191.475 187.02 191.508 187.1 191.481 187.22L191.161 188.72C191.148 188.84 191.068 188.88 190.921 188.84C190.695 188.747 190.428 188.7 190.121 188.7L189.841 188.72C189.215 188.747 188.695 188.967 188.281 189.38C187.881 189.78 187.681 190.307 187.681 190.96V196.8C187.681 196.933 187.615 197 187.481 197H185.961C185.828 197 185.761 196.933 185.761 196.8V187.02C185.761 186.887 185.828 186.82 185.961 186.82H187.481C187.615 186.82 187.681 186.887 187.681 187.02V188.08C187.681 188.12 187.688 188.147 187.701 188.16C187.728 188.16 187.748 188.147 187.761 188.12C188.361 187.187 189.181 186.72 190.221 186.72ZM201.267 190.64C201.32 191.187 201.34 191.8 201.327 192.48C201.327 192.613 201.26 192.68 201.127 192.68H194.747C194.694 192.68 194.667 192.707 194.667 192.76C194.667 193.213 194.707 193.56 194.787 193.8C194.934 194.333 195.227 194.753 195.667 195.06C196.12 195.353 196.687 195.5 197.367 195.5C198.354 195.5 199.114 195.093 199.647 194.28C199.714 194.147 199.8 194.127 199.907 194.22L201.047 194.98C201.14 195.06 201.16 195.147 201.107 195.24C200.734 195.84 200.2 196.313 199.507 196.66C198.827 197.007 198.054 197.18 197.187 197.18C196.214 197.18 195.394 196.967 194.727 196.54C194.06 196.113 193.56 195.507 193.227 194.72C192.907 193.933 192.747 192.98 192.747 191.86C192.747 190.887 192.82 190.147 192.967 189.64C193.207 188.72 193.687 187.993 194.407 187.46C195.127 186.927 196 186.66 197.027 186.66C198.374 186.66 199.38 187 200.047 187.68C200.714 188.347 201.12 189.333 201.267 190.64ZM197.027 188.32C196.454 188.32 195.98 188.467 195.607 188.76C195.234 189.04 194.98 189.42 194.847 189.9C194.754 190.193 194.694 190.567 194.667 191.02C194.667 191.073 194.694 191.1 194.747 191.1H199.327C199.38 191.1 199.407 191.073 199.407 191.02C199.38 190.58 199.34 190.253 199.287 190.04C199.154 189.52 198.887 189.107 198.487 188.8C198.1 188.48 197.614 188.32 197.027 188.32ZM207.173 197.12C206.373 197.12 205.667 197 205.053 196.76C204.453 196.52 203.987 196.193 203.653 195.78C203.32 195.353 203.153 194.887 203.153 194.38V194.16C203.153 194.027 203.22 193.96 203.353 193.96H204.793C204.927 193.96 204.993 194.027 204.993 194.16V194.26C204.993 194.633 205.193 194.96 205.593 195.24C206.007 195.52 206.527 195.66 207.153 195.66C207.753 195.66 208.24 195.533 208.613 195.28C208.987 195.013 209.173 194.68 209.173 194.28C209.173 193.893 209 193.607 208.653 193.42C208.307 193.22 207.747 193.013 206.973 192.8C206.213 192.587 205.573 192.373 205.053 192.16C204.547 191.933 204.113 191.62 203.753 191.22C203.407 190.807 203.233 190.28 203.233 189.64C203.233 188.747 203.58 188.04 204.273 187.52C204.98 186.987 205.913 186.72 207.073 186.72C207.847 186.72 208.527 186.847 209.113 187.1C209.713 187.34 210.173 187.68 210.493 188.12C210.813 188.56 210.973 189.053 210.973 189.6V189.66C210.973 189.793 210.907 189.86 210.773 189.86H209.373C209.24 189.86 209.173 189.793 209.173 189.66V189.6C209.173 189.213 208.98 188.893 208.593 188.64C208.22 188.373 207.707 188.24 207.053 188.24C206.467 188.24 205.987 188.353 205.613 188.58C205.253 188.807 205.073 189.113 205.073 189.5C205.073 189.887 205.247 190.18 205.593 190.38C205.953 190.58 206.527 190.793 207.313 191.02C208.087 191.233 208.727 191.447 209.233 191.66C209.753 191.86 210.193 192.167 210.553 192.58C210.913 192.98 211.093 193.507 211.093 194.16C211.093 195.067 210.733 195.787 210.013 196.32C209.307 196.853 208.36 197.12 207.173 197.12ZM218.34 188.2C218.34 188.333 218.273 188.4 218.14 188.4H215.98C215.927 188.4 215.9 188.427 215.9 188.48V193.78C215.9 194.34 216.027 194.747 216.28 195C216.533 195.24 216.927 195.36 217.46 195.36H218.04C218.173 195.36 218.24 195.427 218.24 195.56V196.8C218.24 196.933 218.173 197 218.04 197C217.613 197.027 217.307 197.04 217.12 197.04C216.107 197.04 215.34 196.86 214.82 196.5C214.313 196.127 214.06 195.447 214.06 194.46V188.48C214.06 188.427 214.033 188.4 213.98 188.4H212.76C212.627 188.4 212.56 188.333 212.56 188.2V187.02C212.56 186.887 212.627 186.82 212.76 186.82H213.98C214.033 186.82 214.06 186.793 214.06 186.74V184.38C214.06 184.247 214.127 184.18 214.26 184.18H215.7C215.833 184.18 215.9 184.247 215.9 184.38V186.74C215.9 186.793 215.927 186.82 215.98 186.82H218.14C218.273 186.82 218.34 186.887 218.34 187.02V188.2ZM224.423 186.66C225.236 186.66 225.943 186.807 226.543 187.1C227.156 187.38 227.623 187.78 227.943 188.3C228.276 188.807 228.443 189.387 228.443 190.04V196.8C228.443 196.933 228.376 197 228.243 197H226.723C226.589 197 226.523 196.933 226.523 196.8V196.08C226.523 196.013 226.489 196 226.423 196.04C226.076 196.4 225.649 196.68 225.143 196.88C224.649 197.067 224.096 197.16 223.483 197.16C222.496 197.16 221.676 196.913 221.023 196.42C220.383 195.913 220.063 195.153 220.063 194.14C220.063 193.1 220.423 192.287 221.143 191.7C221.876 191.1 222.896 190.8 224.203 190.8H226.443C226.496 190.8 226.523 190.773 226.523 190.72V190.18C226.523 189.593 226.349 189.14 226.003 188.82C225.669 188.487 225.156 188.32 224.463 188.32C223.903 188.32 223.443 188.433 223.083 188.66C222.736 188.873 222.523 189.167 222.443 189.54C222.403 189.673 222.323 189.733 222.203 189.72L220.583 189.5C220.449 189.473 220.389 189.42 220.403 189.34C220.509 188.553 220.929 187.913 221.663 187.42C222.396 186.913 223.316 186.66 224.423 186.66ZM223.903 195.54C224.609 195.54 225.223 195.353 225.743 194.98C226.263 194.607 226.523 194.133 226.523 193.56V192.38C226.523 192.327 226.496 192.3 226.443 192.3H224.563C223.776 192.3 223.149 192.453 222.683 192.76C222.216 193.067 221.983 193.493 221.983 194.04C221.983 194.533 222.156 194.907 222.503 195.16C222.863 195.413 223.329 195.54 223.903 195.54ZM235.918 188.2C235.918 188.333 235.851 188.4 235.718 188.4H233.558C233.505 188.4 233.478 188.427 233.478 188.48V193.78C233.478 194.34 233.605 194.747 233.858 195C234.111 195.24 234.505 195.36 235.038 195.36H235.618C235.751 195.36 235.818 195.427 235.818 195.56V196.8C235.818 196.933 235.751 197 235.618 197C235.191 197.027 234.885 197.04 234.698 197.04C233.685 197.04 232.918 196.86 232.398 196.5C231.891 196.127 231.638 195.447 231.638 194.46V188.48C231.638 188.427 231.611 188.4 231.558 188.4H230.338C230.205 188.4 230.138 188.333 230.138 188.2V187.02C230.138 186.887 230.205 186.82 230.338 186.82H231.558C231.611 186.82 231.638 186.793 231.638 186.74V184.38C231.638 184.247 231.705 184.18 231.838 184.18H233.278C233.411 184.18 233.478 184.247 233.478 184.38V186.74C233.478 186.793 233.505 186.82 233.558 186.82H235.718C235.851 186.82 235.918 186.887 235.918 187.02V188.2ZM239.441 185.22C239.068 185.22 238.761 185.1 238.521 184.86C238.281 184.62 238.161 184.313 238.161 183.94C238.161 183.567 238.281 183.26 238.521 183.02C238.761 182.78 239.068 182.66 239.441 182.66C239.814 182.66 240.121 182.78 240.361 183.02C240.601 183.26 240.721 183.567 240.721 183.94C240.721 184.313 240.601 184.62 240.361 184.86C240.121 185.1 239.814 185.22 239.441 185.22ZM238.641 196.98C238.508 196.98 238.441 196.913 238.441 196.78V187.02C238.441 186.887 238.508 186.82 238.641 186.82H240.161C240.294 186.82 240.361 186.887 240.361 187.02V196.78C240.361 196.913 240.294 196.98 240.161 196.98H238.641ZM247.539 197.16C246.552 197.16 245.692 196.913 244.959 196.42C244.225 195.913 243.712 195.213 243.419 194.32C243.179 193.6 243.059 192.787 243.059 191.88C243.059 190.933 243.172 190.133 243.399 189.48C243.692 188.6 244.205 187.913 244.939 187.42C245.672 186.913 246.545 186.66 247.559 186.66C248.519 186.66 249.352 186.913 250.059 187.42C250.779 187.913 251.292 188.593 251.599 189.46C251.839 190.14 251.959 190.94 251.959 191.86C251.959 192.793 251.839 193.613 251.599 194.32C251.305 195.213 250.799 195.913 250.079 196.42C249.359 196.913 248.512 197.16 247.539 197.16ZM247.539 195.5C248.072 195.5 248.539 195.353 248.939 195.06C249.339 194.753 249.625 194.327 249.799 193.78C249.945 193.273 250.019 192.647 250.019 191.9C250.019 191.153 249.952 190.533 249.819 190.04C249.645 189.493 249.359 189.073 248.959 188.78C248.559 188.473 248.072 188.32 247.499 188.32C246.952 188.32 246.479 188.473 246.079 188.78C245.679 189.073 245.392 189.493 245.219 190.04C245.072 190.507 244.999 191.127 244.999 191.9C244.999 192.673 245.072 193.3 245.219 193.78C245.379 194.327 245.659 194.753 246.059 195.06C246.472 195.353 246.965 195.5 247.539 195.5ZM259.012 186.68C260.106 186.68 260.972 187 261.612 187.64C262.252 188.267 262.572 189.12 262.572 190.2V196.8C262.572 196.933 262.506 197 262.372 197H260.852C260.719 197 260.652 196.933 260.652 196.8V190.58C260.652 189.913 260.459 189.373 260.072 188.96C259.686 188.547 259.172 188.34 258.532 188.34C257.906 188.34 257.392 188.547 256.992 188.96C256.592 189.373 256.392 189.907 256.392 190.56V196.8C256.392 196.933 256.326 197 256.192 197H254.672C254.539 197 254.472 196.933 254.472 196.8V187.02C254.472 186.887 254.539 186.82 254.672 186.82H256.192C256.326 186.82 256.392 186.887 256.392 187.02V187.74C256.392 187.767 256.399 187.787 256.412 187.8C256.439 187.813 256.459 187.807 256.472 187.78C257.046 187.047 257.892 186.68 259.012 186.68ZM37.5103 214.36C37.777 215.013 37.9103 215.767 37.9103 216.62C37.9103 217.327 37.8036 217.98 37.5903 218.58C37.297 219.407 36.8103 220.047 36.1303 220.5C35.4503 220.94 34.6303 221.16 33.6703 221.16C32.7103 221.16 31.877 220.913 31.1703 220.42C30.477 219.927 29.9903 219.26 29.7103 218.42C29.5636 218.047 29.477 217.513 29.4503 216.82C29.4503 216.687 29.517 216.62 29.6503 216.62H31.1903C31.3236 216.62 31.3903 216.687 31.3903 216.82C31.417 217.3 31.4703 217.653 31.5503 217.88C31.6836 218.373 31.9303 218.767 32.2903 219.06C32.6636 219.353 33.1236 219.5 33.6703 219.5C34.6836 219.5 35.3636 219.04 35.7103 218.12C35.8836 217.72 35.9703 217.2 35.9703 216.56C35.9703 215.88 35.8636 215.273 35.6503 214.74C35.277 213.913 34.6103 213.5 33.6503 213.5C33.4236 213.5 33.137 213.6 32.7903 213.8C32.737 213.827 32.697 213.84 32.6703 213.84C32.6036 213.84 32.5503 213.807 32.5103 213.74L31.7503 212.7C31.7236 212.647 31.7103 212.6 31.7103 212.56C31.7103 212.52 31.7303 212.473 31.7703 212.42L35.1903 208.76C35.2303 208.693 35.217 208.66 35.1503 208.66H29.8303C29.697 208.66 29.6303 208.593 29.6303 208.46V207.2C29.6303 207.067 29.697 207 29.8303 207H37.5903C37.7236 207 37.7903 207.067 37.7903 207.2V208.64C37.7903 208.707 37.757 208.787 37.6903 208.88L34.6503 212.2C34.6236 212.227 34.617 212.253 34.6303 212.28C34.6436 212.293 34.6703 212.307 34.7103 212.32C35.3903 212.387 35.9636 212.6 36.4303 212.96C36.897 213.307 37.257 213.773 37.5103 214.36ZM42.6386 219.24C42.6253 219.267 42.6253 219.293 42.6386 219.32C42.6519 219.333 42.6719 219.34 42.6986 219.34H48.7186C48.8519 219.34 48.9186 219.407 48.9186 219.54V220.8C48.9186 220.933 48.8519 221 48.7186 221H40.3386C40.2053 221 40.1386 220.933 40.1386 220.8V219.58C40.1386 219.487 40.1719 219.407 40.2386 219.34C40.6919 218.82 41.7319 217.6 43.3586 215.68L44.7386 214.02C45.9786 212.54 46.5986 211.393 46.5986 210.58C46.5986 209.953 46.3853 209.453 45.9586 209.08C45.5453 208.693 44.9919 208.5 44.2986 208.5C43.6053 208.5 43.0519 208.693 42.6386 209.08C42.2253 209.467 42.0253 209.973 42.0386 210.6V211.2C42.0386 211.333 41.9719 211.4 41.8386 211.4H40.2986C40.1653 211.4 40.0986 211.333 40.0986 211.2V210.34C40.1253 209.647 40.3186 209.033 40.6786 208.5C41.0519 207.967 41.5519 207.56 42.1786 207.28C42.8053 206.987 43.5119 206.84 44.2986 206.84C45.1519 206.84 45.8986 207 46.5386 207.32C47.1786 207.64 47.6719 208.08 48.0186 208.64C48.3653 209.2 48.5386 209.833 48.5386 210.54C48.5386 211.647 47.9386 212.953 46.7386 214.46C46.2053 215.14 45.5719 215.907 44.8386 216.76C44.1053 217.6 43.3719 218.427 42.6386 219.24ZM60.0175 215.52C60.1508 215.52 60.2175 215.587 60.2175 215.72V217.04C60.2175 217.173 60.1508 217.24 60.0175 217.24H59.1575C59.1042 217.24 59.0775 217.267 59.0775 217.32V220.8C59.0775 220.933 59.0108 221 58.8775 221H57.3575C57.2242 221 57.1575 220.933 57.1575 220.8V217.32C57.1575 217.267 57.1308 217.24 57.0775 217.24H50.9975C50.8642 217.24 50.7975 217.173 50.7975 217.04V215.96C50.7975 215.893 50.8175 215.813 50.8575 215.72L54.7975 207.14C54.8375 207.047 54.9108 207 55.0175 207H56.6175C56.6842 207 56.7308 207.027 56.7575 207.08C56.7975 207.12 56.8042 207.173 56.7775 207.24L53.0175 215.42C53.0042 215.447 53.0042 215.473 53.0175 215.5C53.0308 215.513 53.0508 215.52 53.0775 215.52H57.0775C57.1308 215.52 57.1575 215.493 57.1575 215.44V212.46C57.1575 212.327 57.2242 212.26 57.3575 212.26H58.8775C59.0108 212.26 59.0775 212.327 59.0775 212.46V215.44C59.0775 215.493 59.1042 215.52 59.1575 215.52H60.0175ZM71.2877 210.68C72.381 210.68 73.2477 211 73.8877 211.64C74.5277 212.267 74.8477 213.12 74.8477 214.2V220.8C74.8477 220.933 74.781 221 74.6477 221H73.1277C72.9943 221 72.9277 220.933 72.9277 220.8V214.58C72.9277 213.913 72.7343 213.373 72.3477 212.96C71.961 212.547 71.4477 212.34 70.8077 212.34C70.181 212.34 69.6677 212.547 69.2677 212.96C68.8677 213.373 68.6677 213.907 68.6677 214.56V220.8C68.6677 220.933 68.601 221 68.4677 221H66.9477C66.8143 221 66.7477 220.933 66.7477 220.8V207.2C66.7477 207.067 66.8143 207 66.9477 207H68.4677C68.601 207 68.6677 207.067 68.6677 207.2V211.74C68.6677 211.767 68.6743 211.787 68.6877 211.8C68.7143 211.813 68.7343 211.807 68.7477 211.78C69.321 211.047 70.1677 210.68 71.2877 210.68ZM85.7103 214.64C85.7636 215.187 85.7836 215.8 85.7703 216.48C85.7703 216.613 85.7036 216.68 85.5703 216.68H79.1903C79.137 216.68 79.1103 216.707 79.1103 216.76C79.1103 217.213 79.1503 217.56 79.2303 217.8C79.377 218.333 79.6703 218.753 80.1103 219.06C80.5636 219.353 81.1303 219.5 81.8103 219.5C82.797 219.5 83.557 219.093 84.0903 218.28C84.157 218.147 84.2436 218.127 84.3503 218.22L85.4903 218.98C85.5836 219.06 85.6036 219.147 85.5503 219.24C85.177 219.84 84.6436 220.313 83.9503 220.66C83.2703 221.007 82.497 221.18 81.6303 221.18C80.657 221.18 79.837 220.967 79.1703 220.54C78.5036 220.113 78.0036 219.507 77.6703 218.72C77.3503 217.933 77.1903 216.98 77.1903 215.86C77.1903 214.887 77.2636 214.147 77.4103 213.64C77.6503 212.72 78.1303 211.993 78.8503 211.46C79.5703 210.927 80.4436 210.66 81.4703 210.66C82.817 210.66 83.8236 211 84.4903 211.68C85.157 212.347 85.5636 213.333 85.7103 214.64ZM81.4703 212.32C80.897 212.32 80.4236 212.467 80.0503 212.76C79.677 213.04 79.4236 213.42 79.2903 213.9C79.197 214.193 79.137 214.567 79.1103 215.02C79.1103 215.073 79.137 215.1 79.1903 215.1H83.7703C83.8236 215.1 83.8503 215.073 83.8503 215.02C83.8236 214.58 83.7836 214.253 83.7303 214.04C83.597 213.52 83.3303 213.107 82.9303 212.8C82.5436 212.48 82.057 212.32 81.4703 212.32ZM92.273 221.16C91.2596 221.16 90.393 220.907 89.673 220.4C88.953 219.88 88.4596 219.18 88.193 218.3C87.993 217.687 87.893 216.88 87.893 215.88C87.893 214.96 87.993 214.153 88.193 213.46C88.4596 212.607 88.953 211.927 89.673 211.42C90.4063 210.913 91.273 210.66 92.273 210.66C93.273 210.66 94.1463 210.913 94.893 211.42C95.6396 211.927 96.1263 212.567 96.353 213.34C96.433 213.553 96.4863 213.773 96.513 214C96.513 214.107 96.453 214.173 96.333 214.2L94.833 214.42H94.793C94.6996 214.42 94.633 214.36 94.593 214.24L94.533 213.92C94.4263 213.467 94.1663 213.087 93.753 212.78C93.3396 212.473 92.8396 212.32 92.253 212.32C91.6796 212.32 91.193 212.473 90.793 212.78C90.393 213.087 90.133 213.493 90.013 214C89.893 214.48 89.833 215.113 89.833 215.9C89.833 216.673 89.893 217.3 90.013 217.78C90.1463 218.313 90.4063 218.733 90.793 219.04C91.193 219.347 91.6796 219.5 92.253 219.5C92.8396 219.5 93.3396 219.347 93.753 219.04C94.1796 218.733 94.4463 218.333 94.553 217.84C94.5663 217.827 94.5663 217.813 94.553 217.8C94.553 217.773 94.5596 217.753 94.573 217.74V217.66C94.613 217.553 94.6863 217.513 94.793 217.54L96.293 217.78C96.3996 217.807 96.453 217.86 96.453 217.94V218.02C96.453 218.14 96.4196 218.287 96.353 218.46C96.1263 219.273 95.6396 219.927 94.893 220.42C94.1463 220.913 93.273 221.16 92.273 221.16ZM103.74 212.2C103.74 212.333 103.674 212.4 103.54 212.4H101.38C101.327 212.4 101.3 212.427 101.3 212.48V217.78C101.3 218.34 101.427 218.747 101.68 219C101.934 219.24 102.327 219.36 102.86 219.36H103.44C103.574 219.36 103.64 219.427 103.64 219.56V220.8C103.64 220.933 103.574 221 103.44 221C103.014 221.027 102.707 221.04 102.52 221.04C101.507 221.04 100.74 220.86 100.22 220.5C99.7136 220.127 99.4603 219.447 99.4603 218.46V212.48C99.4603 212.427 99.4336 212.4 99.3803 212.4H98.1603C98.027 212.4 97.9603 212.333 97.9603 212.2V211.02C97.9603 210.887 98.027 210.82 98.1603 210.82H99.3803C99.4336 210.82 99.4603 210.793 99.4603 210.74V208.38C99.4603 208.247 99.527 208.18 99.6603 208.18H101.1C101.234 208.18 101.3 208.247 101.3 208.38V210.74C101.3 210.793 101.327 210.82 101.38 210.82H103.54C103.674 210.82 103.74 210.887 103.74 211.02V212.2ZM109.823 210.66C110.636 210.66 111.343 210.807 111.943 211.1C112.556 211.38 113.023 211.78 113.343 212.3C113.676 212.807 113.843 213.387 113.843 214.04V220.8C113.843 220.933 113.776 221 113.643 221H112.123C111.99 221 111.923 220.933 111.923 220.8V220.08C111.923 220.013 111.89 220 111.823 220.04C111.476 220.4 111.05 220.68 110.543 220.88C110.05 221.067 109.496 221.16 108.883 221.16C107.896 221.16 107.076 220.913 106.423 220.42C105.783 219.913 105.463 219.153 105.463 218.14C105.463 217.1 105.823 216.287 106.543 215.7C107.276 215.1 108.296 214.8 109.603 214.8H111.843C111.896 214.8 111.923 214.773 111.923 214.72V214.18C111.923 213.593 111.75 213.14 111.403 212.82C111.07 212.487 110.556 212.32 109.863 212.32C109.303 212.32 108.843 212.433 108.483 212.66C108.136 212.873 107.923 213.167 107.843 213.54C107.803 213.673 107.723 213.733 107.603 213.72L105.983 213.5C105.85 213.473 105.79 213.42 105.803 213.34C105.91 212.553 106.33 211.913 107.063 211.42C107.796 210.913 108.716 210.66 109.823 210.66ZM109.303 219.54C110.01 219.54 110.623 219.353 111.143 218.98C111.663 218.607 111.923 218.133 111.923 217.56V216.38C111.923 216.327 111.896 216.3 111.843 216.3H109.963C109.176 216.3 108.55 216.453 108.083 216.76C107.616 217.067 107.383 217.493 107.383 218.04C107.383 218.533 107.556 218.907 107.903 219.16C108.263 219.413 108.73 219.54 109.303 219.54ZM120.895 210.72C121.322 210.72 121.708 210.807 122.055 210.98C122.148 211.02 122.182 211.1 122.155 211.22L121.835 212.72C121.822 212.84 121.742 212.88 121.595 212.84C121.368 212.747 121.102 212.7 120.795 212.7L120.515 212.72C119.888 212.747 119.368 212.967 118.955 213.38C118.555 213.78 118.355 214.307 118.355 214.96V220.8C118.355 220.933 118.288 221 118.155 221H116.635C116.502 221 116.435 220.933 116.435 220.8V211.02C116.435 210.887 116.502 210.82 116.635 210.82H118.155C118.288 210.82 118.355 210.887 118.355 211.02V212.08C118.355 212.12 118.362 212.147 118.375 212.16C118.402 212.16 118.422 212.147 118.435 212.12C119.035 211.187 119.855 210.72 120.895 210.72ZM131.941 214.64C131.994 215.187 132.014 215.8 132.001 216.48C132.001 216.613 131.934 216.68 131.801 216.68H125.421C125.367 216.68 125.341 216.707 125.341 216.76C125.341 217.213 125.381 217.56 125.461 217.8C125.607 218.333 125.901 218.753 126.341 219.06C126.794 219.353 127.361 219.5 128.041 219.5C129.027 219.5 129.787 219.093 130.321 218.28C130.387 218.147 130.474 218.127 130.581 218.22L131.721 218.98C131.814 219.06 131.834 219.147 131.781 219.24C131.407 219.84 130.874 220.313 130.181 220.66C129.501 221.007 128.727 221.18 127.861 221.18C126.887 221.18 126.067 220.967 125.401 220.54C124.734 220.113 124.234 219.507 123.901 218.72C123.581 217.933 123.421 216.98 123.421 215.86C123.421 214.887 123.494 214.147 123.641 213.64C123.881 212.72 124.361 211.993 125.081 211.46C125.801 210.927 126.674 210.66 127.701 210.66C129.047 210.66 130.054 211 130.721 211.68C131.387 212.347 131.794 213.333 131.941 214.64ZM127.701 212.32C127.127 212.32 126.654 212.467 126.281 212.76C125.907 213.04 125.654 213.42 125.521 213.9C125.427 214.193 125.367 214.567 125.341 215.02C125.341 215.073 125.367 215.1 125.421 215.1H130.001C130.054 215.1 130.081 215.073 130.081 215.02C130.054 214.58 130.014 214.253 129.961 214.04C129.827 213.52 129.561 213.107 129.161 212.8C128.774 212.48 128.287 212.32 127.701 212.32ZM137.847 221.12C137.047 221.12 136.341 221 135.727 220.76C135.127 220.52 134.661 220.193 134.327 219.78C133.994 219.353 133.827 218.887 133.827 218.38V218.16C133.827 218.027 133.894 217.96 134.027 217.96H135.467C135.601 217.96 135.667 218.027 135.667 218.16V218.26C135.667 218.633 135.867 218.96 136.267 219.24C136.681 219.52 137.201 219.66 137.827 219.66C138.427 219.66 138.914 219.533 139.287 219.28C139.661 219.013 139.847 218.68 139.847 218.28C139.847 217.893 139.674 217.607 139.327 217.42C138.981 217.22 138.421 217.013 137.647 216.8C136.887 216.587 136.247 216.373 135.727 216.16C135.221 215.933 134.787 215.62 134.427 215.22C134.081 214.807 133.907 214.28 133.907 213.64C133.907 212.747 134.254 212.04 134.947 211.52C135.654 210.987 136.587 210.72 137.747 210.72C138.521 210.72 139.201 210.847 139.787 211.1C140.387 211.34 140.847 211.68 141.167 212.12C141.487 212.56 141.647 213.053 141.647 213.6V213.66C141.647 213.793 141.581 213.86 141.447 213.86H140.047C139.914 213.86 139.847 213.793 139.847 213.66V213.6C139.847 213.213 139.654 212.893 139.267 212.64C138.894 212.373 138.381 212.24 137.727 212.24C137.141 212.24 136.661 212.353 136.287 212.58C135.927 212.807 135.747 213.113 135.747 213.5C135.747 213.887 135.921 214.18 136.267 214.38C136.627 214.58 137.201 214.793 137.987 215.02C138.761 215.233 139.401 215.447 139.907 215.66C140.427 215.86 140.867 216.167 141.227 216.58C141.587 216.98 141.767 217.507 141.767 218.16C141.767 219.067 141.407 219.787 140.687 220.32C139.981 220.853 139.034 221.12 137.847 221.12ZM152.477 210.72C152.904 210.72 153.291 210.807 153.637 210.98C153.731 211.02 153.764 211.1 153.737 211.22L153.417 212.72C153.404 212.84 153.324 212.88 153.177 212.84C152.951 212.747 152.684 212.7 152.377 212.7L152.097 212.72C151.471 212.747 150.951 212.967 150.537 213.38C150.137 213.78 149.937 214.307 149.937 214.96V220.8C149.937 220.933 149.871 221 149.737 221H148.217C148.084 221 148.017 220.933 148.017 220.8V211.02C148.017 210.887 148.084 210.82 148.217 210.82H149.737C149.871 210.82 149.937 210.887 149.937 211.02V212.08C149.937 212.12 149.944 212.147 149.957 212.16C149.984 212.16 150.004 212.147 150.017 212.12C150.617 211.187 151.437 210.72 152.477 210.72ZM163.523 214.64C163.576 215.187 163.596 215.8 163.583 216.48C163.583 216.613 163.516 216.68 163.383 216.68H157.003C156.949 216.68 156.923 216.707 156.923 216.76C156.923 217.213 156.963 217.56 157.043 217.8C157.189 218.333 157.483 218.753 157.923 219.06C158.376 219.353 158.943 219.5 159.623 219.5C160.609 219.5 161.369 219.093 161.903 218.28C161.969 218.147 162.056 218.127 162.163 218.22L163.303 218.98C163.396 219.06 163.416 219.147 163.363 219.24C162.989 219.84 162.456 220.313 161.763 220.66C161.083 221.007 160.309 221.18 159.443 221.18C158.469 221.18 157.649 220.967 156.983 220.54C156.316 220.113 155.816 219.507 155.483 218.72C155.163 217.933 155.003 216.98 155.003 215.86C155.003 214.887 155.076 214.147 155.223 213.64C155.463 212.72 155.943 211.993 156.663 211.46C157.383 210.927 158.256 210.66 159.283 210.66C160.629 210.66 161.636 211 162.303 211.68C162.969 212.347 163.376 213.333 163.523 214.64ZM159.283 212.32C158.709 212.32 158.236 212.467 157.863 212.76C157.489 213.04 157.236 213.42 157.103 213.9C157.009 214.193 156.949 214.567 156.923 215.02C156.923 215.073 156.949 215.1 157.003 215.1H161.583C161.636 215.1 161.663 215.073 161.663 215.02C161.636 214.58 161.596 214.253 161.543 214.04C161.409 213.52 161.143 213.107 160.743 212.8C160.356 212.48 159.869 212.32 159.283 212.32ZM174.265 213.38C174.519 214.1 174.645 214.953 174.645 215.94C174.645 216.873 174.539 217.68 174.325 218.36C174.045 219.253 173.585 219.947 172.945 220.44C172.305 220.92 171.485 221.16 170.485 221.16C170.032 221.16 169.599 221.073 169.185 220.9C168.785 220.713 168.439 220.453 168.145 220.12C168.119 220.093 168.092 220.087 168.065 220.1C168.052 220.113 168.045 220.133 168.045 220.16V224.62C168.045 224.753 167.979 224.82 167.845 224.82H166.325C166.192 224.82 166.125 224.753 166.125 224.62V211.02C166.125 210.887 166.192 210.82 166.325 210.82H167.845C167.979 210.82 168.045 210.887 168.045 211.02V211.68C168.045 211.707 168.052 211.727 168.065 211.74C168.092 211.753 168.119 211.747 168.145 211.72C168.439 211.387 168.785 211.127 169.185 210.94C169.585 210.753 170.019 210.66 170.485 210.66C171.445 210.66 172.239 210.9 172.865 211.38C173.505 211.847 173.972 212.513 174.265 213.38ZM172.065 218.54C172.492 217.9 172.705 217.02 172.705 215.9C172.705 214.873 172.539 214.047 172.205 213.42C171.819 212.687 171.185 212.32 170.305 212.32C169.532 212.32 168.945 212.68 168.545 213.4C168.225 213.973 168.065 214.813 168.065 215.92C168.065 217.04 168.239 217.893 168.585 218.48C168.972 219.16 169.539 219.5 170.285 219.5C171.085 219.5 171.679 219.18 172.065 218.54ZM177.358 221C177.224 221 177.158 220.933 177.158 220.8V207.2C177.158 207.067 177.224 207 177.358 207H178.878C179.011 207 179.078 207.067 179.078 207.2V220.8C179.078 220.933 179.011 221 178.878 221H177.358ZM185.585 210.66C186.398 210.66 187.105 210.807 187.705 211.1C188.318 211.38 188.785 211.78 189.105 212.3C189.438 212.807 189.605 213.387 189.605 214.04V220.8C189.605 220.933 189.538 221 189.405 221H187.885C187.752 221 187.685 220.933 187.685 220.8V220.08C187.685 220.013 187.652 220 187.585 220.04C187.238 220.4 186.812 220.68 186.305 220.88C185.812 221.067 185.258 221.16 184.645 221.16C183.658 221.16 182.838 220.913 182.185 220.42C181.545 219.913 181.225 219.153 181.225 218.14C181.225 217.1 181.585 216.287 182.305 215.7C183.038 215.1 184.058 214.8 185.365 214.8H187.605C187.658 214.8 187.685 214.773 187.685 214.72V214.18C187.685 213.593 187.512 213.14 187.165 212.82C186.832 212.487 186.318 212.32 185.625 212.32C185.065 212.32 184.605 212.433 184.245 212.66C183.898 212.873 183.685 213.167 183.605 213.54C183.565 213.673 183.485 213.733 183.365 213.72L181.745 213.5C181.612 213.473 181.552 213.42 181.565 213.34C181.672 212.553 182.092 211.913 182.825 211.42C183.558 210.913 184.478 210.66 185.585 210.66ZM185.065 219.54C185.772 219.54 186.385 219.353 186.905 218.98C187.425 218.607 187.685 218.133 187.685 217.56V216.38C187.685 216.327 187.658 216.3 187.605 216.3H185.725C184.938 216.3 184.312 216.453 183.845 216.76C183.378 217.067 183.145 217.493 183.145 218.04C183.145 218.533 183.318 218.907 183.665 219.16C184.025 219.413 184.492 219.54 185.065 219.54ZM196.737 210.68C197.83 210.68 198.697 211 199.337 211.64C199.977 212.267 200.297 213.12 200.297 214.2V220.8C200.297 220.933 200.23 221 200.097 221H198.577C198.444 221 198.377 220.933 198.377 220.8V214.58C198.377 213.913 198.184 213.373 197.797 212.96C197.41 212.547 196.897 212.34 196.257 212.34C195.63 212.34 195.117 212.547 194.717 212.96C194.317 213.373 194.117 213.907 194.117 214.56V220.8C194.117 220.933 194.05 221 193.917 221H192.397C192.264 221 192.197 220.933 192.197 220.8V211.02C192.197 210.887 192.264 210.82 192.397 210.82H193.917C194.05 210.82 194.117 210.887 194.117 211.02V211.74C194.117 211.767 194.124 211.787 194.137 211.8C194.164 211.813 194.184 211.807 194.197 211.78C194.77 211.047 195.617 210.68 196.737 210.68ZM208.057 212.2C208.057 212.333 207.99 212.4 207.857 212.4H205.697C205.643 212.4 205.617 212.427 205.617 212.48V217.78C205.617 218.34 205.743 218.747 205.997 219C206.25 219.24 206.643 219.36 207.177 219.36H207.757C207.89 219.36 207.957 219.427 207.957 219.56V220.8C207.957 220.933 207.89 221 207.757 221C207.33 221.027 207.023 221.04 206.837 221.04C205.823 221.04 205.057 220.86 204.537 220.5C204.03 220.127 203.777 219.447 203.777 218.46V212.48C203.777 212.427 203.75 212.4 203.697 212.4H202.477C202.343 212.4 202.277 212.333 202.277 212.2V211.02C202.277 210.887 202.343 210.82 202.477 210.82H203.697C203.75 210.82 203.777 210.793 203.777 210.74V208.38C203.777 208.247 203.843 208.18 203.977 208.18H205.417C205.55 208.18 205.617 208.247 205.617 208.38V210.74C205.617 210.793 205.643 210.82 205.697 210.82H207.857C207.99 210.82 208.057 210.887 208.057 211.02V212.2ZM218.425 214.64C218.478 215.187 218.498 215.8 218.485 216.48C218.485 216.613 218.418 216.68 218.285 216.68H211.905C211.852 216.68 211.825 216.707 211.825 216.76C211.825 217.213 211.865 217.56 211.945 217.8C212.092 218.333 212.385 218.753 212.825 219.06C213.278 219.353 213.845 219.5 214.525 219.5C215.512 219.5 216.272 219.093 216.805 218.28C216.872 218.147 216.958 218.127 217.065 218.22L218.205 218.98C218.298 219.06 218.318 219.147 218.265 219.24C217.892 219.84 217.358 220.313 216.665 220.66C215.985 221.007 215.212 221.18 214.345 221.18C213.372 221.18 212.552 220.967 211.885 220.54C211.218 220.113 210.718 219.507 210.385 218.72C210.065 217.933 209.905 216.98 209.905 215.86C209.905 214.887 209.978 214.147 210.125 213.64C210.365 212.72 210.845 211.993 211.565 211.46C212.285 210.927 213.158 210.66 214.185 210.66C215.532 210.66 216.538 211 217.205 211.68C217.872 212.347 218.278 213.333 218.425 214.64ZM214.185 212.32C213.612 212.32 213.138 212.467 212.765 212.76C212.392 213.04 212.138 213.42 212.005 213.9C211.912 214.193 211.852 214.567 211.825 215.02C211.825 215.073 211.852 215.1 211.905 215.1H216.485C216.538 215.1 216.565 215.073 216.565 215.02C216.538 214.58 216.498 214.253 216.445 214.04C216.312 213.52 216.045 213.107 215.645 212.8C215.258 212.48 214.772 212.32 214.185 212.32ZM227.228 207.2C227.228 207.067 227.294 207 227.428 207H228.948C229.081 207 229.148 207.067 229.148 207.2V220.8C229.148 220.933 229.081 221 228.948 221H227.428C227.294 221 227.228 220.933 227.228 220.8V220.14C227.228 220.113 227.214 220.093 227.188 220.08C227.174 220.067 227.154 220.073 227.128 220.1C226.834 220.433 226.488 220.693 226.088 220.88C225.688 221.067 225.254 221.16 224.788 221.16C223.828 221.16 223.028 220.927 222.388 220.46C221.761 219.98 221.301 219.307 221.008 218.44C220.754 217.733 220.628 216.88 220.628 215.88C220.628 214.947 220.734 214.14 220.948 213.46C221.228 212.58 221.688 211.893 222.328 211.4C222.968 210.907 223.788 210.66 224.788 210.66C225.241 210.66 225.668 210.753 226.068 210.94C226.481 211.113 226.834 211.367 227.128 211.7C227.154 211.727 227.174 211.733 227.188 211.72C227.214 211.707 227.228 211.687 227.228 211.66V207.2ZM226.728 218.42C227.034 217.86 227.188 217.02 227.188 215.9C227.188 214.78 227.021 213.927 226.688 213.34C226.301 212.66 225.734 212.32 224.988 212.32C224.188 212.32 223.594 212.64 223.208 213.28C222.781 213.947 222.568 214.827 222.568 215.92C222.568 216.947 222.734 217.773 223.068 218.4C223.454 219.133 224.088 219.5 224.968 219.5C225.741 219.5 226.328 219.14 226.728 218.42ZM240.986 212.2C240.986 212.333 240.92 212.4 240.786 212.4H238.626C238.573 212.4 238.546 212.427 238.546 212.48V217.78C238.546 218.34 238.673 218.747 238.926 219C239.18 219.24 239.573 219.36 240.106 219.36H240.686C240.82 219.36 240.886 219.427 240.886 219.56V220.8C240.886 220.933 240.82 221 240.686 221C240.26 221.027 239.953 221.04 239.766 221.04C238.753 221.04 237.986 220.86 237.466 220.5C236.96 220.127 236.706 219.447 236.706 218.46V212.48C236.706 212.427 236.68 212.4 236.626 212.4H235.406C235.273 212.4 235.206 212.333 235.206 212.2V211.02C235.206 210.887 235.273 210.82 235.406 210.82H236.626C236.68 210.82 236.706 210.793 236.706 210.74V208.38C236.706 208.247 236.773 208.18 236.906 208.18H238.346C238.48 208.18 238.546 208.247 238.546 208.38V210.74C238.546 210.793 238.573 210.82 238.626 210.82H240.786C240.92 210.82 240.986 210.887 240.986 211.02V212.2ZM244.509 209.22C244.136 209.22 243.829 209.1 243.589 208.86C243.349 208.62 243.229 208.313 243.229 207.94C243.229 207.567 243.349 207.26 243.589 207.02C243.829 206.78 244.136 206.66 244.509 206.66C244.883 206.66 245.189 206.78 245.429 207.02C245.669 207.26 245.789 207.567 245.789 207.94C245.789 208.313 245.669 208.62 245.429 208.86C245.189 209.1 244.883 209.22 244.509 209.22ZM243.709 220.98C243.576 220.98 243.509 220.913 243.509 220.78V211.02C243.509 210.887 243.576 210.82 243.709 210.82H245.229C245.363 210.82 245.429 210.887 245.429 211.02V220.78C245.429 220.913 245.363 220.98 245.229 220.98H243.709ZM248.647 221C248.514 221 248.447 220.933 248.447 220.8V207.2C248.447 207.067 248.514 207 248.647 207H250.167C250.3 207 250.367 207.067 250.367 207.2V220.8C250.367 220.933 250.3 221 250.167 221H248.647ZM253.354 221C253.221 221 253.154 220.933 253.154 220.8V207.2C253.154 207.067 253.221 207 253.354 207H254.874C255.007 207 255.074 207.067 255.074 207.2V220.8C255.074 220.933 255.007 221 254.874 221H253.354ZM266.885 212.2C266.885 212.333 266.818 212.4 266.685 212.4H264.525C264.472 212.4 264.445 212.427 264.445 212.48V217.78C264.445 218.34 264.572 218.747 264.825 219C265.078 219.24 265.472 219.36 266.005 219.36H266.585C266.718 219.36 266.785 219.427 266.785 219.56V220.8C266.785 220.933 266.718 221 266.585 221C266.158 221.027 265.852 221.04 265.665 221.04C264.652 221.04 263.885 220.86 263.365 220.5C262.858 220.127 262.605 219.447 262.605 218.46V212.48C262.605 212.427 262.578 212.4 262.525 212.4H261.305C261.172 212.4 261.105 212.333 261.105 212.2V211.02C261.105 210.887 261.172 210.82 261.305 210.82H262.525C262.578 210.82 262.605 210.793 262.605 210.74V208.38C262.605 208.247 262.672 208.18 262.805 208.18H264.245C264.378 208.18 264.445 208.247 264.445 208.38V210.74C264.445 210.793 264.472 210.82 264.525 210.82H266.685C266.818 210.82 266.885 210.887 266.885 211.02V212.2ZM273.173 221.16C272.187 221.16 271.327 220.913 270.593 220.42C269.86 219.913 269.347 219.213 269.053 218.32C268.813 217.6 268.693 216.787 268.693 215.88C268.693 214.933 268.807 214.133 269.033 213.48C269.327 212.6 269.84 211.913 270.573 211.42C271.307 210.913 272.18 210.66 273.193 210.66C274.153 210.66 274.987 210.913 275.693 211.42C276.413 211.913 276.927 212.593 277.233 213.46C277.473 214.14 277.593 214.94 277.593 215.86C277.593 216.793 277.473 217.613 277.233 218.32C276.94 219.213 276.433 219.913 275.713 220.42C274.993 220.913 274.147 221.16 273.173 221.16ZM273.173 219.5C273.707 219.5 274.173 219.353 274.573 219.06C274.973 218.753 275.26 218.327 275.433 217.78C275.58 217.273 275.653 216.647 275.653 215.9C275.653 215.153 275.587 214.533 275.453 214.04C275.28 213.493 274.993 213.073 274.593 212.78C274.193 212.473 273.707 212.32 273.133 212.32C272.587 212.32 272.113 212.473 271.713 212.78C271.313 213.073 271.027 213.493 270.853 214.04C270.707 214.507 270.633 215.127 270.633 215.9C270.633 216.673 270.707 217.3 270.853 217.78C271.013 218.327 271.293 218.753 271.693 219.06C272.107 219.353 272.6 219.5 273.173 219.5ZM286.427 207.2C286.427 207.067 286.494 207 286.627 207H288.147C288.28 207 288.347 207.067 288.347 207.2V220.8C288.347 220.933 288.28 221 288.147 221H286.627C286.494 221 286.427 220.933 286.427 220.8V220.14C286.427 220.113 286.414 220.093 286.387 220.08C286.374 220.067 286.354 220.073 286.327 220.1C286.034 220.433 285.687 220.693 285.287 220.88C284.887 221.067 284.454 221.16 283.987 221.16C283.027 221.16 282.227 220.927 281.587 220.46C280.96 219.98 280.5 219.307 280.207 218.44C279.954 217.733 279.827 216.88 279.827 215.88C279.827 214.947 279.934 214.14 280.147 213.46C280.427 212.58 280.887 211.893 281.527 211.4C282.167 210.907 282.987 210.66 283.987 210.66C284.44 210.66 284.867 210.753 285.267 210.94C285.68 211.113 286.034 211.367 286.327 211.7C286.354 211.727 286.374 211.733 286.387 211.72C286.414 211.707 286.427 211.687 286.427 211.66V207.2ZM285.927 218.42C286.234 217.86 286.387 217.02 286.387 215.9C286.387 214.78 286.22 213.927 285.887 213.34C285.5 212.66 284.934 212.32 284.187 212.32C283.387 212.32 282.794 212.64 282.407 213.28C281.98 213.947 281.767 214.827 281.767 215.92C281.767 216.947 281.934 217.773 282.267 218.4C282.654 219.133 283.287 219.5 284.167 219.5C284.94 219.5 285.527 219.14 285.927 218.42ZM294.882 210.66C295.695 210.66 296.402 210.807 297.002 211.1C297.615 211.38 298.082 211.78 298.402 212.3C298.735 212.807 298.902 213.387 298.902 214.04V220.8C298.902 220.933 298.835 221 298.702 221H297.182C297.048 221 296.982 220.933 296.982 220.8V220.08C296.982 220.013 296.948 220 296.882 220.04C296.535 220.4 296.108 220.68 295.602 220.88C295.108 221.067 294.555 221.16 293.942 221.16C292.955 221.16 292.135 220.913 291.482 220.42C290.842 219.913 290.522 219.153 290.522 218.14C290.522 217.1 290.882 216.287 291.602 215.7C292.335 215.1 293.355 214.8 294.662 214.8H296.902C296.955 214.8 296.982 214.773 296.982 214.72V214.18C296.982 213.593 296.808 213.14 296.462 212.82C296.128 212.487 295.615 212.32 294.922 212.32C294.362 212.32 293.902 212.433 293.542 212.66C293.195 212.873 292.982 213.167 292.902 213.54C292.862 213.673 292.782 213.733 292.662 213.72L291.042 213.5C290.908 213.473 290.848 213.42 290.862 213.34C290.968 212.553 291.388 211.913 292.122 211.42C292.855 210.913 293.775 210.66 294.882 210.66ZM294.362 219.54C295.068 219.54 295.682 219.353 296.202 218.98C296.722 218.607 296.982 218.133 296.982 217.56V216.38C296.982 216.327 296.955 216.3 296.902 216.3H295.022C294.235 216.3 293.608 216.453 293.142 216.76C292.675 217.067 292.442 217.493 292.442 218.04C292.442 218.533 292.615 218.907 292.962 219.16C293.322 219.413 293.788 219.54 294.362 219.54ZM301.018 224.98C300.925 224.98 300.878 224.913 300.878 224.78V223.6C300.878 223.467 300.945 223.4 301.078 223.4H301.118C301.651 223.387 302.071 223.32 302.378 223.2C302.685 223.08 302.938 222.853 303.138 222.52C303.338 222.2 303.531 221.713 303.718 221.06C303.731 221.047 303.731 221.027 303.718 221C303.718 220.96 303.718 220.94 303.718 220.94L300.378 211.04L300.358 210.96C300.358 210.867 300.418 210.82 300.538 210.82H302.158C302.278 210.82 302.358 210.873 302.398 210.98L304.658 218.52C304.671 218.547 304.691 218.56 304.718 218.56C304.745 218.56 304.765 218.547 304.778 218.52L307.018 210.98C307.058 210.873 307.138 210.82 307.258 210.82H308.838C308.985 210.82 309.038 210.893 308.998 211.04L305.358 221.7C305.051 222.62 304.745 223.3 304.438 223.74C304.131 224.193 303.731 224.513 303.238 224.7C302.745 224.887 302.051 224.98 301.158 224.98H301.018Z" fill="#1ABC9C"/>
<g filter="url(#filter0_ii_292_3373)">
<circle cx="169" cy="82" r="33" transform="rotate(90 169 82)" fill="#07654E"/>
<circle cx="169" cy="82" r="33" transform="rotate(90 169 82)" fill="url(#paint2_radial_292_3373)"/>
</g>
<defs>
<filter id="filter0_ii_292_3373" x="136" y="49" width="74.375" height="79.4" filterUnits="userSpaceOnUse" color-interpolation-filters="sRGB">
<feFlood flood-opacity="0" result="BackgroundImageFix"/>
<feBlend mode="normal" in="SourceGraphic" in2="BackgroundImageFix" result="shape"/>
<feColorMatrix in="SourceAlpha" type="matrix" values="0 0 0 0 0 0 0 0 0 0 0 0 0 0 0 0 0 0 127 0" result="hardAlpha"/>
<feOffset dx="8.375" dy="13.4"/>
<feGaussianBlur stdDeviation="8.375"/>
<feComposite in2="hardAlpha" operator="arithmetic" k2="-1" k3="1"/>
<feColorMatrix type="matrix" values="0 0 0 0 0.035 0 0 0 0 0.525 0 0 0 0 0.4662 0 0 0 1 0"/>
<feBlend mode="normal" in2="shape" result="effect1_innerShadow_292_3373"/>
<feColorMatrix in="SourceAlpha" type="matrix" values="0 0 0 0 0 0 0 0 0 0 0 0 0 0 0 0 0 0 127 0" result="hardAlpha"/>
<feOffset dy="1.675"/>
<feGaussianBlur stdDeviation="4.1875"/>
<feComposite in2="hardAlpha" operator="arithmetic" k2="-1" k3="1"/>
<feColorMatrix type="matrix" values="0 0 0 0 1 0 0 0 0 1 0 0 0 0 1 0 0 0 0.58 0"/>
<feBlend mode="normal" in2="effect1_innerShadow_292_3373" result="effect2_innerShadow_292_3373"/>
</filter>
<linearGradient id="paint0_linear_292_3373" x1="169" y1="124.877" x2="169" y2="225" gradientUnits="userSpaceOnUse">
<stop stop-color="#16A085"/>
<stop offset="0.770833" stop-color="#1ABC9C" stop-opacity="0"/>
</linearGradient>
<linearGradient id="paint1_linear_292_3373" x1="169" y1="137.661" x2="169" y2="225" gradientUnits="userSpaceOnUse">
<stop stop-color="#A4E05E" stop-opacity="0.16"/>
<stop offset="1" stop-color="#A4E05E" stop-opacity="0"/>
</linearGradient>
<radialGradient id="paint2_radial_292_3373" cx="0" cy="0" r="1" gradientUnits="userSpaceOnUse" gradientTransform="translate(182.464 69.592) rotate(110.973) scale(67.8557)">
<stop stop-color="#0DD78E"/>
<stop offset="1" stop-color="#000210" stop-opacity="0"/>
</radialGradient>
</defs>
</svg>
