<svg width="340" height="236" viewBox="0 0 340 236" fill="none" xmlns="http://www.w3.org/2000/svg">
<path fill-rule="evenodd" clip-rule="evenodd" d="M187.666 162L171.5 146L155.334 162H2V234H338V162H187.666Z" fill="url(#paint0_linear_142_2853)"/>
<mask id="path-2-outside-1_142_2853" maskUnits="userSpaceOnUse" x="0" y="143" width="340" height="93" fill="black">
<rect fill="white" y="143" width="340" height="93"/>
<path fill-rule="evenodd" clip-rule="evenodd" d="M187.666 162L171.5 146L155.334 162H2V234H338V162H187.666Z"/>
</mask>
<path d="M171.5 146L172.907 144.579L171.5 143.186L170.093 144.579L171.5 146ZM187.666 162L186.259 163.421L186.843 164H187.666V162ZM155.334 162V164H156.157L156.741 163.421L155.334 162ZM2 162V160H0V162H2ZM2 234H0V236H2V234ZM338 234V236H340V234H338ZM338 162H340V160H338V162ZM170.093 147.421L186.259 163.421L189.073 160.579L172.907 144.579L170.093 147.421ZM156.741 163.421L172.907 147.421L170.093 144.579L153.927 160.579L156.741 163.421ZM2 164H155.334V160H2V164ZM4 234V162H0V234H4ZM338 232H2V236H338V232ZM336 162V234H340V162H336ZM187.666 164H338V160H187.666V164Z" fill="url(#paint1_linear_142_2853)" mask="url(#path-2-outside-1_142_2853)"/>
<path d="M72.9578 206.18C71.9845 206.18 71.1245 205.98 70.3778 205.58C69.6311 205.18 69.0511 204.62 68.6378 203.9C68.2245 203.167 68.0178 202.327 68.0178 201.38V196.62C68.0178 195.673 68.2245 194.84 68.6378 194.12C69.0511 193.4 69.6311 192.84 70.3778 192.44C71.1245 192.04 71.9845 191.84 72.9578 191.84C73.9445 191.84 74.8111 192.04 75.5578 192.44C76.3045 192.84 76.8845 193.4 77.2978 194.12C77.7111 194.84 77.9178 195.673 77.9178 196.62V201.38C77.9178 202.327 77.7111 203.167 77.2978 203.9C76.8845 204.62 76.3045 205.18 75.5578 205.58C74.8111 205.98 73.9445 206.18 72.9578 206.18ZM72.9578 204.52C73.8645 204.52 74.5978 204.24 75.1578 203.68C75.7178 203.12 75.9978 202.38 75.9978 201.46V196.6C75.9978 195.667 75.7178 194.92 75.1578 194.36C74.5978 193.787 73.8645 193.5 72.9578 193.5C72.0511 193.5 71.3178 193.787 70.7578 194.36C70.2111 194.92 69.9378 195.667 69.9378 196.6V201.46C69.9378 202.38 70.2111 203.12 70.7578 203.68C71.3178 204.24 72.0511 204.52 72.9578 204.52ZM85.0792 193.68C84.4126 193.68 83.9592 193.807 83.7192 194.06C83.4792 194.313 83.3592 194.793 83.3592 195.5V195.74C83.3592 195.793 83.3859 195.82 83.4392 195.82H85.5392C85.6726 195.82 85.7392 195.887 85.7392 196.02V197.38C85.7392 197.513 85.6726 197.58 85.5392 197.58H83.4392C83.3859 197.58 83.3592 197.607 83.3592 197.66V205.8C83.3592 205.933 83.2926 206 83.1592 206H81.6392C81.5059 206 81.4392 205.933 81.4392 205.8V197.66C81.4392 197.607 81.4126 197.58 81.3592 197.58H80.0192C79.8859 197.58 79.8192 197.513 79.8192 197.38V196.02C79.8192 195.887 79.8859 195.82 80.0192 195.82H81.3592C81.4126 195.82 81.4392 195.793 81.4392 195.74V195.38C81.4392 194.5 81.5392 193.82 81.7392 193.34C81.9526 192.86 82.3059 192.52 82.7992 192.32C83.2926 192.107 83.9859 192 84.8792 192H85.5592C85.6926 192 85.7592 192.067 85.7592 192.2V193.48C85.7592 193.613 85.6926 193.68 85.5592 193.68H85.0792ZM92.423 193.68C91.7563 193.68 91.303 193.807 91.063 194.06C90.823 194.313 90.703 194.793 90.703 195.5V195.74C90.703 195.793 90.7296 195.82 90.783 195.82H92.883C93.0163 195.82 93.083 195.887 93.083 196.02V197.38C93.083 197.513 93.0163 197.58 92.883 197.58H90.783C90.7296 197.58 90.703 197.607 90.703 197.66V205.8C90.703 205.933 90.6363 206 90.503 206H88.983C88.8496 206 88.783 205.933 88.783 205.8V197.66C88.783 197.607 88.7563 197.58 88.703 197.58H87.363C87.2296 197.58 87.163 197.513 87.163 197.38V196.02C87.163 195.887 87.2296 195.82 87.363 195.82H88.703C88.7563 195.82 88.783 195.793 88.783 195.74V195.38C88.783 194.5 88.883 193.82 89.083 193.34C89.2963 192.86 89.6496 192.52 90.143 192.32C90.6363 192.107 91.3296 192 92.223 192H92.903C93.0363 192 93.103 192.067 93.103 192.2V193.48C93.103 193.613 93.0363 193.68 92.903 193.68H92.423ZM96.4467 194.22C96.0734 194.22 95.7667 194.1 95.5267 193.86C95.2867 193.62 95.1667 193.313 95.1667 192.94C95.1667 192.567 95.2867 192.26 95.5267 192.02C95.7667 191.78 96.0734 191.66 96.4467 191.66C96.8201 191.66 97.1267 191.78 97.3667 192.02C97.6067 192.26 97.7267 192.567 97.7267 192.94C97.7267 193.313 97.6067 193.62 97.3667 193.86C97.1267 194.1 96.8201 194.22 96.4467 194.22ZM95.6467 205.98C95.5134 205.98 95.4467 205.913 95.4467 205.78V196.02C95.4467 195.887 95.5134 195.82 95.6467 195.82H97.1667C97.3001 195.82 97.3667 195.887 97.3667 196.02V205.78C97.3667 205.913 97.3001 205.98 97.1667 205.98H95.6467ZM104.464 206.16C103.451 206.16 102.584 205.907 101.864 205.4C101.144 204.88 100.651 204.18 100.384 203.3C100.184 202.687 100.084 201.88 100.084 200.88C100.084 199.96 100.184 199.153 100.384 198.46C100.651 197.607 101.144 196.927 101.864 196.42C102.598 195.913 103.464 195.66 104.464 195.66C105.464 195.66 106.338 195.913 107.084 196.42C107.831 196.927 108.318 197.567 108.544 198.34C108.624 198.553 108.678 198.773 108.704 199C108.704 199.107 108.644 199.173 108.524 199.2L107.024 199.42H106.984C106.891 199.42 106.824 199.36 106.784 199.24L106.724 198.92C106.618 198.467 106.358 198.087 105.944 197.78C105.531 197.473 105.031 197.32 104.444 197.32C103.871 197.32 103.384 197.473 102.984 197.78C102.584 198.087 102.324 198.493 102.204 199C102.084 199.48 102.024 200.113 102.024 200.9C102.024 201.673 102.084 202.3 102.204 202.78C102.338 203.313 102.598 203.733 102.984 204.04C103.384 204.347 103.871 204.5 104.444 204.5C105.031 204.5 105.531 204.347 105.944 204.04C106.371 203.733 106.638 203.333 106.744 202.84C106.758 202.827 106.758 202.813 106.744 202.8C106.744 202.773 106.751 202.753 106.764 202.74V202.66C106.804 202.553 106.878 202.513 106.984 202.54L108.484 202.78C108.591 202.807 108.644 202.86 108.644 202.94V203.02C108.644 203.14 108.611 203.287 108.544 203.46C108.318 204.273 107.831 204.927 107.084 205.42C106.338 205.913 105.464 206.16 104.464 206.16ZM112.072 194.22C111.698 194.22 111.392 194.1 111.152 193.86C110.912 193.62 110.792 193.313 110.792 192.94C110.792 192.567 110.912 192.26 111.152 192.02C111.392 191.78 111.698 191.66 112.072 191.66C112.445 191.66 112.752 191.78 112.992 192.02C113.232 192.26 113.352 192.567 113.352 192.94C113.352 193.313 113.232 193.62 112.992 193.86C112.752 194.1 112.445 194.22 112.072 194.22ZM111.272 205.98C111.138 205.98 111.072 205.913 111.072 205.78V196.02C111.072 195.887 111.138 195.82 111.272 195.82H112.792C112.925 195.82 112.992 195.887 112.992 196.02V205.78C112.992 205.913 112.925 205.98 112.792 205.98H111.272ZM119.729 195.66C120.543 195.66 121.249 195.807 121.849 196.1C122.463 196.38 122.929 196.78 123.249 197.3C123.583 197.807 123.749 198.387 123.749 199.04V205.8C123.749 205.933 123.683 206 123.549 206H122.029C121.896 206 121.829 205.933 121.829 205.8V205.08C121.829 205.013 121.796 205 121.729 205.04C121.383 205.4 120.956 205.68 120.449 205.88C119.956 206.067 119.403 206.16 118.789 206.16C117.803 206.16 116.983 205.913 116.329 205.42C115.689 204.913 115.369 204.153 115.369 203.14C115.369 202.1 115.729 201.287 116.449 200.7C117.183 200.1 118.203 199.8 119.509 199.8H121.749C121.803 199.8 121.829 199.773 121.829 199.72V199.18C121.829 198.593 121.656 198.14 121.309 197.82C120.976 197.487 120.463 197.32 119.769 197.32C119.209 197.32 118.749 197.433 118.389 197.66C118.043 197.873 117.829 198.167 117.749 198.54C117.709 198.673 117.629 198.733 117.509 198.72L115.889 198.5C115.756 198.473 115.696 198.42 115.709 198.34C115.816 197.553 116.236 196.913 116.969 196.42C117.703 195.913 118.623 195.66 119.729 195.66ZM119.209 204.54C119.916 204.54 120.529 204.353 121.049 203.98C121.569 203.607 121.829 203.133 121.829 202.56V201.38C121.829 201.327 121.803 201.3 121.749 201.3H119.869C119.083 201.3 118.456 201.453 117.989 201.76C117.523 202.067 117.289 202.493 117.289 203.04C117.289 203.533 117.463 203.907 117.809 204.16C118.169 204.413 118.636 204.54 119.209 204.54ZM126.541 206C126.408 206 126.341 205.933 126.341 205.8V192.2C126.341 192.067 126.408 192 126.541 192H128.061C128.195 192 128.261 192.067 128.261 192.2V205.8C128.261 205.933 128.195 206 128.061 206H126.541ZM138.152 206C138.032 206 137.959 205.947 137.932 205.84L134.172 192.22L134.152 192.16C134.152 192.053 134.219 192 134.352 192H135.972C136.092 192 136.166 192.06 136.192 192.18L138.812 202.14C138.826 202.167 138.839 202.18 138.852 202.18C138.879 202.18 138.899 202.167 138.912 202.14L141.392 192.18C141.419 192.06 141.492 192 141.612 192H143.192C143.312 192 143.386 192.06 143.412 192.18L146.032 202.16C146.046 202.187 146.059 202.2 146.072 202.2C146.086 202.2 146.099 202.187 146.112 202.16L148.752 192.18C148.779 192.06 148.852 192 148.972 192H150.492C150.559 192 150.606 192.02 150.632 192.06C150.672 192.1 150.686 192.153 150.672 192.22L147.052 205.82C147.026 205.94 146.952 206 146.832 206H145.292C145.172 206 145.099 205.94 145.072 205.82L142.452 195.5C142.439 195.46 142.426 195.44 142.412 195.44C142.399 195.44 142.386 195.46 142.372 195.5L139.832 205.82C139.819 205.94 139.746 206 139.612 206H138.152ZM159.796 199.64C159.85 200.187 159.87 200.8 159.856 201.48C159.856 201.613 159.79 201.68 159.656 201.68H153.276C153.223 201.68 153.196 201.707 153.196 201.76C153.196 202.213 153.236 202.56 153.316 202.8C153.463 203.333 153.756 203.753 154.196 204.06C154.65 204.353 155.216 204.5 155.896 204.5C156.883 204.5 157.643 204.093 158.176 203.28C158.243 203.147 158.33 203.127 158.436 203.22L159.576 203.98C159.67 204.06 159.69 204.147 159.636 204.24C159.263 204.84 158.73 205.313 158.036 205.66C157.356 206.007 156.583 206.18 155.716 206.18C154.743 206.18 153.923 205.967 153.256 205.54C152.59 205.113 152.09 204.507 151.756 203.72C151.436 202.933 151.276 201.98 151.276 200.86C151.276 199.887 151.35 199.147 151.496 198.64C151.736 197.72 152.216 196.993 152.936 196.46C153.656 195.927 154.53 195.66 155.556 195.66C156.903 195.66 157.91 196 158.576 196.68C159.243 197.347 159.65 198.333 159.796 199.64ZM155.556 197.32C154.983 197.32 154.51 197.467 154.136 197.76C153.763 198.04 153.51 198.42 153.376 198.9C153.283 199.193 153.223 199.567 153.196 200.02C153.196 200.073 153.223 200.1 153.276 200.1H157.856C157.91 200.1 157.936 200.073 157.936 200.02C157.91 199.58 157.87 199.253 157.816 199.04C157.683 198.52 157.416 198.107 157.016 197.8C156.63 197.48 156.143 197.32 155.556 197.32ZM170.499 198.46C170.712 199.14 170.819 199.947 170.819 200.88C170.819 201.88 170.692 202.733 170.439 203.44C170.146 204.307 169.679 204.98 169.039 205.46C168.412 205.927 167.619 206.16 166.659 206.16C166.192 206.16 165.759 206.067 165.359 205.88C164.959 205.693 164.612 205.433 164.319 205.1C164.292 205.073 164.266 205.067 164.239 205.08C164.226 205.093 164.219 205.113 164.219 205.14V205.8C164.219 205.933 164.152 206 164.019 206H162.499C162.366 206 162.299 205.933 162.299 205.8V192.2C162.299 192.067 162.366 192 162.499 192H164.019C164.152 192 164.219 192.067 164.219 192.2V196.66C164.219 196.687 164.226 196.707 164.239 196.72C164.266 196.733 164.292 196.727 164.319 196.7C164.612 196.367 164.959 196.113 165.359 195.94C165.772 195.753 166.206 195.66 166.659 195.66C167.659 195.66 168.479 195.907 169.119 196.4C169.759 196.893 170.219 197.58 170.499 198.46ZM168.379 203.4C168.712 202.773 168.879 201.947 168.879 200.92C168.879 199.827 168.666 198.947 168.239 198.28C167.852 197.64 167.259 197.32 166.459 197.32C165.712 197.32 165.146 197.66 164.759 198.34C164.412 198.953 164.239 199.807 164.239 200.9C164.239 201.993 164.399 202.833 164.719 203.42C165.119 204.14 165.706 204.5 166.479 204.5C167.359 204.5 167.992 204.133 168.379 203.4ZM176.914 206.12C176.114 206.12 175.407 206 174.794 205.76C174.194 205.52 173.727 205.193 173.394 204.78C173.06 204.353 172.894 203.887 172.894 203.38V203.16C172.894 203.027 172.96 202.96 173.094 202.96H174.534C174.667 202.96 174.734 203.027 174.734 203.16V203.26C174.734 203.633 174.934 203.96 175.334 204.24C175.747 204.52 176.267 204.66 176.894 204.66C177.494 204.66 177.98 204.533 178.354 204.28C178.727 204.013 178.914 203.68 178.914 203.28C178.914 202.893 178.74 202.607 178.394 202.42C178.047 202.22 177.487 202.013 176.714 201.8C175.954 201.587 175.314 201.373 174.794 201.16C174.287 200.933 173.854 200.62 173.494 200.22C173.147 199.807 172.974 199.28 172.974 198.64C172.974 197.747 173.32 197.04 174.014 196.52C174.72 195.987 175.654 195.72 176.814 195.72C177.587 195.72 178.267 195.847 178.854 196.1C179.454 196.34 179.914 196.68 180.234 197.12C180.554 197.56 180.714 198.053 180.714 198.6V198.66C180.714 198.793 180.647 198.86 180.514 198.86H179.114C178.98 198.86 178.914 198.793 178.914 198.66V198.6C178.914 198.213 178.72 197.893 178.334 197.64C177.96 197.373 177.447 197.24 176.794 197.24C176.207 197.24 175.727 197.353 175.354 197.58C174.994 197.807 174.814 198.113 174.814 198.5C174.814 198.887 174.987 199.18 175.334 199.38C175.694 199.58 176.267 199.793 177.054 200.02C177.827 200.233 178.467 200.447 178.974 200.66C179.494 200.86 179.934 201.167 180.294 201.58C180.654 201.98 180.834 202.507 180.834 203.16C180.834 204.067 180.474 204.787 179.754 205.32C179.047 205.853 178.1 206.12 176.914 206.12ZM184.24 194.22C183.866 194.22 183.56 194.1 183.32 193.86C183.08 193.62 182.96 193.313 182.96 192.94C182.96 192.567 183.08 192.26 183.32 192.02C183.56 191.78 183.866 191.66 184.24 191.66C184.613 191.66 184.92 191.78 185.16 192.02C185.4 192.26 185.52 192.567 185.52 192.94C185.52 193.313 185.4 193.62 185.16 193.86C184.92 194.1 184.613 194.22 184.24 194.22ZM183.44 205.98C183.306 205.98 183.24 205.913 183.24 205.78V196.02C183.24 195.887 183.306 195.82 183.44 195.82H184.96C185.093 195.82 185.16 195.887 185.16 196.02V205.78C185.16 205.913 185.093 205.98 184.96 205.98H183.44ZM193.197 197.2C193.197 197.333 193.131 197.4 192.997 197.4H190.837C190.784 197.4 190.757 197.427 190.757 197.48V202.78C190.757 203.34 190.884 203.747 191.137 204C191.391 204.24 191.784 204.36 192.317 204.36H192.897C193.031 204.36 193.097 204.427 193.097 204.56V205.8C193.097 205.933 193.031 206 192.897 206C192.471 206.027 192.164 206.04 191.977 206.04C190.964 206.04 190.197 205.86 189.677 205.5C189.171 205.127 188.917 204.447 188.917 203.46V197.48C188.917 197.427 188.891 197.4 188.837 197.4H187.617C187.484 197.4 187.417 197.333 187.417 197.2V196.02C187.417 195.887 187.484 195.82 187.617 195.82H188.837C188.891 195.82 188.917 195.793 188.917 195.74V193.38C188.917 193.247 188.984 193.18 189.117 193.18H190.557C190.691 193.18 190.757 193.247 190.757 193.38V195.74C190.757 195.793 190.784 195.82 190.837 195.82H192.997C193.131 195.82 193.197 195.887 193.197 196.02V197.2ZM203.566 199.64C203.619 200.187 203.639 200.8 203.626 201.48C203.626 201.613 203.559 201.68 203.426 201.68H197.046C196.992 201.68 196.966 201.707 196.966 201.76C196.966 202.213 197.006 202.56 197.086 202.8C197.232 203.333 197.526 203.753 197.966 204.06C198.419 204.353 198.986 204.5 199.666 204.5C200.652 204.5 201.412 204.093 201.946 203.28C202.012 203.147 202.099 203.127 202.206 203.22L203.346 203.98C203.439 204.06 203.459 204.147 203.406 204.24C203.032 204.84 202.499 205.313 201.806 205.66C201.126 206.007 200.352 206.18 199.486 206.18C198.512 206.18 197.692 205.967 197.026 205.54C196.359 205.113 195.859 204.507 195.526 203.72C195.206 202.933 195.046 201.98 195.046 200.86C195.046 199.887 195.119 199.147 195.266 198.64C195.506 197.72 195.986 196.993 196.706 196.46C197.426 195.927 198.299 195.66 199.326 195.66C200.672 195.66 201.679 196 202.346 196.68C203.012 197.347 203.419 198.333 203.566 199.64ZM199.326 197.32C198.752 197.32 198.279 197.467 197.906 197.76C197.532 198.04 197.279 198.42 197.146 198.9C197.052 199.193 196.992 199.567 196.966 200.02C196.966 200.073 196.992 200.1 197.046 200.1H201.626C201.679 200.1 201.706 200.073 201.706 200.02C201.679 199.58 201.639 199.253 201.586 199.04C201.452 198.52 201.186 198.107 200.786 197.8C200.399 197.48 199.912 197.32 199.326 197.32ZM210.492 206C210.359 206 210.292 205.933 210.292 205.8V192.2C210.292 192.067 210.359 192 210.492 192H212.012C212.146 192 212.212 192.067 212.212 192.2V204.26C212.212 204.313 212.239 204.34 212.292 204.34H219.192C219.326 204.34 219.392 204.407 219.392 204.54V205.8C219.392 205.933 219.326 206 219.192 206H210.492ZM225.179 195.66C225.992 195.66 226.699 195.807 227.299 196.1C227.912 196.38 228.379 196.78 228.699 197.3C229.032 197.807 229.199 198.387 229.199 199.04V205.8C229.199 205.933 229.132 206 228.999 206H227.479C227.345 206 227.279 205.933 227.279 205.8V205.08C227.279 205.013 227.245 205 227.179 205.04C226.832 205.4 226.405 205.68 225.899 205.88C225.405 206.067 224.852 206.16 224.239 206.16C223.252 206.16 222.432 205.913 221.779 205.42C221.139 204.913 220.819 204.153 220.819 203.14C220.819 202.1 221.179 201.287 221.899 200.7C222.632 200.1 223.652 199.8 224.959 199.8H227.199C227.252 199.8 227.279 199.773 227.279 199.72V199.18C227.279 198.593 227.105 198.14 226.759 197.82C226.425 197.487 225.912 197.32 225.219 197.32C224.659 197.32 224.199 197.433 223.839 197.66C223.492 197.873 223.279 198.167 223.199 198.54C223.159 198.673 223.079 198.733 222.959 198.72L221.339 198.5C221.205 198.473 221.145 198.42 221.159 198.34C221.265 197.553 221.685 196.913 222.419 196.42C223.152 195.913 224.072 195.66 225.179 195.66ZM224.659 204.54C225.365 204.54 225.979 204.353 226.499 203.98C227.019 203.607 227.279 203.133 227.279 202.56V201.38C227.279 201.327 227.252 201.3 227.199 201.3H225.319C224.532 201.3 223.905 201.453 223.439 201.76C222.972 202.067 222.739 202.493 222.739 203.04C222.739 203.533 222.912 203.907 223.259 204.16C223.619 204.413 224.085 204.54 224.659 204.54ZM237.851 196.02C237.851 195.887 237.917 195.82 238.051 195.82H239.551C239.684 195.82 239.751 195.887 239.751 196.02V205.8C239.751 205.933 239.684 206 239.551 206H238.051C237.917 206 237.851 205.933 237.851 205.8V205.06C237.851 205.033 237.837 205.02 237.811 205.02C237.797 205.007 237.777 205.013 237.751 205.04C237.217 205.773 236.397 206.14 235.291 206.14C234.637 206.14 234.031 206.013 233.471 205.76C232.924 205.507 232.484 205.133 232.151 204.64C231.817 204.147 231.651 203.547 231.651 202.84V196.02C231.651 195.887 231.717 195.82 231.851 195.82H233.351C233.484 195.82 233.551 195.887 233.551 196.02V202.24C233.551 202.933 233.731 203.48 234.091 203.88C234.464 204.28 234.984 204.48 235.651 204.48C236.317 204.48 236.851 204.28 237.251 203.88C237.651 203.467 237.851 202.92 237.851 202.24V196.02ZM247.092 195.68C248.186 195.68 249.052 196 249.692 196.64C250.332 197.267 250.652 198.12 250.652 199.2V205.8C250.652 205.933 250.586 206 250.452 206H248.932C248.799 206 248.732 205.933 248.732 205.8V199.58C248.732 198.913 248.539 198.373 248.152 197.96C247.766 197.547 247.252 197.34 246.612 197.34C245.986 197.34 245.472 197.547 245.072 197.96C244.672 198.373 244.472 198.907 244.472 199.56V205.8C244.472 205.933 244.406 206 244.272 206H242.752C242.619 206 242.552 205.933 242.552 205.8V196.02C242.552 195.887 242.619 195.82 242.752 195.82H244.272C244.406 195.82 244.472 195.887 244.472 196.02V196.74C244.472 196.767 244.479 196.787 244.492 196.8C244.519 196.813 244.539 196.807 244.552 196.78C245.126 196.047 245.972 195.68 247.092 195.68ZM257.355 206.16C256.342 206.16 255.475 205.907 254.755 205.4C254.035 204.88 253.542 204.18 253.275 203.3C253.075 202.687 252.975 201.88 252.975 200.88C252.975 199.96 253.075 199.153 253.275 198.46C253.542 197.607 254.035 196.927 254.755 196.42C255.488 195.913 256.355 195.66 257.355 195.66C258.355 195.66 259.228 195.913 259.975 196.42C260.722 196.927 261.208 197.567 261.435 198.34C261.515 198.553 261.568 198.773 261.595 199C261.595 199.107 261.535 199.173 261.415 199.2L259.915 199.42H259.875C259.782 199.42 259.715 199.36 259.675 199.24L259.615 198.92C259.508 198.467 259.248 198.087 258.835 197.78C258.422 197.473 257.922 197.32 257.335 197.32C256.762 197.32 256.275 197.473 255.875 197.78C255.475 198.087 255.215 198.493 255.095 199C254.975 199.48 254.915 200.113 254.915 200.9C254.915 201.673 254.975 202.3 255.095 202.78C255.228 203.313 255.488 203.733 255.875 204.04C256.275 204.347 256.762 204.5 257.335 204.5C257.922 204.5 258.422 204.347 258.835 204.04C259.262 203.733 259.528 203.333 259.635 202.84C259.648 202.827 259.648 202.813 259.635 202.8C259.635 202.773 259.642 202.753 259.655 202.74V202.66C259.695 202.553 259.768 202.513 259.875 202.54L261.375 202.78C261.482 202.807 261.535 202.86 261.535 202.94V203.02C261.535 203.14 261.502 203.287 261.435 203.46C261.208 204.273 260.722 204.927 259.975 205.42C259.228 205.913 258.355 206.16 257.355 206.16ZM268.342 195.68C269.436 195.68 270.302 196 270.942 196.64C271.582 197.267 271.902 198.12 271.902 199.2V205.8C271.902 205.933 271.836 206 271.702 206H270.182C270.049 206 269.982 205.933 269.982 205.8V199.58C269.982 198.913 269.789 198.373 269.402 197.96C269.016 197.547 268.502 197.34 267.862 197.34C267.236 197.34 266.722 197.547 266.322 197.96C265.922 198.373 265.722 198.907 265.722 199.56V205.8C265.722 205.933 265.656 206 265.522 206H264.002C263.869 206 263.802 205.933 263.802 205.8V192.2C263.802 192.067 263.869 192 264.002 192H265.522C265.656 192 265.722 192.067 265.722 192.2V196.74C265.722 196.767 265.729 196.787 265.742 196.8C265.769 196.813 265.789 196.807 265.802 196.78C266.376 196.047 267.222 195.68 268.342 195.68Z" fill="#9B59B6"/>
<g filter="url(#filter0_ii_142_2853)">
<ellipse cx="170" cy="73" rx="53" ry="53" transform="rotate(90 170 73)" fill="#7D0092"/>
<ellipse cx="170" cy="73" rx="53" ry="53" transform="rotate(90 170 73)" fill="url(#paint2_radial_142_2853)"/>
</g>
<defs>
<filter id="filter0_ii_142_2853" x="117" y="20" width="114.375" height="119.4" filterUnits="userSpaceOnUse" color-interpolation-filters="sRGB">
<feFlood flood-opacity="0" result="BackgroundImageFix"/>
<feBlend mode="normal" in="SourceGraphic" in2="BackgroundImageFix" result="shape"/>
<feColorMatrix in="SourceAlpha" type="matrix" values="0 0 0 0 0 0 0 0 0 0 0 0 0 0 0 0 0 0 127 0" result="hardAlpha"/>
<feOffset dx="8.375" dy="13.4"/>
<feGaussianBlur stdDeviation="8.375"/>
<feComposite in2="hardAlpha" operator="arithmetic" k2="-1" k3="1"/>
<feColorMatrix type="matrix" values="0 0 0 0 0.510417 0 0 0 0 0.0208333 0 0 0 0 1 0 0 0 0.95 0"/>
<feBlend mode="normal" in2="shape" result="effect1_innerShadow_142_2853"/>
<feColorMatrix in="SourceAlpha" type="matrix" values="0 0 0 0 0 0 0 0 0 0 0 0 0 0 0 0 0 0 127 0" result="hardAlpha"/>
<feOffset dy="1.675"/>
<feGaussianBlur stdDeviation="4.1875"/>
<feComposite in2="hardAlpha" operator="arithmetic" k2="-1" k3="1"/>
<feColorMatrix type="matrix" values="0 0 0 0 1 0 0 0 0 1 0 0 0 0 1 0 0 0 0.58 0"/>
<feBlend mode="normal" in2="effect1_innerShadow_142_2853" result="effect2_innerShadow_142_2853"/>
</filter>
<linearGradient id="paint0_linear_142_2853" x1="170" y1="146" x2="170" y2="252" gradientUnits="userSpaceOnUse">
<stop stop-color="#9C27B0" stop-opacity="0.16"/>
<stop offset="1" stop-color="#9C27B0" stop-opacity="0"/>
</linearGradient>
<linearGradient id="paint1_linear_142_2853" x1="170" y1="151.103" x2="170" y2="252" gradientUnits="userSpaceOnUse">
<stop stop-color="#863BA6"/>
<stop offset="0.723958" stop-color="#9B59B6" stop-opacity="0"/>
</linearGradient>
<radialGradient id="paint2_radial_142_2853" cx="0" cy="0" r="1" gradientUnits="userSpaceOnUse" gradientTransform="translate(191.624 53.072) rotate(110.973) scale(108.98)">
<stop stop-color="#C958F1"/>
<stop offset="1" stop-color="#000210" stop-opacity="0"/>
</radialGradient>
</defs>
</svg>
