<svg width="338" height="235" viewBox="0 0 338 235" fill="none" xmlns="http://www.w3.org/2000/svg">
<path fill-rule="evenodd" clip-rule="evenodd" d="M153.334 73L169.5 89L185.666 73L337 73L337 1L1.00001 0.999971L1 73L153.334 73Z" fill="url(#paint0_linear_142_2965)"/>
<path d="M169.5 89L168.797 89.7107L169.5 90.407L170.203 89.7107L169.5 89ZM153.334 73L154.038 72.2892L153.745 72L153.334 72L153.334 73ZM185.666 73L185.666 72L185.255 72L184.962 72.2892L185.666 73ZM337 73L337 74L338 74L338 73L337 73ZM337 1L338 1L338 8.74228e-08L337 0L337 1ZM1.00001 0.999971L1.00001 -2.93741e-05L7.78063e-06 -2.94615e-05L7.6932e-06 0.999971L1.00001 0.999971ZM1 73L1.39876e-06 73L1.31134e-06 74L1 74L1 73ZM170.203 88.2892L154.038 72.2892L152.631 73.7107L168.797 89.7107L170.203 88.2892ZM184.962 72.2892L168.797 88.2892L170.203 89.7107L186.369 73.7107L184.962 72.2892ZM337 72L185.666 72L185.666 74L337 74L337 72ZM336 1L336 73L338 73L338 1L336 1ZM1.00001 1.99997L337 2L337 0L1.00001 -2.93741e-05L1.00001 1.99997ZM2 73L2.00001 0.999971L7.6932e-06 0.999971L1.39876e-06 73L2 73ZM153.334 72L1 72L1 74L153.334 74L153.334 72Z" fill="url(#paint1_linear_142_2965)"/>
<path d="M47.4754 45.18C46.5021 45.18 45.6421 44.98 44.8954 44.58C44.1487 44.18 43.5687 43.62 43.1554 42.9C42.7421 42.1667 42.5354 41.3267 42.5354 40.38V35.62C42.5354 34.6733 42.7421 33.84 43.1554 33.12C43.5687 32.4 44.1487 31.84 44.8954 31.44C45.6421 31.04 46.5021 30.84 47.4754 30.84C48.4621 30.84 49.3287 31.04 50.0754 31.44C50.8221 31.84 51.4021 32.4 51.8154 33.12C52.2287 33.84 52.4354 34.6733 52.4354 35.62V40.38C52.4354 41.3267 52.2287 42.1667 51.8154 42.9C51.4021 43.62 50.8221 44.18 50.0754 44.58C49.3287 44.98 48.4621 45.18 47.4754 45.18ZM47.4754 43.52C48.3821 43.52 49.1154 43.24 49.6754 42.68C50.2354 42.12 50.5154 41.38 50.5154 40.46V35.6C50.5154 34.6667 50.2354 33.92 49.6754 33.36C49.1154 32.7867 48.3821 32.5 47.4754 32.5C46.5687 32.5 45.8354 32.7867 45.2754 33.36C44.7287 33.92 44.4554 34.6667 44.4554 35.6V40.46C44.4554 41.38 44.7287 42.12 45.2754 42.68C45.8354 43.24 46.5687 43.52 47.4754 43.52ZM59.5968 32.68C58.9301 32.68 58.4768 32.8067 58.2368 33.06C57.9968 33.3133 57.8768 33.7933 57.8768 34.5V34.74C57.8768 34.7933 57.9035 34.82 57.9568 34.82H60.0568C60.1901 34.82 60.2568 34.8867 60.2568 35.02V36.38C60.2568 36.5133 60.1901 36.58 60.0568 36.58H57.9568C57.9035 36.58 57.8768 36.6067 57.8768 36.66V44.8C57.8768 44.9333 57.8101 45 57.6768 45H56.1568C56.0235 45 55.9568 44.9333 55.9568 44.8V36.66C55.9568 36.6067 55.9301 36.58 55.8768 36.58H54.5368C54.4035 36.58 54.3368 36.5133 54.3368 36.38V35.02C54.3368 34.8867 54.4035 34.82 54.5368 34.82H55.8768C55.9301 34.82 55.9568 34.7933 55.9568 34.74V34.38C55.9568 33.5 56.0568 32.82 56.2568 32.34C56.4701 31.86 56.8235 31.52 57.3168 31.32C57.8101 31.1067 58.5035 31 59.3968 31H60.0768C60.2101 31 60.2768 31.0667 60.2768 31.2V32.48C60.2768 32.6133 60.2101 32.68 60.0768 32.68H59.5968ZM66.9405 32.68C66.2739 32.68 65.8205 32.8067 65.5805 33.06C65.3405 33.3133 65.2205 33.7933 65.2205 34.5V34.74C65.2205 34.7933 65.2472 34.82 65.3005 34.82H67.4005C67.5339 34.82 67.6005 34.8867 67.6005 35.02V36.38C67.6005 36.5133 67.5339 36.58 67.4005 36.58H65.3005C65.2472 36.58 65.2205 36.6067 65.2205 36.66V44.8C65.2205 44.9333 65.1539 45 65.0205 45H63.5005C63.3672 45 63.3005 44.9333 63.3005 44.8V36.66C63.3005 36.6067 63.2739 36.58 63.2205 36.58H61.8805C61.7472 36.58 61.6805 36.5133 61.6805 36.38V35.02C61.6805 34.8867 61.7472 34.82 61.8805 34.82H63.2205C63.2739 34.82 63.3005 34.7933 63.3005 34.74V34.38C63.3005 33.5 63.4005 32.82 63.6005 32.34C63.8139 31.86 64.1672 31.52 64.6605 31.32C65.1539 31.1067 65.8472 31 66.7405 31H67.4205C67.5539 31 67.6205 31.0667 67.6205 31.2V32.48C67.6205 32.6133 67.5539 32.68 67.4205 32.68H66.9405ZM70.9643 33.22C70.591 33.22 70.2843 33.1 70.0443 32.86C69.8043 32.62 69.6843 32.3133 69.6843 31.94C69.6843 31.5667 69.8043 31.26 70.0443 31.02C70.2843 30.78 70.591 30.66 70.9643 30.66C71.3376 30.66 71.6443 30.78 71.8843 31.02C72.1243 31.26 72.2443 31.5667 72.2443 31.94C72.2443 32.3133 72.1243 32.62 71.8843 32.86C71.6443 33.1 71.3376 33.22 70.9643 33.22ZM70.1643 44.98C70.031 44.98 69.9643 44.9133 69.9643 44.78V35.02C69.9643 34.8867 70.031 34.82 70.1643 34.82H71.6843C71.8176 34.82 71.8843 34.8867 71.8843 35.02V44.78C71.8843 44.9133 71.8176 44.98 71.6843 44.98H70.1643ZM78.982 45.16C77.9686 45.16 77.102 44.9067 76.382 44.4C75.662 43.88 75.1686 43.18 74.902 42.3C74.702 41.6867 74.602 40.88 74.602 39.88C74.602 38.96 74.702 38.1533 74.902 37.46C75.1686 36.6067 75.662 35.9267 76.382 35.42C77.1153 34.9133 77.982 34.66 78.982 34.66C79.982 34.66 80.8553 34.9133 81.602 35.42C82.3486 35.9267 82.8353 36.5667 83.062 37.34C83.142 37.5533 83.1953 37.7733 83.222 38C83.222 38.1067 83.162 38.1733 83.042 38.2L81.542 38.42H81.502C81.4086 38.42 81.342 38.36 81.302 38.24L81.242 37.92C81.1353 37.4667 80.8753 37.0867 80.462 36.78C80.0486 36.4733 79.5486 36.32 78.962 36.32C78.3886 36.32 77.902 36.4733 77.502 36.78C77.102 37.0867 76.842 37.4933 76.722 38C76.602 38.48 76.542 39.1133 76.542 39.9C76.542 40.6733 76.602 41.3 76.722 41.78C76.8553 42.3133 77.1153 42.7333 77.502 43.04C77.902 43.3467 78.3886 43.5 78.962 43.5C79.5486 43.5 80.0486 43.3467 80.462 43.04C80.8886 42.7333 81.1553 42.3333 81.262 41.84C81.2753 41.8267 81.2753 41.8133 81.262 41.8C81.262 41.7733 81.2686 41.7533 81.282 41.74V41.66C81.322 41.5533 81.3953 41.5133 81.502 41.54L83.002 41.78C83.1086 41.8067 83.162 41.86 83.162 41.94V42.02C83.162 42.14 83.1286 42.2867 83.062 42.46C82.8353 43.2733 82.3486 43.9267 81.602 44.42C80.8553 44.9133 79.982 45.16 78.982 45.16ZM86.5893 33.22C86.216 33.22 85.9093 33.1 85.6693 32.86C85.4293 32.62 85.3093 32.3133 85.3093 31.94C85.3093 31.5667 85.4293 31.26 85.6693 31.02C85.9093 30.78 86.216 30.66 86.5893 30.66C86.9626 30.66 87.2693 30.78 87.5093 31.02C87.7493 31.26 87.8693 31.5667 87.8693 31.94C87.8693 32.3133 87.7493 32.62 87.5093 32.86C87.2693 33.1 86.9626 33.22 86.5893 33.22ZM85.7893 44.98C85.656 44.98 85.5893 44.9133 85.5893 44.78V35.02C85.5893 34.8867 85.656 34.82 85.7893 34.82H87.3093C87.4426 34.82 87.5093 34.8867 87.5093 35.02V44.78C87.5093 44.9133 87.4426 44.98 87.3093 44.98H85.7893ZM94.247 34.66C95.0603 34.66 95.767 34.8067 96.367 35.1C96.9803 35.38 97.447 35.78 97.767 36.3C98.1003 36.8067 98.267 37.3867 98.267 38.04V44.8C98.267 44.9333 98.2003 45 98.067 45H96.547C96.4136 45 96.347 44.9333 96.347 44.8V44.08C96.347 44.0133 96.3136 44 96.247 44.04C95.9003 44.4 95.4736 44.68 94.967 44.88C94.4736 45.0667 93.9203 45.16 93.307 45.16C92.3203 45.16 91.5003 44.9133 90.847 44.42C90.207 43.9133 89.887 43.1533 89.887 42.14C89.887 41.1 90.247 40.2867 90.967 39.7C91.7003 39.1 92.7203 38.8 94.027 38.8H96.267C96.3203 38.8 96.347 38.7733 96.347 38.72V38.18C96.347 37.5933 96.1736 37.14 95.827 36.82C95.4936 36.4867 94.9803 36.32 94.287 36.32C93.727 36.32 93.267 36.4333 92.907 36.66C92.5603 36.8733 92.347 37.1667 92.267 37.54C92.227 37.6733 92.147 37.7333 92.027 37.72L90.407 37.5C90.2736 37.4733 90.2136 37.42 90.227 37.34C90.3336 36.5533 90.7536 35.9133 91.487 35.42C92.2203 34.9133 93.1403 34.66 94.247 34.66ZM93.727 43.54C94.4336 43.54 95.047 43.3533 95.567 42.98C96.087 42.6067 96.347 42.1333 96.347 41.56V40.38C96.347 40.3267 96.3203 40.3 96.267 40.3H94.387C93.6003 40.3 92.9736 40.4533 92.507 40.76C92.0403 41.0667 91.807 41.4933 91.807 42.04C91.807 42.5333 91.9803 42.9067 92.327 43.16C92.687 43.4133 93.1536 43.54 93.727 43.54ZM101.059 45C100.926 45 100.859 44.9333 100.859 44.8V31.2C100.859 31.0667 100.926 31 101.059 31H102.579C102.712 31 102.779 31.0667 102.779 31.2V44.8C102.779 44.9333 102.712 45 102.579 45H101.059ZM118.05 31.2C118.05 31.0667 118.117 31 118.25 31H119.77C119.903 31 119.97 31.0667 119.97 31.2V44.8C119.97 44.9333 119.903 45 119.77 45H118.31C118.217 45 118.137 44.9533 118.07 44.86L111.81 34.64C111.797 34.6 111.777 34.5867 111.75 34.6C111.723 34.6 111.71 34.62 111.71 34.66L111.73 44.8C111.73 44.9333 111.663 45 111.53 45H110.01C109.877 45 109.81 44.9333 109.81 44.8V31.2C109.81 31.0667 109.877 31 110.01 31H111.49C111.583 31 111.663 31.0467 111.73 31.14L117.97 41.36C117.983 41.4 118.003 41.42 118.03 41.42C118.057 41.4067 118.07 41.38 118.07 41.34L118.05 31.2ZM132.332 32.46C132.332 32.5933 132.265 32.66 132.132 32.66H125.052C124.999 32.66 124.972 32.6867 124.972 32.74V37.04C124.972 37.0933 124.999 37.12 125.052 37.12H129.912C130.045 37.12 130.112 37.1867 130.112 37.32V38.58C130.112 38.7133 130.045 38.78 129.912 38.78H125.052C124.999 38.78 124.972 38.8067 124.972 38.86V44.8C124.972 44.9333 124.905 45 124.772 45H123.252C123.119 45 123.052 44.9333 123.052 44.8V31.2C123.052 31.0667 123.119 31 123.252 31H132.132C132.265 31 132.332 31.0667 132.332 31.2V32.46ZM143.261 31C143.394 31 143.461 31.0667 143.461 31.2V32.48C143.461 32.6133 143.394 32.68 143.261 32.68H139.421C139.367 32.68 139.341 32.7067 139.341 32.76V44.8C139.341 44.9333 139.274 45 139.141 45H137.621C137.487 45 137.421 44.9333 137.421 44.8V32.76C137.421 32.7067 137.394 32.68 137.341 32.68H133.681C133.547 32.68 133.481 32.6133 133.481 32.48V31.2C133.481 31.0667 133.547 31 133.681 31H143.261ZM153.689 45.16C152.676 45.16 151.809 44.9067 151.089 44.4C150.369 43.88 149.876 43.18 149.609 42.3C149.409 41.6867 149.309 40.88 149.309 39.88C149.309 38.96 149.409 38.1533 149.609 37.46C149.876 36.6067 150.369 35.9267 151.089 35.42C151.822 34.9133 152.689 34.66 153.689 34.66C154.689 34.66 155.562 34.9133 156.309 35.42C157.056 35.9267 157.542 36.5667 157.769 37.34C157.849 37.5533 157.902 37.7733 157.929 38C157.929 38.1067 157.869 38.1733 157.749 38.2L156.249 38.42H156.209C156.116 38.42 156.049 38.36 156.009 38.24L155.949 37.92C155.842 37.4667 155.582 37.0867 155.169 36.78C154.756 36.4733 154.256 36.32 153.669 36.32C153.096 36.32 152.609 36.4733 152.209 36.78C151.809 37.0867 151.549 37.4933 151.429 38C151.309 38.48 151.249 39.1133 151.249 39.9C151.249 40.6733 151.309 41.3 151.429 41.78C151.562 42.3133 151.822 42.7333 152.209 43.04C152.609 43.3467 153.096 43.5 153.669 43.5C154.256 43.5 154.756 43.3467 155.169 43.04C155.596 42.7333 155.862 42.3333 155.969 41.84C155.982 41.8267 155.982 41.8133 155.969 41.8C155.969 41.7733 155.976 41.7533 155.989 41.74V41.66C156.029 41.5533 156.102 41.5133 156.209 41.54L157.709 41.78C157.816 41.8067 157.869 41.86 157.869 41.94V42.02C157.869 42.14 157.836 42.2867 157.769 42.46C157.542 43.2733 157.056 43.9267 156.309 44.42C155.562 44.9133 154.689 45.16 153.689 45.16ZM164.218 45.16C163.232 45.16 162.372 44.9133 161.638 44.42C160.905 43.9133 160.392 43.2133 160.098 42.32C159.858 41.6 159.738 40.7867 159.738 39.88C159.738 38.9333 159.852 38.1333 160.078 37.48C160.372 36.6 160.885 35.9133 161.618 35.42C162.352 34.9133 163.225 34.66 164.238 34.66C165.198 34.66 166.032 34.9133 166.738 35.42C167.458 35.9133 167.972 36.5933 168.278 37.46C168.518 38.14 168.638 38.94 168.638 39.86C168.638 40.7933 168.518 41.6133 168.278 42.32C167.985 43.2133 167.478 43.9133 166.758 44.42C166.038 44.9133 165.192 45.16 164.218 45.16ZM164.218 43.5C164.752 43.5 165.218 43.3533 165.618 43.06C166.018 42.7533 166.305 42.3267 166.478 41.78C166.625 41.2733 166.698 40.6467 166.698 39.9C166.698 39.1533 166.632 38.5333 166.498 38.04C166.325 37.4933 166.038 37.0733 165.638 36.78C165.238 36.4733 164.752 36.32 164.178 36.32C163.632 36.32 163.158 36.4733 162.758 36.78C162.358 37.0733 162.072 37.4933 161.898 38.04C161.752 38.5067 161.678 39.1267 161.678 39.9C161.678 40.6733 161.752 41.3 161.898 41.78C162.058 42.3267 162.338 42.7533 162.738 43.06C163.152 43.3533 163.645 43.5 164.218 43.5ZM171.352 45C171.219 45 171.152 44.9333 171.152 44.8V31.2C171.152 31.0667 171.219 31 171.352 31H172.872C173.005 31 173.072 31.0667 173.072 31.2V44.8C173.072 44.9333 173.005 45 172.872 45H171.352ZM176.059 45C175.926 45 175.859 44.9333 175.859 44.8V31.2C175.859 31.0667 175.926 31 176.059 31H177.579C177.712 31 177.779 31.0667 177.779 31.2V44.8C177.779 44.9333 177.712 45 177.579 45H176.059ZM188.806 38.64C188.859 39.1867 188.879 39.8 188.866 40.48C188.866 40.6133 188.799 40.68 188.666 40.68H182.286C182.233 40.68 182.206 40.7067 182.206 40.76C182.206 41.2133 182.246 41.56 182.326 41.8C182.473 42.3333 182.766 42.7533 183.206 43.06C183.659 43.3533 184.226 43.5 184.906 43.5C185.893 43.5 186.653 43.0933 187.186 42.28C187.253 42.1467 187.339 42.1267 187.446 42.22L188.586 42.98C188.679 43.06 188.699 43.1467 188.646 43.24C188.273 43.84 187.739 44.3133 187.046 44.66C186.366 45.0067 185.593 45.18 184.726 45.18C183.753 45.18 182.933 44.9667 182.266 44.54C181.599 44.1133 181.099 43.5067 180.766 42.72C180.446 41.9333 180.286 40.98 180.286 39.86C180.286 38.8867 180.359 38.1467 180.506 37.64C180.746 36.72 181.226 35.9933 181.946 35.46C182.666 34.9267 183.539 34.66 184.566 34.66C185.913 34.66 186.919 35 187.586 35.68C188.253 36.3467 188.659 37.3333 188.806 38.64ZM184.566 36.32C183.993 36.32 183.519 36.4667 183.146 36.76C182.773 37.04 182.519 37.42 182.386 37.9C182.293 38.1933 182.233 38.5667 182.206 39.02C182.206 39.0733 182.233 39.1 182.286 39.1H186.866C186.919 39.1 186.946 39.0733 186.946 39.02C186.919 38.58 186.879 38.2533 186.826 38.04C186.693 37.52 186.426 37.1067 186.026 36.8C185.639 36.48 185.153 36.32 184.566 36.32ZM195.369 45.16C194.355 45.16 193.489 44.9067 192.769 44.4C192.049 43.88 191.555 43.18 191.289 42.3C191.089 41.6867 190.989 40.88 190.989 39.88C190.989 38.96 191.089 38.1533 191.289 37.46C191.555 36.6067 192.049 35.9267 192.769 35.42C193.502 34.9133 194.369 34.66 195.369 34.66C196.369 34.66 197.242 34.9133 197.989 35.42C198.735 35.9267 199.222 36.5667 199.449 37.34C199.529 37.5533 199.582 37.7733 199.609 38C199.609 38.1067 199.549 38.1733 199.429 38.2L197.929 38.42H197.889C197.795 38.42 197.729 38.36 197.689 38.24L197.629 37.92C197.522 37.4667 197.262 37.0867 196.849 36.78C196.435 36.4733 195.935 36.32 195.349 36.32C194.775 36.32 194.289 36.4733 193.889 36.78C193.489 37.0867 193.229 37.4933 193.109 38C192.989 38.48 192.929 39.1133 192.929 39.9C192.929 40.6733 192.989 41.3 193.109 41.78C193.242 42.3133 193.502 42.7333 193.889 43.04C194.289 43.3467 194.775 43.5 195.349 43.5C195.935 43.5 196.435 43.3467 196.849 43.04C197.275 42.7333 197.542 42.3333 197.649 41.84C197.662 41.8267 197.662 41.8133 197.649 41.8C197.649 41.7733 197.655 41.7533 197.669 41.74V41.66C197.709 41.5533 197.782 41.5133 197.889 41.54L199.389 41.78C199.495 41.8067 199.549 41.86 199.549 41.94V42.02C199.549 42.14 199.515 42.2867 199.449 42.46C199.222 43.2733 198.735 43.9267 197.989 44.42C197.242 44.9133 196.369 45.16 195.369 45.16ZM206.836 36.2C206.836 36.3333 206.769 36.4 206.636 36.4H204.476C204.423 36.4 204.396 36.4267 204.396 36.48V41.78C204.396 42.34 204.523 42.7467 204.776 43C205.029 43.24 205.423 43.36 205.956 43.36H206.536C206.669 43.36 206.736 43.4267 206.736 43.56V44.8C206.736 44.9333 206.669 45 206.536 45C206.109 45.0267 205.803 45.04 205.616 45.04C204.603 45.04 203.836 44.86 203.316 44.5C202.809 44.1267 202.556 43.4467 202.556 42.46V36.48C202.556 36.4267 202.529 36.4 202.476 36.4H201.256C201.123 36.4 201.056 36.3333 201.056 36.2V35.02C201.056 34.8867 201.123 34.82 201.256 34.82H202.476C202.529 34.82 202.556 34.7933 202.556 34.74V32.38C202.556 32.2467 202.623 32.18 202.756 32.18H204.196C204.329 32.18 204.396 32.2467 204.396 32.38V34.74C204.396 34.7933 204.423 34.82 204.476 34.82H206.636C206.769 34.82 206.836 34.8867 206.836 35.02V36.2ZM210.359 33.22C209.985 33.22 209.679 33.1 209.439 32.86C209.199 32.62 209.079 32.3133 209.079 31.94C209.079 31.5667 209.199 31.26 209.439 31.02C209.679 30.78 209.985 30.66 210.359 30.66C210.732 30.66 211.039 30.78 211.279 31.02C211.519 31.26 211.639 31.5667 211.639 31.94C211.639 32.3133 211.519 32.62 211.279 32.86C211.039 33.1 210.732 33.22 210.359 33.22ZM209.559 44.98C209.425 44.98 209.359 44.9133 209.359 44.78V35.02C209.359 34.8867 209.425 34.82 209.559 34.82H211.079C211.212 34.82 211.279 34.8867 211.279 35.02V44.78C211.279 44.9133 211.212 44.98 211.079 44.98H209.559ZM218.456 45.16C217.47 45.16 216.61 44.9133 215.876 44.42C215.143 43.9133 214.63 43.2133 214.336 42.32C214.096 41.6 213.976 40.7867 213.976 39.88C213.976 38.9333 214.09 38.1333 214.316 37.48C214.61 36.6 215.123 35.9133 215.856 35.42C216.59 34.9133 217.463 34.66 218.476 34.66C219.436 34.66 220.27 34.9133 220.976 35.42C221.696 35.9133 222.21 36.5933 222.516 37.46C222.756 38.14 222.876 38.94 222.876 39.86C222.876 40.7933 222.756 41.6133 222.516 42.32C222.223 43.2133 221.716 43.9133 220.996 44.42C220.276 44.9133 219.43 45.16 218.456 45.16ZM218.456 43.5C218.99 43.5 219.456 43.3533 219.856 43.06C220.256 42.7533 220.543 42.3267 220.716 41.78C220.863 41.2733 220.936 40.6467 220.936 39.9C220.936 39.1533 220.87 38.5333 220.736 38.04C220.563 37.4933 220.276 37.0733 219.876 36.78C219.476 36.4733 218.99 36.32 218.416 36.32C217.87 36.32 217.396 36.4733 216.996 36.78C216.596 37.0733 216.31 37.4933 216.136 38.04C215.99 38.5067 215.916 39.1267 215.916 39.9C215.916 40.6733 215.99 41.3 216.136 41.78C216.296 42.3267 216.576 42.7533 216.976 43.06C217.39 43.3533 217.883 43.5 218.456 43.5ZM229.93 34.68C231.024 34.68 231.89 35 232.53 35.64C233.17 36.2667 233.49 37.12 233.49 38.2V44.8C233.49 44.9333 233.424 45 233.29 45H231.77C231.637 45 231.57 44.9333 231.57 44.8V38.58C231.57 37.9133 231.377 37.3733 230.99 36.96C230.604 36.5467 230.09 36.34 229.45 36.34C228.824 36.34 228.31 36.5467 227.91 36.96C227.51 37.3733 227.31 37.9067 227.31 38.56V44.8C227.31 44.9333 227.244 45 227.11 45H225.59C225.457 45 225.39 44.9333 225.39 44.8V35.02C225.39 34.8867 225.457 34.82 225.59 34.82H227.11C227.244 34.82 227.31 34.8867 227.31 35.02V35.74C227.31 35.7667 227.317 35.7867 227.33 35.8C227.357 35.8133 227.377 35.8067 227.39 35.78C227.964 35.0467 228.81 34.68 229.93 34.68ZM240.434 45C240.301 45 240.234 44.9333 240.234 44.8V31.2C240.234 31.0667 240.301 31 240.434 31H241.954C242.087 31 242.154 31.0667 242.154 31.2V44.8C242.154 44.9333 242.087 45 241.954 45H240.434ZM248.661 34.66C249.474 34.66 250.181 34.8067 250.781 35.1C251.394 35.38 251.861 35.78 252.181 36.3C252.514 36.8067 252.681 37.3867 252.681 38.04V44.8C252.681 44.9333 252.614 45 252.481 45H250.961C250.828 45 250.761 44.9333 250.761 44.8V44.08C250.761 44.0133 250.728 44 250.661 44.04C250.314 44.4 249.888 44.68 249.381 44.88C248.888 45.0667 248.334 45.16 247.721 45.16C246.734 45.16 245.914 44.9133 245.261 44.42C244.621 43.9133 244.301 43.1533 244.301 42.14C244.301 41.1 244.661 40.2867 245.381 39.7C246.114 39.1 247.134 38.8 248.441 38.8H250.681C250.734 38.8 250.761 38.7733 250.761 38.72V38.18C250.761 37.5933 250.588 37.14 250.241 36.82C249.908 36.4867 249.394 36.32 248.701 36.32C248.141 36.32 247.681 36.4333 247.321 36.66C246.974 36.8733 246.761 37.1667 246.681 37.54C246.641 37.6733 246.561 37.7333 246.441 37.72L244.821 37.5C244.688 37.4733 244.628 37.42 244.641 37.34C244.748 36.5533 245.168 35.9133 245.901 35.42C246.634 34.9133 247.554 34.66 248.661 34.66ZM248.141 43.54C248.848 43.54 249.461 43.3533 249.981 42.98C250.501 42.6067 250.761 42.1333 250.761 41.56V40.38C250.761 40.3267 250.734 40.3 250.681 40.3H248.801C248.014 40.3 247.388 40.4533 246.921 40.76C246.454 41.0667 246.221 41.4933 246.221 42.04C246.221 42.5333 246.394 42.9067 246.741 43.16C247.101 43.4133 247.568 43.54 248.141 43.54ZM261.333 35.02C261.333 34.8867 261.4 34.82 261.533 34.82H263.033C263.166 34.82 263.233 34.8867 263.233 35.02V44.8C263.233 44.9333 263.166 45 263.033 45H261.533C261.4 45 261.333 44.9333 261.333 44.8V44.06C261.333 44.0333 261.32 44.02 261.293 44.02C261.28 44.0067 261.26 44.0133 261.233 44.04C260.7 44.7733 259.88 45.14 258.773 45.14C258.12 45.14 257.513 45.0133 256.953 44.76C256.406 44.5067 255.966 44.1333 255.633 43.64C255.3 43.1467 255.133 42.5467 255.133 41.84V35.02C255.133 34.8867 255.2 34.82 255.333 34.82H256.833C256.966 34.82 257.033 34.8867 257.033 35.02V41.24C257.033 41.9333 257.213 42.48 257.573 42.88C257.946 43.28 258.466 43.48 259.133 43.48C259.8 43.48 260.333 43.28 260.733 42.88C261.133 42.4667 261.333 41.92 261.333 41.24V35.02ZM270.575 34.68C271.668 34.68 272.535 35 273.175 35.64C273.815 36.2667 274.135 37.12 274.135 38.2V44.8C274.135 44.9333 274.068 45 273.935 45H272.415C272.281 45 272.215 44.9333 272.215 44.8V38.58C272.215 37.9133 272.021 37.3733 271.635 36.96C271.248 36.5467 270.735 36.34 270.095 36.34C269.468 36.34 268.955 36.5467 268.555 36.96C268.155 37.3733 267.955 37.9067 267.955 38.56V44.8C267.955 44.9333 267.888 45 267.755 45H266.235C266.101 45 266.035 44.9333 266.035 44.8V35.02C266.035 34.8867 266.101 34.82 266.235 34.82H267.755C267.888 34.82 267.955 34.8867 267.955 35.02V35.74C267.955 35.7667 267.961 35.7867 267.975 35.8C268.001 35.8133 268.021 35.8067 268.035 35.78C268.608 35.0467 269.455 34.68 270.575 34.68ZM280.837 45.16C279.824 45.16 278.957 44.9067 278.237 44.4C277.517 43.88 277.024 43.18 276.757 42.3C276.557 41.6867 276.457 40.88 276.457 39.88C276.457 38.96 276.557 38.1533 276.757 37.46C277.024 36.6067 277.517 35.9267 278.237 35.42C278.971 34.9133 279.837 34.66 280.837 34.66C281.837 34.66 282.711 34.9133 283.457 35.42C284.204 35.9267 284.691 36.5667 284.917 37.34C284.997 37.5533 285.051 37.7733 285.077 38C285.077 38.1067 285.017 38.1733 284.897 38.2L283.397 38.42H283.357C283.264 38.42 283.197 38.36 283.157 38.24L283.097 37.92C282.991 37.4667 282.731 37.0867 282.317 36.78C281.904 36.4733 281.404 36.32 280.817 36.32C280.244 36.32 279.757 36.4733 279.357 36.78C278.957 37.0867 278.697 37.4933 278.577 38C278.457 38.48 278.397 39.1133 278.397 39.9C278.397 40.6733 278.457 41.3 278.577 41.78C278.711 42.3133 278.971 42.7333 279.357 43.04C279.757 43.3467 280.244 43.5 280.817 43.5C281.404 43.5 281.904 43.3467 282.317 43.04C282.744 42.7333 283.011 42.3333 283.117 41.84C283.131 41.8267 283.131 41.8133 283.117 41.8C283.117 41.7733 283.124 41.7533 283.137 41.74V41.66C283.177 41.5533 283.251 41.5133 283.357 41.54L284.857 41.78C284.964 41.8067 285.017 41.86 285.017 41.94V42.02C285.017 42.14 284.984 42.2867 284.917 42.46C284.691 43.2733 284.204 43.9267 283.457 44.42C282.711 44.9133 281.837 45.16 280.837 45.16ZM291.825 34.68C292.918 34.68 293.785 35 294.425 35.64C295.065 36.2667 295.385 37.12 295.385 38.2V44.8C295.385 44.9333 295.318 45 295.185 45H293.665C293.531 45 293.465 44.9333 293.465 44.8V38.58C293.465 37.9133 293.271 37.3733 292.885 36.96C292.498 36.5467 291.985 36.34 291.345 36.34C290.718 36.34 290.205 36.5467 289.805 36.96C289.405 37.3733 289.205 37.9067 289.205 38.56V44.8C289.205 44.9333 289.138 45 289.005 45H287.485C287.351 45 287.285 44.9333 287.285 44.8V31.2C287.285 31.0667 287.351 31 287.485 31H289.005C289.138 31 289.205 31.0667 289.205 31.2V35.74C289.205 35.7667 289.211 35.7867 289.225 35.8C289.251 35.8133 289.271 35.8067 289.285 35.78C289.858 35.0467 290.705 34.68 291.825 34.68Z" fill="#3498DB"/>
<g filter="url(#filter0_ii_142_2965)">
<circle cx="169" cy="147" r="39" transform="rotate(90 169 147)" fill="#030092"/>
<circle cx="169" cy="147" r="39" transform="rotate(90 169 147)" fill="url(#paint2_radial_142_2965)"/>
</g>
<defs>
<filter id="filter0_ii_142_2965" x="130" y="108" width="86.375" height="91.4" filterUnits="userSpaceOnUse" color-interpolation-filters="sRGB">
<feFlood flood-opacity="0" result="BackgroundImageFix"/>
<feBlend mode="normal" in="SourceGraphic" in2="BackgroundImageFix" result="shape"/>
<feColorMatrix in="SourceAlpha" type="matrix" values="0 0 0 0 0 0 0 0 0 0 0 0 0 0 0 0 0 0 127 0" result="hardAlpha"/>
<feOffset dx="8.375" dy="13.4"/>
<feGaussianBlur stdDeviation="8.375"/>
<feComposite in2="hardAlpha" operator="arithmetic" k2="-1" k3="1"/>
<feColorMatrix type="matrix" values="0 0 0 0 0.0980392 0 0 0 0 0.435294 0 0 0 0 0.658824 0 0 0 1 0"/>
<feBlend mode="normal" in2="shape" result="effect1_innerShadow_142_2965"/>
<feColorMatrix in="SourceAlpha" type="matrix" values="0 0 0 0 0 0 0 0 0 0 0 0 0 0 0 0 0 0 127 0" result="hardAlpha"/>
<feOffset dy="1.675"/>
<feGaussianBlur stdDeviation="4.1875"/>
<feComposite in2="hardAlpha" operator="arithmetic" k2="-1" k3="1"/>
<feColorMatrix type="matrix" values="0 0 0 0 1 0 0 0 0 1 0 0 0 0 1 0 0 0 0.58 0"/>
<feBlend mode="normal" in2="effect1_innerShadow_142_2965" result="effect2_innerShadow_142_2965"/>
</filter>
<linearGradient id="paint0_linear_142_2965" x1="169" y1="89" x2="168.18" y2="1.00763" gradientUnits="userSpaceOnUse">
<stop stop-color="#149CF5" stop-opacity="0.16"/>
<stop offset="1" stop-color="#149CF5" stop-opacity="0"/>
</linearGradient>
<linearGradient id="paint1_linear_142_2965" x1="169" y1="88.9833" x2="169" y2="0.999999" gradientUnits="userSpaceOnUse">
<stop stop-color="#1970A9"/>
<stop offset="0.666667" stop-color="#3498DB" stop-opacity="0"/>
</linearGradient>
<radialGradient id="paint2_radial_142_2965" cx="0" cy="0" r="1" gradientUnits="userSpaceOnUse" gradientTransform="translate(184.912 132.336) rotate(110.973) scale(80.1931)">
<stop stop-color="#3244E8"/>
<stop offset="1" stop-color="#000210" stop-opacity="0"/>
</radialGradient>
</defs>
</svg>
