<svg width="338" height="235" viewBox="0 0 338 235" fill="none" xmlns="http://www.w3.org/2000/svg">
<path d="M170.5 146L171.203 145.289L170.5 144.593L169.797 145.289L170.5 146ZM186.666 162L185.962 162.711L186.255 163H186.666V162ZM154.334 162V163H154.745L155.038 162.711L154.334 162ZM1 162V161H0V162H1ZM1 234H0V235H1V234ZM337 234V235H338V234H337ZM337 162H338V161H337V162ZM169.797 146.711L185.962 162.711L187.369 161.289L171.203 145.289L169.797 146.711ZM155.038 162.711L171.203 146.711L169.797 145.289L153.631 161.289L155.038 162.711ZM1 163H154.334V161H1V163ZM2 234V162H0V234H2ZM337 233H1V235H337V233ZM336 162V234H338V162H336ZM186.666 163H337V161H186.666V163Z" fill="url(#paint0_linear_142_2873)"/>
<path fill-rule="evenodd" clip-rule="evenodd" d="M186.666 162L170.5 146L154.334 162H1V234H337V162H186.666Z" fill="url(#paint1_linear_142_2873)"/>
<path d="M52.6358 206.16C51.6091 206.16 50.7158 206 49.9558 205.68C49.2091 205.36 48.6291 204.907 48.2158 204.32C47.8158 203.733 47.6158 203.047 47.6158 202.26V201.68C47.6158 201.547 47.6824 201.48 47.8158 201.48H49.2758C49.4091 201.48 49.4758 201.547 49.4758 201.68V202.16C49.4758 202.84 49.7691 203.4 50.3558 203.84C50.9424 204.28 51.7491 204.5 52.7758 204.5C53.6958 204.5 54.3891 204.307 54.8558 203.92C55.3224 203.533 55.5558 203.027 55.5558 202.4C55.5558 201.987 55.4358 201.633 55.1958 201.34C54.9558 201.047 54.6024 200.78 54.1358 200.54C53.6824 200.287 53.0158 199.987 52.1358 199.64C51.1624 199.267 50.3891 198.927 49.8158 198.62C49.2558 198.313 48.7891 197.913 48.4158 197.42C48.0424 196.913 47.8558 196.28 47.8558 195.52C47.8558 194.373 48.2624 193.473 49.0758 192.82C49.9024 192.167 51.0158 191.84 52.4158 191.84C53.4024 191.84 54.2691 192.007 55.0158 192.34C55.7624 192.673 56.3358 193.14 56.7358 193.74C57.1491 194.34 57.3558 195.033 57.3558 195.82V196.22C57.3558 196.353 57.2891 196.42 57.1558 196.42H55.6558C55.5224 196.42 55.4558 196.353 55.4558 196.22V195.92C55.4558 195.227 55.1758 194.653 54.6158 194.2C54.0691 193.733 53.3091 193.5 52.3358 193.5C51.5091 193.5 50.8691 193.673 50.4158 194.02C49.9624 194.353 49.7358 194.84 49.7358 195.48C49.7358 195.92 49.8491 196.28 50.0758 196.56C50.3024 196.84 50.6358 197.093 51.0758 197.32C51.5291 197.533 52.2158 197.813 53.1358 198.16C54.0824 198.533 54.8491 198.88 55.4358 199.2C56.0224 199.507 56.5091 199.92 56.8958 200.44C57.2824 200.947 57.4758 201.58 57.4758 202.34C57.4758 203.513 57.0424 204.447 56.1758 205.14C55.3224 205.82 54.1424 206.16 52.6358 206.16ZM65.8936 196.02C65.8936 195.887 65.9603 195.82 66.0936 195.82H67.5936C67.7269 195.82 67.7936 195.887 67.7936 196.02V205.8C67.7936 205.933 67.7269 206 67.5936 206H66.0936C65.9603 206 65.8936 205.933 65.8936 205.8V205.06C65.8936 205.033 65.8803 205.02 65.8536 205.02C65.8403 205.007 65.8203 205.013 65.7936 205.04C65.2603 205.773 64.4403 206.14 63.3336 206.14C62.6803 206.14 62.0736 206.013 61.5136 205.76C60.9669 205.507 60.5269 205.133 60.1936 204.64C59.8603 204.147 59.6936 203.547 59.6936 202.84V196.02C59.6936 195.887 59.7603 195.82 59.8936 195.82H61.3936C61.5269 195.82 61.5936 195.887 61.5936 196.02V202.24C61.5936 202.933 61.7736 203.48 62.1336 203.88C62.5069 204.28 63.0269 204.48 63.6936 204.48C64.3603 204.48 64.8936 204.28 65.2936 203.88C65.6936 203.467 65.8936 202.92 65.8936 202.24V196.02ZM78.8553 198.38C79.1086 199.1 79.2353 199.953 79.2353 200.94C79.2353 201.873 79.1286 202.68 78.9153 203.36C78.6353 204.253 78.1753 204.947 77.5353 205.44C76.8953 205.92 76.0753 206.16 75.0753 206.16C74.622 206.16 74.1886 206.073 73.7753 205.9C73.3753 205.713 73.0286 205.453 72.7353 205.12C72.7086 205.093 72.682 205.087 72.6553 205.1C72.642 205.113 72.6353 205.133 72.6353 205.16V209.62C72.6353 209.753 72.5686 209.82 72.4353 209.82H70.9153C70.782 209.82 70.7153 209.753 70.7153 209.62V196.02C70.7153 195.887 70.782 195.82 70.9153 195.82H72.4353C72.5686 195.82 72.6353 195.887 72.6353 196.02V196.68C72.6353 196.707 72.642 196.727 72.6553 196.74C72.682 196.753 72.7086 196.747 72.7353 196.72C73.0286 196.387 73.3753 196.127 73.7753 195.94C74.1753 195.753 74.6086 195.66 75.0753 195.66C76.0353 195.66 76.8286 195.9 77.4553 196.38C78.0953 196.847 78.562 197.513 78.8553 198.38ZM76.6553 203.54C77.082 202.9 77.2953 202.02 77.2953 200.9C77.2953 199.873 77.1286 199.047 76.7953 198.42C76.4086 197.687 75.7753 197.32 74.8953 197.32C74.122 197.32 73.5353 197.68 73.1353 198.4C72.8153 198.973 72.6553 199.813 72.6553 200.92C72.6553 202.04 72.8286 202.893 73.1753 203.48C73.562 204.16 74.1286 204.5 74.8753 204.5C75.6753 204.5 76.2686 204.18 76.6553 203.54ZM90.0077 198.38C90.261 199.1 90.3877 199.953 90.3877 200.94C90.3877 201.873 90.281 202.68 90.0677 203.36C89.7877 204.253 89.3277 204.947 88.6877 205.44C88.0477 205.92 87.2277 206.16 86.2277 206.16C85.7743 206.16 85.341 206.073 84.9277 205.9C84.5277 205.713 84.181 205.453 83.8877 205.12C83.861 205.093 83.8343 205.087 83.8077 205.1C83.7943 205.113 83.7877 205.133 83.7877 205.16V209.62C83.7877 209.753 83.721 209.82 83.5877 209.82H82.0677C81.9343 209.82 81.8677 209.753 81.8677 209.62V196.02C81.8677 195.887 81.9343 195.82 82.0677 195.82H83.5877C83.721 195.82 83.7877 195.887 83.7877 196.02V196.68C83.7877 196.707 83.7943 196.727 83.8077 196.74C83.8343 196.753 83.861 196.747 83.8877 196.72C84.181 196.387 84.5277 196.127 84.9277 195.94C85.3277 195.753 85.761 195.66 86.2277 195.66C87.1877 195.66 87.981 195.9 88.6077 196.38C89.2477 196.847 89.7143 197.513 90.0077 198.38ZM87.8077 203.54C88.2343 202.9 88.4477 202.02 88.4477 200.9C88.4477 199.873 88.281 199.047 87.9477 198.42C87.561 197.687 86.9277 197.32 86.0477 197.32C85.2743 197.32 84.6877 197.68 84.2877 198.4C83.9677 198.973 83.8077 199.813 83.8077 200.92C83.8077 202.04 83.981 202.893 84.3277 203.48C84.7143 204.16 85.281 204.5 86.0277 204.5C86.8277 204.5 87.421 204.18 87.8077 203.54ZM96.9428 206.16C95.9561 206.16 95.0961 205.913 94.3628 205.42C93.6295 204.913 93.1161 204.213 92.8228 203.32C92.5828 202.6 92.4628 201.787 92.4628 200.88C92.4628 199.933 92.5761 199.133 92.8028 198.48C93.0961 197.6 93.6095 196.913 94.3428 196.42C95.0761 195.913 95.9495 195.66 96.9628 195.66C97.9228 195.66 98.7561 195.913 99.4628 196.42C100.183 196.913 100.696 197.593 101.003 198.46C101.243 199.14 101.363 199.94 101.363 200.86C101.363 201.793 101.243 202.613 101.003 203.32C100.709 204.213 100.203 204.913 99.4828 205.42C98.7628 205.913 97.9161 206.16 96.9428 206.16ZM96.9428 204.5C97.4761 204.5 97.9428 204.353 98.3428 204.06C98.7428 203.753 99.0295 203.327 99.2028 202.78C99.3495 202.273 99.4228 201.647 99.4228 200.9C99.4228 200.153 99.3561 199.533 99.2228 199.04C99.0495 198.493 98.7628 198.073 98.3628 197.78C97.9628 197.473 97.4761 197.32 96.9028 197.32C96.3561 197.32 95.8828 197.473 95.4828 197.78C95.0828 198.073 94.7961 198.493 94.6228 199.04C94.4761 199.507 94.4028 200.127 94.4028 200.9C94.4028 201.673 94.4761 202.3 94.6228 202.78C94.7828 203.327 95.0628 203.753 95.4628 204.06C95.8761 204.353 96.3695 204.5 96.9428 204.5ZM108.337 195.72C108.763 195.72 109.15 195.807 109.497 195.98C109.59 196.02 109.623 196.1 109.597 196.22L109.277 197.72C109.263 197.84 109.183 197.88 109.037 197.84C108.81 197.747 108.543 197.7 108.237 197.7L107.957 197.72C107.33 197.747 106.81 197.967 106.397 198.38C105.997 198.78 105.797 199.307 105.797 199.96V205.8C105.797 205.933 105.73 206 105.597 206H104.077C103.943 206 103.877 205.933 103.877 205.8V196.02C103.877 195.887 103.943 195.82 104.077 195.82H105.597C105.73 195.82 105.797 195.887 105.797 196.02V197.08C105.797 197.12 105.803 197.147 105.817 197.16C105.843 197.16 105.863 197.147 105.877 197.12C106.477 196.187 107.297 195.72 108.337 195.72ZM116.533 197.2C116.533 197.333 116.467 197.4 116.333 197.4H114.173C114.12 197.4 114.093 197.427 114.093 197.48V202.78C114.093 203.34 114.22 203.747 114.473 204C114.727 204.24 115.12 204.36 115.653 204.36H116.233C116.367 204.36 116.433 204.427 116.433 204.56V205.8C116.433 205.933 116.367 206 116.233 206C115.807 206.027 115.5 206.04 115.313 206.04C114.3 206.04 113.533 205.86 113.013 205.5C112.507 205.127 112.253 204.447 112.253 203.46V197.48C112.253 197.427 112.227 197.4 112.173 197.4H110.953C110.82 197.4 110.753 197.333 110.753 197.2V196.02C110.753 195.887 110.82 195.82 110.953 195.82H112.173C112.227 195.82 112.253 195.793 112.253 195.74V193.38C112.253 193.247 112.32 193.18 112.453 193.18H113.893C114.027 193.18 114.093 193.247 114.093 193.38V195.74C114.093 195.793 114.12 195.82 114.173 195.82H116.333C116.467 195.82 116.533 195.887 116.533 196.02V197.2ZM126.98 206.16C125.967 206.16 125.1 205.907 124.38 205.4C123.66 204.88 123.167 204.18 122.9 203.3C122.7 202.687 122.6 201.88 122.6 200.88C122.6 199.96 122.7 199.153 122.9 198.46C123.167 197.607 123.66 196.927 124.38 196.42C125.113 195.913 125.98 195.66 126.98 195.66C127.98 195.66 128.853 195.913 129.6 196.42C130.347 196.927 130.833 197.567 131.06 198.34C131.14 198.553 131.193 198.773 131.22 199C131.22 199.107 131.16 199.173 131.04 199.2L129.54 199.42H129.5C129.407 199.42 129.34 199.36 129.3 199.24L129.24 198.92C129.133 198.467 128.873 198.087 128.46 197.78C128.047 197.473 127.547 197.32 126.96 197.32C126.387 197.32 125.9 197.473 125.5 197.78C125.1 198.087 124.84 198.493 124.72 199C124.6 199.48 124.54 200.113 124.54 200.9C124.54 201.673 124.6 202.3 124.72 202.78C124.853 203.313 125.113 203.733 125.5 204.04C125.9 204.347 126.387 204.5 126.96 204.5C127.547 204.5 128.047 204.347 128.46 204.04C128.887 203.733 129.153 203.333 129.26 202.84C129.273 202.827 129.273 202.813 129.26 202.8C129.26 202.773 129.267 202.753 129.28 202.74V202.66C129.32 202.553 129.393 202.513 129.5 202.54L131 202.78C131.107 202.807 131.16 202.86 131.16 202.94V203.02C131.16 203.14 131.127 203.287 131.06 203.46C130.833 204.273 130.347 204.927 129.6 205.42C128.853 205.913 127.98 206.16 126.98 206.16ZM137.967 195.68C139.061 195.68 139.927 196 140.567 196.64C141.207 197.267 141.527 198.12 141.527 199.2V205.8C141.527 205.933 141.461 206 141.327 206H139.807C139.674 206 139.607 205.933 139.607 205.8V199.58C139.607 198.913 139.414 198.373 139.027 197.96C138.641 197.547 138.127 197.34 137.487 197.34C136.861 197.34 136.347 197.547 135.947 197.96C135.547 198.373 135.347 198.907 135.347 199.56V205.8C135.347 205.933 135.281 206 135.147 206H133.627C133.494 206 133.427 205.933 133.427 205.8V192.2C133.427 192.067 133.494 192 133.627 192H135.147C135.281 192 135.347 192.067 135.347 192.2V196.74C135.347 196.767 135.354 196.787 135.367 196.8C135.394 196.813 135.414 196.807 135.427 196.78C136.001 196.047 136.847 195.68 137.967 195.68ZM145.427 194.22C145.054 194.22 144.747 194.1 144.507 193.86C144.267 193.62 144.147 193.313 144.147 192.94C144.147 192.567 144.267 192.26 144.507 192.02C144.747 191.78 145.054 191.66 145.427 191.66C145.801 191.66 146.107 191.78 146.347 192.02C146.587 192.26 146.707 192.567 146.707 192.94C146.707 193.313 146.587 193.62 146.347 193.86C146.107 194.1 145.801 194.22 145.427 194.22ZM144.627 205.98C144.494 205.98 144.427 205.913 144.427 205.78V196.02C144.427 195.887 144.494 195.82 144.627 195.82H146.147C146.281 195.82 146.347 195.887 146.347 196.02V205.78C146.347 205.913 146.281 205.98 146.147 205.98H144.627ZM149.565 206C149.432 206 149.365 205.933 149.365 205.8V192.2C149.365 192.067 149.432 192 149.565 192H151.085C151.218 192 151.285 192.067 151.285 192.2V205.8C151.285 205.933 151.218 206 151.085 206H149.565ZM160.392 192.2C160.392 192.067 160.459 192 160.592 192H162.112C162.245 192 162.312 192.067 162.312 192.2V205.8C162.312 205.933 162.245 206 162.112 206H160.592C160.459 206 160.392 205.933 160.392 205.8V205.14C160.392 205.113 160.379 205.093 160.352 205.08C160.339 205.067 160.319 205.073 160.292 205.1C159.999 205.433 159.652 205.693 159.252 205.88C158.852 206.067 158.419 206.16 157.952 206.16C156.992 206.16 156.192 205.927 155.552 205.46C154.925 204.98 154.465 204.307 154.172 203.44C153.919 202.733 153.792 201.88 153.792 200.88C153.792 199.947 153.899 199.14 154.112 198.46C154.392 197.58 154.852 196.893 155.492 196.4C156.132 195.907 156.952 195.66 157.952 195.66C158.405 195.66 158.832 195.753 159.232 195.94C159.645 196.113 159.999 196.367 160.292 196.7C160.319 196.727 160.339 196.733 160.352 196.72C160.379 196.707 160.392 196.687 160.392 196.66V192.2ZM159.892 203.42C160.199 202.86 160.352 202.02 160.352 200.9C160.352 199.78 160.185 198.927 159.852 198.34C159.465 197.66 158.899 197.32 158.152 197.32C157.352 197.32 156.759 197.64 156.372 198.28C155.945 198.947 155.732 199.827 155.732 200.92C155.732 201.947 155.899 202.773 156.232 203.4C156.619 204.133 157.252 204.5 158.132 204.5C158.905 204.5 159.492 204.14 159.892 203.42ZM169.587 195.72C170.013 195.72 170.4 195.807 170.747 195.98C170.84 196.02 170.873 196.1 170.847 196.22L170.527 197.72C170.513 197.84 170.433 197.88 170.287 197.84C170.06 197.747 169.793 197.7 169.487 197.7L169.207 197.72C168.58 197.747 168.06 197.967 167.647 198.38C167.247 198.78 167.047 199.307 167.047 199.96V205.8C167.047 205.933 166.98 206 166.847 206H165.327C165.193 206 165.127 205.933 165.127 205.8V196.02C165.127 195.887 165.193 195.82 165.327 195.82H166.847C166.98 195.82 167.047 195.887 167.047 196.02V197.08C167.047 197.12 167.053 197.147 167.067 197.16C167.093 197.16 167.113 197.147 167.127 197.12C167.727 196.187 168.547 195.72 169.587 195.72ZM180.632 199.64C180.686 200.187 180.706 200.8 180.692 201.48C180.692 201.613 180.626 201.68 180.492 201.68H174.112C174.059 201.68 174.032 201.707 174.032 201.76C174.032 202.213 174.072 202.56 174.152 202.8C174.299 203.333 174.592 203.753 175.032 204.06C175.486 204.353 176.052 204.5 176.732 204.5C177.719 204.5 178.479 204.093 179.012 203.28C179.079 203.147 179.166 203.127 179.272 203.22L180.412 203.98C180.506 204.06 180.526 204.147 180.472 204.24C180.099 204.84 179.566 205.313 178.872 205.66C178.192 206.007 177.419 206.18 176.552 206.18C175.579 206.18 174.759 205.967 174.092 205.54C173.426 205.113 172.926 204.507 172.592 203.72C172.272 202.933 172.112 201.98 172.112 200.86C172.112 199.887 172.186 199.147 172.332 198.64C172.572 197.72 173.052 196.993 173.772 196.46C174.492 195.927 175.366 195.66 176.392 195.66C177.739 195.66 178.746 196 179.412 196.68C180.079 197.347 180.486 198.333 180.632 199.64ZM176.392 197.32C175.819 197.32 175.346 197.467 174.972 197.76C174.599 198.04 174.346 198.42 174.212 198.9C174.119 199.193 174.059 199.567 174.032 200.02C174.032 200.073 174.059 200.1 174.112 200.1H178.692C178.746 200.1 178.772 200.073 178.772 200.02C178.746 199.58 178.706 199.253 178.652 199.04C178.519 198.52 178.252 198.107 177.852 197.8C177.466 197.48 176.979 197.32 176.392 197.32ZM187.655 195.68C188.748 195.68 189.615 196 190.255 196.64C190.895 197.267 191.215 198.12 191.215 199.2V205.8C191.215 205.933 191.148 206 191.015 206H189.495C189.362 206 189.295 205.933 189.295 205.8V199.58C189.295 198.913 189.102 198.373 188.715 197.96C188.328 197.547 187.815 197.34 187.175 197.34C186.548 197.34 186.035 197.547 185.635 197.96C185.235 198.373 185.035 198.907 185.035 199.56V205.8C185.035 205.933 184.968 206 184.835 206H183.315C183.182 206 183.115 205.933 183.115 205.8V196.02C183.115 195.887 183.182 195.82 183.315 195.82H184.835C184.968 195.82 185.035 195.887 185.035 196.02V196.74C185.035 196.767 185.042 196.787 185.055 196.8C185.082 196.813 185.102 196.807 185.115 196.78C185.688 196.047 186.535 195.68 187.655 195.68ZM202.439 193.68C201.772 193.68 201.319 193.807 201.079 194.06C200.839 194.313 200.719 194.793 200.719 195.5V195.74C200.719 195.793 200.745 195.82 200.799 195.82H202.899C203.032 195.82 203.099 195.887 203.099 196.02V197.38C203.099 197.513 203.032 197.58 202.899 197.58H200.799C200.745 197.58 200.719 197.607 200.719 197.66V205.8C200.719 205.933 200.652 206 200.519 206H198.999C198.865 206 198.799 205.933 198.799 205.8V197.66C198.799 197.607 198.772 197.58 198.719 197.58H197.379C197.245 197.58 197.179 197.513 197.179 197.38V196.02C197.179 195.887 197.245 195.82 197.379 195.82H198.719C198.772 195.82 198.799 195.793 198.799 195.74V195.38C198.799 194.5 198.899 193.82 199.099 193.34C199.312 192.86 199.665 192.52 200.159 192.32C200.652 192.107 201.345 192 202.239 192H202.919C203.052 192 203.119 192.067 203.119 192.2V193.48C203.119 193.613 203.052 193.68 202.919 193.68H202.439ZM208.642 206.16C207.655 206.16 206.795 205.913 206.062 205.42C205.329 204.913 204.815 204.213 204.522 203.32C204.282 202.6 204.162 201.787 204.162 200.88C204.162 199.933 204.275 199.133 204.502 198.48C204.795 197.6 205.309 196.913 206.042 196.42C206.775 195.913 207.649 195.66 208.662 195.66C209.622 195.66 210.455 195.913 211.162 196.42C211.882 196.913 212.395 197.593 212.702 198.46C212.942 199.14 213.062 199.94 213.062 200.86C213.062 201.793 212.942 202.613 212.702 203.32C212.409 204.213 211.902 204.913 211.182 205.42C210.462 205.913 209.615 206.16 208.642 206.16ZM208.642 204.5C209.175 204.5 209.642 204.353 210.042 204.06C210.442 203.753 210.729 203.327 210.902 202.78C211.049 202.273 211.122 201.647 211.122 200.9C211.122 200.153 211.055 199.533 210.922 199.04C210.749 198.493 210.462 198.073 210.062 197.78C209.662 197.473 209.175 197.32 208.602 197.32C208.055 197.32 207.582 197.473 207.182 197.78C206.782 198.073 206.495 198.493 206.322 199.04C206.175 199.507 206.102 200.127 206.102 200.9C206.102 201.673 206.175 202.3 206.322 202.78C206.482 203.327 206.762 203.753 207.162 204.06C207.575 204.353 208.069 204.5 208.642 204.5ZM221.636 196.02C221.636 195.887 221.702 195.82 221.836 195.82H223.336C223.469 195.82 223.536 195.887 223.536 196.02V205.8C223.536 205.933 223.469 206 223.336 206H221.836C221.702 206 221.636 205.933 221.636 205.8V205.06C221.636 205.033 221.622 205.02 221.596 205.02C221.582 205.007 221.562 205.013 221.536 205.04C221.002 205.773 220.182 206.14 219.076 206.14C218.422 206.14 217.816 206.013 217.256 205.76C216.709 205.507 216.269 205.133 215.936 204.64C215.602 204.147 215.436 203.547 215.436 202.84V196.02C215.436 195.887 215.502 195.82 215.636 195.82H217.136C217.269 195.82 217.336 195.887 217.336 196.02V202.24C217.336 202.933 217.516 203.48 217.876 203.88C218.249 204.28 218.769 204.48 219.436 204.48C220.102 204.48 220.636 204.28 221.036 203.88C221.436 203.467 221.636 202.92 221.636 202.24V196.02ZM230.878 195.68C231.971 195.68 232.838 196 233.478 196.64C234.118 197.267 234.438 198.12 234.438 199.2V205.8C234.438 205.933 234.371 206 234.238 206H232.718C232.584 206 232.518 205.933 232.518 205.8V199.58C232.518 198.913 232.324 198.373 231.938 197.96C231.551 197.547 231.038 197.34 230.398 197.34C229.771 197.34 229.258 197.547 228.858 197.96C228.458 198.373 228.258 198.907 228.258 199.56V205.8C228.258 205.933 228.191 206 228.058 206H226.538C226.404 206 226.338 205.933 226.338 205.8V196.02C226.338 195.887 226.404 195.82 226.538 195.82H228.058C228.191 195.82 228.258 195.887 228.258 196.02V196.74C228.258 196.767 228.264 196.787 228.278 196.8C228.304 196.813 228.324 196.807 228.338 196.78C228.911 196.047 229.758 195.68 230.878 195.68ZM243.38 192.2C243.38 192.067 243.447 192 243.58 192H245.1C245.233 192 245.3 192.067 245.3 192.2V205.8C245.3 205.933 245.233 206 245.1 206H243.58C243.447 206 243.38 205.933 243.38 205.8V205.14C243.38 205.113 243.367 205.093 243.34 205.08C243.327 205.067 243.307 205.073 243.28 205.1C242.987 205.433 242.64 205.693 242.24 205.88C241.84 206.067 241.407 206.16 240.94 206.16C239.98 206.16 239.18 205.927 238.54 205.46C237.913 204.98 237.453 204.307 237.16 203.44C236.907 202.733 236.78 201.88 236.78 200.88C236.78 199.947 236.887 199.14 237.1 198.46C237.38 197.58 237.84 196.893 238.48 196.4C239.12 195.907 239.94 195.66 240.94 195.66C241.393 195.66 241.82 195.753 242.22 195.94C242.633 196.113 242.987 196.367 243.28 196.7C243.307 196.727 243.327 196.733 243.34 196.72C243.367 196.707 243.38 196.687 243.38 196.66V192.2ZM242.88 203.42C243.187 202.86 243.34 202.02 243.34 200.9C243.34 199.78 243.173 198.927 242.84 198.34C242.453 197.66 241.887 197.32 241.14 197.32C240.34 197.32 239.747 197.64 239.36 198.28C238.933 198.947 238.72 199.827 238.72 200.92C238.72 201.947 238.887 202.773 239.22 203.4C239.607 204.133 240.24 204.5 241.12 204.5C241.893 204.5 242.48 204.14 242.88 203.42ZM251.835 195.66C252.648 195.66 253.355 195.807 253.955 196.1C254.568 196.38 255.035 196.78 255.355 197.3C255.688 197.807 255.855 198.387 255.855 199.04V205.8C255.855 205.933 255.788 206 255.655 206H254.135C254.002 206 253.935 205.933 253.935 205.8V205.08C253.935 205.013 253.902 205 253.835 205.04C253.488 205.4 253.062 205.68 252.555 205.88C252.062 206.067 251.508 206.16 250.895 206.16C249.908 206.16 249.088 205.913 248.435 205.42C247.795 204.913 247.475 204.153 247.475 203.14C247.475 202.1 247.835 201.287 248.555 200.7C249.288 200.1 250.308 199.8 251.615 199.8H253.855C253.908 199.8 253.935 199.773 253.935 199.72V199.18C253.935 198.593 253.762 198.14 253.415 197.82C253.082 197.487 252.568 197.32 251.875 197.32C251.315 197.32 250.855 197.433 250.495 197.66C250.148 197.873 249.935 198.167 249.855 198.54C249.815 198.673 249.735 198.733 249.615 198.72L247.995 198.5C247.862 198.473 247.802 198.42 247.815 198.34C247.922 197.553 248.342 196.913 249.075 196.42C249.808 195.913 250.728 195.66 251.835 195.66ZM251.315 204.54C252.022 204.54 252.635 204.353 253.155 203.98C253.675 203.607 253.935 203.133 253.935 202.56V201.38C253.935 201.327 253.908 201.3 253.855 201.3H251.975C251.188 201.3 250.562 201.453 250.095 201.76C249.628 202.067 249.395 202.493 249.395 203.04C249.395 203.533 249.568 203.907 249.915 204.16C250.275 204.413 250.742 204.54 251.315 204.54ZM263.33 197.2C263.33 197.333 263.263 197.4 263.13 197.4H260.97C260.917 197.4 260.89 197.427 260.89 197.48V202.78C260.89 203.34 261.017 203.747 261.27 204C261.523 204.24 261.917 204.36 262.45 204.36H263.03C263.163 204.36 263.23 204.427 263.23 204.56V205.8C263.23 205.933 263.163 206 263.03 206C262.603 206.027 262.297 206.04 262.11 206.04C261.097 206.04 260.33 205.86 259.81 205.5C259.303 205.127 259.05 204.447 259.05 203.46V197.48C259.05 197.427 259.023 197.4 258.97 197.4H257.75C257.617 197.4 257.55 197.333 257.55 197.2V196.02C257.55 195.887 257.617 195.82 257.75 195.82H258.97C259.023 195.82 259.05 195.793 259.05 195.74V193.38C259.05 193.247 259.117 193.18 259.25 193.18H260.69C260.823 193.18 260.89 193.247 260.89 193.38V195.74C260.89 195.793 260.917 195.82 260.97 195.82H263.13C263.263 195.82 263.33 195.887 263.33 196.02V197.2ZM266.853 194.22C266.48 194.22 266.173 194.1 265.933 193.86C265.693 193.62 265.573 193.313 265.573 192.94C265.573 192.567 265.693 192.26 265.933 192.02C266.173 191.78 266.48 191.66 266.853 191.66C267.226 191.66 267.533 191.78 267.773 192.02C268.013 192.26 268.133 192.567 268.133 192.94C268.133 193.313 268.013 193.62 267.773 193.86C267.533 194.1 267.226 194.22 266.853 194.22ZM266.053 205.98C265.92 205.98 265.853 205.913 265.853 205.78V196.02C265.853 195.887 265.92 195.82 266.053 195.82H267.573C267.706 195.82 267.773 195.887 267.773 196.02V205.78C267.773 205.913 267.706 205.98 267.573 205.98H266.053ZM274.951 206.16C273.964 206.16 273.104 205.913 272.371 205.42C271.637 204.913 271.124 204.213 270.831 203.32C270.591 202.6 270.471 201.787 270.471 200.88C270.471 199.933 270.584 199.133 270.811 198.48C271.104 197.6 271.617 196.913 272.351 196.42C273.084 195.913 273.957 195.66 274.971 195.66C275.931 195.66 276.764 195.913 277.471 196.42C278.191 196.913 278.704 197.593 279.011 198.46C279.251 199.14 279.371 199.94 279.371 200.86C279.371 201.793 279.251 202.613 279.011 203.32C278.717 204.213 278.211 204.913 277.491 205.42C276.771 205.913 275.924 206.16 274.951 206.16ZM274.951 204.5C275.484 204.5 275.951 204.353 276.351 204.06C276.751 203.753 277.037 203.327 277.211 202.78C277.357 202.273 277.431 201.647 277.431 200.9C277.431 200.153 277.364 199.533 277.231 199.04C277.057 198.493 276.771 198.073 276.371 197.78C275.971 197.473 275.484 197.32 274.911 197.32C274.364 197.32 273.891 197.473 273.491 197.78C273.091 198.073 272.804 198.493 272.631 199.04C272.484 199.507 272.411 200.127 272.411 200.9C272.411 201.673 272.484 202.3 272.631 202.78C272.791 203.327 273.071 203.753 273.471 204.06C273.884 204.353 274.377 204.5 274.951 204.5ZM286.424 195.68C287.518 195.68 288.384 196 289.024 196.64C289.664 197.267 289.984 198.12 289.984 199.2V205.8C289.984 205.933 289.918 206 289.784 206H288.264C288.131 206 288.064 205.933 288.064 205.8V199.58C288.064 198.913 287.871 198.373 287.484 197.96C287.098 197.547 286.584 197.34 285.944 197.34C285.318 197.34 284.804 197.547 284.404 197.96C284.004 198.373 283.804 198.907 283.804 199.56V205.8C283.804 205.933 283.738 206 283.604 206H282.084C281.951 206 281.884 205.933 281.884 205.8V196.02C281.884 195.887 281.951 195.82 282.084 195.82H283.604C283.738 195.82 283.804 195.887 283.804 196.02V196.74C283.804 196.767 283.811 196.787 283.824 196.8C283.851 196.813 283.871 196.807 283.884 196.78C284.458 196.047 285.304 195.68 286.424 195.68Z" fill="#1ABC9C"/>
<g filter="url(#filter0_ii_142_2873)">
<circle cx="169" cy="82" r="43" transform="rotate(90 169 82)" fill="#07654E"/>
<circle cx="169" cy="82" r="43" transform="rotate(90 169 82)" fill="url(#paint2_radial_142_2873)"/>
</g>
<defs>
<filter id="filter0_ii_142_2873" x="126" y="39" width="94.375" height="99.4" filterUnits="userSpaceOnUse" color-interpolation-filters="sRGB">
<feFlood flood-opacity="0" result="BackgroundImageFix"/>
<feBlend mode="normal" in="SourceGraphic" in2="BackgroundImageFix" result="shape"/>
<feColorMatrix in="SourceAlpha" type="matrix" values="0 0 0 0 0 0 0 0 0 0 0 0 0 0 0 0 0 0 127 0" result="hardAlpha"/>
<feOffset dx="8.375" dy="13.4"/>
<feGaussianBlur stdDeviation="8.375"/>
<feComposite in2="hardAlpha" operator="arithmetic" k2="-1" k3="1"/>
<feColorMatrix type="matrix" values="0 0 0 0 0.035 0 0 0 0 0.525 0 0 0 0 0.4662 0 0 0 1 0"/>
<feBlend mode="normal" in2="shape" result="effect1_innerShadow_142_2873"/>
<feColorMatrix in="SourceAlpha" type="matrix" values="0 0 0 0 0 0 0 0 0 0 0 0 0 0 0 0 0 0 127 0" result="hardAlpha"/>
<feOffset dy="1.675"/>
<feGaussianBlur stdDeviation="4.1875"/>
<feComposite in2="hardAlpha" operator="arithmetic" k2="-1" k3="1"/>
<feColorMatrix type="matrix" values="0 0 0 0 1 0 0 0 0 1 0 0 0 0 1 0 0 0 0.58 0"/>
<feBlend mode="normal" in2="effect1_innerShadow_142_2873" result="effect2_innerShadow_142_2873"/>
</filter>
<linearGradient id="paint0_linear_142_2873" x1="169" y1="133.877" x2="169" y2="234" gradientUnits="userSpaceOnUse">
<stop stop-color="#16A085"/>
<stop offset="0.770833" stop-color="#1ABC9C" stop-opacity="0"/>
</linearGradient>
<linearGradient id="paint1_linear_142_2873" x1="169" y1="146.661" x2="169" y2="234" gradientUnits="userSpaceOnUse">
<stop stop-color="#A4E05E" stop-opacity="0.16"/>
<stop offset="1" stop-color="#A4E05E" stop-opacity="0"/>
</linearGradient>
<radialGradient id="paint2_radial_142_2873" cx="0" cy="0" r="1" gradientUnits="userSpaceOnUse" gradientTransform="translate(186.544 65.832) rotate(110.973) scale(88.418)">
<stop stop-color="#0DD78E"/>
<stop offset="1" stop-color="#000210" stop-opacity="0"/>
</radialGradient>
</defs>
</svg>
