<svg width="338" height="235" viewBox="0 0 338 235" fill="none" xmlns="http://www.w3.org/2000/svg">
<path fill-rule="evenodd" clip-rule="evenodd" d="M153.334 73L169.5 89L185.666 73L337 73L337 1L1.00001 0.999971L1 73L153.334 73Z" fill="url(#paint0_linear_142_2955)"/>
<path d="M169.5 89L168.797 89.7107L169.5 90.407L170.203 89.7107L169.5 89ZM153.334 73L154.038 72.2892L153.745 72L153.334 72L153.334 73ZM185.666 73L185.666 72L185.255 72L184.962 72.2892L185.666 73ZM337 73L337 74L338 74L338 73L337 73ZM337 1L338 1L338 8.74228e-08L337 0L337 1ZM1.00001 0.999971L1.00001 -2.93741e-05L7.78063e-06 -2.94615e-05L7.6932e-06 0.999971L1.00001 0.999971ZM1 73L1.39876e-06 73L1.31134e-06 74L1 74L1 73ZM170.203 88.2892L154.038 72.2892L152.631 73.7107L168.797 89.7107L170.203 88.2892ZM184.962 72.2892L168.797 88.2892L170.203 89.7107L186.369 73.7107L184.962 72.2892ZM337 72L185.666 72L185.666 74L337 74L337 72ZM336 1L336 73L338 73L338 1L336 1ZM1.00001 1.99997L337 2L337 0L1.00001 -2.93741e-05L1.00001 1.99997ZM2 73L2.00001 0.999971L7.6932e-06 0.999971L1.39876e-06 73L2 73ZM153.334 72L1 72L1 74L153.334 74L153.334 72Z" fill="url(#paint1_linear_142_2955)"/>
<path d="M109.014 45C108.88 45 108.814 44.9333 108.814 44.8V31.2C108.814 31.0667 108.88 31 109.014 31H110.534C110.667 31 110.734 31.0667 110.734 31.2V44.8C110.734 44.9333 110.667 45 110.534 45H109.014ZM118.309 34.68C119.402 34.68 120.269 35 120.909 35.64C121.549 36.2667 121.869 37.12 121.869 38.2V44.8C121.869 44.9333 121.802 45 121.669 45H120.149C120.016 45 119.949 44.9333 119.949 44.8V38.58C119.949 37.9133 119.756 37.3733 119.369 36.96C118.982 36.5467 118.469 36.34 117.829 36.34C117.202 36.34 116.689 36.5467 116.289 36.96C115.889 37.3733 115.689 37.9067 115.689 38.56V44.8C115.689 44.9333 115.622 45 115.489 45H113.969C113.836 45 113.769 44.9333 113.769 44.8V35.02C113.769 34.8867 113.836 34.82 113.969 34.82H115.489C115.622 34.82 115.689 34.8867 115.689 35.02V35.74C115.689 35.7667 115.696 35.7867 115.709 35.8C115.736 35.8133 115.756 35.8067 115.769 35.78C116.342 35.0467 117.189 34.68 118.309 34.68ZM125.769 33.22C125.396 33.22 125.089 33.1 124.849 32.86C124.609 32.62 124.489 32.3133 124.489 31.94C124.489 31.5667 124.609 31.26 124.849 31.02C125.089 30.78 125.396 30.66 125.769 30.66C126.142 30.66 126.449 30.78 126.689 31.02C126.929 31.26 127.049 31.5667 127.049 31.94C127.049 32.3133 126.929 32.62 126.689 32.86C126.449 33.1 126.142 33.22 125.769 33.22ZM124.969 44.98C124.836 44.98 124.769 44.9133 124.769 44.78V35.02C124.769 34.8867 124.836 34.82 124.969 34.82H126.489C126.622 34.82 126.689 34.8867 126.689 35.02V44.78C126.689 44.9133 126.622 44.98 126.489 44.98H124.969ZM134.727 36.2C134.727 36.3333 134.66 36.4 134.527 36.4H132.367C132.313 36.4 132.287 36.4267 132.287 36.48V41.78C132.287 42.34 132.413 42.7467 132.667 43C132.92 43.24 133.313 43.36 133.847 43.36H134.427C134.56 43.36 134.627 43.4267 134.627 43.56V44.8C134.627 44.9333 134.56 45 134.427 45C134 45.0267 133.693 45.04 133.507 45.04C132.493 45.04 131.727 44.86 131.207 44.5C130.7 44.1267 130.447 43.4467 130.447 42.46V36.48C130.447 36.4267 130.42 36.4 130.367 36.4H129.147C129.013 36.4 128.947 36.3333 128.947 36.2V35.02C128.947 34.8867 129.013 34.82 129.147 34.82H130.367C130.42 34.82 130.447 34.7933 130.447 34.74V32.38C130.447 32.2467 130.513 32.18 130.647 32.18H132.087C132.22 32.18 132.287 32.2467 132.287 32.38V34.74C132.287 34.7933 132.313 34.82 132.367 34.82H134.527C134.66 34.82 134.727 34.8867 134.727 35.02V36.2ZM138.249 33.22C137.876 33.22 137.569 33.1 137.329 32.86C137.089 32.62 136.969 32.3133 136.969 31.94C136.969 31.5667 137.089 31.26 137.329 31.02C137.569 30.78 137.876 30.66 138.249 30.66C138.623 30.66 138.929 30.78 139.169 31.02C139.409 31.26 139.529 31.5667 139.529 31.94C139.529 32.3133 139.409 32.62 139.169 32.86C138.929 33.1 138.623 33.22 138.249 33.22ZM137.449 44.98C137.316 44.98 137.249 44.9133 137.249 44.78V35.02C137.249 34.8867 137.316 34.82 137.449 34.82H138.969C139.103 34.82 139.169 34.8867 139.169 35.02V44.78C139.169 44.9133 139.103 44.98 138.969 44.98H137.449ZM145.907 34.66C146.72 34.66 147.427 34.8067 148.027 35.1C148.64 35.38 149.107 35.78 149.427 36.3C149.76 36.8067 149.927 37.3867 149.927 38.04V44.8C149.927 44.9333 149.86 45 149.727 45H148.207C148.074 45 148.007 44.9333 148.007 44.8V44.08C148.007 44.0133 147.974 44 147.907 44.04C147.56 44.4 147.134 44.68 146.627 44.88C146.134 45.0667 145.58 45.16 144.967 45.16C143.98 45.16 143.16 44.9133 142.507 44.42C141.867 43.9133 141.547 43.1533 141.547 42.14C141.547 41.1 141.907 40.2867 142.627 39.7C143.36 39.1 144.38 38.8 145.687 38.8H147.927C147.98 38.8 148.007 38.7733 148.007 38.72V38.18C148.007 37.5933 147.834 37.14 147.487 36.82C147.154 36.4867 146.64 36.32 145.947 36.32C145.387 36.32 144.927 36.4333 144.567 36.66C144.22 36.8733 144.007 37.1667 143.927 37.54C143.887 37.6733 143.807 37.7333 143.687 37.72L142.067 37.5C141.934 37.4733 141.874 37.42 141.887 37.34C141.994 36.5533 142.414 35.9133 143.147 35.42C143.88 34.9133 144.8 34.66 145.907 34.66ZM145.387 43.54C146.094 43.54 146.707 43.3533 147.227 42.98C147.747 42.6067 148.007 42.1333 148.007 41.56V40.38C148.007 40.3267 147.98 40.3 147.927 40.3H146.047C145.26 40.3 144.634 40.4533 144.167 40.76C143.7 41.0667 143.467 41.4933 143.467 42.04C143.467 42.5333 143.64 42.9067 143.987 43.16C144.347 43.4133 144.814 43.54 145.387 43.54ZM152.719 45C152.586 45 152.519 44.9333 152.519 44.8V31.2C152.519 31.0667 152.586 31 152.719 31H154.239C154.372 31 154.439 31.0667 154.439 31.2V44.8C154.439 44.9333 154.372 45 154.239 45H152.719ZM164.33 45C164.21 45 164.137 44.9467 164.11 44.84L160.35 31.22L160.33 31.16C160.33 31.0533 160.397 31 160.53 31H162.15C162.27 31 162.343 31.06 162.37 31.18L164.99 41.14C165.003 41.1667 165.017 41.18 165.03 41.18C165.057 41.18 165.077 41.1667 165.09 41.14L167.57 31.18C167.597 31.06 167.67 31 167.79 31H169.37C169.49 31 169.563 31.06 169.59 31.18L172.21 41.16C172.223 41.1867 172.237 41.2 172.25 41.2C172.263 41.2 172.277 41.1867 172.29 41.16L174.93 31.18C174.957 31.06 175.03 31 175.15 31H176.67C176.737 31 176.783 31.02 176.81 31.06C176.85 31.1 176.863 31.1533 176.85 31.22L173.23 44.82C173.203 44.94 173.13 45 173.01 45H171.47C171.35 45 171.277 44.94 171.25 44.82L168.63 34.5C168.617 34.46 168.603 34.44 168.59 34.44C168.577 34.44 168.563 34.46 168.55 34.5L166.01 44.82C165.997 44.94 165.923 45 165.79 45H164.33ZM185.974 38.64C186.027 39.1867 186.047 39.8 186.034 40.48C186.034 40.6133 185.967 40.68 185.834 40.68H179.454C179.401 40.68 179.374 40.7067 179.374 40.76C179.374 41.2133 179.414 41.56 179.494 41.8C179.641 42.3333 179.934 42.7533 180.374 43.06C180.827 43.3533 181.394 43.5 182.074 43.5C183.061 43.5 183.821 43.0933 184.354 42.28C184.421 42.1467 184.507 42.1267 184.614 42.22L185.754 42.98C185.847 43.06 185.867 43.1467 185.814 43.24C185.441 43.84 184.907 44.3133 184.214 44.66C183.534 45.0067 182.761 45.18 181.894 45.18C180.921 45.18 180.101 44.9667 179.434 44.54C178.767 44.1133 178.267 43.5067 177.934 42.72C177.614 41.9333 177.454 40.98 177.454 39.86C177.454 38.8867 177.527 38.1467 177.674 37.64C177.914 36.72 178.394 35.9933 179.114 35.46C179.834 34.9267 180.707 34.66 181.734 34.66C183.081 34.66 184.087 35 184.754 35.68C185.421 36.3467 185.827 37.3333 185.974 38.64ZM181.734 36.32C181.161 36.32 180.687 36.4667 180.314 36.76C179.941 37.04 179.687 37.42 179.554 37.9C179.461 38.1933 179.401 38.5667 179.374 39.02C179.374 39.0733 179.401 39.1 179.454 39.1H184.034C184.087 39.1 184.114 39.0733 184.114 39.02C184.087 38.58 184.047 38.2533 183.994 38.04C183.861 37.52 183.594 37.1067 183.194 36.8C182.807 36.48 182.321 36.32 181.734 36.32ZM196.677 37.46C196.89 38.14 196.997 38.9467 196.997 39.88C196.997 40.88 196.87 41.7333 196.617 42.44C196.323 43.3067 195.857 43.98 195.217 44.46C194.59 44.9267 193.797 45.16 192.837 45.16C192.37 45.16 191.937 45.0667 191.537 44.88C191.137 44.6933 190.79 44.4333 190.497 44.1C190.47 44.0733 190.443 44.0667 190.417 44.08C190.403 44.0933 190.397 44.1133 190.397 44.14V44.8C190.397 44.9333 190.33 45 190.197 45H188.677C188.543 45 188.477 44.9333 188.477 44.8V31.2C188.477 31.0667 188.543 31 188.677 31H190.197C190.33 31 190.397 31.0667 190.397 31.2V35.66C190.397 35.6867 190.403 35.7067 190.417 35.72C190.443 35.7333 190.47 35.7267 190.497 35.7C190.79 35.3667 191.137 35.1133 191.537 34.94C191.95 34.7533 192.383 34.66 192.837 34.66C193.837 34.66 194.657 34.9067 195.297 35.4C195.937 35.8933 196.397 36.58 196.677 37.46ZM194.557 42.4C194.89 41.7733 195.057 40.9467 195.057 39.92C195.057 38.8267 194.843 37.9467 194.417 37.28C194.03 36.64 193.437 36.32 192.637 36.32C191.89 36.32 191.323 36.66 190.937 37.34C190.59 37.9533 190.417 38.8067 190.417 39.9C190.417 40.9933 190.577 41.8333 190.897 42.42C191.297 43.14 191.883 43.5 192.657 43.5C193.537 43.5 194.17 43.1333 194.557 42.4ZM203.091 45.12C202.291 45.12 201.585 45 200.971 44.76C200.371 44.52 199.905 44.1933 199.571 43.78C199.238 43.3533 199.071 42.8867 199.071 42.38V42.16C199.071 42.0267 199.138 41.96 199.271 41.96H200.711C200.845 41.96 200.911 42.0267 200.911 42.16V42.26C200.911 42.6333 201.111 42.96 201.511 43.24C201.925 43.52 202.445 43.66 203.071 43.66C203.671 43.66 204.158 43.5333 204.531 43.28C204.905 43.0133 205.091 42.68 205.091 42.28C205.091 41.8933 204.918 41.6067 204.571 41.42C204.225 41.22 203.665 41.0133 202.891 40.8C202.131 40.5867 201.491 40.3733 200.971 40.16C200.465 39.9333 200.031 39.62 199.671 39.22C199.325 38.8067 199.151 38.28 199.151 37.64C199.151 36.7467 199.498 36.04 200.191 35.52C200.898 34.9867 201.831 34.72 202.991 34.72C203.765 34.72 204.445 34.8467 205.031 35.1C205.631 35.34 206.091 35.68 206.411 36.12C206.731 36.56 206.891 37.0533 206.891 37.6V37.66C206.891 37.7933 206.825 37.86 206.691 37.86H205.291C205.158 37.86 205.091 37.7933 205.091 37.66V37.6C205.091 37.2133 204.898 36.8933 204.511 36.64C204.138 36.3733 203.625 36.24 202.971 36.24C202.385 36.24 201.905 36.3533 201.531 36.58C201.171 36.8067 200.991 37.1133 200.991 37.5C200.991 37.8867 201.165 38.18 201.511 38.38C201.871 38.58 202.445 38.7933 203.231 39.02C204.005 39.2333 204.645 39.4467 205.151 39.66C205.671 39.86 206.111 40.1667 206.471 40.58C206.831 40.98 207.011 41.5067 207.011 42.16C207.011 43.0667 206.651 43.7867 205.931 44.32C205.225 44.8533 204.278 45.12 203.091 45.12ZM210.417 33.22C210.044 33.22 209.737 33.1 209.497 32.86C209.257 32.62 209.137 32.3133 209.137 31.94C209.137 31.5667 209.257 31.26 209.497 31.02C209.737 30.78 210.044 30.66 210.417 30.66C210.791 30.66 211.097 30.78 211.337 31.02C211.577 31.26 211.697 31.5667 211.697 31.94C211.697 32.3133 211.577 32.62 211.337 32.86C211.097 33.1 210.791 33.22 210.417 33.22ZM209.617 44.98C209.484 44.98 209.417 44.9133 209.417 44.78V35.02C209.417 34.8867 209.484 34.82 209.617 34.82H211.137C211.271 34.82 211.337 34.8867 211.337 35.02V44.78C211.337 44.9133 211.271 44.98 211.137 44.98H209.617ZM219.375 36.2C219.375 36.3333 219.308 36.4 219.175 36.4H217.015C216.962 36.4 216.935 36.4267 216.935 36.48V41.78C216.935 42.34 217.062 42.7467 217.315 43C217.568 43.24 217.962 43.36 218.495 43.36H219.075C219.208 43.36 219.275 43.4267 219.275 43.56V44.8C219.275 44.9333 219.208 45 219.075 45C218.648 45.0267 218.342 45.04 218.155 45.04C217.142 45.04 216.375 44.86 215.855 44.5C215.348 44.1267 215.095 43.4467 215.095 42.46V36.48C215.095 36.4267 215.068 36.4 215.015 36.4H213.795C213.662 36.4 213.595 36.3333 213.595 36.2V35.02C213.595 34.8867 213.662 34.82 213.795 34.82H215.015C215.068 34.82 215.095 34.7933 215.095 34.74V32.38C215.095 32.2467 215.162 32.18 215.295 32.18H216.735C216.868 32.18 216.935 32.2467 216.935 32.38V34.74C216.935 34.7933 216.962 34.82 217.015 34.82H219.175C219.308 34.82 219.375 34.8867 219.375 35.02V36.2ZM229.744 38.64C229.797 39.1867 229.817 39.8 229.804 40.48C229.804 40.6133 229.737 40.68 229.604 40.68H223.224C223.17 40.68 223.144 40.7067 223.144 40.76C223.144 41.2133 223.184 41.56 223.264 41.8C223.41 42.3333 223.704 42.7533 224.144 43.06C224.597 43.3533 225.164 43.5 225.844 43.5C226.83 43.5 227.59 43.0933 228.124 42.28C228.19 42.1467 228.277 42.1267 228.384 42.22L229.524 42.98C229.617 43.06 229.637 43.1467 229.584 43.24C229.21 43.84 228.677 44.3133 227.984 44.66C227.304 45.0067 226.53 45.18 225.664 45.18C224.69 45.18 223.87 44.9667 223.204 44.54C222.537 44.1133 222.037 43.5067 221.704 42.72C221.384 41.9333 221.224 40.98 221.224 39.86C221.224 38.8867 221.297 38.1467 221.444 37.64C221.684 36.72 222.164 35.9933 222.884 35.46C223.604 34.9267 224.477 34.66 225.504 34.66C226.85 34.66 227.857 35 228.524 35.68C229.19 36.3467 229.597 37.3333 229.744 38.64ZM225.504 36.32C224.93 36.32 224.457 36.4667 224.084 36.76C223.71 37.04 223.457 37.42 223.324 37.9C223.23 38.1933 223.17 38.5667 223.144 39.02C223.144 39.0733 223.17 39.1 223.224 39.1H227.804C227.857 39.1 227.884 39.0733 227.884 39.02C227.857 38.58 227.817 38.2533 227.764 38.04C227.63 37.52 227.364 37.1067 226.964 36.8C226.577 36.48 226.09 36.32 225.504 36.32Z" fill="#3498DB"/>
<g filter="url(#filter0_ii_142_2955)">
<ellipse cx="169" cy="147" rx="46" ry="46" transform="rotate(90 169 147)" fill="#030092"/>
<ellipse cx="169" cy="147" rx="46" ry="46" transform="rotate(90 169 147)" fill="url(#paint2_radial_142_2955)"/>
</g>
<defs>
<filter id="filter0_ii_142_2955" x="123" y="101" width="100.375" height="105.4" filterUnits="userSpaceOnUse" color-interpolation-filters="sRGB">
<feFlood flood-opacity="0" result="BackgroundImageFix"/>
<feBlend mode="normal" in="SourceGraphic" in2="BackgroundImageFix" result="shape"/>
<feColorMatrix in="SourceAlpha" type="matrix" values="0 0 0 0 0 0 0 0 0 0 0 0 0 0 0 0 0 0 127 0" result="hardAlpha"/>
<feOffset dx="8.375" dy="13.4"/>
<feGaussianBlur stdDeviation="8.375"/>
<feComposite in2="hardAlpha" operator="arithmetic" k2="-1" k3="1"/>
<feColorMatrix type="matrix" values="0 0 0 0 0.0980392 0 0 0 0 0.435294 0 0 0 0 0.658824 0 0 0 1 0"/>
<feBlend mode="normal" in2="shape" result="effect1_innerShadow_142_2955"/>
<feColorMatrix in="SourceAlpha" type="matrix" values="0 0 0 0 0 0 0 0 0 0 0 0 0 0 0 0 0 0 127 0" result="hardAlpha"/>
<feOffset dy="1.675"/>
<feGaussianBlur stdDeviation="4.1875"/>
<feComposite in2="hardAlpha" operator="arithmetic" k2="-1" k3="1"/>
<feColorMatrix type="matrix" values="0 0 0 0 1 0 0 0 0 1 0 0 0 0 1 0 0 0 0.58 0"/>
<feBlend mode="normal" in2="effect1_innerShadow_142_2955" result="effect2_innerShadow_142_2955"/>
</filter>
<linearGradient id="paint0_linear_142_2955" x1="169" y1="89" x2="168.18" y2="1.00763" gradientUnits="userSpaceOnUse">
<stop stop-color="#149CF5" stop-opacity="0.16"/>
<stop offset="1" stop-color="#149CF5" stop-opacity="0"/>
</linearGradient>
<linearGradient id="paint1_linear_142_2955" x1="169" y1="88.9833" x2="169" y2="0.999999" gradientUnits="userSpaceOnUse">
<stop stop-color="#1970A9"/>
<stop offset="0.666667" stop-color="#3498DB" stop-opacity="0"/>
</linearGradient>
<radialGradient id="paint2_radial_142_2955" cx="0" cy="0" r="1" gradientUnits="userSpaceOnUse" gradientTransform="translate(187.768 129.704) rotate(110.973) scale(94.5867)">
<stop stop-color="#3244E8"/>
<stop offset="1" stop-color="#000210" stop-opacity="0"/>
</radialGradient>
</defs>
</svg>
