<svg width="56" height="56" viewBox="0 0 56 56" fill="none" xmlns="http://www.w3.org/2000/svg">
<path fill-rule="evenodd" clip-rule="evenodd" d="M28 56C12.536 56 0 43.464 0 28C0 12.536 12.536 0 28 0C43.464 0 56 12.536 56 28C56 43.464 43.464 56 28 56ZM34.8973 38.3964C35.8733 39.6179 37.0445 41 37.0445 41C44.2346 40.775 47 36.1143 47 36.1143C47 25.7644 42.315 17.3752 42.315 17.3752C37.6301 13.9038 33.1729 14.0003 33.1729 14.0003L32.7174 14.5145C38.2483 16.186 40.8185 18.5967 40.8185 18.5967C37.435 16.7645 34.1164 15.8645 31.0257 15.511C28.6832 15.2538 26.4383 15.3181 24.4538 15.5752C24.2834 15.5752 24.1377 15.5998 23.9735 15.6274C23.9497 15.6314 23.9255 15.6355 23.9007 15.6395C22.762 15.736 19.9966 16.1538 16.5154 17.6645C15.3116 18.2109 14.5959 18.5967 14.5959 18.5967C14.5959 18.5967 17.2962 16.0574 23.1524 14.386L22.8271 14.0003C22.8271 14.0003 18.3699 13.9038 13.6849 17.3752C13.6849 17.3752 9 25.7644 9 36.1143C9 36.1143 11.7329 40.775 18.9229 41C18.9229 41 20.1267 39.5536 21.1027 38.3321C16.9709 37.1108 15.4092 34.5393 15.4092 34.5393C15.4092 34.5393 15.7346 34.7644 16.3202 35.0858C16.3527 35.1179 16.3853 35.15 16.4503 35.1822C16.499 35.2142 16.5478 35.2383 16.5965 35.2624C16.6454 35.2865 16.6943 35.3107 16.7432 35.343C17.5565 35.7929 18.3699 36.1465 19.1182 36.4358C20.4521 36.95 22.0462 37.4644 23.9007 37.8179C26.3408 38.2679 29.2038 38.4287 32.3271 37.85C33.8562 37.5929 35.4179 37.1429 37.0445 36.4679C38.1832 36.0501 39.4521 35.4394 40.7859 34.5714C40.7859 34.5714 39.1592 37.2072 34.8973 38.3964ZM18.5976 29.5573C18.5976 27.5965 20.0616 25.9894 21.9161 25.9894C23.7706 25.9894 25.2671 27.5965 25.2346 29.5573C25.2346 31.518 23.7706 33.125 21.9161 33.125C20.0942 33.125 18.5976 31.518 18.5976 29.5573ZM30.4726 29.5573C30.4726 27.5965 31.9367 25.9894 33.7911 25.9894C35.6456 25.9894 37.1095 27.5965 37.1095 29.5573C37.1095 31.518 35.6456 33.125 33.7911 33.125C31.9692 33.125 30.4726 31.518 30.4726 29.5573Z" fill="white"/>
</svg>
