<svg id="Layer_1" data-name="Layer 1" xmlns="http://www.w3.org/2000/svg" viewBox="0 0 425.14 425.2"><defs><style>.cls-1{fill:#fff;}</style></defs><path class="cls-1" d="M171.3,219.64V213.5h6.94v-2.44H171.3v-5.52h9.21v-2.41H168.58v19H181.2v-2.44Z"/><path class="cls-1" d="M198.71,219.66V203.13H196v19h12.6v-2.42Z"/><path class="cls-1" d="M232.07,214a5.12,5.12,0,0,0,2.64-2.07,6,6,0,0,0,.86-3.21,5.9,5.9,0,0,0-.36-2,4.84,4.84,0,0,0-1.14-1.78,5.93,5.93,0,0,0-2-1.28,8.41,8.41,0,0,0-3.07-.49h-6.05v19h2.64v-7.76h3.81l4.06,7.76h3.07Zm-2.87-2h-3.64v-6.54h3.58a3.88,3.88,0,0,1,2.68.87,3.11,3.11,0,0,1,1,2.43,3.15,3.15,0,0,1-.9,2.36A3.64,3.64,0,0,1,229.2,212Z"/><path class="cls-1" d="M268.34,208.71a10.2,10.2,0,0,0-2-3.15,9.7,9.7,0,0,0-3.09-2.13,9.58,9.58,0,0,0-10.71,2.13,10.08,10.08,0,0,0-2.77,7,10.09,10.09,0,0,0,.74,3.89,9.69,9.69,0,0,0,5.11,5.31,9.84,9.84,0,0,0,7.63,0,9.89,9.89,0,0,0,3.09-2.14,10.07,10.07,0,0,0,2-3.17,10.7,10.7,0,0,0,0-7.77Zm-2.6,6.71a7.15,7.15,0,0,1-1.37,2.37,6.67,6.67,0,0,1-2.16,1.62,6.55,6.55,0,0,1-2.83.6,6.37,6.37,0,0,1-2.81-.6,6.53,6.53,0,0,1-2.15-1.62,7.17,7.17,0,0,1-1.38-2.37,8.82,8.82,0,0,1,0-5.74,7.17,7.17,0,0,1,1.38-2.37,6.24,6.24,0,0,1,2.15-1.61,6.51,6.51,0,0,1,2.81-.58,6.69,6.69,0,0,1,2.83.58,6.37,6.37,0,0,1,2.16,1.61,7.15,7.15,0,0,1,1.37,2.37,8.65,8.65,0,0,1,0,5.74Z"/><path class="cls-1" d="M297.09,203.13v14.81l-10.35-14.81H284v19h2.67V207.25L297,222.08h2.74v-19Z"/><path class="cls-1" d="M331.31,208.38a8.07,8.07,0,0,0-2.13-3,8.52,8.52,0,0,0-3.26-1.74,14.53,14.53,0,0,0-4.13-.55h-6.34v19h6.31a14.46,14.46,0,0,0,4.15-.57,8.85,8.85,0,0,0,3.27-1.74,8.24,8.24,0,0,0,2.13-3,10.48,10.48,0,0,0,.77-4.17A10.84,10.84,0,0,0,331.31,208.38Zm-4.08,9.51a8.1,8.1,0,0,1-5.53,1.75h-3.52V205.57h3.44q3.78,0,5.68,1.84a7,7,0,0,1,1.91,5.29A6.56,6.56,0,0,1,327.23,217.89Z"/><g id="Livello_2" data-name="Livello 2"><g id="Livello_1-2" data-name="Livello 1-2"><path class="cls-1" d="M170.4,247.33l3.44,13.27a23.7,23.7,0,0,1-6.23,2c-10.06,1.8-18.31-1.48-24.6-6.07h0a.16.16,0,0,0-.22.07c-.72,1.31-5.13,9.91-3.61,17.44,2.09,10.33-.47,13.35-1.26,14,0,0-.06,0-.08,0a.16.16,0,0,1-.19-.13,11.89,11.89,0,0,0-3.91-6.71l-.3.11c-1.36,12.3-8.45,17.45-10.89,18.87l-.11,0-.1,0a.23.23,0,0,1-.11-.32c6.55-10.23,1.23-27.26.52-29.36l-.26-.08c-1.17.9-1.73,3.09-1.91,3.92l-.29.08c-5.34-5.64-4.94-15.94-4.81-18.06a.11.11,0,0,0,0-.11.17.17,0,0,0-.24,0c-6.18,4.87-14.46,8.47-24.79,6.62-20.75-3.72-27.81-33.24-29.2-38.61a.22.22,0,0,1,.08-.18.19.19,0,0,1,.25,0c15.5,21.3,26.19,24,30.61,24,.41,0,.77,0,1.08,0a.2.2,0,0,0,.18-.19.19.19,0,0,0-.18-.18C80.3,246,77.64,234.21,77.15,231a.19.19,0,0,1,.08-.19.19.19,0,0,1,.26,0c1.67,2.5,8.05,11.16,15.76,11.16,5.82,0,8.66-2.06,9.76-3.17a.18.18,0,0,0,0-.2.2.2,0,0,0-.23-.1c-4.72,2.11-9.28.33-11-.53a.21.21,0,0,1-.11-.19.17.17,0,0,1,.19-.15c17.5.79,23.92-22.46,27.63-25.5a4.75,4.75,0,0,1,1.64-.92.45.45,0,0,0,.3-.53v0a1.3,1.3,0,0,1,.41-1.35l3-2.54a.17.17,0,0,1,.19,0,.18.18,0,0,1,.11.23l-.84,2.32a1.33,1.33,0,0,0,.14,1.18l3.2,3.62.08.07a1.28,1.28,0,0,0,1.82-.07l2-2.19.12-.15.4-.55.55-.73a1.34,1.34,0,0,0,.19-1.24L132,207a.15.15,0,0,1,0-.07.26.26,0,0,1,.05-.12.17.17,0,0,1,.26,0l3,2.54a1.33,1.33,0,0,1,.42,1.35l-.08.25a.44.44,0,0,0,.31.54,5.13,5.13,0,0,1,1.72.93c3.7,3.06,10.13,26.32,27.62,25.52a.18.18,0,0,1,.08.34c-1.73.86-6.3,2.65-11,.56a.18.18,0,0,0-.22,0,.21.21,0,0,0,0,.26c1.11,1.1,3.95,3.17,9.76,3.17a11.82,11.82,0,0,0,4.89-1.12l1.28,4.95A18.9,18.9,0,0,1,164,248a.17.17,0,0,0-.18.18.18.18,0,0,0,.18.17A14.17,14.17,0,0,0,170.4,247.33Z"/><path class="cls-1" d="M182.42,187.68c-4-1.21-9.59-2.81-15.85-4.3a2,2,0,0,0-1.11,0c-4.7,1.66-9,4.48-16.92,5.6-17.8,2.51-15.18-.09-13.48-.27,5.32-.57,12.24-1.49,16.85-3.33a20.6,20.6,0,0,0,5.42-3.07,1.92,1.92,0,0,0,.7-1.94c-2.1-9.75-12.8-22-11.34-26.79,1.73-5.66-9.88-19.79-10.67-22.92s8.25-1.2,7.69-3.8-9.42-1.85-9.42-1.85c-8.78.94-20.56,16-21,25.74s.41,7.84-6.08,15.54A107.33,107.33,0,0,0,96.87,182a1.76,1.76,0,0,1-1.18.84c-8.22,1.5-15.54,3.09-20.41,4.2-2,.46-1.74,2.51-.3,4,4,4.06,16.3,7.51,29.92,9.32a.27.27,0,0,1,.23.29v0a45.21,45.21,0,0,1-4,10.07.21.21,0,0,0,.07.29.22.22,0,0,0,.16,0,7.07,7.07,0,0,0,3.35-1.83s.1,0,.12,0a.13.13,0,0,1,0,.1c-1,2.42-3.42,8.13-5.91,11a.21.21,0,0,0,0,.3.19.19,0,0,0,.14.07,7.9,7.9,0,0,0,6.51-3,.22.22,0,0,1,.3,0,.2.2,0,0,1,.08.22c-.83,2.89-3.4,10.49-8.53,14.32a.22.22,0,0,0,0,.3.21.21,0,0,0,.13.07c1.93.28,9.45.21,16.18-15.87a1.67,1.67,0,0,0,.13-.93l-.54-4.35a1.86,1.86,0,0,0-.34-.85l-4.63-6.42a1.19,1.19,0,0,1-.23-.95l.31-2.19a.27.27,0,0,1,.29-.23c.56,0-.16,0,1.8.14,0,0,.34,0,.7.06s.79.06,1.09.1a2.64,2.64,0,0,1,.69.14l6,2.12a1.08,1.08,0,0,0,.75,0l4.4-1.64a1.4,1.4,0,0,1,.41-.06l3.1,0c1.68,0,3.35,0,5-.07a.81.81,0,0,1,.41.06l4.51,1.68a1.22,1.22,0,0,0,.8,0l6-2.39a1.08,1.08,0,0,1,.41-.1l1.91-.18c2.06-.18,1.41-.14,2-.2a.26.26,0,0,1,.29.23l.36,2.52a1.23,1.23,0,0,1-.23,1l-4.66,6.42a1.78,1.78,0,0,0-.33.85l-.54,4.35a1.79,1.79,0,0,0,.13.94c6.74,16.08,14.26,16.14,16.18,15.86a.21.21,0,0,0,.18-.23.19.19,0,0,0-.09-.14c-5.12-3.82-7.68-11.42-8.52-14.32a.23.23,0,0,1,.15-.27.19.19,0,0,1,.22.08,8,8,0,0,0,6.52,3,.23.23,0,0,0,.2-.22.22.22,0,0,0-.05-.14c-2.47-2.84-4.9-8.47-5.89-10.93a.1.1,0,0,1,0-.12h0a.08.08,0,0,1,.12,0,7.09,7.09,0,0,0,3.31,1.78.2.2,0,0,0,.25-.14h0a.2.2,0,0,0,0-.17c-1.72-2.73-3.19-7.17-4.1-10.34a.27.27,0,0,1,.18-.33h.05c2.56-.28,19.92-2.33,29.95-8.32C184.17,190.62,184.43,188.28,182.42,187.68Zm-51.34-5.28a18.08,18.08,0,0,1-3.1,1.13c-.07,0-.12,0-.15-.08v-.89a.13.13,0,0,0-.12-.14.12.12,0,0,0-.08,0,10.5,10.5,0,0,1-2.38,1.15.12.12,0,0,1-.16-.08v0c0-.26,0-.89.1-2.35a2.88,2.88,0,0,1,2-3,.12.12,0,0,1,.15.09.1.1,0,0,1,0,.09,14.13,14.13,0,0,0-1.44,4.07.14.14,0,0,0,.1.15h.07c2.19-.76,3.36-3.14,3.71-4a.16.16,0,0,1,.2-.09s.06,0,.08.07c.76,1.52-.47,3.12-1.16,3.83-.06.05-.05.12,0,.18a.09.09,0,0,0,.11,0c3.46-1.31,3.8-3.54,3.82-4.22a.16.16,0,0,1,.13-.11l.06,0a1.54,1.54,0,0,1,.81,1.54C133.63,180.91,132.38,181.77,131.08,182.4Z"/></g></g><polygon class="cls-1" points="207.87 228.35 199.88 258.83 193.84 258.83 189.48 243.34 188.18 238.68 184.53 251.45 182.42 258.83 176.48 258.83 173.18 246.1 172.75 244.44 171.51 239.66 168.58 228.35 174.88 228.35 176.41 235.32 177.25 239.19 178.09 243.05 179.87 251.15 183.18 238.8 185.76 229.22 190.97 229.22 191.21 230.12 192.72 235.67 196.91 251.15 201.84 228.35 207.87 228.35"/><polygon class="cls-1" points="207.87 228.35 199.88 258.83 193.84 258.83 189.48 243.34 188.18 238.68 184.53 251.45 182.42 258.83 176.48 258.83 173.18 246.1 172.75 244.44 171.51 239.66 168.58 228.35 174.88 228.35 176.41 235.32 177.25 239.19 178.09 243.05 179.87 251.15 183.18 238.8 185.76 229.22 190.97 229.22 191.21 230.12 192.72 235.67 196.91 251.15 201.84 228.35 207.87 228.35"/><path class="cls-1" d="M211.53,228.35v30.48h5.76V228.35Z"/><path class="cls-1" d="M230.17,253.8l17.59-20.37v-5.08h-24v5.08h17.13l-18,20.37v5h25.23v-5Z"/><path class="cls-1" d="M268.28,228.35h-5.94l-11.56,30.48h6l2.65-7.72h11.33l2.65,7.72h6.39Zm-7.22,18,4.06-11.83,4,11.83Z"/><path class="cls-1" d="M298.75,246.08a8.89,8.89,0,0,0,3.86-3.54,10.12,10.12,0,0,0,1.26-5.1,9.07,9.07,0,0,0-.58-3.05,8.66,8.66,0,0,0-1.8-2.95,9.3,9.3,0,0,0-3.24-2.22,12.33,12.33,0,0,0-4.89-.87h-10.1v30.48h5.53v-12h4.34l6.17,12h6.49Zm-1.94-5.3a4.43,4.43,0,0,1-3.4,1.28h-4.62v-8.82h4.62a4.56,4.56,0,0,1,3.33,1.24,4.2,4.2,0,0,1,1.28,3.19A4.37,4.37,0,0,1,296.81,240.78Z"/><path class="cls-1" d="M336.4,236.85a12.54,12.54,0,0,0-3.33-4.79,13.82,13.82,0,0,0-5.12-2.79,22.18,22.18,0,0,0-6.54-.92H310v30.48h11.33a21.29,21.29,0,0,0,6.49-.94,14,14,0,0,0,5.14-2.83,12.78,12.78,0,0,0,3.39-4.71,16.51,16.51,0,0,0,1.21-6.6A18.12,18.12,0,0,0,336.4,236.85Zm-7.59,14.35q-2.73,2.51-7.94,2.51H315.8V233.47h5.07q5.61,0,8.15,2.78a10.89,10.89,0,0,1,2.53,7.59C331.55,247.07,330.65,249.53,328.81,251.2Z"/><path class="cls-1" d="M363.2,246.29a8.46,8.46,0,0,0-2-2.83,10.26,10.26,0,0,0-2.9-1.9,16.31,16.31,0,0,0-3.43-1.09,24.37,24.37,0,0,1-3.1-.8,6.92,6.92,0,0,1-1.95-1,3.32,3.32,0,0,1-1-1.19,3.4,3.4,0,0,1-.3-1.46,2.91,2.91,0,0,1,.27-1.16,3.21,3.21,0,0,1,.84-1.13,4.49,4.49,0,0,1,1.45-.81,5.78,5.78,0,0,1,2.06-.33,7.32,7.32,0,0,1,2.37.37,10.61,10.61,0,0,1,1.81.82,7.27,7.27,0,0,1,1.25.94c.34.32.58.54.74.66l3.79-3.56c-.19-.22-.49-.56-.92-1a8.37,8.37,0,0,0-1.8-1.44,12.38,12.38,0,0,0-2.91-1.28,13.68,13.68,0,0,0-4.15-.55,13.45,13.45,0,0,0-4.68.73,10.14,10.14,0,0,0-3.32,1.94,7.63,7.63,0,0,0-2,2.79,8.77,8.77,0,0,0-.14,6.26,8.15,8.15,0,0,0,1.51,2.63,9.1,9.1,0,0,0,2.53,2.05,11.81,11.81,0,0,0,3.64,1.28,32.11,32.11,0,0,1,3.44.87,9.43,9.43,0,0,1,2.26,1,3.32,3.32,0,0,1,1.24,1.33,3.91,3.91,0,0,1,.37,1.71,4,4,0,0,1-1.31,3,5.61,5.61,0,0,1-4,1.23,7.72,7.72,0,0,1-2.63-.41,10.09,10.09,0,0,1-2.11-1,12.56,12.56,0,0,1-1.68-1.32,17.93,17.93,0,0,1-1.31-1.35l-4,3.7a18.35,18.35,0,0,0,1.81,1.92,13.16,13.16,0,0,0,2.56,1.85,16.58,16.58,0,0,0,3.33,1.4,14.83,14.83,0,0,0,4.14.54,12.9,12.9,0,0,0,4.38-.71,10.6,10.6,0,0,0,3.48-2,9.37,9.37,0,0,0,2.28-3,8.36,8.36,0,0,0,.82-3.7A9.68,9.68,0,0,0,363.2,246.29Z"/></svg>