<svg width="320" height="320" viewBox="0 0 320 320" fill="none" xmlns="http://www.w3.org/2000/svg">
<g clip-path="url(#clip0_417_3457)">
<g opacity="0.6" filter="url(#filter0_f_417_3457)">
<circle cx="160" cy="160" r="124" fill="#7D0092"/>
<circle cx="160" cy="160" r="124" fill="url(#paint0_radial_417_3457)"/>
</g>
<path d="M278.2 198.498C273.163 214.003 265.121 228.363 254.533 240.759C243.946 253.155 231.021 263.344 216.496 270.745C201.97 278.146 186.13 282.614 169.878 283.893C153.626 285.172 137.281 283.237 121.777 278.2L160.138 160.138L278.2 198.498Z" fill="#0E111A"/>
<g opacity="0.8">
<mask id="path-3-inside-1_417_3457" fill="white">
<path d="M278.2 198.499C273.163 214.003 265.12 228.363 254.533 240.759C243.946 253.155 231.021 263.345 216.495 270.746C201.97 278.147 186.129 282.614 169.878 283.893C153.626 285.172 137.281 283.238 121.777 278.2L160.138 160.138L278.2 198.499Z"/>
</mask>
<g filter="url(#filter1_i_417_3457)">
<path d="M278.2 198.499C273.163 214.003 265.12 228.363 254.533 240.759C243.946 253.155 231.021 263.345 216.495 270.746C201.97 278.147 186.129 282.614 169.878 283.893C153.626 285.172 137.281 283.238 121.777 278.2L160.138 160.138L278.2 198.499Z" fill="#09444E"/>
<path d="M278.2 198.499C273.163 214.003 265.12 228.363 254.533 240.759C243.946 253.155 231.021 263.345 216.495 270.746C201.97 278.147 186.129 282.614 169.878 283.893C153.626 285.172 137.281 283.238 121.777 278.2L160.138 160.138L278.2 198.499Z" fill="url(#paint1_radial_417_3457)"/>
</g>
<path d="M278.2 198.499C273.163 214.003 265.12 228.363 254.533 240.759C243.946 253.155 231.021 263.345 216.495 270.746C201.97 278.147 186.129 282.614 169.878 283.893C153.626 285.172 137.281 283.238 121.777 278.2L160.138 160.138L278.2 198.499Z" stroke="url(#paint2_linear_417_3457)" stroke-width="24" mask="url(#path-3-inside-1_417_3457)"/>
</g>
<path d="M121.777 278.2C96.8449 270.099 75.1172 254.313 59.7082 233.104C44.2992 211.896 36 186.353 36 160.138L160.138 160.138L121.777 278.2Z" fill="#0E111A"/>
<g opacity="0.6">
<mask id="path-5-inside-2_417_3457" fill="white">
<path d="M121.777 278.2C96.8449 270.099 75.1172 254.313 59.7082 233.104C44.2992 211.896 36 186.353 36 160.138L160.138 160.138L121.777 278.2Z"/>
</mask>
<g filter="url(#filter2_i_417_3457)">
<path d="M121.777 278.2C96.8449 270.099 75.1172 254.313 59.7082 233.104C44.2992 211.896 36 186.353 36 160.138L160.138 160.138L121.777 278.2Z" fill="#09444E"/>
<path d="M121.777 278.2C96.8449 270.099 75.1172 254.313 59.7082 233.104C44.2992 211.896 36 186.353 36 160.138L160.138 160.138L121.777 278.2Z" fill="url(#paint3_radial_417_3457)"/>
</g>
<path d="M121.777 278.2C96.8449 270.099 75.1172 254.313 59.7082 233.104C44.2992 211.896 36 186.353 36 160.138L160.138 160.138L121.777 278.2Z" stroke="url(#paint4_linear_417_3457)" stroke-width="24" mask="url(#path-5-inside-2_417_3457)"/>
</g>
<path d="M36 160.138C36 140.548 40.6364 121.236 49.5302 103.781C58.424 86.3255 71.3226 71.2231 87.1715 59.7083L160.138 160.138L36 160.138Z" fill="#0E111A"/>
<g opacity="0.4">
<mask id="path-7-inside-3_417_3457" fill="white">
<path d="M36 160.138C36 140.548 40.6364 121.236 49.5302 103.781C58.424 86.3255 71.3226 71.2231 87.1715 59.7083L160.138 160.138L36 160.138Z"/>
</mask>
<g filter="url(#filter3_i_417_3457)">
<path d="M36 160.138C36 140.548 40.6364 121.236 49.5302 103.781C58.424 86.3255 71.3226 71.2231 87.1715 59.7083L160.138 160.138L36 160.138Z" fill="#09444E"/>
<path d="M36 160.138C36 140.548 40.6364 121.236 49.5302 103.781C58.424 86.3255 71.3226 71.2231 87.1715 59.7083L160.138 160.138L36 160.138Z" fill="url(#paint5_radial_417_3457)"/>
</g>
<path d="M36 160.138C36 140.548 40.6364 121.236 49.5302 103.781C58.424 86.3255 71.3226 71.2231 87.1715 59.7083L160.138 160.138L36 160.138Z" stroke="url(#paint6_linear_417_3457)" stroke-width="24" mask="url(#path-7-inside-3_417_3457)"/>
</g>
<path d="M87.1715 59.7082C108.38 44.2992 133.923 36 160.138 36L160.138 160.138L87.1715 59.7082Z" fill="#0E111A"/>
<g opacity="0.2">
<mask id="path-9-inside-4_417_3457" fill="white">
<path d="M87.1715 59.7082C108.38 44.2992 133.923 36 160.138 36L160.138 160.138L87.1715 59.7082Z"/>
</mask>
<g filter="url(#filter4_i_417_3457)">
<path d="M87.1715 59.7082C108.38 44.2992 133.923 36 160.138 36L160.138 160.138L87.1715 59.7082Z" fill="#09444E"/>
<path d="M87.1715 59.7082C108.38 44.2992 133.923 36 160.138 36L160.138 160.138L87.1715 59.7082Z" fill="url(#paint7_radial_417_3457)"/>
</g>
<path d="M87.1715 59.7082C108.38 44.2992 133.923 36 160.138 36L160.138 160.138L87.1715 59.7082Z" stroke="url(#paint8_linear_417_3457)" stroke-width="24" mask="url(#path-9-inside-4_417_3457)"/>
</g>
<mask id="path-10-inside-5_417_3457" fill="white">
<path d="M160.138 36C179.728 36 199.04 40.6364 216.495 49.5302C233.95 58.424 249.053 71.3226 260.568 87.1715C272.083 103.02 279.683 121.369 282.748 140.718C285.812 160.068 284.254 179.867 278.2 198.499L160.138 160.138L160.138 36Z"/>
</mask>
<g filter="url(#filter5_i_417_3457)">
<path d="M160.138 36C179.728 36 199.04 40.6364 216.495 49.5302C233.95 58.424 249.053 71.3226 260.568 87.1715C272.083 103.02 279.683 121.369 282.748 140.718C285.812 160.068 284.254 179.867 278.2 198.499L160.138 160.138L160.138 36Z" fill="#09444E"/>
<path d="M160.138 36C179.728 36 199.04 40.6364 216.495 49.5302C233.95 58.424 249.053 71.3226 260.568 87.1715C272.083 103.02 279.683 121.369 282.748 140.718C285.812 160.068 284.254 179.867 278.2 198.499L160.138 160.138L160.138 36Z" fill="url(#paint9_radial_417_3457)"/>
</g>
<path d="M160.138 36C179.728 36 199.04 40.6364 216.495 49.5302C233.95 58.424 249.053 71.3226 260.568 87.1715C272.083 103.02 279.683 121.369 282.748 140.718C285.812 160.068 284.254 179.867 278.2 198.499L160.138 160.138L160.138 36Z" stroke="url(#paint10_linear_417_3457)" stroke-width="24" mask="url(#path-10-inside-5_417_3457)"/>
<g filter="url(#filter6_ii_417_3457)">
<circle cx="160.137" cy="160.138" r="95.3379" fill="#09444E"/>
<circle cx="160.137" cy="160.138" r="95.3379" fill="url(#paint11_radial_417_3457)"/>
</g>
<g filter="url(#filter7_f_417_3457)">
<circle cx="160" cy="160" r="50" fill="url(#paint12_linear_417_3457)"/>
</g>
<g filter="url(#filter8_i_417_3457)">
<path d="M123.375 154.478C121.629 154.478 120.088 154.138 118.751 153.458C117.436 152.778 116.405 151.826 115.657 150.602C114.931 149.355 114.569 147.927 114.569 146.318V130.814C114.569 130.701 114.603 130.61 114.671 130.542C114.761 130.451 114.863 130.406 114.977 130.406H118.955C119.068 130.406 119.159 130.451 119.227 130.542C119.317 130.61 119.363 130.701 119.363 130.814V146.352C119.363 147.553 119.725 148.528 120.451 149.276C121.199 150.001 122.173 150.364 123.375 150.364C124.576 150.364 125.539 150.001 126.265 149.276C127.013 148.528 127.387 147.553 127.387 146.352V130.814C127.387 130.701 127.421 130.61 127.489 130.542C127.579 130.451 127.681 130.406 127.795 130.406H131.773C131.886 130.406 131.977 130.451 132.045 130.542C132.135 130.61 132.181 130.701 132.181 130.814V146.318C132.181 147.927 131.807 149.355 131.059 150.602C130.333 151.826 129.302 152.778 127.965 153.458C126.65 154.138 125.12 154.478 123.375 154.478ZM142.706 154.444C141.187 154.444 139.861 154.229 138.728 153.798C137.594 153.367 136.71 152.767 136.076 151.996C135.464 151.225 135.158 150.353 135.158 149.378V149.038C135.158 148.925 135.192 148.834 135.26 148.766C135.35 148.675 135.452 148.63 135.566 148.63H139.34C139.453 148.63 139.544 148.675 139.612 148.766C139.702 148.834 139.748 148.925 139.748 149.038V149.072C139.748 149.571 140.02 150.001 140.564 150.364C141.13 150.704 141.833 150.874 142.672 150.874C143.442 150.874 144.066 150.727 144.542 150.432C145.018 150.115 145.256 149.729 145.256 149.276C145.256 148.868 145.052 148.562 144.644 148.358C144.236 148.154 143.567 147.939 142.638 147.712C141.572 147.44 140.734 147.179 140.122 146.93C138.671 146.431 137.515 145.819 136.654 145.094C135.792 144.369 135.362 143.326 135.362 141.966C135.362 140.289 136.008 138.963 137.3 137.988C138.614 136.991 140.348 136.492 142.502 136.492C143.952 136.492 145.222 136.73 146.31 137.206C147.398 137.659 148.236 138.305 148.826 139.144C149.438 139.983 149.744 140.935 149.744 142C149.744 142.113 149.698 142.215 149.608 142.306C149.54 142.374 149.449 142.408 149.336 142.408H145.698C145.584 142.408 145.482 142.374 145.392 142.306C145.324 142.215 145.29 142.113 145.29 142C145.29 141.501 145.029 141.082 144.508 140.742C144.009 140.402 143.34 140.232 142.502 140.232C141.754 140.232 141.142 140.368 140.666 140.64C140.19 140.912 139.952 141.286 139.952 141.762C139.952 142.215 140.178 142.555 140.632 142.782C141.108 143.009 141.89 143.247 142.978 143.496C143.227 143.564 143.51 143.643 143.828 143.734C144.145 143.802 144.485 143.893 144.848 144.006C146.457 144.482 147.726 145.094 148.656 145.842C149.585 146.59 150.05 147.678 150.05 149.106C150.05 150.783 149.381 152.098 148.044 153.05C146.729 153.979 144.95 154.444 142.706 154.444ZM168.192 143.666C168.328 144.527 168.373 145.491 168.328 146.556C168.305 146.828 168.158 146.964 167.886 146.964H157.38C157.244 146.964 157.199 147.021 157.244 147.134C157.312 147.587 157.437 148.041 157.618 148.494C158.207 149.763 159.409 150.398 161.222 150.398C162.673 150.375 163.817 149.786 164.656 148.63C164.747 148.494 164.849 148.426 164.962 148.426C165.03 148.426 165.109 148.471 165.2 148.562L167.648 150.976C167.761 151.089 167.818 151.191 167.818 151.282C167.818 151.327 167.773 151.418 167.682 151.554C166.934 152.483 165.971 153.209 164.792 153.73C163.613 154.229 162.321 154.478 160.916 154.478C158.967 154.478 157.312 154.036 155.952 153.152C154.615 152.268 153.651 151.033 153.062 149.446C152.586 148.313 152.348 146.828 152.348 144.992C152.348 143.745 152.518 142.646 152.858 141.694C153.379 140.085 154.286 138.804 155.578 137.852C156.893 136.9 158.445 136.424 160.236 136.424C162.503 136.424 164.316 137.081 165.676 138.396C167.059 139.711 167.897 141.467 168.192 143.666ZM160.27 140.572C158.842 140.572 157.901 141.241 157.448 142.578C157.357 142.873 157.278 143.235 157.21 143.666C157.21 143.779 157.267 143.836 157.38 143.836H163.262C163.398 143.836 163.443 143.779 163.398 143.666C163.285 143.009 163.228 142.691 163.228 142.714C163.024 142.034 162.661 141.513 162.14 141.15C161.641 140.765 161.018 140.572 160.27 140.572ZM185.647 154.478C183.743 154.478 182.111 153.979 180.751 152.982C179.391 151.985 178.462 150.625 177.963 148.902C177.646 147.837 177.487 146.681 177.487 145.434C177.487 144.097 177.646 142.895 177.963 141.83C178.485 140.153 179.425 138.838 180.785 137.886C182.145 136.934 183.777 136.458 185.681 136.458C187.54 136.458 189.127 136.934 190.441 137.886C191.756 138.815 192.685 140.119 193.229 141.796C193.592 142.929 193.773 144.119 193.773 145.366C193.773 146.59 193.615 147.735 193.297 148.8C192.799 150.568 191.869 151.962 190.509 152.982C189.172 153.979 187.551 154.478 185.647 154.478ZM185.647 150.364C186.395 150.364 187.03 150.137 187.551 149.684C188.073 149.231 188.447 148.607 188.673 147.814C188.855 147.089 188.945 146.295 188.945 145.434C188.945 144.482 188.855 143.677 188.673 143.02C188.424 142.249 188.039 141.649 187.517 141.218C186.996 140.787 186.361 140.572 185.613 140.572C184.843 140.572 184.197 140.787 183.675 141.218C183.177 141.649 182.814 142.249 182.587 143.02C182.406 143.564 182.315 144.369 182.315 145.434C182.315 146.454 182.395 147.247 182.553 147.814C182.78 148.607 183.154 149.231 183.675 149.684C184.219 150.137 184.877 150.364 185.647 150.364ZM206.272 136.696C206.385 136.696 206.476 136.741 206.544 136.832C206.635 136.9 206.68 136.991 206.68 137.104V140.334C206.68 140.447 206.635 140.549 206.544 140.64C206.476 140.708 206.385 140.742 206.272 140.742H202.974C202.861 140.742 202.804 140.799 202.804 140.912V153.798C202.804 153.911 202.759 154.013 202.668 154.104C202.6 154.172 202.509 154.206 202.396 154.206H198.418C198.305 154.206 198.203 154.172 198.112 154.104C198.044 154.013 198.01 153.911 198.01 153.798V140.912C198.01 140.799 197.953 140.742 197.84 140.742H195.834C195.721 140.742 195.619 140.708 195.528 140.64C195.46 140.549 195.426 140.447 195.426 140.334V137.104C195.426 136.991 195.46 136.9 195.528 136.832C195.619 136.741 195.721 136.696 195.834 136.696H197.84C197.953 136.696 198.01 136.639 198.01 136.526V135.778C198.01 134.373 198.225 133.285 198.656 132.514C199.087 131.721 199.778 131.165 200.73 130.848C201.705 130.508 203.042 130.361 204.742 130.406H206.034C206.147 130.406 206.238 130.451 206.306 130.542C206.397 130.61 206.442 130.701 206.442 130.814V133.568C206.442 133.681 206.397 133.783 206.306 133.874C206.238 133.942 206.147 133.976 206.034 133.976H204.912C204.119 133.999 203.563 134.169 203.246 134.486C202.951 134.781 202.804 135.336 202.804 136.152V136.526C202.804 136.639 202.861 136.696 202.974 136.696H206.272ZM128.781 176.696C128.894 176.696 128.985 176.741 129.053 176.832C129.143 176.9 129.189 176.991 129.189 177.104V180.334C129.189 180.447 129.143 180.549 129.053 180.64C128.985 180.708 128.894 180.742 128.781 180.742H125.483C125.369 180.742 125.313 180.799 125.313 180.912V193.798C125.313 193.911 125.267 194.013 125.177 194.104C125.109 194.172 125.018 194.206 124.905 194.206H120.927C120.813 194.206 120.711 194.172 120.621 194.104C120.553 194.013 120.519 193.911 120.519 193.798V180.912C120.519 180.799 120.462 180.742 120.349 180.742H118.343C118.229 180.742 118.127 180.708 118.037 180.64C117.969 180.549 117.935 180.447 117.935 180.334V177.104C117.935 176.991 117.969 176.9 118.037 176.832C118.127 176.741 118.229 176.696 118.343 176.696H120.349C120.462 176.696 120.519 176.639 120.519 176.526V175.778C120.519 174.373 120.734 173.285 121.165 172.514C121.595 171.721 122.287 171.165 123.239 170.848C124.213 170.508 125.551 170.361 127.251 170.406H128.543C128.656 170.406 128.747 170.451 128.815 170.542C128.905 170.61 128.951 170.701 128.951 170.814V173.568C128.951 173.681 128.905 173.783 128.815 173.874C128.747 173.942 128.656 173.976 128.543 173.976H127.421C126.627 173.999 126.072 174.169 125.755 174.486C125.46 174.781 125.313 175.336 125.313 176.152V176.526C125.313 176.639 125.369 176.696 125.483 176.696H128.781ZM142.087 177.138C142.087 177.025 142.121 176.934 142.189 176.866C142.28 176.775 142.382 176.73 142.495 176.73H146.473C146.586 176.73 146.677 176.775 146.745 176.866C146.836 176.934 146.881 177.025 146.881 177.138V193.798C146.881 193.911 146.836 194.013 146.745 194.104C146.677 194.172 146.586 194.206 146.473 194.206H142.495C142.382 194.206 142.28 194.172 142.189 194.104C142.121 194.013 142.087 193.911 142.087 193.798V192.642C142.087 192.574 142.064 192.54 142.019 192.54C141.974 192.517 141.928 192.54 141.883 192.608C140.976 193.832 139.571 194.444 137.667 194.444C135.944 194.444 134.528 193.923 133.417 192.88C132.306 191.837 131.751 190.375 131.751 188.494V177.138C131.751 177.025 131.785 176.934 131.853 176.866C131.944 176.775 132.046 176.73 132.159 176.73H136.103C136.216 176.73 136.307 176.775 136.375 176.866C136.466 176.934 136.511 177.025 136.511 177.138V187.304C136.511 188.211 136.749 188.947 137.225 189.514C137.724 190.081 138.404 190.364 139.265 190.364C140.036 190.364 140.67 190.137 141.169 189.684C141.668 189.208 141.974 188.596 142.087 187.848V177.138ZM159.446 176.458C161.26 176.458 162.722 177.013 163.832 178.124C164.943 179.235 165.498 180.742 165.498 182.646V193.798C165.498 193.911 165.453 194.013 165.362 194.104C165.294 194.172 165.204 194.206 165.09 194.206H161.112C160.999 194.206 160.897 194.172 160.806 194.104C160.738 194.013 160.704 193.911 160.704 193.798V183.632C160.704 182.725 160.444 181.989 159.922 181.422C159.424 180.855 158.755 180.572 157.916 180.572C157.078 180.572 156.398 180.855 155.876 181.422C155.378 181.989 155.128 182.725 155.128 183.632V193.798C155.128 193.911 155.083 194.013 154.992 194.104C154.924 194.172 154.834 194.206 154.72 194.206H150.742C150.629 194.206 150.527 194.172 150.436 194.104C150.368 194.013 150.334 193.911 150.334 193.798V177.138C150.334 177.025 150.368 176.934 150.436 176.866C150.527 176.775 150.629 176.73 150.742 176.73H154.72C154.834 176.73 154.924 176.775 154.992 176.866C155.083 176.934 155.128 177.025 155.128 177.138V178.328C155.128 178.396 155.151 178.441 155.196 178.464C155.242 178.487 155.276 178.475 155.298 178.43C156.228 177.115 157.61 176.458 159.446 176.458ZM179.595 170.814C179.595 170.701 179.629 170.61 179.697 170.542C179.787 170.451 179.889 170.406 180.003 170.406H183.981C184.094 170.406 184.185 170.451 184.253 170.542C184.343 170.61 184.389 170.701 184.389 170.814V193.798C184.389 193.911 184.343 194.013 184.253 194.104C184.185 194.172 184.094 194.206 183.981 194.206H180.003C179.889 194.206 179.787 194.172 179.697 194.104C179.629 194.013 179.595 193.911 179.595 193.798V192.676C179.595 192.608 179.572 192.574 179.527 192.574C179.481 192.551 179.436 192.563 179.391 192.608C178.439 193.855 177.135 194.478 175.481 194.478C173.894 194.478 172.523 194.036 171.367 193.152C170.233 192.268 169.417 191.055 168.919 189.514C168.533 188.335 168.341 186.964 168.341 185.4C168.341 183.791 168.545 182.385 168.953 181.184C169.474 179.733 170.29 178.589 171.401 177.75C172.534 176.889 173.928 176.458 175.583 176.458C177.215 176.458 178.484 177.025 179.391 178.158C179.436 178.226 179.481 178.249 179.527 178.226C179.572 178.203 179.595 178.158 179.595 178.09V170.814ZM178.881 188.902C179.334 188.063 179.561 186.919 179.561 185.468C179.561 183.949 179.311 182.759 178.813 181.898C178.291 181.014 177.532 180.572 176.535 180.572C175.469 180.572 174.665 181.014 174.121 181.898C173.554 182.782 173.271 183.983 173.271 185.502C173.271 186.862 173.509 187.995 173.985 188.902C174.551 189.877 175.39 190.364 176.501 190.364C177.521 190.364 178.314 189.877 178.881 188.902ZM194.896 194.444C193.378 194.444 192.052 194.229 190.918 193.798C189.785 193.367 188.901 192.767 188.266 191.996C187.654 191.225 187.348 190.353 187.348 189.378V189.038C187.348 188.925 187.382 188.834 187.45 188.766C187.541 188.675 187.643 188.63 187.756 188.63H191.53C191.644 188.63 191.734 188.675 191.802 188.766C191.893 188.834 191.938 188.925 191.938 189.038V189.072C191.938 189.571 192.21 190.001 192.754 190.364C193.321 190.704 194.024 190.874 194.862 190.874C195.633 190.874 196.256 190.727 196.732 190.432C197.208 190.115 197.446 189.729 197.446 189.276C197.446 188.868 197.242 188.562 196.834 188.358C196.426 188.154 195.758 187.939 194.828 187.712C193.763 187.44 192.924 187.179 192.312 186.93C190.862 186.431 189.706 185.819 188.844 185.094C187.983 184.369 187.552 183.326 187.552 181.966C187.552 180.289 188.198 178.963 189.49 177.988C190.805 176.991 192.539 176.492 194.692 176.492C196.143 176.492 197.412 176.73 198.5 177.206C199.588 177.659 200.427 178.305 201.016 179.144C201.628 179.983 201.934 180.935 201.934 182C201.934 182.113 201.889 182.215 201.798 182.306C201.73 182.374 201.64 182.408 201.526 182.408H197.888C197.775 182.408 197.673 182.374 197.582 182.306C197.514 182.215 197.48 182.113 197.48 182C197.48 181.501 197.22 181.082 196.698 180.742C196.2 180.402 195.531 180.232 194.692 180.232C193.944 180.232 193.332 180.368 192.856 180.64C192.38 180.912 192.142 181.286 192.142 181.762C192.142 182.215 192.369 182.555 192.822 182.782C193.298 183.009 194.08 183.247 195.168 183.496C195.418 183.564 195.701 183.643 196.018 183.734C196.336 183.802 196.676 183.893 197.038 184.006C198.648 184.482 199.917 185.094 200.846 185.842C201.776 186.59 202.24 187.678 202.24 189.106C202.24 190.783 201.572 192.098 200.234 193.05C198.92 193.979 197.14 194.444 194.896 194.444Z" fill="#0E4C6C"/>
</g>
</g>
<defs>
<filter id="filter0_f_417_3457" x="-4" y="-4" width="328" height="328" filterUnits="userSpaceOnUse" color-interpolation-filters="sRGB">
<feFlood flood-opacity="0" result="BackgroundImageFix"/>
<feBlend mode="normal" in="SourceGraphic" in2="BackgroundImageFix" result="shape"/>
<feGaussianBlur stdDeviation="20" result="effect1_foregroundBlur_417_3457"/>
</filter>
<filter id="filter1_i_417_3457" x="105.777" y="160.138" width="172.423" height="140.138" filterUnits="userSpaceOnUse" color-interpolation-filters="sRGB">
<feFlood flood-opacity="0" result="BackgroundImageFix"/>
<feBlend mode="normal" in="SourceGraphic" in2="BackgroundImageFix" result="shape"/>
<feColorMatrix in="SourceAlpha" type="matrix" values="0 0 0 0 0 0 0 0 0 0 0 0 0 0 0 0 0 0 127 0" result="hardAlpha"/>
<feOffset dx="-24" dy="24"/>
<feGaussianBlur stdDeviation="8"/>
<feComposite in2="hardAlpha" operator="arithmetic" k2="-1" k3="1"/>
<feColorMatrix type="matrix" values="0 0 0 0 0 0 0 0 0 0 0 0 0 0 0 0 0 0 0.32 0"/>
<feBlend mode="normal" in2="shape" result="effect1_innerShadow_417_3457"/>
</filter>
<filter id="filter2_i_417_3457" x="20" y="160.138" width="140.138" height="134.062" filterUnits="userSpaceOnUse" color-interpolation-filters="sRGB">
<feFlood flood-opacity="0" result="BackgroundImageFix"/>
<feBlend mode="normal" in="SourceGraphic" in2="BackgroundImageFix" result="shape"/>
<feColorMatrix in="SourceAlpha" type="matrix" values="0 0 0 0 0 0 0 0 0 0 0 0 0 0 0 0 0 0 127 0" result="hardAlpha"/>
<feOffset dx="-24" dy="24"/>
<feGaussianBlur stdDeviation="8"/>
<feComposite in2="hardAlpha" operator="arithmetic" k2="-1" k3="1"/>
<feColorMatrix type="matrix" values="0 0 0 0 0 0 0 0 0 0 0 0 0 0 0 0 0 0 0.32 0"/>
<feBlend mode="normal" in2="shape" result="effect1_innerShadow_417_3457"/>
</filter>
<filter id="filter3_i_417_3457" x="20" y="59.7085" width="140.138" height="116.429" filterUnits="userSpaceOnUse" color-interpolation-filters="sRGB">
<feFlood flood-opacity="0" result="BackgroundImageFix"/>
<feBlend mode="normal" in="SourceGraphic" in2="BackgroundImageFix" result="shape"/>
<feColorMatrix in="SourceAlpha" type="matrix" values="0 0 0 0 0 0 0 0 0 0 0 0 0 0 0 0 0 0 127 0" result="hardAlpha"/>
<feOffset dx="-24" dy="24"/>
<feGaussianBlur stdDeviation="8"/>
<feComposite in2="hardAlpha" operator="arithmetic" k2="-1" k3="1"/>
<feColorMatrix type="matrix" values="0 0 0 0 0 0 0 0 0 0 0 0 0 0 0 0 0 0 0.32 0"/>
<feBlend mode="normal" in2="shape" result="effect1_innerShadow_417_3457"/>
</filter>
<filter id="filter4_i_417_3457" x="71.1719" y="36" width="88.9658" height="140.138" filterUnits="userSpaceOnUse" color-interpolation-filters="sRGB">
<feFlood flood-opacity="0" result="BackgroundImageFix"/>
<feBlend mode="normal" in="SourceGraphic" in2="BackgroundImageFix" result="shape"/>
<feColorMatrix in="SourceAlpha" type="matrix" values="0 0 0 0 0 0 0 0 0 0 0 0 0 0 0 0 0 0 127 0" result="hardAlpha"/>
<feOffset dx="-24" dy="24"/>
<feGaussianBlur stdDeviation="8"/>
<feComposite in2="hardAlpha" operator="arithmetic" k2="-1" k3="1"/>
<feColorMatrix type="matrix" values="0 0 0 0 0 0 0 0 0 0 0 0 0 0 0 0 0 0 0.32 0"/>
<feBlend mode="normal" in2="shape" result="effect1_innerShadow_417_3457"/>
</filter>
<filter id="filter5_i_417_3457" x="144.138" y="36" width="140.139" height="178.499" filterUnits="userSpaceOnUse" color-interpolation-filters="sRGB">
<feFlood flood-opacity="0" result="BackgroundImageFix"/>
<feBlend mode="normal" in="SourceGraphic" in2="BackgroundImageFix" result="shape"/>
<feColorMatrix in="SourceAlpha" type="matrix" values="0 0 0 0 0 0 0 0 0 0 0 0 0 0 0 0 0 0 127 0" result="hardAlpha"/>
<feOffset dx="-24" dy="24"/>
<feGaussianBlur stdDeviation="8"/>
<feComposite in2="hardAlpha" operator="arithmetic" k2="-1" k3="1"/>
<feColorMatrix type="matrix" values="0 0 0 0 0 0 0 0 0 0 0 0 0 0 0 0 0 0 0.32 0"/>
<feBlend mode="normal" in2="shape" result="effect1_innerShadow_417_3457"/>
</filter>
<filter id="filter6_ii_417_3457" x="64.7988" y="64.7998" width="199.051" height="204.076" filterUnits="userSpaceOnUse" color-interpolation-filters="sRGB">
<feFlood flood-opacity="0" result="BackgroundImageFix"/>
<feBlend mode="normal" in="SourceGraphic" in2="BackgroundImageFix" result="shape"/>
<feColorMatrix in="SourceAlpha" type="matrix" values="0 0 0 0 0 0 0 0 0 0 0 0 0 0 0 0 0 0 127 0" result="hardAlpha"/>
<feOffset dx="8.375" dy="13.4"/>
<feGaussianBlur stdDeviation="8.375"/>
<feComposite in2="hardAlpha" operator="arithmetic" k2="-1" k3="1"/>
<feColorMatrix type="matrix" values="0 0 0 0 0.035 0 0 0 0 0.525 0 0 0 0 0.4662 0 0 0 1 0"/>
<feBlend mode="normal" in2="shape" result="effect1_innerShadow_417_3457"/>
<feColorMatrix in="SourceAlpha" type="matrix" values="0 0 0 0 0 0 0 0 0 0 0 0 0 0 0 0 0 0 127 0" result="hardAlpha"/>
<feOffset dy="1.675"/>
<feGaussianBlur stdDeviation="4.1875"/>
<feComposite in2="hardAlpha" operator="arithmetic" k2="-1" k3="1"/>
<feColorMatrix type="matrix" values="0 0 0 0 1 0 0 0 0 1 0 0 0 0 1 0 0 0 0.58 0"/>
<feBlend mode="normal" in2="effect1_innerShadow_417_3457" result="effect2_innerShadow_417_3457"/>
</filter>
<filter id="filter7_f_417_3457" x="10" y="10" width="300" height="300" filterUnits="userSpaceOnUse" color-interpolation-filters="sRGB">
<feFlood flood-opacity="0" result="BackgroundImageFix"/>
<feBlend mode="normal" in="SourceGraphic" in2="BackgroundImageFix" result="shape"/>
<feGaussianBlur stdDeviation="50" result="effect1_foregroundBlur_417_3457"/>
</filter>
<filter id="filter8_i_417_3457" x="114.568" y="130.338" width="92.1113" height="68.1401" filterUnits="userSpaceOnUse" color-interpolation-filters="sRGB">
<feFlood flood-opacity="0" result="BackgroundImageFix"/>
<feBlend mode="normal" in="SourceGraphic" in2="BackgroundImageFix" result="shape"/>
<feColorMatrix in="SourceAlpha" type="matrix" values="0 0 0 0 0 0 0 0 0 0 0 0 0 0 0 0 0 0 127 0" result="hardAlpha"/>
<feOffset dy="4"/>
<feGaussianBlur stdDeviation="2"/>
<feComposite in2="hardAlpha" operator="arithmetic" k2="-1" k3="1"/>
<feColorMatrix type="matrix" values="0 0 0 0 0 0 0 0 0 0 0 0 0 0 0 0 0 0 0.25 0"/>
<feBlend mode="normal" in2="shape" result="effect1_innerShadow_417_3457"/>
</filter>
<radialGradient id="paint0_radial_417_3457" cx="0" cy="0" r="1" gradientUnits="userSpaceOnUse" gradientTransform="translate(210.592 113.376) rotate(110.973) scale(254.973)">
<stop stop-color="#C958F1"/>
<stop offset="1" stop-color="#000210" stop-opacity="0"/>
</radialGradient>
<radialGradient id="paint1_radial_417_3457" cx="0" cy="0" r="1" gradientUnits="userSpaceOnUse" gradientTransform="translate(210.786 113.462) rotate(110.973) scale(255.257)">
<stop stop-color="#14A5AE"/>
<stop offset="1" stop-color="#000210" stop-opacity="0"/>
</radialGradient>
<linearGradient id="paint2_linear_417_3457" x1="27.1724" y1="32.1379" x2="284.276" y2="284.276" gradientUnits="userSpaceOnUse">
<stop stop-color="#14A5AE"/>
<stop offset="1" stop-color="#145F69"/>
</linearGradient>
<radialGradient id="paint3_radial_417_3457" cx="0" cy="0" r="1" gradientUnits="userSpaceOnUse" gradientTransform="translate(210.786 113.462) rotate(110.973) scale(255.257)">
<stop stop-color="#14A5AE"/>
<stop offset="1" stop-color="#000210" stop-opacity="0"/>
</radialGradient>
<linearGradient id="paint4_linear_417_3457" x1="27.1724" y1="32.1379" x2="284.276" y2="284.276" gradientUnits="userSpaceOnUse">
<stop stop-color="#14A5AE"/>
<stop offset="1" stop-color="#145F69"/>
</linearGradient>
<radialGradient id="paint5_radial_417_3457" cx="0" cy="0" r="1" gradientUnits="userSpaceOnUse" gradientTransform="translate(210.786 113.462) rotate(110.973) scale(255.257)">
<stop stop-color="#14A5AE"/>
<stop offset="1" stop-color="#000210" stop-opacity="0"/>
</radialGradient>
<linearGradient id="paint6_linear_417_3457" x1="27.1724" y1="32.1379" x2="284.276" y2="284.276" gradientUnits="userSpaceOnUse">
<stop stop-color="#14A5AE"/>
<stop offset="1" stop-color="#145F69"/>
</linearGradient>
<radialGradient id="paint7_radial_417_3457" cx="0" cy="0" r="1" gradientUnits="userSpaceOnUse" gradientTransform="translate(210.786 113.462) rotate(110.973) scale(255.257)">
<stop stop-color="#14A5AE"/>
<stop offset="1" stop-color="#000210" stop-opacity="0"/>
</radialGradient>
<linearGradient id="paint8_linear_417_3457" x1="27.1724" y1="32.1379" x2="284.276" y2="284.276" gradientUnits="userSpaceOnUse">
<stop stop-color="#14A5AE"/>
<stop offset="1" stop-color="#145F69"/>
</linearGradient>
<radialGradient id="paint9_radial_417_3457" cx="0" cy="0" r="1" gradientUnits="userSpaceOnUse" gradientTransform="translate(210.786 113.462) rotate(110.973) scale(255.257)">
<stop stop-color="#14A5AE"/>
<stop offset="1" stop-color="#000210" stop-opacity="0"/>
</radialGradient>
<linearGradient id="paint10_linear_417_3457" x1="27.1724" y1="32.1379" x2="284.276" y2="284.276" gradientUnits="userSpaceOnUse">
<stop stop-color="#14A5AE"/>
<stop offset="1" stop-color="#145F69"/>
</linearGradient>
<radialGradient id="paint11_radial_417_3457" cx="0" cy="0" r="1" gradientUnits="userSpaceOnUse" gradientTransform="translate(199.035 124.291) rotate(110.973) scale(196.037)">
<stop stop-color="#14A5AE"/>
<stop offset="1" stop-color="#000210" stop-opacity="0"/>
</radialGradient>
<linearGradient id="paint12_linear_417_3457" x1="160" y1="110" x2="160" y2="210" gradientUnits="userSpaceOnUse">
<stop stop-color="#00F0FF"/>
<stop offset="1" stop-color="#333399"/>
</linearGradient>
<clipPath id="clip0_417_3457">
<rect width="320" height="320" fill="white"/>
</clipPath>
</defs>
</svg>
