<svg width="56" height="56" viewBox="0 0 56 56" fill="none" xmlns="http://www.w3.org/2000/svg">
<path fill-rule="evenodd" clip-rule="evenodd" d="M36.6809 54.6283C47.8955 50.9747 56 40.4338 56 28C56 12.536 43.464 0 28 0C12.536 0 0 12.536 0 28C0 36.1727 3.50146 43.5276 9.08607 48.6464C11.9827 51.284 15.4434 53.3285 19.2698 54.5844C20.6763 54.8379 21.1889 53.9821 21.1889 53.2471C21.1889 52.9429 21.1837 52.4054 21.1767 51.6862L21.1767 51.6856C21.1687 50.8522 21.1583 49.775 21.1509 48.5342C13.3315 50.2084 11.6817 44.8183 11.6817 44.8183C10.4029 41.6179 8.55985 40.7655 8.55985 40.7655C6.00747 39.0453 8.75314 39.0794 8.75314 39.0794C11.5747 39.2767 13.0589 41.9361 13.0589 41.9361C15.5664 46.1709 19.6391 44.9476 21.2406 44.2398C21.496 42.4482 22.2209 41.2266 23.0251 40.5341C16.783 39.8348 10.22 37.4562 10.22 26.836C10.22 23.8108 11.3159 21.337 13.1141 19.399C12.8242 18.6981 11.8595 15.8805 13.3885 12.0642C13.3885 12.0642 15.7493 11.319 21.1198 14.9056C23.3616 14.2914 25.7673 13.9834 28.1574 13.9732C30.5441 13.9834 32.9498 14.2914 35.195 14.9056C40.5621 11.319 42.9177 12.0642 42.9177 12.0642C44.4519 15.8805 43.4872 18.6981 43.1973 19.399C44.999 21.337 46.0879 23.8108 46.0879 26.836C46.0879 37.4834 39.5146 39.8263 33.2518 40.512C34.2614 41.3678 35.1605 43.059 35.1605 45.6452C35.1605 48.1223 35.1451 50.2798 35.1348 51.7091V51.7096C35.1298 52.4172 35.126 52.9462 35.126 53.2471C35.126 53.9193 35.5412 54.6907 36.6809 54.6283ZM28.0779 55.9999C20.8415 55.9804 14.2481 53.2652 9.27632 48.8192C14.2368 53.2833 20.8011 56 28 56C28.026 56 28.052 56 28.0779 55.9999Z" fill="white"/>
</svg>
