<svg width="360" height="129" viewBox="0 0 360 129" fill="none" xmlns="http://www.w3.org/2000/svg">
<g opacity="0.8" clip-path="url(#clip0_119_2890)">
<path d="M99.2268 38.7766C85.9703 31.2285 72.7398 23.6363 59.5355 16H58.0666C57.8957 16.2634 57.6842 16.498 57.4398 16.6951C44.5587 24.0931 31.6645 31.4732 18.7572 38.8353C17.205 39.7165 16.4901 40.6807 16.4999 42.5947C16.5978 57.3483 16.5978 72.1053 16.4999 86.8654C16.4999 88.7109 17.2344 89.6066 18.6691 90.429C31.2826 97.6491 43.9009 104.864 56.4507 112.197C58.3065 113.279 59.751 113.25 61.5186 112.227C74.1778 104.913 86.8516 97.6328 99.5401 90.3849C101.038 89.5332 101.597 88.5101 101.587 86.7381C101.502 72.053 101.502 57.3777 101.587 42.7122C101.611 40.6905 100.862 39.7116 99.2268 38.7766ZM95.3732 87.8052C83.6215 94.5212 71.9041 101.369 60.1916 108.193C59.8545 108.418 59.4584 108.538 59.0532 108.538C58.648 108.538 58.2519 108.418 57.9148 108.193C45.9803 101.265 34.036 94.3548 22.082 87.4626C21.0341 86.8605 20.9019 86.1214 20.9068 85.0885C20.9264 71.4705 20.9264 57.8509 20.9068 44.2296C20.9068 43.2115 20.9998 42.4576 22.0624 41.8457C34.0327 34.9731 45.982 28.0613 57.9099 21.1104C58.246 20.8854 58.6414 20.7653 59.0459 20.7653C59.4504 20.7653 59.8458 20.8854 60.1819 21.1104C72.1196 28.0385 84.0671 34.9471 96.0245 41.836C97.2241 42.5213 97.1801 43.4073 97.1801 44.4646C97.1801 51.2753 97.1801 58.0842 97.1801 64.8916C97.1801 71.4607 97.1359 78.025 97.2094 84.5941C97.2241 86.1703 96.8226 86.978 95.3732 87.8052Z" fill="white"/>
<path d="M343.5 59.9229C343.534 58.4985 342.55 57.8719 341.806 58.4544C339.769 60.104 338.031 58.288 336.175 58.3712C335.362 58.4012 334.564 58.6031 333.834 58.9635C330.529 60.5789 329.232 65.0921 331.029 68.6507C332.742 72.0479 335.861 72.8165 339.94 70.8242C340.322 72.4885 340.014 73.8738 338.437 74.7891C335.93 76.2576 334.06 74.471 331.93 73.4968C331.729 74.4122 330.098 74.9164 331.171 76.1647C333.996 79.4443 340.082 78.7052 342.09 74.8675L342.579 73.9472C343.309 73.4185 343.48 72.694 343.476 71.8276C343.446 67.8675 343.422 63.8928 343.5 59.9229ZM340.112 64.7103C339.979 66.6144 340.445 68.6263 337.972 69.4193L336.346 69.4486C334.358 68.5235 333.075 67.1675 333.271 64.7935C333.457 62.5564 335.073 61.0879 337.296 61.1956C339.597 61.3033 340.268 62.5222 340.112 64.7103Z" fill="white"/>
<path d="M242.749 61.5236C241.559 61.0097 240.34 60.5446 239.17 60.0062C238.239 59.5656 237.568 58.8607 237.755 57.7153C237.955 56.4817 238.837 55.9727 239.978 55.816C241.936 55.5468 243.405 56.2419 243.787 58.2635C244.022 59.5901 244.894 59.1495 245.609 59.2425C246.549 59.3453 246.71 58.7188 246.612 58.0041C246.412 56.5356 247.102 54.9936 246.255 53.5985L245.765 53.5252C244.091 53.8678 242.543 53.5251 240.869 53.1139C238.259 52.4384 236.09 53.9069 235.052 56.4132C234.64 57.3922 234.405 58.3467 234.998 59.3502C235.184 61.4551 236.819 62.2579 238.425 63.0264C239.738 63.6578 241.167 64.0543 242.455 64.7298C243.743 65.4054 244.365 66.4676 243.924 67.9655C243.435 69.5466 242.152 69.7424 240.81 69.6836C238.998 69.6053 237.72 68.7046 237.265 66.8935C236.986 65.7774 236.217 65.9145 235.394 65.9145C234.175 65.9145 234.493 66.8152 234.474 67.476C234.435 68.5284 234.425 69.5809 234.474 70.6333C234.498 71.1228 234.136 71.9011 234.964 72.0137C235.644 72.1067 236.687 72.4493 236.961 71.72C237.28 70.8829 237.314 70.9759 238.019 71.3577C241.554 73.2766 245.227 72.42 246.563 69.4683C248.057 66.169 246.603 63.1635 242.749 61.5236Z" fill="white"/>
<path d="M134.737 54.842C134.737 53.584 134.247 53.3735 133.15 53.3735C132.053 53.3735 131.417 53.5351 131.554 54.842C131.596 55.6573 131.596 56.4743 131.554 57.2896C131.554 61.2937 131.554 61.2056 127.637 61.2839C125.84 61.3231 125.531 60.6867 125.511 59.0714C125.511 57.2455 126.177 55.312 125.022 53.5693H124.532C123.22 53.2659 122.431 53.3637 122.466 55.121C122.58 60.2217 122.58 65.3256 122.466 70.4327C122.431 72.1851 123.22 72.288 124.532 71.9845H125.022C126.177 70.8586 125.511 69.4439 125.511 68.1859C125.614 63.5063 125.551 63.5454 130.168 63.9077C131.201 63.986 131.608 64.2845 131.568 65.337C131.505 67.1188 131.627 68.9006 131.529 70.6775C131.461 71.9404 132.048 72.146 133.121 72.146C134.193 72.146 134.737 71.9845 134.722 70.7069C134.663 65.3843 134.668 60.096 134.737 54.842ZM124.64 64.0741H124.596C124.322 64.2454 124.547 63.7461 124.64 64.0643V64.0741Z" fill="white"/>
<path d="M146.028 58.4645C142.498 57.8134 138.894 59.8693 137.875 63.1098C137.422 64.4619 137.386 65.9187 137.771 67.2916C138.156 68.6645 138.944 69.8902 140.035 70.8097C142.527 72.8069 146.65 73.0468 149.431 71.2992C150.107 70.8734 151.145 70.5846 150.303 69.3119C149.583 68.2252 149.064 68.3622 148.016 68.9153C144.809 70.6139 141.934 69.7035 140.764 66.6049H150.498C151.204 66.6049 151.904 66.7811 151.933 65.5818C152.021 62.4441 149.294 59.0714 146.028 58.4645ZM140.759 63.849C142.85 60.3882 146.145 60.3686 148.491 63.6189C145.935 64.0693 143.501 63.7658 140.759 63.8392V63.849Z" fill="white"/>
<path d="M278.939 67.0109V64.5634C278.939 60.1579 276.941 58.2488 272.5 58.3761C271.04 58.4716 269.607 58.8194 268.265 59.404C267.599 59.6586 266.551 59.825 267.285 61.0585C267.775 61.8711 268.04 62.5271 269.273 61.9544C270.904 61.2103 272.701 60.8334 274.498 61.411C275.218 61.6362 275.967 62.1306 275.874 62.9138C275.766 63.7704 274.855 63.4963 274.253 63.4963C271.952 63.4963 269.709 63.6578 267.741 65.0725C266.301 66.1054 265.939 67.52 266.189 69.1304C266.414 70.6479 267.374 71.578 268.774 72.0675C270.835 72.8066 272.774 72.4297 274.62 71.3822C275.174 71.0689 275.678 69.8843 276.089 71.6172C276.295 72.4542 277.534 71.9843 278.293 71.9549C279.14 71.9206 278.905 71.157 278.915 70.6382C278.954 69.4389 278.939 68.2249 278.939 67.0109ZM274.635 68.7389C273.166 69.7619 271.545 70.0801 269.851 69.2969C269.698 69.24 269.557 69.1523 269.439 69.0392C269.32 68.9261 269.226 68.79 269.161 68.6393C269.097 68.4885 269.065 68.3263 269.065 68.1624C269.066 67.9986 269.1 67.8366 269.166 67.6864C270.052 65.606 272.104 66.1151 273.509 65.7284C274.488 65.9389 275.58 65.376 275.889 66.3403C276.197 67.3046 275.438 68.1759 274.635 68.7389Z" fill="white"/>
<path d="M212.479 64.7546C210.594 64.2651 208.669 63.9616 206.769 63.5455C206.133 63.4085 205.398 63.1784 205.477 62.3805C205.54 61.7686 206.196 61.5532 206.764 61.4015C208.557 60.9903 210.378 60.9707 212.013 61.8127C213.238 62.4441 213.517 61.8127 213.972 60.9609C214.496 59.9819 213.864 59.6588 213.164 59.3553C210.53 58.1903 207.827 57.9505 205.124 59.042C203.445 59.7225 202.186 60.8288 202.333 62.8651C202.475 64.784 203.802 65.6993 205.457 66.1301C207.112 66.5609 208.953 66.8447 210.691 67.2461C211.304 67.3881 212.092 67.5692 212.023 68.3965C211.955 69.1454 211.245 69.3755 210.589 69.493C208.335 69.9484 205.992 69.5838 203.983 68.465C203.165 68 202.813 68.279 202.549 69.0181C202.333 69.63 201.569 70.1342 202.456 70.893C205.217 73.2866 212.17 72.8069 214.521 70.0069C215.431 68.6706 215.426 67.3685 214.379 66.0909C214.036 65.2685 213.233 64.9455 212.479 64.7546Z" fill="white"/>
<path d="M290.838 63.1636C292.41 61.9985 293.776 60.5496 295.401 59.0615C289.873 56.8294 289.06 62.3265 285.897 63.8391C285.897 61.465 285.98 59.2769 285.863 57.0986C285.799 55.914 286.465 54.5874 285.373 53.535H284.884C283.566 53.2266 282.808 53.3588 282.847 55.0966C282.954 60.1907 282.954 65.2864 282.847 70.3837C282.808 72.1215 283.566 72.2585 284.884 71.9501H285.373C286.465 71.3725 285.804 70.3789 285.863 69.6054C285.941 68.6264 285.863 67.4908 286.94 67.1285C287.919 66.8006 288.189 67.9362 288.708 68.4845C289.347 69.1098 289.922 69.7986 290.422 70.5404C291.646 72.4984 293.33 72.2292 295.387 71.7984C293.727 69.953 292.346 68.2446 290.774 66.737C289.388 65.3713 289.129 64.4265 290.838 63.1636ZM284.933 68.3376C284.933 68.3768 284.962 68.416 284.977 68.4502C284.991 68.4845 284.977 68.4502 284.977 68.4502C284.663 68.6118 284.903 68.1174 284.933 68.3279V68.3376Z" fill="white"/>
<path d="M193.789 58.4303C190.097 57.9408 187.11 59.8058 186.14 63.1981C185.768 63.8715 185.57 64.6275 185.565 65.3971C185.559 66.1667 185.747 66.9253 186.111 67.6036C187.056 71.0889 190.106 72.9882 193.945 72.4253C197.461 71.9357 199.821 69.1505 199.865 65.5037C199.941 63.7734 199.355 62.0792 198.227 60.7653C197.098 59.4514 195.511 58.6165 193.789 58.4303ZM192.76 69.6889C190.39 69.7183 188.686 68.0148 188.628 65.5673C188.569 63.1198 190.386 61.1618 192.79 61.2058C193.337 61.2185 193.875 61.3389 194.376 61.5602C194.876 61.7815 195.327 62.0993 195.705 62.4954C196.082 62.8915 196.377 63.3581 196.573 63.8684C196.77 64.3787 196.863 64.9228 196.849 65.4694C196.862 66.0155 196.766 66.5587 196.567 67.0673C196.367 67.5759 196.069 68.0397 195.688 68.4317C195.307 68.8236 194.852 69.1357 194.35 69.3499C193.847 69.5641 193.307 69.676 192.76 69.6791V69.6889Z" fill="white"/>
<path d="M263.119 67.726C262.32 67.4225 261.307 66.747 260.749 68.2742C260.337 69.3805 259.319 69.7428 258.158 69.64C257.748 69.6343 257.35 69.4944 257.027 69.2416C256.703 68.9888 256.471 68.637 256.366 68.24C256.215 67.6118 256.145 66.9671 256.156 66.3211C256.156 64.7204 255.735 62.8065 256.459 61.6072C257.12 60.5107 259.157 61.2499 260.582 61.2254C261.757 61.2254 261.86 60.638 261.86 59.6982C261.86 58.7583 261.625 58.3129 260.641 58.3912C260.235 58.4206 259.828 58.3912 259.422 58.3912C256.21 58.3912 256.092 58.3912 256.19 55.2633C256.244 53.5108 255.602 53.1095 254.07 53.506H253.58C252.562 54.485 253.208 55.7479 253.164 56.859C253.12 57.9702 252.909 58.538 251.695 58.3765C250.667 58.2345 250.05 58.4548 250.055 59.752C250.06 61.0492 250.588 61.3331 251.656 61.1618C253.125 60.9268 253.159 61.8275 253.125 62.8897C253.091 64.5051 253.056 66.1302 253.174 67.7358C253.254 68.877 253.717 69.9577 254.489 70.8027C255.26 71.6477 256.294 72.2073 257.424 72.391C259.76 72.7973 262.257 71.6861 263.163 69.6694C263.437 69.1407 264.47 68.2253 263.119 67.726ZM254.153 58.3667C254.098 58.2062 254.053 58.0428 254.016 57.8772C254.029 57.8813 254.042 57.8813 254.055 57.8772C254.334 57.7059 254.129 58.2149 254.163 58.3667H254.153Z" fill="white"/>
<path d="M180.25 69.3805C178.12 69.733 178.086 68.4798 178.174 66.933C178.257 65.4645 178.174 63.996 178.174 62.5618C178.174 57.8968 178.174 57.9311 173.493 58.352C172.572 58.4353 172.166 58.6604 172.21 59.6198C172.249 60.4618 172.141 61.3772 173.409 61.1667C175.206 60.8681 175.148 61.9793 175.108 63.1932C174.996 64.4831 174.996 65.7802 175.108 67.0701C175.378 68.9008 174.619 69.5519 172.9 69.4833C171.828 70.2861 171.847 71.0938 172.9 71.9309C175.255 71.9651 177.615 71.97 179.971 72.0483C180.891 72.0777 181.327 71.8036 181.224 70.8246C181.195 70.1148 181.44 69.1847 180.25 69.3805Z" fill="white"/>
<path d="M308.348 69.3805C306.389 69.684 306.306 68.5092 306.414 67.0749C306.492 66.0274 306.414 64.975 306.414 63.9275C306.414 58.122 306.414 58.1219 301.924 58.3912C301.842 58.3985 301.76 58.3985 301.679 58.3912C300.699 58.2737 300.42 58.7583 300.445 59.6687C300.469 60.5792 300.445 61.382 301.674 61.1813C303.407 60.8974 303.471 61.9205 303.402 63.1883C303.326 64.4779 303.326 65.7707 303.402 67.0602C303.49 68.4994 303.427 69.6595 301.444 69.3854C300.264 69.2189 300.489 70.1343 300.464 70.8539C300.44 71.5735 300.587 72.0679 301.498 72.0532C303.765 72.014 306.037 71.9994 308.304 72.0532C309.337 72.0532 309.498 71.6028 309.489 70.7364C309.479 69.87 309.381 69.2238 308.348 69.3805Z" fill="white"/>
<path d="M162.093 66.7273C162.304 63.1295 162.201 59.5072 162.118 55.8995C162.118 55.1261 162.696 54.1568 161.697 53.5303H161.207H156.8C155.89 54.338 155.909 55.1457 156.8 55.9485C158.666 55.8163 159.288 56.6044 159.16 58.5036C158.974 61.3283 158.974 64.1621 159.16 66.9868C159.288 68.886 158.671 69.6594 156.805 69.5224C155.914 70.3301 155.894 71.1378 156.805 71.9405H164.639C165.55 71.1378 165.531 70.3301 164.639 69.5224C162.568 69.6741 161.976 68.793 162.093 66.7273Z" fill="white"/>
<path d="M176.519 57.2897C178.149 57.6569 178.556 56.9568 178.551 55.3758C178.546 53.7947 178.149 53.3394 176.553 53.359C174.957 53.3786 174.462 53.7115 174.487 55.3513C174.516 56.8786 174.854 57.6373 176.519 57.2897Z" fill="white"/>
<path d="M304.861 57.363C306.419 57.363 307.177 56.986 306.771 55.3315C307.197 53.6476 306.365 53.3735 304.847 53.3441C303.329 53.3147 302.834 53.7651 302.834 55.3413C302.834 56.9175 303.27 57.3825 304.861 57.363Z" fill="white"/>
<path d="M326.475 61.2348C324.971 57.5929 321.211 57.3187 318.552 60.6914C317.519 60.2558 318.836 58.7922 317.573 58.4593C316.77 58.5474 315.864 57.9453 315.183 58.8166C314.772 62.9236 315.105 67.0403 315.012 71.1521C315.012 71.5927 315.134 71.9402 315.678 71.9207C316.322 72.1027 317.007 72.0787 317.637 71.8521C318.435 69.1697 317.735 66.399 318.126 63.6872C318.851 61.7292 320.427 61.0047 322.308 61.3033C324.266 61.6117 324.017 63.3397 324.017 64.7837C324.017 66.6389 324.134 68.499 323.982 70.3396C323.845 72.0333 324.614 72.2535 325.966 71.9207C326.362 71.9745 326.945 72.0773 326.945 71.5731C326.867 68.1221 327.581 64.632 326.475 61.2348Z" fill="white"/>
<path d="M80.1548 68.1419C80.2136 67.4615 80.2381 66.8007 79.4008 66.6244C76.4335 66.0028 76.2474 63.8686 76.4629 61.4504C76.551 60.4714 76.4041 59.4924 76.4922 58.5134C76.6147 57.1868 76.0564 56.4281 74.8813 55.8603C72.9863 54.9449 71.1551 53.9022 69.3042 52.9232C68.036 52.2379 67.0762 51.3911 67.3896 49.7121C67.5512 48.8212 67.4288 48.0478 66.3565 47.5485C64.2314 46.5695 62.1993 45.3751 60.1378 44.2541C59.467 43.8919 58.8794 43.7108 58.1156 44.1612C56.0296 45.3898 53.8898 46.5304 51.7501 47.6954C51.0743 48.0625 50.4623 48.4786 50.6581 49.3597C51.1968 51.8072 49.5123 52.7471 47.7643 53.3981C43.093 55.1309 40.3216 57.8966 41.5555 63.2811C41.7514 64.128 41.7611 65.3321 40.7329 65.5916C37.6383 66.3748 38.2357 68.7098 38.0055 70.9468C37.6187 74.6915 38.3581 77.5551 42.3635 78.7788C44.3221 79.3858 45.8351 82.0389 48.4009 80.0564C48.5869 79.9145 49.2528 80.3355 49.6641 80.5459C50.7365 81.104 51.9411 81.5249 52.8273 82.3032C57.5035 86.42 61.7831 84.9857 66.1753 81.7403C67.5904 80.6928 69.2748 79.1411 71.3607 80.8152C71.7769 81.153 72.0658 80.727 72.4086 80.5263C73.5886 79.8264 74.7295 78.955 76.0075 78.5683C79.6015 77.4082 80.762 75.0439 79.9002 71.8279C80.0128 70.3936 80.0618 69.2678 80.1548 68.1419ZM60.1672 58.6652C59.9469 52.8499 59.0312 53.6575 64.9315 51.1121C65.3722 56.6337 65.0687 57.0988 60.1672 58.6652ZM63.5948 48.8115C60.6569 51.7876 57.5965 51.8072 54.5019 48.7821C59.9371 45.6982 58.0568 45.5416 63.5752 48.8115H63.5948ZM53.1554 51.3177C57.7581 52.2967 58.3947 53.2757 57.9491 58.8218C52.7539 56.526 52.7539 56.526 53.1358 51.3177H53.1554ZM45.223 76.346C45.1496 76.9041 45.2671 77.511 44.3221 77.325C43.2332 77.0527 42.265 76.4276 41.5688 75.5474C40.8726 74.6672 40.4874 73.5814 40.4734 72.4593V70.0657C44.7334 71.26 45.7127 72.6209 45.223 76.346ZM41.8689 67.7895C47.446 64.4951 45.5364 64.2504 50.9128 67.7405C47.9063 70.6384 44.8313 70.6677 41.8591 67.7895H41.8689ZM47.4705 77.9173V75.6118C47.4705 72.2538 48.4156 71.0055 51.6718 70.144C51.956 70.0411 52.2694 70.0552 52.5433 70.1831C53.1358 70.6971 52.4307 74.9656 51.7011 75.4991C51.5111 75.6416 51.3115 75.7708 51.1038 75.8859C49.9922 76.5075 48.8856 77.1194 47.4607 77.9173H47.4705ZM60.0105 82.6214C59.7063 82.8128 59.3521 82.9093 58.9929 82.8989C58.6337 82.8884 58.2857 82.7714 57.9931 82.5627C55.7456 81.29 53.4884 80.0369 51.2311 78.769C52.0488 77.0362 54.8888 77.6187 54.9524 75.3964C55.0259 72.6551 55.4421 69.7132 54.595 67.2461C54.1053 65.8168 51.4269 65.0531 49.6397 64.1867C47.8525 63.3203 46.2121 61.5434 44.3172 63.6972C42.0892 57.7008 46.8438 56.5945 50.3938 54.5925C51.2752 55.5421 49.9041 57.2701 51.3731 57.97C54.0025 59.1938 56.2696 61.5091 59.1292 61.749C61.0878 61.9105 62.7722 59.8399 64.7063 59.0959C66.8755 58.2539 67.938 56.9518 67.4435 54.5092C74.2692 58.1707 74.2692 58.1708 74.088 63.6189C71.7279 62.5224 64.8973 64.8182 63.536 67.3489C62.4441 69.3804 63.5017 71.8279 63.0855 74.0257C62.4784 77.2173 65.6856 77.0019 67.0028 78.7103C64.6328 80.0173 62.2972 81.2753 60.0008 82.6214H60.0105ZM70.5478 77.7606C64.6377 74.4369 65.333 76.2628 65.6513 70.1097C70.4793 71.3139 70.8269 71.8425 70.538 77.7606H70.5478ZM67.1692 67.7014C71.865 64.6958 71.865 64.6958 76.3845 67.7895C73.3095 70.3055 70.2394 70.9957 67.1595 67.7014H67.1692ZM77.638 72.3615C77.6983 73.4924 77.3518 74.6076 76.6612 75.5054C75.9706 76.4032 74.9815 77.0243 73.8726 77.2565C73.5396 77.3446 73.2409 77.4082 73.001 77.1341C72.3498 76.395 73.1136 72.1754 73.9803 71.6908C75.0771 71.079 76.1837 70.4915 77.6331 69.7034L77.638 72.3615Z" fill="white"/>
</g>
<defs>
<clipPath id="clip0_119_2890">
<rect width="327" height="97" fill="white" transform="translate(16.5 16)"/>
</clipPath>
</defs>
</svg>
