<svg width="56" height="56" viewBox="0 0 56 56" fill="none" xmlns="http://www.w3.org/2000/svg">
<path fill-rule="evenodd" clip-rule="evenodd" d="M28 56C43.464 56 56 43.464 56 28C56 12.536 43.464 0 28 0C12.536 0 0 12.536 0 28C0 43.464 12.536 56 28 56ZM34.7883 14.3247C33.0169 14.2439 32.4855 14.2267 27.9997 14.2267C23.5139 14.2267 22.9826 14.2439 21.2111 14.3247C19.5731 14.3994 18.6835 14.6731 18.0915 14.9031C17.3074 15.2079 16.7477 15.5719 16.1599 16.1599C15.572 16.7477 15.2079 17.3073 14.9031 18.0915C14.6731 18.6835 14.3994 19.5731 14.3247 21.211C14.2439 22.9825 14.2267 23.5139 14.2267 27.9996C14.2267 32.4854 14.2439 33.0168 14.3247 34.7883C14.3994 36.4262 14.6731 37.3158 14.9031 37.9078C15.2079 38.692 15.572 39.2516 16.1599 39.8394C16.7477 40.4274 17.3074 40.7914 18.0915 41.0962C18.6835 41.3262 19.5731 41.5999 21.2111 41.6746C22.9824 41.7554 23.5136 41.7726 27.9997 41.7726C32.4858 41.7726 33.0171 41.7554 34.7883 41.6746C36.4263 41.5999 37.3159 41.3262 37.9079 41.0962C38.692 40.7914 39.2517 40.4274 39.8396 39.8394C40.4275 39.2516 40.7915 38.692 41.0963 37.9078C41.3263 37.3158 41.6 36.4262 41.6747 34.7883C41.7555 33.0168 41.7727 32.4854 41.7727 27.9996C41.7727 23.5139 41.7555 22.9825 41.6747 21.211C41.6 19.5731 41.3263 18.6835 41.0963 18.0915C40.7915 17.3073 40.4275 16.7477 39.8395 16.1598C39.2517 15.5719 38.692 15.2079 37.9079 14.9031C37.3159 14.6731 36.4263 14.3994 34.7883 14.3247ZM21.0731 11.3008C22.865 11.219 23.4371 11.1997 27.9997 11.1997C32.5623 11.1997 33.1344 11.219 34.9263 11.3008C36.7145 11.3824 37.9357 11.6664 39.0043 12.0816C40.1091 12.511 41.046 13.0854 41.98 14.0194C42.914 14.9534 43.4884 15.8903 43.9178 16.995C44.333 18.0636 44.617 19.2849 44.6986 21.0731C44.7804 22.8649 44.7997 23.4371 44.7997 27.9996C44.7997 32.5622 44.7804 33.1343 44.6986 34.9262C44.617 36.7144 44.333 37.9356 43.9178 39.0042C43.4884 40.109 42.914 41.0459 41.98 41.9799C41.046 42.9139 40.1091 43.4883 39.0043 43.9176C37.9357 44.3329 36.7145 44.6169 34.9263 44.6985C33.1344 44.7803 32.5623 44.7996 27.9997 44.7996C23.4371 44.7996 22.865 44.7803 21.0731 44.6985C19.2849 44.6169 18.0637 44.3329 16.9951 43.9176C15.8903 43.4883 14.9534 42.9139 14.0194 41.9799C13.0854 41.0459 12.511 40.109 12.0817 39.0042C11.6664 37.9356 11.3824 36.7144 11.3008 34.9262C11.219 33.1343 11.1997 32.5622 11.1997 27.9996C11.1997 23.4371 11.219 22.8649 11.3008 21.0731C11.3824 19.2849 11.6664 18.0636 12.0817 16.995C12.511 15.8903 13.0854 14.9534 14.0194 14.0194C14.9534 13.0854 15.8903 12.511 16.9951 12.0816C18.0637 11.6664 19.2849 11.3824 21.0731 11.3008ZM28.0077 19.3807C23.2431 19.3807 19.3807 23.2431 19.3807 28.0076C19.3807 32.7722 23.2431 36.6347 28.0077 36.6347C32.7723 36.6347 36.6347 32.7722 36.6347 28.0076C36.6347 23.2431 32.7723 19.3807 28.0077 19.3807ZM28.0077 33.6076C24.9149 33.6076 22.4077 31.1005 22.4077 28.0076C22.4077 24.9149 24.9149 22.4077 28.0077 22.4077C31.1005 22.4077 33.6077 24.9149 33.6077 28.0076C33.6077 31.1005 31.1005 33.6076 28.0077 33.6076ZM36.9749 21.0508C38.0883 21.0508 38.9909 20.1482 38.9909 19.0349C38.9909 17.9215 38.0883 17.0188 36.9749 17.0188C35.8615 17.0188 34.9589 17.9215 34.9589 19.0349C34.9589 20.1482 35.8615 21.0508 36.9749 21.0508Z" fill="white"/>
</svg>
