<svg width="38" height="38" viewBox="0 0 38 38" fill="none" xmlns="http://www.w3.org/2000/svg">
<path fill-rule="evenodd" clip-rule="evenodd" d="M37.3334 18.9998C37.3334 29.1251 29.1252 37.3332 19 37.3332C8.8748 37.3332 0.666687 29.1251 0.666687 18.9998C0.666687 8.87462 8.8748 0.666504 19 0.666504C29.1252 0.666504 37.3334 8.87462 37.3334 18.9998ZM14.2102 10.0934C14.2102 11.2347 13.3412 12.1584 11.9822 12.1584C10.6761 12.1584 9.80707 11.2347 9.83396 10.0934C9.80707 8.8966 10.6761 7.99984 12.0082 7.99984C13.3412 7.99984 14.1842 8.8966 14.2102 10.0934ZM9.94322 27.0831V13.7897H14.0749V27.0831H9.94322ZM17.2772 13.7915C17.3318 14.9605 17.3865 16.3742 17.3865 18.0324H17.3881V27.0857H21.5198V19.4191C21.5198 19.0376 21.5736 18.6577 21.6829 18.3854C21.9543 17.6248 22.6334 16.8364 23.7756 16.8364C25.2708 16.8364 25.8683 18.0047 25.8683 19.7183V27.0857H30V19.2006C30 15.2875 27.9611 13.4931 25.243 13.4931C23.041 13.4931 21.682 14.7698 21.1383 15.6127H21.0567L20.8659 13.7915H17.2772Z" fill="url(#paint0_linear_248_2149)"/>
<defs>
<linearGradient id="paint0_linear_248_2149" x1="0.666687" y1="0.666504" x2="37.3334" y2="37.3332" gradientUnits="userSpaceOnUse">
<stop stop-color="#973DDD"/>
<stop offset="1" stop-color="#CA3ADA"/>
</linearGradient>
</defs>
</svg>
