<svg width="20" height="20" viewBox="0 0 20 20" fill="none" xmlns="http://www.w3.org/2000/svg">
<path d="M14.709 18.824L20 20L18.824 14.709C19.5985 13.2604 20.0025 11.6426 20 10C20 4.477 15.523 0 9.99999 0C4.47699 0 -1.14441e-05 4.477 -1.14441e-05 10C-1.14441e-05 15.523 4.47699 20 9.99999 20C11.6426 20.0025 13.2604 19.5985 14.709 18.824ZM14.419 16.711L13.766 17.061C12.6074 17.6801 11.3136 18.0027 9.99999 18C8.41774 18 6.87102 17.5308 5.55543 16.6518C4.23983 15.7727 3.21445 14.5233 2.60895 13.0615C2.00345 11.5997 1.84502 9.99113 2.15371 8.43928C2.46239 6.88743 3.22431 5.46197 4.34313 4.34315C5.46195 3.22433 6.88742 2.4624 8.43927 2.15372C9.99111 1.84504 11.5996 2.00346 13.0615 2.60896C14.5233 3.21447 15.7727 4.23984 16.6517 5.55544C17.5308 6.87103 18 8.41775 18 10C18 11.334 17.675 12.618 17.06 13.766L16.711 14.419L17.366 17.366L14.419 16.711Z" fill="url(#paint0_linear_128_2532)"/>
<defs>
<linearGradient id="paint0_linear_128_2532" x1="20" y1="0" x2="-1.14441e-05" y2="20" gradientUnits="userSpaceOnUse">
<stop stop-color="#973DDD"/>
<stop offset="1" stop-color="#CA3ADA"/>
</linearGradient>
</defs>
</svg>
