<svg width="707" height="129" viewBox="0 0 707 129" fill="none" xmlns="http://www.w3.org/2000/svg">
<g opacity="0.8" clip-path="url(#clip0_137_2907)">
<path d="M99.2268 38.7766C85.9703 31.2285 72.7398 23.6363 59.5355 16H58.0666C57.8957 16.2634 57.6842 16.498 57.4398 16.6951C44.5587 24.0931 31.6645 31.4732 18.7572 38.8353C17.205 39.7165 16.4901 40.6807 16.4999 42.5947C16.5978 57.3483 16.5978 72.1053 16.4999 86.8654C16.4999 88.7109 17.2344 89.6066 18.6691 90.429C31.2826 97.6491 43.9009 104.864 56.4507 112.197C58.3065 113.279 59.751 113.25 61.5186 112.227C74.1778 104.913 86.8516 97.6328 99.5401 90.3849C101.038 89.5332 101.597 88.5101 101.587 86.7381C101.502 72.053 101.502 57.3777 101.587 42.7122C101.611 40.6905 100.862 39.7116 99.2268 38.7766ZM95.3732 87.8052C83.6215 94.5212 71.9041 101.369 60.1916 108.193C59.8545 108.418 59.4584 108.538 59.0532 108.538C58.648 108.538 58.2519 108.418 57.9148 108.193C45.9803 101.265 34.036 94.3548 22.082 87.4626C21.0341 86.8605 20.9019 86.1214 20.9068 85.0885C20.9264 71.4705 20.9264 57.8509 20.9068 44.2296C20.9068 43.2115 20.9998 42.4576 22.0624 41.8457C34.0327 34.9731 45.982 28.0613 57.9099 21.1104C58.246 20.8854 58.6414 20.7653 59.0459 20.7653C59.4504 20.7653 59.8458 20.8854 60.1819 21.1104C72.1196 28.0385 84.0671 34.9471 96.0245 41.836C97.2241 42.5213 97.1801 43.4073 97.1801 44.4646C97.1801 51.2753 97.1801 58.0842 97.1801 64.8916C97.1801 71.4607 97.1359 78.025 97.2094 84.5941C97.2241 86.1703 96.8226 86.978 95.3732 87.8052Z" fill="white"/>
<path d="M343.5 59.9229C343.534 58.4985 342.55 57.8719 341.806 58.4544C339.769 60.104 338.031 58.288 336.175 58.3712C335.362 58.4012 334.564 58.6031 333.834 58.9635C330.529 60.5789 329.232 65.0921 331.029 68.6507C332.742 72.0479 335.861 72.8165 339.94 70.8242C340.322 72.4885 340.014 73.8738 338.437 74.7891C335.93 76.2576 334.06 74.471 331.93 73.4968C331.729 74.4122 330.098 74.9164 331.171 76.1647C333.996 79.4443 340.082 78.7052 342.09 74.8675L342.579 73.9472C343.309 73.4185 343.48 72.694 343.476 71.8276C343.446 67.8675 343.422 63.8928 343.5 59.9229ZM340.112 64.7103C339.979 66.6144 340.445 68.6263 337.972 69.4193L336.346 69.4486C334.358 68.5235 333.075 67.1675 333.271 64.7935C333.457 62.5564 335.073 61.0879 337.296 61.1956C339.597 61.3033 340.268 62.5222 340.112 64.7103Z" fill="white"/>
<path d="M242.749 61.5236C241.559 61.0097 240.34 60.5446 239.17 60.0062C238.239 59.5656 237.568 58.8607 237.755 57.7153C237.955 56.4817 238.837 55.9727 239.978 55.816C241.936 55.5468 243.405 56.2419 243.787 58.2635C244.022 59.5901 244.894 59.1495 245.609 59.2425C246.549 59.3453 246.71 58.7188 246.612 58.0041C246.412 56.5356 247.102 54.9936 246.255 53.5985L245.765 53.5252C244.091 53.8678 242.543 53.5251 240.869 53.1139C238.259 52.4384 236.09 53.9069 235.052 56.4132C234.64 57.3922 234.405 58.3467 234.998 59.3502C235.184 61.4551 236.819 62.2579 238.425 63.0264C239.738 63.6578 241.167 64.0543 242.455 64.7298C243.743 65.4054 244.365 66.4676 243.924 67.9655C243.435 69.5466 242.152 69.7424 240.81 69.6836C238.998 69.6053 237.72 68.7046 237.265 66.8935C236.986 65.7774 236.217 65.9145 235.394 65.9145C234.175 65.9145 234.493 66.8152 234.474 67.476C234.435 68.5284 234.425 69.5809 234.474 70.6333C234.498 71.1228 234.136 71.9011 234.964 72.0137C235.644 72.1067 236.687 72.4493 236.961 71.72C237.28 70.8829 237.314 70.9759 238.019 71.3577C241.554 73.2766 245.227 72.42 246.563 69.4683C248.057 66.169 246.603 63.1635 242.749 61.5236Z" fill="white"/>
<path d="M134.737 54.842C134.737 53.584 134.247 53.3735 133.15 53.3735C132.053 53.3735 131.417 53.5351 131.554 54.842C131.596 55.6573 131.596 56.4743 131.554 57.2896C131.554 61.2937 131.554 61.2056 127.637 61.2839C125.84 61.3231 125.531 60.6867 125.511 59.0714C125.511 57.2455 126.177 55.312 125.022 53.5693H124.532C123.22 53.2659 122.431 53.3637 122.466 55.121C122.58 60.2217 122.58 65.3256 122.466 70.4327C122.431 72.1851 123.22 72.288 124.532 71.9845H125.022C126.177 70.8586 125.511 69.4439 125.511 68.1859C125.614 63.5063 125.551 63.5454 130.168 63.9077C131.201 63.986 131.608 64.2845 131.568 65.337C131.505 67.1188 131.627 68.9006 131.529 70.6775C131.461 71.9404 132.048 72.146 133.121 72.146C134.193 72.146 134.737 71.9845 134.722 70.7069C134.663 65.3843 134.668 60.096 134.737 54.842ZM124.64 64.0741H124.596C124.322 64.2454 124.547 63.7461 124.64 64.0643V64.0741Z" fill="white"/>
<path d="M146.028 58.4645C142.498 57.8134 138.894 59.8693 137.875 63.1098C137.422 64.4619 137.386 65.9187 137.771 67.2916C138.156 68.6645 138.944 69.8902 140.035 70.8097C142.527 72.8069 146.65 73.0468 149.431 71.2992C150.107 70.8734 151.145 70.5846 150.303 69.3119C149.583 68.2252 149.064 68.3622 148.016 68.9153C144.809 70.6139 141.934 69.7035 140.764 66.6049H150.498C151.204 66.6049 151.904 66.7811 151.933 65.5818C152.021 62.4441 149.294 59.0714 146.028 58.4645ZM140.759 63.849C142.85 60.3882 146.145 60.3686 148.491 63.6189C145.935 64.0693 143.501 63.7658 140.759 63.8392V63.849Z" fill="white"/>
<path d="M278.939 67.0109V64.5634C278.939 60.1579 276.941 58.2488 272.5 58.3761C271.04 58.4716 269.607 58.8194 268.265 59.404C267.599 59.6586 266.551 59.825 267.285 61.0585C267.775 61.8711 268.04 62.5271 269.273 61.9544C270.904 61.2103 272.701 60.8334 274.498 61.411C275.218 61.6362 275.967 62.1306 275.874 62.9138C275.766 63.7704 274.855 63.4963 274.253 63.4963C271.952 63.4963 269.709 63.6578 267.741 65.0725C266.301 66.1054 265.939 67.52 266.189 69.1304C266.414 70.6479 267.374 71.578 268.774 72.0675C270.835 72.8066 272.774 72.4297 274.62 71.3822C275.174 71.0689 275.678 69.8843 276.089 71.6172C276.295 72.4542 277.534 71.9843 278.293 71.9549C279.14 71.9206 278.905 71.157 278.915 70.6382C278.954 69.4389 278.939 68.2249 278.939 67.0109ZM274.635 68.7389C273.166 69.7619 271.545 70.0801 269.851 69.2969C269.698 69.24 269.557 69.1523 269.439 69.0392C269.32 68.9261 269.226 68.79 269.161 68.6393C269.097 68.4885 269.065 68.3263 269.065 68.1624C269.066 67.9986 269.1 67.8366 269.166 67.6864C270.052 65.606 272.104 66.1151 273.509 65.7284C274.488 65.9389 275.58 65.376 275.889 66.3403C276.197 67.3046 275.438 68.1759 274.635 68.7389Z" fill="white"/>
<path d="M212.479 64.7546C210.594 64.2651 208.669 63.9616 206.769 63.5455C206.133 63.4085 205.398 63.1784 205.477 62.3805C205.54 61.7686 206.196 61.5532 206.764 61.4015C208.557 60.9903 210.378 60.9707 212.013 61.8127C213.238 62.4441 213.517 61.8127 213.972 60.9609C214.496 59.9819 213.864 59.6588 213.164 59.3553C210.53 58.1903 207.827 57.9505 205.124 59.042C203.445 59.7225 202.186 60.8288 202.333 62.8651C202.475 64.784 203.802 65.6993 205.457 66.1301C207.112 66.5609 208.953 66.8447 210.691 67.2461C211.304 67.3881 212.092 67.5692 212.023 68.3965C211.955 69.1454 211.245 69.3755 210.589 69.493C208.335 69.9484 205.992 69.5838 203.983 68.465C203.165 68 202.813 68.279 202.549 69.0181C202.333 69.63 201.569 70.1342 202.456 70.893C205.217 73.2866 212.17 72.8069 214.521 70.0069C215.431 68.6706 215.426 67.3685 214.379 66.0909C214.036 65.2685 213.233 64.9455 212.479 64.7546Z" fill="white"/>
<path d="M290.838 63.1636C292.41 61.9985 293.776 60.5496 295.401 59.0615C289.873 56.8294 289.06 62.3265 285.897 63.8391C285.897 61.465 285.98 59.2769 285.863 57.0986C285.799 55.914 286.465 54.5874 285.373 53.535H284.884C283.566 53.2266 282.808 53.3588 282.847 55.0966C282.954 60.1907 282.954 65.2864 282.847 70.3837C282.808 72.1215 283.566 72.2585 284.884 71.9501H285.373C286.465 71.3725 285.804 70.3789 285.863 69.6054C285.941 68.6264 285.863 67.4908 286.94 67.1285C287.919 66.8006 288.189 67.9362 288.708 68.4845C289.347 69.1098 289.922 69.7986 290.422 70.5404C291.646 72.4984 293.33 72.2292 295.387 71.7984C293.727 69.953 292.346 68.2446 290.774 66.737C289.388 65.3713 289.129 64.4265 290.838 63.1636ZM284.933 68.3376C284.933 68.3768 284.962 68.416 284.977 68.4502C284.991 68.4845 284.977 68.4502 284.977 68.4502C284.663 68.6118 284.903 68.1174 284.933 68.3279V68.3376Z" fill="white"/>
<path d="M193.789 58.4303C190.097 57.9408 187.11 59.8058 186.14 63.1981C185.768 63.8715 185.57 64.6275 185.565 65.3971C185.559 66.1667 185.747 66.9253 186.111 67.6036C187.056 71.0889 190.106 72.9882 193.945 72.4253C197.461 71.9357 199.821 69.1505 199.865 65.5037C199.941 63.7734 199.355 62.0792 198.227 60.7653C197.098 59.4514 195.511 58.6165 193.789 58.4303ZM192.76 69.6889C190.39 69.7183 188.686 68.0148 188.628 65.5673C188.569 63.1198 190.386 61.1618 192.79 61.2058C193.337 61.2185 193.875 61.3389 194.376 61.5602C194.876 61.7815 195.327 62.0993 195.705 62.4954C196.082 62.8915 196.377 63.3581 196.573 63.8684C196.77 64.3787 196.863 64.9228 196.849 65.4694C196.862 66.0155 196.766 66.5587 196.567 67.0673C196.367 67.5759 196.069 68.0397 195.688 68.4317C195.307 68.8236 194.852 69.1357 194.35 69.3499C193.847 69.5641 193.307 69.676 192.76 69.6791V69.6889Z" fill="white"/>
<path d="M263.119 67.726C262.32 67.4225 261.307 66.747 260.749 68.2742C260.337 69.3805 259.319 69.7428 258.158 69.64C257.748 69.6343 257.35 69.4944 257.027 69.2416C256.703 68.9888 256.471 68.637 256.366 68.24C256.215 67.6118 256.145 66.9671 256.156 66.3211C256.156 64.7204 255.735 62.8065 256.459 61.6072C257.12 60.5107 259.157 61.2499 260.582 61.2254C261.757 61.2254 261.86 60.638 261.86 59.6982C261.86 58.7583 261.625 58.3129 260.641 58.3912C260.235 58.4206 259.828 58.3912 259.422 58.3912C256.21 58.3912 256.092 58.3912 256.19 55.2633C256.244 53.5108 255.602 53.1095 254.07 53.506H253.58C252.562 54.485 253.208 55.7479 253.164 56.859C253.12 57.9702 252.909 58.538 251.695 58.3765C250.667 58.2345 250.05 58.4548 250.055 59.752C250.06 61.0492 250.588 61.3331 251.656 61.1618C253.125 60.9268 253.159 61.8275 253.125 62.8897C253.091 64.5051 253.056 66.1302 253.174 67.7358C253.254 68.877 253.717 69.9577 254.489 70.8027C255.26 71.6477 256.294 72.2073 257.424 72.391C259.76 72.7973 262.257 71.6861 263.163 69.6694C263.437 69.1407 264.47 68.2253 263.119 67.726ZM254.153 58.3667C254.098 58.2062 254.053 58.0428 254.016 57.8772C254.029 57.8813 254.042 57.8813 254.055 57.8772C254.334 57.7059 254.129 58.2149 254.163 58.3667H254.153Z" fill="white"/>
<path d="M180.25 69.3805C178.12 69.733 178.086 68.4798 178.174 66.933C178.257 65.4645 178.174 63.996 178.174 62.5618C178.174 57.8968 178.174 57.9311 173.493 58.352C172.572 58.4353 172.166 58.6604 172.21 59.6198C172.249 60.4618 172.141 61.3772 173.409 61.1667C175.206 60.8681 175.148 61.9793 175.108 63.1932C174.996 64.4831 174.996 65.7802 175.108 67.0701C175.378 68.9008 174.619 69.5519 172.9 69.4833C171.828 70.2861 171.847 71.0938 172.9 71.9309C175.255 71.9651 177.615 71.97 179.971 72.0483C180.891 72.0777 181.327 71.8036 181.224 70.8246C181.195 70.1148 181.44 69.1847 180.25 69.3805Z" fill="white"/>
<path d="M308.348 69.3805C306.389 69.684 306.306 68.5092 306.414 67.0749C306.492 66.0274 306.414 64.975 306.414 63.9275C306.414 58.122 306.414 58.1219 301.924 58.3912C301.842 58.3985 301.76 58.3985 301.679 58.3912C300.699 58.2737 300.42 58.7583 300.445 59.6687C300.469 60.5792 300.445 61.382 301.674 61.1813C303.407 60.8974 303.471 61.9205 303.402 63.1883C303.326 64.4779 303.326 65.7707 303.402 67.0602C303.49 68.4994 303.427 69.6595 301.444 69.3854C300.264 69.2189 300.489 70.1343 300.464 70.8539C300.44 71.5735 300.587 72.0679 301.498 72.0532C303.765 72.014 306.037 71.9994 308.304 72.0532C309.337 72.0532 309.498 71.6028 309.489 70.7364C309.479 69.87 309.381 69.2238 308.348 69.3805Z" fill="white"/>
<path d="M162.093 66.7273C162.304 63.1295 162.201 59.5072 162.118 55.8995C162.118 55.1261 162.696 54.1568 161.697 53.5303H161.207H156.8C155.89 54.338 155.909 55.1457 156.8 55.9485C158.666 55.8163 159.288 56.6044 159.16 58.5036C158.974 61.3283 158.974 64.1621 159.16 66.9868C159.288 68.886 158.671 69.6594 156.805 69.5224C155.914 70.3301 155.894 71.1378 156.805 71.9405H164.639C165.55 71.1378 165.531 70.3301 164.639 69.5224C162.568 69.6741 161.976 68.793 162.093 66.7273Z" fill="white"/>
<path d="M176.519 57.2897C178.149 57.6569 178.556 56.9568 178.551 55.3758C178.546 53.7947 178.149 53.3394 176.553 53.359C174.957 53.3786 174.462 53.7115 174.487 55.3513C174.516 56.8786 174.854 57.6373 176.519 57.2897Z" fill="white"/>
<path d="M304.861 57.363C306.419 57.363 307.177 56.986 306.771 55.3315C307.197 53.6476 306.365 53.3735 304.847 53.3441C303.329 53.3147 302.834 53.7651 302.834 55.3413C302.834 56.9175 303.27 57.3825 304.861 57.363Z" fill="white"/>
<path d="M326.475 61.2348C324.971 57.5929 321.211 57.3187 318.552 60.6914C317.519 60.2558 318.836 58.7922 317.573 58.4593C316.77 58.5474 315.864 57.9453 315.183 58.8166C314.772 62.9236 315.105 67.0403 315.012 71.1521C315.012 71.5927 315.134 71.9402 315.678 71.9207C316.322 72.1027 317.007 72.0787 317.637 71.8521C318.435 69.1697 317.735 66.399 318.126 63.6872C318.851 61.7292 320.427 61.0047 322.308 61.3033C324.266 61.6117 324.017 63.3397 324.017 64.7837C324.017 66.6389 324.134 68.499 323.982 70.3396C323.845 72.0333 324.614 72.2535 325.966 71.9207C326.362 71.9745 326.945 72.0773 326.945 71.5731C326.867 68.1221 327.581 64.632 326.475 61.2348Z" fill="white"/>
<path d="M80.1548 68.1419C80.2136 67.4615 80.2381 66.8007 79.4008 66.6244C76.4335 66.0028 76.2474 63.8686 76.4629 61.4504C76.551 60.4714 76.4041 59.4924 76.4922 58.5134C76.6147 57.1868 76.0564 56.4281 74.8813 55.8603C72.9863 54.9449 71.1551 53.9022 69.3042 52.9232C68.036 52.2379 67.0762 51.3911 67.3896 49.7121C67.5512 48.8212 67.4288 48.0478 66.3565 47.5485C64.2314 46.5695 62.1993 45.3751 60.1378 44.2541C59.467 43.8919 58.8794 43.7108 58.1156 44.1612C56.0296 45.3898 53.8898 46.5304 51.7501 47.6954C51.0743 48.0625 50.4623 48.4786 50.6581 49.3597C51.1968 51.8072 49.5123 52.7471 47.7643 53.3981C43.093 55.1309 40.3216 57.8966 41.5555 63.2811C41.7514 64.128 41.7611 65.3321 40.7329 65.5916C37.6383 66.3748 38.2357 68.7098 38.0055 70.9468C37.6187 74.6915 38.3581 77.5551 42.3635 78.7788C44.3221 79.3858 45.8351 82.0389 48.4009 80.0564C48.5869 79.9145 49.2528 80.3355 49.6641 80.5459C50.7365 81.104 51.9411 81.5249 52.8273 82.3032C57.5035 86.42 61.7831 84.9857 66.1753 81.7403C67.5904 80.6928 69.2748 79.1411 71.3607 80.8152C71.7769 81.153 72.0658 80.727 72.4086 80.5263C73.5886 79.8264 74.7295 78.955 76.0075 78.5683C79.6015 77.4082 80.762 75.0439 79.9002 71.8279C80.0128 70.3936 80.0618 69.2678 80.1548 68.1419ZM60.1672 58.6652C59.9469 52.8499 59.0312 53.6575 64.9315 51.1121C65.3722 56.6337 65.0687 57.0988 60.1672 58.6652ZM63.5948 48.8115C60.6569 51.7876 57.5965 51.8072 54.5019 48.7821C59.9371 45.6982 58.0568 45.5416 63.5752 48.8115H63.5948ZM53.1554 51.3177C57.7581 52.2967 58.3947 53.2757 57.9491 58.8218C52.7539 56.526 52.7539 56.526 53.1358 51.3177H53.1554ZM45.223 76.346C45.1496 76.9041 45.2671 77.511 44.3221 77.325C43.2332 77.0527 42.265 76.4276 41.5688 75.5474C40.8726 74.6672 40.4874 73.5814 40.4734 72.4593V70.0657C44.7334 71.26 45.7127 72.6209 45.223 76.346ZM41.8689 67.7895C47.446 64.4951 45.5364 64.2504 50.9128 67.7405C47.9063 70.6384 44.8313 70.6677 41.8591 67.7895H41.8689ZM47.4705 77.9173V75.6118C47.4705 72.2538 48.4156 71.0055 51.6718 70.144C51.956 70.0411 52.2694 70.0552 52.5433 70.1831C53.1358 70.6971 52.4307 74.9656 51.7011 75.4991C51.5111 75.6416 51.3115 75.7708 51.1038 75.8859C49.9922 76.5075 48.8856 77.1194 47.4607 77.9173H47.4705ZM60.0105 82.6214C59.7063 82.8128 59.3521 82.9093 58.9929 82.8989C58.6337 82.8884 58.2857 82.7714 57.9931 82.5627C55.7456 81.29 53.4884 80.0369 51.2311 78.769C52.0488 77.0362 54.8888 77.6187 54.9524 75.3964C55.0259 72.6551 55.4421 69.7132 54.595 67.2461C54.1053 65.8168 51.4269 65.0531 49.6397 64.1867C47.8525 63.3203 46.2121 61.5434 44.3172 63.6972C42.0892 57.7008 46.8438 56.5945 50.3938 54.5925C51.2752 55.5421 49.9041 57.2701 51.3731 57.97C54.0025 59.1938 56.2696 61.5091 59.1292 61.749C61.0878 61.9105 62.7722 59.8399 64.7063 59.0959C66.8755 58.2539 67.938 56.9518 67.4435 54.5092C74.2692 58.1707 74.2692 58.1708 74.088 63.6189C71.7279 62.5224 64.8973 64.8182 63.536 67.3489C62.4441 69.3804 63.5017 71.8279 63.0855 74.0257C62.4784 77.2173 65.6856 77.0019 67.0028 78.7103C64.6328 80.0173 62.2972 81.2753 60.0008 82.6214H60.0105ZM70.5478 77.7606C64.6377 74.4369 65.333 76.2628 65.6513 70.1097C70.4793 71.3139 70.8269 71.8425 70.538 77.7606H70.5478ZM67.1692 67.7014C71.865 64.6958 71.865 64.6958 76.3845 67.7895C73.3095 70.3055 70.2394 70.9957 67.1595 67.7014H67.1692ZM77.638 72.3615C77.6983 73.4924 77.3518 74.6076 76.6612 75.5054C75.9706 76.4032 74.9815 77.0243 73.8726 77.2565C73.5396 77.3446 73.2409 77.4082 73.001 77.1341C72.3498 76.395 73.1136 72.1754 73.9803 71.6908C75.0771 71.079 76.1837 70.4915 77.6331 69.7034L77.638 72.3615Z" fill="white"/>
</g>
<g opacity="0.8">
<mask id="mask0_137_2907" style="mask-type:alpha" maskUnits="userSpaceOnUse" x="409" y="47" width="22" height="30">
<path d="M409 47H430.238V76.0156H409V47Z" fill="white"/>
</mask>
<g mask="url(#mask0_137_2907)">
<path fill-rule="evenodd" clip-rule="evenodd" d="M427.74 47C427.071 47 426.466 47.2397 425.989 47.6931C425.499 48.1576 425.241 48.7704 425.241 49.4653L425.241 65.5074C425.229 66.2775 425.083 67.0124 424.809 67.6918C424.536 68.3693 424.155 68.9689 423.678 69.4737C423.208 69.9705 422.633 70.3675 421.968 70.6536C421.303 70.9399 420.552 71.085 419.735 71.085C418.917 71.085 418.15 70.9357 417.456 70.6413C416.756 70.3445 416.144 69.9381 415.636 69.4327C415.129 68.9279 414.724 68.3262 414.433 67.6436C414.143 66.9663 413.997 66.2313 413.997 65.4587V49.5285C413.997 48.8385 413.741 48.2249 413.257 47.753C412.778 47.2879 412.17 47.042 411.498 47.042C410.809 47.042 410.194 47.2906 409.722 47.7605C409.25 48.2305 409 48.8418 409 49.5285V65.5219C409 66.9745 409.278 68.3534 409.826 69.6203C410.37 70.8801 411.13 71.9997 412.083 72.9476C413.038 73.8985 414.184 74.6555 415.488 75.1975C416.794 75.7403 418.223 76.0156 419.735 76.0156C421.25 76.0156 422.67 75.7396 423.956 75.1953C425.242 74.651 426.365 73.8913 427.293 72.9371C428.216 71.9872 428.946 70.8656 429.462 69.603C429.977 68.3405 430.238 66.9674 430.238 65.5219V49.4653C430.238 48.7748 429.986 48.1645 429.508 47.7003C429.037 47.2421 428.425 47 427.74 47Z" fill="#F6FFF8"/>
</g>
<path fill-rule="evenodd" clip-rule="evenodd" d="M451.183 57.1165C450.394 56.167 449.434 55.4227 448.328 54.9039C447.222 54.3852 445.973 54.1223 444.616 54.1223C443.269 54.1223 441.981 54.4455 440.787 55.0831C440.248 55.3707 439.735 55.7073 439.252 56.0906C439.16 55.6198 438.94 55.1958 438.604 54.8449C438.137 54.3582 437.521 54.1011 436.823 54.1011C436.133 54.1011 435.515 54.3531 435.036 54.8298C434.557 55.3067 434.304 55.9217 434.304 56.6086V73.2974C434.304 73.9743 434.563 74.5845 435.054 75.0616C435.539 75.534 436.151 75.7837 436.823 75.7837C437.503 75.7837 438.113 75.5291 438.586 75.0475C439.053 74.5717 439.301 73.9665 439.301 73.2974V64.378C439.326 63.6279 439.477 62.9222 439.748 62.2804C440.022 61.6316 440.388 61.0624 440.833 60.5888C441.271 60.1235 441.79 59.7531 442.377 59.4877C442.954 59.227 443.585 59.0949 444.256 59.0949C444.941 59.0949 445.559 59.2166 446.094 59.4569C446.62 59.6935 447.053 60.0311 447.416 60.4888C447.793 60.9635 448.088 61.5587 448.294 62.2576C448.509 62.9861 448.618 63.8361 448.618 64.7843V73.3394C448.618 74.0303 448.87 74.6407 449.347 75.1042C449.818 75.5624 450.423 75.8047 451.095 75.8047C451.777 75.8047 452.39 75.5651 452.867 75.1116L452.867 75.1114C453.356 74.6467 453.615 74.0339 453.615 73.3394V64.7C453.615 63.165 453.404 61.7414 452.987 60.4687C452.566 59.1786 451.958 58.0509 451.183 57.1165Z" fill="#F6FFF8"/>
<path fill-rule="evenodd" clip-rule="evenodd" d="M460.031 54.1011C459.341 54.1011 458.723 54.3531 458.244 54.8298C457.764 55.3067 457.511 55.9217 457.511 56.6086V73.2974C457.511 73.9743 457.77 74.5845 458.261 75.0616C458.746 75.534 459.358 75.7837 460.031 75.7837C460.711 75.7837 461.32 75.5291 461.793 75.0475C462.261 74.5717 462.508 73.9665 462.508 73.2974V56.6086C462.508 55.9302 462.267 55.3205 461.811 54.8449C461.344 54.3582 460.728 54.1011 460.031 54.1011Z" fill="#F6FFF8"/>
<path fill-rule="evenodd" clip-rule="evenodd" d="M460.009 47.7163C459.25 47.7163 458.57 47.9939 458.042 48.5188L458.042 48.519C457.515 49.0441 457.236 49.721 457.236 50.4766C457.236 51.2151 457.512 51.8862 458.036 52.4173C458.564 52.9535 459.247 53.2368 460.009 53.2368C460.772 53.2368 461.455 52.9533 461.983 52.4175C462.506 51.8864 462.783 51.2153 462.783 50.4766C462.783 49.7208 462.504 49.0439 461.977 48.519C461.449 47.9939 460.769 47.7163 460.009 47.7163Z" fill="#F6FFF8"/>
<path fill-rule="evenodd" clip-rule="evenodd" d="M475.022 54.1433H473.455V49.4653C473.455 48.7706 473.197 48.1578 472.707 47.6931C472.23 47.2395 471.625 47 470.957 47C470.274 47 469.662 47.2397 469.185 47.6931C468.696 48.1574 468.437 48.7704 468.437 49.4653V54.1433H467.315C466.629 54.1433 466.013 54.3892 465.535 54.8545C465.051 55.3254 464.795 55.9392 464.795 56.6296C464.795 57.3027 465.048 57.9106 465.527 58.3868C466.006 58.8638 466.624 59.1159 467.315 59.1159H468.437V73.3184C468.437 73.9955 468.693 74.6023 469.176 75.0719C469.654 75.5376 470.27 75.7836 470.957 75.7836C471.629 75.7836 472.237 75.5378 472.715 75.0727C473.199 74.6019 473.455 73.9953 473.455 73.3184V59.1159H475.022C475.712 59.1159 476.326 58.8677 476.799 58.3975C477.271 57.9276 477.521 57.3163 477.521 56.6296C477.521 55.9436 477.271 55.3323 476.799 54.8612C476.326 54.3915 475.712 54.1433 475.022 54.1433Z" fill="#F6FFF8"/>
<path fill-rule="evenodd" clip-rule="evenodd" d="M495.221 62.9511H483.961C484.068 62.6324 484.203 62.3231 484.366 62.0253C484.702 61.4125 485.13 60.8751 485.64 60.4281C486.151 59.9803 486.749 59.6203 487.416 59.3581C488.075 59.0996 488.793 58.9684 489.549 58.9684C490.308 58.9684 491.033 59.0972 491.702 59.3512C492.373 59.6067 492.976 59.9631 493.493 60.4103C494.012 60.8598 494.452 61.4002 494.801 62.0158C494.971 62.315 495.111 62.6275 495.221 62.9511ZM497.275 57.306C496.287 56.3217 495.111 55.5372 493.78 54.974C492.444 54.4087 491.006 54.1221 489.506 54.1221C487.991 54.1221 486.545 54.4129 485.208 54.9864C483.88 55.5558 482.703 56.3424 481.708 57.3244C480.712 58.3076 479.916 59.4774 479.343 60.8013C478.767 62.1316 478.475 63.5708 478.475 65.0792C478.475 66.5877 478.767 68.027 479.343 69.3573C479.916 70.6811 480.712 71.8509 481.708 72.834C482.704 73.8177 483.883 74.6014 485.212 75.1634C486.547 75.7287 487.992 76.0154 489.506 76.0154C490.369 76.0154 491.179 75.938 491.915 75.7856C492.648 75.6342 493.332 75.4247 493.949 75.1634C494.572 74.9003 495.145 74.5851 495.654 74.2265C496.147 73.8793 496.599 73.4959 496.999 73.0864C497.672 72.48 497.833 71.8253 497.849 71.3794C497.869 70.7907 497.72 70.2633 497.406 69.8109C497.122 69.3465 496.731 69.0111 496.246 68.8134L496.158 68.7826C495.797 68.6773 495.414 68.6498 495.02 68.7011C494.586 68.758 494.157 68.9533 493.745 69.2814L493.67 69.3405L493.61 69.4137C493.177 69.9372 492.608 70.3649 491.917 70.6847C491.224 71.0062 490.412 71.1691 489.506 71.1691C488.788 71.1691 488.103 71.0473 487.47 70.8069C486.829 70.5644 486.25 70.2243 485.747 69.7956C485.244 69.3682 484.82 68.854 484.486 68.2669C484.331 67.9955 484.2 67.7119 484.093 67.4181H498.061C498.761 67.4181 499.372 67.1832 499.83 66.7391C500.293 66.2889 500.538 65.6859 500.538 64.9857C500.523 63.4918 500.219 62.0673 499.635 60.7515C499.055 59.4456 498.261 58.2864 497.275 57.306Z" fill="#F6FFF8"/>
<path fill-rule="evenodd" clip-rule="evenodd" d="M513.243 71.0218C512.412 71.0218 511.624 70.8656 510.902 70.5576C510.174 70.2474 509.534 69.817 508.999 69.2782C508.461 68.7369 508.029 68.0966 507.716 67.3751V67.3749C507.407 66.6643 507.251 65.8919 507.251 65.0794C507.251 64.2519 507.407 63.4681 507.717 62.7497C508.029 62.024 508.46 61.3857 508.996 60.8524C509.53 60.3206 510.169 59.897 510.896 59.5931C511.62 59.2904 512.41 59.1371 513.243 59.1371C514.09 59.1371 514.887 59.2905 515.611 59.593C516.338 59.8972 516.978 60.3208 517.512 60.8522C518.046 61.3844 518.472 62.0207 518.777 62.7435C519.081 63.4643 519.236 64.2501 519.236 65.0794C519.236 65.8939 519.082 66.6683 518.779 67.3811C518.472 68.1001 518.045 68.7382 517.508 69.2783C516.973 69.8168 516.333 70.2474 515.606 70.5576C514.883 70.8656 514.089 71.0218 513.243 71.0218ZM521.734 47C521.048 47 520.436 47.2423 519.966 47.7001C519.488 48.164 519.236 48.7742 519.236 49.4653V55.891C518.652 55.514 518.029 55.1886 517.371 54.9179C516.086 54.3899 514.698 54.1223 513.243 54.1223C511.742 54.1223 510.302 54.4129 508.965 54.9864C507.638 55.5558 506.46 56.3426 505.466 57.3244C504.47 58.3076 503.674 59.4774 503.101 60.8015C502.525 62.1316 502.232 63.571 502.232 65.0794C502.232 66.5737 502.525 68.006 503.101 69.3363C503.674 70.6601 504.47 71.8299 505.466 72.8132C506.461 73.7953 507.638 74.5818 508.965 75.1513C510.302 75.7248 511.742 76.0156 513.243 76.0156C514.698 76.0156 516.086 75.7478 517.371 75.2198C518.082 74.9273 518.752 74.5709 519.376 74.1546C519.496 74.493 519.691 74.8003 519.957 75.0647C520.429 75.5351 521.044 75.7836 521.734 75.7836C522.407 75.7836 523.015 75.5378 523.493 75.0727C523.977 74.6019 524.233 73.9953 524.233 73.3184V49.4653C524.233 48.7706 523.974 48.1578 523.485 47.6932C523.008 47.2397 522.402 47 521.734 47Z" fill="#F6FFF8"/>
<path fill-rule="evenodd" clip-rule="evenodd" d="M559.474 62.7405C559.199 62.5019 558.864 62.3754 558.468 62.3613H550.443C550.076 62.3613 549.766 62.4914 549.511 62.751C549.257 63.0112 549.13 63.3167 549.13 63.6677C549.13 64.0331 549.257 64.3455 549.511 64.6053C549.766 64.8655 550.076 64.9953 550.443 64.9953H556.965C556.697 66.1331 556.277 67.1623 555.705 68.0822C555.133 69.0025 554.427 69.789 553.588 70.4422C552.748 71.0954 551.791 71.5979 550.718 71.9488C549.646 72.3001 548.481 72.4757 547.225 72.4757C545.672 72.4757 544.221 72.188 542.873 71.6116C541.525 71.0358 540.353 70.2492 539.358 69.2518C538.363 68.2543 537.576 67.0849 536.997 65.7432C536.418 64.4018 536.129 62.9585 536.129 61.4129C536.129 59.8536 536.425 58.3997 537.018 57.0511C537.611 55.7025 538.412 54.5331 539.422 53.5427C540.431 52.5523 541.606 51.7763 542.947 51.2142C544.288 50.6525 545.707 50.3713 547.203 50.3713C548.643 50.3713 550.051 50.6455 551.428 51.1932C552.804 51.7411 554.043 52.5559 555.144 53.6375C555.412 53.9045 555.73 54.0346 556.097 54.0274C556.464 54.0205 556.774 53.8904 557.028 53.6375C557.283 53.3709 557.413 53.0616 557.42 52.7105C557.427 52.3594 557.29 52.0502 557.007 51.7832C555.638 50.4208 554.12 49.3989 552.455 48.7172C550.789 48.0361 549.031 47.6953 547.182 47.6953C545.898 47.6953 544.666 47.8606 543.487 48.1905C542.309 48.5208 541.211 48.9879 540.194 49.5918C539.178 50.1959 538.253 50.9192 537.421 51.7621C536.588 52.605 535.878 53.5358 535.293 54.5541C534.707 55.5728 534.255 56.665 533.937 57.8308C533.62 58.9969 533.461 60.198 533.461 61.4341C533.461 62.6985 533.623 63.9137 533.948 65.0795C534.273 66.2457 534.731 67.3379 535.324 68.3562C535.917 69.3748 536.63 70.302 537.463 71.1376C538.296 71.9736 539.221 72.6901 540.237 73.2869C541.253 73.8841 542.351 74.3442 543.53 74.667C544.708 74.9901 545.933 75.1517 547.203 75.1517C548.911 75.1517 550.503 74.8604 551.978 74.2773C553.453 73.6946 554.749 72.8903 555.864 71.8646C556.979 70.8394 557.886 69.6278 558.585 68.2297C559.284 66.8322 559.71 65.3185 559.866 63.6887C559.88 63.2955 559.75 62.9795 559.474 62.7405Z" fill="#F6FFF8"/>
<path fill-rule="evenodd" clip-rule="evenodd" d="M575.556 55.0073H575.387C573.834 55.0073 572.387 55.3235 571.046 55.9555C569.705 56.5877 568.555 57.4447 567.595 58.5262V56.3349C567.595 55.9698 567.471 55.6573 567.224 55.3972C566.977 55.1374 566.663 55.0073 566.282 55.0073C565.915 55.0073 565.597 55.1378 565.329 55.3978C565.061 55.658 564.927 55.9707 564.927 56.3362V73.5281C564.927 73.9077 565.061 74.2277 565.329 74.4879C565.597 74.7479 565.915 74.878 566.282 74.878C566.649 74.878 566.96 74.7483 567.214 74.4883C567.468 74.2284 567.595 73.9086 567.595 73.5294V65.5222C567.595 64.4264 567.803 63.4012 568.219 62.4458C568.636 61.4905 569.197 60.6581 569.903 59.9486C570.609 59.2394 571.434 58.681 572.38 58.2735C573.326 57.8662 574.328 57.6623 575.387 57.6623H575.556C575.952 57.6623 576.283 57.5386 576.552 57.2907C576.82 57.043 576.954 56.7208 576.954 56.3244C576.954 55.9421 576.834 55.627 576.594 55.3791C576.354 55.1314 576.008 55.0073 575.556 55.0073Z" fill="#F6FFF8"/>
<path fill-rule="evenodd" clip-rule="evenodd" d="M595.864 67.9558C595.483 68.8479 594.956 69.6278 594.286 70.2948C593.615 70.9621 592.828 71.4926 591.925 71.8856C591.021 72.2792 590.048 72.4756 589.003 72.4756C587.958 72.4756 586.984 72.2792 586.081 71.8856C585.177 71.4926 584.394 70.9621 583.731 70.2948C583.067 69.6278 582.541 68.8479 582.153 67.9558C581.764 67.0639 581.571 66.112 581.571 65.1005C581.571 64.0752 581.764 63.1129 582.153 62.2138C582.541 61.3149 583.07 60.5316 583.741 59.8641C584.411 59.1972 585.199 58.6703 586.102 58.2838C587.005 57.8977 587.972 57.7043 589.003 57.7043C590.048 57.7043 591.021 57.8977 591.925 58.2838C592.828 58.6703 593.615 59.1972 594.286 59.8641C594.956 60.5316 595.483 61.3149 595.864 62.2138C596.245 63.1129 596.436 64.0752 596.436 65.1005C596.436 66.112 596.245 67.0639 595.864 67.9558ZM596.128 57.9678C595.218 57.0616 594.152 56.3452 592.931 55.8185C591.71 55.2916 590.401 55.0283 589.003 55.0283C587.62 55.0283 586.314 55.2916 585.086 55.8185C583.858 56.3452 582.785 57.0616 581.867 57.9678C580.949 58.8737 580.226 59.9417 579.697 61.1707C579.167 62.4001 578.903 63.7097 578.903 65.1005C578.903 66.4774 579.167 67.7767 579.697 68.9989C580.226 70.221 580.949 71.2851 581.867 72.1911C582.785 73.0972 583.858 73.8137 585.086 74.3406C586.314 74.8673 587.62 75.1307 589.003 75.1307C590.401 75.1307 591.71 74.8673 592.931 74.3406C594.152 73.8137 595.218 73.0972 596.128 72.1911C597.039 71.2851 597.759 70.221 598.288 68.9989C598.818 67.7767 599.082 66.4774 599.082 65.1005C599.082 63.7097 598.818 62.4001 598.288 61.1707C597.759 59.9417 597.039 58.8737 596.128 57.9678Z" fill="#F6FFF8"/>
<path fill-rule="evenodd" clip-rule="evenodd" d="M619.59 55.0283C619.219 55.0283 618.906 55.162 618.65 55.4286C618.394 55.6956 618.266 56.0118 618.266 56.3769V65.2903C618.266 66.2736 618.1 67.1868 617.769 68.0295C617.438 68.8724 616.987 69.6066 616.416 70.2315C615.846 70.8568 615.176 71.3451 614.408 71.6961C613.64 72.0474 612.819 72.2228 611.946 72.2228C610.185 72.2228 608.807 71.626 607.814 70.4317C606.82 69.2379 606.316 67.5169 606.302 65.2692V56.3347C606.302 55.9555 606.178 55.6431 605.929 55.397C605.68 55.1513 605.37 55.0283 605.001 55.0283C604.602 55.0283 604.275 55.1513 604.018 55.397C603.762 55.6431 603.634 55.9555 603.634 56.3347V65.1848C603.634 66.6599 603.821 67.9947 604.196 69.1884C604.569 70.3826 605.106 71.4009 605.805 72.2438C606.504 73.0867 607.343 73.7367 608.325 74.1931C609.306 74.6497 610.41 74.8778 611.639 74.8778C612.937 74.8778 614.158 74.5513 615.302 73.8981C616.445 73.2449 617.433 72.3775 618.266 71.2956V73.5504C618.266 73.9296 618.39 74.2494 618.64 74.5091C618.888 74.7693 619.205 74.899 619.59 74.899C619.959 74.899 620.276 74.7693 620.539 74.5091C620.802 74.2494 620.934 73.9296 620.934 73.5504V56.3769C620.934 56.0118 620.802 55.6956 620.539 55.4286C620.276 55.162 619.959 55.0283 619.59 55.0283Z" fill="#F6FFF8"/>
<path fill-rule="evenodd" clip-rule="evenodd" d="M643.781 67.9558C643.4 68.8479 642.874 69.6278 642.204 70.2948C641.533 70.9621 640.746 71.4926 639.843 71.8856C638.939 72.2792 637.965 72.4756 636.921 72.4756C635.876 72.4756 634.902 72.2792 633.999 71.8856C633.095 71.4926 632.312 70.9621 631.648 70.2948C630.985 69.6278 630.459 68.8479 630.071 67.9558C629.682 67.0639 629.489 66.112 629.489 65.1005C629.489 64.0752 629.682 63.1129 630.071 62.2138C630.459 61.3149 630.988 60.5316 631.659 59.8641C632.329 59.1972 633.116 58.6703 634.02 58.2838C634.923 57.8977 635.89 57.7043 636.921 57.7043C637.965 57.7043 638.939 57.8977 639.843 58.2838C640.746 58.6703 641.533 59.1972 642.204 59.8641C642.874 60.5316 643.4 61.3149 643.781 62.2138C644.163 63.1129 644.353 64.0752 644.353 65.1005C644.353 66.112 644.163 67.0639 643.781 67.9558ZM646.206 61.1707C645.676 59.9417 644.957 58.8737 644.046 57.9678C643.136 57.0616 642.07 56.3452 640.849 55.8185C639.628 55.2916 638.318 55.0283 636.921 55.0283C635.439 55.0283 634.062 55.32 632.792 55.9027C631.521 56.4858 630.42 57.2829 629.489 58.2945V56.3347C629.489 55.9555 629.358 55.6429 629.097 55.397C628.835 55.1513 628.521 55.0283 628.154 55.0283C627.787 55.0283 627.473 55.1513 627.212 55.397C626.951 55.6429 626.821 55.9555 626.821 56.3347V80.6937C626.821 81.0588 626.951 81.3679 627.212 81.6208C627.473 81.8736 627.787 82.0001 628.154 82.0001C628.521 82.0001 628.835 81.8736 629.097 81.6208C629.358 81.3679 629.489 81.0588 629.489 80.6937V71.8856C630.42 72.897 631.521 73.6908 632.792 74.2668C634.062 74.843 635.439 75.1307 636.921 75.1307C638.318 75.1307 639.628 74.8673 640.849 74.3406C642.07 73.8137 643.136 73.0972 644.046 72.1911C644.957 71.2851 645.676 70.221 646.206 68.9989C646.735 67.7767 647 66.4774 647 65.1005C647 63.7097 646.735 62.4001 646.206 61.1707Z" fill="#F6FFF8"/>
</g>
<defs>
<clipPath id="clip0_137_2907">
<rect width="327" height="97" fill="white" transform="translate(16.5 16)"/>
</clipPath>
</defs>
</svg>
