<svg width="56" height="56" viewBox="0 0 56 56" fill="none" xmlns="http://www.w3.org/2000/svg">
<path fill-rule="evenodd" clip-rule="evenodd" d="M28 56C12.536 56 0 43.464 0 28C0 12.536 12.536 0 28 0C43.464 0 56 12.536 56 28C56 43.464 43.464 56 28 56ZM18.7494 25.4354C15.9446 26.66 13.0627 27.9182 10.4276 29.3698L10.4274 29.3699C9.05131 30.3774 10.8804 31.09 12.5962 31.7585C12.869 31.8647 13.1389 31.9699 13.3926 32.0749C13.6037 32.1398 13.8184 32.2082 14.036 32.2775C15.9443 32.8855 18.0722 33.5635 19.9248 32.5437C22.9681 30.7955 25.8402 28.7743 28.71 26.7546C29.6502 26.093 30.5902 25.4314 31.5359 24.7797C31.5803 24.7514 31.6304 24.7189 31.6851 24.6834C32.4909 24.1611 34.3023 22.9869 33.6322 24.6052C32.0473 26.3384 30.3498 27.8727 28.643 29.4153C27.4927 30.4549 26.3382 31.4983 25.2112 32.609C24.2296 33.4065 23.2104 35.0104 24.3095 36.1272C26.8385 37.8977 29.4071 39.6253 31.9742 41.3519C32.8129 41.916 33.6514 42.48 34.4884 43.0453C35.9026 44.1744 38.1129 43.261 38.4238 41.4967C38.562 40.6859 38.7006 39.8751 38.8393 39.0642C39.6066 34.5779 40.3742 30.0901 41.0523 25.5892C41.1444 24.8836 41.2488 24.178 41.3533 23.472C41.6067 21.7601 41.8603 20.0462 41.9394 18.325C41.7353 16.6077 39.6531 16.9854 38.4943 17.3715C32.5382 19.6379 26.6416 22.0723 20.7684 24.5496C20.103 24.8444 19.4284 25.1389 18.7494 25.4354Z" fill="white"/>
</svg>
