<svg width="38" height="38" viewBox="0 0 38 38" fill="none" xmlns="http://www.w3.org/2000/svg">
<path fill-rule="evenodd" clip-rule="evenodd" d="M19 37.3332C29.1252 37.3332 37.3334 29.1251 37.3334 18.9998C37.3334 8.87462 29.1252 0.666504 19 0.666504C8.8748 0.666504 0.666687 8.87462 0.666687 18.9998C0.666687 29.1251 8.8748 37.3332 19 37.3332ZM27.4079 12.66C28.3208 12.5507 29.1912 12.3087 30 11.9494C29.3951 12.8543 28.6295 13.6492 27.7466 14.2871C27.7562 14.48 27.7598 14.675 27.7598 14.8708C27.7598 20.8346 23.2201 27.7121 14.9186 27.7121C12.3697 27.7121 9.99749 26.9642 8.00002 25.6838C8.35273 25.7264 8.71204 25.7476 9.07721 25.7476C11.192 25.7476 13.1381 25.0254 14.6824 23.8154C12.7077 23.7788 11.0402 22.4735 10.4661 20.6806C10.7418 20.7334 11.0248 20.762 11.3159 20.762C11.7273 20.762 12.1262 20.7063 12.5046 20.6037C10.4411 20.1879 8.88436 18.3642 8.88436 16.1768V16.1204C9.49372 16.4584 10.1889 16.6615 10.9295 16.685C9.71737 15.8754 8.92176 14.4939 8.92176 12.9284C8.92176 12.1012 9.14394 11.3261 9.53259 10.6596C11.7588 13.3903 15.0843 15.1876 18.8358 15.3753C18.7588 15.0446 18.7184 14.7 18.7184 14.3465C18.7184 11.8541 20.7394 9.83317 23.2318 9.83317C24.529 9.83317 25.703 10.3817 26.5265 11.2587C27.5538 11.0556 28.521 10.6808 29.3921 10.1631C29.0555 11.2169 28.3399 12.1012 27.4079 12.66Z" fill="url(#paint0_linear_248_2143)"/>
<defs>
<linearGradient id="paint0_linear_248_2143" x1="0.666687" y1="0.666504" x2="37.3334" y2="37.3332" gradientUnits="userSpaceOnUse">
<stop stop-color="#973DDD"/>
<stop offset="1" stop-color="#CA3ADA"/>
</linearGradient>
</defs>
</svg>
