<?xml version="1.0" encoding="UTF-8"?><svg id="a" xmlns="http://www.w3.org/2000/svg" viewBox="0 0 1340 360"><defs><style>.b{fill:#fff;fill-rule:evenodd;}</style></defs><polygon class="b" points="17.96 104.8 38.78 122.47 37.13 104.8 17.96 104.8"/><polygon class="b" points="41.87 124.25 73.99 124.25 62.8 98.06 41.87 124.25"/><polygon class="b" points="65.31 98.61 74.35 119.78 74.35 104.66 74.29 104.61 65.31 98.61"/><polygon class="b" points="39.18 104.68 40.88 122.15 60.24 97.92 39.18 104.68"/><polygon class="b" points="403.77 115.5 403.78 115.51 382.22 172.25 382.22 172.3 382.17 172.35 382.17 172.45 382.12 172.45 382.12 172.5 382.07 172.54 382.03 172.6 381.97 172.64 381.93 172.69 381.88 172.74 381.83 172.74 381.83 172.79 381.73 172.79 354.31 187.5 354.26 187.55 354.16 187.55 354.16 187.6 353.97 187.6 353.97 187.65 353.63 187.65 353.63 187.6 353.48 187.6 353.43 187.55 353.34 187.55 331.47 177.05 291.84 215.46 291.71 215.59 286.25 228.86 330.55 189.75 330.61 189.7 330.65 189.65 330.7 189.65 330.7 189.6 330.75 189.6 330.8 189.56 330.9 189.56 330.95 189.5 331.09 189.5 331.14 189.46 331.39 189.46 331.39 189.5 331.59 189.5 331.63 189.56 331.68 189.56 331.73 189.6 353.79 201.09 395.07 178.06 411.64 118.68 411.64 118.58 411.69 118.54 411.69 118.44 411.74 118.44 411.74 118.39 411.79 118.34 411.79 118.29 411.84 118.29 411.84 118.24 411.89 118.24 429.53 99.62 429.53 99.57 429.58 99.57 429.58 99.52 429.63 99.52 429.63 99.47 429.68 99.47 429.68 99.43 429.78 99.43 429.78 99.37 429.88 99.37 429.88 99.33 430.02 99.33 430.02 99.28 448.3 99.28 448.33 99.12 441.39 88.72 423.95 92.46 403.77 115.5"/><polygon class="b" points="448.07 101.38 430.71 101.38 413.58 119.47 396.98 179.04 396.93 179.09 396.93 179.19 396.88 179.19 396.88 179.29 396.84 179.29 396.84 179.34 396.78 179.38 396.78 179.44 396.74 179.44 396.74 179.48 396.69 179.48 396.69 179.53 396.64 179.53 396.64 179.58 396.54 179.58 396.54 179.63 396.49 179.63 396.49 179.68 354.31 203.19 354.26 203.24 354.16 203.24 354.12 203.29 353.97 203.29 353.97 203.34 353.68 203.34 353.63 203.29 353.48 203.29 353.43 203.24 353.34 203.24 353.34 203.19 331.4 191.76 284.51 233.17 279.29 245.81 279.27 245.81 272.73 265.46 303.14 265.46 356.95 250.8 356.98 250.8 356.85 250.6 357.15 250.4 386.08 231.74 409.39 211.84 409.4 211.85 442.49 156.34 448.07 101.38"/><polygon class="b" points="277.33 245.03 297.16 196.88 229.22 211.77 271.08 263.86 277.33 245.08 277.33 245.03"/><polygon class="b" points="227.82 272.85 221.4 304.92 245.76 294.11 245.75 294.1 269.85 267.3 227.82 272.85"/><polygon class="b" points="223.94 235.61 224.71 227.62 189.89 220.93 189.74 220.93 189.74 220.89 189.64 220.89 133.78 195.37 133.68 195.37 133.68 195.32 133.63 195.32 133.58 195.27 133.53 195.27 133.53 195.22 133.49 195.22 133.49 195.17 133.43 195.17 92.79 154.91 101.27 170.83 101.27 170.84 125.83 201.32 125.86 201.33 184.48 231.64 223.94 235.61"/><polygon class="b" points="156.46 170.68 152.37 153.25 132.8 132.83 132.8 156.86 132.75 156.86 132.75 156.9 135.1 192.09 156.46 170.68"/><polygon class="b" points="187.19 217.44 157.57 172.55 136.01 194.12 187.19 217.44"/><polygon class="b" points="247.69 147.96 192.37 176.53 226.87 209.21 247.69 147.96"/><polygon class="b" points="226.23 211.54 191.54 178.62 191.11 219.07 224.92 225.51 226.23 211.54"/><polygon class="b" points="189.5 177.19 160.07 172.57 189.07 216.52 189.5 177.19"/><polygon class="b" points="270.93 185.69 270.97 185.69 270.97 185.65 271.07 185.65 271.07 185.59 271.22 185.59 271.27 185.55 271.66 185.55 271.66 185.59 271.76 185.59 299.23 194.44 299.32 194.44 299.37 194.49 299.42 194.49 299.42 194.54 299.47 194.54 299.52 194.59 299.57 194.59 299.57 194.64 299.62 194.64 299.62 194.69 299.66 194.69 299.66 194.73 299.72 194.73 299.72 194.79 299.76 194.83 299.76 194.88 299.81 194.88 299.81 194.93 299.86 194.93 299.86 195.03 299.91 195.08 299.91 195.22 299.96 195.27 299.96 195.57 299.91 195.57 299.91 195.76 299.86 195.81 293.77 210.64 329.32 176.21 250.05 147.44 229.19 208.86 270.93 185.69"/><polygon class="b" points="356.38 88.4 313.63 99.78 251.39 145.73 330.55 174.47 356.38 88.4"/><polygon class="b" points="422.64 90.82 422.64 90.77 422.69 90.77 422.69 90.73 422.74 90.73 422.74 90.67 422.79 90.67 422.79 90.63 422.88 90.63 422.88 90.58 422.94 90.58 422.98 90.53 423.08 90.53 423.08 90.48 423.18 90.48 440.14 86.82 437.16 82.35 396.59 88.13 360.63 88.13 402.6 113.66 422.64 90.82"/><polygon class="b" points="353.76 185.42 380.42 171.12 401.53 115.46 358.33 89.16 332.5 175.24 353.76 185.42"/><polygon class="b" points="234.03 208.55 294.88 195.21 271.54 187.74 234.03 208.55"/><polygon class="b" points="227.38 270.81 269.45 265.2 228.12 213.8 223.58 260.79 223.62 260.81 223.66 260.87 223.71 260.91 223.76 260.96 223.76 261.01 223.81 261.01 223.81 261.06 223.86 261.11 223.86 261.16 223.91 261.21 223.91 261.25 227.38 270.81"/><polygon class="b" points="223.73 237.71 184.07 233.69 183.87 233.69 183.87 233.64 183.78 233.64 183.73 233.59 129.06 205.38 133.46 210.83 175.39 244.03 221.6 260.04 223.73 237.71"/><polygon class="b" points="383.59 236.18 383.54 236.18 383.54 236.13 383.35 236.13 383.35 236.09 383.25 236.09 383.25 236.07 360.48 250.75 382.27 250.75 384.94 236.3 383.59 236.18"/><polygon class="b" points="384.5 250.21 406.61 238.74 387 236.56 384.5 250.21"/><polygon class="b" points="130.66 157.39 78.31 127.68 89.49 148.69 132.98 191.74 130.66 157.39"/><polygon class="b" points="81.04 85.1 76.27 102.6 91.57 112.88 81.04 85.1"/><polygon class="b" points="99.26 70.8 82.84 82.03 110.43 89.81 99.26 70.8"/><polygon class="b" points="93.98 113.34 111.51 92.29 82.94 84.2 93.98 113.34"/><polygon class="b" points="92.72 116.24 92.72 116.19 92.67 116.14 92.67 116.11 92.65 116.09 92.62 116.09 92.62 116.08 76.4 105.21 76.4 124.19 126.56 152.65 92.72 116.24"/><polygon class="b" points="109.37 55.08 100.75 69.22 111.77 87.99 109.37 55.08"/><path class="b" d="M509.58,172.79c-2.48,0-4.72,.89-6.49,2.56-1.81,1.72-2.77,3.98-2.77,6.55v59.28c-.05,2.85-.58,5.56-1.6,8.07-1.01,2.5-2.42,4.72-4.19,6.58-1.74,1.84-3.87,3.3-6.34,4.36-2.46,1.06-5.25,1.59-8.27,1.59s-5.88-.55-8.45-1.64c-2.59-1.1-4.86-2.6-6.74-4.47-1.88-1.87-3.38-4.09-4.46-6.61-1.07-2.5-1.61-5.22-1.61-8.07v-58.87c0-2.55-.95-4.82-2.74-6.56-1.77-1.72-4.03-2.63-6.52-2.63s-4.83,.92-6.58,2.65c-1.75,1.74-2.68,4-2.68,6.53v59.1c0,5.37,1.03,10.46,3.06,15.15,2.02,4.66,4.83,8.79,8.36,12.3,3.54,3.51,7.79,6.31,12.62,8.31,4.84,2.01,10.13,3.02,15.74,3.02s10.87-1.02,15.64-3.03,8.93-4.82,12.36-8.35c3.42-3.51,6.13-7.66,8.04-12.32,1.91-4.67,2.88-9.74,2.88-15.08v-59.34c0-2.55-.93-4.81-2.7-6.52-1.75-1.69-4.01-2.59-6.55-2.59Z"/><path class="b" d="M596.45,210.18c-2.92-3.51-6.48-6.26-10.58-8.18-4.1-1.92-8.73-2.89-13.76-2.89s-9.76,1.19-14.19,3.55c-2,1.06-3.9,2.31-5.69,3.72-.34-1.74-1.15-3.31-2.4-4.6-1.73-1.8-4.01-2.75-6.6-2.75s-4.85,.93-6.62,2.69c-1.78,1.76-2.71,4.04-2.71,6.57v61.67c0,2.5,.96,4.76,2.78,6.52,1.8,1.75,4.06,2.67,6.56,2.67s4.78-.94,6.53-2.72c1.73-1.76,2.65-3.99,2.65-6.47v-32.96c.1-2.77,.65-5.38,1.66-7.75,1.02-2.4,2.37-4.5,4.02-6.25,1.62-1.72,3.55-3.09,5.72-4.07,2.14-.96,4.48-1.45,6.96-1.45s4.83,.45,6.81,1.34c1.95,.87,3.55,2.12,4.9,3.81,1.4,1.75,2.49,3.95,3.25,6.54,.79,2.69,1.2,5.83,1.2,9.34v31.62c0,2.55,.94,4.81,2.7,6.52,1.75,1.69,3.99,2.59,6.48,2.59s4.8-.89,6.57-2.56h0c1.81-1.72,2.77-3.98,2.77-6.55v-31.93c0-5.67-.78-10.93-2.32-15.64-1.56-4.77-3.81-8.94-6.69-12.39Z"/><path class="b" d="M629.23,199.03c-2.56,0-4.85,.93-6.62,2.69-1.78,1.76-2.71,4.04-2.71,6.57v61.67c0,2.5,.96,4.76,2.78,6.52,1.8,1.75,4.07,2.67,6.56,2.67s4.78-.94,6.53-2.72c1.73-1.76,2.65-3.99,2.65-6.47v-61.67c0-2.51-.89-4.76-2.58-6.52-1.73-1.8-4.01-2.75-6.6-2.75Z"/><path class="b" d="M629.16,175.44c-2.81,0-5.33,1.03-7.29,2.97h0c-1.95,1.94-2.99,4.44-2.99,7.24s1.02,5.21,2.96,7.17c1.96,1.98,4.49,3.03,7.31,3.03s5.36-1.05,7.31-3.03c1.94-1.96,2.97-4.44,2.97-7.17s-1.03-5.29-2.99-7.23c-1.96-1.94-4.48-2.97-7.29-2.97Z"/><path class="b" d="M684.78,199.19h-5.81v-17.29c0-2.57-.96-4.83-2.77-6.55-1.77-1.68-4.01-2.56-6.49-2.56s-4.8,.89-6.57,2.56c-1.81,1.72-2.77,3.98-2.77,6.55v17.29h-4.16c-2.54,0-4.82,.91-6.59,2.63-1.79,1.74-2.74,4.01-2.74,6.56s.94,4.73,2.71,6.49c1.77,1.76,4.06,2.69,6.62,2.69h4.16v52.49c0,2.5,.95,4.74,2.74,6.48,1.77,1.72,4.05,2.63,6.6,2.63s4.74-.91,6.52-2.63c1.79-1.74,2.74-3.98,2.74-6.48v-52.49h5.81c2.56,0,4.83-.92,6.58-2.66,1.75-1.74,2.68-4,2.68-6.53s-.92-4.79-2.68-6.54c-1.75-1.74-4.03-2.65-6.58-2.65Z"/><path class="b" d="M767.24,210.88c-3.66-3.64-8.02-6.54-12.95-8.62-4.95-2.09-10.28-3.15-15.84-3.15s-10.98,1.07-15.93,3.19c-4.92,2.1-9.28,5.01-12.97,8.64-3.69,3.63-6.64,7.96-8.76,12.85-2.13,4.92-3.22,10.23-3.22,15.81s1.08,10.89,3.22,15.81c2.13,4.89,5.07,9.22,8.76,12.85,3.69,3.64,8.06,6.53,12.98,8.61,4.95,2.09,10.3,3.15,15.91,3.15,3.2,0,6.2-.29,8.93-.85,2.71-.56,5.25-1.33,7.54-2.3,2.31-.97,4.43-2.14,6.32-3.46,1.83-1.28,3.5-2.7,4.98-4.21,2.49-2.24,3.09-4.66,3.15-6.31,.08-2.18-.48-4.12-1.64-5.8-1.05-1.72-2.5-2.96-4.3-3.69l-.33-.11c-1.34-.39-2.75-.49-4.22-.3-1.61,.21-3.2,.93-4.73,2.14l-.28,.22-.22,.27c-1.6,1.93-3.71,3.52-6.27,4.7-2.57,1.19-5.58,1.79-8.93,1.79-2.66,0-5.2-.45-7.55-1.34-2.37-.9-4.52-2.15-6.38-3.74-1.86-1.58-3.43-3.48-4.67-5.65-.57-1-1.06-2.05-1.46-3.14h51.76c2.59,0,4.86-.87,6.55-2.51,1.72-1.66,2.63-3.89,2.63-6.48-.06-5.52-1.18-10.79-3.35-15.65-2.15-4.83-5.09-9.11-8.74-12.73Zm-49.34,20.86c.4-1.18,.9-2.32,1.5-3.42,1.24-2.26,2.83-4.25,4.72-5.9,1.89-1.65,4.11-2.99,6.58-3.95,2.44-.96,5.1-1.44,7.9-1.44s5.5,.48,7.98,1.41c2.49,.94,4.72,2.26,6.64,3.91,1.92,1.66,3.55,3.66,4.85,5.93,.63,1.11,1.15,2.26,1.56,3.46h-41.73Z"/><path class="b" d="M857.87,172.79c-2.54,0-4.81,.9-6.55,2.59-1.77,1.71-2.7,3.97-2.7,6.52v23.75c-2.16-1.39-4.47-2.6-6.91-3.6-4.76-1.95-9.9-2.94-15.29-2.94s-10.9,1.07-15.85,3.19c-4.92,2.1-9.28,5.01-12.97,8.64-3.69,3.63-6.64,7.96-8.76,12.85-2.13,4.92-3.22,10.23-3.22,15.81s1.08,10.82,3.22,15.73c2.13,4.89,5.07,9.22,8.76,12.85,3.69,3.63,8.05,6.54,12.97,8.64,4.95,2.12,10.29,3.19,15.85,3.19s10.54-.99,15.29-2.94c2.64-1.08,5.12-2.4,7.43-3.94,.44,1.25,1.17,2.39,2.15,3.36,1.75,1.74,4.03,2.66,6.58,2.66s4.75-.91,6.52-2.63c1.79-1.74,2.74-3.98,2.74-6.48v-88.15c0-2.57-.96-4.83-2.77-6.55-1.77-1.68-4.01-2.56-6.49-2.56Zm-10.95,75.32c-1.13,2.66-2.72,5.02-4.71,7.01-1.98,1.99-4.36,3.58-7.05,4.73-2.68,1.14-5.62,1.72-8.75,1.72s-6-.58-8.68-1.72c-2.7-1.15-5.07-2.74-7.05-4.73-1.99-2-3.59-4.37-4.75-7.03h0c-1.14-2.63-1.72-5.48-1.72-8.48s.58-5.95,1.73-8.61c1.16-2.68,2.75-5.04,4.74-7.01,1.98-1.97,4.35-3.53,7.04-4.65,2.68-1.12,5.61-1.69,8.7-1.69s6.09,.57,8.77,1.68c2.69,1.12,5.06,2.69,7.04,4.65,1.98,1.97,3.56,4.32,4.69,6.99,1.13,2.66,1.7,5.57,1.7,8.63s-.57,5.87-1.69,8.51Z"/><path class="b" d="M993.99,229.56h-29.74c-1.36,0-2.51,.48-3.45,1.44-.94,.96-1.41,2.09-1.41,3.39s.47,2.51,1.41,3.47c.94,.96,2.09,1.44,3.45,1.44h24.17c-.99,4.21-2.55,8.01-4.67,11.41-2.12,3.4-4.73,6.31-7.85,8.72-3.11,2.41-6.66,4.27-10.63,5.57-3.98,1.3-8.29,1.95-12.95,1.95-5.75,0-11.13-1.06-16.12-3.19-5-2.13-9.34-5.03-13.02-8.72-3.69-3.69-6.6-8.01-8.75-12.97-2.15-4.96-3.22-10.29-3.22-16s1.1-11.14,3.3-16.12c2.2-4.98,5.17-9.31,8.91-12.97,3.74-3.66,8.09-6.53,13.06-8.61,4.97-2.08,10.23-3.12,15.77-3.12s10.55,1.01,15.65,3.04c5.1,2.02,9.69,5.04,13.77,9.03,.99,.99,2.17,1.47,3.53,1.44,1.36-.03,2.51-.51,3.45-1.44,.94-.98,1.42-2.13,1.45-3.43,.03-1.3-.48-2.44-1.53-3.43-5.07-5.03-10.7-8.81-16.87-11.33-6.17-2.52-12.69-3.78-19.54-3.78-4.76,0-9.32,.61-13.69,1.83-4.37,1.22-8.43,2.95-12.2,5.18-3.77,2.23-7.19,4.91-10.28,8.02-3.09,3.12-5.72,6.55-7.89,10.32-2.17,3.76-3.85,7.8-5.02,12.11-1.18,4.31-1.76,8.75-1.76,13.32s.6,9.16,1.8,13.47c1.2,4.31,2.9,8.35,5.1,12.11,2.2,3.76,4.84,7.19,7.92,10.28,3.09,3.09,6.51,5.74,10.28,7.94,3.77,2.21,7.83,3.91,12.2,5.1,4.37,1.19,8.91,1.79,13.61,1.79,6.33,0,12.23-1.08,17.69-3.23,5.47-2.15,10.27-5.13,14.4-8.92,4.13-3.79,7.49-8.27,10.08-13.43,2.59-5.16,4.17-10.76,4.75-16.78,.05-1.45-.43-2.62-1.45-3.5-1.02-.88-2.26-1.35-3.73-1.4Z"/><path class="b" d="M1057.31,202.38h-.63c-5.76,0-11.12,1.17-16.09,3.5-4.97,2.34-9.23,5.5-12.79,9.5v-8.1c0-1.35-.46-2.5-1.37-3.47-.92-.96-2.08-1.44-3.49-1.44s-2.54,.48-3.53,1.44c-.99,.96-1.49,2.12-1.49,3.47v63.53c0,1.4,.5,2.59,1.49,3.55,.99,.96,2.17,1.44,3.53,1.44s2.51-.48,3.45-1.44c.94-.96,1.41-2.14,1.41-3.54v-29.59c0-4.05,.77-7.84,2.31-11.37,1.54-3.53,3.62-6.61,6.24-9.23,2.62-2.62,5.67-4.68,9.18-6.19,3.5-1.51,7.22-2.26,11.14-2.26h.63c1.46,0,2.69-.46,3.69-1.37,.99-.92,1.49-2.11,1.49-3.57s-.45-2.58-1.33-3.49c-.89-.92-2.17-1.37-3.84-1.37Z"/><path class="b" d="M1133.54,213.32c-3.37-3.35-7.32-6-11.85-7.94-4.53-1.95-9.38-2.92-14.56-2.92s-9.96,.97-14.52,2.92c-4.55,1.95-8.53,4.59-11.93,7.94-3.4,3.35-6.08,7.29-8.04,11.84-1.96,4.54-2.94,9.38-2.94,14.52s.98,9.89,2.94,14.41c1.96,4.52,4.64,8.45,8.04,11.8,3.4,3.35,7.38,6,11.93,7.94,4.55,1.95,9.39,2.92,14.52,2.92s10.03-.97,14.56-2.92c4.52-1.95,8.47-4.59,11.85-7.94,3.37-3.35,6.04-7.28,8-11.8,1.96-4.52,2.94-9.32,2.94-14.41s-.98-9.98-2.94-14.52c-1.96-4.54-4.63-8.49-8-11.84Zm-.98,36.91c-1.41,3.3-3.36,6.18-5.85,8.64-2.48,2.47-5.4,4.43-8.75,5.88-3.35,1.45-6.96,2.18-10.83,2.18s-7.48-.73-10.83-2.18c-3.35-1.45-6.25-3.41-8.71-5.88-2.46-2.46-4.41-5.35-5.85-8.64-1.44-3.3-2.16-6.81-2.16-10.55s.72-7.35,2.16-10.67c1.44-3.32,3.4-6.22,5.88-8.68,2.48-2.46,5.4-4.41,8.75-5.84,3.35-1.43,6.93-2.14,10.75-2.14s7.48,.71,10.83,2.14c3.35,1.43,6.26,3.38,8.75,5.84,2.48,2.47,4.43,5.36,5.85,8.68,1.41,3.32,2.12,6.88,2.12,10.67s-.71,7.26-2.12,10.55Z"/><path class="b" d="M1220.47,202.46c-1.37,0-2.53,.49-3.48,1.48-.95,.99-1.42,2.16-1.42,3.5v32.94c0,3.63-.61,7.01-1.84,10.12-1.23,3.11-2.9,5.83-5.01,8.14-2.11,2.31-4.59,4.12-7.44,5.41-2.85,1.3-5.89,1.95-9.12,1.95-6.53,0-11.63-2.21-15.31-6.62-3.68-4.41-5.55-10.77-5.6-19.08v-33.02c0-1.4-.46-2.56-1.38-3.47-.92-.91-2.07-1.36-3.44-1.36-1.48,0-2.69,.45-3.64,1.36-.95,.91-1.42,2.06-1.42,3.47v32.71c0,5.45,.69,10.38,2.08,14.8,1.39,4.41,3.37,8.18,5.96,11.29,2.59,3.11,5.7,5.52,9.34,7.2,3.64,1.69,7.73,2.53,12.28,2.53,4.81,0,9.34-1.21,13.57-3.62,4.24-2.41,7.9-5.62,10.98-9.62v8.33c0,1.4,.46,2.58,1.38,3.54,.92,.96,2.1,1.44,3.52,1.44s2.54-.48,3.52-1.44c.98-.96,1.46-2.14,1.46-3.54v-63.47c0-1.35-.49-2.52-1.46-3.5-.98-.98-2.15-1.48-3.52-1.48Z"/><path class="b" d="M1319.1,225.16c-1.96-4.54-4.63-8.49-8-11.84-3.37-3.35-7.32-6-11.85-7.94-4.53-1.95-9.38-2.92-14.56-2.92-5.49,0-10.59,1.08-15.3,3.23-4.71,2.15-8.79,5.1-12.24,8.84v-7.24c0-1.4-.48-2.56-1.45-3.47-.97-.91-2.13-1.36-3.49-1.36s-2.52,.45-3.49,1.36c-.97,.91-1.45,2.06-1.45,3.47v90.02c0,1.35,.48,2.49,1.45,3.43,.97,.93,2.13,1.4,3.49,1.4s2.52-.47,3.49-1.4c.97-.93,1.45-2.08,1.45-3.43v-32.55c3.45,3.74,7.53,6.67,12.24,8.8,4.71,2.13,9.81,3.19,15.3,3.19,5.18,0,10.03-.97,14.56-2.92,4.52-1.95,8.47-4.59,11.85-7.94,3.37-3.35,6.04-7.28,8-11.8,1.96-4.52,2.94-9.32,2.94-14.41s-.98-9.98-2.94-14.52Zm-8.98,25.07c-1.41,3.3-3.36,6.18-5.85,8.64-2.49,2.47-5.4,4.43-8.75,5.88-3.35,1.45-6.96,2.18-10.83,2.18s-7.48-.73-10.83-2.18c-3.35-1.45-6.25-3.41-8.71-5.88-2.46-2.46-4.41-5.35-5.85-8.64-1.44-3.3-2.16-6.81-2.16-10.55s.72-7.35,2.16-10.67c1.44-3.32,3.4-6.22,5.89-8.68,2.48-2.46,5.4-4.41,8.75-5.84,3.35-1.43,6.93-2.14,10.75-2.14s7.48,.71,10.83,2.14c3.35,1.43,6.26,3.38,8.75,5.84,2.48,2.47,4.43,5.36,5.85,8.68,1.41,3.32,2.12,6.88,2.12,10.67s-.71,7.26-2.12,10.55Z"/></svg>